<svg width="161" height="161" viewBox="0 0 161 161" fill="none" xmlns="http://www.w3.org/2000/svg">
<path d="M26.6391 78.7259C-3.10723 95.8981 -3.10401 123.745 26.6391 140.917C56.3823 158.089 104.611 158.089 134.358 140.917C164.104 123.745 164.101 95.8981 134.358 78.7259C104.615 61.5536 56.3855 61.5536 26.6391 78.7259Z" fill="#F5F5F5"/>
<path d="M39.3164 134.744L41.2677 133.617L29.8528 132.558L31.6914 139.146L33.6427 138.022L57.6124 151.772C62.3897 152.633 67.2127 153.217 72.0573 153.523L39.3164 134.744Z" fill="#EBEBEB"/>
<path d="M72.3791 86.9787L147.92 130.31C149.208 128.895 150.392 127.388 151.462 125.802L78.0527 83.7201L80.0041 82.5931L68.5859 81.5176L70.4246 88.1057L72.3791 86.9787Z" fill="#EBEBEB"/>
<path d="M27.1575 110.707L15.7458 109.644L17.5812 116.242L19.5326 115.115L86.7372 153.646C90.0635 153.491 93.3736 153.211 96.6484 152.802L25.2062 111.834L27.1575 110.707Z" fill="#EBEBEB"/>
<path d="M144.578 104.421L146.51 103.298L135.098 102.235L136.947 108.836L138.895 107.709L155.574 117.276C156.149 115.345 156.499 113.355 156.618 111.344L144.578 104.421Z" fill="#EBEBEB"/>
<path d="M142.913 135.037L119.926 121.851L121.874 120.724L110.462 119.665L112.301 126.253L114.249 125.129L137.926 138.708C139.651 137.573 141.316 136.348 142.913 135.037Z" fill="#EBEBEB"/>
<path d="M123.378 98.094C123.378 98.094 122.241 88.5789 126.05 79.5049C128.179 74.4334 131.682 72.2084 133.778 72.0989C136.116 71.9604 138.36 74.2788 136.129 77.5729C134.007 80.7124 130.152 81.8362 127.512 90.1663C125.773 95.6596 125.815 99.3498 125.815 99.3498L123.378 98.094Z" fill="#6EE327"/>
<path opacity="0.5" d="M123.378 98.094C123.378 98.094 122.241 88.5789 126.05 79.5049C128.179 74.4334 131.682 72.2084 133.778 72.0989C136.116 71.9604 138.36 74.2788 136.129 77.5729C134.007 80.7124 130.152 81.8362 127.512 90.1663C125.773 95.6596 125.815 99.3498 125.815 99.3498L123.378 98.094Z" fill="white"/>
<path d="M124.936 95.7787C124.955 95.7783 124.974 95.774 124.991 95.7661C125.009 95.7582 125.025 95.7468 125.038 95.7327C125.051 95.7185 125.06 95.7019 125.067 95.6838C125.073 95.6657 125.076 95.6465 125.074 95.6274C124.582 85.2493 129.985 76.8644 133.978 74.2208C133.994 74.2107 134.008 74.1974 134.019 74.1818C134.029 74.1662 134.037 74.1485 134.041 74.1299C134.045 74.1112 134.045 74.092 134.041 74.0733C134.038 74.0547 134.03 74.0369 134.02 74.0212C134.009 74.0049 133.996 73.991 133.98 73.98C133.964 73.9691 133.946 73.9615 133.927 73.9576C133.908 73.9537 133.889 73.9536 133.87 73.9573C133.851 73.9611 133.833 73.9685 133.817 73.9793C129.766 76.6583 124.292 85.1495 124.788 95.6338C124.788 95.6531 124.792 95.6722 124.799 95.69C124.807 95.7078 124.818 95.7239 124.831 95.7374C124.845 95.7509 124.862 95.7615 124.879 95.7686C124.897 95.7757 124.917 95.7791 124.936 95.7787Z" fill="white"/>
<path d="M125.805 99.3467C126.269 96.9896 127.705 94.6197 130.651 92.1757C133.598 89.7317 137.587 87.5679 137.143 85.2398C136.699 82.9118 133.601 83.2209 131.392 84.3672C129.183 85.5135 124.083 90.2534 124.591 98.722L125.805 99.3467Z" fill="#6EE327"/>
<path opacity="0.65" d="M125.805 99.3467C126.269 96.9896 127.705 94.6197 130.651 92.1757C133.598 89.7317 137.587 87.5679 137.143 85.2398C136.699 82.9118 133.601 83.2209 131.392 84.3672C129.183 85.5135 124.083 90.2534 124.591 98.722L125.805 99.3467Z" fill="white"/>
<path d="M125.355 96.6612C125.389 96.6593 125.421 96.6458 125.446 96.623C125.471 96.6001 125.488 96.5692 125.493 96.5356C126.16 91.5381 132.281 85.565 135.005 84.7504C135.042 84.7385 135.073 84.7127 135.091 84.6783C135.109 84.644 135.113 84.604 135.101 84.5668C135.09 84.5302 135.065 84.4994 135.031 84.4813C134.997 84.4632 134.958 84.4592 134.921 84.4702C132.065 85.3268 125.905 91.3031 125.203 96.4969C125.199 96.5353 125.209 96.5739 125.233 96.6046C125.256 96.6353 125.291 96.6556 125.329 96.6612H125.355Z" fill="white"/>
<path d="M119.542 105.088C117.014 106.013 114.608 107.244 112.378 108.752C109.866 110.449 107.57 112.497 104.895 113.904C101.414 115.733 97.4145 116.397 93.4958 116.21C91.2772 116.104 88.8654 115.617 87.439 113.869C87.1142 113.411 86.9593 112.854 87.0011 112.294C86.9973 111.886 87.079 111.481 87.2409 111.106C87.4028 110.732 87.6414 110.395 87.9413 110.118C91.1613 106.981 95.6693 105.69 99.9905 104.679C104.312 103.668 106.923 102.396 111.177 100.142C112.999 99.176 114.793 98.1263 116.628 97.2086L116.67 97.186C119.616 95.7209 122.35 93.8082 125.686 95.547C127.328 96.4003 128.243 98.0297 127.47 99.8103C126.134 102.905 122.447 104.032 119.542 105.088Z" fill="#E0E0E0"/>
<path d="M50.7278 97.4436L32.2 108.14L56.3854 122.131L56.4723 122.077L57.1453 121.69C57.3643 121.558 57.5736 121.436 57.7893 121.317C61.0093 119.449 63.2858 118.074 63.1087 117.028C62.9832 116.232 61.5438 115.782 60.3556 115.64C59.7122 115.587 59.0865 115.403 58.517 115.099C58.3033 115.002 58.1201 114.848 57.9874 114.655C57.8546 114.461 57.7772 114.235 57.7635 114.001C57.7635 113.508 58.1242 112.996 58.8229 112.59C60.1109 111.847 62.0429 111.769 63.1731 112.413C63.596 112.649 63.9231 113.025 64.0973 113.476C64.2991 113.947 64.635 114.349 65.0632 114.631C65.4914 114.914 65.993 115.064 66.5058 115.063C68.4121 115.17 70.5437 113.94 74.0535 111.901L74.8907 111.418L50.7278 97.4436ZM96.674 123.996C95.9141 124.43 95.1799 124.843 94.4587 125.235C92.3946 126.382 90.7428 127.303 90.0183 128.072C89.891 128.179 89.7899 128.313 89.7229 128.465C89.6559 128.617 89.6248 128.782 89.6319 128.948C89.7607 129.74 91.2 130.194 92.3882 130.336C93.0313 130.386 93.6572 130.568 94.2268 130.87C94.4061 130.97 94.5672 131.1 94.7034 131.254C94.8804 131.453 94.9799 131.709 94.9835 131.975C94.9835 132.464 94.6164 132.98 93.9145 133.379C92.6265 134.126 90.6945 134.2 89.5707 133.559C89.1475 133.325 88.8194 132.95 88.6433 132.5C88.3922 131.811 87.6129 130.98 86.2315 130.906C84.6215 130.812 82.9633 131.82 80.4356 133.35L79.4148 133.952C79.0155 134.19 78.6034 134.438 78.1622 134.696L106.653 151.118C107.268 150.986 107.876 150.854 108.485 150.715C115.936 149.067 123.167 146.549 130.03 143.213L96.674 123.996Z" fill="#E0E0E0"/>
<path d="M29.5371 53.3168L27.9786 53.0849C27.8784 53.0616 27.7863 53.012 27.7116 52.9413C27.6369 52.8705 27.5823 52.7812 27.5536 52.6824C27.4788 52.4047 27.3819 52.1333 27.2638 51.871C27.238 51.7447 27.2449 51.614 27.2837 51.4912C27.3226 51.3683 27.3922 51.2574 27.486 51.169L28.2781 50.2996C28.4809 50.0775 28.5518 49.7941 28.4359 49.6556L27.2316 48.3515C27.1124 48.2227 26.8291 48.2517 26.5876 48.4159L25.5636 49.1436C25.4682 49.2201 25.3556 49.2722 25.2355 49.2952C25.1154 49.3182 24.9915 49.3115 24.8745 49.2757C24.6021 49.1232 24.3178 48.9929 24.0245 48.8861C23.9314 48.8396 23.8525 48.7692 23.7959 48.682C23.7393 48.5948 23.707 48.494 23.7025 48.3902L23.6316 46.9605C23.6291 46.8582 23.5895 46.7604 23.5202 46.6852C23.4509 46.6099 23.3566 46.5625 23.2549 46.5516L21.5161 46.4807C21.405 46.4911 21.3009 46.5392 21.2212 46.6172C21.1415 46.6952 21.091 46.7982 21.0782 46.909L20.8495 48.2227C20.8236 48.3469 20.7658 48.4621 20.6816 48.557C20.5974 48.6519 20.4899 48.7232 20.3698 48.7637C20.1376 48.8306 19.9097 48.9113 19.6871 49.0052C19.5875 49.0563 19.4771 49.083 19.3651 49.083C19.2531 49.083 19.1428 49.0563 19.0431 49.0052L17.8292 47.9555C17.7004 47.8395 17.4138 47.9072 17.1852 48.1036L16.1419 49.0245C15.9229 49.2209 15.8199 49.4914 15.9326 49.6363L16.8664 50.9243C16.9103 51.0419 16.925 51.1683 16.9093 51.2928C16.8936 51.4173 16.8479 51.5362 16.7762 51.6391C16.6861 51.7969 16.6088 51.9612 16.5347 52.1254C16.4898 52.2466 16.4159 52.3549 16.3193 52.4408C16.2227 52.5267 16.1065 52.5876 15.9809 52.618L14.4611 52.7179C14.353 52.7341 14.2539 52.7872 14.1805 52.8682C14.1071 52.9492 14.064 53.0531 14.0586 53.1622L13.962 54.7271C13.9486 54.8313 13.9741 54.9368 14.0334 55.0235C14.0928 55.1102 14.182 55.172 14.284 55.1973L15.8457 55.4291C15.9458 55.4515 16.038 55.5004 16.1128 55.5706C16.1875 55.6409 16.2421 55.7299 16.2707 55.8284C16.3455 56.1061 16.4424 56.3775 16.5605 56.6398C16.5863 56.7661 16.5794 56.8968 16.5405 57.0196C16.5017 57.1425 16.4321 57.2534 16.3383 57.3418L15.5462 58.2112C15.3401 58.4334 15.2725 58.7167 15.3884 58.8552L16.5927 60.1625C16.7118 60.2881 16.992 60.2591 17.2367 60.0949L18.2607 59.3704C18.3549 59.2928 18.4668 59.2399 18.5865 59.2163C18.7062 59.1927 18.8299 59.1992 18.9465 59.2351C19.2194 59.3889 19.5049 59.5192 19.7998 59.6248C19.8933 59.6714 19.9725 59.7424 20.0292 59.8302C20.0858 59.918 20.1178 60.0194 20.1218 60.1239L20.1927 61.5535C20.1953 61.6554 20.235 61.7529 20.3044 61.8276C20.3737 61.9023 20.468 61.9491 20.5694 61.9593L22.3082 62.0301C22.4188 62.021 22.5228 61.9735 22.6021 61.8959C22.6815 61.8183 22.7313 61.7154 22.7429 61.6051L22.9747 60.2881C23.0009 60.164 23.0589 60.049 23.1431 59.9541C23.2272 59.8593 23.3345 59.7879 23.4545 59.7471C23.6865 59.6796 23.9144 59.599 24.1372 59.5056C24.237 59.4552 24.3473 59.429 24.4592 59.429C24.571 59.429 24.6813 59.4552 24.7812 59.5056L25.9919 60.536C26.1239 60.6487 26.4073 60.5811 26.6359 60.3879L27.6792 59.4637C27.8981 59.2705 28.0012 58.9969 27.8885 58.8552L26.9547 57.5672C26.9108 57.4491 26.896 57.3221 26.9117 57.1971C26.9274 57.0721 26.9731 56.9527 27.0448 56.8491C27.1318 56.6913 27.2123 56.5271 27.2863 56.3629C27.3307 56.2417 27.4045 56.1335 27.5012 56.048C27.5979 55.9625 27.7144 55.9025 27.8402 55.8735L29.36 55.7704C29.4683 55.7548 29.5678 55.7018 29.6413 55.6207C29.7148 55.5396 29.7576 55.4354 29.7625 55.3261L29.8591 53.7611C29.866 53.6611 29.8375 53.5618 29.7786 53.4806C29.7198 53.3994 29.6343 53.3414 29.5371 53.3168ZM25.3189 54.3858C25.2496 55.2849 24.833 56.1218 24.1575 56.7192C23.482 57.3166 22.6005 57.6276 21.6996 57.5865C21.2592 57.5751 20.8256 57.4754 20.4244 57.2933C20.0233 57.1112 19.6627 56.8505 19.3642 56.5264C19.0657 56.2024 18.8354 55.8218 18.6867 55.407C18.5381 54.9923 18.4742 54.552 18.4989 54.1121C18.5683 53.213 18.9848 52.3761 19.6603 51.7787C20.3359 51.1813 21.2174 50.8703 22.1182 50.9114C22.5586 50.9228 22.9923 51.0225 23.3934 51.2046C23.7946 51.3867 24.1551 51.6475 24.4536 51.9715C24.7521 52.2955 24.9825 52.6762 25.1311 53.0909C25.2798 53.5056 25.3436 53.9459 25.3189 54.3858Z" fill="#F0F0F0"/>
<path d="M16.5541 62.6838L15.8167 63.5403C15.7643 63.5918 15.6991 63.6286 15.6278 63.6467C15.5565 63.6648 15.4817 63.6636 15.411 63.6433C15.213 63.5826 15.0106 63.5374 14.8056 63.5081C14.7225 63.4725 14.6495 63.4168 14.5933 63.346C14.537 63.2752 14.4994 63.1914 14.4836 63.1024L14.2615 62.2909C14.2035 62.0816 14.0586 61.9303 13.9395 61.9689L12.6836 62.1976C12.5613 62.2201 12.4711 62.4004 12.4808 62.6033L12.5291 63.5017C12.54 63.5888 12.5292 63.6773 12.4978 63.7593C12.4663 63.8413 12.4151 63.9143 12.3488 63.9718C12.1504 64.0759 11.9618 64.1977 11.7853 64.3356C11.7206 64.3745 11.6466 64.3951 11.5711 64.3951C11.4957 64.3951 11.4217 64.3745 11.357 64.3356L10.4619 63.8301C10.3987 63.7919 10.3238 63.7783 10.2513 63.792C10.1788 63.8056 10.1139 63.8456 10.069 63.9042L9.33807 64.9217C9.30177 64.9926 9.29092 65.0738 9.30733 65.1518C9.32375 65.2297 9.36642 65.2997 9.42823 65.3499L10.1366 65.9939C10.202 66.0574 10.2498 66.1368 10.2752 66.2243C10.3006 66.3118 10.3028 66.4044 10.2815 66.493C10.2337 66.6593 10.195 66.8281 10.1656 66.9986C10.1579 67.0805 10.1304 67.1593 10.0856 67.2283C10.0407 67.2973 9.97978 67.3544 9.90801 67.3946L8.80677 67.7166C8.68763 67.7521 8.61679 67.9485 8.65221 68.1578L8.80999 69.1431C8.84219 69.3524 8.97421 69.5166 9.09979 69.507L10.2332 69.4297C10.3588 69.4297 10.5295 69.5746 10.6293 69.7517C10.6937 69.8676 10.7613 69.9771 10.8321 70.0737C10.8893 70.1476 10.9271 70.2346 10.9423 70.3267C10.9575 70.4189 10.9495 70.5134 10.9191 70.6018L10.3974 71.5678C10.3626 71.6383 10.3548 71.7193 10.3756 71.7952C10.3964 71.8712 10.4442 71.9369 10.5101 71.9799L11.4214 72.64C11.4788 72.6865 11.5504 72.7119 11.6243 72.7119C11.6981 72.7119 11.7698 72.6865 11.8271 72.64L12.5581 71.806C12.6105 71.7545 12.6757 71.7178 12.747 71.6997C12.8183 71.6816 12.8931 71.6827 12.9638 71.703C13.1618 71.7637 13.3642 71.8089 13.5691 71.8382C13.6521 71.8732 13.7249 71.9284 13.7812 71.9987C13.8374 72.0689 13.8752 72.1522 13.8911 72.2407L14.1133 73.0554C14.1713 73.2647 14.3162 73.416 14.4353 73.3774L15.6911 73.1488C15.8135 73.1262 15.9036 72.9459 15.894 72.7431L15.8457 71.8415C15.8355 71.7545 15.8469 71.6664 15.8789 71.585C15.9109 71.5035 15.9625 71.4312 16.0292 71.3746C16.2255 71.2674 16.4129 71.1446 16.5895 71.0075C16.6544 70.9692 16.7283 70.9491 16.8036 70.9491C16.8789 70.9491 16.9529 70.9692 17.0178 71.0075L17.9129 71.513C17.976 71.5512 18.051 71.5648 18.1235 71.5511C18.196 71.5375 18.2609 71.4975 18.3058 71.439L19.0142 70.4118C19.0499 70.3407 19.0604 70.2597 19.044 70.1819C19.0276 70.1041 18.9853 70.0341 18.924 69.9835L18.2156 69.3395C18.1499 69.2762 18.102 69.1969 18.0766 69.1093C18.0512 69.0217 18.0491 68.929 18.0707 68.8404C18.1188 68.6753 18.1575 68.5076 18.1866 68.3381C18.1941 68.2561 18.2214 68.1771 18.2663 68.1081C18.3112 68.0391 18.3723 67.9821 18.4442 67.942L19.5487 67.62C19.6646 67.5846 19.7354 67.385 19.7 67.1789L19.5422 66.1936C19.51 65.9843 19.3812 65.8201 19.2524 65.8297L18.1222 65.907C17.9934 65.907 17.8228 65.7621 17.7229 65.585C17.6618 65.4723 17.5941 65.3628 17.5201 65.263C17.4638 65.1893 17.4264 65.1029 17.4112 65.0114C17.396 64.9199 17.4036 64.8261 17.4331 64.7381L17.958 63.7721C17.9926 63.7012 17.9998 63.62 17.9785 63.544C17.9571 63.468 17.9086 63.4025 17.8421 63.36L16.9308 62.6999C16.8777 62.6579 16.8127 62.6338 16.7451 62.6309C16.6774 62.628 16.6106 62.6465 16.5541 62.6838ZM15.5881 65.6526C16.106 66.0395 16.453 66.6127 16.5558 67.2509C16.6585 67.8892 16.509 68.5423 16.1387 69.0723C15.963 69.3353 15.7362 69.5603 15.4718 69.734C15.2074 69.9076 14.9108 70.0264 14.5997 70.0831C14.2885 70.1399 13.9691 70.1336 13.6604 70.0644C13.3517 69.9953 13.0601 69.8649 12.8028 69.6808C12.2821 69.2957 11.9318 68.7231 11.8261 68.0842C11.7203 67.4453 11.8673 66.7903 12.2361 66.258C12.412 65.9934 12.6396 65.767 12.9052 65.5925C13.1708 65.4179 13.4689 65.2988 13.7816 65.2423C14.0943 65.1858 14.4152 65.193 14.7251 65.2635C15.035 65.334 15.3274 65.4663 15.5849 65.6526H15.5881Z" fill="#F0F0F0"/>
<path d="M123.41 53.7739L123.506 55.3388C123.51 55.4486 123.552 55.5534 123.626 55.6348C123.7 55.7162 123.8 55.7688 123.909 55.7832L125.429 55.8862C125.554 55.9159 125.67 55.976 125.767 56.0614C125.864 56.1468 125.938 56.2548 125.983 56.3757C126.054 56.5417 126.133 56.704 126.221 56.8619C126.292 56.9656 126.338 57.0848 126.354 57.2097C126.37 57.3345 126.357 57.4614 126.314 57.5799L125.377 58.8679C125.274 59.0096 125.377 59.2833 125.59 59.4765L126.633 60.4007C126.852 60.5939 127.139 60.6615 127.277 60.5488L128.491 59.4958C128.591 59.4455 128.701 59.4192 128.813 59.4192C128.925 59.4192 129.035 59.4455 129.135 59.4958C129.356 59.5897 129.583 59.6704 129.814 59.7373C129.934 59.7782 130.042 59.8495 130.126 59.9443C130.21 60.0392 130.268 60.1543 130.294 60.2783L130.526 61.5953C130.538 61.7054 130.588 61.808 130.667 61.8854C130.747 61.9629 130.85 62.0106 130.961 62.0203L132.7 61.9495C132.801 61.9394 132.896 61.8927 132.966 61.8181C133.036 61.7434 133.076 61.646 133.079 61.5438L133.15 60.1141C133.154 60.0097 133.186 59.9082 133.243 59.8204C133.3 59.7326 133.379 59.6617 133.472 59.615C133.766 59.5088 134.05 59.3785 134.322 59.2254C134.439 59.1894 134.564 59.183 134.684 59.2065C134.804 59.2301 134.917 59.2831 135.011 59.3606L136.032 60.0851C136.264 60.2493 136.547 60.2783 136.676 60.1527L137.88 58.8454C138 58.7166 137.929 58.4332 137.726 58.2014L136.934 57.332C136.84 57.2436 136.77 57.1327 136.732 57.0099C136.693 56.887 136.686 56.7563 136.712 56.63C136.828 56.3672 136.925 56.0959 137.001 55.8186C137.029 55.7204 137.083 55.6314 137.158 55.5612C137.232 55.491 137.324 55.442 137.423 55.4193L138.985 55.1875C139.086 55.161 139.175 55.0989 139.234 55.0125C139.293 54.9262 139.319 54.8214 139.307 54.7174L139.207 53.1524C139.203 53.0429 139.16 52.9384 139.087 52.8571C139.013 52.7759 138.913 52.7231 138.805 52.7081L137.288 52.6083C137.162 52.5785 137.045 52.518 136.947 52.432C136.85 52.346 136.776 52.2373 136.731 52.1156C136.66 51.9514 136.58 51.7936 136.493 51.6294C136.421 51.5262 136.376 51.4076 136.36 51.2833C136.343 51.1589 136.357 51.0325 136.399 50.9145L137.336 49.6265C137.439 49.4816 137.336 49.2112 137.124 49.0147L136.084 48.0938C135.862 47.8974 135.578 47.8298 135.44 47.9457L134.226 48.9954C134.126 49.0466 134.016 49.0732 133.904 49.0732C133.792 49.0732 133.681 49.0466 133.582 48.9954C133.36 48.9015 133.133 48.8209 132.902 48.7539C132.782 48.7134 132.675 48.6421 132.591 48.5473C132.506 48.4524 132.448 48.3371 132.423 48.213L132.191 46.8992C132.179 46.7887 132.129 46.6858 132.05 46.6077C131.97 46.5297 131.867 46.4814 131.756 46.4709L130.017 46.5418C129.915 46.552 129.821 46.5993 129.751 46.6747C129.682 46.75 129.642 46.8483 129.641 46.9507L129.57 48.3804C129.565 48.4842 129.532 48.5848 129.476 48.6719C129.419 48.7591 129.34 48.8296 129.248 48.8763C128.955 48.9838 128.67 49.1141 128.398 49.2659C128.281 49.3017 128.158 49.3084 128.038 49.2854C127.919 49.2624 127.807 49.2104 127.712 49.1339L126.688 48.4062C126.456 48.2419 126.173 48.213 126.044 48.3418L124.839 49.6459C124.72 49.7747 124.791 50.058 124.994 50.2899L125.786 51.1593C125.88 51.2475 125.95 51.3583 125.99 51.4811C126.029 51.6039 126.037 51.7347 126.012 51.8612C125.892 52.1235 125.794 52.3948 125.719 52.6727C125.69 52.771 125.636 52.8601 125.562 52.9308C125.488 53.0015 125.396 53.0513 125.297 53.0752L123.735 53.307C123.633 53.3309 123.543 53.3918 123.483 53.478C123.423 53.5642 123.397 53.6696 123.41 53.7739ZM131.138 50.9017C132.038 50.8613 132.92 51.1727 133.595 51.7699C134.27 52.3672 134.687 53.2035 134.757 54.1023C134.782 54.5425 134.718 54.9831 134.569 55.398C134.42 55.8129 134.189 56.1937 133.891 56.5178C133.592 56.8419 133.231 57.1026 132.829 57.2845C132.428 57.4664 131.994 57.5658 131.553 57.5767C130.652 57.6179 129.771 57.3068 129.095 56.7094C128.42 56.112 128.003 55.2752 127.934 54.376C127.911 53.9363 127.976 53.4964 128.126 53.0824C128.276 52.6683 128.508 52.2886 128.807 51.9656C129.107 51.6426 129.468 51.3828 129.869 51.2018C130.27 51.0207 130.704 50.9219 131.144 50.9113L131.138 50.9017Z" fill="#F0F0F0"/>
<path d="M140.237 58.179L139.326 58.823C139.26 58.8655 139.211 58.931 139.19 59.007C139.168 59.083 139.176 59.1642 139.21 59.2351L139.732 60.2011C139.762 60.2888 139.77 60.3825 139.756 60.4741C139.741 60.5656 139.704 60.6521 139.648 60.726C139.574 60.8355 139.507 60.945 139.445 61.048C139.342 61.2348 139.172 61.3893 139.046 61.37L137.913 61.2927C137.787 61.2927 137.658 61.4473 137.626 61.6566L137.465 62.6419C137.433 62.8512 137.5 63.0476 137.62 63.083L138.724 63.405C138.795 63.4459 138.856 63.5032 138.901 63.572C138.945 63.6409 138.973 63.7194 138.982 63.8011C139.008 63.9722 139.047 64.1412 139.098 64.3066C139.118 64.3953 139.116 64.4877 139.09 64.5751C139.065 64.6625 139.018 64.7419 138.953 64.8057L138.244 65.4497C138.181 65.4992 138.138 65.5692 138.122 65.6475C138.105 65.7258 138.117 65.8074 138.154 65.878L138.863 66.902C138.907 66.9605 138.972 67.0005 139.045 67.0141C139.117 67.0278 139.192 67.0142 139.255 66.976L140.147 66.4705C140.212 66.4316 140.286 66.411 140.361 66.411C140.437 66.411 140.511 66.4316 140.576 66.4705C140.753 66.6066 140.942 66.7283 141.139 66.8343C141.205 66.892 141.257 66.965 141.289 67.0468C141.321 67.1287 141.332 67.2171 141.323 67.3045L141.274 68.2028C141.274 68.4057 141.355 68.586 141.477 68.6086L142.73 68.8372C142.852 68.8597 143 68.7084 143.052 68.4991L143.274 67.6876C143.298 67.6058 143.342 67.5309 143.401 67.4688C143.459 67.4067 143.532 67.3593 143.612 67.3302C143.816 67.3013 144.017 67.256 144.214 67.195C144.285 67.1744 144.36 67.173 144.431 67.1912C144.502 67.2093 144.568 67.2462 144.62 67.298L145.36 68.1545C145.418 68.2011 145.489 68.2265 145.563 68.2265C145.637 68.2265 145.709 68.2011 145.766 68.1545L146.677 67.4944C146.743 67.4514 146.791 67.3857 146.812 67.3097C146.833 67.2338 146.825 67.1529 146.79 67.0823L146.269 66.1163C146.238 66.0287 146.23 65.9349 146.245 65.8434C146.259 65.7518 146.296 65.6653 146.352 65.5914C146.426 65.4819 146.494 65.3725 146.555 65.2694C146.658 65.0827 146.829 64.9281 146.954 64.9474L148.088 65.0247C148.213 65.0247 148.342 64.8701 148.378 64.6608L148.535 63.6755C148.568 63.4694 148.5 63.2698 148.381 63.2344L147.276 62.9124C147.205 62.8722 147.144 62.815 147.1 62.746C147.056 62.6769 147.029 62.5981 147.022 62.5163C146.993 62.3458 146.954 62.1771 146.906 62.0108C146.884 61.923 146.886 61.8309 146.91 61.7438C146.935 61.6568 146.983 61.5778 147.048 61.5149L147.756 60.8709C147.819 60.822 147.862 60.7528 147.879 60.6752C147.896 60.5976 147.886 60.5165 147.85 60.4459L147.154 59.4026C147.109 59.344 147.044 59.3041 146.972 59.2904C146.899 59.2767 146.824 59.2903 146.761 59.3285L145.866 59.8341C145.801 59.8723 145.727 59.8924 145.652 59.8924C145.577 59.8924 145.503 59.8723 145.438 59.8341C145.26 59.6969 145.072 59.5742 144.874 59.467C144.808 59.4099 144.757 59.3376 144.725 59.2562C144.693 59.1749 144.681 59.087 144.691 59.0001L144.739 58.0985C144.739 57.8956 144.659 57.7153 144.536 57.6928L143.284 57.4641C143.161 57.4416 143.016 57.5929 142.962 57.8022L142.739 58.6169C142.721 58.7073 142.68 58.7916 142.62 58.862C142.561 58.9324 142.484 58.9865 142.398 59.0194C142.194 59.0487 141.993 59.094 141.796 59.1546C141.725 59.1749 141.65 59.1761 141.579 59.158C141.508 59.1399 141.443 59.1032 141.39 59.0516L140.65 58.1951C140.594 58.1446 140.522 58.1153 140.446 58.1124C140.371 58.1094 140.297 58.133 140.237 58.179ZM144.945 61.7661C145.316 62.2953 145.467 62.9484 145.365 63.5869C145.263 64.2253 144.916 64.7988 144.398 65.1857C144.141 65.3699 143.849 65.5006 143.541 65.5699C143.232 65.6393 142.913 65.6459 142.602 65.5894C142.29 65.533 141.994 65.4146 141.729 65.2412C141.465 65.0679 141.238 64.8431 141.062 64.5803C140.691 64.0502 140.54 63.3963 140.643 62.7573C140.746 62.1183 141.094 61.5445 141.612 61.1575C141.869 60.9735 142.161 60.8431 142.469 60.774C142.778 60.705 143.097 60.6986 143.408 60.7554C143.719 60.8122 144.015 60.9309 144.279 61.1045C144.543 61.2782 144.77 61.5031 144.945 61.7661Z" fill="#F0F0F0"/>
<path d="M32.2 106.676L56.3886 120.666L56.4755 120.612L57.1517 120.225L57.7957 119.852C61.0157 117.987 63.2923 116.613 63.1184 115.563C62.9896 114.767 61.5503 114.317 60.3621 114.175C59.7189 114.123 59.0931 113.94 58.5235 113.637C58.3093 113.54 58.1258 113.386 57.993 113.192C57.8602 112.998 57.783 112.771 57.77 112.536C57.77 112.047 58.1306 111.531 58.8293 111.126C60.1173 110.385 62.0494 110.305 63.1763 110.952C63.6018 111.184 63.9314 111.559 64.1069 112.011C64.3549 112.7 65.1373 113.531 66.5155 113.602C68.4185 113.705 70.5501 112.475 74.0632 110.44L74.8972 109.957L50.7472 95.9788L32.2 106.676ZM96.674 122.534C95.9141 122.966 95.1799 123.375 94.4587 123.774C91.5607 125.384 89.4741 126.537 89.6287 127.486C89.6811 127.723 89.8187 127.931 90.015 128.072C90.5496 128.507 91.5285 128.771 92.385 128.871C93.0278 128.923 93.6533 129.105 94.2236 129.406C94.4378 129.505 94.6212 129.66 94.7544 129.855C94.8876 130.05 94.9657 130.278 94.9803 130.513C94.9685 130.784 94.8703 131.043 94.7002 131.254C94.4834 131.525 94.2153 131.75 93.9112 131.917C92.6232 132.661 90.6913 132.735 89.5675 132.094C89.1436 131.861 88.8153 131.486 88.6401 131.035C88.389 130.346 87.6097 129.515 86.2283 129.441C84.6183 129.351 82.96 130.355 80.4323 131.885C79.7593 132.294 78.9962 132.754 78.1783 133.247L79.4309 133.965L108.501 150.735C115.952 149.087 123.183 146.569 130.046 143.232C130.501 143.018 130.952 142.789 131.398 142.546L96.674 122.534Z" fill="#6EE327"/>
<path opacity="0.2" d="M32.2 106.676L56.3886 120.666L56.4755 120.612L57.1517 120.225L57.7957 119.852C61.0157 117.987 63.2923 116.613 63.1184 115.563C62.9896 114.767 61.5503 114.317 60.3621 114.175C59.7189 114.123 59.0931 113.94 58.5235 113.637C58.3093 113.54 58.1258 113.386 57.993 113.192C57.8602 112.998 57.783 112.771 57.77 112.536C57.77 112.047 58.1306 111.531 58.8293 111.126C60.1173 110.385 62.0494 110.305 63.1763 110.952C63.6018 111.184 63.9314 111.559 64.1069 112.011C64.3549 112.7 65.1373 113.531 66.5155 113.602C68.4185 113.705 70.5501 112.475 74.0632 110.44L74.8972 109.957L50.7472 95.9788L32.2 106.676ZM96.674 122.534C95.9141 122.966 95.1799 123.375 94.4587 123.774C91.5607 125.384 89.4741 126.537 89.6287 127.486C89.6811 127.723 89.8187 127.931 90.015 128.072C90.5496 128.507 91.5285 128.771 92.385 128.871C93.0278 128.923 93.6533 129.105 94.2236 129.406C94.4378 129.505 94.6212 129.66 94.7544 129.855C94.8876 130.05 94.9657 130.278 94.9803 130.513C94.9685 130.784 94.8703 131.043 94.7002 131.254C94.4834 131.525 94.2153 131.75 93.9112 131.917C92.6232 132.661 90.6913 132.735 89.5675 132.094C89.1436 131.861 88.8153 131.486 88.6401 131.035C88.389 130.346 87.6097 129.515 86.2283 129.441C84.6183 129.351 82.96 130.355 80.4323 131.885C79.7593 132.294 78.9962 132.754 78.1783 133.247L79.4309 133.965L108.501 150.735C115.952 149.087 123.183 146.569 130.046 143.232C130.501 143.018 130.952 142.789 131.398 142.546L96.674 122.534Z" fill="white"/>
<path d="M57.0937 64.6223L41.4639 48.6704L25.834 82.6704L32.1999 78.9964V106.679L50.7278 95.9787V68.2963L57.0937 64.6223Z" fill="#6EE327"/>
<path d="M50.2933 15.266L51.0886 13.6077L47.611 11.592C47.1999 11.3531 46.7593 11.1691 46.3005 11.0446C46.1395 11.0027 45.9785 10.9673 45.8143 10.9383C45.0017 10.8042 44.171 10.8271 43.3671 11.0059C43.0686 11.0681 42.774 11.1476 42.4848 11.2442C42.1752 11.3442 41.8711 11.4603 41.5735 11.592C41.1717 11.7703 40.7804 11.9713 40.4015 12.1941C39.9805 12.4391 39.5731 12.7067 39.1811 12.9959C38.8784 13.2148 38.5822 13.4499 38.2859 13.6978C33.9711 17.3493 30.5901 23.8441 29.7143 30.0909C29.6531 30.5159 29.608 30.9377 29.5726 31.3595C29.5211 31.9649 29.4985 32.5638 29.4985 33.1531C29.4985 33.6393 29.5211 34.1191 29.5565 34.5602C29.5887 34.9531 29.6338 35.333 29.6885 35.7001C29.7433 36.0672 29.8141 36.4149 29.8946 36.7563C30.1082 37.692 30.4507 38.5936 30.9121 39.4353C31.0055 39.6027 31.1021 39.7573 31.2051 39.9183C31.6166 40.5592 32.1376 41.1227 32.7443 41.583C32.9265 41.7165 33.1156 41.8401 33.311 41.9533L36.5986 43.8499L37.3264 42.3333C37.5196 42.2914 37.7128 42.2399 37.9092 42.182C38.7096 41.9351 39.478 41.5946 40.1986 41.1677C40.6619 40.8948 41.1102 40.597 41.5413 40.2757C42.1201 39.8421 42.6708 39.3721 43.19 38.8686C46.7932 35.4006 49.63 29.9782 50.67 24.5782C50.8241 23.7859 50.938 22.9863 51.0114 22.1825C51.0693 21.5192 51.1015 20.8623 51.0983 20.2151C51.0986 19.2799 51.0221 18.3461 50.8697 17.4234C50.7432 16.6883 50.5503 15.9662 50.2933 15.266Z" fill="#6EE327"/>
<path opacity="0.25" d="M30.5063 26.4039L37.5614 30.4772L38.4887 27.7917L31.4273 23.7087C31.0763 24.591 30.7672 25.4894 30.5063 26.4039Z" fill="white"/>
<path opacity="0.25" d="M47.6111 11.592C47.2 11.3531 46.7594 11.1691 46.3006 11.0446C46.1396 11.0027 45.9786 10.9673 45.8144 10.9383C45.0018 10.8042 44.1711 10.8271 43.3672 11.0059L43.0452 11.0832L50.303 15.2692C50.303 15.2692 50.303 15.2692 50.303 15.2531L51.0984 13.5948L47.6111 11.592Z" fill="white"/>
<path opacity="0.25" d="M46.8576 21.896L47.7849 20.7786L37.2072 14.696C36.8724 15.0288 36.5439 15.3787 36.2219 15.7458L46.8576 21.896Z" fill="white"/>
<path opacity="0.25" d="M33.9744 18.7372L43.1481 24.0276L44.156 21.3905L35.623 16.4639C35.033 17.1915 34.4827 17.9504 33.9744 18.7372Z" fill="white"/>
<path opacity="0.4" d="M47.6109 11.592C47.1998 11.3531 46.7592 11.1691 46.3004 11.0446C46.1394 11.0027 45.9784 10.9673 45.8142 10.9383C45.0016 10.8042 44.1709 10.8271 43.367 11.0059C43.0685 11.0681 42.7739 11.1476 42.4847 11.2442C42.1751 11.3442 41.871 11.4603 41.5734 11.592C41.1716 11.7703 40.7803 11.9713 40.4014 12.1941C39.9804 12.4391 39.573 12.7067 39.181 12.9959C38.8783 13.2148 38.5821 13.4499 38.2858 13.6978C34.2673 17.0917 31.0473 22.9586 29.9138 28.7932L44.6292 37.2908C47.6604 33.6155 49.7287 29.2432 50.6474 24.5686C50.8015 23.7763 50.9154 22.9767 50.9887 22.1729C51.0467 21.5096 51.0789 20.8527 51.0757 20.2055C51.0759 19.2702 50.9995 18.3365 50.847 17.4137C50.7237 16.6789 50.534 15.9568 50.2803 15.2563L51.0757 13.598L47.6109 11.592Z" fill="white"/>
<path opacity="0.1" d="M36.589 43.8498L37.3167 42.3332C37.5099 42.2913 37.7031 42.2398 37.8995 42.1818C38.6999 41.935 39.4683 41.5945 40.1889 41.1675C40.6523 40.8946 41.1005 40.5969 41.5317 40.2756C42.1105 39.842 42.6611 39.372 43.1803 38.8685C43.6944 38.3714 44.1824 37.848 44.6422 37.3003L29.9268 28.8027C29.8431 29.231 29.7722 29.6625 29.7143 30.0907C29.6563 30.519 29.608 30.9376 29.5726 31.3594C29.5211 31.9648 29.4985 32.5637 29.4985 33.153C29.4985 33.6392 29.5211 34.119 29.5565 34.5601C29.5887 34.9529 29.6338 35.3329 29.6885 35.7C29.7433 36.0671 29.8141 36.4148 29.8946 36.7561C30.1082 37.6919 30.4507 38.5935 30.9121 39.4352C31.0055 39.6026 31.1021 39.7572 31.2051 39.9182C31.6166 40.5591 32.1376 41.1226 32.7443 41.5829C32.9265 41.7164 33.1156 41.84 33.311 41.9532L36.589 43.8498Z" fill="#242923"/>
<path opacity="0.1" d="M30.9121 39.4354C31.0055 39.6028 31.1021 39.7574 31.2051 39.9184C31.6165 40.5593 32.1375 41.1228 32.7443 41.5831C32.9264 41.7166 33.1156 41.8402 33.311 41.9534L36.5986 43.85L37.3263 42.3334H37.3553L37.4068 41.7119L30.0974 37.4905C30.2987 38.166 30.5718 38.818 30.9121 39.4354Z" fill="#242923"/>
<path d="M54.5758 19.5678C54.4256 18.6138 54.1563 17.6823 53.774 16.7954C53.3101 15.6911 52.576 14.7211 51.6392 13.9747C51.0647 13.5328 50.4079 13.2098 49.7072 13.0248C49.5462 12.9829 49.3852 12.9475 49.2177 12.9185C48.4052 12.7844 47.5744 12.8073 46.7705 12.9861C46.4722 13.0491 46.1777 13.1287 45.8882 13.2244C45.5789 13.325 45.2747 13.4411 44.977 13.5722C44.5786 13.7486 44.1905 13.9475 43.8146 14.1679C43.3918 14.4117 42.9833 14.6794 42.591 14.9697C42.2915 15.1886 41.992 15.4237 41.699 15.6716C37.3842 19.3134 33.971 25.8082 33.1242 32.055C33.0662 32.48 33.0179 32.9018 32.9857 33.3237C32.9342 33.9258 32.9084 34.5279 32.9116 35.1172C32.9116 35.6034 32.931 36.0832 32.9696 36.5243C33.0018 36.9172 33.0437 37.2971 33.1016 37.6642C33.1596 38.0313 33.2272 38.3791 33.3077 38.7204C33.5154 39.6565 33.8547 40.5585 34.3156 41.3994C34.41 41.5669 34.5066 41.7279 34.6054 41.8824C35.0179 42.5235 35.54 43.087 36.1477 43.5472C37.0285 44.2073 38.0878 44.5866 39.1874 44.6355C40.0105 44.6728 40.8336 44.5637 41.6185 44.3135C42.4192 44.0674 43.1877 43.7269 43.9079 43.2992C44.372 43.0275 44.8203 42.7297 45.2507 42.4073C45.8295 41.9736 46.3801 41.5037 46.8993 41.0001C50.5025 37.5354 53.3393 32.1097 54.3794 26.7098C54.5324 25.9174 54.6452 25.1179 54.7175 24.3141C54.7787 23.6701 54.8076 22.9939 54.8076 22.3467C54.8077 21.4156 54.7301 20.4861 54.5758 19.5678Z" fill="#6EE327"/>
<path opacity="0.05" d="M33.3399 30.7639C33.2562 31.1954 33.1853 31.6301 33.1242 32.0519C33.063 32.4737 33.0179 32.8988 32.9857 33.3206C32.9342 33.9227 32.9084 34.5249 32.9116 35.1141C32.9116 35.6004 32.931 36.0801 32.9696 36.5213C33.0018 36.9141 33.0437 37.2941 33.1016 37.6612C33.1596 38.0282 33.2272 38.376 33.3077 38.7173C33.5154 39.6535 33.8547 40.5555 34.3156 41.3964C34.41 41.5638 34.5066 41.7248 34.6054 41.8794C35.0179 42.5204 35.54 43.0839 36.1477 43.5441C37.0285 44.2042 38.0878 44.5835 39.1874 44.6325C40.0105 44.6697 40.8336 44.5607 41.6185 44.3105C42.4192 44.0644 43.1877 43.7239 43.9079 43.2962C44.3104 43.0611 44.7097 42.7938 45.1026 42.5105L33.3399 30.7639Z" fill="#242923"/>
<path opacity="0.05" d="M33.5107 39.4836C33.7091 40.1546 33.979 40.8023 34.3157 41.4156C34.4102 41.5831 34.5068 41.7441 34.6055 41.8986C35.0181 42.5397 35.5402 43.1032 36.1479 43.5634C36.8704 44.104 37.7156 44.4569 38.608 44.5906L33.5107 39.4836Z" fill="#242923"/>
<path opacity="0.1" d="M34.8372 25.6826C34.4862 26.5649 34.1932 27.4633 33.9163 28.3681L46.7254 41.1773L46.8993 41.013C47.454 40.4768 47.9785 39.9103 48.4707 39.3161L34.8372 25.6826Z" fill="white"/>
<path opacity="0.1" d="M39.0232 18.4346C38.4365 19.1617 37.8905 19.9206 37.3875 20.7079L51.4846 34.8083C51.9419 33.9485 52.3605 33.0566 52.7372 32.1485L39.0232 18.4346Z" fill="white"/>
<path opacity="0.1" d="M40.6236 16.6636C40.3016 16.9856 39.9539 17.3527 39.6287 17.7197L53.1076 31.1987C53.2965 30.6963 53.4725 30.1876 53.6357 29.6724L40.6236 16.6636Z" fill="white"/>
<path opacity="0.1" d="M54.7757 21.3839C54.7757 21.1231 54.7402 20.8687 54.7145 20.6175C54.7145 20.537 54.7145 20.4533 54.6887 20.3696L54.6597 20.1152C54.634 19.9317 54.6082 19.7481 54.576 19.5678C54.4258 18.6138 54.1565 17.6823 53.7742 16.7954C53.3103 15.6911 52.5762 14.7211 51.6394 13.9747C51.0649 13.5328 50.4081 13.2098 49.7074 13.0248C49.5464 12.9829 49.3854 12.9475 49.2179 12.9185C48.4054 12.7844 47.5746 12.8073 46.7707 12.9861L46.4487 13.0634L54.7757 21.3839Z" fill="white"/>
<path d="M52.0159 24.0339C52.0159 29.7945 48.6575 36.4503 44.4071 39.2774C44.2268 39.3998 44.0432 39.5125 43.8597 39.6187C39.3517 42.2205 35.7002 39.461 35.7002 33.4524C35.7002 27.4439 39.3517 20.4662 43.8597 17.8644C44.0432 17.7614 44.2268 17.6616 44.4071 17.5746C48.6575 15.4945 52.0159 18.2701 52.0159 24.0339Z" fill="#6EE327"/>
<path opacity="0.4" d="M52.0159 24.0339C52.0159 29.7945 48.6575 36.4503 44.4071 39.2774C44.2268 39.3998 44.0432 39.5125 43.8597 39.6187C39.3517 42.2205 35.7002 39.461 35.7002 33.4524C35.7002 27.4439 39.3517 20.4662 43.8597 17.8644C44.0432 17.7614 44.2268 17.6616 44.4071 17.5746C48.6575 15.4945 52.0159 18.2701 52.0159 24.0339Z" fill="#242923"/>
<path d="M51.6554 24.2434C51.6554 24.4302 51.6554 24.6169 51.6554 24.8037C51.4494 30.1747 48.3195 36.1961 44.3943 38.8107L44.2881 38.8815C44.1496 38.9685 44.0112 39.0554 43.8727 39.1359C43.1215 39.5894 42.2892 39.8923 41.4223 40.0279C39.5933 40.2758 38.0638 39.474 37.1171 37.835C36.4992 36.6944 36.149 35.4281 36.0932 34.132C36.0739 33.8487 36.0642 33.5589 36.0642 33.2562C36.0642 32.9535 36.0642 32.7056 36.09 32.4254C36.124 31.832 36.1895 31.2409 36.2864 30.6544C36.9755 26.5039 39.1844 22.2824 42.0051 19.7322C42.3947 19.376 42.8089 19.0478 43.2448 18.7501C43.4477 18.6116 43.6538 18.4828 43.8598 18.3637C44.0659 18.2446 44.2108 18.1705 44.3815 18.0836L44.5264 18.0159C45.5187 17.5095 46.6459 17.3303 47.7464 17.504C49.3886 17.826 50.6444 19.114 51.2594 21.2166C51.5317 22.2022 51.665 23.221 51.6554 24.2434Z" fill="#6EE327"/>
<path opacity="0.5" d="M51.6554 24.2434C51.6554 24.4302 51.6554 24.6169 51.6554 24.8037C51.4494 30.1747 48.3195 36.1961 44.3943 38.8107L44.2881 38.8815C44.1496 38.9685 44.0112 39.0554 43.8727 39.1359C43.1215 39.5894 42.2892 39.8923 41.4223 40.0279C39.5933 40.2758 38.0638 39.474 37.1171 37.835C36.4992 36.6944 36.149 35.4281 36.0932 34.132C36.0739 33.8487 36.0642 33.5589 36.0642 33.2562C36.0642 32.9535 36.0642 32.7056 36.09 32.4254C36.124 31.832 36.1895 31.2409 36.2864 30.6544C36.9755 26.5039 39.1844 22.2824 42.0051 19.7322C42.3947 19.376 42.8089 19.0478 43.2448 18.7501C43.4477 18.6116 43.6538 18.4828 43.8598 18.3637C44.0659 18.2446 44.2108 18.1705 44.3815 18.0836L44.5264 18.0159C45.5187 17.5095 46.6459 17.3303 47.7464 17.504C49.3886 17.826 50.6444 19.114 51.2594 21.2166C51.5317 22.2022 51.665 23.221 51.6554 24.2434Z" fill="#242923"/>
<path d="M50.3479 24.0534C50.3479 23.8634 50.3479 23.6766 50.3479 23.4899C50.3595 22.4633 50.2273 21.4401 49.9551 20.4502C49.686 19.3723 49.1113 18.395 48.3 17.6359C48.1236 17.5741 47.9428 17.5256 47.7591 17.491C46.6586 17.3173 45.5314 17.4965 44.5391 18.003L44.3942 18.0706C44.2235 18.1576 44.0464 18.2477 43.8725 18.3508C43.6986 18.4538 43.4604 18.5987 43.2575 18.7372C42.8216 19.0349 42.4074 19.3631 42.0178 19.7193C39.2003 22.2598 36.9882 26.4813 36.2991 30.6415C36.2022 31.2279 36.1367 31.8191 36.1027 32.4125C36.0833 32.6926 36.0769 32.9696 36.0769 33.2433C36.0769 33.517 36.0769 33.8357 36.1059 34.1191C36.1558 35.4185 36.5016 36.6894 37.117 37.835C37.3855 38.3099 37.7316 38.7365 38.1409 39.0972C38.7799 39.312 39.4607 39.3727 40.1277 39.2743C40.9944 39.1398 41.8266 38.838 42.5781 38.3856C42.7165 38.3051 42.8582 38.2182 42.9935 38.128L43.0997 38.0572C47.012 35.4457 50.1419 29.4243 50.3479 24.0534Z" fill="#6EE327"/>
<path opacity="0.25" d="M50.3479 24.0534C50.3479 23.8634 50.3479 23.6766 50.3479 23.4899C50.3595 22.4633 50.2273 21.4401 49.9551 20.4502C49.686 19.3723 49.1113 18.395 48.3 17.6359C48.1236 17.5741 47.9428 17.5256 47.7591 17.491C46.6586 17.3173 45.5314 17.4965 44.5391 18.003L44.3942 18.0706C44.2235 18.1576 44.0464 18.2477 43.8725 18.3508C43.6986 18.4538 43.4604 18.5987 43.2575 18.7372C42.8216 19.0349 42.4074 19.3631 42.0178 19.7193C39.2003 22.2598 36.9882 26.4813 36.2991 30.6415C36.2022 31.2279 36.1367 31.8191 36.1027 32.4125C36.0833 32.6926 36.0769 32.9696 36.0769 33.2433C36.0769 33.517 36.0769 33.8357 36.1059 34.1191C36.1558 35.4185 36.5016 36.6894 37.117 37.835C37.3855 38.3099 37.7316 38.7365 38.1409 39.0972C38.7799 39.312 39.4607 39.3727 40.1277 39.2743C40.9944 39.1398 41.8266 38.838 42.5781 38.3856C42.7165 38.3051 42.8582 38.2182 42.9935 38.128L43.0997 38.0572C47.012 35.4457 50.1419 29.4243 50.3479 24.0534Z" fill="#242923"/>
<path d="M49.2243 12.9186C44.5134 12.3873 40.6816 16.2899 38.125 19.7965C34.4316 25.2415 32.0907 32.1356 33.369 38.7269C33.7876 40.5591 34.6248 42.4009 36.1511 43.5569C34.5926 42.4138 33.6878 40.5752 33.2531 38.7269C32.0746 33.3302 33.5558 27.6598 36.0255 22.833C38.6627 18.0674 43.1482 12.2682 49.2243 12.9186Z" fill="#F5F5F5"/>
<path opacity="0.35" d="M45.6596 25.6892L44.0947 24.7843L47.1215 22.2019L48.6864 23.1067L45.6596 25.6892Z" fill="#242923"/>
<path opacity="0.35" d="M46.6225 26.2848C45.8207 25.7181 44.4329 26.1463 43.2544 26.5166C42.971 26.6132 42.7167 26.697 42.4848 26.7678C42.4114 26.9411 42.3721 27.127 42.3689 27.3152C42.3689 28.2265 43.1417 27.9592 44.8225 27.4247C45.3892 27.2302 45.9692 27.0774 46.5581 26.9674C46.6096 27.4311 46.9316 27.8529 48.1874 27.1896L46.6225 26.2848Z" fill="#242923"/>
<path opacity="0.45" d="M42.7456 38.1537L41.1807 37.2489V35.4006L42.7456 36.3055V38.1537Z" fill="#242923"/>
<path opacity="0.35" d="M45.4021 31.1373C45.4021 31.8714 44.8515 32.5283 44.0336 33.0049C42.7456 33.7616 42.2208 33.1433 42.1016 32.5412L41.8247 32.3802C42.0501 32.3136 42.2664 32.2195 42.4687 32.1001C43.0353 31.8101 43.4845 31.3336 43.7406 30.7509C44.7002 30.4353 45.4021 30.313 45.4021 31.1373Z" fill="#242923"/>
<path opacity="0.35" d="M39.5771 35.6678C39.4047 35.5669 39.2066 35.5188 39.0071 35.5294C38.9735 35.4334 38.9456 35.3356 38.9234 35.2364L37.3521 34.3315C37.3943 34.6039 37.4943 34.864 37.6454 35.0945C37.7964 35.325 37.995 35.5205 38.2279 35.6678L39.7896 36.5727C39.8634 36.4204 39.8825 36.2473 39.8438 36.0826C39.8051 35.9178 39.7109 35.7714 39.5771 35.6678Z" fill="#242923"/>
<path d="M44.8224 27.4247C43.1416 27.9753 42.3688 28.2265 42.3688 27.3152C42.372 27.127 42.4114 26.9411 42.4847 26.7678C41.3384 27.122 40.8039 27.1671 40.8039 26.4104C40.8039 25.8533 41.1806 25.1675 42.2175 24.5653C43.3219 23.9213 43.9402 24.0727 44.0947 24.7843L47.1215 22.2083C47.1215 22.1696 47.0958 22.1342 47.0797 22.0956C47.2683 22.0544 47.4496 21.9849 47.6174 21.8895L46.3681 21.1425L46.2489 21.0716H46.2296C45.861 20.8922 45.4481 20.824 45.0414 20.8752C44.499 20.9339 43.969 21.0762 43.4701 21.297V21.2519L45.035 20.3407L43.4701 19.4487L42.4107 20.067L40.9746 20.901V22.746C38.8526 24.2916 37.5292 26.3073 37.5292 28.4905C37.5292 29.4823 37.7964 30.0457 38.2311 30.3323H38.2504C38.2877 30.3562 38.3264 30.3777 38.3664 30.3967L39.6769 31.1341C39.713 30.9393 39.6882 30.738 39.6061 30.5577C40.022 30.5048 40.4326 30.4154 40.8329 30.2905C42.4236 29.8107 43.8371 29.054 43.8371 30.2325C43.8378 30.4099 43.805 30.5857 43.7405 30.7509C44.7065 30.4289 45.4021 30.313 45.4021 31.1373C45.4021 31.8715 44.8514 32.5284 44.0336 33.0049C42.7456 33.7616 42.2207 33.1434 42.1016 32.5413L41.8246 32.3802L40.5366 31.6364L37.3521 34.3316L38.917 35.2364C38.9667 35.4671 39.0468 35.6901 39.1553 35.8997C39.8555 35.875 40.543 35.705 41.1742 35.4006V36.1477L43.6472 35.8096V33.9645C45.7917 32.3835 47.2697 30.2551 47.2697 28.03C47.2824 27.6507 47.2223 27.2725 47.0926 26.9159C46.3167 26.9844 45.5533 27.1555 44.8224 27.4247Z" fill="#6EE327"/>
<path opacity="0.15" d="M44.8224 27.4247C43.1416 27.9753 42.3688 28.2265 42.3688 27.3152C42.372 27.127 42.4114 26.9411 42.4847 26.7678C41.3384 27.122 40.8039 27.1671 40.8039 26.4104C40.8039 25.8533 41.1806 25.1675 42.2175 24.5653C43.3219 23.9213 43.9402 24.0727 44.0947 24.7843L47.1215 22.2083C47.1215 22.1696 47.0958 22.1342 47.0797 22.0956C47.2683 22.0544 47.4496 21.9849 47.6174 21.8895L46.3681 21.1425L46.2489 21.0716H46.2296C45.861 20.8922 45.4481 20.824 45.0414 20.8752C44.499 20.9339 43.969 21.0762 43.4701 21.297V21.2519L45.035 20.3407L43.4701 19.4487L42.4107 20.067L40.9746 20.901V22.746C38.8526 24.2916 37.5292 26.3073 37.5292 28.4905C37.5292 29.4823 37.7964 30.0457 38.2311 30.3323H38.2504C38.2877 30.3562 38.3264 30.3777 38.3664 30.3967L39.6769 31.1341C39.713 30.9393 39.6882 30.738 39.6061 30.5577C40.022 30.5048 40.4326 30.4154 40.8329 30.2905C42.4236 29.8107 43.8371 29.054 43.8371 30.2325C43.8378 30.4099 43.805 30.5857 43.7405 30.7509C44.7065 30.4289 45.4021 30.313 45.4021 31.1373C45.4021 31.8715 44.8514 32.5284 44.0336 33.0049C42.7456 33.7616 42.2207 33.1434 42.1016 32.5413L41.8246 32.3802L40.5366 31.6364L37.3521 34.3316L38.917 35.2364C38.9667 35.4671 39.0468 35.6901 39.1553 35.8997C39.8555 35.875 40.543 35.705 41.1742 35.4006V36.1477L43.6472 35.8096V33.9645C45.7917 32.3835 47.2697 30.2551 47.2697 28.03C47.2824 27.6507 47.2223 27.2725 47.0926 26.9159C46.3167 26.9844 45.5533 27.1555 44.8224 27.4247Z" fill="#242923"/>
<g opacity="0.2">
<path d="M40.9809 22.7461C39.7891 23.6519 38.8218 24.8197 38.1537 26.1593C37.8405 26.8314 37.658 27.557 37.616 28.2974C37.5804 28.6653 37.5999 29.0365 37.6739 29.3986C37.7367 29.7677 37.934 30.1004 38.2278 30.3324C37.906 30.1221 37.6759 29.7976 37.5838 29.4244C37.4872 29.0547 37.4459 28.6727 37.4614 28.2909C37.4902 27.5263 37.672 26.7752 37.9959 26.082C38.3279 25.3948 38.7622 24.7618 39.2839 24.2048C39.7889 23.6521 40.3587 23.1624 40.9809 22.7461Z" fill="#242923"/>
</g>
<path d="M47.0991 26.9159C46.3211 26.9838 45.5555 27.1549 44.8226 27.4246C43.1417 27.9753 42.3689 28.2264 42.3689 27.3152C42.3721 27.1269 42.4115 26.9411 42.4848 26.7678C42.7663 26.2124 43.2175 25.7612 43.7728 25.4798C44.8773 24.8358 45.4955 24.9903 45.6501 25.7019L48.6769 23.1259C48.5806 22.7354 48.3545 22.3892 48.0357 22.1441C47.7168 21.899 47.3241 21.7694 46.922 21.7768C46.2683 21.7921 45.6248 21.9423 45.0319 22.2179V20.3535L43.4702 21.2519L42.5396 21.7929V23.6379C40.4176 25.1835 39.0942 27.2025 39.0942 29.3792C39.0804 29.7911 39.1449 30.202 39.2842 30.5899C39.7543 31.7588 41.0358 31.5978 42.3882 31.2017C42.8616 31.06 43.322 30.8797 43.731 30.7573C44.697 30.4353 45.3925 30.3194 45.3925 31.1437C45.3925 31.8779 44.8419 32.5348 44.024 33.0113C42.736 33.768 42.2111 33.1498 42.092 32.5477L38.9106 35.2428C38.9603 35.4735 39.0405 35.6965 39.1489 35.9061C39.5643 36.6821 40.3049 36.8979 41.1679 36.782C41.709 36.6997 42.2359 36.5414 42.7328 36.3118V38.1601L45.2057 36.7304V34.8725C47.3503 33.2947 48.8282 31.1663 48.8282 28.9413C48.8411 27.3345 48.0812 26.8933 47.0991 26.9159Z" fill="#6EE327"/>
<g opacity="0.1">
<path d="M47.0991 26.9159C46.3211 26.9838 45.5555 27.1549 44.8226 27.4246C43.1417 27.9753 42.3689 28.2264 42.3689 27.3152C42.3721 27.1269 42.4115 26.9411 42.4848 26.7678C42.7663 26.2124 43.2175 25.7612 43.7728 25.4798C44.8773 24.8358 45.4955 24.9903 45.6501 25.7019L48.6769 23.1259C48.5806 22.7354 48.3545 22.3892 48.0357 22.1441C47.7168 21.899 47.3241 21.7694 46.922 21.7768C46.2683 21.7921 45.6248 21.9423 45.0319 22.2179V20.3535L43.4702 21.2519L42.5396 21.7929V23.6379C40.4176 25.1835 39.0942 27.2025 39.0942 29.3792C39.0804 29.7911 39.1449 30.202 39.2842 30.5899C39.7543 31.7588 41.0358 31.5978 42.3882 31.2017C42.8616 31.06 43.322 30.8797 43.731 30.7573C44.697 30.4353 45.3925 30.3194 45.3925 31.1437C45.3925 31.8779 44.8419 32.5348 44.024 33.0113C42.736 33.768 42.2111 33.1498 42.092 32.5477L38.9106 35.2428C38.9603 35.4735 39.0405 35.6965 39.1489 35.9061C39.5643 36.6821 40.3049 36.8979 41.1679 36.782C41.709 36.6997 42.2359 36.5414 42.7328 36.3118V38.1601L45.2057 36.7304V34.8725C47.3503 33.2947 48.8282 31.1663 48.8282 28.9413C48.8411 27.3345 48.0812 26.8933 47.0991 26.9159Z" fill="white"/>
</g>
<path opacity="0.1" d="M41.8825 32.728L39.928 34.3799L42.0983 36.5534C42.3108 36.4825 42.5265 36.402 42.7423 36.3054V37.1974L43.3476 37.8027L45.2152 36.724V36.08L41.8825 32.728Z" fill="white"/>
<path opacity="0.1" d="M47.099 26.9159C46.321 26.9838 45.5554 27.1549 44.8225 27.4247L44.2783 27.6018L48.1906 31.5108C48.6043 30.7145 48.8249 29.8321 48.8346 28.9348C48.837 28.6819 48.8132 28.4294 48.7638 28.1814L47.5241 26.9417C47.3835 26.9202 47.2412 26.9115 47.099 26.9159Z" fill="white"/>
<path opacity="0.1" d="M42.8678 26.1881C43.1366 25.9012 43.4484 25.6578 43.792 25.4668C44.8964 24.8228 45.5147 24.9774 45.6692 25.689L45.9912 25.4057L42.5458 21.957V23.6507C42.1215 23.9606 41.7191 24.2995 41.3416 24.6651L42.8678 26.1881Z" fill="white"/>
<path opacity="0.1" d="M45.8721 21.912C45.5899 21.9913 45.3125 22.087 45.0414 22.1986V21.0813L44.5809 20.6079L43.47 21.2519L43.28 21.3614L46.7061 24.7939L47.8138 23.8505L45.8721 21.912Z" fill="white"/>
<path opacity="0.1" d="M40.6365 31.4819L39.1392 29.9878C39.1637 30.1935 39.2123 30.3956 39.2841 30.5899C39.3881 30.8612 39.5745 31.0931 39.817 31.2531C40.0596 31.4131 40.3461 31.4931 40.6365 31.4819Z" fill="white"/>
<path d="M42.5459 23.6508L40.981 22.7459V20.9009L42.5459 21.8057V23.6508Z" fill="#6EE327"/>
<path opacity="0.35" d="M42.5459 23.6508L40.981 22.7459V20.9009L42.5459 21.8057V23.6508Z" fill="#242923"/>
<path d="M45.2185 34.866C45.2185 34.866 45.3087 34.7984 45.46 34.6728C45.5552 34.6026 45.6466 34.5274 45.7337 34.4474C45.8367 34.3572 45.9591 34.2606 46.0815 34.1447C46.2038 34.0288 46.3391 33.9064 46.4743 33.768L46.6804 33.5555C46.7512 33.4814 46.8188 33.4041 46.8897 33.3268C46.9605 33.2496 47.0314 33.1691 47.099 33.0853C47.1666 33.0016 47.2407 32.9179 47.3083 32.831C47.4403 32.6539 47.5788 32.4768 47.6979 32.2868C47.817 32.0968 47.9362 31.9068 48.0489 31.7168C48.1537 31.5278 48.2483 31.3332 48.3323 31.134C48.4224 30.944 48.4836 30.7508 48.5544 30.5705C48.5802 30.4782 48.6059 30.388 48.6317 30.3L48.6703 30.1712C48.6703 30.1294 48.6897 30.0875 48.6961 30.0457C48.7315 29.8814 48.7669 29.7237 48.783 29.5949C48.7991 29.4661 48.8217 29.3405 48.8249 29.2439C48.8249 29.0475 48.841 28.9219 48.841 28.9219C48.841 28.9219 48.841 29.0346 48.841 29.2439C48.838 29.3624 48.8283 29.4806 48.812 29.5981C48.7973 29.7517 48.7736 29.9044 48.7412 30.0553C48.7412 30.0972 48.7412 30.139 48.7154 30.1809C48.6897 30.2228 48.6929 30.2678 48.68 30.3129C48.6671 30.358 48.6317 30.4932 48.6059 30.5866C48.5449 30.7801 48.474 30.9703 48.3934 31.1566C48.3129 31.3562 48.2131 31.5494 48.1101 31.7458C48.007 31.9422 47.8911 32.1387 47.7591 32.3222C47.6271 32.5057 47.4983 32.6925 47.363 32.8696C47.2954 32.9565 47.2213 33.0403 47.1537 33.124L46.9412 33.3655L46.7287 33.5941L46.5129 33.8034C46.3777 33.9386 46.236 34.0578 46.1104 34.1705C45.9849 34.2832 45.8625 34.3798 45.7563 34.4667C45.65 34.5537 45.5534 34.6245 45.4761 34.6825L45.2185 34.866Z" fill="white"/>
<path d="M42.5459 21.8057L45.0414 20.3535V22.1986L44.874 20.653L42.5459 21.8057Z" fill="#FAFAFA"/>
<path d="M42.7456 36.3054L42.8776 37.909L45.2186 36.724L42.7456 38.1537V36.3054Z" fill="#FAFAFA"/>
<path d="M50.3641 14.5609L50.5734 11.8142L50.7827 14.5609L53.5294 14.7702L50.7827 14.9795L50.5734 17.7261L50.3641 14.9795L47.6174 14.7702L50.3641 14.5609Z" fill="white"/>
<path d="M52.6663 16.9017L52.7662 15.5686L52.8692 16.9017L54.1991 17.0015L52.8692 17.1045L52.7662 18.4344L52.6663 17.1045L51.3333 17.0015L52.6663 16.9017Z" fill="white"/>
<path d="M119.436 92.3625L117.562 93.0581L117.176 91.7507L118.757 91.7829L119.436 92.3625Z" fill="#242923"/>
<path d="M118.631 88.6917C118.631 88.6917 119.501 89.5192 119.771 89.7864C120.042 90.0537 119.61 91.9599 119.449 92.3624L118.77 91.7829C118.787 92.3417 118.876 92.8959 119.037 93.4315C119.166 94.0272 119.559 95.0415 119.378 96.0944C119.114 97.6722 117.968 99.3402 116.48 100.705C114.993 102.071 113.785 102.46 113.051 102.515C112.317 102.57 111.837 102.312 111.599 101.845C111.36 101.378 118.631 88.6917 118.631 88.6917Z" fill="#263238"/>
<path d="M111.753 89.1941L111.264 88.6982C110.974 88.9333 111.624 89.6996 111.811 90.6978C112.114 92.1801 112.216 93.6964 112.114 95.2058C111.821 97.8945 111.225 99.936 111.103 101.14C110.932 102.75 113.772 102.66 116.149 100.387C117.327 99.2566 118.976 96.7707 118.94 95.5375C118.905 94.3042 118.271 92.881 118.296 91.944C118.322 91.0069 118.905 89.5805 118.638 88.695C118.489 88.2088 117.672 87.4875 116.931 86.8982C116.261 86.3573 115.643 85.1272 115.347 85.5168L115.611 85.9354C115.714 86.3347 115.511 87.2943 114.661 88.315C114.229 88.8206 112.78 90.1375 111.753 89.1941Z" fill="#455A64"/>
<path opacity="0.15" d="M113.875 89.0232C113.36 89.3935 112.706 89.6672 112.12 89.4386H112.101C112.289 89.5883 112.439 89.7798 112.541 89.9977C112.642 90.2157 112.691 90.4542 112.684 90.6944C112.703 91.5767 113.167 97.5369 113.167 97.5369C113.167 97.5369 113.083 92.3655 113.077 91.3834C113.077 89.9312 113.218 89.635 113.879 89.0296L113.875 89.0232Z" fill="#242923"/>
<path d="M111.09 101.137C111.193 100.119 111.634 98.5062 111.943 96.4067C112.053 97.0507 111.959 97.6947 112.046 97.8557C112.256 98.2711 113.714 97.8557 114.49 97.479C115.266 97.1022 115.173 95.6339 115.373 94.0658C115.572 92.4976 117.234 92.7102 118.56 93.5345C118.755 94.1857 118.878 94.8562 118.928 95.5341C118.963 96.7674 117.318 99.2532 116.136 100.383C113.772 102.657 110.932 102.75 111.09 101.137Z" fill="#37474F"/>
<path opacity="0.15" d="M114.123 90.4819C114.162 90.5191 114.213 90.5399 114.266 90.5399C114.32 90.5399 114.371 90.5191 114.41 90.4819C114.429 90.4642 114.444 90.4427 114.454 90.4189C114.464 90.3951 114.47 90.3694 114.47 90.3435C114.47 90.3175 114.464 90.2918 114.454 90.268C114.444 90.2442 114.429 90.2228 114.41 90.205C114.371 90.1676 114.319 90.1467 114.265 90.1467C114.211 90.1467 114.159 90.1676 114.12 90.205C114.101 90.2227 114.086 90.2443 114.075 90.2682C114.065 90.2922 114.06 90.3181 114.06 90.3442C114.06 90.3703 114.066 90.396 114.077 90.4197C114.088 90.4434 114.104 90.4646 114.123 90.4819Z" fill="#242923"/>
<path opacity="0.15" d="M114.11 91.9116C114.152 91.9462 114.205 91.9637 114.259 91.9607C114.312 91.9577 114.363 91.9344 114.4 91.8955C114.419 91.8775 114.433 91.856 114.444 91.8322C114.454 91.8084 114.459 91.7829 114.459 91.757C114.459 91.7312 114.454 91.7057 114.444 91.6819C114.433 91.6581 114.419 91.6366 114.4 91.6186C114.36 91.5825 114.306 91.564 114.252 91.567C114.198 91.57 114.147 91.5943 114.11 91.6347C114.092 91.6527 114.077 91.6742 114.067 91.698C114.057 91.7218 114.052 91.7473 114.052 91.7732C114.052 91.799 114.057 91.8245 114.067 91.8483C114.077 91.8721 114.092 91.8936 114.11 91.9116Z" fill="#242923"/>
<path opacity="0.15" d="M114.101 93.3252C114.14 93.3626 114.192 93.3835 114.246 93.3835C114.3 93.3835 114.352 93.3626 114.391 93.3252C114.408 93.3059 114.422 93.2832 114.43 93.2586C114.439 93.234 114.443 93.2078 114.441 93.1817C114.44 93.1557 114.433 93.1301 114.422 93.1067C114.41 93.0832 114.394 93.0622 114.374 93.0451C114.333 93.0105 114.28 92.9929 114.226 92.9959C114.173 92.9989 114.122 93.0222 114.085 93.0612C114.052 93.0986 114.036 93.1472 114.039 93.1964C114.042 93.2457 114.064 93.2919 114.101 93.3252Z" fill="#242923"/>
<path opacity="0.15" d="M114.088 94.7421C114.129 94.7767 114.182 94.7942 114.236 94.7912C114.29 94.7882 114.34 94.7649 114.378 94.726C114.397 94.7082 114.412 94.6868 114.422 94.663C114.432 94.6392 114.438 94.6135 114.438 94.5875C114.438 94.5616 114.432 94.5359 114.422 94.5121C114.412 94.4883 114.397 94.4668 114.378 94.4491C114.339 94.4119 114.288 94.3911 114.234 94.3911C114.181 94.3911 114.13 94.4119 114.091 94.4491C114.07 94.467 114.053 94.4893 114.041 94.5144C114.029 94.5396 114.023 94.567 114.022 94.5948C114.022 94.6227 114.028 94.6502 114.039 94.6757C114.05 94.7011 114.067 94.7237 114.088 94.7421Z" fill="#242923"/>
<path opacity="0.15" d="M114.078 96.1557C114.119 96.1918 114.172 96.2103 114.226 96.2073C114.281 96.2043 114.332 96.18 114.368 96.1396C114.386 96.1206 114.399 96.0982 114.408 96.0738C114.416 96.0494 114.42 96.0236 114.419 95.9977C114.417 95.9719 114.41 95.9467 114.399 95.9235C114.387 95.9003 114.371 95.8796 114.352 95.8627C114.311 95.8281 114.258 95.8106 114.204 95.8136C114.15 95.8165 114.099 95.8399 114.062 95.8788C114.045 95.8978 114.031 95.9202 114.022 95.9446C114.014 95.969 114.01 95.9948 114.012 96.0207C114.013 96.0465 114.02 96.0717 114.031 96.0949C114.043 96.1181 114.059 96.1388 114.078 96.1557Z" fill="#242923"/>
<path d="M114.31 90.4046C114.323 90.3902 114.33 90.3722 114.333 90.3531C114.332 90.3317 114.323 90.3113 114.308 90.2958C114.293 90.2804 114.273 90.2709 114.252 90.2694C114.194 90.2694 112.826 90.2178 111.914 91.0937C111.907 91.1009 111.9 91.1096 111.896 91.1193C111.892 91.129 111.89 91.1395 111.89 91.15C111.89 91.1606 111.892 91.1711 111.896 91.1807C111.9 91.1904 111.907 91.1992 111.914 91.2064C111.93 91.2206 111.951 91.2285 111.972 91.2285C111.994 91.2285 112.014 91.2206 112.03 91.2064C112.893 90.3789 114.233 90.4271 114.246 90.4304C114.257 90.4305 114.269 90.4284 114.28 90.4239C114.291 90.4195 114.301 90.4129 114.31 90.4046Z" fill="#263238"/>
<path d="M114.31 91.8183C114.324 91.8045 114.332 91.7862 114.333 91.7668C114.333 91.7562 114.331 91.7456 114.328 91.7357C114.324 91.7258 114.318 91.7167 114.311 91.7089C114.304 91.7011 114.295 91.6948 114.286 91.6904C114.276 91.686 114.266 91.6835 114.255 91.683C114.197 91.683 112.829 91.6283 111.918 92.5074C111.91 92.5145 111.905 92.5231 111.901 92.5325C111.897 92.5419 111.895 92.5519 111.895 92.5621C111.895 92.5723 111.897 92.5823 111.901 92.5917C111.905 92.6011 111.91 92.6097 111.918 92.6168C111.925 92.6246 111.934 92.6308 111.944 92.6351C111.954 92.6393 111.965 92.6415 111.975 92.6415C111.986 92.6415 111.997 92.6393 112.007 92.6351C112.017 92.6308 112.026 92.6246 112.033 92.6168C112.893 91.7925 114.233 91.8408 114.249 91.8408C114.26 91.842 114.271 91.8406 114.282 91.8366C114.293 91.8327 114.302 91.8265 114.31 91.8183Z" fill="#263238"/>
<path d="M114.31 93.235C114.324 93.2213 114.332 93.2029 114.333 93.1835C114.333 93.1619 114.324 93.141 114.309 93.1254C114.294 93.1098 114.274 93.1006 114.252 93.0998C114.194 93.0998 112.829 93.0451 111.914 93.9241C111.907 93.9311 111.901 93.9395 111.896 93.9489C111.892 93.9584 111.89 93.9685 111.89 93.9788C111.89 93.9892 111.892 93.9993 111.896 94.0088C111.901 94.0182 111.907 94.0267 111.914 94.0336C111.922 94.0414 111.931 94.0476 111.941 94.0518C111.951 94.056 111.961 94.0582 111.972 94.0582C111.983 94.0582 111.994 94.056 112.004 94.0518C112.014 94.0476 112.023 94.0414 112.03 94.0336C112.89 93.2093 114.233 93.2576 114.246 93.2576C114.257 93.259 114.269 93.2577 114.28 93.2538C114.292 93.2499 114.302 93.2435 114.31 93.235Z" fill="#263238"/>
<path d="M114.284 94.6486C114.292 94.6422 114.297 94.6343 114.301 94.6254C114.305 94.6165 114.307 94.6068 114.307 94.597C114.307 94.5866 114.305 94.5762 114.302 94.5665C114.298 94.5567 114.292 94.5478 114.285 94.5403C114.278 94.5328 114.269 94.5268 114.26 94.5227C114.25 94.5186 114.24 94.5165 114.229 94.5165C114.171 94.5165 112.803 94.4618 111.892 95.3376C111.877 95.3527 111.869 95.3729 111.869 95.394C111.869 95.4151 111.877 95.4353 111.892 95.4503C111.908 95.4646 111.928 95.4725 111.95 95.4725C111.971 95.4725 111.992 95.4646 112.008 95.4503C112.867 94.6228 114.21 94.6743 114.223 94.6743C114.246 94.6742 114.268 94.6649 114.284 94.6486Z" fill="#263238"/>
<path d="M114.275 96.0654C114.288 96.0513 114.296 96.0331 114.297 96.0138C114.298 96.0033 114.296 95.9927 114.292 95.9828C114.289 95.9728 114.283 95.9637 114.276 95.956C114.269 95.9482 114.26 95.9419 114.25 95.9375C114.241 95.933 114.23 95.9305 114.22 95.9301C114.162 95.9301 112.793 95.8754 111.879 96.7512C111.871 96.7582 111.865 96.7666 111.861 96.776C111.857 96.7855 111.855 96.7957 111.855 96.806C111.855 96.8163 111.857 96.8264 111.861 96.8359C111.865 96.8453 111.871 96.8538 111.879 96.8607C111.886 96.8685 111.895 96.8747 111.905 96.8789C111.915 96.8831 111.926 96.8853 111.937 96.8853C111.948 96.8853 111.958 96.8831 111.968 96.8789C111.978 96.8747 111.987 96.8685 111.995 96.8607C112.858 96.0364 114.197 96.0847 114.21 96.0847C114.222 96.0859 114.233 96.0848 114.244 96.0815C114.255 96.0782 114.266 96.0727 114.275 96.0654Z" fill="#263238"/>
<path d="M90.8909 50.5991C90.6528 54.3771 90.627 58.1655 90.8136 61.9464C91.0744 68.0258 91.4222 70.927 94.2461 74.6107C96.7674 77.9015 110.594 89.0073 111.705 90.1311C111.705 90.1311 116.213 90.2148 116.094 85.7969C116.094 85.7969 112.69 80.0267 110.42 76.1112C108.15 72.1957 105.323 70.444 105.323 70.444L107.667 52.5343L90.8909 50.5991Z" fill="#263238"/>
<path d="M106.086 52.3862L107.658 52.5343V52.5987L105.404 69.8676L105.317 70.3023H105.346L105.33 70.4343C106.889 71.5207 108.245 72.8734 109.335 74.4303C108.83 76.0017 107.796 78.7645 107.796 78.7645C107.719 79.1895 109.084 80.806 108.762 85.9773C108.74 86.3508 108.685 86.8918 108.62 87.4746C105.21 84.6184 100.57 80.7126 97.4148 77.8146C97.2119 77.0224 96.5904 74.4142 96.6806 72.3824C96.7708 70.3506 96.9833 60.3976 96.9833 60.3976C96.0382 59.9202 95.189 59.2729 94.4781 58.4881C93.8875 57.8623 93.4538 57.1053 93.2127 56.2792C92.6226 54.993 92.116 53.67 91.696 52.3186L106.086 52.3862Z" fill="#242923"/>
<path d="M102.93 108.962L101.021 108.363L101.572 107.116L102.779 108.099L102.93 108.962Z" fill="#242923"/>
<path d="M104.701 105.616C104.701 105.616 104.84 106.788 104.875 107.155C104.911 107.522 103.33 108.743 102.943 108.952L102.792 108.089C102.442 108.531 102.15 109.015 101.923 109.531C101.636 110.072 101.279 111.087 100.451 111.802C99.2145 112.867 97.231 113.463 95.1863 113.624C93.1416 113.785 91.9406 113.347 91.3223 112.945C90.7041 112.542 90.5077 112.05 90.6268 111.544C90.7459 111.038 104.701 105.616 104.701 105.616Z" fill="#263238"/>
<path d="M99.0118 101.852L98.9539 101.172C98.5739 101.172 98.5804 102.167 98.0748 103.056C97.337 104.389 96.4289 105.621 95.3732 106.72C93.3897 108.63 91.593 109.85 90.7075 110.71C89.5225 111.856 91.7926 113.505 95.1285 113.186C96.7868 113.025 99.6945 112.098 100.474 111.119C101.253 110.14 101.688 108.652 102.316 107.938C102.943 107.223 104.331 106.476 104.702 105.626C104.908 105.159 104.731 104.099 104.55 103.198C104.383 102.373 104.702 101.043 104.228 101.166L104.157 101.652C103.977 102.022 103.191 102.644 101.865 102.918C101.192 103.056 99.2018 103.198 99.0118 101.852Z" fill="#455A64"/>
<path opacity="0.15" d="M100.786 102.998C100.142 102.972 99.4465 102.799 99.1502 102.254V102.238C99.1995 102.472 99.1922 102.715 99.1289 102.946C99.0656 103.176 98.9482 103.389 98.7864 103.565C98.21 104.264 94.668 109.158 94.668 109.158C94.668 109.158 97.9813 105.098 98.6189 104.328C99.5591 103.195 99.8683 103.04 100.78 102.985L100.786 102.998Z" fill="#242923"/>
<path d="M90.7074 110.71C91.4544 109.982 92.8519 108.997 94.4651 107.561C94.1431 108.118 93.6408 108.562 93.5989 108.746C93.4895 109.197 94.8869 109.757 95.7467 109.934C96.6064 110.111 97.4855 108.92 98.664 107.825C99.8425 106.73 100.999 107.902 101.491 109.345C101.216 109.971 100.875 110.566 100.474 111.119C99.6944 112.085 96.7867 113.025 95.1284 113.186C91.7925 113.505 89.516 111.856 90.7074 110.71Z" fill="#37474F"/>
<path opacity="0.15" d="M100.013 104.289C100.023 104.342 100.054 104.388 100.097 104.419C100.141 104.45 100.195 104.462 100.248 104.454C100.274 104.45 100.299 104.441 100.322 104.428C100.344 104.415 100.364 104.397 100.379 104.376C100.395 104.355 100.406 104.331 100.412 104.306C100.419 104.28 100.42 104.254 100.416 104.228C100.405 104.176 100.375 104.129 100.331 104.098C100.288 104.068 100.233 104.055 100.181 104.064C100.155 104.067 100.13 104.076 100.107 104.089C100.085 104.103 100.065 104.12 100.049 104.141C100.034 104.162 100.023 104.186 100.016 104.212C100.01 104.237 100.009 104.263 100.013 104.289Z" fill="#242923"/>
<path opacity="0.15" d="M99.0793 105.381C99.0895 105.433 99.1197 105.48 99.1636 105.511C99.2074 105.541 99.2615 105.554 99.3143 105.545C99.3403 105.542 99.3654 105.533 99.3881 105.52C99.4107 105.506 99.4306 105.489 99.4464 105.468C99.4623 105.447 99.4738 105.423 99.4805 105.398C99.4871 105.372 99.4886 105.346 99.485 105.32C99.4741 105.268 99.4437 105.222 99.4 105.191C99.3563 105.161 99.3027 105.148 99.2499 105.156C99.2237 105.159 99.1984 105.167 99.1755 105.18C99.1527 105.193 99.1327 105.211 99.1167 105.232C99.1008 105.253 99.0893 105.277 99.0828 105.303C99.0764 105.328 99.0752 105.355 99.0793 105.381Z" fill="#242923"/>
<path opacity="0.15" d="M98.1457 106.469C98.1559 106.522 98.1861 106.568 98.23 106.599C98.2739 106.63 98.3279 106.642 98.3808 106.634C98.407 106.63 98.4323 106.622 98.4551 106.609C98.478 106.596 98.498 106.578 98.514 106.557C98.5299 106.536 98.5414 106.512 98.5478 106.486C98.5543 106.461 98.5555 106.434 98.5514 106.408C98.5413 106.356 98.5109 106.31 98.4669 106.279C98.4229 106.249 98.3688 106.238 98.3164 106.247C98.2905 106.25 98.2655 106.259 98.2428 106.271C98.2202 106.284 98.2003 106.302 98.1844 106.322C98.1686 106.343 98.157 106.367 98.1503 106.392C98.1436 106.417 98.1421 106.443 98.1457 106.469Z" fill="#242923"/>
<path opacity="0.15" d="M97.2151 107.548C97.2245 107.6 97.2541 107.647 97.2974 107.677C97.3408 107.708 97.3945 107.721 97.4469 107.712C97.4731 107.709 97.4984 107.701 97.5213 107.687C97.5442 107.674 97.5642 107.657 97.5801 107.636C97.596 107.615 97.6076 107.591 97.614 107.565C97.6204 107.539 97.6217 107.513 97.6176 107.487C97.6074 107.434 97.5772 107.388 97.5333 107.357C97.4894 107.326 97.4353 107.314 97.3825 107.322C97.3566 107.326 97.3317 107.335 97.3091 107.348C97.2866 107.361 97.267 107.379 97.2514 107.4C97.2358 107.421 97.2245 107.445 97.2183 107.47C97.2121 107.496 97.211 107.522 97.2151 107.548Z" fill="#242923"/>
<path opacity="0.15" d="M96.278 108.649C96.2823 108.676 96.2918 108.701 96.306 108.723C96.3203 108.746 96.3389 108.766 96.3608 108.781C96.3827 108.796 96.4075 108.807 96.4337 108.813C96.4598 108.818 96.4868 108.818 96.5131 108.813C96.5389 108.81 96.5638 108.802 96.5863 108.789C96.6088 108.776 96.6284 108.759 96.644 108.738C96.6597 108.717 96.671 108.693 96.6772 108.668C96.6835 108.643 96.6846 108.617 96.6805 108.591C96.6711 108.538 96.6411 108.491 96.597 108.46C96.5529 108.43 96.4984 108.418 96.4455 108.427C96.4197 108.43 96.3948 108.438 96.3723 108.451C96.3498 108.464 96.3302 108.482 96.3145 108.502C96.2989 108.523 96.2876 108.547 96.2814 108.572C96.2751 108.597 96.274 108.623 96.278 108.649Z" fill="#242923"/>
<path d="M100.226 104.328C100.245 104.326 100.264 104.317 100.277 104.302C100.292 104.287 100.3 104.267 100.3 104.246C100.3 104.225 100.292 104.205 100.277 104.19C99.6127 103.649 98.7726 103.372 97.9169 103.41C97.9065 103.411 97.8963 103.414 97.887 103.419C97.8777 103.424 97.8695 103.43 97.8628 103.439C97.8562 103.447 97.8513 103.456 97.8484 103.466C97.8455 103.476 97.8448 103.487 97.8461 103.497C97.8493 103.518 97.8604 103.537 97.8771 103.551C97.8939 103.564 97.915 103.57 97.9363 103.568C98.7451 103.537 99.5378 103.8 100.168 104.309C100.176 104.316 100.185 104.321 100.195 104.324C100.205 104.328 100.215 104.329 100.226 104.328Z" fill="#263238"/>
<path d="M99.2919 105.426C99.3113 105.423 99.3293 105.414 99.3434 105.4C99.3582 105.385 99.3665 105.365 99.3665 105.344C99.3665 105.323 99.3582 105.302 99.3434 105.287C98.6805 104.744 97.8396 104.465 96.9832 104.505C96.9715 104.505 96.9599 104.507 96.9492 104.511C96.9384 104.516 96.9288 104.522 96.9209 104.531C96.913 104.54 96.9071 104.55 96.9035 104.561C96.8999 104.572 96.8988 104.584 96.9003 104.595C96.9017 104.607 96.9056 104.618 96.9117 104.628C96.9178 104.638 96.9261 104.646 96.9358 104.653C96.9455 104.659 96.9565 104.663 96.968 104.665C96.9795 104.667 96.9913 104.666 97.0025 104.663C98.21 104.544 99.2243 105.397 99.234 105.403C99.2501 105.417 99.2706 105.425 99.2919 105.426Z" fill="#263238"/>
<path d="M98.3581 106.517C98.3681 106.517 98.3778 106.515 98.3868 106.51C98.3957 106.506 98.4035 106.5 98.4096 106.492C98.4177 106.485 98.4242 106.477 98.4287 106.467C98.4332 106.458 98.4355 106.447 98.4355 106.437C98.4355 106.427 98.4332 106.416 98.4287 106.407C98.4242 106.397 98.4177 106.389 98.4096 106.382C97.7481 105.838 96.9081 105.559 96.0526 105.6C96.0318 105.602 96.0128 105.613 95.9995 105.629C95.9863 105.645 95.9799 105.666 95.9817 105.687C95.9849 105.708 95.996 105.727 96.0128 105.74C96.0296 105.753 96.0507 105.759 96.0719 105.758C97.2826 105.638 98.2937 106.492 98.3034 106.498C98.3186 106.511 98.3381 106.518 98.3581 106.517Z" fill="#263238"/>
<path d="M97.4275 107.609C97.4466 107.605 97.4643 107.596 97.479 107.584C97.4867 107.576 97.4928 107.568 97.497 107.558C97.5012 107.548 97.5034 107.538 97.5034 107.527C97.5034 107.517 97.5012 107.506 97.497 107.496C97.4928 107.487 97.4867 107.478 97.479 107.471C96.8171 106.928 95.9771 106.65 95.1219 106.692C95.1118 106.693 95.102 106.696 95.0931 106.701C95.0842 106.706 95.0764 106.713 95.0701 106.721C95.0638 106.729 95.0592 106.738 95.0565 106.748C95.0538 106.758 95.053 106.768 95.0543 106.779C95.0556 106.789 95.0588 106.798 95.0639 106.807C95.0689 106.816 95.0757 106.824 95.0838 106.83C95.0918 106.837 95.1011 106.841 95.1109 106.844C95.1208 106.847 95.1311 106.847 95.1412 106.846C95.9506 106.816 96.7436 107.08 97.3727 107.59C97.3882 107.602 97.4075 107.609 97.4275 107.609Z" fill="#263238"/>
<path d="M96.4937 108.698C96.5036 108.697 96.5132 108.694 96.5221 108.69C96.5309 108.685 96.5388 108.679 96.5452 108.672C96.5524 108.665 96.5582 108.656 96.5621 108.647C96.566 108.637 96.568 108.627 96.568 108.617C96.568 108.607 96.566 108.597 96.5621 108.587C96.5582 108.578 96.5524 108.57 96.5452 108.562C95.8823 108.019 95.0414 107.74 94.185 107.78C94.1639 107.782 94.1446 107.793 94.1308 107.809C94.1171 107.825 94.11 107.846 94.1109 107.867C94.1149 107.888 94.1266 107.907 94.1439 107.92C94.1612 107.933 94.1827 107.94 94.2043 107.938C95.4118 107.819 96.4229 108.672 96.4358 108.678C96.4436 108.685 96.4528 108.691 96.4628 108.694C96.4727 108.697 96.4833 108.698 96.4937 108.698Z" fill="#263238"/>
<path d="M110.665 49.6169C110.665 49.6169 111.061 52.9432 111.19 54.9557C111.451 58.4838 111.146 62.0311 110.285 65.4626C109.641 68.3316 107.303 78.0206 107.113 79.0349C107.648 81.1858 108.034 82.9536 107.493 87.745C106.662 95.1123 104.537 103.063 104.537 103.063C103.951 103.98 99.3563 103.845 97.962 102.673C97.962 102.673 97.5209 81.1794 97.318 76.6843C97.1441 72.7784 98.0812 59.863 98.0812 59.863C98.0812 59.863 91.8279 57.8312 90.804 51.0048L110.665 49.6169Z" fill="#263238"/>
<path d="M94.3976 28.2102C92.208 28.9411 91.2806 29.9651 89.2037 32.7665C87.1783 35.5003 84.232 39.4963 84.232 39.4963L73.4805 38.2985L74.5656 43.7242C74.5656 43.7242 82.3483 45.6755 84.8857 46.0039C86.7855 46.2519 87.7837 45.2247 89.0331 43.7499C91.2581 41.0902 94.0981 37.165 94.0981 37.165L94.3976 28.2102Z" fill="#F0F0F0"/>
<path d="M105.294 26.5906C105.294 26.5906 98.8734 26.333 94.9901 27.8464C94.1271 28.1684 91.8796 30.168 91.3869 35.8094C90.7816 42.7099 90.7429 51.6679 90.7429 51.6679C90.9136 52.2572 92.8874 55.5319 98.8122 56.4496C104.93 57.3931 108.424 56.9616 111.454 54.5981C111.454 49.2368 111.47 48.8666 111.486 44.7127C111.486 42.0305 112.298 36.8656 112.752 34.6213C113.074 33.0435 112.752 30.4353 111.766 29.7913C110.729 29.1215 106.878 27.7434 106.878 27.7434C106.276 27.4733 105.736 27.0807 105.294 26.5906Z" fill="#FAFAFA"/>
<path d="M104.199 26.8642C104.653 26.8642 104.992 26.8642 105.165 26.8642C105.616 27.3455 106.155 27.7357 106.753 28.0138H106.769C106.808 28.0138 110.601 29.3855 111.599 30.0295C112.43 30.5672 112.771 33.008 112.459 34.5568C112.021 36.7207 111.196 41.921 111.171 44.7063C111.171 46.0909 111.171 47.0569 111.171 47.9263C111.171 49.6329 111.151 50.982 111.155 54.45C109.158 55.9666 107.001 56.617 103.968 56.617C102.252 56.5922 100.54 56.4383 98.8478 56.1566C92.8457 55.226 91.1777 51.948 91.0231 51.6099C91.0231 50.8468 91.1004 42.3589 91.6671 35.8319C92.2339 29.305 95.061 28.1265 95.09 28.1039C97.988 26.9705 102.412 26.8514 104.183 26.8514M104.183 26.5583C102.18 26.5583 97.8721 26.7032 94.9838 27.8463C94.1208 28.1683 91.8732 30.168 91.3806 35.8094C90.7752 42.7099 90.7366 51.6679 90.7366 51.6679C90.9072 52.2572 92.8811 55.5319 98.8059 56.4496C100.509 56.7333 102.231 56.8883 103.958 56.9133C107.107 56.9133 109.38 56.1984 111.435 54.5981C111.435 49.2368 111.451 48.8665 111.467 44.7127C111.467 42.0304 112.278 36.8656 112.732 34.6212C113.054 33.0434 112.732 30.4352 111.747 29.7912C110.71 29.1215 106.859 27.7433 106.859 27.7433C106.264 27.471 105.731 27.0785 105.294 26.5905C105.294 26.5905 104.882 26.5712 104.203 26.5712L104.183 26.5583Z" fill="#E0E0E0"/>
<path d="M106.923 13.5561C108.608 15.7038 107.889 18.0641 107.091 20.4372C106.17 23.1356 106.073 24.0211 104.457 24.6232C105.32 16.0323 101.784 25.4476 95.2735 18.3442C94.095 17.0562 94.1143 13.7171 95.7275 12.1071C98.0105 9.8209 103.62 9.4989 106.923 13.5561Z" fill="#37474F"/>
<path d="M106.946 23.2708C105.658 23.7216 105.072 22.8039 105.072 22.8039L104.866 26.1688C104.866 26.1688 106.576 28.3262 104.763 28.8478C100.297 30.1358 99.9747 31.0471 98.545 32.5637C97.8817 31.2757 98.2971 29.1924 98.2649 28.4292L98.4291 25.9241C97.9155 25.9417 97.4019 25.8886 96.9028 25.7663C95.6148 25.3992 94.7486 24.4429 94.4749 22.6751C94.1529 20.5402 94.4749 17.1786 95.383 14.3031C96.7708 13.3371 101.33 13.4659 104.077 15.3721C103.835 17.7453 104.457 18.1671 104.399 19.1911C104.331 20.3438 104.399 20.6111 104.737 20.8011C105.075 20.991 105.426 20.4565 105.587 20.1249C105.861 19.571 106.089 19.2168 106.659 19.1073C107.229 18.9979 107.848 19.1299 108.318 19.9156C109.029 21.1134 107.87 22.9456 106.946 23.2708Z" fill="#FFA8A7"/>
<path d="M100.319 18.5212C100.313 18.6242 100.337 18.7267 100.388 18.8161C100.439 18.9054 100.516 18.9777 100.608 19.0238C100.701 19.0699 100.804 19.0878 100.907 19.0753C101.009 19.0628 101.105 19.0204 101.184 18.9535C101.262 18.8865 101.319 18.7979 101.348 18.6988C101.376 18.5997 101.375 18.4944 101.343 18.3961C101.312 18.2978 101.253 18.2108 101.173 18.146C101.093 18.0812 100.995 18.0415 100.892 18.0318C100.823 18.0261 100.752 18.0342 100.686 18.0558C100.619 18.0773 100.557 18.1118 100.504 18.1573C100.451 18.2028 100.407 18.2584 100.375 18.3208C100.343 18.3833 100.324 18.4514 100.319 18.5212Z" fill="#263238"/>
<path d="M100.094 21.8284L98.1843 22.218C98.2053 22.3448 98.2513 22.4662 98.3198 22.575C98.3882 22.6837 98.4777 22.7778 98.583 22.8516C98.6882 22.9253 98.8072 22.9773 98.9328 23.0046C99.0584 23.0318 99.1882 23.0337 99.3145 23.0101C99.572 22.9521 99.797 22.7966 99.9423 22.5763C100.088 22.3559 100.142 22.0879 100.094 21.8284Z" fill="#B16668"/>
<path d="M99.8782 22.2437C99.6638 22.2437 99.4569 22.3225 99.2967 22.4649C99.1364 22.6073 99.034 22.8036 99.0088 23.0165C99.1101 23.0327 99.2134 23.0327 99.3147 23.0165C99.495 22.9771 99.6608 22.8886 99.7938 22.7607C99.9269 22.6328 100.022 22.4706 100.068 22.292C100.007 22.269 99.9431 22.2528 99.8782 22.2437Z" fill="#F28F8F"/>
<path d="M95.6567 16.8116L97.0832 16.0999C97.038 16.0073 96.9748 15.9247 96.8973 15.8568C96.8197 15.789 96.7294 15.7374 96.6316 15.705C96.5338 15.6726 96.4305 15.6601 96.3278 15.6682C96.225 15.6763 96.125 15.7048 96.0335 15.7522C95.8471 15.8471 95.7043 16.0098 95.6342 16.2069C95.5641 16.4039 95.5722 16.6203 95.6567 16.8116Z" fill="#263238"/>
<path d="M100.786 16.644L102.052 17.6261C102.116 17.5453 102.164 17.4524 102.192 17.3527C102.221 17.2531 102.228 17.1489 102.216 17.0461C102.203 16.9434 102.169 16.8443 102.117 16.7548C102.065 16.6652 101.996 16.587 101.913 16.5248C101.747 16.3945 101.536 16.3341 101.326 16.3563C101.115 16.3786 100.922 16.4817 100.786 16.644Z" fill="#263238"/>
<path d="M95.911 18.0318C95.9052 18.1351 95.9299 18.2379 95.982 18.3273C96.0341 18.4167 96.1113 18.4888 96.204 18.5347C96.2967 18.5806 96.4009 18.5983 96.5036 18.5855C96.6063 18.5727 96.7029 18.53 96.7815 18.4627C96.8602 18.3954 96.9173 18.3066 96.9458 18.2071C96.9744 18.1076 96.9731 18.002 96.9421 17.9033C96.9111 17.8045 96.8518 17.7171 96.7715 17.6518C96.6912 17.5865 96.5936 17.5462 96.4906 17.536C96.3483 17.5261 96.2078 17.5726 96.0994 17.6654C95.991 17.7581 95.9233 17.8897 95.911 18.0318Z" fill="#263238"/>
<path d="M99.4466 17.5747L98.5643 21.0909L96.8867 20.3085C97.4599 19.1171 98.3872 18.37 99.4466 17.5747Z" fill="#F28F8F"/>
<path d="M98.4291 25.9241C99.8523 25.9241 101.849 25.6021 102.715 24.913C103.486 24.3267 104.062 23.5223 104.37 22.6042C104.327 23.2039 104.166 23.7891 103.895 24.3258C103.624 24.8625 103.249 25.3401 102.792 25.7309C101.559 26.8321 98.3711 26.9223 98.3711 26.9223L98.4291 25.9241Z" fill="#F28F8F"/>
<path d="M109.48 28.7383C109.48 28.7383 108.688 32.2513 109.077 34.9303C109.467 37.6094 111.045 38.9618 112.191 40.3045C113.338 41.6473 115.208 43.4054 117.433 43.5245L117.852 36.5854C116.967 35.1945 115.999 33.8579 114.954 32.583C113.402 30.6799 113.231 30.007 109.48 28.7383Z" fill="#F0F0F0"/>
<path opacity="0.1" d="M109.48 28.7383C109.48 28.7383 108.688 32.2513 109.077 34.9303C109.467 37.6094 111.045 38.9618 112.191 40.3045C113.338 41.6473 115.208 43.4054 117.433 43.5245L117.852 36.5854C116.967 35.1945 115.999 33.8579 114.954 32.583C113.402 30.6799 113.231 30.007 109.48 28.7383Z" fill="#242923"/>
<path d="M98.532 32.5638C99.2178 31.7137 100.261 29.9459 100.866 29.5306C101.472 29.1152 104.46 27.6919 104.863 26.2333L104.92 25.38C105.333 25.219 105.432 26.2945 106.881 27.7467C106.858 28.938 106.444 30.0886 105.703 31.0214C105.31 31.5908 104.779 32.0507 104.159 32.3577C103.54 32.6648 102.852 32.8089 102.161 32.7763C102.161 32.7763 101.15 30.8186 100.873 30.7187C100.596 30.6189 99.4207 31.9359 98.532 32.5638Z" fill="#F0F0F0"/>
<path d="M98.5321 32.5639C98.1554 31.8072 98.2101 28.9575 98.2101 28.9575L98.3582 26.8355C98.3582 26.8355 97.7142 26.7968 97.2023 27.6469C96.0527 29.6111 96.0334 30.9474 96.1944 31.3242C96.6484 30.4934 97.5436 30.0973 97.6981 30.326C97.8527 30.5546 98.0652 31.878 98.5321 32.5639Z" fill="#F0F0F0"/>
<path d="M113.022 27.328C112.488 26.4408 112.138 25.4553 111.992 24.43C111.86 23.245 111.097 22.0665 110.846 21.5899C110.594 21.1134 110.018 20.3857 109.593 19.7062C109.168 19.0268 109.042 18.8401 108.328 18.6179C107.362 18.312 106.582 18.0512 106.173 18.1156C105.764 18.18 105.742 18.4376 106.038 18.8368C106.334 19.2361 107.036 19.41 107.252 19.5066C107.468 19.6032 107.925 19.8833 107.925 19.8833L108.669 21.3742C108.021 21.3976 107.375 21.4665 106.737 21.5803C106.415 21.7059 106.035 22.469 106.109 22.9262C106.109 22.9262 105.465 23.2482 105.629 23.8407C105.629 23.8407 105.217 24.2529 105.407 24.6618C105.628 25.079 105.894 25.47 106.202 25.8275C106.373 26.0174 107.126 26.1495 107.126 26.1495C107.391 26.7059 107.729 27.2246 108.131 27.6918C108.617 28.1652 108.975 28.1877 109.455 29.1054L113.022 27.328Z" fill="#FFA8A7"/>
<path d="M107.957 21.4225C107.606 21.2132 107.558 20.9491 107.188 21.0361C106.817 21.123 106.898 21.5416 106.898 21.5416L107.957 21.4225Z" fill="#F28F8F"/>
<path d="M106.118 22.968C106.378 22.8013 106.658 22.6692 106.952 22.5752C107.226 22.485 107.79 22.3691 107.79 22.3691C107.411 22.3495 107.031 22.3864 106.663 22.4786C106.474 22.5251 106.289 22.5887 106.112 22.6686C106.101 22.7551 106.101 22.8428 106.112 22.9294L106.118 22.968Z" fill="#F28F8F"/>
<path d="M105.996 23.5059C105.865 23.5407 105.737 23.5859 105.613 23.6411C105.609 23.7288 105.618 23.8167 105.639 23.9019C105.883 23.6379 106.711 23.4189 106.711 23.4189C106.47 23.4217 106.23 23.4509 105.996 23.5059Z" fill="#F28F8F"/>
<path d="M107.242 26.4038C107.085 25.9378 106.884 25.4881 106.64 25.0611C106.56 24.9412 106.437 24.8565 106.296 24.8242C106.156 24.7919 106.008 24.8144 105.883 24.8872C105.761 25.0224 106.276 25.074 106.415 25.1577C106.753 25.5278 107.032 25.9481 107.242 26.4038Z" fill="#F28F8F"/>
<path d="M109.12 21.3968C109.12 21.3968 108.888 20.9492 108.456 20.2343C108.025 19.5195 108.047 19.6161 107.561 19.4487C107.075 19.2812 106.148 18.9979 105.938 18.6533C105.974 18.7185 106.015 18.7809 106.061 18.8401C106.344 19.22 107.059 19.4132 107.275 19.5098C107.49 19.6064 107.948 19.8866 107.948 19.8866L108.714 21.4193L109.12 21.3968Z" fill="#F28F8F"/>
<path d="M113.022 27.3279C114.429 29.5819 118.309 35.0752 119.095 37.1585C119.642 38.5979 119.417 41.747 118.512 42.7807C117.607 43.8143 115.566 43.0544 114.056 41.322C112.752 39.8247 111.937 36.5339 111.158 34.1639C110.379 31.794 109.435 29.115 109.435 29.115L113.022 27.3279Z" fill="#FFA8A7"/>
<path d="M109.976 31.002C109.976 31.002 111.728 31.2113 112.874 30.5608C113.52 30.2302 114.032 29.688 114.326 29.0249C114.326 29.0249 117.347 33.6134 118.19 35.0141C119.034 36.4148 119.739 37.3776 119.585 39.4674C119.43 41.5571 119.217 43.4054 117.717 43.531C116.216 43.6566 114.539 42.3267 113.647 41.277C112.755 40.2273 111.026 35.3039 109.976 31.002Z" fill="#F0F0F0"/>
<path d="M113.022 27.3279C112.7 26.7658 112.43 26.1751 112.217 25.5634C111.995 24.9516 112.001 24.2754 111.802 23.67C111.359 22.4549 110.735 21.3139 109.95 20.2858C109.557 19.7964 109.335 19.1041 108.749 18.8143C108.379 18.6822 105.484 17.552 105.957 18.6017C106.36 19.3488 107.381 19.3488 107.983 19.8608L108.723 21.3548C108.759 21.4321 108.772 21.4128 108.685 21.4192C108.101 21.4415 107.518 21.4931 106.94 21.5738C106.64 21.5738 106.466 21.8475 106.334 22.0987C106.188 22.3567 106.125 22.6536 106.154 22.9487C105.981 23.0193 105.838 23.1479 105.75 23.3125C105.662 23.4771 105.634 23.6673 105.671 23.8503C105.569 23.9399 105.492 24.0542 105.447 24.1821C105.401 24.3101 105.39 24.4476 105.413 24.5813C105.524 24.8307 105.663 25.0672 105.825 25.2865C105.964 25.5188 106.143 25.7248 106.354 25.895C106.606 26.0093 106.872 26.0915 107.146 26.1398C107.408 26.7218 107.762 27.2587 108.192 27.7304C108.675 28.1329 109.203 28.5129 109.464 29.115C109.194 28.5129 108.665 28.149 108.176 27.753C107.744 27.2861 107.386 26.7549 107.117 26.1784C106.848 26.1405 106.587 26.0634 106.341 25.9498C106.12 25.7764 105.933 25.5648 105.787 25.3251C105.429 24.8292 105.101 24.3591 105.623 23.8181V23.8503C105.583 23.6569 105.611 23.456 105.701 23.2804C105.791 23.1048 105.938 22.9652 106.118 22.8843L106.099 22.923C106.086 22.6973 106.118 22.4714 106.194 22.2584C106.27 22.0455 106.388 21.8499 106.54 21.6833C106.647 21.5699 106.791 21.499 106.946 21.4836C107.529 21.3986 108.116 21.3438 108.704 21.3194L108.665 21.3838L107.918 19.8962C107.374 19.4905 106.254 19.3584 105.896 18.6372C105.381 17.3685 108.347 18.5695 108.794 18.7338C109.087 18.8964 109.326 19.1417 109.48 19.4389C110.353 20.7978 111.377 22.089 111.866 23.6539C112.059 24.2754 112.043 24.9419 112.256 25.5537C112.456 26.1674 112.713 26.7614 113.022 27.3279Z" fill="#B16668"/>
<path d="M94.7485 48.622C94.7066 47.4273 93.8727 46.0299 92.8873 45.4953C92.5217 45.2893 92.099 45.2079 91.6831 45.2635C91.242 45.3075 90.7972 45.2314 90.3958 45.0432C89.9945 44.855 89.6515 44.5617 89.4033 44.1945C88.6047 43.0997 88.5822 41.5315 88.55 39.1584C88.55 38.5144 88.5339 37.7995 88.5146 37.0235C84.9339 34.8822 81.1955 32.7345 80.3487 33.0951L80.31 33.1144C79.8528 33.3656 80.178 34.2672 80.6063 34.9885C80.9181 35.4419 81.1098 35.9671 81.1633 36.5148C81.2052 37.5452 80.0492 37.7416 78.5873 36.9623C77.1254 36.1831 75.9308 34.7083 75.8922 33.6844C75.88 33.4964 75.9169 33.3085 75.9993 33.1391C76.0817 32.9697 76.2068 32.8247 76.3623 32.7184C76.768 32.4382 77.0449 31.8329 76.504 31.044C75.6185 29.756 72.8171 28.4068 69.2493 26.7002V26.726L69.2719 27.3539C69.2719 27.5567 69.2719 27.7531 69.2719 27.9496C69.3781 30.957 69.4007 33.1016 68.5474 33.3785C67.9034 33.6007 66.9116 32.7699 66.2612 31.9874C65.9263 31.5559 65.5135 31.1911 65.044 30.912C64.8744 30.7998 64.6793 30.7322 64.4768 30.7153C64.2742 30.6984 64.0706 30.7328 63.8848 30.8154C63.5242 31.0118 63.3084 31.4594 63.331 32.1034C63.3728 33.3012 64.2036 34.7019 65.1921 35.23C65.5587 35.4365 65.9823 35.5189 66.3996 35.465C66.84 35.4202 67.2843 35.4956 67.6852 35.6833C68.0861 35.871 68.4286 36.1639 68.6762 36.5309C69.6422 37.8189 69.6905 39.812 69.7999 43.0836L69.8257 43.8628C73.0811 45.7948 76.1659 47.5078 77.0546 47.1214L77.09 47.1053C77.5473 46.8606 77.222 45.9526 76.7938 45.2377C76.486 44.7798 76.2948 44.2537 76.2367 43.705C76.2045 42.6778 77.3541 42.4814 78.8127 43.2639C80.2714 44.0463 81.4757 45.5179 81.5079 46.5386C81.5191 46.7265 81.4818 46.914 81.3994 47.0832C81.3171 47.2525 81.1925 47.3976 81.0377 47.5046C80.6352 47.7848 80.3551 48.3901 80.9025 49.1758C81.7107 50.3447 84.6602 51.8967 88.0767 53.6838C88.3987 53.8577 88.7432 54.0316 89.0877 54.2087C89.0555 53.5035 89.0233 52.8241 88.9847 52.1607C88.843 49.4946 88.74 47.5722 89.5096 47.3082C90.1536 47.086 91.1453 47.92 91.7958 48.6992C92.1358 49.136 92.5567 49.5033 93.0355 49.7812C93.2043 49.895 93.3995 49.9636 93.6025 49.9805C93.8054 49.9975 94.0093 49.9621 94.1947 49.8778C94.5553 49.7232 94.771 49.266 94.7485 48.622Z" fill="#6EE327"/>
<path opacity="0.3" d="M94.7485 48.622C94.7066 47.4273 93.8727 46.0299 92.8873 45.4953C92.5217 45.2893 92.099 45.2079 91.6831 45.2635C91.242 45.3075 90.7972 45.2314 90.3958 45.0432C89.9945 44.855 89.6515 44.5617 89.4033 44.1945C88.6047 43.0997 88.5822 41.5315 88.55 39.1584C88.55 38.5144 88.5339 37.7995 88.5146 37.0235C84.9339 34.8822 81.1955 32.7345 80.3487 33.0951L80.31 33.1144C79.8528 33.3656 80.178 34.2672 80.6063 34.9885C80.9181 35.4419 81.1098 35.9671 81.1633 36.5148C81.2052 37.5452 80.0492 37.7416 78.5873 36.9623C77.1254 36.1831 75.9308 34.7083 75.8922 33.6844C75.88 33.4964 75.9169 33.3085 75.9993 33.1391C76.0817 32.9697 76.2068 32.8247 76.3623 32.7184C76.768 32.4382 77.0449 31.8329 76.504 31.044C75.6185 29.756 72.8171 28.4068 69.2493 26.7002V26.726L69.2719 27.3539C69.2719 27.5567 69.2719 27.7531 69.2719 27.9496C69.3781 30.957 69.4007 33.1016 68.5474 33.3785C67.9034 33.6007 66.9116 32.7699 66.2612 31.9874C65.9263 31.5559 65.5135 31.1911 65.044 30.912C64.8744 30.7998 64.6793 30.7322 64.4768 30.7153C64.2742 30.6984 64.0706 30.7328 63.8848 30.8154C63.5242 31.0118 63.3084 31.4594 63.331 32.1034C63.3728 33.3012 64.2036 34.7019 65.1921 35.23C65.5587 35.4365 65.9823 35.5189 66.3996 35.465C66.84 35.4202 67.2843 35.4956 67.6852 35.6833C68.0861 35.871 68.4286 36.1639 68.6762 36.5309C69.6422 37.8189 69.6905 39.812 69.7999 43.0836L69.8257 43.8628C73.0811 45.7948 76.1659 47.5078 77.0546 47.1214L77.09 47.1053C77.5473 46.8606 77.222 45.9526 76.7938 45.2377C76.486 44.7798 76.2948 44.2537 76.2367 43.705C76.2045 42.6778 77.3541 42.4814 78.8127 43.2639C80.2714 44.0463 81.4757 45.5179 81.5079 46.5386C81.5191 46.7265 81.4818 46.914 81.3994 47.0832C81.3171 47.2525 81.1925 47.3976 81.0377 47.5046C80.6352 47.7848 80.3551 48.3901 80.9025 49.1758C81.7107 50.3447 84.6602 51.8967 88.0767 53.6838C88.3987 53.8577 88.7432 54.0316 89.0877 54.2087C89.0555 53.5035 89.0233 52.8241 88.9847 52.1607C88.843 49.4946 88.74 47.5722 89.5096 47.3082C90.1536 47.086 91.1453 47.92 91.7958 48.6992C92.1358 49.136 92.5567 49.5033 93.0355 49.7812C93.2043 49.895 93.3995 49.9636 93.6025 49.9805C93.8054 49.9975 94.0093 49.9621 94.1947 49.8778C94.5553 49.7232 94.771 49.266 94.7485 48.622Z" fill="white"/>
<path d="M67.2657 37.8156C66.7795 37.1362 66.8246 37.0461 67.0854 36.7015C67.2836 36.4255 67.5447 36.2007 67.8471 36.0456C68.1494 35.8905 68.4844 35.8096 68.8242 35.8096C69.4231 35.8289 70.0252 35.8096 70.3311 35.9738C70.637 36.138 70.3794 36.782 69.6002 36.9398C68.3766 37.2135 68.383 37.5452 68.383 37.5452C68.905 37.4259 69.4327 37.3335 69.9641 37.2682C70.5694 37.3103 71.1704 37.4019 71.7608 37.5419C72.2792 37.6224 72.3823 38.289 71.5064 38.5079L72.4531 38.6593C73.1132 38.7655 73.3386 39.1197 72.8202 39.5287C72.65 39.6684 72.4382 39.7476 72.2181 39.7541C72.2181 39.7541 72.9265 39.7541 72.9393 39.9891C72.9812 40.6621 72.5465 40.8392 71.12 41.2514C70.5826 41.3704 70.1073 41.6819 69.7837 42.1272L69.8159 43.0224C69.8159 43.0224 69.2009 42.5651 68.7147 42.2302C68.3573 41.9823 68.0514 41.7054 68.2124 41.1483C68.2124 41.1483 67.4364 41.1483 67.3881 40.6814C67.3782 40.3284 67.443 39.9773 67.578 39.651C67.4383 39.5722 67.3239 39.4552 67.2481 39.3138C67.1723 39.1725 67.1382 39.0125 67.1498 38.8525C67.1464 38.5479 67.245 38.2509 67.4299 38.0088L67.2657 37.8156Z" fill="#FFA8A7"/>
<path d="M71.5065 38.5338C71.2234 38.4762 70.9356 38.445 70.6468 38.4404C70.3568 38.4849 70.0755 38.574 69.8128 38.7045C69.291 38.9305 68.7891 39.1998 68.3123 39.5095C68.8641 39.3639 69.4026 39.1722 69.9223 38.9363C70.1652 38.8137 70.4184 38.7124 70.679 38.6336C70.9269 38.5918 71.2264 38.5885 71.5065 38.5338Z" fill="#F28F8F"/>
<path d="M72.2181 39.7799C71.9159 39.6951 71.5976 39.6851 71.2907 39.751C70.9867 39.8175 70.6892 39.9112 70.402 40.0311C69.8374 40.2645 69.2979 40.5547 68.792 40.8973C69.3752 40.7136 69.9481 40.4986 70.5083 40.2533C71.0445 39.9925 71.624 39.8321 72.2181 39.7799Z" fill="#F28F8F"/>
<path d="M124.984 8.95159C123.081 9.72483 121.45 11.0453 120.297 12.7459C119.144 14.4465 118.522 16.4508 118.509 18.5052C118.495 20.5596 119.092 22.5718 120.222 24.2872C121.353 26.0026 122.967 27.3441 124.86 28.1419C126.753 28.9398 128.841 29.1582 130.858 28.7694C132.875 28.3806 134.732 27.4022 136.193 25.9579C137.654 24.5137 138.654 22.6684 139.066 20.6558C139.478 18.6431 139.284 16.5533 138.508 14.651C137.467 12.1053 135.458 10.0762 132.924 9.00797C130.389 7.93975 127.534 7.91948 124.984 8.95159ZM125.335 9.81777C127.067 9.11314 128.968 8.93772 130.799 9.31367C132.63 9.68962 134.308 10.6001 135.622 11.9299C136.935 13.2597 137.825 14.9491 138.178 16.7846C138.532 18.62 138.333 20.519 137.607 22.2415C136.881 23.9639 135.661 25.4324 134.1 26.4613C132.54 27.4902 130.709 28.0332 128.84 28.0218C126.971 28.0103 125.147 27.4448 123.599 26.3968C122.052 25.3489 120.849 23.8655 120.145 22.1343C119.202 19.8125 119.218 17.2113 120.192 14.902C121.165 12.5927 123.015 10.7641 125.335 9.81777Z" fill="#455A64"/>
<path d="M125.336 9.81772C123.604 10.5227 122.121 11.7252 121.073 13.2731C120.025 14.8211 119.46 16.645 119.449 18.5142C119.438 20.3834 119.981 22.2139 121.011 23.7743C122.04 25.3346 123.509 26.5547 125.231 27.2803C126.954 28.0058 128.853 28.2042 130.689 27.8504C132.524 27.4966 134.213 26.6064 135.543 25.2925C136.872 23.9786 137.782 22.2999 138.158 20.4687C138.533 18.6376 138.357 16.7362 137.652 15.0051C136.704 12.6858 134.875 10.8371 132.566 9.86455C130.257 8.89204 127.657 8.8752 125.336 9.81772Z" fill="white"/>
<path d="M116.844 24.0856L120.525 24.0244L119.098 20.5178L116.419 23.0455C116.331 23.129 116.27 23.2372 116.244 23.3561C116.218 23.4749 116.229 23.5988 116.275 23.7113C116.321 23.8239 116.4 23.9199 116.502 23.9867C116.603 24.0535 116.723 24.088 116.844 24.0856Z" fill="#455A64"/>
<path d="M130.32 22.5723H127.477C127.449 22.5727 127.421 22.5675 127.395 22.557C127.369 22.5465 127.345 22.5308 127.325 22.511C127.306 22.4912 127.29 22.4676 127.279 22.4416C127.269 22.4156 127.264 22.3878 127.264 22.3598C127.264 22.3316 127.269 22.3036 127.279 22.2775C127.29 22.2513 127.306 22.2275 127.325 22.2074C127.345 22.1873 127.369 22.1714 127.395 22.1605C127.421 22.1496 127.449 22.144 127.477 22.144H130.32C130.348 22.144 130.376 22.1496 130.402 22.1605C130.428 22.1714 130.452 22.1873 130.471 22.2074C130.491 22.2275 130.507 22.2513 130.517 22.2775C130.528 22.3036 130.533 22.3316 130.532 22.3598C130.533 22.3878 130.528 22.4156 130.517 22.4416C130.507 22.4676 130.491 22.4912 130.471 22.511C130.451 22.5308 130.428 22.5465 130.402 22.557C130.376 22.5675 130.348 22.5727 130.32 22.5723Z" fill="#455A64"/>
<path d="M128.9 24.7941C128.466 24.7941 128.05 24.6218 127.743 24.315C127.437 24.0082 127.264 23.5922 127.264 23.1583C127.264 23.1303 127.269 23.1025 127.279 23.0765C127.29 23.0505 127.306 23.0269 127.325 23.0071C127.345 22.9873 127.369 22.9716 127.395 22.9611C127.421 22.9506 127.449 22.9454 127.477 22.9458H130.32C130.348 22.9454 130.376 22.9506 130.402 22.9611C130.428 22.9716 130.451 22.9873 130.471 23.0071C130.491 23.0269 130.507 23.0505 130.517 23.0765C130.528 23.1025 130.533 23.1303 130.532 23.1583C130.532 23.5916 130.361 24.0072 130.055 24.3139C129.748 24.6205 129.333 24.7933 128.9 24.7941Z" fill="#455A64"/>
<path d="M131.936 13.5659C131.505 13.1529 130.995 12.8325 130.435 12.6243C129.876 12.4161 129.28 12.3245 128.684 12.3551C127.572 12.423 126.526 12.9045 125.752 13.7048C124.977 14.5051 124.53 15.5662 124.498 16.6796C124.486 17.4574 124.679 18.2246 125.059 18.9033C125.439 19.582 125.992 20.1479 126.662 20.5436C126.839 20.6451 126.986 20.7913 127.089 20.9676C127.192 21.1439 127.247 21.3441 127.248 21.5482C127.247 21.5736 127.251 21.5988 127.261 21.6224C127.27 21.6461 127.284 21.6676 127.301 21.6856C127.319 21.7037 127.341 21.718 127.364 21.7276C127.387 21.7372 127.413 21.7419 127.438 21.7414H130.359C130.41 21.7414 130.459 21.7211 130.495 21.6848C130.531 21.6486 130.552 21.5995 130.552 21.5482C130.554 21.3455 130.608 21.1467 130.71 20.9713C130.811 20.7958 130.957 20.6496 131.131 20.5468C131.793 20.1568 132.342 19.6009 132.724 18.934C133.106 18.2672 133.307 17.5124 133.308 16.744C133.308 16.1487 133.186 15.5597 132.951 15.0132C132.715 14.4666 132.37 13.9741 131.936 13.5659Z" fill="#6EE327"/>
<g opacity="0.35">
<path d="M131.936 13.5659C131.505 13.1529 130.995 12.8325 130.435 12.6243C129.876 12.4161 129.28 12.3245 128.684 12.3551C127.572 12.423 126.526 12.9045 125.752 13.7048C124.977 14.5051 124.53 15.5662 124.498 16.6796C124.486 17.4574 124.679 18.2246 125.059 18.9033C125.439 19.582 125.992 20.1479 126.662 20.5436C126.839 20.6451 126.986 20.7913 127.089 20.9676C127.192 21.1439 127.247 21.3441 127.248 21.5482C127.247 21.5736 127.251 21.5988 127.261 21.6224C127.27 21.6461 127.284 21.6676 127.301 21.6856C127.319 21.7037 127.341 21.718 127.364 21.7276C127.387 21.7372 127.413 21.7419 127.438 21.7414H130.359C130.41 21.7414 130.459 21.7211 130.495 21.6848C130.531 21.6486 130.552 21.5995 130.552 21.5482C130.554 21.3455 130.608 21.1467 130.71 20.9713C130.811 20.7958 130.957 20.6496 131.131 20.5468C131.793 20.1568 132.342 19.6009 132.724 18.934C133.106 18.2672 133.307 17.5124 133.308 16.744C133.308 16.1487 133.186 15.5597 132.951 15.0132C132.715 14.4666 132.37 13.9741 131.936 13.5659Z" fill="white"/>
</g>
<path d="M131.334 17.6553C131.306 17.5657 131.249 17.4878 131.172 17.4337C131.096 17.3796 131.003 17.3523 130.909 17.3559C130.749 17.3755 130.595 17.4316 130.459 17.5198C130.324 17.6079 130.21 17.7259 130.127 17.8646L130.095 17.9097H130.04C129.808 17.8297 129.59 17.7122 129.396 17.562C129.287 17.481 129.187 17.3893 129.096 17.2883L129.051 17.2464L129.087 17.1917C129.214 17.0425 129.305 16.8663 129.353 16.6766C129.402 16.4869 129.406 16.2886 129.367 16.0969C129.333 16.001 129.271 15.9179 129.188 15.8592C129.105 15.8004 129.006 15.7688 128.905 15.7688C128.803 15.7688 128.704 15.8004 128.621 15.8592C128.539 15.9179 128.476 16.001 128.443 16.0969C128.405 16.2887 128.411 16.4865 128.459 16.6759C128.507 16.8653 128.598 17.0415 128.723 17.1917L128.758 17.2464L128.713 17.2883C128.623 17.3893 128.522 17.481 128.414 17.562C128.219 17.7122 128.002 17.8297 127.77 17.9097H127.715L127.683 17.8646C127.6 17.7259 127.486 17.6079 127.35 17.5198C127.215 17.4316 127.061 17.3755 126.9 17.3559C126.806 17.3523 126.714 17.3796 126.637 17.4337C126.56 17.4878 126.503 17.5657 126.475 17.6553C126.451 17.7304 126.452 17.8117 126.481 17.8856C126.509 17.9595 126.561 18.0214 126.63 18.0611C126.806 18.1679 127.01 18.2195 127.216 18.2092C127.33 18.2087 127.444 18.199 127.557 18.1802H127.612L127.638 18.2317C127.737 18.4138 127.819 18.6046 127.882 18.8017C128.102 19.6218 128.186 20.4724 128.13 21.3197C128.13 21.4646 128.13 21.6063 128.13 21.7447H128.359V21.3004C128.416 20.4334 128.329 19.563 128.101 18.7244C128.042 18.5409 127.969 18.3622 127.882 18.1899L127.844 18.1126L127.927 18.0804C128.158 17.9957 128.375 17.8774 128.571 17.7294C128.677 17.6481 128.777 17.5599 128.871 17.4654L128.926 17.4074L128.984 17.4654C129.077 17.56 129.177 17.6482 129.283 17.7294C129.479 17.8781 129.696 17.9964 129.927 18.0804L130.011 18.1126L129.972 18.1899C129.886 18.3622 129.812 18.5409 129.753 18.7244C129.526 19.563 129.439 20.4334 129.496 21.3004C129.496 21.4453 129.496 21.587 129.496 21.7286H129.721C129.721 21.5902 129.721 21.4485 129.721 21.2907C129.666 20.4477 129.749 19.6013 129.969 18.7856C130.033 18.5885 130.115 18.3977 130.214 18.2156L130.239 18.1641H130.294C130.407 18.1831 130.521 18.1928 130.635 18.1931C130.841 18.2034 131.045 18.1518 131.222 18.045C131.279 18.0003 131.321 17.9385 131.341 17.8685C131.362 17.7985 131.359 17.7239 131.334 17.6553ZM127.312 17.9773H127.213C127.05 17.9863 126.888 17.9495 126.746 17.8711C126.72 17.8563 126.699 17.8337 126.686 17.8067C126.674 17.7796 126.67 17.7492 126.675 17.7197C126.689 17.6751 126.717 17.6364 126.756 17.6101C126.794 17.5837 126.841 17.5713 126.887 17.5748C127.075 17.5995 127.246 17.6965 127.364 17.8453L127.477 17.9645L127.312 17.9773ZM128.897 17.0435L128.832 16.9341C128.75 16.8224 128.691 16.6951 128.66 16.5601C128.628 16.425 128.625 16.2849 128.649 16.1484C128.664 16.0958 128.697 16.05 128.742 16.0189C128.788 15.9879 128.842 15.9733 128.897 15.9777C128.952 15.9731 129.007 15.9876 129.052 16.0186C129.098 16.0497 129.132 16.0955 129.148 16.1484C129.172 16.2849 129.168 16.425 129.137 16.5601C129.105 16.6951 129.047 16.8224 128.964 16.9341L128.897 17.0435ZM131.054 17.8775C130.91 17.9559 130.747 17.9927 130.584 17.9838H130.487H130.323L130.436 17.8646C130.553 17.7158 130.724 17.6188 130.912 17.5942C130.959 17.5912 131.005 17.6039 131.044 17.6301C131.082 17.6564 131.111 17.6947 131.125 17.7391C131.147 17.8099 131.073 17.8582 131.054 17.8775Z" fill="#FAFAFA"/>
</svg>
