<svg width="161" height="161" viewBox="0 0 161 161" fill="none" xmlns="http://www.w3.org/2000/svg">
<path d="M25.0065 75.8631C-5.64147 93.5731 -5.63825 122.231 25.0065 139.941C55.6512 157.651 105.342 157.635 135.99 139.941C166.638 122.247 166.635 93.5731 135.99 75.8631C105.345 58.1531 55.6544 58.1692 25.0065 75.8631Z" fill="#FAFAFA"/>
<path d="M104.016 133.102L35.552 93.5763L56.7138 81.3596L125.177 120.885L104.016 133.102Z" fill="#E0E0E0"/>
<path d="M38.6947 117.8C43.354 120.521 43.354 124.933 38.6947 127.65C34.0354 130.368 26.4812 130.371 21.8219 127.65C17.1626 124.93 17.1626 120.521 21.8219 117.8C26.4812 115.08 34.0354 115.08 38.6947 117.8Z" fill="#E0E0E0"/>
<path d="M45.8013 47.6399V60.2429L62.7739 50.438L62.7803 37.835L45.8013 47.6399Z" fill="#6EE327"/>
<path d="M45.8013 60.2429L65.205 71.4453L82.1905 61.6436L62.7739 50.438L45.8013 60.2429Z" fill="#6EE327"/>
<path opacity="0.3" d="M45.8013 60.2429L65.205 71.4453L82.1905 61.6436L62.7739 50.438L45.8013 60.2429Z" fill="white"/>
<path d="M82.1906 61.6436L82.1841 74.2466L65.2051 84.0515V71.4452L82.1906 61.6436Z" fill="#6EE327"/>
<path d="M65.2051 84.0517L84.6088 95.2541L101.591 85.4524L82.1841 74.2468L65.2051 84.0517Z" fill="#6EE327"/>
<path opacity="0.3" d="M65.2051 84.0517L84.6088 95.2541L101.591 85.4524L82.1841 74.2468L65.2051 84.0517Z" fill="white"/>
<path d="M101.591 85.4524V98.0555L84.6086 107.857V95.2541L101.591 85.4524Z" fill="#6EE327"/>
<path d="M84.6086 107.857L104.016 119.063L120.995 109.261L101.591 98.0554L84.6086 107.857Z" fill="#6EE327"/>
<path opacity="0.3" d="M84.6086 107.857L104.016 119.063L120.995 109.261L101.591 98.0554L84.6086 107.857Z" fill="white"/>
<path d="M120.995 109.261V121.864L104.016 131.666V119.063L120.995 109.261Z" fill="#6EE327"/>
<path d="M45.8012 47.64L27.6082 37.1363L21.5417 40.6365L23.9696 25.232L50.6506 23.8313L44.5873 27.3314L62.7803 37.8351L45.8012 47.64Z" fill="#6EE327"/>
<path opacity="0.3" d="M45.8012 47.64L27.6082 37.1363L21.5417 40.6365L23.9696 25.232L50.6506 23.8313L44.5873 27.3314L62.7803 37.8351L45.8012 47.64Z" fill="white"/>
<path d="M84.6087 107.857V95.254L65.2049 84.0516V71.4453L45.8012 60.2429V47.6399L27.6082 37.1362L21.5417 40.6364V43.4378L27.6082 39.9376L43.3733 49.0373V61.6437L62.7803 72.8493V85.4523L82.184 96.6547V109.258L101.591 120.463V130.265L104.016 131.666V119.063L84.6087 107.857Z" fill="#6EE327"/>
<path opacity="0.3" d="M84.6087 107.857V95.254L65.2049 84.0516V71.4453L45.8012 60.2429V47.6399L27.6082 37.1362L21.5417 40.6364V43.4378L27.6082 39.9376L43.3733 49.0373V61.6437L62.7803 72.8493V85.4523L82.184 96.6547V109.258L101.591 120.463V130.265L104.016 131.666V119.063L84.6087 107.857Z" fill="#242923"/>
<path d="M50.6507 23.8313V26.6327L47.0121 28.7321L44.5874 27.3314L50.6507 23.8313Z" fill="#6EE327"/>
<path opacity="0.3" d="M50.6507 23.8313V26.6327L47.0121 28.7321L44.5874 27.3314L50.6507 23.8313Z" fill="#242923"/>
<path d="M56.0054 57.7667H56.028C56.3342 57.7059 56.6466 57.6821 56.9585 57.6959C56.9836 57.6968 57.0081 57.6879 57.0267 57.671C57.0454 57.6542 57.0567 57.6308 57.0584 57.6057C57.0584 57.5803 57.0488 57.5559 57.0314 57.5373C57.0141 57.5188 56.9903 57.5076 56.965 57.5059C56.6412 57.4926 56.317 57.5175 55.999 57.58C55.9744 57.5854 55.9529 57.6002 55.939 57.6213C55.9252 57.6423 55.9201 57.6679 55.9249 57.6927C55.9293 57.7117 55.9393 57.729 55.9537 57.7422C55.9681 57.7554 55.9861 57.764 56.0054 57.7667ZM54.1314 59.3574C54.1305 59.1279 54.199 58.9034 54.3278 58.7134C54.3373 58.6923 54.3389 58.6684 54.3323 58.6462C54.3257 58.624 54.3113 58.6049 54.2918 58.5924C54.2723 58.5799 54.2489 58.5748 54.226 58.5781C54.203 58.5814 54.182 58.5929 54.1668 58.6104C54.0193 58.8303 53.9408 59.0893 53.9414 59.3542C53.9422 59.4855 53.9584 59.6163 53.9897 59.7438C53.9958 59.764 54.0081 59.7817 54.0249 59.7944C54.0417 59.8071 54.062 59.8142 54.0831 59.8147H54.096C54.1207 59.8085 54.1419 59.793 54.1552 59.7712C54.1685 59.7495 54.1726 59.7235 54.1668 59.6987C54.1412 59.5868 54.1294 59.4722 54.1314 59.3574ZM56.2147 61.9978C56.0795 61.9173 55.9507 61.8368 55.8348 61.7563C55.6856 61.6563 55.5416 61.5488 55.4033 61.4343C55.3858 61.4168 55.362 61.407 55.3373 61.407C55.3125 61.407 55.2888 61.4168 55.2713 61.4343C55.2621 61.443 55.2548 61.4535 55.2498 61.4651C55.2449 61.4768 55.2423 61.4893 55.2423 61.5019C55.2423 61.5146 55.2449 61.5271 55.2498 61.5387C55.2548 61.5503 55.2621 61.5608 55.2713 61.5696C55.4129 61.6916 55.5612 61.8055 55.7156 61.9109C55.838 61.9946 55.97 62.0783 56.1085 62.162C56.1244 62.1649 56.1408 62.1649 56.1568 62.162C56.1736 62.1614 56.19 62.1567 56.2046 62.1483C56.2192 62.1399 56.2315 62.128 56.2405 62.1137C56.2503 62.0944 56.2531 62.0723 56.2484 62.0512C56.2437 62.03 56.2318 62.0111 56.2147 61.9978ZM57.4287 62.6418C57.1292 62.5001 56.8523 62.3617 56.6108 62.2329C56.5998 62.2272 56.5878 62.2237 56.5754 62.2226C56.5631 62.2215 56.5507 62.2229 56.5389 62.2267C56.527 62.2304 56.5161 62.2364 56.5066 62.2444C56.4971 62.2524 56.4893 62.2621 56.4836 62.2731C56.4779 62.2841 56.4744 62.2961 56.4733 62.3085C56.4723 62.3208 56.4736 62.3332 56.4774 62.3451C56.4811 62.3569 56.4871 62.3678 56.4951 62.3773C56.5031 62.3868 56.5129 62.3946 56.5238 62.4003C56.7653 62.5323 57.0455 62.6708 57.3482 62.8125C57.3609 62.8154 57.3741 62.8154 57.3868 62.8125C57.4051 62.8129 57.423 62.8079 57.4385 62.7981C57.4539 62.7884 57.4662 62.7744 57.4738 62.7577C57.4797 62.7464 57.4832 62.734 57.4842 62.7212C57.4851 62.7084 57.4834 62.6956 57.4792 62.6835C57.4749 62.6715 57.4683 62.6604 57.4596 62.651C57.4509 62.6416 57.4404 62.6341 57.4287 62.6289V62.6418ZM54.3697 60.2043C54.3639 60.1931 54.356 60.1832 54.3463 60.1752C54.3367 60.1672 54.3255 60.1612 54.3135 60.1576C54.3015 60.154 54.2888 60.1528 54.2764 60.1542C54.2639 60.1556 54.2518 60.1595 54.2409 60.1656C54.2184 60.1773 54.2014 60.1974 54.1936 60.2215C54.1858 60.2456 54.1877 60.2718 54.199 60.2944C54.3817 60.6239 54.6081 60.9272 54.872 61.196C54.8898 61.2142 54.9141 61.2247 54.9396 61.225C54.952 61.2256 54.9645 61.2237 54.9761 61.2192C54.9878 61.2148 54.9983 61.208 55.0072 61.1993C55.0249 61.1812 55.0348 61.1569 55.0348 61.1316C55.0348 61.1064 55.0249 61.0821 55.0072 61.064C54.7541 60.8051 54.5394 60.5112 54.3697 60.1914V60.2043ZM55.6351 57.7764C55.6257 57.7531 55.608 57.7342 55.5853 57.7235C55.5626 57.7128 55.5367 57.711 55.5128 57.7184C55.3577 57.7712 55.2061 57.8336 55.0588 57.9052C54.8866 57.9876 54.7236 58.088 54.5725 58.2047C54.5625 58.212 54.554 58.2212 54.5476 58.2319C54.5412 58.2425 54.5369 58.2543 54.5351 58.2666C54.5333 58.2789 54.534 58.2914 54.5371 58.3035C54.5402 58.3155 54.5457 58.3268 54.5532 58.3367C54.5695 58.356 54.5926 58.3684 54.6177 58.3714C54.6428 58.3744 54.6681 58.3677 54.6884 58.3528C54.8312 58.2471 54.9832 58.1544 55.1425 58.0759C55.2826 58.0083 55.4267 57.9491 55.5739 57.8988C55.5876 57.895 55.6003 57.8883 55.611 57.879C55.6218 57.8698 55.6304 57.8584 55.6362 57.8455C55.6421 57.8326 55.645 57.8185 55.6448 57.8044C55.6446 57.7902 55.6413 57.7763 55.6351 57.7635V57.7764ZM64.7703 63.0025C65.0407 63.1538 65.3048 63.2987 65.5592 63.4339C65.574 63.4373 65.5894 63.4373 65.6042 63.4339C65.6257 63.4348 65.6467 63.4283 65.6639 63.4155C65.6811 63.4027 65.6933 63.3844 65.6986 63.3637C65.7039 63.3429 65.7019 63.321 65.6929 63.3015C65.6839 63.2821 65.6686 63.2663 65.6493 63.2568C65.3949 63.1216 65.1341 62.9799 64.8636 62.8254C64.8413 62.8134 64.8152 62.8103 64.7906 62.8169C64.7661 62.8235 64.745 62.8392 64.7316 62.8608C64.7201 62.8831 64.7176 62.909 64.7249 62.933C64.7321 62.957 64.7484 62.9773 64.7703 62.9896V63.0025ZM67.1305 64.2905C67.269 64.3774 67.3881 64.4547 67.4976 64.5352C67.6113 64.6187 67.7189 64.7102 67.8196 64.8089C67.8283 64.818 67.8388 64.8253 67.8504 64.8303C67.8621 64.8353 67.8746 64.8379 67.8872 64.8379C67.913 64.836 67.9371 64.8245 67.9548 64.8057C67.9723 64.7881 67.9822 64.7644 67.9822 64.7396C67.9822 64.7149 67.9723 64.6911 67.9548 64.6736C67.8431 64.5686 67.7248 64.4707 67.6006 64.3806C67.4879 64.3001 67.3624 64.2164 67.2175 64.1295C67.1961 64.1166 67.1706 64.1128 67.1464 64.1189C67.1222 64.1249 67.1015 64.1403 67.0887 64.1617C67.0759 64.183 67.0721 64.2086 67.0781 64.2327C67.0841 64.2569 67.0995 64.2776 67.1209 64.2905H67.1305ZM57.4222 57.7506C57.7321 57.7983 58.0371 57.8737 58.3335 57.976H58.3625C58.3848 57.9755 58.4063 57.9672 58.4232 57.9526C58.4401 57.9379 58.4515 57.9179 58.4553 57.8959C58.4591 57.8738 58.4551 57.8512 58.444 57.8317C58.433 57.8123 58.4155 57.7973 58.3947 57.7893C58.0876 57.6838 57.7719 57.6051 57.4512 57.5542C57.4387 57.5519 57.4258 57.5522 57.4134 57.5551C57.401 57.5579 57.3894 57.5633 57.3791 57.5708C57.3688 57.5784 57.3602 57.5879 57.3538 57.5989C57.3474 57.6099 57.3433 57.6221 57.3417 57.6347C57.3399 57.647 57.3406 57.6595 57.3437 57.6715C57.3467 57.6836 57.3522 57.6948 57.3597 57.7047C57.3672 57.7146 57.3766 57.7229 57.3873 57.7292C57.398 57.7354 57.4099 57.7394 57.4222 57.741V57.7506ZM63.991 62.542L64.3774 62.7738C64.3932 62.7782 64.4099 62.7782 64.4257 62.7738C64.4427 62.7738 64.4594 62.7694 64.4741 62.7609C64.4888 62.7524 64.501 62.7402 64.5094 62.7255C64.5157 62.7148 64.5198 62.7029 64.5214 62.6906C64.523 62.6782 64.5222 62.6657 64.5189 62.6537C64.5156 62.6417 64.5099 62.6305 64.5022 62.6207C64.4945 62.6109 64.4849 62.6028 64.474 62.5967L64.0908 62.3649C63.9365 62.2665 63.7881 62.1589 63.6465 62.0429C63.6257 62.0283 63.6002 62.0222 63.575 62.0258C63.5499 62.0294 63.5271 62.0424 63.5113 62.0622C63.5037 62.0721 63.4983 62.0834 63.4951 62.0954C63.492 62.1075 63.4914 62.12 63.4932 62.1323C63.495 62.1446 63.4992 62.1564 63.5056 62.167C63.512 62.1777 63.5205 62.1869 63.5306 62.1942C63.6819 62.3295 63.8397 62.4357 63.991 62.5323V62.542ZM61.869 60.5842L61.9399 60.6615C61.9584 60.6811 61.9838 60.6927 62.0107 60.6937C62.0345 60.6928 62.0573 60.6837 62.0751 60.668C62.0926 60.6504 62.1025 60.6267 62.1025 60.6019C62.1025 60.5772 62.0926 60.5534 62.0751 60.5359L62.0043 60.4554C61.7853 60.2107 61.5567 59.9563 61.3281 59.7181C61.32 59.7068 61.3097 59.6974 61.2977 59.6906C61.2857 59.6837 61.2724 59.6794 61.2586 59.6781C61.2448 59.6768 61.231 59.6785 61.2179 59.6831C61.2048 59.6876 61.1929 59.6949 61.1829 59.7044C61.1729 59.7139 61.1651 59.7255 61.1599 59.7384C61.1548 59.7512 61.1524 59.765 61.1531 59.7788C61.1537 59.7926 61.1573 59.8061 61.1636 59.8184C61.1699 59.8307 61.1788 59.8415 61.1896 59.8501C61.4247 60.0755 61.6501 60.3266 61.869 60.5746V60.5842ZM63.0991 61.8722C63.1075 61.8807 63.1175 61.8874 63.1286 61.8918C63.1397 61.8962 63.1516 61.8983 63.1635 61.898C63.177 61.8983 63.1903 61.8955 63.2026 61.8899C63.2148 61.8844 63.2257 61.8761 63.2343 61.8658C63.2434 61.8574 63.2506 61.8471 63.2556 61.8358C63.2605 61.8244 63.2631 61.8122 63.2631 61.7998C63.2631 61.7874 63.2605 61.7751 63.2556 61.7638C63.2506 61.7524 63.2434 61.7422 63.2343 61.7338C63.0025 61.5213 62.7578 61.2733 62.4615 60.9545C62.4435 60.9368 62.4192 60.9269 62.3939 60.9269C62.3686 60.9269 62.3443 60.9368 62.3263 60.9545C62.3088 60.972 62.299 60.9958 62.299 61.0205C62.299 61.0453 62.3088 61.069 62.3263 61.0866C62.575 61.3542 62.8372 61.6089 63.112 61.8497L63.0991 61.8722ZM60.3943 59.1256C60.5295 59.2318 60.6648 59.3478 60.8064 59.4798C60.8246 59.4946 60.8474 59.5026 60.8708 59.5023C60.884 59.5024 60.897 59.4999 60.9092 59.4949C60.9213 59.4899 60.9324 59.4826 60.9417 59.4733C60.9594 59.4553 60.9693 59.431 60.9693 59.4057C60.9693 59.3804 60.9594 59.3562 60.9417 59.3381C60.7968 59.2029 60.6583 59.0837 60.5166 58.9742C60.4072 58.8873 60.2751 58.7907 60.127 58.6877C60.1061 58.6763 60.0817 58.6731 60.0586 58.6786C60.0355 58.6841 60.0152 58.6979 60.0016 58.7175C59.988 58.737 59.9822 58.7609 59.9851 58.7845C59.988 58.8081 59.9996 58.8298 60.0175 58.8454C60.1657 58.9453 60.2912 59.0386 60.4007 59.1256H60.3943ZM64.767 66.3126C64.5855 66.2312 64.4092 66.1387 64.239 66.0357L63.8719 65.8006C63.8507 65.7911 63.8269 65.7895 63.8047 65.7961C63.7824 65.8027 63.7633 65.8171 63.7508 65.8366C63.7383 65.8562 63.7333 65.8795 63.7366 65.9025C63.7399 65.9254 63.7513 65.9464 63.7688 65.9616C63.8912 66.0421 64.0136 66.1194 64.1424 66.1967C64.3186 66.3047 64.5014 66.4015 64.6898 66.4865C64.7025 66.4894 64.7157 66.4894 64.7284 66.4865C64.7469 66.4862 64.765 66.4806 64.7804 66.4703C64.7958 66.46 64.8079 66.4455 64.8153 66.4285C64.8223 66.4165 64.8267 66.4031 64.828 66.3892C64.8293 66.3753 64.8276 66.3614 64.823 66.3482C64.8184 66.3351 64.8111 66.323 64.8014 66.313C64.7917 66.303 64.78 66.2952 64.767 66.2901V66.3126ZM66.493 66.6958C66.0975 66.7056 65.7034 66.6478 65.3273 66.5251C65.3153 66.5212 65.3026 66.5198 65.2899 66.5209C65.2773 66.522 65.2651 66.5257 65.2539 66.5318C65.2428 66.5378 65.233 66.546 65.2251 66.5559C65.2173 66.5659 65.2115 66.5773 65.2082 66.5895C65.201 66.6135 65.2034 66.6392 65.2148 66.6614C65.2262 66.6836 65.2457 66.7006 65.2694 66.7087C65.6362 66.8246 66.0181 66.8854 66.4028 66.889H66.4994C66.5119 66.889 66.5244 66.8865 66.5359 66.8816C66.5474 66.8767 66.5579 66.8695 66.5666 66.8605C66.5753 66.8515 66.5821 66.8408 66.5866 66.8291C66.5911 66.8174 66.5932 66.8049 66.5928 66.7924C66.5957 66.7778 66.5953 66.7627 66.5915 66.7482C66.5878 66.7338 66.5809 66.7204 66.5714 66.709C66.5618 66.6975 66.5498 66.6884 66.5362 66.6822C66.5227 66.676 66.5079 66.673 66.493 66.6733V66.6958ZM58.6813 63.2118L57.844 62.8415C57.8209 62.8316 57.7949 62.8311 57.7715 62.8401C57.748 62.8492 57.729 62.867 57.7185 62.8898C57.7131 62.9009 57.7099 62.9131 57.7093 62.9255C57.7086 62.9379 57.7104 62.9503 57.7146 62.962C57.7188 62.9737 57.7253 62.9845 57.7337 62.9936C57.7421 63.0028 57.7523 63.0102 57.7635 63.0153C58.0372 63.1377 58.3206 63.2633 58.6072 63.3856C58.6199 63.3888 58.6331 63.3888 58.6458 63.3856C58.6677 63.386 58.689 63.3786 58.706 63.3648C58.723 63.351 58.7346 63.3317 58.7388 63.3103C58.743 63.2888 58.7396 63.2665 58.7291 63.2474C58.7185 63.2282 58.7016 63.2133 58.6813 63.2053V63.2118ZM68.264 65.0117C68.2491 64.9916 68.2271 64.9781 68.2025 64.9739C68.1779 64.9697 68.1526 64.9752 68.1319 64.9892C68.1217 64.9963 68.1129 65.0053 68.1062 65.0159C68.0994 65.0264 68.0949 65.0381 68.0928 65.0504C68.0907 65.0627 68.0911 65.0754 68.0939 65.0875C68.0968 65.0997 68.102 65.1111 68.1094 65.1212C68.2204 65.2672 68.2844 65.4435 68.2929 65.6268C68.2933 65.709 68.2757 65.7903 68.2414 65.865C68.236 65.8762 68.2329 65.8884 68.2322 65.9008C68.2316 65.9132 68.2334 65.9256 68.2376 65.9373C68.2418 65.949 68.2483 65.9597 68.2567 65.9689C68.2651 65.978 68.2752 65.9854 68.2865 65.9906C68.3003 65.9939 68.3146 65.9939 68.3284 65.9906C68.3465 65.9902 68.3641 65.9849 68.3794 65.9753C68.3947 65.9656 68.4071 65.952 68.4153 65.9359C68.4602 65.8345 68.4833 65.7248 68.4829 65.6139C68.4712 65.3959 68.395 65.1863 68.264 65.0117ZM67.987 66.1742C67.8749 66.2623 67.7528 66.3368 67.6232 66.3963C67.4478 66.4836 67.2631 66.5506 67.0726 66.596C67.0479 66.6021 67.0266 66.6177 67.0133 66.6394C67.0001 66.6611 66.9959 66.6871 67.0017 66.7119C67.0069 66.7326 67.0189 66.7509 67.0359 66.7638C67.0529 66.7767 67.0738 66.7834 67.0951 66.7827H67.1176C67.3212 66.7321 67.5188 66.6597 67.7069 66.567C67.849 66.5012 67.983 66.4191 68.1062 66.3223C68.1153 66.3136 68.1226 66.3031 68.1276 66.2914C68.1326 66.2798 68.1352 66.2673 68.1352 66.2547C68.1352 66.242 68.1326 66.2295 68.1276 66.2179C68.1226 66.2062 68.1153 66.1958 68.1062 66.187C68.0917 66.1723 68.0726 66.163 68.0521 66.1607C68.0316 66.1583 68.0109 66.1631 67.9935 66.1742H67.987ZM66.8311 63.8912L66.0389 63.4629C66.0167 63.4514 65.9908 63.4489 65.9667 63.4561C65.9427 63.4634 65.9224 63.4796 65.9101 63.5016C65.904 63.5125 65.9001 63.5246 65.8987 63.537C65.8973 63.5495 65.8985 63.5621 65.9021 63.5742C65.9057 63.5862 65.9117 63.5974 65.9197 63.607C65.9277 63.6167 65.9376 63.6246 65.9488 63.6304C66.2321 63.7817 66.4962 63.9202 66.7377 64.0554C66.7523 64.0601 66.7681 64.0601 66.7828 64.0554C66.7999 64.0561 66.8168 64.052 66.8316 64.0434C66.8465 64.0349 66.8586 64.0223 66.8665 64.0071C66.876 63.9874 66.8783 63.9651 66.873 63.9439C66.8677 63.9227 66.8551 63.9041 66.8375 63.8912H66.8311ZM62.7642 65.06C62.7424 65.0469 62.7163 65.043 62.6916 65.049C62.6669 65.055 62.6455 65.0706 62.6322 65.0922C62.6258 65.1028 62.6215 65.1145 62.6197 65.1267C62.6178 65.1389 62.6184 65.1514 62.6214 65.1634C62.6244 65.1753 62.6297 65.1866 62.6371 65.1965C62.6445 65.2064 62.6538 65.2147 62.6644 65.221C62.9413 65.3917 63.1892 65.543 63.3985 65.6944C63.4154 65.699 63.4332 65.699 63.4501 65.6944C63.4658 65.6943 63.4814 65.6904 63.4954 65.6831C63.5093 65.6758 63.5214 65.6654 63.5306 65.6525C63.5443 65.6315 63.5492 65.6059 63.5444 65.5813C63.5396 65.5566 63.5254 65.5348 63.5048 65.5205C63.2987 65.3949 63.0508 65.2307 62.7706 65.06H62.7642ZM59.6537 58.5814C59.6703 58.5814 59.6866 58.5773 59.7013 58.5695C59.7159 58.5616 59.7283 58.5502 59.7374 58.5363C59.7497 58.5143 59.7532 58.4885 59.7472 58.464C59.7413 58.4395 59.7263 58.4182 59.7052 58.4043C59.427 58.2395 59.1388 58.0922 58.8423 57.9632C58.8309 57.9578 58.8185 57.9549 58.806 57.9544C58.7934 57.954 58.7809 57.9561 58.7692 57.9606C58.7575 57.9651 58.7468 57.9719 58.7377 57.9807C58.7287 57.9894 58.7216 57.9999 58.7167 58.0115C58.7114 58.0228 58.7084 58.0352 58.7079 58.0477C58.7075 58.0603 58.7096 58.0728 58.7141 58.0845C58.7186 58.0962 58.7254 58.1069 58.7342 58.116C58.7429 58.125 58.7534 58.1322 58.765 58.137C59.054 58.2628 59.3347 58.4069 59.6054 58.5685C59.6218 58.5785 59.641 58.583 59.6601 58.5814H59.6537ZM59.9467 63.7334C59.6601 63.6143 59.3768 63.4983 59.0998 63.3792C59.0763 63.3695 59.05 63.3695 59.0265 63.3792C59.003 63.3888 58.9842 63.4073 58.9743 63.4307C58.9691 63.4421 58.9663 63.4544 58.9661 63.4668C58.9659 63.4793 58.9683 63.4917 58.9732 63.5032C58.978 63.5147 58.9852 63.5251 58.9942 63.5337C59.0033 63.5423 59.014 63.5489 59.0258 63.5531L59.8726 63.9073C59.8843 63.9101 59.8964 63.9101 59.9081 63.9073C59.9302 63.9084 59.9521 63.9017 59.9697 63.8882C59.9874 63.8746 59.9996 63.8553 60.0043 63.8336C60.0089 63.8119 60.0057 63.7892 59.9951 63.7697C59.9846 63.7501 59.9674 63.735 59.9467 63.727V63.7334ZM62.381 64.8507C62.1331 64.7091 61.8755 64.577 61.5986 64.445C61.5762 64.4347 61.5508 64.4333 61.5275 64.4411C61.5041 64.4488 61.4847 64.4652 61.473 64.4869C61.4619 64.5099 61.4604 64.5364 61.4689 64.5606C61.4773 64.5847 61.495 64.6046 61.5181 64.6157C61.7885 64.7477 62.0429 64.8765 62.2909 65.015C62.3055 65.0196 62.3213 65.0196 62.3359 65.015C62.3529 65.015 62.3696 65.0105 62.3843 65.002C62.399 64.9936 62.4112 64.9813 62.4197 64.9667C62.4261 64.9561 62.4303 64.9444 62.4322 64.9322C62.434 64.92 62.4334 64.9075 62.4304 64.8955C62.4275 64.8836 62.4221 64.8723 62.4147 64.8624C62.4074 64.8525 62.3981 64.8442 62.3875 64.8379L62.381 64.8507ZM61.1961 64.2583C61.0705 64.2003 60.9352 64.1423 60.7936 64.0844L60.3685 63.9073C60.3461 63.9022 60.3227 63.9054 60.3024 63.9161C60.282 63.9268 60.2662 63.9443 60.2577 63.9657C60.2492 63.987 60.2485 64.0106 60.2558 64.0324C60.2632 64.0541 60.278 64.0726 60.2977 64.0844L60.7195 64.2583C60.858 64.3162 60.9932 64.3742 61.1188 64.4321C61.1315 64.435 61.1447 64.435 61.1574 64.4321C61.1761 64.4327 61.1946 64.4274 61.2102 64.417C61.2257 64.4066 61.2377 64.3917 61.2444 64.3742C61.2504 64.363 61.2541 64.3508 61.2553 64.3382C61.2564 64.3256 61.255 64.3128 61.2511 64.3008C61.2472 64.2887 61.2409 64.2776 61.2325 64.2681C61.2241 64.2586 61.2139 64.2508 61.2025 64.2454L61.1961 64.2583Z" fill="white"/>
<path d="M82.2162 82.1099C82.0488 82.0487 81.8942 81.9843 81.7332 81.9199C81.5722 81.8555 81.4337 81.7879 81.2695 81.7074C81.2583 81.702 81.2462 81.6988 81.2338 81.6982C81.2214 81.6975 81.209 81.6993 81.1973 81.7035C81.1856 81.7077 81.1748 81.7142 81.1657 81.7226C81.1565 81.731 81.1491 81.7412 81.1439 81.7524C81.1326 81.7751 81.1307 81.8013 81.1385 81.8254C81.1464 81.8495 81.1633 81.8696 81.1858 81.8812C81.3532 81.9617 81.5078 82.0326 81.6591 82.0938C81.8105 82.1549 81.9811 82.2258 82.1518 82.2902H82.184C82.2037 82.2896 82.2228 82.2831 82.2388 82.2716C82.2549 82.2602 82.2672 82.2442 82.2742 82.2258C82.2806 82.2027 82.2782 82.1781 82.2675 82.1567C82.2568 82.1352 82.2385 82.1186 82.2162 82.1099ZM82.1776 78.3038C82.176 78.279 82.1652 78.2557 82.1473 78.2385C82.1295 78.2212 82.1058 78.2112 82.081 78.2104C81.6879 78.2192 81.297 78.271 80.9153 78.365C80.8906 78.3711 80.8693 78.3867 80.8561 78.4084C80.8428 78.4301 80.8387 78.4562 80.8445 78.4809C80.8506 78.5011 80.8629 78.5188 80.8797 78.5315C80.8964 78.5442 80.9168 78.5513 80.9379 78.5518H80.9604C81.3285 78.4617 81.7053 78.412 82.0842 78.4037C82.0973 78.4037 82.1103 78.401 82.1223 78.3957C82.1343 78.3905 82.1451 78.3827 82.1539 78.373C82.1627 78.3633 82.1694 78.3518 82.1734 78.3393C82.1775 78.3268 82.1789 78.3137 82.1776 78.3006V78.3038ZM83.7199 82.5961C83.3786 82.4931 83.0437 82.3868 82.725 82.2741C82.7129 82.2701 82.7002 82.2684 82.6875 82.2693C82.6748 82.2702 82.6625 82.2736 82.6511 82.2793C82.6397 82.285 82.6296 82.2928 82.6213 82.3024C82.6129 82.3121 82.6066 82.3232 82.6026 82.3353C82.5986 82.3471 82.597 82.3596 82.598 82.3721C82.5989 82.3845 82.6023 82.3967 82.608 82.4078C82.6137 82.4189 82.6216 82.4287 82.6312 82.4367C82.6408 82.4447 82.6518 82.4508 82.6638 82.4544C82.9858 82.5639 83.3078 82.6669 83.6652 82.7764H83.6942C83.7144 82.776 83.734 82.7692 83.7501 82.7571C83.7663 82.745 83.7783 82.7281 83.7843 82.7088C83.7903 82.6853 83.7869 82.6604 83.7749 82.6394C83.7629 82.6184 83.7432 82.6029 83.7199 82.5961ZM80.8219 81.4691C80.5248 81.3087 80.2425 81.1223 79.9783 80.912C79.9608 80.8945 79.937 80.8847 79.9123 80.8847C79.8875 80.8847 79.8638 80.8945 79.8463 80.912C79.8371 80.9208 79.8298 80.9312 79.8248 80.9429C79.8199 80.9545 79.8173 80.967 79.8173 80.9797C79.8173 80.9923 79.8199 81.0048 79.8248 81.0164C79.8298 81.0281 79.8371 81.0385 79.8463 81.0473C80.1185 81.2647 80.4094 81.4576 80.7157 81.6237C80.7303 81.6283 80.7461 81.6283 80.7608 81.6237C80.7777 81.6233 80.7942 81.6188 80.8089 81.6103C80.8235 81.6019 80.8358 81.5898 80.8445 81.5753C80.8525 81.557 80.8547 81.5366 80.8507 81.517C80.8466 81.4974 80.8366 81.4795 80.8219 81.4659V81.4691ZM83.8294 78.3521C83.4461 78.2837 83.059 78.2386 82.6702 78.2169C82.6575 78.216 82.6448 78.2177 82.6327 78.2217C82.6207 78.2258 82.6095 78.2322 82.6 78.2406C82.5904 78.2489 82.5826 78.2591 82.5769 78.2705C82.5713 78.2819 82.568 78.2944 82.5672 78.3071C82.5671 78.3319 82.5762 78.356 82.5929 78.3744C82.6096 78.3929 82.6326 78.4045 82.6573 78.4069C83.0385 78.4288 83.418 78.4729 83.794 78.5389C83.8166 78.5393 83.8386 78.5319 83.8563 78.5177C83.8739 78.5036 83.8861 78.4838 83.8906 78.4616C83.8942 78.4387 83.8898 78.4153 83.8781 78.3953C83.8663 78.3753 83.848 78.3601 83.8262 78.3521H83.8294ZM85.214 83.0501L84.2673 82.7539L84.2062 82.7345C84.1941 82.7306 84.1814 82.7292 84.1688 82.7303C84.1562 82.7315 84.1439 82.7351 84.1328 82.7412C84.1216 82.7472 84.1118 82.7554 84.1039 82.7654C84.0961 82.7753 84.0903 82.7867 84.087 82.799C84.0808 82.8233 84.084 82.849 84.0959 82.8711C84.1079 82.8932 84.1277 82.91 84.1514 82.9181L84.2126 82.9342L85.1561 83.2176H85.1818C85.2039 83.2163 85.2249 83.2076 85.2414 83.1927C85.2578 83.1778 85.2686 83.1578 85.272 83.1359C85.2754 83.114 85.2711 83.0917 85.26 83.0725C85.2489 83.0534 85.2315 83.0386 85.2108 83.0308L85.214 83.0501ZM89.6705 81.5689C89.6884 81.5857 89.712 81.595 89.7365 81.595C89.761 81.595 89.7846 81.5857 89.8025 81.5689C89.8193 81.551 89.8286 81.5274 89.8286 81.5029C89.8286 81.4784 89.8193 81.4548 89.8025 81.4369C89.5127 81.2051 89.2229 80.9732 88.9363 80.751C88.9158 80.7357 88.8901 80.7291 88.8647 80.7327C88.8394 80.7363 88.8165 80.7499 88.8011 80.7703C88.7936 80.7802 88.7881 80.7915 88.785 80.8036C88.7819 80.8156 88.7812 80.8281 88.783 80.8404C88.7848 80.8527 88.789 80.8645 88.7955 80.8752C88.8019 80.8858 88.8104 80.8951 88.8204 80.9024C89.0909 81.1084 89.3775 81.3371 89.6673 81.5689H89.6705ZM79.315 79.8816C79.3151 79.8253 79.3215 79.7691 79.3343 79.7142C79.3377 79.7021 79.3386 79.6895 79.337 79.6771C79.3354 79.6647 79.3314 79.6527 79.3251 79.6419C79.3187 79.6311 79.3103 79.6216 79.3003 79.6142C79.2903 79.6067 79.2788 79.6013 79.2667 79.5983C79.242 79.5933 79.2163 79.5978 79.1948 79.6109C79.1733 79.6241 79.1576 79.6449 79.1508 79.6691C79.1343 79.7388 79.1257 79.8101 79.125 79.8816C79.1426 80.185 79.2669 80.4725 79.476 80.6931C79.4955 80.7131 79.5221 80.7247 79.55 80.7253C79.5686 80.7259 79.5869 80.721 79.6027 80.7112C79.6184 80.7014 79.6309 80.6871 79.6385 80.6702C79.6461 80.6533 79.6485 80.6344 79.6454 80.6162C79.6422 80.5979 79.6337 80.5809 79.6209 80.5675C79.4391 80.3832 79.3294 80.1399 79.3118 79.8816H79.315ZM85.5199 78.7868C85.1561 78.6645 84.7761 78.5582 84.3994 78.4648C84.3871 78.4615 84.3743 78.4607 84.3617 78.4625C84.3491 78.4643 84.337 78.4686 84.3261 78.4752C84.3153 78.4819 84.3059 78.4907 84.2985 78.5011C84.2912 78.5114 84.2861 78.5232 84.2834 78.5357C84.2787 78.5604 84.2837 78.586 84.2976 78.6071C84.3114 78.6281 84.3329 78.643 84.3575 78.6484C84.7278 78.7353 85.0981 78.8416 85.4587 78.9704H85.4909C85.513 78.9692 85.5341 78.9604 85.5505 78.9455C85.5669 78.9307 85.5777 78.9106 85.5811 78.8887C85.5845 78.8669 85.5803 78.8445 85.5691 78.8253C85.558 78.8062 85.5406 78.7915 85.5199 78.7836V78.7868ZM92.3528 83.4558C92.6232 83.6007 92.8808 83.7295 93.1256 83.8519C93.1394 83.8548 93.1536 83.8548 93.1674 83.8519C93.1853 83.8522 93.2028 83.8475 93.2182 83.8384C93.2335 83.8293 93.246 83.8161 93.2544 83.8004C93.2648 83.7776 93.2664 83.7516 93.2586 83.7278C93.2509 83.7039 93.2344 83.6838 93.2125 83.6716C92.9678 83.5524 92.7102 83.4236 92.4429 83.2787C92.4319 83.2699 92.419 83.2637 92.4053 83.2604C92.3915 83.2571 92.3772 83.2569 92.3634 83.2598C92.3495 83.2626 92.3365 83.2684 92.3252 83.2769C92.3138 83.2853 92.3045 83.2961 92.2978 83.3086C92.2911 83.321 92.2872 83.3348 92.2864 83.3489C92.2856 83.363 92.2879 83.3771 92.2931 83.3902C92.2984 83.4033 92.3064 83.4151 92.3167 83.4248C92.327 83.4345 92.3393 83.4418 92.3528 83.4462V83.4558ZM87.468 79.9332C87.7482 80.1103 88.0412 80.3163 88.3664 80.5546C88.3833 80.5668 88.4035 80.5735 88.4244 80.5739C88.4394 80.5739 88.4542 80.5704 88.4676 80.5637C88.481 80.557 88.4926 80.5473 88.5016 80.5353C88.509 80.5252 88.5143 80.5137 88.5171 80.5016C88.52 80.4894 88.5204 80.4768 88.5183 80.4645C88.5162 80.4522 88.5116 80.4404 88.5049 80.4299C88.4982 80.4194 88.4894 80.4103 88.4791 80.4033C88.1571 80.1585 87.8512 79.9525 87.5678 79.7593C87.5576 79.7523 87.5461 79.7475 87.5339 79.7451C87.5217 79.7428 87.5092 79.743 87.4971 79.7457C87.485 79.7484 87.4736 79.7536 87.4637 79.7609C87.4537 79.7682 87.4453 79.7775 87.439 79.7882C87.4296 79.7988 87.4226 79.8114 87.4187 79.825C87.4148 79.8387 87.4141 79.853 87.4166 79.867C87.4191 79.881 87.4247 79.8942 87.4331 79.9056C87.4414 79.9171 87.4523 79.9265 87.4648 79.9332H87.468ZM79.4921 79.3439C79.5055 79.3437 79.5187 79.3408 79.5309 79.3352C79.5431 79.3297 79.554 79.3217 79.5629 79.3117C79.6736 79.1893 79.7991 79.0811 79.9364 78.9897C80.0897 78.8836 80.2538 78.794 80.4259 78.7224C80.4375 78.7175 80.4479 78.7104 80.4567 78.7014C80.4654 78.6923 80.4722 78.6816 80.4767 78.6699C80.4813 78.6582 80.4834 78.6457 80.4829 78.6331C80.4825 78.6206 80.4795 78.6082 80.4742 78.5968C80.4696 78.5854 80.4628 78.575 80.4541 78.5663C80.4453 78.5576 80.4349 78.5507 80.4235 78.5462C80.412 78.5417 80.3997 78.5395 80.3874 78.5399C80.3751 78.5404 80.363 78.5433 80.3518 78.5486C80.169 78.6255 79.9942 78.7204 79.8302 78.8319C79.6812 78.932 79.544 79.0487 79.4212 79.1797C79.4035 79.1977 79.3936 79.222 79.3936 79.2473C79.3936 79.2726 79.4035 79.2969 79.4212 79.3149C79.4297 79.3244 79.4402 79.3319 79.4518 79.3369C79.4635 79.3419 79.4762 79.3443 79.4889 79.3439H79.4921ZM94.7517 84.6118C94.7426 84.6033 94.7319 84.5968 94.7203 84.5924C94.7086 84.5881 94.6963 84.5861 94.6839 84.5866C94.6714 84.587 94.6592 84.5899 94.6479 84.5951C94.6367 84.6002 94.6265 84.6075 94.618 84.6166C94.6096 84.6257 94.603 84.6364 94.5987 84.648C94.5943 84.6597 94.5923 84.672 94.5928 84.6845C94.5932 84.6969 94.5961 84.7091 94.6013 84.7204C94.6064 84.7316 94.6138 84.7418 94.6229 84.7503C94.7318 84.8323 94.8229 84.9358 94.8904 85.0543C94.958 85.1728 95.0006 85.3038 95.0157 85.4393C95.0157 85.4518 95.0182 85.464 95.0231 85.4754C95.0281 85.4868 95.0353 85.497 95.0443 85.5055C95.0534 85.514 95.0641 85.5205 95.0758 85.5246C95.0875 85.5287 95.0999 85.5304 95.1123 85.5295C95.1379 85.5271 95.1617 85.5152 95.179 85.4961C95.1963 85.477 95.2058 85.4522 95.2057 85.4265C95.1898 85.2665 95.1409 85.1115 95.0622 84.9713C94.9836 84.8311 94.8767 84.7087 94.7484 84.6118H94.7517ZM93.4637 86.4794C93.0658 86.5135 92.6651 86.4863 92.2755 86.3989C92.2526 86.3979 92.23 86.4051 92.2119 86.4192C92.1938 86.4333 92.1813 86.4534 92.1767 86.4758C92.172 86.4983 92.1755 86.5217 92.1866 86.5418C92.1976 86.5619 92.2154 86.5775 92.2368 86.5857C92.5321 86.6494 92.8331 86.6829 93.1352 86.6855C93.2514 86.6856 93.3675 86.6792 93.483 86.6662C93.5077 86.6636 93.5305 86.6513 93.5462 86.632C93.5619 86.6127 93.5693 86.5879 93.5667 86.5631C93.5641 86.5384 93.5518 86.5156 93.5325 86.4999C93.5132 86.4842 93.4884 86.4768 93.4637 86.4794ZM92.063 83.0759C91.8086 82.9277 91.5703 82.7796 91.3385 82.6186C91.3282 82.6097 91.3162 82.6031 91.3032 82.5991C91.2902 82.5951 91.2766 82.594 91.2631 82.5956C91.2496 82.5973 91.2367 82.6018 91.225 82.6088C91.2134 82.6159 91.2034 82.6253 91.1957 82.6364C91.1879 82.6476 91.1826 82.6602 91.1801 82.6736C91.1776 82.6869 91.1779 82.7006 91.1811 82.7139C91.1842 82.7271 91.1901 82.7395 91.1984 82.7502C91.2066 82.761 91.2171 82.7699 91.229 82.7764C91.4673 82.9374 91.7088 83.0984 91.9696 83.2401C91.9853 83.2453 92.0022 83.2453 92.0179 83.2401C92.0345 83.2406 92.0509 83.2363 92.0652 83.2277C92.0795 83.2192 92.091 83.2067 92.0984 83.1918C92.1072 83.1714 92.1085 83.1485 92.102 83.1273C92.0955 83.1061 92.0817 83.0878 92.063 83.0759ZM91.6862 86.2379C91.4954 86.1745 91.3084 86.1003 91.1259 86.0157C90.9939 85.9546 90.8651 85.8869 90.7331 85.8161C90.7107 85.8053 90.685 85.8033 90.6612 85.8105C90.6374 85.8176 90.6171 85.8334 90.6043 85.8547C90.5981 85.8657 90.5943 85.8777 90.5929 85.8902C90.5915 85.9027 90.5926 85.9153 90.5962 85.9273C90.5999 85.9394 90.6059 85.9505 90.6139 85.9602C90.6219 85.9698 90.6318 85.9778 90.6429 85.9835C90.7782 86.0576 90.9134 86.1252 91.0454 86.1864C91.2343 86.2742 91.4278 86.3516 91.625 86.4182H91.654C91.6741 86.4191 91.6938 86.4132 91.7102 86.4015C91.7265 86.3899 91.7385 86.3731 91.7442 86.3538C91.7505 86.3312 91.748 86.307 91.7372 86.2861C91.7265 86.2653 91.7083 86.2492 91.6862 86.2411V86.2379ZM94.3234 84.4927C94.3392 84.4925 94.3547 84.4887 94.3687 84.4814C94.3827 84.4741 94.3947 84.4636 94.4039 84.4508C94.4111 84.4405 94.4162 84.4289 94.4188 84.4166C94.4214 84.4043 94.4215 84.3917 94.4191 84.3793C94.4167 84.367 94.4118 84.3553 94.4048 84.3449C94.3977 84.3345 94.3887 84.3256 94.3781 84.3188C94.2503 84.2317 94.1181 84.1511 93.9821 84.0773C93.8565 84.0097 93.7277 83.942 93.5957 83.8776C93.5845 83.8716 93.5723 83.8679 93.5597 83.8667C93.5471 83.8656 93.5343 83.867 93.5223 83.8709C93.5102 83.8748 93.4991 83.8812 93.4896 83.8895C93.4801 83.8979 93.4723 83.9081 93.4669 83.9195C93.4566 83.9418 93.4551 83.9673 93.4629 83.9906C93.4707 84.0139 93.4871 84.0334 93.5087 84.0451C93.6408 84.1127 93.7663 84.1771 93.8887 84.2447C94.0272 84.322 94.156 84.3993 94.2719 84.4798C94.2874 84.4895 94.3051 84.495 94.3234 84.4959V84.4927ZM94.8708 85.8064C94.779 85.9181 94.6704 86.0148 94.5488 86.093C94.386 86.2018 94.2095 86.2884 94.0239 86.3506C94.0007 86.36 93.9818 86.3778 93.971 86.4005C93.9603 86.4231 93.9585 86.449 93.966 86.473C93.9726 86.4917 93.9848 86.5079 94.0009 86.5194C94.017 86.5309 94.0363 86.5372 94.0561 86.5374H94.0851C94.2887 86.4706 94.4817 86.3752 94.6583 86.254C94.7936 86.1661 94.9142 86.0574 95.0157 85.932C95.0314 85.9119 95.0386 85.8864 95.0355 85.8611C95.0325 85.8357 95.0196 85.8126 94.9996 85.7968C94.9801 85.7833 94.9564 85.7771 94.9328 85.7795C94.9092 85.7819 94.8872 85.7925 94.8708 85.8096V85.8064ZM90.3467 85.5971C90.1084 85.4554 89.8573 85.3009 89.59 85.1335C89.5798 85.1265 89.5682 85.1216 89.5561 85.1193C89.5439 85.117 89.5314 85.1172 89.5193 85.1199C89.5072 85.1226 89.4958 85.1278 89.4858 85.1351C89.4758 85.1424 89.4674 85.1517 89.4612 85.1624C89.4541 85.1729 89.4493 85.1847 89.4469 85.1971C89.4445 85.2095 89.4447 85.2223 89.4474 85.2346C89.4501 85.247 89.4553 85.2587 89.4627 85.2689C89.47 85.2792 89.4794 85.2879 89.4902 85.2945C89.7574 85.4619 90.0086 85.6164 90.2501 85.7613C90.2659 85.7657 90.2826 85.7657 90.2984 85.7613C90.315 85.7614 90.3314 85.7573 90.346 85.7494C90.3606 85.7415 90.373 85.7302 90.3821 85.7163C90.3898 85.6957 90.3904 85.6733 90.384 85.6523C90.3776 85.6314 90.3645 85.6131 90.3467 85.6003V85.5971ZM87.0913 79.4791C86.9238 79.3825 86.7596 79.2956 86.5986 79.2183C86.4408 79.141 86.2605 79.0605 86.0641 78.9832C86.0525 78.9786 86.0401 78.9764 86.0276 78.9766C86.0151 78.9769 86.0028 78.9796 85.9913 78.9847C85.9799 78.9898 85.9697 78.9972 85.9611 79.0063C85.9526 79.0155 85.946 79.0262 85.9417 79.038C85.9365 79.0493 85.9338 79.0616 85.9336 79.0741C85.9334 79.0866 85.9358 79.099 85.9406 79.1105C85.9455 79.122 85.9527 79.1324 85.9617 79.1409C85.9708 79.1495 85.9815 79.1561 85.9933 79.1603C86.1865 79.2376 86.3636 79.3149 86.5149 79.389C86.6662 79.463 86.8369 79.55 86.9979 79.6433C87.0126 79.648 87.0283 79.648 87.043 79.6433C87.0597 79.644 87.0763 79.6402 87.091 79.6323C87.1057 79.6243 87.1181 79.6126 87.1267 79.5983C87.1349 79.5778 87.1359 79.5551 87.1294 79.5341C87.123 79.513 87.1095 79.4947 87.0913 79.4823V79.4791ZM88.0573 84.2061L87.6644 83.9903C87.5228 83.9131 87.3618 83.8358 87.1879 83.7585C87.1658 83.753 87.1426 83.7555 87.1221 83.7654C87.1017 83.7754 87.0855 83.7923 87.0763 83.813C87.067 83.8338 87.0654 83.8571 87.0717 83.879C87.078 83.9008 87.0918 83.9197 87.1106 83.9324C87.2813 84.0065 87.4326 84.0837 87.5743 84.1578C87.716 84.2318 87.8383 84.3027 87.9639 84.3735C87.9788 84.3768 87.9941 84.3768 88.009 84.3735C88.026 84.3735 88.0426 84.3691 88.0573 84.3606C88.072 84.3521 88.0842 84.3399 88.0927 84.3252C88.1016 84.3055 88.1035 84.2833 88.0983 84.2623C88.093 84.2412 88.0809 84.2226 88.0637 84.2093L88.0573 84.2061ZM89.2068 84.8952C88.9685 84.747 88.7142 84.5925 88.4437 84.4315C88.4331 84.4251 88.4214 84.4208 88.4092 84.419C88.397 84.4171 88.3845 84.4177 88.3726 84.4207C88.3606 84.4237 88.3493 84.429 88.3394 84.4364C88.3295 84.4438 88.3212 84.4531 88.3149 84.4637C88.3018 84.4855 88.2978 84.5116 88.3038 84.5363C88.3099 84.561 88.3254 84.5824 88.3471 84.5957C88.6176 84.7535 88.8687 84.9177 89.107 85.0562C89.1228 85.0603 89.1395 85.0603 89.1553 85.0562C89.1719 85.0562 89.1883 85.0521 89.2029 85.0442C89.2175 85.0364 89.2299 85.025 89.239 85.0111C89.247 84.992 89.2487 84.9708 89.2441 84.9506C89.2395 84.9304 89.2287 84.9122 89.2133 84.8984L89.2068 84.8952ZM90.9231 82.5413C90.9379 82.541 90.9524 82.537 90.9654 82.5297C90.9783 82.5224 90.9892 82.512 90.9971 82.4995C91.0047 82.4896 91.0101 82.4783 91.0132 82.4663C91.0164 82.4542 91.017 82.4417 91.0152 82.4294C91.0134 82.4171 91.0092 82.4053 91.0028 82.3947C90.9964 82.384 90.9879 82.3748 90.9778 82.3675L90.6429 82.1099L90.2147 81.7653C90.1968 81.7486 90.1732 81.7393 90.1487 81.7393C90.1242 81.7393 90.1006 81.7486 90.0827 81.7653C90.0735 81.774 90.0662 81.7845 90.0612 81.7962C90.0563 81.8078 90.0537 81.8203 90.0537 81.8329C90.0537 81.8456 90.0563 81.8581 90.0612 81.8697C90.0662 81.8814 90.0735 81.8918 90.0827 81.9006L90.5141 82.2451C90.6301 82.3385 90.746 82.4286 90.8587 82.5124C90.8676 82.5224 90.8785 82.5304 90.8907 82.5359C90.9029 82.5415 90.9161 82.5444 90.9295 82.5446L90.9231 82.5413ZM86.6984 83.5556C86.4086 83.4429 86.0834 83.327 85.7067 83.2047C85.6823 83.1974 85.6561 83.1996 85.6334 83.211C85.6106 83.2224 85.5931 83.242 85.5843 83.2658C85.5771 83.2898 85.5795 83.3155 85.5909 83.3377C85.6023 83.36 85.6219 83.3769 85.6455 83.385C86.0222 83.5073 86.3442 83.6201 86.6308 83.7328H86.6662C86.6852 83.7326 86.7037 83.7267 86.7193 83.7157C86.7348 83.7048 86.7466 83.6894 86.7532 83.6716C86.7594 83.6501 86.758 83.6271 86.7492 83.6066C86.7404 83.586 86.7247 83.5692 86.7049 83.5589L86.6984 83.5556Z" fill="white"/>
<path d="M119.607 136.528C122.006 135.353 124.527 136.901 125.532 137.687C126.903 138.759 127.924 140.501 129.505 141.477C131.086 142.453 132.538 143.087 133.388 143.686C134.239 144.285 134.908 145.261 133.524 145.94C132.139 146.619 130.626 146.088 129.66 145.508C128.694 144.929 127.921 144.22 125.867 143.367C123.812 142.514 121.603 141.648 120.354 140.791C119.105 139.935 117.15 137.713 119.607 136.528Z" fill="#E0E0E0"/>
<path opacity="0.8" d="M93.5539 107.87C95.7209 106.811 97.9975 108.208 98.9055 108.92C100.145 109.886 101.066 111.46 102.496 112.342C103.925 113.225 105.236 113.785 106.006 114.339C106.775 114.893 107.381 115.762 106.125 116.374C104.869 116.986 103.504 116.506 102.644 115.984C101.784 115.463 101.073 114.825 99.2146 114.052C97.3567 113.279 95.3506 112.5 94.2333 111.727C93.1159 110.955 91.3353 108.955 93.5539 107.87Z" fill="#6EE327"/>
<path d="M122.891 126.224C120.859 127.608 123.535 129.064 124.9 129.643C126.758 130.436 129.776 131.025 131.463 131.936C133.15 132.847 134.229 133.688 135.291 134.19C136.354 134.692 138.019 135.066 139.194 134.267C140.369 133.469 139.448 132.593 138.447 132.042C137.446 131.492 136.225 131.038 134.738 129.85C133.25 128.661 131.759 127.389 130.281 126.668C128.803 125.947 124.971 124.813 122.891 126.224Z" fill="#E0E0E0"/>
<path d="M149.669 112.752L145.979 114.88L139.906 111.377V66.3352L135.858 63.9975L142.804 58.6587L146.491 56.5271L153.716 70.0479L150.026 72.1763L149.669 71.9702V112.752Z" fill="#6EE327"/>
<path opacity="0.8" d="M149.669 112.752L145.979 114.88L139.906 111.377V66.3352L135.858 63.9975L142.804 58.6587L146.491 56.5271L153.716 70.0479L150.026 72.1763L149.669 71.9702V112.752Z" fill="white"/>
<path d="M145.979 114.88L139.906 111.377V66.3352L135.858 63.9975L142.804 58.6587L150.026 72.1762L145.979 69.8385V114.88Z" fill="#6EE327"/>
<path opacity="0.7" d="M145.979 114.88L139.906 111.377V66.3352L135.858 63.9975L142.804 58.6587L150.026 72.1762L145.979 69.8385V114.88Z" fill="white"/>
<path d="M149.669 112.752L145.979 114.88V69.8386L149.669 71.9703V112.752Z" fill="#6EE327"/>
<path opacity="0.5" d="M149.669 112.752L145.979 114.88V69.8386L149.669 71.9703V112.752Z" fill="white"/>
<path d="M66.3964 134.873L69.9932 136.95L75.9148 133.53V102.872L79.8625 100.593L73.0908 95.386L69.4941 93.3091L62.4487 106.492L66.0455 108.569L66.3964 108.366V134.873Z" fill="#455A64"/>
<path d="M69.9931 136.95L75.9147 133.53V102.872L79.8624 100.593L73.0908 95.386L66.0454 108.569L69.9931 106.289V136.95Z" fill="#37474F"/>
<path d="M66.3965 134.873L69.9932 136.95V106.289L66.3965 108.366V134.873Z" fill="#263238"/>
<path d="M53.3715 134.18L56.0667 135.736L60.5038 133.173V116.058L63.463 114.352L58.3851 110.449L55.6899 108.894L50.4124 118.773L53.1075 120.328L53.3715 120.177V134.18Z" fill="#6EE327"/>
<path opacity="0.1" d="M53.1075 120.328L58.3851 110.449L55.6899 108.894L50.4124 118.773L53.1075 120.328Z" fill="white"/>
<path d="M56.0666 135.736L60.5038 133.173V116.058L63.4629 114.352L58.385 110.449L53.1074 120.328L56.0666 118.621V135.736Z" fill="#6EE327"/>
<path opacity="0.1" d="M56.0666 135.736L60.5038 133.173V116.058L63.4629 114.352L58.385 110.449L53.1074 120.328L56.0666 118.621V135.736Z" fill="#242923"/>
<path opacity="0.3" d="M53.3716 134.18L56.0667 135.736V118.621L53.3716 120.177V134.18Z" fill="#242923"/>
<path d="M12.3294 102.409V58.7327L11.7402 59.074L8.44287 57.1678L15.295 44.3425L18.6986 46.3067L25.1933 51.3042L21.4163 53.4841V101.06L15.7072 104.357L12.3294 102.409Z" fill="#F5F5F5"/>
<path d="M15.3917 44.671L18.5537 46.4968L24.7683 51.2753L21.4163 53.2073L21.1812 53.3457V100.921L15.7072 104.083L12.5581 102.27V58.3206L11.8432 58.7328L11.7305 58.7972L8.75202 57.0777L15.3917 44.671ZM15.2017 44.027L8.11768 57.2741L11.7337 59.3607L12.0847 59.1578V102.544L15.7008 104.631L21.6481 101.198V53.6226L25.6152 51.3332L18.8177 46.1007L15.2017 44.0142V44.027Z" fill="#E6E6E6"/>
<path d="M15.7073 104.631L21.6546 101.198V53.6228L25.6217 51.3333L18.8178 46.1008L11.7402 59.3479L15.7073 57.0585V104.631Z" fill="#EBEBEB"/>
<path d="M12.0911 102.544L15.7071 104.631V57.0583L12.0911 59.1449V102.544Z" fill="#E0E0E0"/>
<path d="M27.9787 98.5578V69.5295L27.4216 69.8515L24.3047 68.0515L30.7833 55.9282L33.9969 57.7862L40.1374 62.5067L36.5664 64.5707V97.2859L31.1697 100.403L27.9787 98.5578Z" fill="#F5F5F5"/>
<path d="M30.8702 56.2405L33.8583 57.9665L39.7348 62.4745L36.5663 64.3034L36.3442 64.4322V97.1474L31.1696 100.142L28.2008 98.429V69.127L27.5246 69.5166L27.4183 69.5778L24.6008 67.9517L30.8669 56.2277M30.6898 55.6062L24.0051 68.1384L27.4215 70.1091L27.7435 69.9191V98.6898L31.16 100.66L36.7821 97.4147V64.6995L40.5302 62.5356L34.0902 57.5897L30.6737 55.6191L30.6898 55.6062Z" fill="#E6E6E6"/>
<path d="M31.1697 100.661L36.7918 97.4148V64.6996L40.5399 62.5358L34.1096 57.5898L27.4216 70.1092L31.1697 67.9454V100.661Z" fill="#EBEBEB"/>
<path d="M27.7532 98.6899L31.1696 100.661V67.9453L27.7532 69.916V98.6899Z" fill="#E0E0E0"/>
<path d="M40.2501 114.004H20.2861L22.3502 122.608C22.5079 123.645 23.2711 124.659 24.646 125.451C27.7533 127.245 32.7894 127.245 35.8935 125.451C37.3747 124.598 38.1475 123.49 38.2119 122.37L40.2501 114.004Z" fill="#37474F"/>
<path d="M37.8062 119.903C38.2297 119.659 38.6315 119.379 39.0072 119.066L40.131 114.468C39.5476 115.11 38.8649 115.653 38.1088 116.078C33.8939 118.509 27.1415 118.57 22.7849 116.274L23.2936 114.226L23.1358 114.011H20.2861L22.3502 122.611C22.5079 123.648 23.2711 124.662 24.646 125.455C26.8582 126.743 30.0492 127.097 32.8248 126.553C27.8499 126.923 24.4335 124.749 23.9215 122.743C23.7187 121.942 23.3612 120.167 23.3612 120.167C27.5054 122.276 33.8359 122.193 37.8062 119.903Z" fill="#263238"/>
<path d="M41.2805 111.46C41.1661 112.018 40.9393 112.546 40.614 113.012C39.9607 113.937 39.1035 114.698 38.1088 115.237C33.7747 117.743 26.7422 117.743 22.4049 115.237C21.4112 114.701 20.5541 113.943 19.8997 113.022C19.5767 112.555 19.3511 112.027 19.2364 111.47C18.85 109.59 19.9094 107.629 22.4081 106.183C26.7454 103.678 33.7779 103.678 38.112 106.183C40.6075 107.619 41.6669 109.58 41.2805 111.46Z" fill="#455A64"/>
<path d="M40.6139 113.022C39.9607 113.946 39.1035 114.707 38.1087 115.247C33.7746 117.752 26.7421 117.752 22.4048 115.247C21.4101 114.707 20.5529 113.946 19.8996 113.022C19.5766 112.554 19.351 112.027 19.2363 111.47L19.729 114.854C19.9544 116.216 20.9687 117.546 22.7783 118.589C26.9128 120.972 33.6072 120.972 37.7417 118.589C39.5255 117.559 40.5398 116.245 40.7813 114.902L40.8071 114.729L41.2837 111.47C41.1683 112.027 40.9404 112.556 40.6139 113.022Z" fill="#37474F"/>
<path d="M36.8016 106.927C33.1855 104.84 27.3283 104.84 23.7155 106.927C21.6708 108.112 20.7853 109.706 21.0526 111.245C21.2586 112.426 22.1474 113.576 23.7155 114.465C27.3283 116.551 33.1855 116.551 36.8016 114.465C38.3665 113.56 39.2552 112.41 39.4613 111.245C39.7318 109.706 38.8463 108.112 36.8016 106.927Z" fill="#263238"/>
<path d="M21.6643 112.674C22.2049 113.422 22.9057 114.039 23.7154 114.481C27.3283 116.567 33.1855 116.567 36.8015 114.481C37.6113 114.039 38.312 113.422 38.8527 112.674C38.8269 111.425 37.9897 110.182 36.3378 109.229C32.9794 107.297 27.5344 107.297 24.1791 109.229C22.5401 110.182 21.6901 111.412 21.6643 112.674Z" fill="#FAFAFA"/>
<path d="M25.2385 80.7705L30.5097 86.1124L25.1838 82.8184C24.9708 84.6479 25.0798 86.5005 25.5058 88.2924C25.5058 88.2924 28.0818 90.2888 29.5211 91.9439L25.406 89.6995C25.406 89.6995 24.762 92.5138 25.406 97.0089C25.5798 98.1874 26.5941 100.519 27.2027 102.241C27.4804 103.038 27.8118 103.815 28.1945 104.566L28.2653 104.708C29.3236 104.264 30.4184 103.841 31.5497 103.439C32.4256 102.061 33.7715 98.5577 34.4477 95.6404C37.0785 84.467 29.2957 76.929 22.6851 73.9119C22.7076 73.9119 24.7104 77.1673 25.2385 80.7705Z" fill="#6EE327"/>
<path d="M30.0587 81.8428C31.1052 83.1855 31.6108 84.847 31.9521 86.4892C32.2812 88.1437 32.428 89.8292 32.39 91.5157C32.3511 94.8919 31.5136 98.2109 29.946 101.201C29.9354 101.22 29.9288 101.241 29.9265 101.263C29.9241 101.284 29.9262 101.306 29.9325 101.327C29.9388 101.348 29.9493 101.367 29.9632 101.384C29.9772 101.4 29.9943 101.414 30.0137 101.424C30.0521 101.444 30.0971 101.448 30.1388 101.436C30.1804 101.423 30.2153 101.394 30.2358 101.356C31.7704 98.3049 32.5615 94.9341 32.5446 91.5189C32.555 89.8219 32.38 88.1289 32.0229 86.4699C31.6623 84.8309 31.1278 83.1694 30.0587 81.8428Z" fill="white"/>
<path d="M49.34 87.262C49.2016 87.4616 46.9283 90.7363 43.6857 96.9992L37.4679 98.6092L42.182 98.986L40.0471 103.172L33.9549 105.03L38.8783 105.371C38.8783 105.371 37.9702 110.23 34.6923 112.526C32.8762 113.792 32.0454 113.895 31.3274 113.55C30.4483 113.131 29.9267 111.808 29.3954 109.815C28.8641 107.822 29.1957 103.661 30.7413 99.5108C31.1628 98.3987 31.7407 97.3524 32.4576 96.4035C36.5856 90.8651 45.0413 87.584 49.34 87.262Z" fill="#6EE327"/>
<path opacity="0.1" d="M49.34 87.262C49.2016 87.4616 46.9283 90.7363 43.6857 96.9992L37.4679 98.6092L42.182 98.986L40.0471 103.172L33.9549 105.03L38.8783 105.371C38.8783 105.371 37.9702 110.23 34.6923 112.526C32.8762 113.792 32.0454 113.895 31.3274 113.55C30.4483 113.131 29.9267 111.808 29.3954 109.815C28.8641 107.822 29.1957 103.661 30.7413 99.5108C31.1628 98.3987 31.7407 97.3524 32.4576 96.4035C36.5856 90.8651 45.0413 87.584 49.34 87.262Z" fill="#242923"/>
<path d="M42.9258 89.9346C39.796 91.6702 36.8883 93.9209 34.7084 96.8125C33.6007 98.2482 32.725 99.8486 32.1131 101.556C31.5303 103.266 31.2333 105.061 31.234 106.869C31.2306 106.87 31.2276 106.873 31.2256 106.876C31.2235 106.879 31.2224 106.883 31.2224 106.886C31.2224 106.89 31.2235 106.894 31.2256 106.897C31.2276 106.9 31.2306 106.902 31.234 106.904C31.2352 106.901 31.2358 106.899 31.2358 106.896C31.2358 106.893 31.2352 106.89 31.234 106.888C31.4086 105.112 31.8079 103.366 32.4222 101.691C33.033 100.019 33.8705 98.4396 34.9112 96.996C37.0107 94.098 39.8443 91.8022 42.9194 89.9829C42.9214 89.9814 42.923 89.9794 42.9241 89.9772C42.9252 89.975 42.9258 89.9725 42.9258 89.97C42.9258 89.9675 42.9252 89.965 42.9241 89.9628C42.923 89.9606 42.9214 89.9586 42.9194 89.9571C42.9228 89.9546 42.9253 89.951 42.9264 89.9469C42.9276 89.9429 42.9274 89.9385 42.9258 89.9346Z" fill="white"/>
<path d="M10.5166 86.1606C11.1435 86.2028 11.7672 86.2835 12.3842 86.4021C14.8137 86.8902 17.1736 87.6765 19.4102 88.7431C20.241 89.1327 21.0685 89.5642 21.88 90.0311C22.2857 90.2672 22.6871 90.5141 23.0843 90.7717C25.0453 92.0125 26.7864 93.5707 28.2363 95.3827C28.9077 96.2521 29.468 97.2018 29.9042 98.2099C29.959 98.3387 30.0201 98.4675 30.0717 98.5995C30.2037 98.9408 30.3196 99.2725 30.4291 99.6009C31.7171 103.317 31.643 105.812 31.3146 108.562C31.0602 110.694 30.1296 113.07 29.682 113.444C29.621 113.493 29.5539 113.534 29.4824 113.566C28.8384 113.904 27.8917 113.598 26.1626 112.433C22.7011 110.101 21.7029 104.837 21.7029 104.837L26.8227 104.399L20.4503 102.57L18.1577 98.2421L23.0746 97.7655L16.5766 96.207C13.0926 89.7445 10.6712 86.3764 10.523 86.1703L10.5166 86.1606Z" fill="#6EE327"/>
<path d="M12.3842 86.4023C14.8136 86.8903 17.1735 87.6766 19.4102 88.7432C20.241 89.1328 21.0685 89.5643 21.8799 90.0312C22.2857 90.2673 22.6871 90.5142 23.0842 90.7718C25.0453 92.0126 26.7864 93.5708 28.2362 95.3828C28.9077 96.2522 29.468 97.2019 29.9042 98.21C29.9589 98.3388 30.0201 98.4676 30.0716 98.5996C30.2036 98.9409 30.3196 99.2726 30.429 99.601C31.717 103.317 31.643 105.812 31.3145 108.562C31.0602 110.694 30.1296 113.07 29.682 113.444C29.6209 113.493 29.5538 113.534 29.4824 113.566C29.3536 113.631 29.2137 113.67 29.0702 113.682C29.7947 110.401 28.8609 101.861 26.6777 98.1971C24.4237 94.3879 18.7501 88.6659 10.5198 86.1704C11.1453 86.2106 11.7679 86.288 12.3842 86.4023Z" fill="#6EE327"/>
<path opacity="0.2" d="M12.3842 86.4023C14.8136 86.8903 17.1735 87.6766 19.4102 88.7432C20.241 89.1328 21.0685 89.5643 21.8799 90.0312C22.2857 90.2673 22.6871 90.5142 23.0842 90.7718C25.0453 92.0126 26.7864 93.5708 28.2362 95.3828C28.9077 96.2522 29.468 97.2019 29.9042 98.21C29.9589 98.3388 30.0201 98.4676 30.0716 98.5996C30.2036 98.9409 30.3196 99.2726 30.429 99.601C31.717 103.317 31.643 105.812 31.3145 108.562C31.0602 110.694 30.1296 113.07 29.682 113.444C29.6209 113.493 29.5538 113.534 29.4824 113.566C29.3536 113.631 29.2137 113.67 29.0702 113.682C29.7947 110.401 28.8609 101.861 26.6777 98.1971C24.4237 94.3879 18.7501 88.6659 10.5198 86.1704C11.1453 86.2106 11.7679 86.288 12.3842 86.4023Z" fill="#242923"/>
<path d="M29.096 113.682C29.4571 111.241 29.5015 108.764 29.228 106.311C28.9846 103.844 28.3578 101.43 27.37 99.1566C26.3074 96.9026 24.6717 94.9706 22.9039 93.2511C21.1057 91.5526 19.0881 90.1025 16.905 88.9395C16.9008 88.9366 16.8957 88.9351 16.8906 88.9351C16.8854 88.9351 16.8803 88.9366 16.8761 88.9395C16.8741 88.941 16.8724 88.943 16.8713 88.9452C16.8702 88.9474 16.8696 88.9499 16.8696 88.9524C16.8696 88.9549 16.8702 88.9574 16.8713 88.9596C16.8724 88.9618 16.8741 88.9638 16.8761 88.9653C18.9377 90.2911 20.8592 91.8231 22.6109 93.5377C23.4935 94.3813 24.3165 95.2851 25.0742 96.2425C25.8505 97.1801 26.5191 98.2018 27.0674 99.2886C28.0727 101.52 28.7245 103.895 28.9994 106.328C29.3272 108.763 29.3381 111.231 29.0316 113.669C29.0316 113.669 29.0316 113.688 29.0316 113.692C29.0329 113.7 29.0375 113.708 29.0444 113.713C29.0514 113.718 29.0601 113.72 29.0686 113.719C29.0771 113.718 29.0848 113.713 29.09 113.706C29.0951 113.699 29.0972 113.691 29.096 113.682Z" fill="white"/>
<path d="M85.2849 14.1679C86.7532 13.3178 88.7851 13.4402 91.0294 14.7346C95.5117 17.3106 99.147 23.6186 99.1438 28.7964C99.1438 31.3949 98.2293 33.2174 96.7513 34.0611C96.3649 34.28 94.8193 35.2171 94.4233 35.4425C92.955 36.2925 90.9264 36.1702 88.6852 34.8757C84.1998 32.2997 80.5676 25.9918 80.5676 20.814C80.5676 18.238 81.4757 16.409 82.944 15.5622" fill="#6EE327"/>
<path opacity="0.5" d="M85.2849 14.1679C86.7532 13.3178 88.7851 13.4402 91.0294 14.7346C95.5117 17.3106 99.147 23.6186 99.1438 28.7964C99.1438 31.3949 98.2293 33.2174 96.7513 34.0611C96.3649 34.28 94.8193 35.2171 94.4233 35.4425C92.955 36.2925 90.9264 36.1702 88.6852 34.8757C84.1998 32.2997 80.5676 25.9918 80.5676 20.814C80.5676 18.238 81.4757 16.409 82.944 15.5622" fill="white"/>
<path opacity="0.2" d="M97.9622 23.2258C98.7064 24.9874 99.1075 26.8748 99.1439 28.7868L88.6853 34.8661C87.0478 33.8778 85.6139 32.586 84.4607 31.0601L97.9622 23.2258Z" fill="white"/>
<path opacity="0.3" d="M84.4606 31.06C82.1261 28.0654 80.5676 24.195 80.5676 20.8043C80.5676 18.2283 81.4757 16.3994 82.944 15.5525L85.2849 14.1679C86.7532 13.3178 88.7851 13.4402 91.0294 14.7346C93.9628 16.4316 96.5356 19.716 97.9621 23.2354L84.4606 31.06Z" fill="white"/>
<path d="M88.6853 16.116C93.1675 18.7081 96.8029 25 96.8029 30.1777C96.8029 35.3555 93.1675 37.4549 88.6853 34.8661C84.203 32.2772 80.5612 25.9821 80.5676 20.8043C80.5741 15.6266 84.2062 13.5239 88.6853 16.116Z" fill="#6EE327"/>
<path d="M88.6852 18.4602C92.0469 20.3922 94.7742 25.1223 94.7742 29.0089C94.7742 32.8954 92.0469 34.4829 88.6852 32.5251C85.3235 30.5674 82.5962 25.8597 82.5962 21.9764C82.5962 18.0931 85.33 16.5153 88.6852 18.4602Z" fill="#FAFAFA"/>
<path d="M88.6854 20.6079C91.0295 21.9603 92.9293 25.2512 92.9293 27.9592C92.9293 30.6672 91.0263 31.762 88.6854 30.4064C86.3444 29.0508 84.4414 25.7599 84.4414 23.0423C84.4414 20.3246 86.3412 19.2362 88.6854 20.6079Z" fill="#6EE327"/>
<path d="M88.6853 22.7783C89.3689 23.2245 89.9377 23.8256 90.3455 24.5327C90.7534 25.2399 90.9888 26.0332 91.0327 26.8484C91.0327 28.3457 89.983 28.9543 88.6853 28.204C88.0032 27.7597 87.4351 27.1614 87.0268 26.4572C86.6185 25.753 86.3814 24.9627 86.3347 24.15C86.3347 22.6366 87.3877 22.0313 88.6853 22.7783Z" fill="#FAFAFA"/>
<path d="M88.6854 24.3462C88.9738 24.5343 89.2139 24.7877 89.3862 25.0859C89.5585 25.3841 89.6582 25.7186 89.6771 26.0625C89.6771 26.7065 89.2328 26.9512 88.6854 26.6356C88.3969 26.4475 88.1568 26.1941 87.9845 25.896C87.8122 25.5978 87.7125 25.2632 87.6936 24.9194C87.6936 24.2883 88.138 24.0307 88.6854 24.3462Z" fill="#6EE327"/>
<path d="M77.2801 32.0808C77.2801 32.0808 77.0804 34.5828 75.9244 35.2493C74.7685 35.9158 74.1438 33.8905 74.8908 33.459L77.2801 32.0808Z" fill="#37474F"/>
<path d="M77.2799 32.0808C77.2799 32.0808 75.0259 31.0021 73.8602 31.6686C72.6946 32.3351 74.1436 33.8904 74.8906 33.4589L77.2799 32.0808Z" fill="#455A64"/>
<path d="M86.283 27.1767L73.197 34.734L72.9458 34.2897L86.3217 26.5681L86.283 27.1767Z" fill="#263238"/>
<path d="M73.5061 33.7906C73.6341 33.8644 73.7372 33.9746 73.8026 34.1071C73.8679 34.2396 73.8925 34.3885 73.8732 34.535C73.8539 34.6814 73.7916 34.8189 73.6942 34.93C73.5969 35.0411 73.4687 35.1208 73.326 35.159C73.1833 35.1973 73.0325 35.1924 72.8926 35.1449C72.7527 35.0975 72.63 35.0096 72.54 34.8924C72.4501 34.7753 72.3968 34.634 72.3871 34.4866C72.3774 34.3392 72.4116 34.1922 72.4854 34.0643C72.5344 33.9792 72.5997 33.9047 72.6776 33.845C72.7554 33.7852 72.8443 33.7413 72.9391 33.7159C73.0339 33.6905 73.1327 33.684 73.23 33.6968C73.3273 33.7096 73.4212 33.7415 73.5061 33.7906Z" fill="#263238"/>
<path d="M86.0255 27.019C85.5489 27.663 86.4151 28.7449 86.4151 28.7449L88.6691 25.4927L86.0255 27.019Z" fill="#6EE327"/>
<path d="M86.0255 27.019C85.5489 27.663 86.4151 28.7449 86.4151 28.7449L88.6691 25.4927L86.0255 27.019Z" fill="#37474F"/>
<path d="M84.7278 25.8211C84.7278 25.8211 85.2398 27.1091 86.0158 27.019L88.6626 25.4927L84.7278 25.8211Z" fill="#455A64"/>
<path d="M93.3445 35.3749C93.838 36.1739 94.5146 36.8438 95.3183 37.3294C96.2148 37.852 97.2405 38.1109 98.2775 38.0765C98.3259 38.0765 98.3736 38.0644 98.416 38.0411C98.5738 37.9445 100.718 36.7144 100.757 36.6919C100.798 36.6685 100.832 36.6347 100.855 36.594C100.879 36.5533 100.891 36.5071 100.891 36.46C100.891 36.413 100.879 36.3668 100.855 36.3261C100.832 36.2854 100.798 36.2516 100.757 36.2282C100.075 35.8579 99.4941 35.3267 99.0643 34.6808C98.6344 34.0349 98.3688 33.2938 98.2904 32.522L93.3445 35.3749Z" fill="#6EE327"/>
<path opacity="0.3" d="M93.3445 35.3749C93.838 36.1739 94.5146 36.8438 95.3183 37.3294C96.2148 37.852 97.2405 38.1109 98.2775 38.0765C98.3259 38.0765 98.3736 38.0644 98.416 38.0411C98.5738 37.9445 100.718 36.7144 100.757 36.6919C100.798 36.6685 100.832 36.6347 100.855 36.594C100.879 36.5533 100.891 36.5071 100.891 36.46C100.891 36.413 100.879 36.3668 100.855 36.3261C100.832 36.2854 100.798 36.2516 100.757 36.2282C100.075 35.8579 99.4941 35.3267 99.0643 34.6808C98.6344 34.0349 98.3688 33.2938 98.2904 32.522L93.3445 35.3749Z" fill="white"/>
<path d="M95.9722 32.6895C95.8296 33.6553 95.9869 34.6416 96.4228 35.5151C96.8587 36.3887 97.5523 37.1074 98.4097 37.5742C98.4599 37.6043 98.499 37.6499 98.5211 37.7041C98.5431 37.7583 98.547 37.8183 98.5321 37.8749C98.5173 37.9315 98.4844 37.9818 98.4385 38.0181C98.3926 38.0545 98.3362 38.075 98.2777 38.0765C97.2397 38.1103 96.2131 37.8515 95.3153 37.3295C93.2191 35.9996 92.9583 34.4315 92.9583 34.4315L95.9722 32.6895Z" fill="#6EE327"/>
<path d="M132.255 116.323C131.824 115.067 131.592 111.985 131.154 108.659L124.562 110.243C124.562 110.243 127.071 117.875 127.374 118.631C127.873 119.877 132.255 116.323 132.255 116.323Z" fill="#FFBDA7"/>
<path d="M133.788 117.933C133.673 117.363 133.424 116.828 133.06 116.374C132.912 116.207 132.755 116.048 132.59 115.898C132.436 115.669 132.317 115.42 132.236 115.157C132.198 115.06 132.146 114.969 132.081 114.887C131.964 114.766 131.812 114.684 131.647 114.651C130.925 114.458 130.162 114.651 129.47 114.932C128.514 115.272 127.65 115.83 126.945 116.561C126.829 116.674 126.749 116.819 126.714 116.977C126.679 117.136 126.691 117.301 126.749 117.453C126.884 118.023 127.393 120.29 127.371 120.834C127.4 121.566 127.284 122.298 127.029 122.985C126.951 123.206 126.856 123.422 126.746 123.629C126.676 123.76 126.573 123.871 126.446 123.948C126.319 124.026 126.173 124.068 126.025 124.07C125.215 124.085 124.419 124.28 123.693 124.64C123.335 124.794 123.04 125.067 122.86 125.413C122.68 125.76 122.625 126.158 122.705 126.54C122.705 126.54 122.846 127.445 124.202 128.25C124.978 128.71 126.81 129.251 127.953 128.894C128.034 128.861 128.108 128.836 128.182 128.8C129.435 128.211 132.532 126.678 132.561 126.45C132.561 126.45 132.561 126.424 132.561 126.411C132.619 125.67 132.693 124.933 132.767 124.196C132.824 123.644 132.909 123.096 133.022 122.553C133.073 122.318 133.115 122.083 133.15 121.839C133.308 120.853 133.801 118.055 133.788 117.933Z" fill="#455A64"/>
<path d="M134.21 118.432C134.754 118.699 134.322 120.431 133.849 121.652C133.276 123.126 133.038 123.358 133.118 124.649C133.199 125.941 133.231 126.752 132.696 127.18C132.162 127.609 128.323 129.476 128.323 129.476C128.987 127.975 129.411 126.379 129.583 124.746C129.905 121.922 130.227 120.112 131.589 118.924C132.951 117.736 134.21 118.432 134.21 118.432Z" fill="#242923"/>
<path d="M122.705 126.546C122.705 126.546 123.413 128.024 126.189 128.588C127.95 128.945 128.813 128.118 129.032 125.921C129.27 123.539 129.579 120.599 130.51 119.33C131.44 118.061 132.844 117.662 133.788 117.907C134.039 118.035 134.23 118.257 134.319 118.525C134.319 118.525 133.247 117.775 131.743 119.047C130.536 120.074 130.21 122.64 129.995 124.804C129.779 126.968 129.492 129.473 127.815 129.605C126.137 129.737 123.935 128.906 122.908 127.863C122.742 127.691 122.634 127.473 122.597 127.237C122.561 127.001 122.598 126.76 122.705 126.546Z" fill="#37474F"/>
<path d="M126.868 123.326C126.799 123.368 126.739 123.423 126.692 123.488C126.644 123.554 126.61 123.628 126.591 123.706C126.563 123.932 126.596 124.161 126.687 124.369C126.777 124.578 126.922 124.758 127.107 124.891C127.322 125.042 127.519 125.007 127.193 124.521C126.984 124.157 126.872 123.746 126.868 123.326Z" fill="#FAFAFA"/>
<path d="M127.283 122.038C127.188 122.121 127.126 122.235 127.106 122.36C127.081 122.56 127.37 123.4 127.75 123.613C128.13 123.825 127.95 123.362 127.786 123.136C127.592 122.783 127.424 122.416 127.283 122.038Z" fill="#FAFAFA"/>
<path d="M127.341 120.463C127.27 120.609 127.25 120.775 127.283 120.934C127.503 121.262 127.831 121.502 128.211 121.613C128.462 121.613 128.565 121.474 128.233 121.291C127.973 121.146 127.419 120.702 127.341 120.463Z" fill="#FAFAFA"/>
<path d="M130.677 61.0415C131.147 64.0619 131.36 66.332 130.825 73.8829C130.587 77.2059 129.589 91.5156 129.589 91.5156C130.461 94.5275 130.976 97.6314 131.125 100.763C131.318 105.983 131.708 112.394 131.708 112.394C131.708 112.394 130.61 111.657 128.452 112.275C127.343 112.638 126.371 113.33 125.664 114.258C125.664 114.258 122.94 106.318 121.375 100.599C120.283 96.6 119.533 95.283 118.927 89.7961C118.184 83.0534 116.97 73.5834 116.97 73.5834L113.241 61.0479L130.677 61.0415Z" fill="#37474F"/>
<path d="M121.278 76.8776C119.227 78.6872 118.786 80.1974 118.676 81.2825C118.567 82.3677 119.208 91.9987 119.208 92.0373C119.114 91.3772 119.021 90.6398 118.927 89.7833C118.184 83.0471 116.973 73.5835 116.97 73.5706L113.241 61.0352H125.049L124.051 68.2286C124.35 71.3263 123.326 75.0679 121.278 76.8776Z" fill="#263238"/>
<path d="M108.005 112.59C108.154 113.234 108.327 113.734 107.729 114.522C107.13 115.311 105.829 115.72 104.538 115.682C103.612 115.639 102.729 115.279 102.039 114.661C101.292 114.081 100.77 113.576 100.49 113.338C100.21 113.099 99.099 112.793 98.0428 112.581C96.9351 112.359 94.797 111.895 93.7119 110.308C92.6268 108.72 92.8135 107.335 92.8135 107.335L108.005 112.59Z" fill="#263238"/>
<path d="M99.8459 106.318C102.116 107.101 105.568 107.577 107.625 108.121C108.244 108.698 108.112 111.306 108.118 113.064C107.329 114.874 104.808 115.337 103.137 114.613C102.271 114.136 101.691 113.463 100.841 112.942C100.159 112.563 99.4174 112.304 98.648 112.175C97.7576 111.972 96.8819 111.708 96.027 111.386C93.7955 110.362 92.6846 108.463 92.807 106.92C92.9229 105.568 93.8148 104.612 96.027 104.946C97.0316 105.095 98.2842 105.784 99.8459 106.318Z" fill="#455A64"/>
<path d="M102.167 106.904C101.765 106.379 100.989 106.688 100.384 107.429C99.7783 108.17 99.6173 109.361 99.6913 109.583C99.7654 109.805 100.055 109.982 100.139 109.676C100.223 109.371 100.368 108.327 100.847 107.693C101.139 107.304 101.544 107.014 102.006 106.862L102.167 106.904Z" fill="#E0E0E0"/>
<path d="M99.292 106.118C98.9281 105.587 98.0459 105.842 97.4212 106.524C96.7965 107.207 96.5969 108.115 96.6548 108.331C96.7128 108.546 96.9768 108.74 97.0863 108.446C97.2553 107.841 97.5383 107.274 97.9203 106.775C98.2358 106.41 98.664 106.159 99.1374 106.064L99.292 106.118Z" fill="#E0E0E0"/>
<path d="M100.59 106.553C100.226 106.022 99.4595 106.282 98.8316 106.965C98.3457 107.538 98.0687 108.259 98.0459 109.01C98.1039 109.226 98.3679 109.419 98.4742 109.123C98.5804 108.826 98.7704 107.835 99.2663 107.245C99.5706 106.884 99.9787 106.626 100.435 106.505L100.59 106.553Z" fill="#E0E0E0"/>
<path d="M107.696 106.318C107.696 106.392 107.603 108.727 107.603 108.727C107.603 108.727 107.39 109.641 105.365 109.899C103.34 110.156 101.862 109.39 101.475 108.849C101.475 108.849 101.227 106.431 101.108 105.423L107.696 106.318Z" fill="#FFBDA7"/>
<path d="M125.049 66.5253C124.827 70.0029 123.352 74.5013 118.335 77.8951C116.049 79.6661 114.387 81.4371 112.494 83.3208C110.147 85.6457 108.495 87.056 108.495 87.056C108.858 89.792 108.973 92.5554 108.836 95.3121C108.614 100.033 107.767 106.289 107.767 106.289C106.673 107.062 105.34 107.421 104.006 107.3C101.807 107.088 101.015 106.263 101.015 106.263C101.015 106.263 98.838 91.6993 98.5417 88.8206C98.2455 85.9419 97.6884 84.3126 100.152 79.6597C102.084 76.0565 110.559 61.0481 110.559 61.0481H125.049V66.5253Z" fill="#37474F"/>
<path d="M81.3083 66.6089L75.0261 76.681C74.986 76.7451 74.9671 76.8202 74.9719 76.8957C74.9768 76.9712 75.0053 77.0432 75.0534 77.1015C75.1014 77.1599 75.1666 77.2017 75.2397 77.221C75.3129 77.2403 75.3902 77.2362 75.4608 77.2091L86.6374 73.0231L81.3083 66.6089Z" fill="#FFA8A7"/>
<path d="M75.4608 77.2091C75.3902 77.2362 75.3129 77.2403 75.2397 77.221C75.1666 77.2017 75.1014 77.1599 75.0534 77.1015C75.0053 77.0432 74.9768 76.9711 74.9719 76.8957C74.9671 76.8202 74.986 76.7451 75.0261 76.681L76.2529 74.7136C76.3224 75.0745 76.4899 75.4092 76.7369 75.6813C76.984 75.9533 77.3011 76.1522 77.6536 76.256L77.85 76.3107L75.4608 77.2091Z" fill="#263238"/>
<path d="M140.366 29.1216L139.516 29.8171L138.492 30.6608L86.6502 73.0167C85.3142 72.9179 84.065 72.3174 83.1533 71.3358C81.7204 69.9061 80.9283 67.884 81.3244 66.6121L133.166 24.2755L135.127 22.6655C133.897 23.7796 139.136 30.2164 140.366 29.1216Z" fill="#6EE327"/>
<path d="M137.137 31.7783L135.237 33.3303C134.699 33.7972 133.389 32.9117 132.159 31.6559C130.523 29.9944 129.286 27.4699 129.995 26.8549L131.396 25.7086L131.904 25.3093C131.193 25.9276 132.429 28.4488 134.065 30.1136C135.243 31.3146 136.506 32.1776 137.076 31.8234C137.1 31.8157 137.122 31.7998 137.137 31.7783Z" fill="#EBEBEB"/>
<path d="M136.66 32.1613C135.417 33.2497 130.182 26.7775 131.424 25.6891L133.308 24.1306C132.065 25.2222 137.301 31.6912 138.544 30.6028L136.66 32.1613Z" fill="#6EE327"/>
<path d="M140.366 29.1218L138.492 30.6609C137.278 31.7364 132.175 25.5347 133.147 24.2757C133.165 24.2508 133.185 24.2281 133.208 24.2081L135.108 22.6721C133.897 23.7798 139.136 30.2166 140.366 29.1218Z" fill="#EBEBEB"/>
<path opacity="0.15" d="M75.0744 77.119L75.0261 76.6811L82.3581 70.431L136.341 26.346C136.248 26.2204 136.264 26.156 136.367 26.1367C137.732 27.9882 139.677 29.7335 140.366 29.1217L139.516 29.8172L138.492 30.6608L86.6503 73.0167L75.4737 77.2027C75.4067 77.2321 75.3322 77.2398 75.2607 77.2248C75.1891 77.2098 75.124 77.1728 75.0744 77.119Z" fill="#242923"/>
<path d="M148.323 22.5981L140.366 29.1218C139.841 29.5887 138.537 28.7225 137.31 27.4828C135.668 25.8245 134.412 23.2968 135.108 22.6721L143.094 16.1323C144.688 14.8443 147.714 17.7423 148.619 20.212C148.97 21.1233 148.948 21.9959 148.323 22.5981Z" fill="#F28F8F"/>
<path opacity="0.1" d="M145.544 22.1086C143.847 20.93 142.585 18.676 142.727 17.1369C142.73 16.9019 142.79 16.6712 142.902 16.4647C143.014 16.2582 143.175 16.0822 143.371 15.9519C145.016 15.1405 147.772 17.8646 148.629 20.2023C148.967 21.1039 148.951 21.9604 148.358 22.5626C147.75 23.0488 146.697 22.92 145.544 22.1086Z" fill="#242923"/>
<path d="M124.804 35.0049C124.044 34.3609 123.619 32.3387 124.002 31.2342C124.385 30.1298 125.934 27.5216 126.14 24.3628C126.346 21.2039 122.099 16.3643 118.438 16.7442C114.777 17.1242 112.829 19.1496 111.844 21.8962C111.245 23.5642 111.702 23.796 111.47 24.7524C111.016 26.6425 110.575 29.225 111.389 31.7462C111.561 32.2984 111.884 32.7916 112.321 33.1705C112.758 33.5494 113.292 33.7988 113.862 33.8907C114.642 34.0456 115.441 34.0718 116.229 33.968C116.279 34.7839 116.285 35.6019 116.248 36.4184C116.241 36.6997 116.128 36.9678 115.931 37.1695C115.735 37.3711 115.47 37.4915 115.189 37.5068C115.189 37.5068 125.58 35.6489 124.804 35.0049Z" fill="#FFBDA7"/>
<path d="M114.104 29.8398C114.196 30.116 114.391 30.346 114.649 30.4816C114.906 30.6171 115.206 30.6478 115.486 30.567C115.766 30.4863 116.003 30.3004 116.149 30.0484C116.295 29.7964 116.337 29.4978 116.268 29.2151L114.104 29.8398Z" fill="#B16668"/>
<path d="M114.954 30.6224C115.06 30.3404 115.243 30.0942 115.483 29.9124C115.723 29.7306 116.01 29.6206 116.31 29.5952C116.302 29.7573 116.259 29.9157 116.183 30.0592C116.108 30.2028 116.002 30.328 115.872 30.426C115.743 30.5239 115.594 30.5923 115.435 30.6263C115.276 30.6602 115.112 30.6589 114.954 30.6224Z" fill="#F28F8F"/>
<path d="M116.442 25.5347C116.416 25.6087 116.406 25.6869 116.411 25.7649C116.416 25.8429 116.437 25.9191 116.472 25.9892C116.506 26.0592 116.555 26.1217 116.613 26.173C116.672 26.2243 116.741 26.2634 116.815 26.2881C116.929 26.3296 117.053 26.3358 117.171 26.3061C117.289 26.2764 117.395 26.2121 117.476 26.1215C117.557 26.0308 117.609 25.918 117.626 25.7976C117.642 25.6772 117.622 25.5546 117.568 25.4457C117.514 25.3368 117.429 25.2466 117.323 25.1866C117.217 25.1267 117.096 25.0997 116.975 25.1093C116.854 25.1189 116.738 25.1645 116.643 25.2403C116.548 25.3161 116.478 25.4186 116.442 25.5347Z" fill="#263238"/>
<path d="M116.487 23.3515L117.823 23.8602C117.888 23.6777 117.879 23.4772 117.799 23.3008C117.72 23.1243 117.575 22.9856 117.395 22.9136C117.307 22.8802 117.213 22.8652 117.118 22.8693C117.024 22.8735 116.932 22.8967 116.847 22.9377C116.762 22.9787 116.686 23.0365 116.624 23.1076C116.562 23.1787 116.516 23.2617 116.487 23.3515Z" fill="#263238"/>
<path d="M112.056 23.6702L113.399 23.1454C113.369 23.0561 113.321 22.9738 113.259 22.9036C113.196 22.8333 113.12 22.7765 113.035 22.7368C112.949 22.697 112.857 22.675 112.763 22.6722C112.669 22.6694 112.575 22.6857 112.488 22.7203C112.307 22.793 112.162 22.9322 112.082 23.109C112.002 23.2859 111.992 23.4868 112.056 23.6702Z" fill="#263238"/>
<path d="M112.317 25.2546C112.321 25.36 112.357 25.4618 112.418 25.5473C112.48 25.6328 112.566 25.6982 112.665 25.7353C112.763 25.7725 112.871 25.7798 112.974 25.7563C113.077 25.7328 113.17 25.6796 113.243 25.6033C113.316 25.5269 113.365 25.4308 113.383 25.327C113.402 25.2231 113.39 25.1161 113.348 25.0192C113.306 24.9223 113.237 24.8398 113.148 24.7821C113.06 24.7243 112.957 24.6938 112.851 24.6943C112.779 24.696 112.709 24.7118 112.643 24.7409C112.577 24.77 112.518 24.8117 112.468 24.8637C112.418 24.9158 112.379 24.9771 112.354 25.0441C112.328 25.1112 112.315 25.1827 112.317 25.2546Z" fill="#263238"/>
<path d="M111.856 27.8853L113.943 28.8191L114.603 24.7233C113.827 24.4431 112.819 26.3236 111.856 27.8853Z" fill="#F0997A"/>
<path d="M116.242 33.9581C116.242 33.9581 118.222 33.6619 118.783 33.3431C120.306 32.4737 120.859 31.804 121.198 30.8508C121.096 31.5008 120.837 32.1162 120.445 32.6441C120.052 33.1719 119.537 33.5964 118.944 33.8809C118.083 34.2438 117.188 34.5158 116.271 34.6923L116.242 33.9581Z" fill="#F0997A"/>
<path d="M127.042 22.7462C126.945 22.0419 126.603 21.3942 126.076 20.9172C125.993 20.8513 125.9 20.8011 125.799 20.7691C126.269 17.8357 124.009 16.6411 122.84 16.4447C122.296 16.3742 121.758 16.2667 121.23 16.1227C121.094 16.0753 120.965 16.0104 120.847 15.9295C120.483 15.6783 120.286 15.3144 119.881 15.015C118.963 14.3356 117.498 14.4193 117.015 15.5753C116.387 14.8636 115.604 14.9313 114.712 15.2307C114.466 15.3024 114.241 15.4353 114.06 15.6172C113.879 15.7991 113.747 16.0239 113.676 16.2708C113.607 16.5281 113.596 16.7976 113.643 17.0597C113.438 16.9505 113.212 16.8855 112.98 16.8689C112.748 16.8522 112.515 16.8844 112.296 16.9633C112.077 17.0421 111.877 17.1659 111.708 17.3267C111.54 17.4875 111.407 17.6817 111.319 17.8969C111.294 17.9676 111.277 18.0412 111.27 18.1158C111.266 18.1963 111.266 18.2769 111.27 18.3573C111.27 18.7856 111.325 19.1623 111.064 19.5777C111.009 19.6654 110.941 19.7436 110.861 19.8096C110.787 19.8871 110.697 19.9479 110.598 19.9881C110.499 20.0283 110.392 20.0469 110.284 20.0426C110.177 20.0383 110.072 20.0113 109.976 19.9634C109.88 19.9154 109.796 19.8476 109.728 19.7645C109.654 20.518 109.982 21.0525 110.791 20.972C110.667 21.1887 110.592 21.4302 110.573 21.679C110.553 21.9279 110.589 22.178 110.678 22.4113C110.755 22.6106 110.874 22.7911 111.027 22.9405C111.179 23.0899 111.362 23.2048 111.563 23.2775C111.602 22.8048 111.711 22.3404 111.885 21.8993C111.998 21.5773 112.127 21.2811 112.265 20.9816C112.796 21.2086 113.355 21.3634 113.927 21.4421C116.008 21.7932 118.146 21.5831 120.119 20.8335C119.817 21.5156 119.594 22.2296 119.452 22.9619C119.402 23.2878 119.425 23.6208 119.52 23.9367C119.614 24.2526 119.778 24.5433 120 24.7877C120.212 24.9841 120.135 25.3383 120.08 25.583C119.974 25.8803 119.914 26.1918 119.9 26.5072C119.902 26.5532 119.911 26.5988 119.926 26.6424C119.952 26.7167 119.994 26.7842 120.05 26.8397C120.106 26.8952 120.173 26.9373 120.248 26.9627C120.322 26.9882 120.402 26.9963 120.48 26.9866C120.558 26.9768 120.633 26.9494 120.698 26.9064C120.919 26.6918 121.093 26.4343 121.21 26.1497C121.938 24.6428 123.506 24.6041 124.147 25.3576C124.788 26.1111 124.759 26.8903 124.147 28.2556C123.735 29.1637 122.791 29.6112 122.09 29.3182C121.962 29.2651 121.845 29.1886 121.745 29.0928C121.726 29.6789 121.877 30.4549 122.479 30.8896C122.934 31.1708 123.47 31.2921 124.002 31.2341C124.186 30.7028 124.646 29.8302 125.078 28.7129C125.4 28.1558 125.722 27.6148 125.995 27.1029C126.082 26.9419 126.16 26.7809 126.227 26.6199C126.868 25.1644 127.213 24.0535 127.042 22.7462Z" fill="#263238"/>
<path d="M126.041 35.1723C129.905 34.8148 131.566 36.1383 132.535 37.2749C133.504 38.4116 137.874 45.6469 139.619 49.7267C140.324 51.3785 140.717 52.6794 139.207 54.167C137.597 55.7513 130.169 62.0399 130.169 62.0399L127.444 57.7606L132.632 50.9342L128.124 43.5282L126.041 35.1723Z" fill="#37474F"/>
<path d="M128.22 35.7421C130.175 36.7081 131.534 40.6011 131.708 43.5603C131.843 45.8626 131.334 48.8765 131.009 53.1816C130.862 55.1415 130.844 57.1088 130.954 59.071C131.057 61.1061 131.228 64.6803 131.228 64.6803C131.228 64.6803 129.296 68.5926 122.334 69.2816C112.207 70.2863 108.166 65.3114 108.166 65.3114C108.166 65.3114 108.868 63.0574 108.949 54.6854C109.01 48.4257 108.379 42.385 109.615 40.1535C110.15 39.4097 110.147 38.6723 111.547 38.1507C112.513 37.79 116.909 36.7178 118.631 36.3475C124.376 35.1207 126.176 34.7343 128.22 35.7421Z" fill="#455A64"/>
<path d="M115.276 37.1814C116.158 37.4068 116.564 37.6226 117.9 37.9188C119.802 38.3906 121.81 38.1703 123.564 37.2973C125.203 36.4505 125.496 35.3235 125.496 35.3235C125.496 35.3235 124.804 34.0967 124.53 33.6942C124.257 33.2917 123.992 33.3335 123.992 33.3335L124.112 33.8004C124.112 33.8004 124.112 34.5797 122.228 35.053C120.296 35.5392 117.176 35.5779 116.281 35.3106V35.0498C115.817 35.1721 115.669 35.5135 115.144 36.2283C114.819 36.6702 114.469 37.0938 114.097 37.497L115.276 37.1814Z" fill="#37474F"/>
<path d="M89.5547 62.6484C87.8577 63.0542 87.0624 63.6499 86.2349 63.7465C85.7499 63.8048 85.2608 63.8209 84.773 63.7948L83.2209 65.0441C83.2209 65.0441 83.5429 62.349 84.0034 61.3379C84.4639 60.3268 84.8825 60.9322 85.1948 60.3075C85.5071 59.6828 85.4331 59.2352 86.1061 58.9937C86.779 58.7522 86.6277 58.1308 87.6678 57.9408C88.7078 57.7508 92.852 58.3594 92.852 58.3594L89.5547 62.6484Z" fill="#FFA8A7"/>
<path d="M111.776 38.0735C107.461 39.0395 106.379 40.1375 104.334 44.0047C102.035 48.3517 99.2115 53.8998 99.2115 53.8998C99.2115 53.8998 93.3446 56.2633 89.8509 57.5126C88.7207 57.9183 86.5762 63.2378 88.4438 63.3634C88.4438 63.3634 98.0265 61.6922 100.863 61.1416C104.273 60.4782 104.814 59.7892 106.659 56.9781C108.504 54.167 112.7 46.1653 112.7 46.1653C112.7 46.1653 114.684 40.3146 111.776 38.0735Z" fill="#37474F"/>
</svg>
