<svg width="154" height="29" viewBox="0 0 154 29" fill="none" xmlns="http://www.w3.org/2000/svg">
<path fill-rule="evenodd" clip-rule="evenodd" d="M2.90978 17.4941C1.94179 18.4506 0.973803 19.407 0.00581264 20.3639V20.362V17.5072C1.00072 16.5247 1.99513 15.5417 2.98979 14.5584C3.98947 13.5702 4.98938 12.5817 5.99029 11.5932C6.52609 12.1885 7.06279 12.7828 7.59977 13.3774C7.8609 13.6666 8.12209 13.9558 8.38329 14.2453C9.45543 13.1496 10.5276 12.0534 11.5997 10.9572C12.5888 9.94598 13.5778 8.93476 14.5668 7.92399C14.2451 7.59524 13.9238 7.2665 13.6026 6.93775C13.2592 6.58643 12.9159 6.23511 12.572 5.88379H17.9573V11.3925C17.6244 11.0524 17.292 10.7123 16.9596 10.3721C16.6273 10.0322 16.2951 9.69225 15.9624 9.35232C14.692 10.652 13.421 11.9512 12.1501 13.2505C10.8943 14.5341 9.63856 15.8178 8.38329 17.102C7.84205 16.5007 7.29991 15.9004 6.75747 15.2997C6.50179 15.0165 6.24604 14.7333 5.99029 14.4499C4.96345 15.465 3.93661 16.4795 2.90978 17.4941ZM6.7731 17.7199C6.51157 17.4303 6.24997 17.1406 5.98838 16.8507V16.8527C4.67615 18.123 3.36307 19.3924 2.04971 20.6621C1.36653 21.3226 0.683264 21.9832 0 22.644H17.9495C17.9502 21.6605 17.951 20.6771 17.9519 19.6937C17.9536 17.7269 17.9553 15.7602 17.9553 13.7933C17.6237 13.4545 17.2926 13.1157 16.9615 12.7769C16.628 12.4357 16.2945 12.0944 15.9605 11.7532C14.6693 13.0741 13.3776 14.3945 12.0859 15.715C10.8509 16.9774 9.61591 18.2399 8.38138 19.5028C7.84597 18.908 7.30968 18.3141 6.7731 17.7199Z" fill="white"/>
<path d="M23.9442 22.4313V21.5166H24.219C24.4655 21.5166 24.6945 21.499 24.9059 21.4635C25.1242 21.4281 25.3144 21.3572 25.4764 21.2508C25.6384 21.1374 25.7652 20.9778 25.8568 20.7722C25.9483 20.5667 25.9941 20.2937 25.9941 19.9533L25.9931 8.33855C25.9931 7.99824 25.9473 7.7253 25.8558 7.51968C25.7642 7.31408 25.6373 7.15812 25.4754 7.05177C25.3133 6.93833 25.1231 6.86388 24.9048 6.82844C24.6934 6.79299 24.4644 6.77526 24.2179 6.77526H23.9431V5.86069H30.2409V6.77526H29.9556C29.7161 6.77526 29.4872 6.79299 29.2688 6.82844C29.0504 6.86388 28.8602 6.93833 28.6982 7.05177C28.5432 7.15812 28.4164 7.31408 28.3178 7.51968C28.2262 7.7253 28.1805 7.99824 28.1805 8.33855L28.1816 19.9533C28.1816 20.2937 28.2272 20.5667 28.3189 20.7722C28.4174 20.9778 28.5443 21.1374 28.6992 21.2508C28.8613 21.3572 29.0515 21.4281 29.2698 21.4635C29.4883 21.499 29.7172 21.5166 29.9567 21.5166H30.242V22.4313H23.9442ZM37.4908 21.5166V22.4313H31.6686V21.5166H31.8482C32.0947 21.5166 32.3237 21.499 32.5351 21.4635C32.7534 21.4281 32.9401 21.3572 33.0951 21.2508C33.257 21.1374 33.3839 20.9778 33.4755 20.7722C33.5741 20.5667 33.6234 20.2937 33.6234 19.9533V13.1578C33.6234 12.8389 33.5741 12.5836 33.4755 12.3921C33.3839 12.1937 33.257 12.0412 33.0951 11.9349C32.933 11.8285 32.7428 11.7576 32.5245 11.7222C32.3131 11.6867 32.0877 11.669 31.8482 11.669H31.7847V10.7544H35.2824L35.5677 12.5198H35.6734C35.8988 12.1157 36.1348 11.7859 36.3814 11.5308C36.6349 11.2684 36.8991 11.0664 37.1739 10.9246C37.4556 10.7757 37.7515 10.6764 38.0614 10.6268C38.3785 10.5701 38.7096 10.5417 39.0547 10.5417C39.6253 10.5417 40.1326 10.6268 40.5763 10.797C41.0272 10.96 41.4076 11.2153 41.7176 11.5627C42.0346 11.9029 42.274 12.3425 42.4361 12.8813C42.6052 13.4201 42.6897 14.0618 42.6897 14.8062V19.9533C42.6897 20.2937 42.7285 20.5667 42.8059 20.7722C42.8905 20.9778 43.0067 21.1374 43.1547 21.2508C43.3026 21.3572 43.4787 21.4281 43.683 21.4635C43.8872 21.499 44.1092 21.5166 44.3487 21.5166H44.4227V22.4313H40.6504V14.9125C40.6504 14.4376 40.6081 14.0157 40.5235 13.647C40.439 13.2783 40.3016 12.9664 40.1114 12.7112C39.9283 12.456 39.6852 12.2646 39.3824 12.1369C39.0794 12.0023 38.7096 11.9349 38.2728 11.9349C37.7797 11.9349 37.3641 12.0306 37.0259 12.222C36.6948 12.4134 36.4272 12.6722 36.2228 12.9983C36.0185 13.3244 35.8707 13.7002 35.779 14.1256C35.6945 14.551 35.6522 14.9976 35.6522 15.4656V20.0597C35.6522 20.3788 35.698 20.6376 35.7896 20.836C35.8882 21.0274 36.0185 21.1729 36.1806 21.2721C36.3425 21.3713 36.5293 21.4387 36.7406 21.4742C36.9589 21.5025 37.188 21.5166 37.4275 21.5166H37.4908ZM49.5793 22.644C49.0368 22.644 48.5438 22.5944 48.0999 22.495C47.6632 22.4029 47.2898 22.2611 46.9798 22.0697C46.6699 21.8712 46.4304 21.6301 46.2612 21.3465C46.0922 21.0559 46.0077 20.7191 46.0077 20.3363C46.0077 20.0455 46.0535 19.8045 46.1451 19.6131C46.2437 19.4145 46.36 19.2586 46.4938 19.1452C46.6347 19.0317 46.7825 18.9538 46.9375 18.9112C47.0996 18.8616 47.244 18.8368 47.3708 18.8368C47.3708 19.2196 47.4095 19.5776 47.4871 19.9109C47.5645 20.2441 47.6948 20.5382 47.8781 20.7935C48.0612 21.0417 48.3006 21.2401 48.5965 21.3891C48.8995 21.5309 49.2693 21.6018 49.7061 21.6018C50.0935 21.6018 50.4352 21.5557 50.731 21.4635C51.0269 21.3643 51.2735 21.2295 51.4708 21.0594C51.6751 20.8821 51.83 20.673 51.9357 20.432C52.0414 20.1838 52.0942 19.9144 52.0942 19.6237C52.0942 19.3543 52.052 19.1239 51.9673 18.9325C51.8899 18.7339 51.749 18.5496 51.5447 18.3795C51.3474 18.2093 51.0762 18.0356 50.731 17.8584C50.3859 17.6811 49.9527 17.479 49.4314 17.2522C48.8749 17.004 48.3888 16.7666 47.9732 16.5397C47.5645 16.3057 47.2264 16.054 46.9587 15.7846C46.6911 15.5152 46.4903 15.2103 46.3563 14.8701C46.2225 14.5227 46.1557 14.1114 46.1557 13.6364C46.1557 13.1401 46.2508 12.7006 46.441 12.3177C46.6382 11.9349 46.9165 11.6158 47.2757 11.3606C47.635 11.0983 48.0646 10.8998 48.5649 10.7651C49.0651 10.6304 49.6216 10.563 50.2344 10.563C50.7487 10.563 51.203 10.6162 51.5975 10.7225C51.992 10.8289 52.3231 10.9742 52.5908 11.1585C52.8586 11.3358 53.0592 11.5485 53.1932 11.7966C53.327 12.0377 53.3939 12.2929 53.3939 12.5624C53.3939 12.9594 53.2565 13.2783 52.9818 13.5195C52.7141 13.7534 52.3302 13.8704 51.83 13.8704C51.83 13.1401 51.6785 12.5729 51.3757 12.1689C51.0798 11.7648 50.6113 11.5627 49.9702 11.5627C49.6039 11.5627 49.2905 11.6052 49.0298 11.6902C48.7692 11.7754 48.5543 11.8959 48.3852 12.0519C48.2232 12.2079 48.1035 12.3921 48.0259 12.6048C47.9485 12.8176 47.9097 13.0515 47.9097 13.3068C47.9097 13.5832 47.9591 13.8243 48.0577 14.0298C48.1563 14.2284 48.3112 14.4127 48.5226 14.5829C48.7409 14.7531 49.0192 14.9197 49.3573 15.0828C49.7026 15.2387 50.1146 15.4159 50.5937 15.6144C51.1643 15.8555 51.6539 16.093 52.0624 16.327C52.4711 16.5609 52.8057 16.8162 53.0663 17.0927C53.3341 17.3692 53.5312 17.6811 53.6581 18.0285C53.7849 18.3759 53.8483 18.7765 53.8483 19.2302C53.8483 19.7974 53.7461 20.2937 53.5418 20.7191C53.3375 21.1444 53.0488 21.5025 52.6753 21.7932C52.302 22.0767 51.8512 22.2894 51.3228 22.4313C50.8015 22.5731 50.2203 22.644 49.5793 22.644ZM55.5812 21.5166C55.8207 21.5166 56.0461 21.5025 56.2575 21.4742C56.4758 21.4387 56.666 21.3713 56.8281 21.2721C56.9902 21.1729 57.1169 21.0274 57.2085 20.836C57.3071 20.6376 57.3565 20.3788 57.3565 20.0597V13.1578C57.3565 12.8389 57.3071 12.5836 57.2085 12.3921C57.1169 12.1937 56.9902 12.0412 56.8281 11.9349C56.666 11.8285 56.4758 11.7576 56.2575 11.7222C56.0461 11.6867 55.8207 11.669 55.5812 11.669H55.5179V10.7544H59.3853V19.9533C59.3853 20.2937 59.431 20.5667 59.5226 20.7722C59.6213 20.9778 59.748 21.1374 59.903 21.2508C60.0651 21.3572 60.2553 21.4281 60.4736 21.4635C60.6921 21.499 60.921 21.5166 61.1605 21.5166H61.4458V22.4313H55.2959V21.5166H55.5812ZM57.05 7.22374C57.05 6.9685 57.0817 6.75581 57.1451 6.58566C57.2085 6.4155 57.2966 6.27725 57.4093 6.1709C57.522 6.06456 57.6524 5.99012 57.8002 5.94758C57.9482 5.90505 58.1102 5.88378 58.2863 5.88378C58.4554 5.88378 58.6139 5.90505 58.7618 5.94758C58.9098 5.99012 59.0365 6.06456 59.1422 6.1709C59.255 6.27725 59.343 6.4155 59.4064 6.58566C59.4768 6.75581 59.512 6.9685 59.512 7.22374C59.512 7.47897 59.4768 7.69166 59.4064 7.86181C59.343 8.03197 59.255 8.17022 59.1422 8.27657C59.0365 8.38291 58.9098 8.4609 58.7618 8.51053C58.6139 8.55306 58.4554 8.57433 58.2863 8.57433C58.1102 8.57433 57.9482 8.55306 57.8002 8.51053C57.6524 8.4609 57.522 8.38291 57.4093 8.27657C57.2966 8.17022 57.2085 8.03197 57.1451 7.86181C57.0817 7.69166 57.05 7.47897 57.05 7.22374ZM72.6783 20.0385C72.6783 20.3575 72.7241 20.6163 72.8157 20.8148C72.9143 21.0063 73.0446 21.1551 73.2067 21.2614C73.3686 21.3678 73.5553 21.4387 73.7667 21.4742C73.985 21.5025 74.214 21.5166 74.4536 21.5166H74.6332V22.4313H70.9665L70.734 20.4745H70.6495C70.4874 20.8077 70.3008 21.109 70.0895 21.3784C69.8852 21.6408 69.6492 21.8676 69.3814 22.0591C69.1138 22.2433 68.8108 22.3852 68.4728 22.4844C68.1346 22.5907 67.7542 22.644 67.3315 22.644C66.62 22.644 65.9895 22.527 65.44 22.293C64.8906 22.0519 64.4292 21.6869 64.0558 21.1977C63.6825 20.7013 63.4006 20.074 63.2104 19.3153C63.0202 18.5568 62.9251 17.6563 62.9251 16.6141C62.9251 15.5648 63.0202 14.6573 63.2104 13.8917C63.4006 13.126 63.6825 12.495 64.0558 11.9986C64.4292 11.5024 64.8906 11.1373 65.44 10.9033C65.9895 10.6623 66.62 10.5417 67.3315 10.5417C67.7471 10.5417 68.124 10.5878 68.4622 10.68C68.8003 10.7722 69.1032 10.9033 69.3709 11.0735C69.6456 11.2436 69.8887 11.4457 70.1 11.6797C70.3114 11.9136 70.4945 12.1724 70.6495 12.456H70.7763C70.7552 12.1015 70.734 11.7683 70.7128 11.4563C70.6988 11.1869 70.6847 10.921 70.6706 10.6587C70.6566 10.3893 70.6495 10.1908 70.6495 10.0632V8.27657C70.6495 7.95753 70.6002 7.7023 70.5016 7.51088C70.41 7.31236 70.2831 7.15993 70.1212 7.05359C69.9591 6.94723 69.7689 6.87988 69.5505 6.85152C69.3392 6.81608 69.1138 6.79835 68.8742 6.79835H68.6946V5.88378H72.6783V20.0385ZM67.7014 21.2508C68.2649 21.2508 68.7334 21.1586 69.1067 20.9743C69.4871 20.7829 69.7901 20.4958 70.0155 20.1129C70.2479 19.7301 70.41 19.2479 70.5016 18.6666C70.6002 18.0852 70.6495 17.4011 70.6495 16.6141C70.6495 15.8555 70.6002 15.1855 70.5016 14.6041C70.41 14.0228 70.2479 13.5371 70.0155 13.1472C69.7901 12.7502 69.4871 12.4489 69.1067 12.2433C68.7263 12.0377 68.2508 11.9349 67.6802 11.9349C67.2082 11.9349 66.8032 12.0377 66.465 12.2433C66.1269 12.4489 65.8486 12.7502 65.6302 13.1472C65.4189 13.5443 65.2639 14.037 65.1653 14.6254C65.0666 15.2068 65.0173 15.8768 65.0173 16.6354C65.0173 18.1809 65.2252 19.3366 65.6408 20.1023C66.0565 20.868 66.7433 21.2508 67.7014 21.2508ZM80.9732 11.7115C80.1701 11.7115 79.5502 12.0412 79.1134 12.7006C78.6837 13.3529 78.4302 14.31 78.3526 15.572H83.3297C83.3297 14.9976 83.2873 14.4731 83.2028 13.998C83.1183 13.523 82.9845 13.1153 82.8013 12.775C82.6182 12.4347 82.3751 12.1724 82.0722 11.988C81.7763 11.8037 81.41 11.7115 80.9732 11.7115ZM81.2374 22.644C80.4555 22.644 79.751 22.5128 79.124 22.2505C78.5041 21.981 77.9793 21.5912 77.5496 21.0807C77.1198 20.5702 76.7887 19.9463 76.5563 19.2089C76.3309 18.4646 76.2181 17.6208 76.2181 16.6779C76.2181 14.6432 76.6338 13.1118 77.465 12.0837C78.2964 11.0557 79.4798 10.5417 81.0155 10.5417C81.713 10.5417 82.3398 10.6516 82.8964 10.8714C83.4529 11.0912 83.9249 11.4209 84.3124 11.8605C84.6998 12.2929 84.9956 12.8352 85.1999 13.4875C85.4113 14.1327 85.5169 14.8842 85.5169 15.7421V16.7418H78.3104C78.3245 17.5358 78.4019 18.2199 78.5428 18.7942C78.6908 19.3614 78.8986 19.8293 79.1663 20.198C79.4411 20.5667 79.7756 20.8396 80.1701 21.0169C80.5647 21.187 81.019 21.2721 81.5332 21.2721C81.9067 21.2721 82.2518 21.2295 82.5689 21.1444C82.8929 21.0594 83.1853 20.946 83.4459 20.8042C83.7066 20.6624 83.9355 20.5028 84.1327 20.3256C84.337 20.1412 84.5026 19.9498 84.6293 19.7514C84.728 19.7939 84.8195 19.8825 84.904 20.0172C84.9956 20.1519 85.0414 20.3114 85.0414 20.4958C85.0414 20.7155 84.964 20.953 84.8089 21.2083C84.654 21.4564 84.4181 21.6869 84.101 21.8995C83.784 22.1122 83.386 22.2894 82.9069 22.4313C82.4349 22.5731 81.8784 22.644 81.2374 22.644ZM93.5689 22.4313H87.3238V21.5166H87.3873C87.6339 21.5166 87.8628 21.499 88.0742 21.4635C88.2925 21.4281 88.4792 21.3572 88.6342 21.2508C88.7963 21.1374 88.923 20.9778 89.0146 20.7722C89.1132 20.5667 89.1625 20.2937 89.1625 19.9533V13.1578C89.1625 12.8389 89.1132 12.5836 89.0146 12.3921C88.923 12.1937 88.7963 12.0412 88.6342 11.9349C88.4721 11.8285 88.2819 11.7576 88.0636 11.7222C87.8522 11.6867 87.6268 11.669 87.3873 11.669H87.3238V10.7544H90.6524L91.0646 12.9133H91.1702C91.3112 12.5872 91.4555 12.2823 91.6034 11.9986C91.7514 11.708 91.931 11.4563 92.1424 11.2436C92.3607 11.0238 92.6285 10.8537 92.9454 10.7332C93.2624 10.6055 93.6605 10.5417 94.1395 10.5417C94.9284 10.5417 95.5132 10.68 95.8936 10.9565C96.281 11.233 96.4748 11.6229 96.4748 12.1263C96.4748 12.3532 96.4359 12.5624 96.3585 12.7538C96.2881 12.9452 96.1718 13.1118 96.0099 13.2535C95.8478 13.3883 95.6399 13.4947 95.3864 13.5726C95.1328 13.6435 94.8227 13.679 94.4565 13.679C94.4565 13.0764 94.3719 12.6438 94.2028 12.3815C94.0338 12.1121 93.7379 11.9775 93.3152 11.9775C93.0476 11.9775 92.8081 12.0554 92.5967 12.2114C92.3854 12.3603 92.1987 12.5624 92.0367 12.8176C91.8818 13.0657 91.7478 13.3529 91.6352 13.679C91.5295 14.005 91.4414 14.3419 91.371 14.6893C91.3075 15.0295 91.2617 15.3699 91.2336 15.7102C91.2055 16.0505 91.1913 16.3588 91.1913 16.6354V20.0597C91.1913 20.3788 91.2371 20.6376 91.3287 20.836C91.4273 21.0274 91.5576 21.1729 91.7197 21.2721C91.8817 21.3713 92.0683 21.4387 92.2797 21.4742C92.4982 21.5025 92.7271 21.5166 92.9666 21.5166H93.5689V22.4313ZM109.282 5.97164L111.987 16.4652C112.191 17.1884 112.371 17.8832 112.526 18.5496C112.688 19.2089 112.818 19.7903 112.917 20.2937C113.022 19.769 113.142 19.2196 113.276 18.6453C113.417 18.0639 113.586 17.4224 113.783 16.7205L115.685 8.9387C115.706 8.85362 115.731 8.75791 115.759 8.65156C115.787 8.54522 115.812 8.43887 115.833 8.33253C115.854 8.22618 115.872 8.12693 115.886 8.03476C115.907 7.94258 115.918 7.8646 115.918 7.8008C115.918 7.42504 115.798 7.15562 115.558 6.99257C115.326 6.82241 114.97 6.73733 114.491 6.73733H113.994V5.82275H119.278V6.73733H118.866C118.654 6.73733 118.468 6.7586 118.306 6.80113C118.151 6.84368 118.01 6.92521 117.883 7.04573C117.756 7.16626 117.64 7.33642 117.534 7.5562C117.429 7.77598 117.323 8.06666 117.217 8.42824L113.561 22.4313H111.617L108.088 9.17267L104.78 22.4313H102.783L98.8205 7.88587C98.7501 7.659 98.6692 7.47113 98.5775 7.32224C98.493 7.17335 98.3908 7.05637 98.2711 6.97129C98.1513 6.88622 98.0104 6.82595 97.8484 6.79051C97.6864 6.75506 97.4997 6.73733 97.2883 6.73733H97.003V5.82275H102.963V6.73733H102.466C102.029 6.73733 101.702 6.82241 101.483 6.99257C101.272 7.15562 101.166 7.41795 101.166 7.77953C101.166 7.90005 101.184 8.02413 101.219 8.15174C101.254 8.27935 101.293 8.42469 101.335 8.58776L103.322 16.6141C103.505 17.2735 103.678 17.9221 103.84 18.5603C104.002 19.1913 104.143 19.769 104.262 20.2937C104.368 19.7265 104.491 19.1097 104.632 18.4433C104.78 17.7698 104.949 17.082 105.139 16.3801L107.718 5.97164H109.282ZM124.107 11.7115C123.304 11.7115 122.683 12.0412 122.247 12.7006C121.818 13.3529 121.564 14.31 121.486 15.572H126.463C126.463 14.9976 126.421 14.4731 126.337 13.998C126.252 13.523 126.118 13.1153 125.935 12.775C125.751 12.4347 125.509 12.1724 125.206 11.988C124.91 11.8037 124.543 11.7115 124.107 11.7115ZM124.371 22.644C123.589 22.644 122.884 22.5128 122.258 22.2505C121.638 21.981 121.113 21.5912 120.683 21.0807C120.254 20.5702 119.922 19.9463 119.69 19.2089C119.464 18.4646 119.352 17.6208 119.352 16.6779C119.352 14.6432 119.767 13.1118 120.599 12.0837C121.43 11.0557 122.614 10.5417 124.149 10.5417C124.846 10.5417 125.474 10.6516 126.03 10.8714C126.587 11.0912 127.058 11.4209 127.445 11.8605C127.834 12.2929 128.13 12.8352 128.334 13.4875C128.544 14.1327 128.65 14.8842 128.65 15.7421V16.7418H121.444C121.458 17.5358 121.536 18.2199 121.677 18.7942C121.825 19.3614 122.032 19.8293 122.3 20.198C122.575 20.5667 122.909 20.8396 123.304 21.0169C123.698 21.187 124.152 21.2721 124.667 21.2721C125.04 21.2721 125.386 21.2295 125.702 21.1444C126.027 21.0594 126.319 20.946 126.58 20.8042C126.841 20.6624 127.069 20.5028 127.266 20.3256C127.471 20.1412 127.637 19.9498 127.763 19.7514C127.861 19.7939 127.953 19.8825 128.038 20.0172C128.13 20.1519 128.175 20.3114 128.175 20.4958C128.175 20.7155 128.097 20.953 127.943 21.2083C127.788 21.4564 127.551 21.6869 127.235 21.8995C126.918 22.1122 126.52 22.2894 126.04 22.4313C125.569 22.5731 125.012 22.644 124.371 22.644ZM135.688 11.7115C134.885 11.7115 134.265 12.0412 133.828 12.7006C133.399 13.3529 133.145 14.31 133.067 15.572H138.045C138.045 14.9976 138.003 14.4731 137.917 13.998C137.833 13.523 137.7 13.1153 137.516 12.775C137.333 12.4347 137.09 12.1724 136.787 11.988C136.491 11.8037 136.125 11.7115 135.688 11.7115ZM135.953 22.644C135.17 22.644 134.466 22.5128 133.839 22.2505C133.219 21.981 132.695 21.5912 132.264 21.0807C131.835 20.5702 131.503 19.9463 131.271 19.2089C131.046 18.4646 130.933 17.6208 130.933 16.6779C130.933 14.6432 131.349 13.1118 132.18 12.0837C133.011 11.0557 134.195 10.5417 135.73 10.5417C136.428 10.5417 137.055 10.6516 137.611 10.8714C138.167 11.0912 138.64 11.4209 139.027 11.8605C139.414 12.2929 139.711 12.8352 139.915 13.4875C140.126 14.1327 140.232 14.8842 140.232 15.7421V16.7418H133.025C133.04 17.5358 133.117 18.2199 133.257 18.7942C133.405 19.3614 133.613 19.8293 133.881 20.198C134.155 20.5667 134.491 20.8396 134.885 21.0169C135.279 21.187 135.734 21.2721 136.248 21.2721C136.621 21.2721 136.966 21.2295 137.284 21.1444C137.608 21.0594 137.9 20.946 138.161 20.8042C138.421 20.6624 138.651 20.5028 138.848 20.3256C139.052 20.1412 139.217 19.9498 139.344 19.7514C139.443 19.7939 139.534 19.8825 139.618 20.0172C139.711 20.1519 139.757 20.3114 139.757 20.4958C139.757 20.7155 139.679 20.953 139.523 21.2083C139.368 21.4564 139.133 21.6869 138.815 21.8995C138.499 22.1122 138.101 22.2894 137.621 22.4313C137.15 22.5731 136.594 22.644 135.953 22.644ZM148.653 15.423L151.538 19.7301C151.912 20.3114 152.282 20.7546 152.647 21.0594C153.021 21.3643 153.451 21.5166 153.937 21.5166H154V22.4313H153.693C153.067 22.4313 152.549 22.4136 152.14 22.3781C151.739 22.3355 151.39 22.2433 151.094 22.1015C150.798 21.9527 150.528 21.74 150.281 21.4635C150.034 21.1799 149.76 20.797 149.457 20.315L147.29 16.9013L145.695 18.0924V20.0597C145.695 20.3788 145.74 20.6376 145.832 20.836C145.93 21.0274 146.061 21.1729 146.224 21.2721C146.385 21.3713 146.572 21.4387 146.783 21.4742C147.002 21.5025 147.23 21.5166 147.47 21.5166H147.533V22.4313H141.712V21.5166H141.88C142.126 21.5166 142.356 21.499 142.568 21.4635C142.785 21.4281 142.972 21.3572 143.127 21.2508C143.289 21.1374 143.416 20.9778 143.508 20.7722C143.606 20.5667 143.656 20.2937 143.656 19.9533V8.27657C143.656 7.95753 143.606 7.7023 143.508 7.51088C143.416 7.31236 143.289 7.15993 143.127 7.05359C142.966 6.94723 142.774 6.87988 142.557 6.85152C142.345 6.81608 142.119 6.79835 141.88 6.79835H141.712V5.88378H145.695V14.2852C145.695 14.4836 145.691 14.7389 145.684 15.0508C145.677 15.3556 145.667 15.657 145.653 15.9548C145.638 16.2951 145.625 16.6531 145.611 17.0289L148.316 14.0511C148.548 13.7888 148.738 13.5584 148.886 13.3599C149.041 13.1614 149.164 12.9877 149.256 12.8389C149.347 12.6899 149.411 12.5587 149.446 12.4454C149.482 12.3249 149.499 12.2114 149.499 12.105C149.499 11.9207 149.411 11.8037 149.234 11.7541C149.066 11.6974 148.801 11.669 148.442 11.669V10.7544H153.218V11.669C152.718 11.669 152.225 11.8463 151.739 12.2007C151.26 12.5552 150.738 13.0551 150.176 13.7002L148.653 15.423Z" fill="white"/>
</svg>
