<svg width="25" height="26" viewBox="0 0 25 26" fill="none" xmlns="http://www.w3.org/2000/svg">
<path d="M23.0769 0.466675H1.92308C1.41305 0.466675 0.923903 0.706122 0.563256 1.13234C0.202609 1.55856 0 2.13664 0 2.7394V23.1939C0 23.7967 0.202609 24.3748 0.563256 24.801C0.923903 25.2272 1.41305 25.4667 1.92308 25.4667H23.0769C23.587 25.4667 24.0761 25.2272 24.4367 24.801C24.7974 24.3748 25 23.7967 25 23.1939V2.7394C25 2.13664 24.7974 1.55856 24.4367 1.13234C24.0761 0.706122 23.587 0.466675 23.0769 0.466675ZM21.8341 6.95247L10.2957 20.5888C10.2064 20.6945 10.1003 20.7783 9.9836 20.8355C9.86687 20.8927 9.74174 20.9221 9.61538 20.9221C9.48902 20.9221 9.3639 20.8927 9.24717 20.8355C9.13044 20.7783 9.0244 20.6945 8.9351 20.5888L4.1274 14.907C3.94698 14.6938 3.84562 14.4046 3.84562 14.103C3.84562 13.8015 3.94698 13.5123 4.1274 13.2991C4.30783 13.0858 4.55253 12.966 4.80769 12.966C5.06285 12.966 5.30756 13.0858 5.48798 13.2991L9.61538 18.1783L20.4736 5.34452C20.654 5.13129 20.8987 5.0115 21.1538 5.0115C21.409 5.0115 21.6537 5.13129 21.8341 5.34452C22.0146 5.55774 22.1159 5.84694 22.1159 6.14849C22.1159 6.45004 22.0146 6.73924 21.8341 6.95247Z" fill="#E59A02"/>
</svg>
