<svg width="29" height="24" viewBox="0 0 29 24" fill="none" xmlns="http://www.w3.org/2000/svg">
<path d="M11.5 0.466675C13.025 0.466675 14.4875 1.07248 15.5659 2.15081C16.6442 3.22914 17.25 4.69168 17.25 6.21667C17.25 7.74167 16.6442 9.2042 15.5659 10.2825C14.4875 11.3609 13.025 11.9667 11.5 11.9667C9.97501 11.9667 8.51247 11.3609 7.43414 10.2825C6.3558 9.2042 5.75 7.74167 5.75 6.21667C5.75 4.69168 6.3558 3.22914 7.43414 2.15081C8.51247 1.07248 9.97501 0.466675 11.5 0.466675ZM11.5 14.8417C17.8538 14.8417 23 17.4148 23 20.5917V23.4667H0V20.5917C0 17.4148 5.14625 14.8417 11.5 14.8417ZM25.875 11.9667V4.77917H28.75V13.4042H25.875M25.875 19.1542V16.2792H28.75V19.1542H25.875Z" fill="#2A56A4"/>
</svg>
