<svg width="65" height="50" viewBox="0 0 65 50" fill="none" xmlns="http://www.w3.org/2000/svg">
<path d="M64.7944 49.2352L61.4885 28.8405C61.4392 28.5197 61.1595 28.2895 60.8388 28.2895H39.3257C39.0049 28.2895 38.7253 28.5197 38.676 28.8405L35.3701 49.2352C35.3618 49.2681 35.3618 49.3092 35.3618 49.3421C35.3618 49.7039 35.6579 50 36.0197 50H64.1447C64.1776 50 64.2188 50 64.2516 49.9918C64.6053 49.9342 64.852 49.597 64.7944 49.2352ZM26.1266 28.8405C26.0773 28.5197 25.7977 28.2895 25.477 28.2895H3.96382C3.64309 28.2895 3.36349 28.5197 3.31415 28.8405L0.00822356 49.2352C-1.25606e-07 49.2681 0 49.3092 0 49.3421C0 49.7039 0.296053 50 0.657895 50H28.7829C28.8158 50 28.8569 50 28.8898 49.9918C29.2516 49.9342 29.4901 49.597 29.4326 49.2352L26.1266 28.8405ZM18.4211 21.7105H46.5461C46.579 21.7105 46.6201 21.7105 46.653 21.7023C47.0148 21.6447 47.2533 21.3076 47.1957 20.9457L43.8898 0.550987C43.8405 0.230263 43.5609 0 43.2401 0H21.727C21.4063 0 21.1266 0.230263 21.0773 0.550987L17.7714 20.9457C17.7632 20.9786 17.7632 21.0197 17.7632 21.0526C17.7632 21.4145 18.0592 21.7105 18.4211 21.7105Z" fill="#EFEFEF"/>
</svg>
