<svg width="50" height="50" viewBox="0 0 50 50" fill="none" xmlns="http://www.w3.org/2000/svg">
<path d="M12.3025 25.5088H10.883C8.94582 25.4388 7.01496 25.7676 5.2102 26.4749C3.40545 27.1822 1.76532 28.2529 0.39159 29.6205L0 30.0773V43.5872H6.65704V35.9186L7.55444 34.907L7.96234 34.4338C10.0866 32.2515 12.7312 30.6456 15.6473 29.7673C14.1873 28.6564 13.0359 27.1904 12.3025 25.5088Z" fill="#EFEFEF"/>
<path d="M43.8573 29.5715C42.4836 28.204 40.8435 27.1333 39.0387 26.426C37.2339 25.7187 35.3031 25.3898 33.3659 25.4598C32.7718 25.4615 32.1782 25.4942 31.5875 25.5577C30.8403 27.1354 29.7203 28.5074 28.3242 29.5552C31.4373 30.4165 34.2574 32.1085 36.4824 34.4501L36.8903 34.907L37.7713 35.9186V43.6035H44.2V30.0284L43.8573 29.5715Z" fill="#EFEFEF"/>
<path d="M10.833 22.3271H11.3388C11.1038 20.3092 11.4578 18.2664 12.3583 16.4452C13.2587 14.6241 14.667 13.1025 16.4131 12.0642C15.7802 11.0972 14.9069 10.3112 13.8789 9.78308C12.8509 9.25498 11.7033 9.00293 10.5486 9.05159C9.39393 9.10025 8.27166 9.44796 7.29172 10.0607C6.31177 10.6734 5.50775 11.5301 4.95838 12.5469C4.40902 13.5637 4.13314 14.7058 4.15777 15.8612C4.18239 17.0167 4.50668 18.146 5.09887 19.1384C5.69106 20.1309 6.53085 20.9526 7.53601 21.523C8.54117 22.0934 9.67724 22.393 10.833 22.3924V22.3271Z" fill="#EFEFEF"/>
<path d="M22.2705 32.2964C20.1397 32.2103 18.0135 32.5563 16.0198 33.3134C14.0261 34.0704 12.2062 35.223 10.6696 36.7018L10.2617 37.1586V47.4868C10.2681 47.8232 10.3407 48.1551 10.4753 48.4635C10.61 48.7718 10.8041 49.0506 11.0465 49.284C11.2889 49.5173 11.5749 49.7006 11.8882 49.8234C12.2015 49.9462 12.5359 50.006 12.8723 49.9995H31.6197C31.9561 50.006 32.2905 49.9462 32.6038 49.8234C32.9171 49.7006 33.2031 49.5173 33.4456 49.284C33.688 49.0506 33.8821 48.7718 34.0167 48.4635C34.1514 48.1551 34.224 47.8232 34.2303 47.4868V37.1912L33.8387 36.7018C32.3121 35.2185 30.4985 34.0626 28.5093 33.3051C26.5201 32.5476 24.3971 32.2043 22.2705 32.2964Z" fill="#EFEFEF"/>
<path d="M21.8804 28.4131C23.2478 28.4052 24.5853 28.0123 25.7396 27.2793C26.8939 26.5463 27.8183 25.503 28.4069 24.2688C27.4025 24.1838 26.4358 23.8466 25.5964 23.2885C24.757 22.7304 24.0721 21.9695 23.6051 21.0762C23.1381 20.1829 22.9042 19.1862 22.925 18.1784C22.9458 17.1706 23.2207 16.1844 23.7242 15.3111L24.2952 14.3158C23.5224 14.0265 22.7056 13.872 21.8804 13.859C20.8947 13.8123 19.9098 13.9662 18.9853 14.3112C18.0607 14.6563 17.2159 15.1854 16.5018 15.8665C15.7877 16.5476 15.2192 17.3665 14.8308 18.2737C14.4424 19.1808 14.2422 20.1574 14.2422 21.1442C14.2422 22.131 14.4424 23.1076 14.8308 24.0147C15.2192 24.9219 15.7877 25.7408 16.5018 26.4219C17.2159 27.103 18.0607 27.6321 18.9853 27.9771C19.9098 28.3222 20.8947 28.4761 21.8804 28.4294V28.4131Z" fill="#EFEFEF"/>
<path d="M36.5314 1.03438L27.1984 17.1222C26.9813 17.4409 26.8567 17.8135 26.8383 18.1987C26.82 18.5839 26.9086 18.9667 27.0945 19.3046C27.2803 19.6425 27.5561 19.9224 27.8912 20.1131C28.2264 20.3039 28.6078 20.3982 28.9932 20.3855H47.6754C48.0608 20.3982 48.4422 20.3039 48.7774 20.1131C49.1125 19.9224 49.3883 19.6425 49.5741 19.3046C49.76 18.9667 49.8486 18.5839 49.8303 18.1987C49.8119 17.8135 49.6873 17.4409 49.4702 17.1222L40.1372 1.03438C39.9532 0.719564 39.6899 0.458431 39.3736 0.276958C39.0573 0.0954861 38.699 0 38.3343 0C37.9696 0 37.6113 0.0954861 37.295 0.276958C36.9787 0.458431 36.7154 0.719564 36.5314 1.03438Z" fill="#EFEFEF"/>
</svg>
