<svg width="10" height="10" viewBox="0 0 10 10" fill="none" xmlns="http://www.w3.org/2000/svg">
<path d="M4.99967 0.333313C5.61851 0.333313 6.21201 0.579146 6.64959 1.01673C7.08717 1.45432 7.33301 2.04781 7.33301 2.66665C7.33301 3.28548 7.08717 3.87898 6.64959 4.31656C6.21201 4.75415 5.61851 4.99998 4.99967 4.99998C4.38084 4.99998 3.78734 4.75415 3.34976 4.31656C2.91217 3.87898 2.66634 3.28548 2.66634 2.66665C2.66634 2.04781 2.91217 1.45432 3.34976 1.01673C3.78734 0.579146 4.38084 0.333313 4.99967 0.333313ZM4.99967 6.16665C7.57801 6.16665 9.66634 7.21081 9.66634 8.49998V9.66665H0.333008V8.49998C0.333008 7.21081 2.42134 6.16665 4.99967 6.16665Z" fill="#181818"/>
</svg>
