<svg width="20" height="15" viewBox="0 0 20 15" fill="none" xmlns="http://www.w3.org/2000/svg">
<path d="M16.8619 12.6232C16.8619 12.849 16.7092 13.0117 16.49 13.0117C16.2643 13.0117 16.1182 12.8391 16.1182 12.6232C16.1182 12.4074 16.2643 12.2348 16.49 12.2348C16.7092 12.2348 16.8619 12.4074 16.8619 12.6232ZM6.54238 12.2348C6.30664 12.2348 6.17051 12.4074 6.17051 12.6232C6.17051 12.8391 6.30664 13.0117 6.54238 13.0117C6.7582 13.0117 6.9043 12.849 6.9043 12.6232C6.90098 12.4074 6.7582 12.2348 6.54238 12.2348ZM10.4438 12.2248C10.2645 12.2248 10.1549 12.341 10.1283 12.5137H10.7625C10.7326 12.3244 10.6164 12.2248 10.4438 12.2248ZM14.023 12.2348C13.7973 12.2348 13.6611 12.4074 13.6611 12.6232C13.6611 12.8391 13.7973 13.0117 14.023 13.0117C14.2488 13.0117 14.3949 12.849 14.3949 12.6232C14.3949 12.4074 14.2488 12.2348 14.023 12.2348ZM17.5393 13.1014C17.5393 13.1113 17.5492 13.118 17.5492 13.1379C17.5492 13.1479 17.5393 13.1545 17.5393 13.1744C17.5293 13.1844 17.5293 13.191 17.5227 13.201C17.5127 13.2109 17.5061 13.2176 17.4861 13.2176C17.4762 13.2275 17.4695 13.2275 17.4496 13.2275C17.4396 13.2275 17.433 13.2275 17.4131 13.2176C17.4031 13.2176 17.3965 13.2076 17.3865 13.201C17.3766 13.191 17.3699 13.1844 17.3699 13.1744C17.36 13.1578 17.36 13.1479 17.36 13.1379C17.36 13.1213 17.36 13.1113 17.3699 13.1014C17.3699 13.0848 17.3799 13.0748 17.3865 13.0648C17.3965 13.0549 17.4031 13.0549 17.4131 13.0482C17.4297 13.0383 17.4396 13.0383 17.4496 13.0383C17.4662 13.0383 17.4762 13.0383 17.4861 13.0482C17.5027 13.0582 17.5127 13.0582 17.5227 13.0648C17.5326 13.0715 17.5293 13.0848 17.5393 13.1014ZM17.4662 13.1479C17.4828 13.1479 17.4828 13.1379 17.4928 13.1379C17.5027 13.1279 17.5027 13.1213 17.5027 13.1113C17.5027 13.1014 17.5027 13.0947 17.4928 13.0848C17.4828 13.0848 17.4762 13.0748 17.4562 13.0748H17.4031V13.191H17.4297V13.1445H17.4396L17.4762 13.191H17.5027L17.4662 13.1479ZM19.9531 1.68945V13.377C19.9531 14.2568 19.2393 14.9707 18.3594 14.9707H2.42188C1.54199 14.9707 0.828125 14.2568 0.828125 13.377V1.68945C0.828125 0.80957 1.54199 0.0957031 2.42188 0.0957031H18.3594C19.2393 0.0957031 19.9531 0.80957 19.9531 1.68945ZM2.95312 6.32461C2.95312 8.86465 5.01504 10.9232 7.55176 10.9232C8.45488 10.9232 9.34141 10.651 10.0918 10.1562C7.67129 8.1873 7.68789 4.47188 10.0918 2.50293C9.34141 2.00488 8.45488 1.73594 7.55176 1.73594C5.01504 1.73262 2.95312 3.79453 2.95312 6.32461ZM10.3906 9.93711C12.7314 8.11094 12.7215 4.55156 10.3906 2.71543C8.05977 4.55156 8.0498 8.11426 10.3906 9.93711ZM5.66582 12.4705C5.66582 12.1816 5.47656 11.9924 5.17773 11.9824C5.025 11.9824 4.8623 12.0289 4.75273 12.1982C4.67305 12.0621 4.53691 11.9824 4.34766 11.9824C4.22148 11.9824 4.09531 12.0289 3.9957 12.1617V12.0156H3.72344V13.2342H3.9957C3.9957 12.6066 3.9127 12.2314 4.29453 12.2314C4.6332 12.2314 4.5668 12.5701 4.5668 13.2342H4.8291C4.8291 12.6266 4.74609 12.2314 5.12793 12.2314C5.4666 12.2314 5.4002 12.5635 5.4002 13.2342H5.67246V12.4705H5.66582ZM7.15664 12.0156H6.89434V12.1617C6.80469 12.0521 6.67852 11.9824 6.50586 11.9824C6.16387 11.9824 5.90156 12.2547 5.90156 12.6232C5.90156 12.9951 6.16387 13.2641 6.50586 13.2641C6.67852 13.2641 6.80469 13.201 6.89434 13.0848V13.2375H7.15664V12.0156ZM8.50137 12.8656C8.50137 12.3676 7.74102 12.5934 7.74102 12.3609C7.74102 12.1717 8.13613 12.2016 8.35527 12.3244L8.46484 12.1086C8.15273 11.9061 7.46211 11.9094 7.46211 12.3809C7.46211 12.8557 8.22246 12.6564 8.22246 12.8789C8.22246 13.0881 7.77422 13.0715 7.53516 12.9055L7.41895 13.1146C7.79082 13.367 8.50137 13.3139 8.50137 12.8656ZM9.67676 13.1744L9.60371 12.9486C9.47754 13.0184 9.19863 13.0947 9.19863 12.8125V12.2613H9.63359V12.0156H9.19863V11.6437H8.92637V12.0156H8.67402V12.258H8.92637V12.8125C8.92637 13.3969 9.50078 13.2906 9.67676 13.1744ZM10.1184 12.7295H11.0314C11.0314 12.1916 10.7857 11.9791 10.4537 11.9791C10.1018 11.9791 9.84941 12.2414 9.84941 12.6199C9.84941 13.3006 10.5998 13.4135 10.9717 13.0914L10.8455 12.8922C10.5865 13.1047 10.1947 13.0848 10.1184 12.7295ZM12.0807 12.0156C11.9279 11.9492 11.6955 11.9559 11.576 12.1617V12.0156H11.3037V13.2342H11.576V12.5469C11.576 12.1617 11.8914 12.2115 12.001 12.268L12.0807 12.0156ZM12.4326 12.6232C12.4326 12.2447 12.8178 12.1219 13.1199 12.3443L13.2461 12.1285C12.8609 11.8264 12.1604 11.9924 12.1604 12.6266C12.1604 13.284 12.9041 13.4168 13.2461 13.1246L13.1199 12.9088C12.8145 13.1246 12.4326 12.9951 12.4326 12.6232ZM14.6473 12.0156H14.375V12.1617C14.0994 11.7965 13.3822 12.0023 13.3822 12.6232C13.3822 13.2607 14.126 13.4434 14.375 13.0848V13.2375H14.6473V12.0156ZM15.7662 12.0156C15.6865 11.9758 15.401 11.9193 15.2615 12.1617V12.0156H14.9992V13.2342H15.2615V12.5469C15.2615 12.1816 15.5604 12.2049 15.6865 12.268L15.7662 12.0156ZM17.1043 11.5209H16.842V12.1617C16.5697 11.7998 15.8492 11.9924 15.8492 12.6232C15.8492 13.2674 16.5963 13.44 16.842 13.0848V13.2375H17.1043V11.5209ZM17.3566 9.02734V9.18008H17.3832V9.02734H17.4463V9.00078H17.2936V9.02734H17.3566ZM17.5758 13.1379C17.5758 13.1213 17.5758 13.1014 17.5658 13.0848C17.5559 13.0748 17.5492 13.0582 17.5393 13.0482C17.5293 13.0383 17.5127 13.0316 17.5027 13.0217C17.4861 13.0217 17.4662 13.0117 17.4496 13.0117C17.4396 13.0117 17.423 13.0217 17.4031 13.0217C17.3865 13.0316 17.3766 13.0383 17.3666 13.0482C17.35 13.0582 17.34 13.0748 17.34 13.0848C17.3301 13.1014 17.3301 13.1213 17.3301 13.1379C17.3301 13.1479 17.3301 13.1645 17.34 13.1844C17.34 13.1943 17.35 13.2109 17.3666 13.2209C17.3766 13.2309 17.3832 13.2375 17.4031 13.2475C17.4197 13.2574 17.4396 13.2574 17.4496 13.2574C17.4662 13.2574 17.4861 13.2574 17.5027 13.2475C17.5127 13.2375 17.5293 13.2309 17.5393 13.2209C17.5492 13.2109 17.5559 13.1943 17.5658 13.1844C17.5758 13.1645 17.5758 13.1479 17.5758 13.1379ZM17.682 8.99746H17.6355L17.5824 9.11367L17.5293 8.99746H17.4828V9.17676H17.5094V9.04062L17.5625 9.15684H17.599L17.6455 9.04062V9.17676H17.682V8.99746ZM17.8281 6.32461C17.8281 3.79453 15.7662 1.73262 13.2295 1.73262C12.3264 1.73262 11.4398 2.00488 10.6895 2.49961C13.0834 4.46855 13.1199 8.19394 10.6895 10.1529C11.4398 10.651 12.333 10.9199 13.2295 10.9199C15.7662 10.9232 17.8281 8.86465 17.8281 6.32461Z" fill="#181818"/>
</svg>
