<svg width="50" height="50" viewBox="0 0 50 50" fill="none" xmlns="http://www.w3.org/2000/svg">
<path fill-rule="evenodd" clip-rule="evenodd" d="M0 24.9969V14.9981C0 7.92901 -1.48993e-07 4.39195 2.19723 2.19723C4.39195 -1.48993e-07 7.92901 0 14.9981 0H34.9956C42.0647 0 45.6018 -1.48993e-07 47.7965 2.19723C49.9938 4.39195 49.9938 7.92901 49.9938 14.9981V24.9969C49.9938 32.066 49.9938 35.6031 47.7965 37.7978C46.6067 38.9901 45.0219 39.5351 42.6972 39.785C42.5449 39.5818 42.3822 39.3865 42.2097 39.2001C41.8806 38.8463 41.5422 38.5012 41.1949 38.1652L37.4628 34.4857L36.0855 33.0909C35.6361 30.4756 34.2769 28.1032 32.2478 26.3931C30.2187 24.6829 27.6505 23.745 24.9969 23.745C22.3432 23.745 19.775 24.6829 17.746 26.3931C15.7169 28.1032 14.3576 30.4756 13.9083 33.0909L12.5334 34.4857L8.7989 38.1652C8.44145 38.5177 8.07399 38.8801 7.78403 39.2001C7.65904 39.3376 7.48407 39.5351 7.29909 39.785C4.97188 39.5351 3.38708 38.9901 2.19723 37.7978C-1.48993e-07 35.6031 0 32.066 0 24.9969ZM17.4978 8.12399C17.0006 8.12399 16.5237 8.3215 16.1722 8.67309C15.8206 9.02468 15.623 9.50153 15.623 9.99875C15.623 10.496 15.8206 10.9728 16.1722 11.3244C16.5237 11.676 17.0006 11.8735 17.4978 11.8735H32.4959C32.9932 11.8735 33.47 11.676 33.8216 11.3244C34.1732 10.9728 34.3707 10.496 34.3707 9.99875C34.3707 9.50153 34.1732 9.02468 33.8216 8.67309C33.47 8.3215 32.9932 8.12399 32.4959 8.12399H17.4978ZM10.6237 18.7477C10.6237 18.2504 10.8212 17.7736 11.1728 17.422C11.5244 17.0704 12.0012 16.8729 12.4984 16.8729H37.4953C37.9925 16.8729 38.4694 17.0704 38.821 17.422C39.1726 17.7736 39.3701 18.2504 39.3701 18.7477C39.3701 19.2449 39.1726 19.7217 38.821 20.0733C38.4694 20.4249 37.9925 20.6224 37.4953 20.6224H12.4984C12.0012 20.6224 11.5244 20.4249 11.1728 20.0733C10.8212 19.7217 10.6237 19.2449 10.6237 18.7477Z" fill="#EFEFEF"/>
<path d="M32.4942 34.9956C32.4942 36.9845 31.7041 38.8919 30.2978 40.2983C28.8914 41.7046 26.984 42.4947 24.9952 42.4947C23.0063 42.4947 21.0989 41.7046 19.6925 40.2983C18.2862 38.8919 17.4961 36.9845 17.4961 34.9956C17.4961 33.0067 18.2862 31.0993 19.6925 29.693C21.0989 28.2866 23.0063 27.4966 24.9952 27.4966C26.984 27.4966 28.8914 28.2866 30.2978 29.693C31.7041 31.0993 32.4942 33.0067 32.4942 34.9956Z" fill="#EFEFEF"/>
<path d="M17.4985 34.7881L17.496 34.9956C17.4996 36.9755 18.2859 38.8737 19.6836 40.276C21.0812 41.6783 22.9767 42.471 24.9566 42.4812C26.9365 42.4913 28.84 41.7181 30.252 40.3302C31.6639 38.9423 32.4698 37.0523 32.4936 35.0726C32.5175 33.0928 31.7574 31.184 30.3793 29.7624C29.0012 28.3409 27.1168 27.5221 25.1373 27.4845C23.1578 27.447 21.2437 28.1938 19.8127 29.562C18.3816 30.9303 17.5498 32.8089 17.4985 34.7881ZM14.1864 38.1202L11.4868 40.7824C10.6744 41.5823 10.2694 41.9823 10.1295 42.3172C9.97046 42.6768 9.9488 43.0822 10.0686 43.4567C10.1883 43.8312 10.4412 44.1488 10.7794 44.3495C11.0843 44.5269 11.6343 44.5819 12.7366 44.6944C13.3565 44.7569 13.669 44.7869 13.929 44.8819C14.2143 44.9849 14.4738 45.1487 14.6896 45.3619C14.9054 45.5751 15.0723 45.8327 15.1788 46.1167C15.2763 46.3742 15.3088 46.6792 15.3713 47.2916C15.4838 48.379 15.5413 48.9214 15.7213 49.2238C15.9314 49.5592 16.2547 49.8081 16.6325 49.9255C17.0104 50.0429 17.4179 50.021 17.781 49.8638C18.1235 49.7238 18.5309 49.3263 19.3383 48.5264L22.038 45.8518C20.1766 45.3426 18.4772 44.364 17.1025 43.0098C15.7277 41.6557 14.7236 39.9737 14.1864 38.1202ZM27.9497 45.8518L30.6494 48.5264C31.4618 49.3263 31.8667 49.7263 32.2092 49.8638C32.9916 50.1787 33.859 49.9088 34.2689 49.2238C34.4489 48.9239 34.5064 48.379 34.6189 47.2941C34.6814 46.6792 34.7139 46.3742 34.8114 46.1192C34.9177 45.8348 35.0845 45.5769 35.3003 45.3632C35.5161 45.1496 35.7757 44.9854 36.0612 44.8819C36.3237 44.7869 36.6336 44.7569 37.2536 44.6944C38.3534 44.5819 38.9059 44.5269 39.2108 44.3495C39.549 44.1488 39.8019 43.8312 39.9216 43.4567C40.0414 43.0822 40.0197 42.6768 39.8607 42.3172C39.7208 41.9798 39.3158 41.5798 38.5059 40.7824L35.8062 38.1177C35.2686 39.9718 34.2638 41.6566 32.8881 43.0109C31.5124 44.3651 29.812 45.3433 27.9497 45.8518Z" fill="#EFEFEF"/>
</svg>
