<svg width="21" height="15" viewBox="0 0 21 15" fill="none" xmlns="http://www.w3.org/2000/svg">
<path d="M7.15449 7.57305C7.15449 7.97813 6.83242 8.28691 6.42402 8.28691C6.11855 8.28691 5.89277 8.11426 5.89277 7.78887C5.89277 7.38379 6.2082 7.0584 6.61328 7.0584C6.92207 7.0584 7.15449 7.24766 7.15449 7.57305ZM3.6416 5.9627H3.48555C3.43574 5.9627 3.38594 5.9959 3.3793 6.05234L3.23652 6.93887L3.50879 6.92891C3.87402 6.92891 4.15625 6.8791 4.22266 6.45742C4.29902 6.0125 4.0168 5.9627 3.6416 5.9627ZM13.0713 5.9627H12.9219C12.8621 5.9627 12.8223 5.9959 12.8156 6.05234L12.6762 6.93887L12.9418 6.92891C13.3734 6.92891 13.6723 6.8293 13.6723 6.33125C13.6689 5.9793 13.3535 5.9627 13.0713 5.9627ZM20.0938 1.65625V13.3438C20.0938 14.2236 19.3799 14.9375 18.5 14.9375H2.5625C1.68262 14.9375 0.96875 14.2236 0.96875 13.3438V1.65625C0.96875 0.776367 1.68262 0.0625 2.5625 0.0625H18.5C19.3799 0.0625 20.0938 0.776367 20.0938 1.65625ZM5.22871 6.15195C5.22871 5.45469 4.69082 5.22227 4.07656 5.22227H2.74844C2.66543 5.22227 2.58242 5.28867 2.57578 5.37832L2.03125 8.76836C2.02129 8.83477 2.07109 8.90117 2.1375 8.90117H2.76836C2.85801 8.90117 2.94102 8.80488 2.95098 8.71191L3.10039 7.82871C3.13359 7.58965 3.53867 7.67266 3.69805 7.67266C4.64766 7.67266 5.22871 7.1082 5.22871 6.15195ZM8.02441 6.44414H7.39355C7.26738 6.44414 7.26074 6.62676 7.2541 6.71641C7.06152 6.43418 6.78262 6.38437 6.46719 6.38437C5.65371 6.38437 5.03281 7.09824 5.03281 7.88516C5.03281 8.53262 5.43789 8.9543 6.08535 8.9543C6.38418 8.9543 6.75605 8.7916 6.96523 8.55918C6.94863 8.60898 6.93203 8.71523 6.93203 8.76504C6.93203 8.84141 6.96523 8.89785 7.03828 8.89785H7.60938C7.69902 8.89785 7.77539 8.80156 7.79199 8.70859L8.13066 6.57363C8.14062 6.51055 8.09082 6.44414 8.02441 6.44414ZM9.36914 9.69473L11.4842 6.62012C11.5008 6.60352 11.5008 6.58691 11.5008 6.56367C11.5008 6.50723 11.451 6.44746 11.3945 6.44746H10.757C10.7006 6.44746 10.6408 6.48066 10.6076 6.53047L9.72773 7.82539L9.3625 6.58027C9.33594 6.50723 9.26289 6.44746 9.17988 6.44746H8.55898C8.50254 6.44746 8.45273 6.50723 8.45273 6.56367C8.45273 6.60352 9.1002 8.44961 9.15664 8.62559C9.06699 8.75176 8.47598 9.5752 8.47598 9.6748C8.47598 9.73457 8.52578 9.78106 8.58223 9.78106H9.21973C9.27949 9.77773 9.33594 9.74453 9.36914 9.69473ZM14.6584 6.15195C14.6584 5.45469 14.1205 5.22227 13.5063 5.22227H12.1881C12.0984 5.22227 12.0154 5.28867 12.0055 5.37832L11.4676 8.76504C11.4609 8.83145 11.5107 8.89785 11.5738 8.89785H12.2545C12.3209 8.89785 12.3707 8.84805 12.3873 8.7916L12.5367 7.82871C12.5699 7.58965 12.975 7.67266 13.1344 7.67266C14.0773 7.67266 14.6584 7.1082 14.6584 6.15195ZM17.4541 6.44414H16.8232C16.6971 6.44414 16.6904 6.62676 16.6805 6.71641C16.4979 6.43418 16.2156 6.38437 15.8936 6.38437C15.0801 6.38437 14.4592 7.09824 14.4592 7.88516C14.4592 8.53262 14.8643 8.9543 15.5117 8.9543C15.8205 8.9543 16.1924 8.7916 16.3916 8.55918C16.3816 8.60898 16.3584 8.71523 16.3584 8.76504C16.3584 8.84141 16.3916 8.89785 16.4646 8.89785H17.0391C17.1287 8.89785 17.2051 8.80156 17.2217 8.70859L17.5604 6.57363C17.5703 6.51055 17.5205 6.44414 17.4541 6.44414ZM19.0312 5.33848C19.0312 5.27207 18.9814 5.22227 18.925 5.22227H18.3107C18.2609 5.22227 18.2111 5.26211 18.2045 5.31191L17.6666 8.76504L17.6566 8.78164C17.6566 8.84141 17.7064 8.89785 17.7729 8.89785H18.3207C18.4037 8.89785 18.4867 8.80156 18.4934 8.70859L19.0312 5.34844V5.33848ZM16.043 7.0584C15.6379 7.0584 15.3225 7.38047 15.3225 7.78887C15.3225 8.11094 15.5549 8.28691 15.8604 8.28691C16.2588 8.28691 16.5809 7.98145 16.5809 7.57305C16.5842 7.24766 16.3518 7.0584 16.043 7.0584Z" fill="#181818"/>
</svg>
