<svg width="42" height="42" viewBox="0 0 42 42" fill="none" xmlns="http://www.w3.org/2000/svg">
<path fill-rule="evenodd" clip-rule="evenodd" d="M42 0H0V42H42V0ZM21.6758 19.591C21.0739 20.1929 20.2257 20.7127 19.1313 21.1505L19.2408 25.3092H20.7182L20.8003 22.2175C21.8947 21.7433 22.8249 21.2143 23.591 20.6306C24.3753 20.047 24.9772 19.3721 25.3967 18.606C25.8162 17.8399 26.026 16.9553 26.026 15.9521C26.026 14.9124 25.7706 14.0278 25.2599 13.2982C24.7674 12.5504 24.0743 11.985 23.1806 11.6019C22.2868 11.2006 21.2654 11 20.1163 11C19.2408 11 18.4838 11.0821 17.8454 11.2462C17.207 11.3922 16.6781 11.611 16.2586 11.9029C15.839 12.1947 15.5198 12.5321 15.301 12.9152C15.1003 13.2982 15 13.7086 15 14.1464C15 14.7118 15.2098 15.1404 15.6293 15.4323C16.067 15.7241 16.6142 15.87 17.2709 15.87C17.2709 15.2316 17.3621 14.648 17.5445 14.119C17.7451 13.5901 18.0734 13.1614 18.5294 12.8331C18.9854 12.5048 19.5873 12.3406 20.3352 12.3406C21.0465 12.3406 21.6211 12.4774 22.0588 12.751C22.5148 13.0064 22.8431 13.3712 23.0438 13.8454C23.2627 14.3014 23.3721 14.8486 23.3721 15.487C23.3721 16.2166 23.2444 16.9371 22.9891 17.6484C22.7337 18.3415 22.2959 18.9891 21.6758 19.591ZM18.6936 30.5896C19.0401 30.8632 19.4505 31 19.9248 31C20.399 31 20.8003 30.8632 21.1286 30.5896C21.4751 30.316 21.6484 29.8326 21.6484 29.1395C21.6484 28.4282 21.4751 27.9448 21.1286 27.6895C20.8003 27.4159 20.399 27.2791 19.9248 27.2791C19.4505 27.2791 19.0401 27.4159 18.6936 27.6895C18.3653 27.9448 18.2011 28.4282 18.2011 29.1395C18.2011 29.8326 18.3653 30.316 18.6936 30.5896Z" fill="#181818"/>
</svg>
