<svg width="42" height="42" viewBox="0 0 42 42" fill="none" xmlns="http://www.w3.org/2000/svg">
<g clip-path="url(#clip0_286_105)">
<path fill-rule="evenodd" clip-rule="evenodd" d="M21 0C16.8466 0 12.7865 1.23163 9.33303 3.53914C5.8796 5.84665 3.18798 9.1264 1.59854 12.9636C0.00909889 16.8009 -0.406771 21.0233 0.403519 25.0969C1.21381 29.1705 3.21386 32.9123 6.15077 35.8492C9.08767 38.7861 12.8295 40.7862 16.9031 41.5965C20.9767 42.4068 25.1991 41.9909 29.0364 40.4015C32.8736 38.812 36.1534 36.1204 38.4609 32.667C40.7684 29.2135 42 25.1534 42 21C42 15.4305 39.7875 10.089 35.8493 6.15076C31.911 2.21249 26.5696 0 21 0ZM21 30.14C18.9238 30.1362 16.9292 29.3314 15.4317 27.8933C13.9342 26.4552 13.0495 24.4947 12.9618 22.4203C12.8741 20.346 13.5903 18.3178 14.9611 16.7585C16.3319 15.1992 18.2515 14.2289 20.32 14.05V12.49C20.3284 12.3737 20.3634 12.2609 20.4224 12.1604C20.4813 12.0598 20.5626 11.9741 20.66 11.91C20.7712 11.8699 20.8848 11.8365 21 11.81C21.1 11.81 21.24 11.81 21.34 11.91L25.13 14.1C25.221 14.1669 25.2949 14.2543 25.3459 14.355C25.3968 14.4558 25.4234 14.5671 25.4234 14.68C25.4234 14.7929 25.3968 14.9042 25.3459 15.005C25.2949 15.1057 25.221 15.1931 25.13 15.26L21.34 17.45C21.2385 17.515 21.1205 17.5496 21 17.5496C20.8795 17.5496 20.7615 17.515 20.66 17.45C20.5616 17.387 20.4794 17.3017 20.4203 17.2008C20.3612 17.1 20.3269 16.9867 20.32 16.87V15.36C19.017 15.4896 17.7796 15.9943 16.7576 16.8129C15.7356 17.6315 14.973 18.729 14.562 19.9722C14.1511 21.2155 14.1096 22.5513 14.4424 23.8177C14.7753 25.0841 15.4683 26.2268 16.4374 27.1074C17.4065 27.9879 18.6102 28.5685 19.9026 28.7789C21.1951 28.9892 22.5208 28.8202 23.7191 28.2923C24.9174 27.7645 25.9369 26.9005 26.6542 25.805C27.3714 24.7094 27.7555 23.4294 27.76 22.12C27.756 22.0338 27.7692 21.9477 27.7988 21.8666C27.8284 21.7856 27.8738 21.7113 27.9325 21.648C27.9911 21.5847 28.0618 21.5337 28.1403 21.498C28.2189 21.4623 28.3038 21.4426 28.39 21.44C28.4801 21.4372 28.5697 21.4529 28.6535 21.4861C28.7372 21.5193 28.8133 21.5693 28.877 21.633C28.9407 21.6967 28.9907 21.7728 29.0239 21.8565C29.0571 21.9403 29.0728 22.03 29.07 22.12C29.0568 24.2516 28.2007 26.2914 26.6888 27.7941C25.1768 29.2967 23.1317 30.14 21 30.14Z" fill="#212529"/>
</g>
<defs>
<clipPath id="clip0_286_105">
<rect width="42" height="42" fill="white"/>
</clipPath>
</defs>
</svg>
