<svg width="50" height="50" viewBox="0 0 50 50" fill="none" xmlns="http://www.w3.org/2000/svg">
<path d="M34.0909 31.8182H18.1818V27.2727H34.0909V31.8182ZM40.9091 22.7273H18.1818V18.1818H40.9091V22.7273ZM40.9091 13.6364H18.1818V9.09091H40.9091V13.6364ZM4.54545 9.09091V45.4545H40.9091V50H4.54545C3.33992 50 2.18377 49.5211 1.33133 48.6687C0.478895 47.8162 0 46.6601 0 45.4545V9.09091H4.54545ZM45.4545 0C46.6601 0 47.8162 0.478895 48.6687 1.33133C49.5211 2.18377 50 3.33992 50 4.54545V36.3636C50 38.8864 47.9773 40.9091 45.4545 40.9091H13.6364C12.4308 40.9091 11.2747 40.4302 10.4222 39.5778C9.5698 38.7253 9.09091 37.5692 9.09091 36.3636V4.54545C9.09091 2.02273 11.1136 0 13.6364 0H45.4545ZM13.6364 4.54545V36.3636H45.4545V4.54545H13.6364Z" fill="#EFEFEF"/>
</svg>
