<svg width="14" height="14" viewBox="0 0 14 14" fill="none" xmlns="http://www.w3.org/2000/svg">
<path d="M13.2106 2.30136C13.2054 2.29609 12.1366 3.35254 10.0097 5.47597L8.51729 3.98359L11.6972 0.803707C10.0237 -0.203519 7.87393 0.0548792 6.47998 1.44882C5.94714 1.98137 5.56369 2.64465 5.36808 3.37215C5.17248 4.09965 5.1716 4.8658 5.36553 5.59375L5.39717 5.71152L0.41377 10.6932C0.304785 10.8021 0.304785 10.9814 0.41377 11.0904L2.89932 13.576C3.0083 13.685 3.1876 13.685 3.29658 13.576L8.27647 8.59609L8.39424 8.62773C9.86553 9.01972 11.4458 8.61191 12.5427 7.51503C13.9384 6.12109 14.1968 3.97129 13.2106 2.30136Z" fill="#ffffff"/>
</svg>
