<svg width="21" height="15" viewBox="0 0 21 15" fill="none" xmlns="http://www.w3.org/2000/svg">
<path d="M16.5072 6.67988C16.5072 6.67988 16.7596 7.91504 16.816 8.17402H15.707C15.8166 7.87852 16.2383 6.72969 16.2383 6.72969C16.2316 6.73965 16.3479 6.42754 16.4143 6.23496L16.5072 6.67988ZM20.0234 1.65625V13.3438C20.0234 14.2236 19.3096 14.9375 18.4297 14.9375H2.49219C1.6123 14.9375 0.898438 14.2236 0.898438 13.3438V1.65625C0.898438 0.776367 1.6123 0.0625 2.49219 0.0625H18.4297C19.3096 0.0625 20.0234 0.776367 20.0234 1.65625ZM5.96191 9.99688L8.06035 4.84375H6.64922L5.34434 8.36328L5.20156 7.64941L4.73672 5.27871C4.66035 4.95 4.42461 4.85703 4.13242 4.84375H1.98418L1.96094 4.94668C2.48555 5.07949 2.95371 5.27207 3.36211 5.51445L4.55078 9.99688H5.96191ZM9.09629 10.0035L9.93301 4.84375H8.59824L7.76484 10.0035H9.09629ZM13.7414 8.3168C13.748 7.7291 13.3895 7.28086 12.6225 6.9123C12.1543 6.67656 11.8687 6.51719 11.8687 6.27481C11.8754 6.05566 12.1111 5.82988 12.6357 5.82988C13.0707 5.81992 13.3895 5.92285 13.6285 6.02578L13.748 6.08223L13.9307 4.9666C13.6684 4.86367 13.25 4.74746 12.7354 4.74746C11.4172 4.74746 10.4908 5.45137 10.4842 6.4541C10.4742 7.19453 11.1482 7.60625 11.6529 7.85527C12.1676 8.10762 12.3436 8.27363 12.3436 8.49609C12.3369 8.84141 11.9252 9.00078 11.5434 9.00078C11.0121 9.00078 10.7266 8.91777 10.2916 8.72519L10.1156 8.64219L9.92969 9.80098C10.2418 9.94375 10.8195 10.0699 11.4172 10.0766C12.8184 10.0799 13.7314 9.38594 13.7414 8.3168ZM18.4297 10.0035L17.3539 4.84375H16.3213C16.0025 4.84375 15.7602 4.93672 15.624 5.27207L13.6418 10.0035H15.043C15.043 10.0035 15.2721 9.36602 15.3219 9.22988H17.0352C17.075 9.4125 17.1945 10.0035 17.1945 10.0035H18.4297Z" fill="#181818"/>
</svg>
