<?xml version="1.0" encoding="UTF-8"?><svg id="Ebene_2" xmlns="http://www.w3.org/2000/svg" viewBox="0 0 51 51"><defs><style>.cls-1{fill:#3e3940;stroke-linecap:round;stroke-linejoin:round;stroke-width:.25px;}.cls-1,.cls-2{stroke:#3e3940;}.cls-2{fill:#27e34f;fill-rule:evenodd;stroke-miterlimit:10;}</style></defs><g id="Layer_4"><g><path class="cls-2" d="M21.1,41.98c-.93,0-1.75,.55-1.75,1.23,0,.14,0,.27,.06,.41h11.61c.06-.14,.06-.27,.06-.41,0-.68-.82-1.23-1.75-1.23h-.7v-7.28h.7c.93,0,1.75-.59,1.75-1.28,0-.36-.17-.68-.52-.91-.53,.09-.99,.18-1.52,.23v-1.82c5.54-1,9.86-4.6,10.68-9.06,2.1-.14,3.97-.87,5.54-2.09,5.43-4.28,5.25-13.89,5.25-14.25,0-.77-.82-1.37-1.75-1.37h-8.93V1.18c0-.36-.41-.68-.88-.68H12.05c-.47,0-.88,.32-.88,.68v2.96H2.25c-.93,0-1.75,.59-1.75,1.37,0,.37-.17,9.97,5.19,14.25,1.57,1.23,3.5,1.96,5.6,2.09,.82,4.46,5.13,8.06,10.68,9.06v1.91l-.17-.05c-.64-.05-1.28-.18-1.93-.27-.35,.23-.52,.55-.52,.91,0,.68,.82,1.28,1.75,1.28h.7v7.28h-.7Zm16.63,8.13v-4.44c0-.26-.29-.44-.64-.44h-1.81c-.35,0-.64-.17-.64-.44v-.74c0-.26-.29-.44-.7-.44H16.43c-.41,0-.7,.17-.7,.44v.74c0,.26-.29,.44-.64,.44h-1.75c-.41,0-.7,.17-.7,.44v4.44c0,.22,.29,.39,.7,.39h23.74c.35,0,.64-.17,.64-.39h0ZM5.15,8.17h5.92v9.71c-.93-.11-1.71-.44-2.45-.98-2.59-1.96-3.38-6.29-3.47-8.73h0Zm40.78,0c-.1,2.44-.92,6.76-3.64,8.73-.77,.55-1.59,.87-2.57,.98V8.17h6.21Z"/><path class="cls-1" d="M28.27,7.05v9.08h1.61v2.66h-1.61v3.38h-3.19v-3.38h-6.52v-2.38c.32-.64,.72-1.36,1.2-2.17,.48-.81,1.01-1.64,1.6-2.49,.59-.85,1.21-1.68,1.87-2.5,.65-.81,1.31-1.55,1.96-2.2h3.08Zm-3.19,3.97c-.57,.74-1.17,1.55-1.81,2.42-.64,.87-1.18,1.77-1.62,2.68h3.43v-5.11Z"/></g></g></svg>