<svg width="932" height="401" viewBox="0 0 932 401" fill="none" xmlns="http://www.w3.org/2000/svg">
<rect width="932" height="401" fill="#E1E5F2"/>
<g clip-path="url(#clip0_2596_22414)">
<path d="M257.396 83H253.314V314.336H257.396V83Z" fill="#D0E0F5"/>
<path d="M340.399 83H336.317V314.336H340.399V83Z" fill="#D0E0F5"/>
<path d="M423.429 83H419.347V314.336H423.429V83Z" fill="#D0E0F5"/>
<path d="M13.4974 83H9.41534V314.336H13.4974V83Z" fill="#D0E0F5"/>
<path d="M96.528 83H92.4459V314.336H96.528V83Z" fill="#D0E0F5"/>
<path d="M179.558 83H175.476V314.336H179.558V83Z" fill="#D0E0F5"/>
<path d="M506.46 83H502.378V314.336H506.46V83Z" fill="#D0E0F5"/>
<path d="M589.49 83H585.408V314.336H589.49V83Z" fill="#D0E0F5"/>
<path d="M672.521 83H668.439V314.336H672.521V83Z" fill="#D0E0F5"/>
<path d="M755.524 83H751.442V314.336H755.524V83Z" fill="#D0E0F5"/>
<path d="M838.554 83H834.472V314.336H838.554V83Z" fill="#D0E0F5"/>
<path d="M921.585 83H917.503V314.336H921.585V83Z" fill="#D0E0F5"/>
<path opacity="0.3" d="M920.474 175.396H919.558C886.79 175.396 869.989 254.081 836.527 254.081C803.065 254.081 776.989 216.223 753.497 216.223C730.004 216.223 696.458 157.938 670.466 157.938C644.474 157.938 617.093 100.708 587.463 100.708C557.833 100.708 528.481 218.221 504.433 218.221C480.384 218.221 450.088 191.771 421.402 191.771C392.716 191.771 365.558 271.483 338.372 271.483C330.041 271.483 298.328 211.588 255.341 199.848C232.515 193.603 203.079 123.383 177.587 116.056C148.873 107.979 121.132 203.706 94.473 202.901C48.598 201.541 9.41534 288.386 9.41534 288.386V314.309H923.168C917.919 268.957 920.307 220.941 920.474 175.396Z" fill="white"/>
<path d="M920.28 173.287H919.558C902.146 173.287 889.233 193.603 876.765 213.281C864.713 232.293 852.217 251.971 836.527 251.971C818.949 251.971 802.954 240.869 788.819 230.989C776.462 222.413 764.826 214.336 753.497 214.336C742.944 214.336 729.004 200.458 715.564 186.97C700.374 171.788 684.684 156.106 670.466 156.106C658.747 156.106 646.307 143.145 633.144 129.434C618.704 114.252 603.625 98.6538 587.463 98.6538C570.579 98.6538 554.917 131.46 539.811 163.184C527.37 189.246 514.541 216.195 504.433 216.195C493.325 216.195 480.745 210.284 467.388 204.039C452.365 196.989 436.842 189.745 421.402 189.745C405.962 189.745 391.189 210.867 376.971 231.377C364.003 250.14 350.59 269.568 338.288 269.568C336.317 269.318 329.958 261.436 324.404 254.442C308.825 235.152 285.249 205.982 255.924 197.988C245.511 195.213 232.626 176.645 220.185 158.771C206.3 138.815 191.916 118.165 178.114 114.197C176.771 113.794 175.379 113.57 173.977 113.53C158.954 113.53 145.513 135.734 131.295 159.326C118.938 179.753 106.303 200.958 94.5563 200.958H93.4178C52.0414 200.958 17.4129 267.209 9.41534 283.723V293.021C9.58196 292.66 14.1917 283.334 14.3861 282.974C24.4386 263.212 56.9566 204.927 93.4178 204.927H94.8063C108.469 204.927 121.243 183.778 134.794 161.38C148.679 138.177 163.536 114.197 176.948 117.999C189.361 121.552 203.301 141.591 216.797 160.963C230.293 180.336 242.984 198.571 254.925 201.818C282.972 209.479 306.048 237.9 321.321 256.912C330.624 268.43 334.901 273.565 338.483 273.565C352.978 273.565 366.252 254.136 380.581 233.625C394.077 214.197 408.045 193.853 421.513 193.853C436.037 193.853 451.143 200.93 465.75 207.73C479.635 214.169 492.575 220.275 504.627 220.275C517.318 220.275 529.62 194.63 543.699 164.96C557.583 135.79 573.329 102.762 587.658 102.762C601.987 102.762 616.455 117.721 630.367 132.182C644.279 146.642 657.192 160.103 670.66 160.103C683.184 160.103 698.263 175.174 712.842 189.773C727.421 204.372 741.445 218.36 753.691 218.36C763.716 218.36 774.879 226.104 786.681 234.319C801.288 244.505 817.866 256.051 836.666 256.051C854.605 256.051 867.712 235.402 880.375 215.418C892.094 196.795 904.395 177.366 919.558 177.366H919.891C919.853 175.996 919.984 174.626 920.28 173.287Z" fill="white"/>
<path d="M919.724 222.579C917.552 223.117 915.325 223.396 913.087 223.411C902.563 223.411 891.038 218.027 879.764 212.809C868.49 207.591 857.826 202.595 847.829 202.595C845.542 202.578 843.263 202.868 841.053 203.456C811.729 211.477 788.153 240.647 772.574 259.909C767.02 266.903 760.522 274.813 758.689 275.035C746.332 275.035 732.919 255.607 719.812 236.872C705.705 216.445 691.126 195.24 675.52 195.24C659.914 195.24 644.696 202.595 629.812 209.617C616.427 215.862 603.819 221.774 592.767 221.774C581.715 221.774 569.885 215.612 557.167 209.09C542.505 201.541 527.315 193.741 511.236 193.741C496.463 193.741 481.606 185.415 467.249 177.089C452.893 168.762 439.841 161.546 426.734 161.546C412.988 161.546 396.188 167.93 379.665 174.119C364.169 179.947 349.563 185.471 338.511 185.471C327.458 185.471 317.545 191.882 307.27 198.654C295.051 206.758 282.277 215.113 264.811 215.113C247.344 215.113 234.042 232.348 221.601 248.946C209.161 265.543 198.081 280.559 182.724 280.559C166.396 280.559 149.401 250.417 134.294 223.8C119.688 198.016 107.08 175.756 94.3064 175.756C81.5325 175.756 56.1512 187.136 29.4926 199.209C22.8557 202.345 16.1078 205.371 9.38757 208.229V212.698C16.4132 209.673 23.8277 206.314 31.3254 202.928C56.4567 191.577 82.3933 179.836 94.473 179.836C104.859 179.836 118.105 203.206 130.879 225.826C147.263 254.747 164.202 284.666 182.891 284.666C200.191 284.666 212.771 267.736 224.961 251.36C236.708 235.568 248.871 219.22 264.672 219.22C283.499 219.22 297.273 210.117 309.408 202.096C319.544 195.379 328.319 189.578 338.372 189.578C350.146 189.578 365.141 184.027 380.97 177.977C396.798 171.926 413.599 165.654 426.595 165.654C438.619 165.654 451.587 172.953 465.083 180.697C479.912 189.023 495.241 197.794 511.097 197.794C526.176 197.794 540.922 205.371 555.167 212.698C568.302 219.442 580.743 225.826 592.628 225.826C604.514 225.826 617.621 219.748 631.505 213.281C646.14 206.453 661.246 199.403 675.77 199.403C689.238 199.403 703.206 219.637 716.702 239.176C730.892 259.715 744.305 279.115 758.8 279.115C762.383 279.115 766.659 274.036 775.962 262.462C791.235 243.589 814.311 215.029 842.359 207.369C844.214 206.87 846.13 206.627 848.051 206.647C857.16 206.647 867.49 211.421 878.264 216.5C889.816 221.885 901.757 227.602 913.198 227.602C915.451 227.588 917.695 227.327 919.891 226.825C919.66 225.422 919.604 223.996 919.724 222.579Z" fill="#BFDBF7"/>
<path d="M17.9128 311.561C17.9018 312.839 17.5123 314.085 16.7935 315.141C16.0746 316.198 15.0587 317.018 13.8739 317.498C12.689 317.979 11.3885 318.097 10.1363 317.839C8.88411 317.581 7.73649 316.958 6.83828 316.049C5.94007 315.139 5.33153 313.984 5.08949 312.73C4.84744 311.475 4.98274 310.177 5.4783 308.999C5.97386 307.821 6.80747 306.816 7.87391 306.111C8.94034 305.406 10.1918 305.033 11.4703 305.039C12.3234 305.039 13.168 305.208 13.9551 305.537C14.7422 305.865 15.4562 306.347 16.0555 306.954C16.6549 307.561 17.1277 308.28 17.4465 309.071C17.7653 309.862 17.9238 310.708 17.9128 311.561Z" fill="#BFDBF7"/>
<path d="M100.943 311.561C100.932 312.838 100.544 314.082 99.826 315.139C99.1084 316.195 98.094 317.015 96.9108 317.496C95.7276 317.977 94.4285 318.097 93.177 317.841C91.9256 317.586 90.7779 316.965 89.8786 316.059C88.9792 315.152 88.3685 314 88.1233 312.747C87.8781 311.494 88.0094 310.197 88.5008 309.018C88.9921 307.84 89.8214 306.833 90.8842 306.125C91.947 305.417 93.1957 305.039 94.473 305.039C95.3284 305.035 96.1761 305.201 96.9664 305.529C97.7567 305.856 98.474 306.337 99.0763 306.944C99.6786 307.551 100.154 308.272 100.474 309.065C100.795 309.858 100.954 310.706 100.943 311.561Z" fill="#BFDBF7"/>
<path d="M183.974 311.561C183.963 312.838 183.574 314.082 182.856 315.139C182.139 316.195 181.125 317.015 179.941 317.496C178.758 317.977 177.459 318.097 176.208 317.841C174.956 317.586 173.808 316.965 172.909 316.059C172.01 315.152 171.399 314 171.154 312.747C170.909 311.494 171.04 310.197 171.531 309.018C172.023 307.84 172.852 306.833 173.915 306.125C174.977 305.417 176.226 305.039 177.504 305.039C178.359 305.035 179.207 305.201 179.997 305.529C180.787 305.856 181.505 306.337 182.107 306.944C182.709 307.551 183.184 308.272 183.505 309.065C183.825 309.858 183.985 310.706 183.974 311.561Z" fill="#BFDBF7"/>
<path d="M261.811 311.561C261.8 312.838 261.412 314.082 260.694 315.139C259.977 316.195 258.962 317.015 257.779 317.496C256.596 317.977 255.297 318.097 254.045 317.841C252.794 317.586 251.646 316.965 250.747 316.059C249.847 315.152 249.237 314 248.991 312.747C248.746 311.494 248.878 310.197 249.369 309.018C249.86 307.84 250.69 306.833 251.752 306.125C252.815 305.417 254.064 305.039 255.341 305.039C256.197 305.035 257.044 305.201 257.835 305.529C258.625 305.856 259.342 306.337 259.944 306.944C260.547 307.551 261.022 308.272 261.343 309.065C261.663 309.858 261.823 310.706 261.811 311.561Z" fill="#BFDBF7"/>
<path d="M344.842 311.561C344.831 312.838 344.442 314.082 343.725 315.139C343.007 316.195 341.993 317.015 340.809 317.496C339.626 317.977 338.327 318.097 337.076 317.841C335.824 317.586 334.677 316.965 333.777 316.059C332.878 315.152 332.267 314 332.022 312.747C331.777 311.494 331.908 310.197 332.399 309.018C332.891 307.84 333.72 306.833 334.783 306.125C335.846 305.417 337.094 305.039 338.372 305.039C339.227 305.035 340.075 305.201 340.865 305.529C341.655 305.856 342.373 306.337 342.975 306.944C343.577 307.551 344.053 308.272 344.373 309.065C344.694 309.858 344.853 310.706 344.842 311.561Z" fill="#BFDBF7"/>
<path d="M427.872 311.561C427.861 312.843 427.469 314.094 426.745 315.152C426.021 316.211 424.998 317.031 423.807 317.508C422.616 317.984 421.309 318.096 420.054 317.829C418.799 317.562 417.652 316.928 416.759 316.007C415.865 315.087 415.266 313.921 415.036 312.66C414.807 311.398 414.958 310.096 415.471 308.92C415.984 307.745 416.834 306.748 417.915 306.057C418.996 305.366 420.258 305.011 421.541 305.039C423.243 305.075 424.861 305.78 426.046 307.001C427.231 308.222 427.887 309.86 427.872 311.561Z" fill="#BFDBF7"/>
<path d="M510.875 311.561C510.864 312.839 510.475 314.085 509.756 315.141C509.037 316.198 508.021 317.018 506.836 317.498C505.651 317.979 504.351 318.097 503.099 317.839C501.847 317.581 500.699 316.958 499.801 316.049C498.903 315.139 498.294 313.984 498.052 312.73C497.81 311.475 497.945 310.177 498.441 308.999C498.936 307.821 499.77 306.816 500.836 306.111C501.903 305.406 503.154 305.033 504.433 305.039C505.286 305.039 506.13 305.208 506.918 305.537C507.705 305.865 508.419 306.347 509.018 306.954C509.617 307.561 510.09 308.28 510.409 309.071C510.728 309.862 510.886 310.708 510.875 311.561Z" fill="#BFDBF7"/>
<path d="M593.906 311.561C593.895 312.839 593.505 314.085 592.786 315.141C592.068 316.198 591.052 317.018 589.867 317.498C588.682 317.979 587.381 318.097 586.129 317.839C584.877 317.581 583.729 316.958 582.831 316.049C581.933 315.139 581.324 313.984 581.082 312.73C580.84 311.475 580.976 310.177 581.471 308.999C581.967 307.821 582.8 306.816 583.867 306.111C584.933 305.406 586.185 305.033 587.463 305.039C588.316 305.039 589.161 305.208 589.948 305.537C590.735 305.865 591.449 306.347 592.048 306.954C592.648 307.561 593.121 308.28 593.439 309.071C593.758 309.862 593.917 310.708 593.906 311.561Z" fill="#BFDBF7"/>
<path d="M677.02 311.561C677.008 312.834 676.622 314.075 675.908 315.13C675.194 316.184 674.184 317.004 673.006 317.488C671.828 317.971 670.533 318.096 669.284 317.847C668.034 317.598 666.887 316.986 665.984 316.087C665.081 315.189 664.464 314.044 664.21 312.797C663.955 311.55 664.075 310.255 664.553 309.075C665.032 307.895 665.848 306.883 666.9 306.165C667.952 305.447 669.192 305.055 670.466 305.039C671.328 305.024 672.185 305.182 672.985 305.504C673.785 305.826 674.512 306.306 675.123 306.914C675.735 307.522 676.217 308.247 676.543 309.045C676.869 309.843 677.031 310.699 677.02 311.561Z" fill="#BFDBF7"/>
<path d="M759.967 311.561C759.956 312.838 759.567 314.082 758.849 315.139C758.132 316.195 757.117 317.015 755.934 317.496C754.751 317.977 753.452 318.097 752.2 317.841C750.949 317.585 749.801 316.965 748.902 316.059C748.003 315.152 747.392 314 747.147 312.747C746.902 311.494 747.033 310.196 747.524 309.018C748.016 307.84 748.845 306.833 749.908 306.125C750.97 305.417 752.219 305.039 753.496 305.039C754.351 305.039 755.197 305.208 755.985 305.536C756.774 305.865 757.49 306.346 758.091 306.952C758.693 307.559 759.168 308.278 759.49 309.069C759.812 309.86 759.974 310.707 759.967 311.561Z" fill="#BFDBF7"/>
<path d="M842.997 311.561C842.986 312.838 842.598 314.082 841.88 315.139C841.162 316.195 840.148 317.015 838.965 317.496C837.782 317.977 836.482 318.097 835.231 317.841C833.98 317.586 832.832 316.965 831.933 316.059C831.033 315.152 830.422 314 830.177 312.747C829.932 311.494 830.063 310.197 830.555 309.018C831.046 307.84 831.875 306.833 832.938 306.125C834.001 305.417 835.25 305.039 836.527 305.039C837.382 305.035 838.23 305.201 839.02 305.529C839.811 305.856 840.528 306.337 841.13 306.944C841.733 307.551 842.208 308.272 842.528 309.065C842.849 309.858 843.008 310.706 842.997 311.561Z" fill="#BFDBF7"/>
<path d="M926 311.561C925.989 312.839 925.599 314.085 924.881 315.141C924.162 316.198 923.146 317.018 921.961 317.498C920.776 317.979 919.476 318.097 918.223 317.839C916.971 317.581 915.824 316.958 914.925 316.049C914.027 315.139 913.419 313.984 913.177 312.73C912.935 311.475 913.07 310.177 913.566 308.999C914.061 307.821 914.895 306.816 915.961 306.111C917.028 305.406 918.279 305.033 919.557 305.039C920.411 305.039 921.255 305.208 922.042 305.537C922.829 305.865 923.543 306.347 924.143 306.954C924.742 307.561 925.215 308.28 925.534 309.071C925.853 309.862 926.011 310.708 926 311.561Z" fill="#BFDBF7"/>
</g>
<defs>
<clipPath id="clip0_2596_22414">
<rect width="921" height="235" fill="white" transform="translate(5 83)"/>
</clipPath>
</defs>
</svg>
