<svg width="513" height="401" viewBox="0 0 513 401" fill="none" xmlns="http://www.w3.org/2000/svg">
<rect width="513" height="401" fill="#E1E5F2"/>
<path d="M73.6433 256.414H59.6667V384.862H73.6433V256.414Z" fill="url(#paint0_linear_2601_916)"/>
<path d="M98.9219 227.914H84.9452V384.862H98.9219V227.914Z" fill="#AABEE1"/>
<path d="M124.2 193.776H110.224V384.862H124.2V193.776Z" fill="#AABEE1"/>
<path d="M149.453 138.585H135.476V384.862H149.453V138.585Z" fill="#AABEE1"/>
<path d="M174.731 127.94H160.755V384.862H174.731V127.94Z" fill="url(#paint1_linear_2601_916)"/>
<path d="M200.01 138.585H186.033V384.862H200.01V138.585Z" fill="#AABEE1"/>
<path d="M225.288 167.505H211.312V384.862H225.288V167.505Z" fill="#AABEE1"/>
<path d="M250.567 188.952H236.59V384.862H250.567V188.952Z" fill="#AABEE1"/>
<path d="M275.846 207.751H261.869V384.862H275.846V207.751Z" fill="url(#paint2_linear_2601_916)"/>
<path d="M301.098 188.952H287.121V384.862H301.098V188.952Z" fill="#AABEE1"/>
<path d="M326.376 134.469H312.4V384.862H326.376V134.469Z" fill="#AABEE1"/>
<path d="M351.655 71.6479H337.678V384.862H351.655V71.6479Z" fill="#AABEE1"/>
<path d="M376.934 27.8618H362.957V384.862H376.934V27.8618Z" fill="url(#paint3_linear_2601_916)"/>
<path d="M402.212 54.7891H388.235V384.862H402.212V54.7891Z" fill="#AABEE1"/>
<path d="M427.491 130.929H413.514V384.862H427.491V130.929Z" fill="#AABEE1"/>
<path d="M452.743 223.037H438.766V384.862H452.743V223.037Z" fill="#AABEE1"/>
<circle cx="256.5" cy="289.5" r="46" fill="#E1E5F2" stroke="white" stroke-width="3"/>
<g clip-path="url(#clip0_2601_916)">
<path d="M273.205 310.518C274.505 310.796 274.997 311.386 274.997 312.664C274.997 313.429 274.997 314.193 274.997 315H239.031C239.031 314.041 238.969 313.06 239.05 312.112C239.117 311.303 239.714 310.826 240.717 310.535C240.837 309.462 240.898 308.382 241.087 307.323C241.948 302.528 244.404 298.637 248.008 295.436C249.01 294.563 250.068 293.757 251.175 293.022C254.284 290.926 254.298 287.06 251.175 284.984C247.202 282.373 244.087 279.025 242.231 274.596C241.298 272.35 240.808 269.944 240.789 267.512C239.317 266.994 239 266.548 239 264.993V263H274.981C274.981 263.978 275.031 264.94 274.967 265.91C274.911 266.742 274.289 267.254 273.355 267.462C273.077 269.067 272.955 270.661 272.558 272.174C271.263 277.138 268.273 280.954 264.223 284.006C263.714 284.391 263.183 284.743 262.653 285.095C259.758 287.016 259.752 290.987 262.653 292.888C265.987 295.075 268.785 297.794 270.743 301.303C272.332 304.118 273.179 307.288 273.205 310.518ZM271.369 310.518C271.369 310.419 271.394 310.347 271.394 310.277C271.394 310.014 271.394 309.751 271.371 309.49C271.169 306.626 270.267 303.854 268.746 301.417C266.912 298.445 264.381 296.189 261.494 294.258C260.631 293.678 259.924 292.896 259.434 291.981C258.943 291.066 258.686 290.044 258.683 289.007C258.68 287.969 258.931 286.946 259.416 286.028C259.901 285.11 260.604 284.324 261.464 283.74C261.911 283.429 262.372 283.141 262.811 282.822C266.893 279.848 269.857 276.087 270.982 271.074C271.244 269.907 271.324 268.696 271.491 267.487H242.637C242.637 267.897 242.612 268.272 242.637 268.64C242.995 273.039 244.835 276.747 247.841 279.926C249.176 281.315 250.668 282.544 252.286 283.59C254.337 284.929 255.393 286.835 255.284 289.272C255.198 291.539 254.087 293.26 252.184 294.504C248.119 297.159 245.024 300.602 243.454 305.277C242.885 306.968 242.601 308.741 242.612 310.524L271.369 310.518Z" fill="white"/>
<path d="M257.001 287.345C256.387 284.851 254.898 283.088 252.784 281.727C250.214 280.089 248.075 277.862 246.543 275.231C246.443 275.059 246.357 274.879 246.243 274.657H267.754C267.637 274.882 267.548 275.073 267.443 275.253C266.011 277.746 264.012 279.87 261.608 281.453C259.38 282.908 257.615 284.635 257.001 287.345Z" fill="#9FB3D1"/>
<path d="M269.518 308.745H244.421C244.711 308.167 245.035 307.608 245.39 307.068C246.229 305.955 247.333 305.069 248.602 304.49C250.155 303.759 251.767 303.154 253.353 302.492C253.94 302.248 254.54 302.035 255.104 301.746C255.926 301.356 256.592 300.701 256.996 299.887C257.904 301.514 259.455 302.104 261.05 302.617C263.175 303.312 265.262 304.119 267.023 305.53C267.762 306.181 268.436 306.904 269.035 307.686C269.254 307.952 269.338 308.343 269.518 308.745Z" fill="#9FB3D1"/>
<path d="M257.843 291.234C257.843 291.328 257.843 291.42 257.843 291.511C257.818 292.173 257.515 292.528 256.982 292.517C256.448 292.506 256.179 292.162 256.148 291.536C256.135 291.294 256.135 291.052 256.148 290.81C256.19 290.275 256.515 289.953 256.999 289.978C257.106 289.975 257.214 289.994 257.314 290.034C257.414 290.074 257.506 290.133 257.582 290.209C257.658 290.285 257.719 290.376 257.759 290.476C257.799 290.576 257.818 290.683 257.815 290.79C257.815 290.94 257.815 291.09 257.815 291.237L257.843 291.234Z" fill="#9FB3D1"/>
<path d="M257.843 295.58C257.843 296.619 257.593 297.01 257.01 297.01C256.426 297.01 256.162 296.622 256.176 295.71C256.171 295.543 256.176 295.375 256.193 295.208C256.221 295.01 256.32 294.829 256.472 294.698C256.623 294.566 256.817 294.494 257.018 294.494C257.219 294.494 257.413 294.566 257.564 294.698C257.716 294.829 257.815 295.01 257.843 295.208C257.85 295.332 257.85 295.456 257.843 295.58Z" fill="#9FB3D1"/>
</g>
<defs>
<linearGradient id="paint0_linear_2601_916" x1="49.9119" y1="317.977" x2="83.3979" y2="323.274" gradientUnits="userSpaceOnUse">
<stop stop-color="white"/>
<stop offset="0.15" stop-color="#FAFBFD"/>
<stop offset="0.31" stop-color="#ECF1F8"/>
<stop offset="0.49" stop-color="#D5DFF0"/>
<stop offset="0.68" stop-color="#B5C7E5"/>
<stop offset="0.71" stop-color="#AFC2E3"/>
<stop offset="1" stop-color="#AABEE1"/>
</linearGradient>
<linearGradient id="paint1_linear_2601_916" x1="141.088" y1="252.193" x2="194.398" y2="260.638" gradientUnits="userSpaceOnUse">
<stop stop-color="white"/>
<stop offset="0.15" stop-color="#FAFBFD"/>
<stop offset="0.31" stop-color="#ECF1F8"/>
<stop offset="0.49" stop-color="#D5DFF0"/>
<stop offset="0.68" stop-color="#B5C7E5"/>
<stop offset="0.71" stop-color="#AFC2E3"/>
<stop offset="1" stop-color="#AABEE1"/>
</linearGradient>
<linearGradient id="paint2_linear_2601_916" x1="248.338" y1="293.069" x2="289.35" y2="299.546" gradientUnits="userSpaceOnUse">
<stop stop-color="white"/>
<stop offset="0.15" stop-color="#FAFBFD"/>
<stop offset="0.31" stop-color="#ECF1F8"/>
<stop offset="0.49" stop-color="#D5DFF0"/>
<stop offset="0.68" stop-color="#B5C7E5"/>
<stop offset="0.71" stop-color="#AFC2E3"/>
<stop offset="1" stop-color="#AABEE1"/>
</linearGradient>
<linearGradient id="paint3_linear_2601_916" x1="369.932" y1="27.8618" x2="369.932" y2="384.862" gradientUnits="userSpaceOnUse">
<stop stop-color="white"/>
<stop offset="0.15" stop-color="#FAFBFD"/>
<stop offset="0.31" stop-color="#ECF1F8"/>
<stop offset="0.49" stop-color="#D5DFF0"/>
<stop offset="0.68" stop-color="#B5C7E5"/>
<stop offset="0.71" stop-color="#AFC2E3"/>
<stop offset="1" stop-color="#AABEE1"/>
</linearGradient>
<clipPath id="clip0_2601_916">
<rect width="36" height="52" fill="white" transform="translate(239 263)"/>
</clipPath>
</defs>
</svg>
