<svg width="513" height="401" viewBox="0 0 513 401" fill="none" xmlns="http://www.w3.org/2000/svg">
<rect width="513" height="401" fill="#E1E5F2"/>
<path d="M257 368C223.773 368 191.292 358.147 163.664 339.687C136.037 321.227 114.504 294.989 101.788 264.291C89.0728 233.593 85.7458 199.814 92.2281 167.225C98.7105 134.636 114.711 104.701 138.206 81.2061C161.701 57.7109 191.636 41.7105 224.225 35.2281C256.814 28.7458 290.593 32.0728 321.291 44.7883C351.989 57.5038 378.227 79.0368 396.687 106.664C415.147 134.292 425 166.773 425 200C424.954 244.542 407.239 287.247 375.743 318.743C344.247 350.239 301.542 367.954 257 368ZM257 73.2676C231.954 73.2676 207.471 80.6945 186.646 94.6091C165.822 108.524 149.591 128.301 140.006 151.44C130.422 174.58 127.914 200.041 132.8 224.606C137.686 249.17 149.747 271.734 167.457 289.444C185.167 307.154 207.731 319.215 232.295 324.101C256.86 328.987 282.321 326.479 305.46 316.895C328.6 307.31 348.377 291.079 362.292 270.254C376.206 249.43 383.633 224.946 383.633 199.901C383.568 166.336 370.205 134.164 346.471 110.43C322.737 86.6959 290.565 73.3332 257 73.2676Z" fill="#AABEE1"/>
<path d="M257 368C226.196 368.055 195.973 359.618 169.651 343.616C143.329 327.615 121.927 304.668 107.796 277.296L144.445 258.301C154.803 278.228 170.273 295.043 189.271 307.021C208.269 318.998 230.11 325.708 252.556 326.462C275.001 327.216 297.244 321.988 317.003 311.312C336.761 300.637 353.326 284.899 364.997 265.711C376.669 246.524 383.028 224.578 383.422 202.123C383.816 179.668 378.231 157.512 367.24 137.927C356.249 118.342 340.248 102.032 320.876 90.67C301.504 79.3076 279.458 73.3016 257 73.2675V32C301.556 32 344.288 49.6999 375.794 81.2061C407.3 112.712 425 155.444 425 200C425 244.556 407.3 287.288 375.794 318.794C344.288 350.3 301.556 368 257 368Z" fill="url(#paint0_linear_2601_975)"/>
<path d="M257 368C244.47 368.004 231.978 366.613 219.755 363.853L228.868 323.604C238.101 325.681 247.536 326.73 257 326.732C290.612 326.732 322.846 313.38 346.613 289.613C370.38 265.846 383.732 233.612 383.732 200C383.732 166.388 370.38 134.154 346.613 110.387C322.846 86.6196 290.612 73.2675 257 73.2675V32C301.556 32 344.288 49.7 375.794 81.2061C407.3 112.712 425 155.444 425 200C425 244.556 407.3 287.288 375.794 318.794C344.288 350.3 301.556 368 257 368Z" fill="url(#paint1_linear_2601_975)"/>
<path d="M257 292.144C238.776 292.144 220.96 286.74 205.807 276.615C190.654 266.49 178.844 252.099 171.87 235.262C164.896 218.425 163.071 199.898 166.626 182.023C170.182 164.149 178.958 147.731 191.844 134.844C204.731 121.957 221.149 113.181 239.024 109.626C256.898 106.071 275.425 107.895 292.262 114.87C309.099 121.844 323.49 133.654 333.615 148.807C343.74 163.96 349.144 181.775 349.144 200C349.118 224.43 339.401 247.852 322.127 265.127C304.852 282.401 281.43 292.118 257 292.144ZM257 110.885C239.355 110.885 222.106 116.117 207.435 125.92C192.764 135.723 181.329 149.656 174.577 165.958C167.824 182.26 166.058 200.198 169.5 217.504C172.942 234.81 181.439 250.706 193.916 263.183C206.393 275.66 222.289 284.157 239.595 287.599C256.901 291.041 274.839 289.275 291.141 282.522C307.443 275.77 321.376 264.335 331.179 249.664C340.982 234.993 346.214 217.744 346.214 200.099C346.195 176.435 336.792 153.744 320.068 137.002C303.344 120.259 280.664 110.831 257 110.785V110.885Z" fill="white"/>
<g clip-path="url(#clip0_2601_975)">
<path d="M283.108 234.76C285.203 235.208 285.996 236.162 285.996 238.226C285.996 239.461 285.996 240.697 285.996 242H228.049C228.049 240.451 227.951 238.866 228.081 237.335C228.188 236.028 229.15 235.257 230.766 234.787C230.959 233.055 231.057 231.309 231.362 229.598C232.749 221.853 236.706 215.567 242.512 210.396C244.127 208.987 245.832 207.685 247.615 206.496C252.624 203.112 252.647 196.866 247.615 193.513C241.214 189.295 236.196 183.887 233.206 176.732C231.702 173.103 230.913 169.217 230.883 165.289C228.51 164.452 228 163.731 228 161.219V158H285.969C285.969 159.58 286.049 161.134 285.946 162.701C285.857 164.044 284.854 164.872 283.35 165.208C282.902 167.8 282.705 170.375 282.065 172.819C279.979 180.838 275.163 187.003 268.636 191.932C267.817 192.555 266.962 193.123 266.107 193.692C261.443 196.794 261.434 203.21 266.107 206.281C271.479 209.814 275.986 214.206 279.142 219.874C281.702 224.421 283.067 229.543 283.108 234.76ZM280.149 234.76C280.149 234.599 280.19 234.483 280.19 234.371C280.19 233.946 280.19 233.52 280.154 233.099C279.827 228.472 278.375 223.995 275.924 220.058C272.969 215.258 268.891 211.614 264.24 208.493C262.85 207.557 261.71 206.294 260.921 204.816C260.131 203.337 259.716 201.687 259.711 200.011C259.706 198.334 260.112 196.682 260.893 195.199C261.674 193.716 262.806 192.447 264.191 191.502C264.912 191.001 265.655 190.535 266.362 190.02C272.938 185.216 277.714 179.141 279.527 171.042C279.948 169.157 280.078 167.201 280.346 165.248H233.86C233.86 165.911 233.819 166.516 233.86 167.111C234.437 174.216 237.4 180.207 242.244 185.342C244.394 187.585 246.798 189.571 249.406 191.261C252.709 193.423 254.41 196.503 254.236 200.439C254.097 204.101 252.307 206.881 249.24 208.892C242.691 213.181 237.705 218.741 235.176 226.294C234.259 229.025 233.801 231.889 233.819 234.769L280.149 234.76Z" fill="white"/>
<path d="M257.002 197.327C256.013 193.298 253.614 190.45 250.207 188.252C246.067 185.606 242.62 182.008 240.153 177.758C239.992 177.48 239.853 177.189 239.67 176.831H274.326C274.138 177.194 273.994 177.503 273.824 177.794C271.517 181.821 268.297 185.252 264.424 187.809C260.834 190.159 257.991 192.949 257.002 197.327Z" fill="#9FB3D1"/>
<path d="M277.168 231.895H236.733C237.201 230.963 237.723 230.058 238.296 229.187C239.647 227.389 241.425 225.958 243.47 225.023C245.973 223.841 248.569 222.865 251.125 221.795C252.069 221.401 253.036 221.056 253.945 220.591C255.269 219.96 256.343 218.902 256.993 217.586C258.457 220.215 260.955 221.168 263.524 221.996C266.949 223.12 270.31 224.423 273.148 226.702C274.339 227.755 275.425 228.921 276.389 230.185C276.743 230.615 276.877 231.246 277.168 231.895Z" fill="#9FB3D1"/>
<path d="M258.359 203.608C258.359 203.761 258.359 203.908 258.359 204.056C258.318 205.126 257.83 205.699 256.971 205.681C256.111 205.663 255.677 205.108 255.628 204.096C255.606 203.706 255.606 203.314 255.628 202.923C255.695 202.059 256.219 201.54 256.998 201.58C257.172 201.575 257.344 201.606 257.506 201.67C257.668 201.734 257.815 201.831 257.938 201.953C258.061 202.076 258.158 202.223 258.222 202.384C258.287 202.545 258.318 202.718 258.314 202.892C258.314 203.134 258.314 203.376 258.314 203.613L258.359 203.608Z" fill="#9FB3D1"/>
<path d="M258.359 210.629C258.359 212.308 257.956 212.939 257.016 212.939C256.076 212.939 255.65 212.312 255.673 210.839C255.664 210.569 255.673 210.298 255.7 210.029C255.745 209.709 255.905 209.416 256.149 209.204C256.393 208.992 256.706 208.875 257.029 208.875C257.352 208.875 257.665 208.992 257.909 209.204C258.153 209.416 258.313 209.709 258.359 210.029C258.37 210.228 258.37 210.429 258.359 210.629Z" fill="#9FB3D1"/>
</g>
<defs>
<linearGradient id="paint0_linear_2601_975" x1="105.611" y1="134.548" x2="309.987" y2="222.968" gradientUnits="userSpaceOnUse">
<stop stop-color="#D0E0F5"/>
<stop offset="1" stop-color="#BFDBF7"/>
</linearGradient>
<linearGradient id="paint1_linear_2601_975" x1="243.542" y1="402.588" x2="370.299" y2="48.8596" gradientUnits="userSpaceOnUse">
<stop stop-color="white"/>
<stop offset="0.2" stop-color="#FAFBFD"/>
<stop offset="0.43" stop-color="#ECF1F8"/>
<stop offset="0.67" stop-color="#D5DFF0"/>
<stop offset="0.93" stop-color="#B5C6E5"/>
<stop offset="1" stop-color="#AABEE1"/>
</linearGradient>
<clipPath id="clip0_2601_975">
<rect width="58" height="84" fill="white" transform="translate(228 158)"/>
</clipPath>
</defs>
</svg>
