<?xml version="1.0" encoding="UTF-8"?><svg id="Ebene_2" xmlns="http://www.w3.org/2000/svg" viewBox="0 0 51 51"><defs><style>.cls-1{fill:#3e3940;fill-rule:evenodd;}.cls-2{fill:#27e34f;stroke:#3e3940;stroke-linecap:round;stroke-linejoin:round;}</style></defs><g id="Layer_4"><g><rect class="cls-2" x=".5" y=".5" width="50" height="50"/><path class="cls-1" d="M17.96,9.13h15.08c4.85,0,8.83,3.99,8.83,8.83v15c0,4.85-3.99,8.83-8.83,8.83h-15.08c-4.85,0-8.83-3.99-8.83-8.83v-15c0-4.85,3.99-8.83,8.83-8.83h0Zm16.33,5.7h0c1.02,0,1.88,.86,1.88,1.88h0c0,1.02-.86,1.88-1.88,1.88h0c-1.09,0-1.88-.86-1.88-1.88h0c0-1.02,.78-1.88,1.88-1.88h0Zm-8.83,1.72h.08c4.85,0,8.91,4.06,8.91,8.91h0c0,4.92-4.06,8.91-8.91,8.91h-.08c-4.85,0-8.83-3.99-8.83-8.91h0c0-4.85,3.99-8.91,8.83-8.91h0Zm0,3.05h.08c3.2,0,5.86,2.66,5.86,5.86h0c0,3.28-2.66,5.94-5.86,5.94h-.08c-3.2,0-5.86-2.66-5.86-5.94h0c0-3.2,2.66-5.86,5.86-5.86h0Zm-7.42-7.66h14.93c3.36,0,6.1,2.74,6.1,6.1v14.85c0,3.36-2.74,6.1-6.1,6.1h-14.93c-3.36,0-6.1-2.74-6.1-6.1v-14.85c0-3.36,2.74-6.1,6.1-6.1h0Z"/></g></g></svg>