<?xml version="1.0" encoding="UTF-8"?><svg xmlns="http://www.w3.org/2000/svg" viewBox="0 0 528.5 171.1"><defs><style>.d{fill:#27e34f;}.e{font-family:Ubuntu-Bold, Ubuntu;font-size:68px;}.e,.f{fill:#1f1d20;}.g{letter-spacing:-.03em;}</style></defs><g id="a"/><g id="b"><g id="c"><text class="e" transform="translate(120.82 85.87)"><tspan x="0" y="0">Insider</tspan><tspan class="g" x="223.65" y="0">W</tspan><tspan x="285.87" y="0">eek</tspan></text><g><path class="f" d="M30.68,56.28c4.09,4.54,8.18,9.07,12.26,13.61,12.94-13.26,25.89-26.51,38.83-39.77,3.41,3.49,6.81,6.98,10.22,10.47,0,15.14-.02,30.28-.03,45.42H0c10.23-9.91,20.46-19.81,30.68-29.72Z"/><path class="d" d="M.03,74.31c10.22-10.12,20.44-20.23,30.66-30.35,4.09,4.54,8.18,9.07,12.26,13.61,12.94-13.26,25.89-26.51,38.83-39.77,3.41,3.49,6.81,6.98,10.22,10.47V0h-27.59c3.41,3.49,6.81,6.98,10.22,10.47-10.56,10.81-21.12,21.63-31.68,32.44-4.09-4.54-8.18-9.07-12.26-13.61C20.46,39.42,10.25,49.54,.03,59.65v14.65Z"/></g></g></g></svg>