<?xml version="1.0" encoding="utf-8"?>
<svg width="87.93571px" height="80.00003px" viewBox="0 0 87.93571 80.00003" version="1.1" xmlns:xlink="http://www.w3.org/1999/xlink" xmlns="http://www.w3.org/2000/svg">
  <g id="surface209067307">
    <path d="M86.2757 1.10159C84.7757 -0.171844 82.4202 -0.355436 79.9827 0.625031L79.9788 0.625031C77.4163 1.65238 7.45924 31.6602 4.61158 32.8867C4.09205 33.0664 -0.431386 34.7539 0.0334587 38.5157C0.451428 41.9024 4.08815 43.3086 4.52955 43.4688L22.3147 49.5586C23.4944 53.4883 27.846 67.9805 28.8069 71.0742C29.4085 73.0078 30.385 75.543 32.0999 76.0625C33.6038 76.6446 35.0999 76.1133 36.0686 75.3555L46.9436 65.2696L64.4944 78.9571L64.9124 79.2071C66.1077 79.7344 67.2483 80 68.3382 80C69.1819 80 69.9866 79.8438 70.76 79.5274C73.3889 78.4453 74.4436 75.9414 74.553 75.6563L87.6624 7.50394C88.4632 3.86331 87.3538 2.01175 86.2757 1.10159L86.2757 1.10159ZM38.0022 51.9961L32.0022 67.9961L26.0022 47.9961L72.0022 13.9961L38.0022 51.9961Z" id="Shape" fill="#3E363E" fill-rule="evenodd" stroke="none" />
  </g>
</svg>