<?xml version="1.0" encoding="UTF-8"?><svg id="Ebene_2" xmlns="http://www.w3.org/2000/svg" viewBox="0 0 34 27.63"><defs><style>.cls-1{fill:#3e3940;}</style></defs><g id="Layer_4"><path class="cls-1" d="M10.69,27.63c12.83,0,19.85-10.63,19.85-19.85,0-.3,0-.6-.02-.9,1.36-.98,2.55-2.21,3.48-3.61-1.25,.56-2.6,.93-4.01,1.1,1.44-.86,2.55-2.23,3.07-3.86-1.35,.8-2.84,1.38-4.43,1.69-1.27-1.36-3.09-2.2-5.09-2.2-3.85,0-6.98,3.12-6.98,6.98,0,.55,.06,1.08,.18,1.59-5.8-.29-10.94-3.07-14.38-7.29-.6,1.03-.94,2.23-.94,3.51,0,2.42,1.23,4.56,3.1,5.81-1.14-.04-2.22-.35-3.16-.87,0,.03,0,.06,0,.09,0,3.38,2.4,6.2,5.6,6.84-.59,.16-1.2,.25-1.84,.25-.45,0-.89-.04-1.31-.13,.89,2.77,3.46,4.79,6.52,4.84-2.39,1.87-5.4,2.99-8.66,2.99-.56,0-1.12-.03-1.66-.1,3.09,1.98,6.75,3.13,10.69,3.13"/></g></svg>