<svg width="12" height="12" viewBox="0 0 12 12" fill="none" xmlns="http://www.w3.org/2000/svg">
<path d="M5.6875 11.375C4.56262 11.375 3.463 11.0414 2.5277 10.4165C1.59239 9.79154 0.863411 8.90327 0.432938 7.86401C0.0024643 6.82476 -0.110167 5.68119 0.109286 4.57793C0.32874 3.47466 0.870421 2.46124 1.66583 1.66583C2.46124 0.870421 3.47466 0.32874 4.57793 0.109286C5.68119 -0.110167 6.82476 0.0024643 7.86401 0.432938C8.90327 0.863411 9.79154 1.59239 10.4165 2.5277C11.0414 3.463 11.375 4.56262 11.375 5.6875C11.375 7.19592 10.7758 8.64256 9.70917 9.70917C8.64256 10.7758 7.19592 11.375 5.6875 11.375ZM5.6875 0.812503C4.72332 0.812503 3.78079 1.09842 2.9791 1.63409C2.17741 2.16976 1.55257 2.93113 1.18359 3.82192C0.814613 4.71271 0.718071 5.69291 0.906174 6.63857C1.09428 7.58422 1.55858 8.45287 2.24036 9.13465C2.92214 9.81643 3.79078 10.2807 4.73644 10.4688C5.6821 10.6569 6.66229 10.5604 7.55308 10.1914C8.44387 9.82244 9.20524 9.1976 9.74092 8.39591C10.2766 7.59422 10.5625 6.65169 10.5625 5.6875C10.5625 4.39457 10.0489 3.1546 9.13465 2.24036C8.22041 1.32612 6.98043 0.812503 5.6875 0.812503Z" fill="white"/>
<path d="M7.55219 8.125L5.28125 5.85406V2.03125H6.09375V5.51688L8.125 7.55219L7.55219 8.125Z" fill="white"/>
</svg>
