<svg width="61" height="55" viewBox="0 0 61 55" fill="none" xmlns="http://www.w3.org/2000/svg">
<path d="M3.05 0H57.95C58.7589 0 59.5347 0.321924 60.1067 0.894951C60.6787 1.46798 61 2.24517 61 3.05556V51.9444C61 52.7548 60.6787 53.532 60.1067 54.1051C59.5347 54.6781 58.7589 55 57.95 55H3.05C2.24109 55 1.46531 54.6781 0.893324 54.1051C0.321338 53.532 0 52.7548 0 51.9444V3.05556C0 2.24517 0.321338 1.46798 0.893324 0.894951C1.46531 0.321924 2.24109 0 3.05 0ZM6.1 6.11111V48.8889H54.9V6.11111H6.1ZM19.825 33.6111H36.6C37.0045 33.6111 37.3923 33.4501 37.6783 33.1636C37.9643 32.8771 38.125 32.4885 38.125 32.0833C38.125 31.6781 37.9643 31.2895 37.6783 31.003C37.3923 30.7165 37.0045 30.5556 36.6 30.5556H24.4C22.3777 30.5556 20.4383 29.7507 19.0083 28.3182C17.5783 26.8856 16.775 24.9426 16.775 22.9167C16.775 20.8907 17.5783 18.9477 19.0083 17.5152C20.4383 16.0826 22.3777 15.2778 24.4 15.2778H27.45V9.16667H33.55V15.2778H41.175V21.3889H24.4C23.9955 21.3889 23.6077 21.5499 23.3217 21.8364C23.0357 22.1229 22.875 22.5115 22.875 22.9167C22.875 23.3219 23.0357 23.7105 23.3217 23.997C23.6077 24.2835 23.9955 24.4444 24.4 24.4444H36.6C38.6223 24.4444 40.5617 25.2493 41.9917 26.6818C43.4217 28.1144 44.225 30.0574 44.225 32.0833C44.225 34.1093 43.4217 36.0523 41.9917 37.4848C40.5617 38.9174 38.6223 39.7222 36.6 39.7222H33.55V45.8333H27.45V39.7222H19.825V33.6111Z" fill="black"/>
</svg>
