<svg id="Layer_1" data-name="Layer 1" xmlns="http://www.w3.org/2000/svg" viewBox="0 0 42 42"><defs><style>.cls-1{fill:#efefef;}</style></defs><path class="cls-1" d="M0,0V42H42V0ZM26.94,13.77c0,.33-.18.48-.52.49-.75,0-1.5,0-2.25,0a1,1,0,0,0-1,.52,1.49,1.49,0,0,0-.17.64c0,.81,0,1.62,0,2.46h3.19c.44,0,.6.15.6.59v3.35c0,.42-.16.57-.57.57H23v.27c0,2.89,0,5.79,0,8.68a.6.6,0,0,1-.34.63h-4a.55.55,0,0,1-.35-.59c0-2.9,0-5.8,0-8.7v-.29H15.63c-.42,0-.57-.15-.57-.56q0-1.7,0-3.39c0-.4.16-.56.56-.56h2.75v-.25c0-.87,0-1.75,0-2.62a5.28,5.28,0,0,1,1.26-3.39,4.5,4.5,0,0,1,3-1.55c1.05-.1,2.11-.07,3.17-.1h.66a.45.45,0,0,1,.5.49Q27,12.14,26.94,13.77Z"/></svg>