<svg width="42" height="42" viewBox="0 0 42 42" fill="none" xmlns="http://www.w3.org/2000/svg">
<rect width="42" height="42" fill="white"/>
<path d="M26.3855 13.4776C26.3855 13.3524 26.3357 13.2324 26.2472 13.1438C26.1587 13.0553 26.0386 13.0056 25.9134 13.0056H23.5531C22.3645 12.9464 21.2009 13.36 20.3163 14.1561C19.4318 14.9522 18.8983 16.066 18.8324 17.2542V19.8033H16.4721C16.3469 19.8033 16.2268 19.8531 16.1383 19.9416C16.0497 20.0301 16 20.1502 16 20.2754V22.7302C16 22.8554 16.0497 22.9754 16.1383 23.064C16.2268 23.1525 16.3469 23.2022 16.4721 23.2022H18.8324V29.5279C18.8324 29.6531 18.8821 29.7732 18.9707 29.8617C19.0592 29.9503 19.1793 30 19.3045 30H22.1369C22.2621 30 22.3821 29.9503 22.4707 29.8617C22.5592 29.7732 22.6089 29.6531 22.6089 29.5279V23.2022H25.0826C25.1876 23.2037 25.29 23.1702 25.3738 23.1069C25.4576 23.0437 25.5179 22.9543 25.5452 22.8529L26.225 20.3982C26.2438 20.3284 26.2463 20.2553 26.2324 20.1844C26.2184 20.1135 26.1884 20.0468 26.1446 19.9893C26.1009 19.9319 26.0445 19.8852 25.9798 19.853C25.9152 19.8207 25.844 19.8038 25.7718 19.8033H22.6089V17.2542C22.6324 17.0205 22.7422 16.8039 22.9168 16.6468C23.0913 16.4897 23.3182 16.4033 23.5531 16.4045H25.9134C26.0386 16.4045 26.1587 16.3547 26.2472 16.2662C26.3357 16.1777 26.3855 16.0576 26.3855 15.9324V13.4776Z" fill="#212529"/>
</svg>
