<svg width="42" height="42" viewBox="0 0 42 42" fill="none" xmlns="http://www.w3.org/2000/svg">
<rect width="42" height="42" fill="white"/>
<path d="M21.9254 12.0011C22.5821 11.9986 23.2389 12.0052 23.8954 12.0209L24.07 12.0272C24.2716 12.0344 24.4705 12.0434 24.7108 12.0542C25.6684 12.0992 26.3217 12.2504 26.895 12.4727C27.489 12.7013 27.9894 13.0109 28.4898 13.5113C28.9473 13.9609 29.3014 14.5048 29.5274 15.1051C29.7497 15.6784 29.9009 16.3327 29.9459 17.2902C29.9567 17.5296 29.9657 17.7294 29.9729 17.931L29.9783 18.1056C29.9943 18.7619 30.0012 19.4183 29.999 20.0747L29.9999 20.7461V21.9251C30.0021 22.5818 29.9952 23.2386 29.9792 23.8951L29.9738 24.0697C29.9666 24.2713 29.9576 24.4702 29.9468 24.7105C29.9018 25.668 29.7488 26.3214 29.5274 26.8947C29.3021 27.4957 28.9479 28.04 28.4898 28.4894C28.0397 28.9469 27.4956 29.301 26.895 29.5271C26.3217 29.7494 25.6684 29.9006 24.7108 29.9456C24.4705 29.9564 24.2716 29.9654 24.07 29.9726L23.8954 29.978C23.2389 29.994 22.5821 30.0009 21.9254 29.9987L21.254 29.9996H20.0759C19.4192 30.0018 18.7625 29.9949 18.1059 29.9789L17.9313 29.9735C17.7177 29.9658 17.5041 29.9568 17.2905 29.9465C16.333 29.9015 15.6796 29.7485 15.1054 29.5271C14.5048 29.3015 13.9609 28.9474 13.5116 28.4894C13.0535 28.0397 12.6991 27.4955 12.473 26.8947C12.2507 26.3214 12.0995 25.668 12.0545 24.7105C12.0445 24.4969 12.0355 24.2833 12.0275 24.0697L12.023 23.8951C12.0064 23.2386 11.9989 22.5818 12.0005 21.9251V20.0747C11.998 19.4183 12.0046 18.7619 12.0203 18.1056L12.0266 17.931C12.0338 17.7294 12.0428 17.5296 12.0536 17.2902C12.0986 16.3318 12.2498 15.6793 12.4721 15.1051C12.6983 14.5045 13.0535 13.9607 13.5125 13.5122C13.9615 13.0538 14.5051 12.6991 15.1054 12.4727C15.6796 12.2504 16.3321 12.0992 17.2905 12.0542L17.9313 12.0272L18.1059 12.0227C18.7622 12.0061 19.4186 11.9986 20.075 12.0002L21.9254 12.0011ZM21.0002 16.501C20.404 16.4925 19.812 16.6027 19.2588 16.825C18.7055 17.0473 18.2019 17.3774 17.7773 17.7961C17.3527 18.2147 17.0155 18.7136 16.7854 19.2636C16.5552 19.8137 16.4367 20.4041 16.4367 21.0004C16.4367 21.5966 16.5552 22.187 16.7854 22.7371C17.0155 23.2871 17.3527 23.786 17.7773 24.2046C18.2019 24.6233 18.7055 24.9534 19.2588 25.1757C19.812 25.398 20.404 25.5082 21.0002 25.4997C22.1936 25.4997 23.3382 25.0257 24.1821 24.1818C25.026 23.3379 25.5001 22.1933 25.5001 20.9999C25.5001 19.8065 25.026 18.6619 24.1821 17.818C23.3382 16.9741 22.1936 16.501 21.0002 16.501ZM21.0002 18.3009C21.3589 18.2943 21.7152 18.3592 22.0485 18.4919C22.3818 18.6245 22.6853 18.8223 22.9412 19.0736C23.1972 19.3248 23.4006 19.6246 23.5394 19.9553C23.6783 20.2861 23.7498 20.6412 23.7499 20.9999C23.7499 21.3586 23.6785 21.7137 23.5398 22.0445C23.401 22.3753 23.1978 22.6751 22.9419 22.9265C22.686 23.1779 22.3826 23.3757 22.0493 23.5085C21.7161 23.6413 21.3598 23.7063 21.0011 23.6998C20.2851 23.6998 19.5983 23.4154 19.092 22.909C18.5857 22.4027 18.3012 21.716 18.3012 20.9999C18.3012 20.2838 18.5857 19.5971 19.092 19.0908C19.5983 18.5844 20.2851 18.3 21.0011 18.3L21.0002 18.3009ZM25.7251 15.151C25.4347 15.1626 25.1601 15.2861 24.9588 15.4957C24.7575 15.7052 24.6451 15.9845 24.6451 16.2751C24.6451 16.5656 24.7575 16.8449 24.9588 17.0545C25.1601 17.264 25.4347 17.3875 25.7251 17.3991C26.0234 17.3991 26.3096 17.2806 26.5205 17.0696C26.7315 16.8587 26.85 16.5725 26.85 16.2742C26.85 15.9758 26.7315 15.6897 26.5205 15.4787C26.3096 15.2677 26.0234 15.1492 25.7251 15.1492V15.151Z" fill="#212529"/>
</svg>
