<svg width="130" height="24" viewBox="0 0 130 24" fill="none" xmlns="http://www.w3.org/2000/svg">
<path d="M18.6855 19V18.2441H18.9141C19.1191 18.2441 19.3096 18.2295 19.4854 18.2002C19.667 18.1709 19.8252 18.1123 19.96 18.0244C20.0947 17.9307 20.2002 17.7988 20.2764 17.6289C20.3525 17.459 20.3906 17.2334 20.3906 16.9521V8.19824C20.3906 7.91699 20.3525 7.69141 20.2764 7.52148C20.2002 7.35156 20.0947 7.22266 19.96 7.13477C19.8252 7.04102 19.667 6.97949 19.4854 6.9502C19.3096 6.9209 19.1191 6.90625 18.9141 6.90625H18.6855V6.15039H23.9238V6.90625H23.6865C23.4873 6.90625 23.2969 6.9209 23.1152 6.9502C22.9336 6.97949 22.7754 7.04102 22.6406 7.13477C22.5117 7.22266 22.4062 7.35156 22.3242 7.52148C22.248 7.69141 22.21 7.91699 22.21 8.19824V16.9521C22.21 17.2334 22.248 17.459 22.3242 17.6289C22.4062 17.7988 22.5117 17.9307 22.6406 18.0244C22.7754 18.1123 22.9336 18.1709 23.1152 18.2002C23.2969 18.2295 23.4873 18.2441 23.6865 18.2441H23.9238V19H18.6855ZM29.9531 18.2441V19H25.1104V18.2441H25.2598C25.4648 18.2441 25.6553 18.2295 25.8311 18.2002C26.0127 18.1709 26.168 18.1123 26.2969 18.0244C26.4316 17.9307 26.5371 17.7988 26.6133 17.6289C26.6953 17.459 26.7363 17.2334 26.7363 16.9521V11.3359C26.7363 11.0723 26.6953 10.8613 26.6133 10.7031C26.5371 10.5391 26.4316 10.4131 26.2969 10.3252C26.1621 10.2373 26.0039 10.1787 25.8223 10.1494C25.6465 10.1201 25.459 10.1055 25.2598 10.1055H25.207V9.34961H28.1162L28.3535 10.8086H28.4414C28.6289 10.4746 28.8252 10.2021 29.0303 9.99121C29.2412 9.77441 29.4609 9.60742 29.6895 9.49023C29.9238 9.36719 30.1699 9.28516 30.4277 9.24414C30.6914 9.19727 30.9668 9.17383 31.2539 9.17383C31.7285 9.17383 32.1504 9.24414 32.5195 9.38477C32.8945 9.51953 33.2109 9.73047 33.4688 10.0176C33.7324 10.2988 33.9316 10.6621 34.0664 11.1074C34.207 11.5527 34.2773 12.083 34.2773 12.6982V16.9521C34.2773 17.2334 34.3096 17.459 34.374 17.6289C34.4443 17.7988 34.541 17.9307 34.6641 18.0244C34.7871 18.1123 34.9336 18.1709 35.1035 18.2002C35.2734 18.2295 35.458 18.2441 35.6572 18.2441H35.7188V19H32.5811V12.7861C32.5811 12.3936 32.5459 12.0449 32.4756 11.7402C32.4053 11.4355 32.291 11.1777 32.1328 10.9668C31.9805 10.7559 31.7783 10.5977 31.5264 10.4922C31.2744 10.3809 30.9668 10.3252 30.6035 10.3252C30.1934 10.3252 29.8477 10.4043 29.5664 10.5625C29.291 10.7207 29.0684 10.9346 28.8984 11.2041C28.7285 11.4736 28.6055 11.7842 28.5293 12.1357C28.459 12.4873 28.4238 12.8564 28.4238 13.2432V17.04C28.4238 17.3037 28.4619 17.5176 28.5381 17.6816C28.6201 17.8398 28.7285 17.96 28.8633 18.042C28.998 18.124 29.1533 18.1797 29.3291 18.209C29.5107 18.2324 29.7012 18.2441 29.9004 18.2441H29.9531ZM40.0078 19.1758C39.5566 19.1758 39.1465 19.1348 38.7773 19.0527C38.4141 18.9766 38.1035 18.8594 37.8457 18.7012C37.5879 18.5371 37.3887 18.3379 37.248 18.1035C37.1074 17.8633 37.0371 17.585 37.0371 17.2686C37.0371 17.0283 37.0752 16.8291 37.1514 16.6709C37.2334 16.5068 37.3301 16.3779 37.4414 16.2842C37.5586 16.1904 37.6816 16.126 37.8105 16.0908C37.9453 16.0498 38.0654 16.0293 38.1709 16.0293C38.1709 16.3457 38.2031 16.6416 38.2676 16.917C38.332 17.1924 38.4404 17.4355 38.5928 17.6465C38.7451 17.8516 38.9443 18.0156 39.1904 18.1387C39.4424 18.2559 39.75 18.3145 40.1133 18.3145C40.4355 18.3145 40.7197 18.2764 40.9658 18.2002C41.2119 18.1182 41.417 18.0068 41.5811 17.8662C41.751 17.7197 41.8799 17.5469 41.9678 17.3477C42.0557 17.1426 42.0996 16.9199 42.0996 16.6797C42.0996 16.457 42.0645 16.2666 41.9941 16.1084C41.9297 15.9443 41.8125 15.792 41.6426 15.6514C41.4785 15.5107 41.2529 15.3672 40.9658 15.2207C40.6787 15.0742 40.3184 14.9072 39.8848 14.7197C39.4219 14.5146 39.0176 14.3184 38.6719 14.1309C38.332 13.9375 38.0508 13.7295 37.8281 13.5068C37.6055 13.2842 37.4385 13.0322 37.3271 12.751C37.2158 12.4639 37.1602 12.124 37.1602 11.7314C37.1602 11.3213 37.2393 10.958 37.3975 10.6416C37.5615 10.3252 37.793 10.0615 38.0918 9.85059C38.3906 9.63379 38.748 9.46973 39.1641 9.3584C39.5801 9.24707 40.043 9.19141 40.5527 9.19141C40.9805 9.19141 41.3584 9.23535 41.6865 9.32324C42.0146 9.41113 42.29 9.53125 42.5127 9.68359C42.7354 9.83008 42.9023 10.0059 43.0137 10.2109C43.125 10.4102 43.1807 10.6211 43.1807 10.8438C43.1807 11.1719 43.0664 11.4355 42.8379 11.6348C42.6152 11.8281 42.2959 11.9248 41.8799 11.9248C41.8799 11.3213 41.7539 10.8525 41.502 10.5186C41.2559 10.1846 40.8662 10.0176 40.333 10.0176C40.0283 10.0176 39.7676 10.0527 39.5508 10.123C39.334 10.1934 39.1553 10.293 39.0146 10.4219C38.8799 10.5508 38.7803 10.7031 38.7158 10.8789C38.6514 11.0547 38.6191 11.248 38.6191 11.459C38.6191 11.6875 38.6602 11.8867 38.7422 12.0566C38.8242 12.2207 38.9531 12.373 39.1289 12.5137C39.3105 12.6543 39.542 12.792 39.8232 12.9268C40.1104 13.0557 40.4531 13.2021 40.8516 13.3662C41.3262 13.5654 41.7334 13.7617 42.0732 13.9551C42.4131 14.1484 42.6914 14.3594 42.9082 14.5879C43.1309 14.8164 43.2949 15.0742 43.4004 15.3613C43.5059 15.6484 43.5586 15.9795 43.5586 16.3545C43.5586 16.8232 43.4736 17.2334 43.3037 17.585C43.1338 17.9365 42.8936 18.2324 42.583 18.4727C42.2725 18.707 41.8975 18.8828 41.458 19C41.0244 19.1172 40.541 19.1758 40.0078 19.1758ZM45 18.2441C45.1992 18.2441 45.3867 18.2324 45.5625 18.209C45.7441 18.1797 45.9023 18.124 46.0371 18.042C46.1719 17.96 46.2773 17.8398 46.3535 17.6816C46.4355 17.5176 46.4766 17.3037 46.4766 17.04V11.3359C46.4766 11.0723 46.4355 10.8613 46.3535 10.7031C46.2773 10.5391 46.1719 10.4131 46.0371 10.3252C45.9023 10.2373 45.7441 10.1787 45.5625 10.1494C45.3867 10.1201 45.1992 10.1055 45 10.1055H44.9473V9.34961H48.1641V16.9521C48.1641 17.2334 48.2021 17.459 48.2783 17.6289C48.3604 17.7988 48.4658 17.9307 48.5947 18.0244C48.7295 18.1123 48.8877 18.1709 49.0693 18.2002C49.251 18.2295 49.4414 18.2441 49.6406 18.2441H49.8779V19H44.7627V18.2441H45ZM46.2217 6.43164C46.2217 6.2207 46.248 6.04492 46.3008 5.9043C46.3535 5.76367 46.4268 5.64941 46.5205 5.56152C46.6143 5.47363 46.7227 5.41211 46.8457 5.37695C46.9688 5.3418 47.1035 5.32422 47.25 5.32422C47.3906 5.32422 47.5225 5.3418 47.6455 5.37695C47.7686 5.41211 47.874 5.47363 47.9619 5.56152C48.0557 5.64941 48.1289 5.76367 48.1816 5.9043C48.2402 6.04492 48.2695 6.2207 48.2695 6.43164C48.2695 6.64258 48.2402 6.81836 48.1816 6.95898C48.1289 7.09961 48.0557 7.21387 47.9619 7.30176C47.874 7.38965 47.7686 7.4541 47.6455 7.49512C47.5225 7.53027 47.3906 7.54785 47.25 7.54785C47.1035 7.54785 46.9688 7.53027 46.8457 7.49512C46.7227 7.4541 46.6143 7.38965 46.5205 7.30176C46.4268 7.21387 46.3535 7.09961 46.3008 6.95898C46.248 6.81836 46.2217 6.64258 46.2217 6.43164ZM59.2207 17.0225C59.2207 17.2861 59.2588 17.5 59.335 17.6641C59.417 17.8223 59.5254 17.9453 59.6602 18.0332C59.7949 18.1211 59.9502 18.1797 60.126 18.209C60.3076 18.2324 60.498 18.2441 60.6973 18.2441H60.8467V19H57.7969L57.6035 17.3828H57.5332C57.3984 17.6582 57.2432 17.9072 57.0674 18.1299C56.8975 18.3467 56.7012 18.5342 56.4785 18.6924C56.2559 18.8447 56.0039 18.9619 55.7227 19.0439C55.4414 19.1318 55.125 19.1758 54.7734 19.1758C54.1816 19.1758 53.6572 19.0791 53.2002 18.8857C52.7432 18.6865 52.3594 18.3848 52.0488 17.9805C51.7383 17.5703 51.5039 17.0518 51.3457 16.4248C51.1875 15.7979 51.1084 15.0537 51.1084 14.1924C51.1084 13.3252 51.1875 12.5752 51.3457 11.9424C51.5039 11.3096 51.7383 10.7881 52.0488 10.3779C52.3594 9.96777 52.7432 9.66602 53.2002 9.47266C53.6572 9.27344 54.1816 9.17383 54.7734 9.17383C55.1191 9.17383 55.4326 9.21191 55.7139 9.28809C55.9951 9.36426 56.2471 9.47266 56.4697 9.61328C56.6982 9.75391 56.9004 9.9209 57.0762 10.1143C57.252 10.3076 57.4043 10.5215 57.5332 10.7559H57.6387C57.6211 10.4629 57.6035 10.1875 57.5859 9.92969C57.5742 9.70703 57.5625 9.4873 57.5508 9.27051C57.5391 9.04785 57.5332 8.88379 57.5332 8.77832V7.30176C57.5332 7.03809 57.4922 6.82715 57.4102 6.66895C57.334 6.50488 57.2285 6.37891 57.0938 6.29102C56.959 6.20312 56.8008 6.14746 56.6191 6.12402C56.4434 6.09473 56.2559 6.08008 56.0566 6.08008H55.9072V5.32422H59.2207V17.0225ZM55.0811 18.0244C55.5498 18.0244 55.9395 17.9482 56.25 17.7959C56.5664 17.6377 56.8184 17.4004 57.0059 17.084C57.1992 16.7676 57.334 16.3691 57.4102 15.8887C57.4922 15.4082 57.5332 14.8428 57.5332 14.1924C57.5332 13.5654 57.4922 13.0117 57.4102 12.5312C57.334 12.0508 57.1992 11.6494 57.0059 11.3271C56.8184 10.999 56.5664 10.75 56.25 10.5801C55.9336 10.4102 55.5381 10.3252 55.0635 10.3252C54.6709 10.3252 54.334 10.4102 54.0527 10.5801C53.7715 10.75 53.54 10.999 53.3584 11.3271C53.1826 11.6553 53.0537 12.0625 52.9717 12.5488C52.8896 13.0293 52.8486 13.583 52.8486 14.21C52.8486 15.4873 53.0215 16.4424 53.3672 17.0752C53.7129 17.708 54.2842 18.0244 55.0811 18.0244ZM66.1201 10.1406C65.4521 10.1406 64.9365 10.4131 64.5732 10.958C64.2158 11.4971 64.0049 12.2881 63.9404 13.3311H68.0801C68.0801 12.8564 68.0449 12.4229 67.9746 12.0303C67.9043 11.6377 67.793 11.3008 67.6406 11.0195C67.4883 10.7383 67.2861 10.5215 67.0342 10.3691C66.7881 10.2168 66.4834 10.1406 66.1201 10.1406ZM66.3398 19.1758C65.6895 19.1758 65.1035 19.0674 64.582 18.8506C64.0664 18.6279 63.6299 18.3057 63.2725 17.8838C62.915 17.4619 62.6396 16.9463 62.4463 16.3369C62.2588 15.7217 62.165 15.0244 62.165 14.2451C62.165 12.5635 62.5107 11.2979 63.2021 10.4482C63.8936 9.59863 64.8779 9.17383 66.1553 9.17383C66.7354 9.17383 67.2568 9.26465 67.7197 9.44629C68.1826 9.62793 68.5752 9.90039 68.8975 10.2637C69.2197 10.6211 69.4658 11.0693 69.6357 11.6084C69.8115 12.1416 69.8994 12.7627 69.8994 13.4717V14.2979H63.9053C63.917 14.9541 63.9814 15.5195 64.0986 15.9941C64.2217 16.4629 64.3945 16.8496 64.6172 17.1543C64.8457 17.459 65.124 17.6846 65.4521 17.8311C65.7803 17.9717 66.1582 18.042 66.5859 18.042C66.8965 18.042 67.1836 18.0068 67.4473 17.9365C67.7168 17.8662 67.96 17.7725 68.1768 17.6553C68.3936 17.5381 68.584 17.4062 68.748 17.2598C68.918 17.1074 69.0557 16.9492 69.1611 16.7852C69.2432 16.8203 69.3193 16.8936 69.3896 17.0049C69.4658 17.1162 69.5039 17.248 69.5039 17.4004C69.5039 17.582 69.4395 17.7783 69.3105 17.9893C69.1816 18.1943 68.9854 18.3848 68.7217 18.5605C68.458 18.7363 68.127 18.8828 67.7285 19C67.3359 19.1172 66.873 19.1758 66.3398 19.1758ZM76.5967 19H71.4023V18.2441H71.4551C71.6602 18.2441 71.8506 18.2295 72.0264 18.2002C72.208 18.1709 72.3633 18.1123 72.4922 18.0244C72.627 17.9307 72.7324 17.7988 72.8086 17.6289C72.8906 17.459 72.9316 17.2334 72.9316 16.9521V11.3359C72.9316 11.0723 72.8906 10.8613 72.8086 10.7031C72.7324 10.5391 72.627 10.4131 72.4922 10.3252C72.3574 10.2373 72.1992 10.1787 72.0176 10.1494C71.8418 10.1201 71.6543 10.1055 71.4551 10.1055H71.4023V9.34961H74.1709L74.5137 11.1338H74.6016C74.7188 10.8643 74.8389 10.6123 74.9619 10.3779C75.085 10.1377 75.2344 9.92969 75.4102 9.75391C75.5918 9.57227 75.8145 9.43164 76.0781 9.33203C76.3418 9.22656 76.6729 9.17383 77.0713 9.17383C77.7275 9.17383 78.2139 9.28809 78.5303 9.5166C78.8525 9.74512 79.0137 10.0674 79.0137 10.4834C79.0137 10.6709 78.9814 10.8438 78.917 11.002C78.8584 11.1602 78.7617 11.2979 78.627 11.415C78.4922 11.5264 78.3193 11.6143 78.1084 11.6787C77.8975 11.7373 77.6396 11.7666 77.335 11.7666C77.335 11.2686 77.2646 10.9111 77.124 10.6943C76.9834 10.4717 76.7373 10.3604 76.3857 10.3604C76.1631 10.3604 75.9639 10.4248 75.7881 10.5537C75.6123 10.6768 75.457 10.8438 75.3223 11.0547C75.1934 11.2598 75.082 11.4971 74.9883 11.7666C74.9004 12.0361 74.8271 12.3145 74.7686 12.6016C74.7158 12.8828 74.6777 13.1641 74.6543 13.4453C74.6309 13.7266 74.6191 13.9814 74.6191 14.21V17.04C74.6191 17.3037 74.6572 17.5176 74.7334 17.6816C74.8154 17.8398 74.9238 17.96 75.0586 18.042C75.1934 18.124 75.3486 18.1797 75.5244 18.209C75.7061 18.2324 75.8965 18.2441 76.0957 18.2441H76.5967V19ZM89.666 6.27344L91.916 14.0693C92.0859 14.667 92.2354 15.2412 92.3643 15.792C92.499 16.3369 92.6074 16.8174 92.6895 17.2334C92.7773 16.7998 92.877 16.3457 92.9883 15.8711C93.1055 15.3906 93.2461 14.8604 93.4102 14.2803L94.9922 8.72559C95.0098 8.65527 95.0303 8.57617 95.0537 8.48828C95.0771 8.40039 95.0977 8.3125 95.1152 8.22461C95.1328 8.13672 95.1475 8.05469 95.1592 7.97852C95.1768 7.90234 95.1855 7.83789 95.1855 7.78516C95.1855 7.47461 95.0859 7.25195 94.8867 7.11719C94.6934 6.97656 94.3975 6.90625 93.999 6.90625H93.5859V6.15039H97.9805V6.90625H97.6377C97.4619 6.90625 97.3066 6.92383 97.1719 6.95898C97.043 6.99414 96.9258 7.06152 96.8203 7.16113C96.7148 7.26074 96.6182 7.40137 96.5303 7.58301C96.4424 7.76465 96.3545 8.00488 96.2666 8.30371L93.2256 19H91.6084L88.6729 8.91895L85.9219 19H84.2607L80.9648 7.85547C80.9062 7.66797 80.8389 7.5127 80.7627 7.38965C80.6924 7.2666 80.6074 7.16992 80.5078 7.09961C80.4082 7.0293 80.291 6.97949 80.1562 6.9502C80.0215 6.9209 79.8662 6.90625 79.6904 6.90625H79.4531V6.15039H84.4102V6.90625H83.9971C83.6338 6.90625 83.3613 6.97656 83.1797 7.11719C83.0039 7.25195 82.916 7.46875 82.916 7.76758C82.916 7.86719 82.9307 7.96973 82.96 8.0752C82.9893 8.18066 83.0215 8.30078 83.0566 8.43555L84.709 14.1924C84.8613 14.7373 85.0049 15.2734 85.1396 15.8008C85.2744 16.3223 85.3916 16.7998 85.4912 17.2334C85.5791 16.7646 85.6816 16.2549 85.7988 15.7041C85.9219 15.1475 86.0625 14.5791 86.2207 13.999L88.3652 6.27344H89.666ZM101.997 10.1406C101.329 10.1406 100.813 10.4131 100.45 10.958C100.093 11.4971 99.8818 12.2881 99.8174 13.3311H103.957C103.957 12.8564 103.922 12.4229 103.852 12.0303C103.781 11.6377 103.67 11.3008 103.518 11.0195C103.365 10.7383 103.163 10.5215 102.911 10.3691C102.665 10.2168 102.36 10.1406 101.997 10.1406ZM102.217 19.1758C101.566 19.1758 100.98 19.0674 100.459 18.8506C99.9434 18.6279 99.5068 18.3057 99.1494 17.8838C98.792 17.4619 98.5166 16.9463 98.3232 16.3369C98.1357 15.7217 98.042 15.0244 98.042 14.2451C98.042 12.5635 98.3877 11.2979 99.0791 10.4482C99.7705 9.59863 100.755 9.17383 102.032 9.17383C102.612 9.17383 103.134 9.26465 103.597 9.44629C104.06 9.62793 104.452 9.90039 104.774 10.2637C105.097 10.6211 105.343 11.0693 105.513 11.6084C105.688 12.1416 105.776 12.7627 105.776 13.4717V14.2979H99.7822C99.7939 14.9541 99.8584 15.5195 99.9756 15.9941C100.099 16.4629 100.271 16.8496 100.494 17.1543C100.723 17.459 101.001 17.6846 101.329 17.8311C101.657 17.9717 102.035 18.042 102.463 18.042C102.773 18.042 103.061 18.0068 103.324 17.9365C103.594 17.8662 103.837 17.7725 104.054 17.6553C104.271 17.5381 104.461 17.4062 104.625 17.2598C104.795 17.1074 104.933 16.9492 105.038 16.7852C105.12 16.8203 105.196 16.8936 105.267 17.0049C105.343 17.1162 105.381 17.248 105.381 17.4004C105.381 17.582 105.316 17.7783 105.188 17.9893C105.059 18.1943 104.862 18.3848 104.599 18.5605C104.335 18.7363 104.004 18.8828 103.605 19C103.213 19.1172 102.75 19.1758 102.217 19.1758ZM111.63 10.1406C110.962 10.1406 110.446 10.4131 110.083 10.958C109.726 11.4971 109.515 12.2881 109.45 13.3311H113.59C113.59 12.8564 113.555 12.4229 113.484 12.0303C113.414 11.6377 113.303 11.3008 113.15 11.0195C112.998 10.7383 112.796 10.5215 112.544 10.3691C112.298 10.2168 111.993 10.1406 111.63 10.1406ZM111.85 19.1758C111.199 19.1758 110.613 19.0674 110.092 18.8506C109.576 18.6279 109.14 18.3057 108.782 17.8838C108.425 17.4619 108.149 16.9463 107.956 16.3369C107.769 15.7217 107.675 15.0244 107.675 14.2451C107.675 12.5635 108.021 11.2979 108.712 10.4482C109.403 9.59863 110.388 9.17383 111.665 9.17383C112.245 9.17383 112.767 9.26465 113.229 9.44629C113.692 9.62793 114.085 9.90039 114.407 10.2637C114.729 10.6211 114.976 11.0693 115.146 11.6084C115.321 12.1416 115.409 12.7627 115.409 13.4717V14.2979H109.415C109.427 14.9541 109.491 15.5195 109.608 15.9941C109.731 16.4629 109.904 16.8496 110.127 17.1543C110.355 17.459 110.634 17.6846 110.962 17.8311C111.29 17.9717 111.668 18.042 112.096 18.042C112.406 18.042 112.693 18.0068 112.957 17.9365C113.227 17.8662 113.47 17.7725 113.687 17.6553C113.903 17.5381 114.094 17.4062 114.258 17.2598C114.428 17.1074 114.565 16.9492 114.671 16.7852C114.753 16.8203 114.829 16.8936 114.899 17.0049C114.976 17.1162 115.014 17.248 115.014 17.4004C115.014 17.582 114.949 17.7783 114.82 17.9893C114.691 18.1943 114.495 18.3848 114.231 18.5605C113.968 18.7363 113.637 18.8828 113.238 19C112.846 19.1172 112.383 19.1758 111.85 19.1758ZM122.414 13.208L124.813 16.7676C125.124 17.248 125.432 17.6143 125.736 17.8662C126.047 18.1182 126.404 18.2441 126.809 18.2441H126.861V19H126.606C126.085 19 125.654 18.9854 125.314 18.9561C124.98 18.9209 124.69 18.8447 124.444 18.7275C124.198 18.6045 123.973 18.4287 123.768 18.2002C123.562 17.9658 123.334 17.6494 123.082 17.251L121.28 14.4297L119.953 15.4141V17.04C119.953 17.3037 119.991 17.5176 120.067 17.6816C120.149 17.8398 120.258 17.96 120.393 18.042C120.527 18.124 120.683 18.1797 120.858 18.209C121.04 18.2324 121.23 18.2441 121.43 18.2441H121.482V19H116.64V18.2441H116.78C116.985 18.2441 117.176 18.2295 117.352 18.2002C117.533 18.1709 117.688 18.1123 117.817 18.0244C117.952 17.9307 118.058 17.7988 118.134 17.6289C118.216 17.459 118.257 17.2334 118.257 16.9521V7.30176C118.257 7.03809 118.216 6.82715 118.134 6.66895C118.058 6.50488 117.952 6.37891 117.817 6.29102C117.683 6.20312 117.524 6.14746 117.343 6.12402C117.167 6.09473 116.979 6.08008 116.78 6.08008H116.64V5.32422H119.953V12.2676C119.953 12.4316 119.95 12.6426 119.944 12.9004C119.938 13.1523 119.93 13.4014 119.918 13.6475C119.906 13.9287 119.895 14.2246 119.883 14.5352L122.133 12.0742C122.326 11.8574 122.484 11.667 122.607 11.5029C122.736 11.3389 122.839 11.1953 122.915 11.0723C122.991 10.9492 123.044 10.8408 123.073 10.7471C123.103 10.6475 123.117 10.5537 123.117 10.4658C123.117 10.3135 123.044 10.2168 122.897 10.1758C122.757 10.1289 122.537 10.1055 122.238 10.1055V9.34961H126.211V10.1055C125.795 10.1055 125.385 10.252 124.98 10.5449C124.582 10.8379 124.148 11.251 123.68 11.7842L122.414 13.208Z" fill="#212529"/>
<path d="M4.99383 14.1608C5.65956 14.8998 6.3253 15.6371 6.98941 16.3761C9.09567 14.2178 11.2036 12.0611 13.3098 9.90271C13.8649 10.4708 14.4183 11.0389 14.9733 11.6069C14.9733 14.0713 14.9701 16.5356 14.9685 19H0C1.66515 17.3869 3.3303 15.7755 4.99383 14.1624V14.1608Z" fill="#212529"/>
<path d="M0.00488281 17.0955C1.66841 15.4483 3.33193 13.8027 4.99546 12.1554C5.66119 12.8944 6.32693 13.6318 6.99103 14.3708C9.0973 12.2124 11.2052 10.0557 13.3114 7.89733C13.8665 8.4654 14.4199 9.03348 14.975 9.60155V5H10.4841C11.0392 5.56807 11.5926 6.13614 12.1476 6.70422C10.4288 8.46378 8.7099 10.225 6.99103 11.9845C6.3253 11.2455 5.65956 10.5082 4.99546 9.7692C3.3303 11.4164 1.66841 13.0637 0.00488281 14.7093V17.0939V17.0955Z" fill="#212529"/>
</svg>
