<svg width="42" height="42" viewBox="0 0 42 42" fill="none" xmlns="http://www.w3.org/2000/svg">
<path fill-rule="evenodd" clip-rule="evenodd" d="M42 0H0V42H42V0ZM32.04 21C32.04 14.9026 27.0974 9.96 21 9.96C14.9026 9.96 9.96 14.9026 9.96 21C9.96 27.0974 14.9026 32.04 21 32.04C27.0974 32.04 32.04 27.0974 32.04 21ZM26.0803 17.4442C25.9627 18.6677 25.0114 24.877 24.8083 25.5C24.635 26.0323 24.4517 26.4907 24.1037 26.4907C23.7557 26.4907 23.3755 26.3693 23.0006 26.1014C22.6258 25.8336 20.137 24.1642 19.7909 23.9462C19.488 23.7552 19.1674 23.2781 19.619 22.8178C19.8503 22.582 21.0285 21.4343 21.9446 20.5418C22.5019 19.9988 22.9623 19.5503 23.0534 19.4592C23.2944 19.2178 23.0592 18.9091 22.7645 19.1501C22.4693 19.391 18.359 22.1414 18.0029 22.3627C17.6669 22.5715 17.0674 22.6978 16.5408 22.5523C15.9941 22.4016 15.0682 22.1208 14.7005 21.9898C14.3472 21.8635 14.219 21.7421 14.219 21.5261C14.219 21.2189 14.652 21.0067 15.1099 20.8123C15.5928 20.6069 23.9506 17.0582 24.6043 16.8226C25.081 16.6507 25.4918 16.584 25.7693 16.7174C25.9987 16.8274 26.1158 17.0736 26.0803 17.4442Z" fill="white"/>
</svg>
