<svg width="42" height="42" viewBox="0 0 42 42" fill="none" xmlns="http://www.w3.org/2000/svg">
<rect width="42" height="42" fill="white"/>
<path d="M19.0628 26.9954H14.5304V19.6689H10V15.007H19.0628V26.9954Z" fill="#212529"/>
<path d="M22.9531 26.998C24.5762 22.9909 26.1963 18.9924 27.8134 15.0024H33C32.9486 15.1315 32.8994 15.2566 32.8491 15.38C31.2908 19.2259 29.7328 23.0719 28.1751 26.9178C28.1549 26.9675 28.1386 27 28.0728 27C26.3892 26.9975 24.7056 26.9968 23.0219 26.998H22.9531Z" fill="#212529"/>
<path d="M22.9633 15C24.388 15 25.5473 16.1937 25.5507 17.6642C25.554 19.1506 24.3865 20.335 22.9186 20.334C21.5192 20.333 20.3603 19.1237 20.3608 17.6647C20.3606 16.189 21.5219 15 22.9633 15Z" fill="#212529"/>
</svg>
