<svg width="42" height="42" viewBox="0 0 42 42" fill="none" xmlns="http://www.w3.org/2000/svg">
<rect width="42" height="42" fill="white"/>
<path d="M18.0628 26.9954H13.5304V19.6689H9V15.007H18.0628V26.9954Z" fill="#212529"/>
<path d="M21.9531 26.998C23.5762 22.991 25.1963 18.9924 26.8134 15.0024H32C31.9486 15.1316 31.8994 15.2567 31.8491 15.3801C30.2908 19.226 28.7328 23.0719 27.1751 26.9179C27.1549 26.9675 27.1386 27.0001 27.0728 27.0001C25.3892 26.9976 23.7056 26.9969 22.0219 26.998H21.9531Z" fill="#212529"/>
<path d="M21.9633 15C23.388 15 24.5473 16.1937 24.5507 17.6642C24.554 19.1506 23.3865 20.335 21.9186 20.334C20.5192 20.333 19.3603 19.1237 19.3608 17.6647C19.3606 16.189 20.5219 15 21.9633 15Z" fill="#212529"/>
</svg>
