<svg width="42" height="42" viewBox="0 0 42 42" fill="none" xmlns="http://www.w3.org/2000/svg">
<path fill-rule="evenodd" clip-rule="evenodd" d="M42 0H0V42H42V0ZM27.3833 16.3735C28.1 16.2765 28.7917 16.0735 29.4333 15.7647C28.95 16.5324 28.35 17.2029 27.65 17.7324C27.6583 17.9 27.6583 18.0588 27.6583 18.2265C27.6583 23.2294 24.05 29 17.4833 29C15.4667 29 13.5833 28.3735 12 27.2971C12.2833 27.3324 12.5667 27.35 12.85 27.35C14.4617 27.3582 16.028 26.7857 17.2917 25.7265C16.5462 25.7121 15.8237 25.4507 15.2258 24.9791C14.6279 24.5074 14.1847 23.8492 13.9583 23.0971C14.4917 23.2084 15.0423 23.1872 15.5667 23.0353C13.9333 22.6912 12.7 21.1559 12.7 19.3206V19.2941C13.1833 19.5588 13.7333 19.7353 14.325 19.7353C13.3583 19.0735 12.7333 17.9088 12.7333 16.5941C12.7333 15.9059 12.9083 15.2529 13.2167 14.6971C14.975 16.9824 17.6167 18.4912 20.5833 18.65C20.525 18.3765 20.4917 18.0853 20.4917 17.7853C20.4917 15.6941 22.0917 14 24.05 14C25.1 14 26.025 14.4412 26.6833 15.2C27.4917 15.0235 28.2583 14.7147 28.95 14.2735C28.6833 15.1647 28.1167 15.9059 27.3833 16.3735Z" fill="#EFEFEF"/>
</svg>
