<?xml version="1.0" encoding="UTF-8"?>
<svg width="205" height="191" viewBox="0 0 205 191" fill="none" xmlns="http://www.w3.org/2000/svg">
<path id="logo-top" d="M68.0508 124.834C77.1228 134.904 86.1948 144.952 95.2445 155.022C123.947 125.611 152.671 96.2209 181.373 66.8091C188.936 74.5503 196.478 82.2914 204.042 90.0325C204.042 123.614 203.997 157.196 203.975 190.778H0C22.691 168.797 45.382 146.838 68.0508 124.856V124.834Z" fill="#181818"/>
<path id="logo-bottom" d="M0.0664062 164.826C22.7352 142.379 45.4041 119.954 68.0729 97.507C77.1448 107.577 86.2168 117.625 95.2666 127.695C123.969 98.2833 152.693 68.8937 181.395 39.4819C188.958 47.223 196.5 54.9641 204.064 62.7052V0H142.867C150.43 7.74111 157.972 15.4822 165.536 23.2233C142.113 47.2008 118.69 71.2005 95.2666 95.178C86.1946 85.1079 77.1227 75.06 68.0729 64.9899C45.3819 87.4369 22.7352 109.884 0.0664062 132.309V164.804V164.826Z" fill="#181818"/>
  <style>
    @media (prefers-color-scheme: dark) {
        #logo-top, #logo-bottom { fill: #fff }
    }
  </style>
</svg>
