<svg width="7" height="7" viewBox="0 0 7 7" fill="none" xmlns="http://www.w3.org/2000/svg">
<path d="M3.5 0C1.568 0 0 1.568 0 3.5C0 5.432 1.568 7 3.5 7C5.432 7 7 5.432 7 3.5C7 1.568 5.432 0 3.5 0ZM4.7635 2.219C5.138 2.219 5.439 2.52 5.439 2.8945C5.439 3.269 5.138 3.57 4.7635 3.57C4.389 3.57 4.088 3.269 4.088 2.8945C4.0845 2.52 4.389 2.219 4.7635 2.219ZM2.6635 1.666C3.1185 1.666 3.4895 2.037 3.4895 2.492C3.4895 2.947 3.1185 3.318 2.6635 3.318C2.2085 3.318 1.8375 2.947 1.8375 2.492C1.8375 2.0335 2.205 1.666 2.6635 1.666ZM2.6635 4.8615V6.174C1.8235 5.9115 1.1585 5.264 0.8645 4.438C1.232 4.046 2.149 3.8465 2.6635 3.8465C2.849 3.8465 3.0835 3.8745 3.3285 3.9235C2.7545 4.228 2.6635 4.6305 2.6635 4.8615ZM3.5 6.3C3.4055 6.3 3.3145 6.2965 3.2235 6.286V4.8615C3.2235 4.3645 4.2525 4.116 4.7635 4.116C5.138 4.116 5.7855 4.2525 6.1075 4.5185C5.698 5.558 4.6865 6.3 3.5 6.3Z" fill="#181818"/>
</svg>
