<svg width="7" height="7" viewBox="0 0 7 7" fill="none" xmlns="http://www.w3.org/2000/svg">
<path d="M6.36364 0C6.69773 0 6.97455 0.257727 7 0.588636V4.45454C7 4.78863 6.73909 5.06545 6.41136 5.09091H4.13636V5.72727H4.77273V6.36363H2.22727V5.72727H2.86364V5.09091H0.636366C0.302275 5.09091 0.0254571 4.83 2.52641e-06 4.50227V0.636363C-0.000450375 0.475542 0.0600045 0.320513 0.169209 0.202454C0.278414 0.0843944 0.42827 0.012061 0.588639 0H6.36364ZM6.36364 0.636363H0.636366V4.45454H6.36364V0.636363ZM3.5 2.86364C4.20318 2.86364 4.77273 3.15 4.77273 3.5V3.81818H2.22727V3.5C2.22727 3.15 2.79682 2.86364 3.5 2.86364ZM3.5 1.27273C3.66878 1.27273 3.83064 1.33977 3.94998 1.45911C4.06932 1.57845 4.13636 1.74032 4.13636 1.90909C4.13636 2.07786 4.06932 2.23973 3.94998 2.35907C3.83064 2.47841 3.66878 2.54545 3.5 2.54545C3.14682 2.54545 2.86364 2.26227 2.86364 1.90909C2.86364 1.55591 3.15 1.27273 3.5 1.27273Z" fill="#181818"/>
</svg>
