<svg width="7" height="7" viewBox="0 0 7 7" fill="none" xmlns="http://www.w3.org/2000/svg">
<path d="M3.5 7C3.08519 7 2.69306 6.93194 2.32361 6.79583C1.95417 6.65972 1.62037 6.47176 1.32222 6.23194L0.554167 7L0 6.44583L0.768056 5.67778C0.528241 5.37963 0.340278 5.04415 0.204167 4.67133C0.0680556 4.29852 0 3.90807 0 3.5C0 2.52778 0.341963 1.70139 1.02589 1.02083C1.70981 0.340278 2.53452 0 3.5 0H7V3.5C7 4.46574 6.65972 5.29057 5.97917 5.9745C5.29861 6.65843 4.47222 7.00026 3.5 7ZM2.98472 5.39583L4.99722 3.59722C5.06204 3.53889 5.08148 3.46928 5.05556 3.38839C5.02963 3.3075 4.9713 3.26044 4.88056 3.24722L3.30556 3.09167L4.24861 1.79861C4.27454 1.7662 4.28594 1.73224 4.28283 1.69672C4.27972 1.6612 4.26507 1.62711 4.23889 1.59444C4.20648 1.56204 4.16915 1.54583 4.12689 1.54583C4.08463 1.54583 4.04743 1.56204 4.01528 1.59444L2.0125 3.39306C1.94769 3.45139 1.92824 3.52113 1.95417 3.60228C1.98009 3.68343 2.03843 3.73035 2.12917 3.74306L3.70417 3.89861L2.75139 5.19167C2.73194 5.22407 2.72222 5.25817 2.72222 5.29394C2.72222 5.32972 2.73843 5.36369 2.77083 5.39583C2.80324 5.42824 2.83889 5.44444 2.87778 5.44444C2.91667 5.44444 2.95231 5.42824 2.98472 5.39583Z" fill="#181818"/>
</svg>
