<svg width="7" height="7" viewBox="0 0 7 7" fill="none" xmlns="http://www.w3.org/2000/svg">
<path d="M3.85 2.45H3.15V1.75H3.85M3.85 5.25H3.15V3.15H3.85M3.5 0C3.04037 0 2.58525 0.0905302 2.16061 0.266422C1.73597 0.442313 1.35013 0.700121 1.02513 1.02513C0.368749 1.6815 0 2.57174 0 3.5C0 4.42826 0.368749 5.3185 1.02513 5.97487C1.35013 6.29988 1.73597 6.55769 2.16061 6.73358C2.58525 6.90947 3.04037 7 3.5 7C4.42826 7 5.3185 6.63125 5.97487 5.97487C6.63125 5.3185 7 4.42826 7 3.5C7 3.04037 6.90947 2.58525 6.73358 2.16061C6.55769 1.73597 6.29988 1.35013 5.97487 1.02513C5.64987 0.700121 5.26403 0.442313 4.83939 0.266422C4.41475 0.0905302 3.95963 0 3.5 0Z" fill="#181818"/>
</svg>
