<svg width="164" height="137" viewBox="0 0 164 137" fill="none" xmlns="http://www.w3.org/2000/svg">
<g filter="url(#filter0_d_358_5345)">
<circle cx="103.242" cy="65.4196" r="40.6564" fill="#E1FEE0"/>
</g>
<mask id="mask0_358_5345" style="mask-type:alpha" maskUnits="userSpaceOnUse" x="62" y="5" width="82" height="102">
<path d="M143.898 65.4196C143.898 87.8735 125.696 106.076 103.242 106.076C80.7877 106.076 62.5852 87.8735 62.5852 65.4196C62.5852 42.9657 80.7877 5.30371 103.242 5.30371C125.696 5.30371 143.898 42.9657 143.898 65.4196Z" fill="white"/>
</mask>
<g mask="url(#mask0_358_5345)">
<path d="M140.118 65.7672C140.118 86.334 123.599 102.991 103.242 102.991C82.884 102.991 66.3652 86.334 66.3652 65.7672C66.3652 45.2003 82.884 28.5432 103.242 28.5432C123.599 28.5432 140.118 45.2003 140.118 65.7672Z" stroke="#6EE327" stroke-width="2"/>
<path d="M103.124 82.0108C102.195 80.1645 101.17 78.3024 100.048 76.4243C98.9592 74.5143 97.6937 72.5726 96.2521 70.599C95.8036 71.172 95.2269 71.9678 94.5221 72.9864C93.8493 74.005 93.1605 75.0873 92.4557 76.2333C91.7829 77.3792 91.1422 78.4774 90.5335 79.5279C89.9248 80.5784 89.4762 81.406 89.1879 82.0108H80.634C82.0437 79.4324 83.6775 76.7267 85.5357 73.8936C87.4259 71.0606 89.5243 68.0524 91.831 64.8692L81.1146 48.9214H90.1971L96.6846 59.235L103.028 48.9214H111.582L101.01 64.9647C103.701 68.4344 105.959 71.6495 107.785 74.6098C109.612 77.5384 111.053 80.0054 112.11 82.0108H103.124Z" fill="#6EE327"/>
<path d="M124.499 69.8112C124.499 70.416 124.379 70.9969 124.139 71.554C123.899 72.111 123.586 72.6522 123.202 73.1774C122.817 73.6867 122.385 74.1801 121.904 74.6576C121.424 75.1351 120.951 75.5887 120.487 76.0184C120.246 76.2412 119.982 76.4959 119.694 76.7824C119.421 77.053 119.157 77.3315 118.901 77.618C118.645 77.9045 118.412 78.175 118.204 78.4297C118.012 78.6684 117.892 78.8674 117.844 79.0265H125.004V82.0108H113.903C113.871 81.8357 113.855 81.6129 113.855 81.3423C113.855 81.0717 113.855 80.8808 113.855 80.7693C113.855 80.0054 113.975 79.3051 114.215 78.6684C114.472 78.0318 114.8 77.4429 115.201 76.9017C115.601 76.3447 116.05 75.8274 116.546 75.3499C117.059 74.8725 117.563 74.395 118.06 73.9175C118.444 73.5514 118.805 73.2092 119.141 72.8909C119.478 72.5567 119.774 72.2384 120.03 71.936C120.286 71.6176 120.487 71.3073 120.631 71.0049C120.775 70.6865 120.847 70.3682 120.847 70.0499C120.847 69.3496 120.647 68.8562 120.246 68.5697C119.846 68.2832 119.349 68.14 118.757 68.14C118.324 68.14 117.916 68.2116 117.531 68.3548C117.163 68.4822 116.818 68.6413 116.498 68.8323C116.194 69.0074 115.929 69.1904 115.705 69.3814C115.481 69.5565 115.313 69.6998 115.201 69.8112L113.423 67.3283C114.127 66.6757 114.944 66.1425 115.873 65.7287C116.818 65.299 117.828 65.0841 118.901 65.0841C119.878 65.0841 120.719 65.1955 121.424 65.4183C122.129 65.6412 122.705 65.9595 123.154 66.3733C123.618 66.7712 123.955 67.2646 124.163 67.8535C124.387 68.4265 124.499 69.079 124.499 69.8112Z" fill="#6EE327"/>
<path d="M140.118 65.7672C140.118 70.6568 139.164 75.4983 137.31 80.0152C135.456 84.532 132.739 88.6356 129.314 92.0917C125.889 95.5479 121.824 98.289 117.351 100.159C112.877 102.029 108.083 102.991 103.242 102.991C98.4003 102.991 93.6061 102.029 89.1327 100.159C84.6593 98.2889 80.594 95.5479 77.1693 92.0917C73.7446 88.6356 71.0275 84.532 69.1735 80.0152C67.3196 75.4983 66.3652 70.6568 66.3652 65.7672" stroke="#6EE327" stroke-width="2"/>
</g>
<path d="M80.7609 104.228L73.7242 106.177L68.518 111.297C68.518 111.297 69.683 115.002 73.4482 119.677C77.2133 124.352 83.7731 127.441 85.4476 126.475C87.1221 125.508 87.7293 118.295 85.5607 112.684C83.392 107.074 80.7609 104.228 80.7609 104.228Z" fill="#6EE327"/>
<path opacity="0.5" d="M80.7609 104.228L73.7242 106.177L68.518 111.297C68.518 111.297 69.683 115.002 73.4482 119.677C77.2133 124.352 83.7731 127.441 85.4476 126.475C87.1221 125.508 87.7293 118.295 85.5607 112.684C83.392 107.074 80.7609 104.228 80.7609 104.228Z" fill="white"/>
<path d="M79.0725 106.177L70.6899 111.017C73.6724 118.949 80.7262 122.283 82.2703 121.392C83.8144 120.5 84.4501 112.726 79.0725 106.177Z" fill="#6EE327"/>
<path d="M74.8831 108.596L76.3174 107.768C77.6588 108.558 78.7137 109.755 79.3289 111.185C80.2846 113.237 80.5702 116.457 79.7089 116.955C78.8477 117.452 76.2013 115.594 74.8991 113.743C73.9681 112.495 73.4589 110.983 73.4454 109.426L74.8831 108.596Z" fill="white"/>
<path d="M82.2491 98.3818L76.3056 90.0051L58.4354 100.322L62.7182 109.658C63.4465 111.324 65.3099 112.38 68.0752 112.375C73.175 112.373 79.3719 108.795 81.9205 104.382C83.3139 101.985 83.3275 99.8455 82.2491 98.3818Z" fill="#37474F"/>
<path d="M63.363 102.835C58.6947 102.84 56.8028 99.5629 59.1413 95.5226C61.4798 91.4824 67.1463 88.2062 71.8131 88.2066C76.4799 88.2069 78.3698 91.4804 76.0347 95.5187C73.6997 99.557 68.0218 102.821 63.363 102.835Z" fill="#455A64"/>
<path d="M80.8048 96.3245L78.8133 93.5169C79.2156 94.8081 78.9682 96.4241 77.9553 98.1801C75.5159 102.402 69.5866 105.825 64.7071 105.829C62.6764 105.83 61.1601 105.232 60.2362 104.242L61.6685 107.373C62.5982 108.46 64.2012 109.113 66.3617 109.115C71.3881 109.104 77.4684 105.594 79.9736 101.256C81.0509 99.3895 81.287 97.6748 80.8048 96.3245Z" fill="#6EE327"/>
<path opacity="0.2" d="M81.9998 104.249C82.0627 104.144 82.1237 104.036 82.1778 103.931C82.1778 103.931 80.1104 107.046 75.5544 109.425C70.9985 111.804 67.29 111.68 66.4866 110.479C65.8537 109.467 65.3198 108.396 64.8923 107.282C67.1317 107.151 69.893 106.339 72.988 104.552C77.9737 101.674 80.0096 98.2107 80.458 95.8336L79.4689 94.4374L76.3083 89.9852L58.4278 100.308L62.7105 109.644C62.8456 109.957 63.0239 110.25 63.2402 110.514C63.3327 110.631 63.433 110.741 63.5405 110.844C63.684 110.985 63.8366 111.117 63.9973 111.239C64.9632 111.953 66.3406 112.366 68.0676 112.362C70.6167 112.363 73.4439 111.467 75.9488 110.021C76.5736 109.66 77.1781 109.266 77.7594 108.838C78.0484 108.626 78.328 108.405 78.6003 108.179C79.9195 107.113 81.0408 105.823 81.9129 104.368L81.9998 104.249Z" fill="#242923"/>
<path d="M71.1732 101.139L70.9125 101.29C67.275 103.445 63.4665 104.376 60.1806 103.899C59.8818 103.856 59.5945 103.754 59.3351 103.599C59.0757 103.445 58.8493 103.241 58.6688 102.999C58.4883 102.757 58.3572 102.481 58.2831 102.189C58.2089 101.896 58.1931 101.592 58.2366 101.293C58.2801 100.994 58.382 100.707 58.5365 100.447C58.6911 100.188 58.8951 99.9616 59.1372 99.7811C59.3792 99.6006 59.6544 99.4695 59.9471 99.3953C60.2398 99.3212 60.5442 99.3054 60.8429 99.3489C63.0957 99.677 65.852 98.9595 68.585 97.3221L68.6433 97.2884C71.4062 95.7344 73.4377 93.706 74.2696 91.597C74.4953 91.0305 74.9367 90.5768 75.4968 90.3358C76.0569 90.0948 76.6898 90.0862 77.2563 90.3118C77.8228 90.5375 78.2764 90.9789 78.5175 91.539C78.7585 92.0991 78.7671 92.732 78.5415 93.2985C77.3395 96.312 74.7281 99.087 71.1732 101.139Z" fill="#455A64"/>
<path d="M71.8616 67.9571L61.5854 61.5374L61.2972 64.0416L70.7882 85.7104L73.5321 85.5262C77.1791 85.3055 80.9529 87.2855 84.1969 91.1451L90.1671 98.2209C90.1671 98.2209 87.3847 91.9673 83.9687 84.4737C80.913 77.7786 76.9035 70.8656 71.8616 67.9571Z" fill="#37474F"/>
<path d="M61.4869 48.6558C50.2384 29.1729 32.2842 17.0935 23.924 16.7184L23.6994 16.7017L23.6685 16.7195C23.189 16.7179 22.7176 16.8434 22.3023 17.0831C21.887 17.3229 21.5427 17.6684 21.3043 18.0845L21.2734 18.1023L21.1756 18.3052C17.3046 25.7374 18.792 47.3239 30.0405 66.8068C40.863 85.552 55.7022 99.1142 57.1045 100.386C57.1283 100.427 57.1741 100.451 57.2096 100.481C58.2205 101.352 59.7438 101.859 61.6928 101.859C66.9719 101.858 73.3919 98.1519 76.0322 93.5805C77.0437 91.8298 77.351 90.2067 77.0527 88.8738C76.6567 87.039 72.3094 67.401 61.4869 48.6558Z" fill="#EBEBEB"/>
<path d="M23.9238 16.7185C29.9659 18.3085 47.1061 28.8036 59.5689 50.3899C68.5847 66.0058 72.7212 81.0074 76.0252 93.5845C76.9996 91.8965 77.3223 90.3239 77.0732 89.0129C77.0658 88.9662 77.0559 88.92 77.0436 88.8744C76.6531 87.0411 72.3175 67.3917 61.495 48.6466C50.2382 29.173 32.284 17.0936 23.9238 16.7185Z" fill="#F5F5F5"/>
<path d="M22.4867 17.4068C22.8431 17.2026 23.2468 17.0957 23.6575 17.0969L23.678 17.085C23.7419 17.0851 23.8056 17.0896 23.8688 17.0984C28.1722 17.2856 34.7048 20.5414 41.3509 25.8086C49.3098 32.2078 56.0198 40.0204 61.1438 48.8543C71.8851 67.4588 76.2037 86.8251 76.6501 88.9693C76.939 90.262 76.6013 91.7929 75.6752 93.3981C74.4306 95.5532 72.2891 97.5811 69.6401 99.1105C66.9911 100.64 64.1504 101.488 61.6755 101.481C59.8827 101.482 58.4236 101.039 57.4468 100.203C57.425 100.165 57.3812 100.145 57.3491 100.113C55.7183 98.6432 41.1089 85.2412 30.3616 66.6264C25.2784 57.7817 21.8704 48.075 20.3089 37.9938C19.067 29.6064 19.5 22.3291 21.5033 18.5007C21.5274 18.4404 21.5566 18.3822 21.5905 18.3268C21.7983 17.9649 22.099 17.665 22.4614 17.458M22.2633 17.1149C21.8469 17.3543 21.5019 17.7004 21.2637 18.1175L21.2363 18.1333C21.1991 18.1999 21.1653 18.2682 21.135 18.3382C17.264 25.7704 18.7514 47.3569 29.9999 66.8398C40.8224 85.585 55.6616 99.1472 57.0639 100.419C57.0877 100.46 57.1335 100.484 57.169 100.514C58.1799 101.385 59.7032 101.892 61.6522 101.892C64.2918 101.892 67.2167 100.967 69.8142 99.4675C72.4117 97.9679 74.6735 95.9026 75.9916 93.6134C77.0031 91.8628 77.3104 90.2397 77.0121 88.9067C76.623 87.068 72.286 67.4241 61.4635 48.6789C50.2385 29.1733 32.2843 17.0939 23.9241 16.7188L23.6994 16.7021L23.6686 16.7199C23.1896 16.7174 22.7186 16.8425 22.304 17.0823L22.2633 17.1149Z" fill="#E0E0E0"/>
<path d="M31.1061 18.8167C28.3355 17.5203 25.8731 16.8054 23.9241 16.7182C23.8508 16.7102 23.7781 16.711 23.7014 16.705L23.6705 16.7228C23.191 16.7212 22.7196 16.8466 22.3044 17.0864C21.8891 17.3262 21.5447 17.6717 21.3064 18.0877L21.2755 18.1056L21.1722 18.307C20.2766 20.0365 19.6646 22.5264 19.4176 25.5696C19.2593 27.5271 19.2266 29.4928 19.32 31.4546C20.1647 32.3074 21.5262 32.8115 23.3068 32.8129C27.7765 32.8126 33.2082 29.6766 35.4433 25.8059C36.3338 24.2578 36.5849 22.8226 36.2603 21.6741C34.6057 20.6115 32.884 19.657 31.1061 18.8167Z" fill="#455A64"/>
<path d="M23.6523 17.5477L18.2336 10.0483L22.0224 18.4887C22.0705 18.5589 22.1365 18.6149 22.2136 18.6508C22.2907 18.6868 22.376 18.7014 22.4607 18.6932C22.6908 18.6799 22.9146 18.6129 23.1142 18.4977C23.3137 18.3824 23.4836 18.2221 23.6102 18.0295C23.6597 17.9603 23.6897 17.8791 23.6971 17.7944C23.7045 17.7096 23.689 17.6245 23.6523 17.5477Z" fill="#263238"/>
<path opacity="0.15" d="M30.0357 66.8145C40.8582 85.5596 55.6974 99.1218 57.0997 100.394C57.1235 100.435 57.1693 100.459 57.2048 100.489C58.2157 101.36 59.739 101.867 61.688 101.867C62.6167 101.858 63.542 101.753 64.4491 101.554C56.5648 93.8172 44.5199 79.9045 35.5001 64.2818C23.0412 42.7023 19.537 24.3344 21.1688 18.3094C17.2998 25.745 18.7872 47.3315 30.0357 66.8145Z" fill="#242923"/>
<path d="M50.2119 103.853L46.8777 88.91L48.3248 88.413L61.6483 101.537L61.5531 106.309C61.4243 112.62 62.5257 118.896 64.7958 124.787L68.8639 135.129C68.8639 135.129 65.2534 130.31 60.9254 124.391C57.069 119.082 51.8917 112.587 50.2119 103.853Z" fill="#455A64"/>
<path d="M61.6485 101.537L48.3249 88.4128L51.6605 103.351C53.3404 112.085 58.0719 118.901 62.2154 125.119L68.8641 135.129L64.7764 124.784C62.5062 118.894 61.4048 112.618 61.5336 106.306L61.6485 101.537Z" fill="#37474F"/>
<path d="M50.7698 36.877C49.3026 35.0568 47.4362 34.0984 45.5923 34.1062L44.3092 34.1104C43.3647 34.1205 42.4397 34.3799 41.6278 34.8625C41.0142 35.2197 40.465 35.6775 40.0032 36.2167C37.6603 38.9419 37.5786 43.4361 39.8155 46.9301C41.3471 49.3215 43.69 50.6773 45.9567 50.7046L47.3248 50.697C48.2844 50.7026 49.2281 50.453 50.0595 49.9737C50.6 49.6583 51.085 49.2562 51.4951 48.7834C54.237 45.6083 53.3449 40.0614 50.7698 36.877Z" fill="#6EE327"/>
<g opacity="0.2">
<path d="M50.7698 36.877C49.3026 35.0568 47.4362 34.0984 45.5923 34.1062L44.3092 34.1104C43.3647 34.1205 42.4397 34.3799 41.6278 34.8625C41.0142 35.2197 40.465 35.6775 40.0032 36.2167C37.6603 38.9419 37.5786 43.4361 39.8155 46.9301C41.3471 49.3215 43.69 50.6773 45.9567 50.7046L47.3248 50.697C48.2844 50.7026 49.2281 50.453 50.0595 49.9737C50.6 49.6583 51.085 49.2562 51.4951 48.7834C54.237 45.6083 53.3449 40.0614 50.7698 36.877Z" fill="#242923"/>
</g>
<path d="M50.0506 49.9657C47.134 51.6496 43.2797 50.3384 41.0804 46.9095C38.8435 43.4155 38.9227 38.909 41.2681 36.1961C41.7291 35.6559 42.2776 35.1969 42.8907 34.8384C45.4745 33.3467 48.5668 34.1462 50.7663 36.8704C53.3414 40.0548 54.2438 45.5957 51.4823 48.7685C51.0739 49.2434 50.5903 49.6478 50.0506 49.9657Z" fill="#6EE327"/>
<path d="M50.0122 47.4896C48.0408 49.7487 44.5908 48.7576 42.734 45.8585C40.8772 42.9594 41.0366 39.4635 42.7513 37.4807C44.4659 35.498 47.1369 35.4885 49.25 38.1025C51.363 40.7164 51.9817 45.2271 50.0122 47.4896Z" fill="#37474F"/>
<path d="M47.9541 38.1643C46.9782 36.9572 45.8853 36.3163 44.8182 36.1638C44.0088 36.3768 43.2861 36.8372 42.7511 37.4808C41.0364 39.4635 40.8825 42.9608 42.7339 45.8585C43.7721 47.4826 45.306 48.4911 46.8112 48.6971C47.5538 48.532 48.2224 48.1299 48.7164 47.5515C50.6859 45.2889 50.076 40.7777 47.9541 38.1643Z" fill="#455A64"/>
<path opacity="0.3" d="M43.2848 38.8104C41.8545 40.9767 42.3108 43.9066 43.9412 45.8431C44.0731 46.0002 44.2606 46.1665 44.4614 46.1101C44.6621 46.0536 44.732 45.7388 44.7334 45.4955C44.7189 44.1313 44.671 42.5348 45.4108 41.3437C45.5984 41.0777 45.8147 40.8332 46.0557 40.6145C46.6997 39.9865 47.1743 39.287 46.72 38.3735C46.5858 38.0239 46.322 37.7395 45.9834 37.5796C45.6447 37.4197 45.2575 37.3966 44.9023 37.5152C44.2229 37.7347 43.6475 38.1955 43.2848 38.8104Z" fill="white"/>
<path d="M59.5559 54.3689C58.4287 52.9792 57.0037 52.2465 55.5874 52.2498L54.6094 52.2517C53.8872 52.2556 53.1788 52.45 52.5557 52.8152C52.0902 53.0895 51.6738 53.4396 51.3238 53.8513C49.5295 55.9258 49.477 59.3691 51.1839 62.0482C52.3553 63.879 54.1463 64.9129 55.8837 64.9347L56.9221 64.9345C57.6555 64.9363 58.3764 64.7442 59.0117 64.3777C59.4258 64.1374 59.7973 63.8302 60.111 63.4685C62.2301 61.0373 61.5252 56.8051 59.5559 54.3689Z" fill="#6EE327"/>
<g opacity="0.2">
<path d="M59.5559 54.3689C58.4287 52.9792 57.0037 52.2465 55.5874 52.2498L54.6094 52.2517C53.8872 52.2556 53.1788 52.45 52.5557 52.8152C52.0902 53.0895 51.6738 53.4396 51.3238 53.8513C49.5295 55.9258 49.477 59.3691 51.1839 62.0482C52.3553 63.879 54.1463 64.9129 55.8837 64.9347L56.9221 64.9345C57.6555 64.9363 58.3764 64.7442 59.0117 64.3777C59.4258 64.1374 59.7973 63.8302 60.111 63.4685C62.2301 61.0373 61.5252 56.8051 59.5559 54.3689Z" fill="#242923"/>
</g>
<path d="M59.001 64.3834C56.7672 65.6731 53.819 64.6714 52.1423 62.0526C50.4305 59.3808 50.4879 55.9302 52.2857 53.8536C52.6359 53.4425 53.0531 53.0933 53.5195 52.821C55.496 51.6799 57.8596 52.2872 59.5486 54.3727C61.5179 56.8089 62.2155 61.0681 60.0934 63.4783C59.7814 63.8379 59.4124 64.1438 59.001 64.3834Z" fill="#6EE327"/>
<path d="M58.9575 62.5007C57.4531 64.2294 54.8086 63.4686 53.3888 61.2551C51.969 59.0416 52.0937 56.3572 53.405 54.8407C54.7163 53.3241 56.7572 53.317 58.3737 55.3164C59.9901 57.3158 60.4792 60.7621 58.9575 62.5007Z" fill="#37474F"/>
<path d="M57.3998 55.3572C56.8238 54.5597 55.9658 54.0115 55.0001 53.8238C54.3803 53.9862 53.8271 54.3392 53.4187 54.8329C52.1074 56.3494 51.9807 59.0304 53.4025 61.2473C53.7365 61.8121 54.1884 62.2982 54.7273 62.6723C55.2663 63.0465 55.8796 63.3 56.5255 63.4154C57.0937 63.29 57.6052 62.9818 57.9817 62.5381C59.4862 60.8094 59.0162 57.3566 57.3998 55.3572Z" fill="#455A64"/>
<path opacity="0.3" d="M53.8255 55.847C52.7286 57.5051 53.0782 59.751 54.3261 61.231C54.4274 61.351 54.572 61.4826 54.7336 61.4533C54.8951 61.4241 54.9436 61.1674 54.9241 60.991C54.9191 59.96 54.8807 58.7286 55.4472 57.8159C55.5879 57.6105 55.7531 57.423 55.9391 57.2574C56.4303 56.777 56.7921 56.2388 56.4484 55.5405C56.3436 55.274 56.1409 55.0578 55.8817 54.936C55.6226 54.8143 55.3267 54.7963 55.0547 54.8857C54.5423 55.047 54.1056 55.3885 53.8255 55.847Z" fill="white"/>
<defs>
<filter id="filter0_d_358_5345" x="42.5852" y="8.76318" width="121.313" height="121.313" filterUnits="userSpaceOnUse" color-interpolation-filters="sRGB">
<feFlood flood-opacity="0" result="BackgroundImageFix"/>
<feColorMatrix in="SourceAlpha" type="matrix" values="0 0 0 0 0 0 0 0 0 0 0 0 0 0 0 0 0 0 127 0" result="hardAlpha"/>
<feOffset dy="4"/>
<feGaussianBlur stdDeviation="10"/>
<feComposite in2="hardAlpha" operator="out"/>
<feColorMatrix type="matrix" values="0 0 0 0 0.45 0 0 0 0 0.4425 0 0 0 0 0.4425 0 0 0 0.1 0"/>
<feBlend mode="normal" in2="BackgroundImageFix" result="effect1_dropShadow_358_5345"/>
<feBlend mode="normal" in="SourceGraphic" in2="effect1_dropShadow_358_5345" result="shape"/>
</filter>
</defs>
</svg>
