<?xml version="1.0" encoding="UTF-8"?><svg xmlns="http://www.w3.org/2000/svg" viewBox="0 0 50.99 50.99"><defs><style>.f{fill:#27e34f;stroke:#3e3940;stroke-miterlimit:10;stroke-width:.99px;}</style></defs><g id="a"/><g id="b"><g id="c"><g id="d"><g id="e"><path class="f" d="M49.33,27.63c.68-1.81,1.1-3.87,1.16-6.06,0-.19,0-.39,0-.58h0c-.15-2.73-.8-6.24-2.8-9.78-1.76-3.12-3.95-4.86-4.93-5.65C36.01,.08,27.58,.38,24.92,.58c-.93-.03-15.23-.23-21.63,10.63C1.18,14.79,.61,18.43,.5,20.99H.5c0,7.64,4.28,13.83,9.55,13.83H31.28v13.38c0,2.72,1.92,2.95,3.18,1.09,1.2-1.78,10.15-14.04,13.12-18.34,.1-.14,.2-.28,.29-.43,.02-.03,.05-.06,.06-.1,.02-.03,.03-.06,.05-.08,.01-.02,.03-.05,.05-.07,.51-.8,.95-1.69,1.3-2.64h0Z"/></g></g></g></g></svg>