<?xml version="1.0" encoding="UTF-8"?><svg xmlns="http://www.w3.org/2000/svg" viewBox="0 0 50.99 50.5"><defs><style>.e{fill:#27e34f;}.f{stroke-width:.98px;}.f,.g,.h{fill:none;stroke:#3e3940;stroke-linecap:round;stroke-linejoin:round;}.g{stroke-width:.99px;}.h{stroke-width:.98px;}</style></defs><g id="a"/><g id="b"><g id="c"><g id="d"><g><rect class="e" x=".43" width="50" height="49.67"/><line class="g" x1=".5" y1="50" x2="50.5" y2="50"/><path class="h" d="M1.1,36.19c3.44-1.59,6.89-3.18,10.33-4.77,2.62,.47,5.25,.94,7.87,1.4l11.7-4.32c2.52,.66,5.04,1.31,7.56,1.97,3.78-1.46,7.56-2.93,11.34-4.39"/><path class="f" d="M1.06,43.82c1.07-.96,2.14-1.91,3.22-2.87,1.12,.8,2.25,1.61,3.37,2.41,1.07,.8,2.14,1.61,3.22,2.41,.61-.75,1.22-1.51,1.84-2.26,.56,.3,1.12,.6,1.68,.91,.92-.91,1.84-1.81,2.76-2.72l2.45,1.21,5.36-3.02c.61,.5,1.22,1.01,1.84,1.51,1.07-.2,2.14-.4,3.22-.6,1.63,1.06,3.27,2.11,4.9,3.17l5.36-3.92c2.13,1.14,4.26,2.28,6.39,3.42,1.09-1.14,2.17-2.28,3.26-3.42"/><path class="h" d="M1.06,23.04c1.07-.96,2.14-1.91,3.21-2.87,1.12,.8,2.24,1.61,3.37,2.41,1.07,.8,2.14,1.61,3.21,2.41,.61-.75,1.22-1.51,1.84-2.26,.56,.3,1.12,.6,1.68,.91,.92-.91,1.84-1.81,2.75-2.72l2.45,1.21,5.35-3.02c.61,.5,1.22,1.01,1.84,1.51,1.07-.2,2.14-.4,3.21-.6,1.63,1.06,3.26,2.11,4.9,3.17l5.35-3.92c2.13,1.14,4.25,2.28,6.38,3.42,1.09-1.14,2.17-2.28,3.26-3.42"/><path class="h" d="M49.91,11.9c-3.44-1.64-6.89-3.28-10.33-4.92-2.62,.48-5.25,.97-7.87,1.45L20,3.97c-2.52,.68-5.04,1.35-7.56,2.03C8.66,4.49,4.88,2.98,1.1,1.47"/></g></g></g></g></svg>