<svg width="222" height="243" viewBox="0 0 222 243" fill="none" xmlns="http://www.w3.org/2000/svg">
<circle cx="111" cy="111" r="111" fill="white"/>
<path fill-rule="evenodd" clip-rule="evenodd" d="M111.5 62.916C116.062 62.916 120.742 63.0338 125.277 63.2266L130.634 63.4837L135.762 63.7889L140.564 64.1155L144.95 64.4583C149.711 64.8218 154.191 66.8597 157.601 70.2128C161.012 73.566 163.134 78.0194 163.594 82.7886L163.807 85.0645L164.207 89.9376C164.581 94.9875 164.858 100.492 164.858 105.757C164.858 111.021 164.581 116.526 164.207 121.575L163.807 126.448L163.594 128.724C163.134 133.494 161.011 137.949 157.599 141.302C154.188 144.655 149.706 146.692 144.945 147.055L140.57 147.392L135.767 147.724L130.634 148.029L125.277 148.286C120.687 148.486 116.094 148.589 111.5 148.597C106.906 148.589 102.313 148.486 97.7229 148.286L92.3657 148.029L87.238 147.724L82.4358 147.392L78.0497 147.055C73.2892 146.691 68.8092 144.653 65.3987 141.3C61.9883 137.947 59.8663 133.494 59.4064 128.724L59.1929 126.448L58.7928 121.575C58.3863 116.312 58.1692 111.036 58.1418 105.757C58.1418 100.492 58.4192 94.9875 58.7928 89.9376L59.1929 85.0645L59.4064 82.7886C59.8661 78.0202 61.9874 73.5675 65.3967 70.2145C68.806 66.8614 73.2848 64.823 78.0444 64.4583L82.4251 64.1155L87.2273 63.7889L92.3604 63.4837L97.7176 63.2266C102.309 63.027 106.904 62.9235 111.5 62.916ZM100.828 92.7705V118.743C100.828 121.217 103.496 122.759 105.631 121.527L128.041 108.541C128.529 108.259 128.934 107.854 129.215 107.365C129.497 106.876 129.645 106.321 129.645 105.757C129.645 105.192 129.497 104.637 129.215 104.148C128.934 103.659 128.529 103.254 128.041 102.972L105.631 89.9912C105.144 89.7091 104.591 89.5606 104.029 89.5607C103.467 89.5608 102.915 89.7095 102.428 89.9917C101.941 90.274 101.537 90.6799 101.256 91.1686C100.976 91.6573 100.828 92.2117 100.828 92.7758V92.7705Z" fill="#D90429"/>
<rect x="25.819" y="181.946" width="171.362" height="61.0541" fill="#D90429"/>
<path d="M81.8209 212.603L47.9589 229.043L47.9589 196.163L81.8209 212.603Z" fill="white"/>
<path d="M94.1076 226.103V224.211H95.6066C95.9635 224.211 96.2728 224.163 96.5346 224.068C96.8201 223.949 97.0342 223.723 97.177 223.39C97.3436 223.057 97.4268 222.557 97.4268 221.891V204.831C97.4268 204.141 97.3436 203.641 97.177 203.332C97.0342 202.998 96.8201 202.784 96.5346 202.689C96.2728 202.57 95.9635 202.511 95.6066 202.511H94.1076V200.619H106.421V202.511H104.922C104.589 202.511 104.28 202.558 103.994 202.653C103.732 202.749 103.518 202.951 103.352 203.26C103.185 203.57 103.102 204.045 103.102 204.688V223.925H109.74C110.288 223.925 110.752 223.806 111.132 223.568C111.537 223.331 111.858 222.986 112.096 222.533C112.358 222.058 112.56 221.486 112.703 220.82L113.274 218.143H115.272L115.023 226.103H94.1076ZM117.46 226.103V224.211H118.959C119.316 224.211 119.625 224.163 119.887 224.068C120.173 223.949 120.387 223.723 120.53 223.39C120.696 223.057 120.779 222.557 120.779 221.891V204.831C120.779 204.141 120.696 203.641 120.53 203.332C120.387 202.998 120.173 202.784 119.887 202.689C119.625 202.57 119.316 202.511 118.959 202.511H117.46V200.619H129.774V202.511H128.275C127.941 202.511 127.632 202.57 127.347 202.689C127.061 202.784 126.835 202.998 126.668 203.332C126.526 203.641 126.454 204.141 126.454 204.831V221.891C126.454 222.557 126.526 223.057 126.668 223.39C126.835 223.723 127.061 223.949 127.347 224.068C127.632 224.163 127.941 224.211 128.275 224.211H129.774V226.103H117.46ZM133.82 204.224C133.677 203.772 133.475 203.427 133.213 203.189C132.951 202.927 132.678 202.749 132.392 202.653C132.107 202.558 131.845 202.511 131.607 202.511H130.786V200.619H142.564V202.511H140.922C140.589 202.511 140.268 202.594 139.959 202.761C139.673 202.927 139.53 203.236 139.53 203.689C139.53 203.831 139.542 203.998 139.566 204.188C139.614 204.379 139.661 204.569 139.709 204.759C139.756 204.926 139.804 205.08 139.852 205.223L143.492 216.216C143.611 216.573 143.742 217.025 143.885 217.572C144.027 218.096 144.158 218.631 144.277 219.178C144.396 219.726 144.48 220.214 144.527 220.642C144.599 220.237 144.694 219.785 144.813 219.286C144.932 218.786 145.062 218.274 145.205 217.751C145.372 217.227 145.526 216.751 145.669 216.323L149.345 205.473C149.417 205.307 149.476 205.116 149.524 204.902C149.595 204.664 149.655 204.438 149.702 204.224C149.75 204.01 149.774 203.843 149.774 203.724C149.774 203.32 149.643 203.022 149.381 202.832C149.119 202.618 148.774 202.511 148.346 202.511H146.49V200.619H155.698V202.511H153.985C153.771 202.511 153.581 202.582 153.414 202.725C153.248 202.844 153.081 203.094 152.915 203.474C152.748 203.831 152.534 204.379 152.272 205.116L144.991 226.103H141.422L133.82 204.224ZM156.706 226.103V224.211H158.205C158.539 224.211 158.836 224.163 159.098 224.068C159.383 223.973 159.609 223.771 159.776 223.461C159.942 223.152 160.026 222.688 160.026 222.069V204.831C160.026 204.141 159.942 203.641 159.776 203.332C159.633 202.998 159.419 202.784 159.133 202.689C158.872 202.57 158.562 202.511 158.205 202.511H156.706V200.619H176.515L176.658 207.186H174.159L173.981 205.509C173.933 204.914 173.814 204.426 173.624 204.045C173.457 203.641 173.22 203.332 172.91 203.117C172.601 202.903 172.196 202.796 171.697 202.796H165.701V211.719H174.159V213.86H165.701V223.925H172.839C173.315 223.925 173.707 223.806 174.017 223.568C174.326 223.331 174.564 223.009 174.73 222.605C174.921 222.2 175.052 221.736 175.123 221.213L175.409 219.535H177.871L177.621 226.103H156.706Z" fill="white"/>
</svg>
