<svg width="28" height="28" viewBox="0 0 28 28" fill="none" xmlns="http://www.w3.org/2000/svg">
<path fill-rule="evenodd" clip-rule="evenodd" d="M28 0H0.145813V27.8542H28V0ZM15.9931 7.97218C15.5577 7.96175 15.1222 7.95738 14.6866 7.95905L13.4595 7.95845C13.0241 7.9574 12.5888 7.96237 12.1536 7.97337L12.0378 7.97636L11.6128 7.99426C10.9772 8.0241 10.5445 8.12438 10.1637 8.2718C9.76553 8.42195 9.40499 8.65722 9.10723 8.96117C8.80281 9.25867 8.5673 9.61927 8.41726 10.0176C8.26984 10.3984 8.16957 10.8311 8.13973 11.4668C8.13256 11.6255 8.12659 11.758 8.12182 11.8917L8.11764 12.0075C8.10722 12.4427 8.10285 12.8781 8.10451 13.3134V14.5406C8.10345 14.9761 8.10843 15.4117 8.11943 15.8471L8.12242 15.9629C8.12771 16.1045 8.13368 16.2462 8.14032 16.3878C8.17017 17.0229 8.27044 17.4562 8.41786 17.8364C8.5678 18.2348 8.80286 18.5958 9.10663 18.894C9.4046 19.1977 9.76537 19.4326 10.1637 19.5822C10.5445 19.729 10.9778 19.8305 11.6128 19.8603C11.7544 19.8671 11.8961 19.8731 12.0378 19.8782L12.1536 19.8818C12.589 19.8924 13.0245 19.897 13.4601 19.8955H14.2414L14.6866 19.8949C15.1222 19.8964 15.5577 19.8918 15.9931 19.8812L16.1089 19.8776C16.2385 19.873 16.3665 19.8673 16.5193 19.8604L16.5339 19.8597C17.1689 19.8299 17.6023 19.7296 17.9825 19.5822C18.3807 19.4322 18.7416 19.1974 19.0401 18.894C19.3439 18.596 19.5788 18.235 19.7283 17.8364C19.8751 17.4562 19.9765 17.0229 20.0064 16.3878L20.007 16.3733C20.0139 16.2204 20.0197 16.0925 20.0243 15.9629L20.0279 15.8471C20.0385 15.4117 20.0431 14.9761 20.0416 14.5406V13.7587L20.041 13.3134C20.0425 12.8781 20.0379 12.4427 20.0273 12.0075L20.0237 11.8917C20.0189 11.758 20.013 11.6255 20.0058 11.4668C19.976 10.8317 19.8757 10.3978 19.7283 10.0176C19.5783 9.61946 19.3435 9.25876 19.0401 8.96057C18.7082 8.62872 18.3764 8.4234 17.9825 8.2718C17.6023 8.12438 17.1689 8.0241 16.5339 7.99426L16.5192 7.9936C16.3664 7.98673 16.2385 7.98098 16.1089 7.97636L15.9931 7.97218ZM12.9181 11.1582C13.2851 11.0108 13.6776 10.9377 14.0731 10.9433C14.8645 10.9433 15.6236 11.2571 16.1833 11.8168C16.7429 12.3765 17.0573 13.1355 17.0573 13.927C17.0573 14.7185 16.7429 15.4775 16.1833 16.0372C15.6236 16.5969 14.8645 16.9113 14.0731 16.9113C13.6776 16.9169 13.2851 16.8438 12.9181 16.6964C12.5512 16.5489 12.2172 16.33 11.9356 16.0524C11.654 15.7747 11.4304 15.4439 11.2778 15.0791C11.1252 14.7143 11.0466 14.3227 11.0466 13.9273C11.0466 13.5318 11.1252 13.1403 11.2778 12.7755C11.4304 12.4107 11.654 12.0799 11.9356 11.8022C12.2172 11.5246 12.5512 11.3057 12.9181 11.1582ZM14.7683 12.2637C14.5472 12.1757 14.3109 12.1326 14.0731 12.137L14.0737 12.1364C13.5988 12.1364 13.1433 12.3251 12.8075 12.6609C12.4717 12.9967 12.2831 13.4521 12.2831 13.927C12.2831 14.4019 12.4717 14.8573 12.8075 15.1931C13.1433 15.5289 13.5988 15.7176 14.0737 15.7176C14.3115 15.7219 14.5478 15.6787 14.7688 15.5907C14.9898 15.5026 15.1911 15.3714 15.3608 15.2047C15.5305 15.038 15.6653 14.8392 15.7573 14.6198C15.8493 14.4004 15.8966 14.1649 15.8966 13.927C15.8966 13.6891 15.8491 13.4536 15.757 13.2343C15.665 13.0149 15.5301 12.8161 15.3603 12.6495C15.1906 12.4828 14.9893 12.3517 14.7683 12.2637ZM16.6984 10.2766C16.8319 10.1377 17.014 10.0557 17.2065 10.048V10.0468C17.4044 10.0468 17.5942 10.1254 17.7341 10.2654C17.874 10.4053 17.9526 10.595 17.9526 10.7929C17.9526 10.9908 17.874 11.1805 17.7341 11.3205C17.5942 11.4604 17.4044 11.539 17.2065 11.539C17.014 11.5313 16.8319 11.4494 16.6984 11.3104C16.5649 11.1714 16.4903 10.9862 16.4903 10.7935C16.4903 10.6008 16.5649 10.4156 16.6984 10.2766Z" fill="white"/>
</svg>
