<svg width="40" height="40" viewBox="0 0 40 40" fill="none" xmlns="http://www.w3.org/2000/svg">
<path d="M20.03 40C18.9673 39.9948 17.9493 39.5723 17.196 38.8239C16.4427 38.0754 16.0145 37.0611 16.004 36H24.016C24.0209 36.5346 23.9195 37.0648 23.7176 37.56C23.4584 38.1534 23.0618 38.6768 22.5603 39.0871C22.0588 39.4974 21.4669 39.7829 20.8333 39.92H20.7411C20.5071 39.9684 20.269 39.9952 20.03 40ZM36.0541 34H4.00601V30L8.01202 28V17C7.90649 14.1782 8.54469 11.3783 9.86279 8.88C10.5114 7.73454 11.396 6.73942 12.458 5.96029C13.52 5.18117 14.7354 4.63574 16.024 4.36V0H24.0361V4.36C29.2018 5.588 32.0481 10.076 32.0481 17V28L36.0541 30V34ZM40 16H35.994C35.9019 13.4455 35.2454 10.9429 34.0715 8.6713C32.8976 6.39971 31.2354 4.41527 29.2038 2.86L32.0481 0C34.4438 1.86096 36.3797 4.24621 37.7066 6.972C39.0786 9.79406 39.859 12.8661 40 16ZM4.00601 16H0C0.14021 12.866 0.921382 9.794 2.29344 6.972C3.62035 4.24621 5.55623 1.86096 7.95193 0L10.7962 2.86C8.76437 4.41508 7.102 6.39947 5.92812 8.67111C4.75423 10.9427 4.09787 13.4454 4.00601 16Z" fill="#1F1D20"/>
</svg>
