<?xml version="1.0" encoding="UTF-8"?>
<svg id="Ebene_2" data-name="Ebene 2" xmlns="http://www.w3.org/2000/svg" viewBox="0 0 80 80">
  <defs>
    <style>
      .cls-1 {
        fill: #fff;
        fill-rule: evenodd;
        stroke: #fff;
        stroke-miterlimit: 10;
      }

      .cls-2 {
        fill: #09113f;
      }
    </style>
  </defs>
  <g id="Layer_4" data-name="Layer 4">
    <g id="Layer_2" data-name="Layer 2">
      <circle class="cls-2" cx="40" cy="40" r="40"/>
    </g>
    <path class="cls-1" d="M21.1,59.96c.37,0,.67-.1,.97-.19-.22-.43-.54-.9-.9-1.28-.12-.13-.27-.19-.33-.35-.06-.15-.05-.44-.1-.7-.25-1.35-.53-3.24-.5-4.84,.04-1.97,.46-3.77,1.27-4.72,.82,2.46,1.9,5.52,2.7,8.33,.12,.42,.24,.96,.5,1.05,.23,.07,.35-.21,.57,0,.17,.17,.06,.45,.13,.74,.31,1.22,1.92,1.12,3.1,.81-.14-.51-.41-.86-.73-1.2-.1-.1-.25-.16-.33-.27-.1-.13-.16-.34-.27-.5-.66-1.05-1.41-2.21-1.83-3.56-.44-1.42-.63-2.98-.63-4.96,0-.12-.01-.29,0-.43,0-.06-.06-.3,.1-.27,.18,0,.16,.14,.2,.31,.08,.32,.08,1.02,.33,1.05,.17-.29,.1-.86,.23-1.2,.06,.43,.08,.91,.3,1.16,.15-.3,.08-.86,.1-1.32,.14-.29,.33-.52,.63-.62,.12,.56,.11,1.27,.43,1.59,.26-.31,.16-1.06,.3-1.51,.06,.52,.06,1.12,.33,1.39,.21-.32,.14-1.18,.1-1.67,.81-.65,1.62-1.32,2.1-2.36,.97,.48,2,1.02,3.2,1.28,1.22,.26,2.61,.26,4,.04,.6-.09,1.21-.28,1.87-.35,1.88-.21,4.08-.45,6-.19-.03,.83-.13,1.75-.17,2.71-.04,.9-.09,1.94,.03,2.87,.09,.65,.22,1.22,.17,2.09-.04,.71-.19,1.43-.3,2.21-.04,.29-.11,.69-.17,1.08-.05,.37-.18,.87-.13,1.08,.07,.29,.42,.27,.57,.5,.03,.34-.14,.43-.17,.7,.42,1.12,2.06,1.64,3.43,1.05-.21-.98-.92-1.31-1.27-2.05-.47-1.03-.41-2.64-.27-3.91,.05-.46,.1-.96,.2-1.28,.1-.34,.29-.66,.4-1.01,.32-1,.56-2.29,.83-3.33,.1,.67,.23,1.48,.4,2.13,.06,.22,.16,.43,.2,.62,.07,.35,.05,.79,.13,1.16,.01,.05-.02,.33,.1,.15,.04,.18-.17,.06-.1,.27,.22,.94,.08,2.84,.13,4.03,.01,.26,.1,.77,.27,.85,.2,.1,.3-.19,.47-.04,.15,.26,.12,.57,.2,.81,.37,1.09,1.87,1.06,2.9,.7-.1-.67-.5-1.09-.87-1.51-.36-.42-.68-.83-.9-1.43-.2-.54-.36-1.22-.43-1.97-.07-.68-.13-1.63,0-2.4,.05-.29,.19-.57,.23-.89,.15-.97,.09-2.16,.1-3.29,2.07,.03,3.03-1.31,3.63-2.98,.2-.57,.3-1.2,.53-1.78,.14-.35,.37-.65,.53-1.01,.16-.36,.28-.75,.4-1.16,.13-.44,.19-.88,.3-1.28,.53-1.93,1.9-3.3,2.9-4.65,.62,.58,1.92,.37,3,.31,.34-.02,.7-.07,1-.15,.31-.09,.57-.3,.83-.31,.46-.01,.95,.46,1.6,.35,.28-.05,.69-.48,.93-.66,.46-.34,.88-.7,1.03-1.36v-.46c-.13-.68-.67-.91-1.17-1.32-.68-.55-1.21-1.21-1.73-1.97-.29-.41-.67-.88-.8-1.47-.06-.25-.02-.5-.07-.74-.1-.49-.4-.94-.63-1.24-.37-.47-.87-.83-1.37-1.16,.08-.2,.18-.3,.17-.5-.02-.28-.28-.38-.37-.58,.49-.32,1.25-.82,1.7-1.43,.25-.34,.55-.93,.43-1.55h-.03v.04c-.84,.82-1.74,1.56-2.83,2.09-.26-.12-.62-.3-1.07-.15,.13-.31,.49-.86,.37-1.47-.29,.24-.79,.86-1.2,1.24-.14,.13-.31,.31-.43,.39-.32,.2-.78,.19-.83,.62-.05,.35,.2,.53,.3,.85-1.19,1.79-2.94,2.55-5.33,2.71-.41,.03-.84,.03-1.27,0-.35-.03-.71-.16-1.1-.19-.52-.05-1.07,.02-1.6,.04-1.65,.06-3.15,.27-4.7,.46-2.14,.27-4.34,.23-6.57,.23-3.93,0-7.57-.11-10.8-1.08-.67-.2-1.2-.45-2.07-.39-.49,.04-.99,.12-1.5,.15-.53,.04-1.08,.01-1.6,.04-.99,.05-1.92,.41-2.47,.89-.57,.5-1.02,1.34-1.2,2.4-.19,1.09-.07,2.31,.03,3.49,.21,2.34,.3,4.53,.3,7.05,0,1.14,.01,2.37-.13,3.52-.07,.57-.2,1.09-.23,1.63-.02,.3-.02,.56,0,.85,.02,.25,.12,.57,.1,.81-.03,.35-.27,.44-.3,.93-.04,.77,.24,1.62,.37,2.4,.13,.81,.14,1.69,.2,2.52,.08,1.2,.15,2.63,.17,4.07,0,.43-.1,1.09,.03,1.28,.15,.21,.4-.04,.5,.23,.09,.24-.07,.73,0,1.05,.16,.71,.58,1.13,1.33,1.32l.87-.04Zm-2.03-16.46c-.35-1.43-.28-3.61,0-5.07,.24,1.48,.46,3.68,0,5.07Z"/>
  </g>
</svg>