<?xml version="1.0" encoding="UTF-8"?>
<svg id="Ebene_2" data-name="Ebene 2" xmlns="http://www.w3.org/2000/svg" viewBox="0 0 80 80">
  <defs>
    <style>
      .cls-1 {
        fill: #2f2b30;
      }

      .cls-2 {
        fill: #fff;
        stroke: #2f2b30;
        stroke-miterlimit: 10;
      }
    </style>
  </defs>
  <g id="Layer_4" data-name="Layer 4">
    <g id="Layer_2" data-name="Layer 2">
      <circle class="cls-1" cx="40" cy="40" r="40"/>
      <path class="cls-2" d="M55.78,17.25v-1.88c0-.21-.16-.37-.36-.37H26.14c-.2,0-.36,.17-.36,.37v1.88c0,.21,.16,.37,.36,.37h.19c.2,0,.36,.17,.36,.37v12.42c0,.21-.16,.37-.36,.37h-.19c-.2,0-.36,.17-.36,.37v1.88c0,.21,.16,.37,.36,.37h.19c.2,0,.36,.17,.36,.37v12.42c0,.21-.16,.37-.36,.37h-.19c-.2,0-.36,.17-.36,.37v1.88c0,.21,.16,.37,.36,.37h.19c.2,0,.36,.17,.36,.37v12.42c0,.21-.16,.37-.36,.37h-.19c-.2,0-.36,.17-.36,.37v1.88c0,.21,.16,.37,.36,.37h29.28c.2,0,.36-.17,.36-.37v-1.88c0-.21-.16-.37-.36-.37h-.19c-.2,0-.36-.17-.36-.37v-12.42c0-.21,.16-.37,.36-.37h.19c.2,0,.36-.17,.36-.37v-1.88c0-.21-.16-.37-.36-.37h-.19c-.2,0-.36-.17-.36-.37v-12.42c0-.21,.16-.37,.36-.37h.19c.2,0,.36-.17,.36-.37v-1.88c0-.21-.16-.37-.36-.37h-.19c-.2,0-.36-.17-.36-.37v-12.42c0-.21,.16-.37,.36-.37h.19c.2,0,.36-.17,.36-.37Zm-1.27,46.81H27.05c-.2,0-.36-.17-.36-.37h0c0-.21,.16-.37,.36-.37h27.46c.2,0,.36,.17,.36,.37h0c0,.21-.16,.37-.36,.37Zm0-15.79H27.05c-.2,0-.36-.17-.36-.37h0c0-.21,.16-.37,.36-.37h27.46c.2,0,.36,.17,.36,.37h0c0,.21-.16,.37-.36,.37Zm.89-15.79H26.16c-.21,0-.38-.17-.38-.37h0c0-.21,.17-.37,.38-.37h29.23c.21,0,.38,.17,.38,.37h0c0,.21-.17,.37-.38,.37ZM26.69,16.31h0c0-.21,.16-.37,.36-.37h27.46c.2,0,.36,.17,.36,.37h0c0,.21-.16,.37-.36,.37H27.05c-.2,0-.36-.17-.36-.37Z"/>
    </g>
  </g>
</svg>