<?xml version="1.0" encoding="UTF-8"?>
<svg id="Ebene_2" data-name="Ebene 2" xmlns="http://www.w3.org/2000/svg" viewBox="0 0 80 80">
  <defs>
    <style>
      .cls-1 {
        fill: #720814;
      }

      .cls-2 {
        fill: #fff;
        stroke: #720814;
        stroke-linecap: round;
        stroke-linejoin: round;
        stroke-width: 1px;
      }
    </style>
  </defs>
  <g id="Layer_4" data-name="Layer 4">
    <g id="Layer_2" data-name="Layer 2">
      <circle class="cls-1" cx="40" cy="40" r="40"/>
      <g>
        <path class="cls-2" d="M23.79,21.3l.59,.54h0l.59,.54c.5-.51,1.15-1.37,1.37-2.63,.21-1.18,0-2.41-.63-3.65-.8-1.57-.32-2.83-.3-2.88h0s-1.52-.57-1.52-.57c-.03,.08-.78,1.93,.35,4.15,.07,.14,.17,.36,.27,.64,.26,.75,.47,1.9-.09,3.01-.15,.3-.36,.59-.64,.87Z"/>
        <path class="cls-2" d="M32.29,22.38c.5-.51,1.15-1.37,1.37-2.63,.21-1.18,0-2.41-.63-3.65-.8-1.57-.32-2.83-.3-2.88h0s-.76-.28-.76-.28l-.76-.29c-.03,.08-.78,1.93,.35,4.14,.07,.14,.17,.36,.27,.64,.26,.75,.47,1.9-.09,3.01-.15,.3-.36,.59-.64,.87l.59,.54h0s.59,.54,.59,.54Z"/>
        <path class="cls-2" d="M39.28,22.38c.5-.51,1.15-1.37,1.37-2.63,.21-1.18,0-2.41-.63-3.65-.8-1.57-.32-2.83-.3-2.88h0s-.76-.28-.76-.28l-.76-.29c-.03,.08-.78,1.93,.35,4.14,.07,.14,.17,.36,.27,.64,.26,.75,.47,1.9-.09,3.01-.15,.3-.36,.59-.64,.87l.59,.54h0s.59,.54,.59,.54Z"/>
        <path class="cls-2" d="M45.31,21.3l.59,.54h0l.59,.54c.5-.51,1.15-1.37,1.37-2.63,.21-1.18,0-2.41-.63-3.65-.8-1.57-.32-2.83-.3-2.88h0s-1.52-.57-1.52-.57c-.03,.08-.78,1.93,.35,4.15,.07,.14,.17,.36,.27,.64,.26,.75,.47,1.9-.09,3.01-.15,.3-.36,.59-.64,.87Z"/>
        <path class="cls-2" d="M52.62,21.3l.59,.54h0s.59,.54,.59,.54c.5-.51,1.15-1.37,1.37-2.63,.21-1.18,0-2.41-.63-3.65-.8-1.57-.32-2.83-.3-2.88h0s-.76-.28-.76-.28l-.76-.29c-.03,.08-.78,1.93,.35,4.14,.07,.14,.17,.36,.27,.64,.26,.75,.47,1.9-.09,3.01-.15,.3-.36,.59-.64,.87Z"/>
        <path class="cls-2" d="M18.39,60.39c0,1.24,1.05,2.25,2.35,2.25s2.35-1.01,2.35-2.25v-1.66h4.44v1.66c0,1.24,1.05,2.25,2.35,2.25h0c1.3,0,2.35-1.01,2.35-2.25v-1.66h4.44v1.66c0,1.24,1.05,2.25,2.35,2.25h0c1.3,0,2.35-1.01,2.35-2.25v-1.66h4.44v1.66c0,1.24,1.05,2.25,2.35,2.25h0c1.3,0,2.35-1.01,2.35-2.25v-1.66h4.44v1.66c0,1.24,1.05,2.25,2.35,2.25h0c1.3,0,2.35-1.01,2.35-2.25v-1.66h2.56v-3.2h-2.56v-23.05h2.56v-1.13h.63c.23,.58,.81,1,1.5,1,.88,0,1.6-.69,1.6-1.54s-.72-1.54-1.6-1.54c-.67,0-1.24,.39-1.48,.95h-.65v-.95h-2.56v-1.81c0-1.24-1.05-2.25-2.35-2.25h0c-1.3,0-2.35,1.01-2.35,2.25v1.81h-4.44v-1.81c0-1.24-1.05-2.25-2.35-2.25h0c-1.3,0-2.35,1.01-2.35,2.25v1.81h-4.44v-1.81c0-1.24-1.05-2.25-2.35-2.25h0c-1.3,0-2.35,1.01-2.35,2.25v1.81h-4.44v-1.81c0-1.24-1.05-2.25-2.35-2.25h0c-1.3,0-2.35,1.01-2.35,2.25v1.81h-4.44v-1.81c0-1.24-1.05-2.25-2.35-2.25s-2.35,1.01-2.35,2.25v1.81h-2.46v3.2h2.46v23.05h-2.46v3.2h2.46v1.66Zm36.56-27.91v23.05h-4.44v-23.05h4.44Zm-9.14,0v23.05h-4.44v-23.05h4.44Zm-9.14,0v23.05h-4.44v-23.05h4.44Zm-13.58,0h4.44v23.05h-4.44v-23.05Z"/>
      </g>
    </g>
  </g>
</svg>