<svg id="Layer_1" data-name="Layer 1" xmlns="http://www.w3.org/2000/svg" viewBox="0 0 42 42"><defs><style>.cls-1{fill:#efefef;}</style></defs><path class="cls-1" d="M26.72,14A1.32,1.32,0,1,0,28,15.28,1.32,1.32,0,0,0,26.72,14Z"/><path class="cls-1" d="M21,15.72A5.28,5.28,0,1,0,26.28,21,5.27,5.27,0,0,0,21,15.72Zm0,8.8A3.52,3.52,0,1,1,24.52,21,3.53,3.53,0,0,1,21,24.52Z"/><path class="cls-1" d="M0,0V42H42V0ZM32,25.84A6.16,6.16,0,0,1,25.84,32H16.16A6.16,6.16,0,0,1,10,25.84V16.16A6.16,6.16,0,0,1,16.16,10h9.68A6.16,6.16,0,0,1,32,16.16Z"/></svg>