<svg width="42" height="42" viewBox="0 0 42 42" fill="none" xmlns="http://www.w3.org/2000/svg">
<path fill-rule="evenodd" clip-rule="evenodd" d="M42 0H0V42H42V0ZM30 21.5C30 16.2531 25.7469 12 20.5 12C15.2532 12 11 16.2531 11 21.5C10.9972 23.1796 11.4419 24.8296 12.2882 26.2804L11.0038 31L15.7215 29.7127C17.1718 30.5584 18.8211 31.0027 20.5 31C25.7469 31 30 26.7468 30 21.5ZM17.0724 17.0426L17.2624 17.035L17.0705 17.0416C17.1979 17.0328 17.3258 17.0315 17.4534 17.0378C17.5047 17.0416 17.556 17.0473 17.6073 17.053C17.7583 17.0711 17.9246 17.1623 17.9806 17.2896C18.2637 17.9318 18.5392 18.5787 18.8052 19.2285C18.8641 19.372 18.829 19.5572 18.7169 19.7377C18.6599 19.8299 18.5715 19.9591 18.467 20.0921C18.3597 20.2289 18.1288 20.4816 18.1288 20.4816C18.1288 20.4816 18.0348 20.5937 18.0709 20.7333C18.0949 20.802 18.1275 20.8675 18.1678 20.9281L18.2238 21.0183C18.4933 21.4601 18.8191 21.865 19.1928 22.2229C19.2235 22.2526 19.254 22.2826 19.2845 22.3126C19.3673 22.3939 19.4502 22.4753 19.5377 22.5516C19.9839 22.9451 20.4887 23.2666 21.0339 23.5045C21.0673 23.5186 21.0938 23.5302 21.1218 23.5423C21.1615 23.5596 21.2042 23.5781 21.2733 23.6071C21.3322 23.6322 21.3929 23.6532 21.4548 23.6698C21.5187 23.6862 21.5861 23.6833 21.6484 23.6613C21.7106 23.6393 21.7649 23.5993 21.8044 23.5463C22.4912 22.7141 22.5549 22.6599 22.5596 22.6618C22.6074 22.6173 22.6642 22.5835 22.7261 22.5626C22.788 22.5418 22.8537 22.5345 22.9187 22.5412C22.9764 22.5438 23.033 22.5571 23.0859 22.5801C23.5913 22.81 24.4178 23.1701 24.4178 23.1701L24.9707 23.418C25.0629 23.4627 25.1474 23.5681 25.1512 23.6698C25.1514 23.6734 25.1515 23.6771 25.1517 23.6809C25.1547 23.7452 25.1594 23.8466 25.1379 24.0241C25.1075 24.2702 25.0334 24.5656 24.9593 24.7205C24.9071 24.8297 24.8387 24.9257 24.7598 25.0074C24.6534 25.1185 24.5746 25.186 24.4463 25.281C24.3684 25.3399 24.3276 25.3665 24.3276 25.3665C24.2095 25.4417 24.0881 25.5114 23.9637 25.5755C23.7192 25.7057 23.449 25.7807 23.1724 25.7949C23.1416 25.7964 23.1109 25.7981 23.0802 25.7997C22.9345 25.8074 22.7893 25.8151 22.6442 25.8073L22.1046 25.7246C20.7539 25.3694 19.5048 24.7038 18.4566 23.7809C18.2717 23.6181 18.0981 23.4448 17.9236 23.2706C17.8955 23.2425 17.8673 23.2143 17.8391 23.1862C16.9955 22.3455 16.3561 21.4382 15.9676 20.5813C15.7776 20.1576 15.656 19.7045 15.6541 19.239C15.6512 18.6626 15.8404 18.1018 16.1918 17.6449C16.2023 17.6312 16.2127 17.6174 16.2232 17.6036C16.2819 17.5261 16.343 17.4453 16.4397 17.3542C16.5219 17.2689 16.616 17.196 16.719 17.1376C16.8292 17.0824 16.9494 17.0501 17.0724 17.0426Z" fill="white"/>
</svg>
