<svg width="42" height="42" viewBox="0 0 42 42" fill="none" xmlns="http://www.w3.org/2000/svg">
<path fill-rule="evenodd" clip-rule="evenodd" d="M42 0H0V42H42V0ZM13.3251 28.9996H15.8709C15.9351 28.926 15.9991 28.8524 16.0631 28.7787C16.207 28.6131 16.3509 28.4475 16.496 28.2829C17.8015 26.8016 19.1076 25.3206 20.4137 23.8396C20.4284 23.8229 20.4436 23.8066 20.4611 23.7878C20.4693 23.779 20.478 23.7696 20.4874 23.7595C20.512 23.7883 20.5335 23.8116 20.5528 23.8367C21.1702 24.6378 21.7876 25.439 22.405 26.2402C23.0855 27.1233 23.766 28.0064 24.4466 28.8894C24.4663 28.9149 24.4872 28.9395 24.5081 28.9641C24.5182 28.976 24.5283 28.9879 24.5383 28.9998H29.6663C29.658 28.9862 29.6501 28.9723 29.6422 28.9583C29.6252 28.9285 29.6082 28.8987 29.5877 28.8717C27.4484 26.0635 25.3088 23.2557 23.1664 20.4496C23.1086 20.374 23.1136 20.3333 23.1745 20.2643C24.9774 18.2232 26.778 16.1803 28.5783 14.1369C28.6032 14.1087 28.6236 14.0766 28.6441 14.0445C28.6536 14.0296 28.6632 14.0146 28.6732 14H26.1452C26.0803 14.0727 26.0153 14.1453 25.9504 14.218C25.8156 14.3685 25.6809 14.5191 25.5473 14.6707C24.7116 15.6184 23.8762 16.5664 23.0408 17.5144C22.6878 17.9151 22.3348 18.3157 21.9818 18.7163C21.9693 18.7304 21.9564 18.7441 21.9412 18.7601C21.9325 18.7693 21.923 18.7792 21.9125 18.7905C21.904 18.7802 21.8958 18.7705 21.8879 18.761C21.8722 18.7425 21.8576 18.7251 21.8439 18.7071L18.3156 14.0774C18.3014 14.059 18.287 14.0409 18.2726 14.0227C18.2666 14.0152 18.2605 14.0076 18.2545 14H13C13.0052 14.0107 13.0099 14.0219 13.0145 14.033C13.0244 14.0567 13.0342 14.0802 13.0493 14.0998C14.756 16.316 16.4634 18.5318 18.1707 20.7475L18.8725 21.6582C18.9083 21.7046 18.9439 21.7513 18.9794 21.798C19.0636 21.9086 19.1478 22.0192 19.2359 22.1267C19.2843 22.1856 19.2792 22.2202 19.2299 22.276C18.2072 23.4332 17.186 24.5917 16.1647 25.7502C15.9714 25.9695 15.7781 26.1888 15.5847 26.4081C15.4158 26.5998 15.2469 26.7914 15.078 26.983C14.5177 27.6185 13.9574 28.254 13.3977 28.89C13.3781 28.9122 13.3627 28.938 13.3472 28.9638C13.34 28.9759 13.3327 28.9879 13.3251 28.9996Z" fill="white"/>
</svg>
