<svg width="42" height="42" viewBox="0 0 42 42" fill="none" xmlns="http://www.w3.org/2000/svg">
<rect width="42" height="42" fill="white"/>
<path d="M21.0637 14H21.175C22.2025 14.004 27.4088 14.044 28.8125 14.4471C29.2369 14.5701 29.6236 14.8099 29.9339 15.1425C30.2443 15.475 30.4675 15.8888 30.5812 16.3423C30.7075 16.8495 30.7963 17.5208 30.8563 18.2135L30.8688 18.3523L30.8962 18.6993L30.9062 18.8381C30.9875 20.0579 30.9975 21.2004 30.9987 21.45V21.55C30.9975 21.809 30.9862 23.0288 30.8962 24.2994L30.8862 24.4395L30.875 24.5783C30.8125 25.3418 30.72 26.0998 30.5812 26.6577C30.4679 27.1114 30.2448 27.5253 29.9344 27.858C29.6239 28.1906 29.237 28.4303 28.8125 28.5529C27.3625 28.9693 21.8512 28.9987 21.0875 29H20.91C20.5238 29 18.9262 28.992 17.2512 28.9306L17.0387 28.9226L16.93 28.9173L16.7162 28.9079L16.5025 28.8986C15.115 28.8332 13.7937 28.7277 13.185 28.5516C12.7606 28.429 12.3738 28.1896 12.0634 27.8572C11.753 27.5248 11.5298 27.1112 11.4162 26.6577C11.2775 26.1012 11.185 25.3418 11.1225 24.5783L11.1125 24.4382L11.1025 24.2994C11.0408 23.3951 11.0066 22.4888 11 21.5821L11 21.4179C11.0025 21.131 11.0125 20.1393 11.08 19.0449L11.0888 18.9075L11.0925 18.8381L11.1025 18.6993L11.13 18.3523L11.1425 18.2135C11.2025 17.5208 11.2912 16.8481 11.4175 16.3423C11.5309 15.8886 11.754 15.4747 12.0644 15.142C12.3748 14.8094 12.7617 14.5697 13.1862 14.4471C13.795 14.2736 15.1163 14.1668 16.5037 14.1001L16.7162 14.0908L16.9312 14.0827L17.0387 14.0787L17.2525 14.0694C18.4421 14.0285 19.6323 14.0058 20.8225 14.0013H21.0637V14ZM19 18.2842V24.7145L24.1962 21.5007L19 18.2842Z" fill="#212529"/>
</svg>
