<svg width="34" height="30" viewBox="0 0 34 30" fill="none" xmlns="http://www.w3.org/2000/svg">
<path fill-rule="evenodd" clip-rule="evenodd" d="M12.4168 0C5.7435 0 0.333496 5.41 0.333496 12.0833C0.333496 27.0833 20.3335 30 20.3335 30V24.1667H21.5835C28.2568 24.1667 33.6668 18.7567 33.6668 12.0833C33.6668 5.41 28.2568 0 21.5835 0H12.4168ZM17.0002 14.5833C17.5527 14.5833 18.0826 14.3638 18.4733 13.9731C18.864 13.5824 19.0835 13.0525 19.0835 12.5C19.0835 11.9475 18.864 11.4176 18.4733 11.0269C18.0826 10.6362 17.5527 10.4167 17.0002 10.4167C16.4476 10.4167 15.9177 10.6362 15.527 11.0269C15.1363 11.4176 14.9168 11.9475 14.9168 12.5C14.9168 13.0525 15.1363 13.5824 15.527 13.9731C15.9177 14.3638 16.4476 14.5833 17.0002 14.5833ZM25.7502 12.5C25.7502 13.0525 25.5307 13.5824 25.14 13.9731C24.7493 14.3638 24.2194 14.5833 23.6668 14.5833C23.1143 14.5833 22.5844 14.3638 22.1937 13.9731C21.803 13.5824 21.5835 13.0525 21.5835 12.5C21.5835 11.9475 21.803 11.4176 22.1937 11.0269C22.5844 10.6362 23.1143 10.4167 23.6668 10.4167C24.2194 10.4167 24.7493 10.6362 25.14 11.0269C25.5307 11.4176 25.7502 11.9475 25.7502 12.5ZM10.3335 14.5833C10.886 14.5833 11.4159 14.3638 11.8066 13.9731C12.1973 13.5824 12.4168 13.0525 12.4168 12.5C12.4168 11.9475 12.1973 11.4176 11.8066 11.0269C11.4159 10.6362 10.886 10.4167 10.3335 10.4167C9.78096 10.4167 9.25106 10.6362 8.86036 11.0269C8.46966 11.4176 8.25016 11.9475 8.25016 12.5C8.25016 13.0525 8.46966 13.5824 8.86036 13.9731C9.25106 14.3638 9.78096 14.5833 10.3335 14.5833Z" fill="#0D1625"/>
</svg>
