<svg width="46" height="46" viewBox="0 0 46 46" fill="none" xmlns="http://www.w3.org/2000/svg">
<path d="M8.30682 8.02823H2.94089C3.18308 9.5499 3.33132 11.0423 3.66748 12.4909C4.59451 16.4673 6.45066 19.9803 9.19 23.0173C9.3111 23.153 9.44055 23.2845 9.54912 23.4286C10.0064 24.036 9.95835 24.7206 9.43638 25.1777C8.9144 25.6349 8.18572 25.6369 7.69506 25.0546C6.67616 23.8398 5.62594 22.6354 4.75737 21.3141C1.92825 17.0079 0.535612 12.2446 0.500117 7.09102C0.491766 5.93047 0.928139 5.50256 2.10572 5.50048C4.08088 5.4963 6.05605 5.50048 7.99989 5.50048C7.99989 4.32948 7.99989 3.22111 7.99989 2.11274C7.99989 0.937573 8.41956 0.501321 9.58671 0.501321C18.5209 0.499234 27.455 0.499234 36.3871 0.501321C37.6002 0.501321 38.0032 0.927137 38.0011 2.16284C37.9969 3.24825 38.0011 4.33366 38.0011 5.50048C39.8176 5.50048 41.6862 5.50048 43.5549 5.50048C45.2023 5.50048 45.5384 5.81566 45.4967 7.4563C45.3234 14.1587 42.9661 19.9845 38.4416 24.9314C37.832 25.5973 37.1597 25.6745 36.5959 25.1756C36.0071 24.6559 35.9967 23.9525 36.6356 23.2511C39.5566 20.045 41.5213 16.34 42.4442 12.1027C42.7302 10.7898 42.8701 9.44553 43.0872 8.04702H37.7589C37.4248 9.93814 37.1576 11.8418 36.7442 13.712C35.648 18.6694 33.8169 23.3096 30.5577 27.2859C28.9229 29.2793 27.0416 30.9763 24.6301 32.0096C24.4568 32.0847 24.3775 32.3769 24.2564 32.569C24.2438 32.5878 24.2564 32.6191 24.2564 32.6462C24.2564 33.5062 23.9954 34.4977 24.3399 35.1844C24.651 35.8022 25.6323 36.082 26.313 36.5182C28.261 37.7643 30.0336 39.2171 31.3052 41.1667C31.823 41.9578 32.2238 42.8637 32.4911 43.7717C32.8001 44.8216 32.203 45.4916 31.1026 45.4937C25.7116 45.5021 20.3207 45.5021 14.9276 45.4937C13.7625 45.4937 13.1382 44.7527 13.5496 43.6443C13.9588 42.5401 14.4975 41.4339 15.2032 40.4987C16.7796 38.4135 18.8382 36.8605 21.183 35.7083C21.5838 35.5121 21.7864 35.3305 21.7613 34.8567C21.7175 34.0259 22.0035 33.0616 21.6674 32.3957C21.3688 31.805 20.4063 31.5545 19.7486 31.1371C16.316 28.96 14.0131 25.8144 12.2216 22.2555C10.1296 18.0954 9.02088 13.6452 8.45715 9.04476C8.41539 8.71288 8.35901 8.38308 8.30682 8.02823ZM35.5248 3.05413H10.4198C10.6056 5.11223 10.7288 7.11189 10.9793 9.09486C11.5765 13.8018 12.8042 18.3271 15.199 22.4684C16.7942 25.2278 18.7714 27.6408 21.5504 29.3211C22.5526 29.9264 23.4504 29.9243 24.4526 29.3211C26.3401 28.1877 27.8831 26.6931 29.1692 24.9377C33.9338 18.4357 35.1699 10.9067 35.5248 3.05413ZM16.3495 42.9367H29.5722C27.8768 40.5801 25.7701 38.9395 23.2959 37.7602C23.0704 37.6516 22.6466 37.733 22.4232 37.8854C21.0055 38.8435 19.5794 39.7974 18.239 40.8557C17.5625 41.39 17.0593 42.1394 16.3495 42.9367Z" fill="black"/>
</svg>
