<svg width="47" height="51" viewBox="0 0 47 51" fill="none" xmlns="http://www.w3.org/2000/svg">
<path d="M25.75 2H6.75C5.49022 2 4.28204 2.49822 3.39124 3.38506C2.50044 4.2719 2 5.47471 2 6.72889V44.56C2 45.8142 2.50044 47.017 3.39124 47.9038C4.28204 48.7907 5.49022 49.2889 6.75 49.2889H35.25C36.5098 49.2889 37.718 48.7907 38.6088 47.9038C39.4996 47.017 40 45.8142 40 44.56V16.1867M25.75 2L40 16.1867M25.75 2V16.1867H40M30.5 28.0089H11.5M30.5 37.4667H11.5M16.25 18.5511H11.5" stroke="#212529" stroke-width="3" stroke-linecap="round" stroke-linejoin="round"/>
</svg>
