<svg width="11" height="10" viewBox="0 0 11 10" fill="none" xmlns="http://www.w3.org/2000/svg">
<path fill-rule="evenodd" clip-rule="evenodd" d="M7.99161 0.187761L9.83 2.02615C9.89021 2.08585 9.93807 2.15684 9.97082 2.23506C10.0036 2.31328 10.0206 2.39719 10.0209 2.48198C10.0212 2.56678 10.0047 2.6508 9.97251 2.72924C9.94029 2.80768 9.89292 2.879 9.83311 2.93911L8.81109 3.96113L6.05974 1.20978L7.08176 0.187761C7.20263 0.0675069 7.36619 0 7.53669 0C7.70718 0 7.87075 0.0675069 7.99161 0.187761ZM0.0148152 9.21786L0.606838 6.66282L5.52375 1.73968L8.27821 4.48791L3.34261 9.40482L0.771982 9.99684C0.727433 10.0013 0.682546 10.0013 0.637997 9.99684C0.542391 9.99626 0.448122 9.97433 0.362076 9.93266C0.27603 9.89098 0.200381 9.83061 0.140655 9.75595C0.0809297 9.68129 0.0386362 9.59424 0.0168643 9.50114C-0.00490748 9.40805 -0.00560759 9.31126 0.0148152 9.21786Z" fill="#293241"/>
</svg>
