<svg width="18" height="18" viewBox="0 0 18 18" fill="none" xmlns="http://www.w3.org/2000/svg">
<path d="M0.0082379 13.7317C0.0082379 13.6905 0.00549316 13.6493 0.00549316 13.6067C0.00549316 9.5471 0.00549316 5.48608 0.00549316 1.42644C0.00549316 0.874533 0.259382 0.464038 0.72736 0.183968C0.927726 0.0658989 1.1473 0.00549157 1.38061 0.00274579C1.43276 0.00274579 1.48491 0.00274579 1.53569 0.00274579C4.68665 0.00274579 7.83898 0.00274579 10.9899 0.00274579C12.8495 0.00137289 14.7091 0 16.5672 0C17.2054 0 17.7475 0.399512 17.9355 1.00496C17.9753 1.13401 17.9986 1.26718 17.9986 1.4031C17.9986 2.33255 17.9986 3.26199 17.9986 4.19144C17.9986 4.21753 17.9945 4.24361 17.9931 4.2697C17.9671 4.26832 17.941 4.26558 17.9149 4.26558C16.5604 4.26558 15.2059 4.26558 13.8513 4.26558C13.8102 4.26558 13.769 4.27244 13.7278 4.27656C13.6715 4.27382 13.6139 4.2697 13.5576 4.2697C10.5275 4.2697 7.49726 4.2697 4.46707 4.2697C4.24749 4.2697 4.26945 4.24773 4.26945 4.47151C4.26945 7.48089 4.26945 10.4903 4.26945 13.501C4.26945 13.5738 4.26945 13.6466 4.26807 13.7193C4.20632 13.7221 4.14456 13.7276 4.0828 13.7276C2.78729 13.7276 1.49177 13.7276 0.196253 13.7276C0.134496 13.7276 0.0713669 13.7303 0.00961027 13.7317H0.0082379Z" fill="#557DBF"/>
<path d="M0.0082868 13.7317C0.0700434 13.7303 0.133172 13.7275 0.194929 13.7275C1.49045 13.7275 2.78596 13.7275 4.08148 13.7275C4.14324 13.7275 4.20499 13.722 4.26675 13.7193C4.32576 13.7468 4.38889 13.733 4.45065 13.733C7.26949 13.733 10.087 13.733 12.9058 13.733C13.1762 13.733 13.4452 13.733 13.7155 13.7344C13.7183 13.7413 13.7224 13.7426 13.7292 13.7413C13.7292 15.1224 13.7292 16.5022 13.7292 17.8833C13.7292 17.9149 13.732 17.9451 13.7347 17.9766C13.6812 18.0082 13.6236 17.9917 13.5673 17.9917C11.4127 17.9917 9.25943 17.9917 7.10481 17.9917C5.24113 17.9917 3.37745 17.9931 1.51515 17.9972C1.18441 17.9972 0.875624 17.9286 0.605268 17.7323C0.233355 17.4659 0.0124039 17.1021 0.00691443 16.6436C-0.00543689 15.6839 0.00416969 14.7229 0.00416969 13.7632C0.00416969 13.7536 0.00691443 13.7426 0.00965917 13.733L0.0082868 13.7317Z" fill="#34A851"/>
<path d="M13.7292 4.27655C13.7704 4.27243 13.8116 4.26556 13.8527 4.26556C15.2073 4.26556 16.5618 4.26556 17.9163 4.26556C17.9424 4.26556 17.9685 4.26831 17.9945 4.26968C17.9945 4.32185 17.9959 4.37402 17.9959 4.42482C17.9959 7.46852 17.9959 10.5122 17.9959 13.5559C17.9959 13.6205 18.022 13.6905 17.9685 13.7481C17.9191 13.7083 17.8587 13.7221 17.8038 13.7221C16.5028 13.7221 15.2018 13.7221 13.9008 13.7221C13.8445 13.7221 13.7869 13.7152 13.7333 13.7426C13.7265 13.744 13.7223 13.7426 13.7196 13.7358C13.7457 13.6713 13.7347 13.6026 13.7347 13.5353C13.7347 10.5012 13.7347 7.46715 13.7347 4.43306C13.7347 4.38089 13.7333 4.32872 13.732 4.27792L13.7292 4.27655Z" fill="#F9BC17"/>
<path d="M13.7307 13.7427C13.7842 13.7152 13.8418 13.7221 13.8981 13.7221C15.1991 13.7221 16.5001 13.7221 17.8011 13.7221C17.8574 13.7221 17.9164 13.707 17.9658 13.7481C17.9342 13.7825 17.9054 13.8182 17.8725 13.8511C16.5317 15.1924 15.1909 16.5337 13.8487 17.8737C13.8116 17.9108 13.7718 17.9423 13.7334 17.9767C13.732 17.9451 13.7279 17.9149 13.7279 17.8833C13.7279 16.5022 13.7279 15.1224 13.7279 13.7413L13.7307 13.7427Z" fill="#EA4535"/>
<path d="M6.41041 7.70054C6.16201 7.59757 5.9191 7.49461 5.67482 7.39576C5.59111 7.36143 5.6213 7.30927 5.64463 7.2571C5.79833 6.91662 6.03301 6.64616 6.35277 6.44983C6.73841 6.2137 7.15972 6.16702 7.59888 6.22056C7.95707 6.26449 8.28095 6.3908 8.56091 6.62419C9.16338 7.12942 9.18946 8.01081 8.79833 8.50643C8.68717 8.64646 8.55817 8.76453 8.40721 8.85926C8.31114 8.92104 8.30977 8.93752 8.41133 8.98694C8.69403 9.1256 8.92185 9.32467 9.0783 9.59925C9.21828 9.845 9.26768 10.1127 9.24984 10.3942C9.20044 11.2083 8.60346 11.7712 7.82532 11.9263C7.15012 12.0622 6.5353 11.9208 6.01105 11.4581C5.76814 11.244 5.60208 10.9763 5.50053 10.6701C5.46622 10.5644 5.46759 10.5603 5.5664 10.5191C5.77638 10.4312 5.98909 10.3475 6.19906 10.2569C6.26631 10.228 6.30062 10.2349 6.32121 10.3118C6.37747 10.5232 6.49275 10.7003 6.6492 10.85C7.07601 11.2563 7.87061 11.1808 8.19724 10.7072C8.41819 10.3859 8.40172 9.81891 7.92688 9.54433C7.74435 9.43862 7.54948 9.3741 7.33539 9.37547C7.19541 9.37547 7.05542 9.37684 6.91544 9.37547C6.80154 9.3741 6.79879 9.37272 6.79742 9.26564C6.79605 9.06245 6.80016 8.86063 6.79467 8.65745C6.7933 8.57233 6.82761 8.55036 6.90446 8.55173C7.04444 8.55448 7.1858 8.5586 7.32441 8.54899C7.62358 8.52702 7.87885 8.41582 8.04627 8.15359C8.22743 7.87215 8.21233 7.35457 7.76494 7.14314C7.32304 6.93447 6.7535 6.99487 6.47903 7.55227C6.45707 7.59895 6.43374 7.64425 6.40629 7.70054H6.41041Z" fill="#557DBF"/>
<path d="M11.2535 7.56874C11.1876 7.56736 11.1574 7.6058 11.1204 7.63189C10.8967 7.79252 10.6743 7.95452 10.452 8.11515C10.3518 8.18654 10.3518 8.18654 10.2873 8.09043C10.1803 7.93118 10.0746 7.77055 9.97031 7.60992C9.90169 7.50421 9.90169 7.50146 10.0032 7.42733C10.4273 7.1198 10.8582 6.82188 11.2741 6.50337C11.4456 6.37157 11.6172 6.30293 11.8299 6.33039C11.871 6.33588 11.9122 6.33039 11.9548 6.33039C12.1538 6.33039 12.1345 6.31391 12.1345 6.51847C12.1345 8.23047 12.1345 9.94384 12.1345 11.6558C12.1345 11.859 12.1538 11.8412 11.9534 11.8426C11.7558 11.8426 11.5595 11.8398 11.3619 11.8426C11.2837 11.8439 11.2452 11.8192 11.2521 11.7368C11.2548 11.7011 11.2521 11.6641 11.2521 11.6284C11.2521 10.331 11.2521 9.03361 11.2521 7.73623V7.56736L11.2535 7.56874Z" fill="#557DBF"/>
</svg>
