<svg width="49" height="52" viewBox="0 0 49 52" fill="none" xmlns="http://www.w3.org/2000/svg">
<path d="M47 24.5789L25.725 45.8538C23.1187 48.4602 19.5837 49.9244 15.8978 49.9244C12.2119 49.9244 8.67692 48.4602 6.07057 45.8538C3.46423 43.2475 2 39.7125 2 36.0266C2 32.3407 3.46423 28.8057 6.07057 26.1994L27.3455 4.92441C29.0831 3.18685 31.4397 2.21069 33.897 2.21069C36.3543 2.21069 38.711 3.18685 40.4485 4.92441C42.1861 6.66197 43.1622 9.01861 43.1622 11.4759C43.1622 13.9332 42.1861 16.2898 40.4485 18.0274L19.1504 39.3024C18.2816 40.1711 17.1033 40.6592 15.8747 40.6592C14.646 40.6592 13.4677 40.1711 12.5989 39.3024C11.7301 38.4336 11.2421 37.2552 11.2421 36.0266C11.2421 34.798 11.7301 33.6196 12.5989 32.7509L32.2534 13.1196" stroke="#212529" stroke-width="3" stroke-linecap="round" stroke-linejoin="round"/>
</svg>
