<svg width="25" height="25" viewBox="0 0 25 25" fill="none" xmlns="http://www.w3.org/2000/svg">
<path d="M23.0769 0H1.92308C1.41305 0 0.923903 0.239447 0.563256 0.665666C0.202609 1.09189 0 1.66996 0 2.27273V22.7273C0 23.33 0.202609 23.9081 0.563256 24.3343C0.923903 24.7606 1.41305 25 1.92308 25H23.0769C23.587 25 24.0761 24.7606 24.4367 24.3343C24.7974 23.9081 25 23.33 25 22.7273V2.27273C25 1.66996 24.7974 1.09189 24.4367 0.665666C24.0761 0.239447 23.587 0 23.0769 0ZM21.8341 6.4858L10.2957 20.1222C10.2064 20.2278 10.1003 20.3116 9.9836 20.3688C9.86687 20.426 9.74174 20.4554 9.61538 20.4554C9.48902 20.4554 9.3639 20.426 9.24717 20.3688C9.13044 20.3116 9.0244 20.2278 8.9351 20.1222L4.1274 14.4403C3.94698 14.2271 3.84562 13.9379 3.84562 13.6364C3.84562 13.3348 3.94698 13.0456 4.1274 12.8324C4.30783 12.6192 4.55253 12.4994 4.80769 12.4994C5.06285 12.4994 5.30756 12.6192 5.48798 12.8324L9.61538 17.7116L20.4736 4.87784C20.654 4.66461 20.8987 4.54482 21.1538 4.54482C21.409 4.54482 21.6537 4.66461 21.8341 4.87784C22.0146 5.09107 22.1159 5.38027 22.1159 5.68182C22.1159 5.98337 22.0146 6.27257 21.8341 6.4858Z" fill="#293241"/>
</svg>
