<svg width="30" height="31" viewBox="0 0 30 31" fill="none" xmlns="http://www.w3.org/2000/svg">
<mask id="mask0_1821_105" style="mask-type:luminance" maskUnits="userSpaceOnUse" x="-1" y="0" width="31" height="31">
<path d="M-0.00683594 0.5H29.9932V30.5H-0.00683594V0.5Z" fill="white"/>
</mask>
<g mask="url(#mask0_1821_105)">
<path fill-rule="evenodd" clip-rule="evenodd" d="M29.9932 0.5H-0.00683594V30.5H29.9932V0.5ZM18.1182 8C18.1181 7.75281 18.0448 7.51119 17.9074 7.30568C17.7701 7.10016 17.5749 6.93999 17.3465 6.8454C17.1181 6.75081 16.8668 6.72606 16.6244 6.77427C16.3819 6.82248 16.1592 6.94149 15.9844 7.11625L12.8594 10.2413C12.74 10.3566 12.6448 10.4945 12.5793 10.647C12.5138 10.7995 12.4793 10.9635 12.4778 11.1295C12.4764 11.2955 12.508 11.4601 12.5709 11.6137C12.6337 11.7673 12.7266 11.9069 12.8439 12.0242C12.9613 12.1416 13.1009 12.2344 13.2545 12.2973C13.4081 12.3601 13.5727 12.3918 13.7387 12.3903C13.9046 12.3889 14.0687 12.3544 14.2212 12.2889C14.3737 12.2234 14.5116 12.1281 14.6269 12.0087L15.6182 11.0175V23C15.6182 23.3315 15.7499 23.6495 15.9843 23.8839C16.2187 24.1183 16.5366 24.25 16.8682 24.25C17.1997 24.25 17.5176 24.1183 17.752 23.8839C17.9865 23.6495 18.1182 23.3315 18.1182 23V8Z" fill="#0D1625"/>
</g>
</svg>
