<svg width="30" height="31" viewBox="0 0 30 31" fill="none" xmlns="http://www.w3.org/2000/svg">
<path fill-rule="evenodd" clip-rule="evenodd" d="M13.6204 0.5C11.4707 0.499677 9.35141 1.00803 7.43573 1.9835C5.52006 2.95898 3.86239 4.37389 2.59819 6.11262C1.33399 7.85134 0.499149 9.86453 0.161888 11.9876C-0.175373 14.1108 -0.00547838 16.2835 0.657685 18.3284C1.32085 20.3733 2.45846 22.2323 3.97755 23.7534C5.49664 25.2745 7.35409 26.4145 9.3981 27.0804C11.4421 27.7462 13.6147 27.919 15.7382 27.5845C17.8618 27.2501 19.8761 26.4179 21.6165 25.156L26.3307 29.8703C26.7335 30.2733 27.2798 30.4998 27.8495 30.5C28.4192 30.5002 28.9657 30.2741 29.3687 29.8714C29.7717 29.4686 29.9982 28.9223 29.9984 28.3526C29.9986 27.7829 29.7725 27.2364 29.3698 26.8334L24.6534 22.1191C26.1259 20.0857 27.0081 17.685 27.2024 15.1819C27.3967 12.6788 26.8956 10.1707 25.7544 7.93435C24.6133 5.69806 22.8765 3.82054 20.7356 2.50902C18.5948 1.1975 16.1332 0.502995 13.6226 0.502148L13.6204 0.5ZM12.0204 9.14678C12.1451 9.27143 12.244 9.41943 12.3115 9.58231C12.3789 9.74519 12.4137 9.91977 12.4137 10.0961C12.4137 10.2724 12.3789 10.447 12.3115 10.6099C12.244 10.7727 12.1451 10.9207 12.0204 11.0454L8.67421 14.3937L12.0204 17.7399C12.2722 17.9916 12.4136 18.3331 12.4136 18.6892C12.4136 19.0452 12.2722 19.3867 12.0204 19.6385C11.7686 19.8902 11.4271 20.0317 11.0711 20.0317C10.715 20.0317 10.3736 19.8902 10.1218 19.6385L5.82632 15.343C5.70163 15.2183 5.60273 15.0704 5.53524 14.9075C5.46776 14.7446 5.43303 14.57 5.43303 14.3937C5.43303 14.2174 5.46776 14.0428 5.53524 13.8799C5.60273 13.717 5.70163 13.5691 5.82632 13.4444L10.1218 9.14893C10.2464 9.02425 10.3944 8.92534 10.5573 8.85786C10.7202 8.79038 10.8948 8.75564 11.0711 8.75564C11.2474 8.75564 11.422 8.79038 11.5849 8.85786C11.7477 8.92534 11.8957 9.0221 12.0204 9.14678ZM16.4404 8.75357C16.7965 8.75357 17.138 8.89501 17.3897 9.14678L21.6852 13.4444C21.8099 13.5691 21.9088 13.717 21.9763 13.8799C22.0437 14.0428 22.0785 14.2174 22.0785 14.3937C22.0785 14.57 22.0437 14.7446 21.9763 14.9075C21.9088 15.0704 21.8099 15.2183 21.6852 15.343L17.3897 19.6385C17.138 19.8902 16.7965 20.0317 16.4404 20.0317C16.0844 20.0317 15.7429 19.8902 15.4911 19.6385C15.2394 19.3867 15.0979 19.0452 15.0979 18.6892C15.0979 18.3331 15.2394 17.9916 15.4911 17.7399L18.8373 14.3916L15.4911 11.0454C15.2394 10.7936 15.0979 10.4521 15.0979 10.0961C15.0979 9.74002 15.2394 9.39855 15.4911 9.14678C15.7429 8.89501 16.0844 8.75357 16.4404 8.75357Z" fill="#0D1625"/>
</svg>
