<svg width="49" height="49" viewBox="0 0 49 49" fill="none" xmlns="http://www.w3.org/2000/svg">
<path d="M24.5 46.8704C36.9264 46.8704 47 36.7968 47 24.3704C47 11.944 36.9264 1.87036 24.5 1.87036C12.0736 1.87036 2 11.944 2 24.3704C2 36.7968 12.0736 46.8704 24.5 46.8704Z" stroke="#212529" stroke-width="3" stroke-linecap="round" stroke-linejoin="round"/>
<path d="M13.54 28.9904C12.956 28.9904 12.44 28.8864 11.992 28.6784C11.544 28.4624 11.192 28.1144 10.936 27.6344C10.688 27.1464 10.564 26.4944 10.564 25.6784C10.564 24.8144 10.692 24.1384 10.948 23.6504C11.212 23.1544 11.564 22.8024 12.004 22.5944C12.452 22.3864 12.952 22.2824 13.504 22.2824C14.024 22.2824 14.46 22.3384 14.812 22.4504C15.164 22.5624 15.428 22.7144 15.604 22.9064C15.788 23.0904 15.88 23.3024 15.88 23.5424C15.88 23.7104 15.836 23.8744 15.748 24.0344C15.668 24.1864 15.516 24.3144 15.292 24.4184C15.068 24.5144 14.748 24.5624 14.332 24.5624C14.332 24.2824 14.308 24.0264 14.26 23.7944C14.212 23.5624 14.132 23.3744 14.02 23.2304C13.908 23.0864 13.752 23.0144 13.552 23.0144C13.32 23.0144 13.116 23.0944 12.94 23.2544C12.772 23.4064 12.64 23.6744 12.544 24.0584C12.456 24.4424 12.412 24.9784 12.412 25.6664C12.412 26.2024 12.46 26.6504 12.556 27.0104C12.66 27.3704 12.816 27.6424 13.024 27.8264C13.232 28.0024 13.504 28.0904 13.84 28.0904C14.12 28.0904 14.372 28.0504 14.596 27.9704C14.828 27.8824 15.028 27.7664 15.196 27.6224C15.364 27.4704 15.492 27.3024 15.58 27.1184C15.676 27.1744 15.748 27.2544 15.796 27.3584C15.844 27.4544 15.868 27.5584 15.868 27.6704C15.868 27.8704 15.784 28.0744 15.616 28.2824C15.456 28.4824 15.204 28.6504 14.86 28.7864C14.524 28.9224 14.084 28.9904 13.54 28.9904ZM19.9881 28.9904C19.0281 28.9904 18.2721 28.7144 17.7201 28.1624C17.1681 27.6024 16.8921 26.7584 16.8921 25.6304C16.8921 24.5024 17.1561 23.6624 17.6841 23.1104C18.2121 22.5584 18.9921 22.2824 20.0241 22.2824C20.9841 22.2824 21.7401 22.5584 22.2921 23.1104C22.8441 23.6624 23.1201 24.5024 23.1201 25.6304C23.1201 26.7584 22.8521 27.6024 22.3161 28.1624C21.7881 28.7144 21.0121 28.9904 19.9881 28.9904ZM20.0121 28.2344C20.3241 28.2344 20.5681 28.1384 20.7441 27.9464C20.9281 27.7464 21.0601 27.4544 21.1401 27.0704C21.2201 26.6784 21.2601 26.1984 21.2601 25.6304C21.2601 24.7744 21.1641 24.1304 20.9721 23.6984C20.7881 23.2664 20.4641 23.0504 20.0001 23.0504C19.5361 23.0504 19.2121 23.2664 19.0281 23.6984C18.8441 24.1224 18.7521 24.7664 18.7521 25.6304C18.7521 26.4784 18.8441 27.1264 19.0281 27.5744C19.2201 28.0144 19.5481 28.2344 20.0121 28.2344ZM26.6035 28.9904C26.0675 28.9904 25.6395 28.8504 25.3195 28.5704C24.9995 28.2904 24.8395 27.7984 24.8395 27.0944V23.2544H23.9395V22.6424C24.1955 22.6424 24.4235 22.5904 24.6235 22.4864C24.8315 22.3824 24.9955 22.2664 25.1155 22.1384C25.2355 22.0104 25.3435 21.8504 25.4395 21.6584C25.5355 21.4584 25.6115 21.2224 25.6675 20.9504H26.6635V22.4384H28.1995V23.2544H26.6635V26.9744C26.6635 27.3344 26.7235 27.5984 26.8435 27.7664C26.9715 27.9344 27.1755 28.0184 27.4555 28.0184C27.6155 28.0184 27.7635 28.0104 27.8995 27.9944C28.0435 27.9704 28.1795 27.9424 28.3075 27.9104V28.6904C28.1795 28.7464 27.9675 28.8104 27.6715 28.8824C27.3835 28.9544 27.0275 28.9904 26.6035 28.9904ZM28.8508 26.2304V24.9704H31.9708V26.2304H28.8508ZM33.4296 28.8704V28.2344H34.4136C34.5496 28.2344 34.6616 28.2104 34.7496 28.1624C34.8376 28.1144 34.9016 28.0344 34.9416 27.9224C34.9896 27.8104 35.0136 27.6544 35.0136 27.4544V21.4424C34.7096 21.8104 34.4336 22.1104 34.1856 22.3424C33.9456 22.5744 33.7056 22.6904 33.4656 22.6904C33.2736 22.6904 33.1096 22.6104 32.9736 22.4504C32.8376 22.2904 32.7696 22.0744 32.7696 21.8024C33.0096 21.7384 33.2776 21.6424 33.5736 21.5144C33.8776 21.3864 34.2256 21.1744 34.6176 20.8784L35.4576 20.2544H36.8016V27.4544C36.8016 27.6224 36.8176 27.7664 36.8496 27.8864C36.8816 27.9984 36.9416 28.0864 37.0296 28.1504C37.1176 28.2064 37.2456 28.2344 37.4136 28.2344H38.3856V28.8704H33.4296Z" fill="black"/>
</svg>
