<svg width="49" height="49" viewBox="0 0 49 49" fill="none" xmlns="http://www.w3.org/2000/svg">
<path d="M24.5 46.8704C36.9264 46.8704 47 36.7968 47 24.3704C47 11.944 36.9264 1.87036 24.5 1.87036C12.0736 1.87036 2 11.944 2 24.3704C2 36.7968 12.0736 46.8704 24.5 46.8704Z" stroke="#212529" stroke-width="3" stroke-linecap="round" stroke-linejoin="round"/>
<path d="M12.5567 22.12C12.0207 22.12 11.5727 22.072 11.2127 21.976C10.8527 21.872 10.5647 21.74 10.3487 21.58C10.1327 21.412 9.97667 21.228 9.88067 21.028C9.79267 20.828 9.74867 20.632 9.74867 20.44C9.74867 20.168 9.81267 19.952 9.94067 19.792C10.0687 19.624 10.2367 19.504 10.4447 19.432C10.6527 19.36 10.8727 19.324 11.1047 19.324C11.1047 19.78 11.1727 20.164 11.3087 20.476C11.4527 20.78 11.6487 21.012 11.8967 21.172C12.1447 21.324 12.4287 21.4 12.7487 21.4C13.2207 21.4 13.5847 21.276 13.8407 21.028C14.1047 20.78 14.2367 20.472 14.2367 20.104C14.2367 19.832 14.1607 19.6 14.0087 19.408C13.8647 19.208 13.6447 19.028 13.3487 18.868C13.0527 18.7 12.6807 18.524 12.2327 18.34C11.6727 18.108 11.2287 17.868 10.9007 17.62C10.5727 17.364 10.3367 17.084 10.1927 16.78C10.0567 16.468 9.98867 16.116 9.98867 15.724C9.98867 15.236 10.1167 14.812 10.3727 14.452C10.6287 14.092 10.9767 13.812 11.4167 13.612C11.8647 13.412 12.3687 13.312 12.9287 13.312C13.5207 13.312 14.0047 13.376 14.3807 13.504C14.7567 13.624 15.0327 13.788 15.2087 13.996C15.3927 14.204 15.4847 14.44 15.4847 14.704C15.4847 14.984 15.3607 15.22 15.1127 15.412C14.8727 15.604 14.5047 15.7 14.0087 15.7C14.0087 15.476 13.9647 15.236 13.8767 14.98C13.7967 14.724 13.6647 14.504 13.4807 14.32C13.2967 14.136 13.0487 14.044 12.7367 14.044C12.4167 14.044 12.1367 14.14 11.8967 14.332C11.6647 14.516 11.5487 14.788 11.5487 15.148C11.5487 15.372 11.6007 15.58 11.7047 15.772C11.8087 15.964 12.0047 16.156 12.2927 16.348C12.5807 16.532 12.9927 16.732 13.5287 16.948C14.0807 17.172 14.5247 17.404 14.8607 17.644C15.1967 17.884 15.4407 18.156 15.5927 18.46C15.7447 18.756 15.8207 19.1 15.8207 19.492C15.8207 20.004 15.6847 20.46 15.4127 20.86C15.1487 21.252 14.7727 21.56 14.2847 21.784C13.7967 22.008 13.2207 22.12 12.5567 22.12ZM19.3359 22.12C18.7999 22.12 18.3719 21.98 18.0519 21.7C17.7319 21.42 17.5719 20.928 17.5719 20.224V16.384H16.6719V15.772C16.9279 15.772 17.1559 15.72 17.3559 15.616C17.5639 15.512 17.7279 15.396 17.8479 15.268C17.9679 15.14 18.0759 14.98 18.1719 14.788C18.2679 14.588 18.3439 14.352 18.3999 14.08H19.3959V15.568H20.9319V16.384H19.3959V20.104C19.3959 20.464 19.4559 20.728 19.5759 20.896C19.7039 21.064 19.9079 21.148 20.1879 21.148C20.3479 21.148 20.4959 21.14 20.6319 21.124C20.7759 21.1 20.9119 21.072 21.0399 21.04V21.82C20.9119 21.876 20.6999 21.94 20.4039 22.012C20.1159 22.084 19.7599 22.12 19.3359 22.12ZM23.7072 22.12C23.3552 22.12 23.0352 22.052 22.7472 21.916C22.4672 21.772 22.2432 21.556 22.0752 21.268C21.9072 20.972 21.8232 20.604 21.8232 20.164C21.8232 19.516 22.0472 19.036 22.4952 18.724C22.9432 18.412 23.6152 18.24 24.5112 18.208L25.4952 18.172V17.512C25.4952 17.24 25.4792 17.004 25.4472 16.804C25.4152 16.596 25.3472 16.436 25.2432 16.324C25.1392 16.204 24.9752 16.144 24.7512 16.144C24.5512 16.144 24.3912 16.2 24.2712 16.312C24.1512 16.424 24.0672 16.58 24.0192 16.78C23.9712 16.972 23.9472 17.192 23.9472 17.44C23.4112 17.44 23.0072 17.38 22.7352 17.26C22.4632 17.14 22.3272 16.932 22.3272 16.636C22.3272 16.34 22.4392 16.104 22.6632 15.928C22.8872 15.752 23.1872 15.624 23.5632 15.544C23.9392 15.456 24.3512 15.412 24.7992 15.412C25.6392 15.412 26.2672 15.564 26.6832 15.868C27.1072 16.172 27.3192 16.7 27.3192 17.452V20.512C27.3192 20.728 27.3392 20.9 27.3792 21.028C27.4272 21.148 27.5032 21.236 27.6072 21.292C27.7192 21.34 27.8632 21.364 28.0392 21.364H28.0872V22H25.8552L25.6032 21.172H25.4952C25.3192 21.388 25.1512 21.568 24.9912 21.712C24.8392 21.848 24.6632 21.948 24.4632 22.012C24.2632 22.084 24.0112 22.12 23.7072 22.12ZM24.3672 21.244C24.5992 21.244 24.7992 21.184 24.9672 21.064C25.1352 20.936 25.2632 20.756 25.3512 20.524C25.4472 20.292 25.4952 20.02 25.4952 19.708V18.808L24.9552 18.844C24.6352 18.86 24.3832 18.924 24.1992 19.036C24.0152 19.14 23.8832 19.292 23.8032 19.492C23.7232 19.684 23.6832 19.924 23.6832 20.212C23.6832 20.436 23.7072 20.628 23.7552 20.788C23.8032 20.94 23.8792 21.056 23.9832 21.136C24.0872 21.208 24.2152 21.244 24.3672 21.244ZM28.7068 22V21.364H28.7428C28.9268 21.364 29.0868 21.344 29.2228 21.304C29.3588 21.264 29.4668 21.184 29.5468 21.064C29.6268 20.936 29.6668 20.748 29.6668 20.5V17.02C29.6668 16.78 29.6308 16.604 29.5588 16.492C29.4868 16.372 29.3868 16.296 29.2588 16.264C29.1308 16.224 28.9788 16.204 28.8028 16.204H28.7668V15.568H31.1908L31.4308 16.504H31.4908C31.5948 16.264 31.7148 16.064 31.8508 15.904C31.9868 15.744 32.1588 15.624 32.3668 15.544C32.5828 15.464 32.8548 15.424 33.1828 15.424C33.6548 15.424 34.0028 15.508 34.2268 15.676C34.4508 15.844 34.5628 16.084 34.5628 16.396C34.5628 16.764 34.4268 17.052 34.1548 17.26C33.8908 17.46 33.5188 17.56 33.0388 17.56C33.0388 17.336 33.0188 17.152 32.9788 17.008C32.9468 16.864 32.8868 16.756 32.7988 16.684C32.7188 16.604 32.6028 16.564 32.4508 16.564C32.2428 16.564 32.0748 16.636 31.9468 16.78C31.8188 16.924 31.7228 17.104 31.6588 17.32C31.5948 17.528 31.5508 17.74 31.5268 17.956C31.5028 18.172 31.4908 18.348 31.4908 18.484V20.56C31.4908 20.792 31.5268 20.968 31.5988 21.088C31.6708 21.2 31.7708 21.276 31.8988 21.316C32.0268 21.348 32.1708 21.364 32.3308 21.364H32.7148V22H28.7068ZM37.664 22.12C37.128 22.12 36.7 21.98 36.38 21.7C36.06 21.42 35.9 20.928 35.9 20.224V16.384H35V15.772C35.256 15.772 35.484 15.72 35.684 15.616C35.892 15.512 36.056 15.396 36.176 15.268C36.296 15.14 36.404 14.98 36.5 14.788C36.596 14.588 36.672 14.352 36.728 14.08H37.724V15.568H39.26V16.384H37.724V20.104C37.724 20.464 37.784 20.728 37.904 20.896C38.032 21.064 38.236 21.148 38.516 21.148C38.676 21.148 38.824 21.14 38.96 21.124C39.104 21.1 39.24 21.072 39.368 21.04V21.82C39.24 21.876 39.028 21.94 38.732 22.012C38.444 22.084 38.088 22.12 37.664 22.12ZM20.7944 37.12C20.0984 37.12 19.5024 37.028 19.0064 36.844C18.5104 36.66 18.1304 36.368 17.8664 35.968C17.6024 35.568 17.4704 35.04 17.4704 34.384V29.8C17.4704 29.584 17.4424 29.424 17.3864 29.32C17.3304 29.216 17.2544 29.148 17.1584 29.116C17.0704 29.084 16.9704 29.068 16.8584 29.068H16.3424V28.432H20.4824V29.068H19.9784C19.8664 29.068 19.7624 29.088 19.6664 29.128C19.5784 29.16 19.5064 29.232 19.4504 29.344C19.3944 29.448 19.3664 29.616 19.3664 29.848V34.48C19.3664 35.152 19.5264 35.62 19.8464 35.884C20.1744 36.14 20.6104 36.268 21.1544 36.268C21.5144 36.268 21.8224 36.208 22.0784 36.088C22.3424 35.96 22.5424 35.768 22.6784 35.512C22.8224 35.248 22.8944 34.912 22.8944 34.504V29.8C22.8944 29.584 22.8664 29.424 22.8104 29.32C22.7544 29.216 22.6784 29.148 22.5824 29.116C22.4944 29.084 22.3944 29.068 22.2824 29.068H21.7784V28.432H24.9224V29.068H24.4064C24.2944 29.068 24.1904 29.088 24.0944 29.128C24.0064 29.16 23.9344 29.232 23.8784 29.344C23.8224 29.448 23.7944 29.616 23.7944 29.848V34.528C23.7944 35.064 23.6904 35.528 23.4824 35.92C23.2744 36.304 22.9504 36.6 22.5104 36.808C22.0704 37.016 21.4984 37.12 20.7944 37.12ZM25.2712 39.88V39.244H25.4152C25.5352 39.244 25.6592 39.224 25.7872 39.184C25.9232 39.152 26.0352 39.08 26.1232 38.968C26.2192 38.856 26.2672 38.688 26.2672 38.464V32.044C26.2672 31.796 26.2312 31.616 26.1592 31.504C26.0872 31.384 25.9912 31.304 25.8712 31.264C25.7512 31.224 25.6152 31.204 25.4632 31.204H25.3792V30.568H27.7312L27.9472 31.504H27.9952C28.1712 31.192 28.4032 30.94 28.6912 30.748C28.9872 30.548 29.3672 30.448 29.8312 30.448C30.6312 30.448 31.2392 30.716 31.6552 31.252C32.0792 31.788 32.2912 32.64 32.2912 33.808C32.2912 34.968 32.0832 35.816 31.6672 36.352C31.2592 36.88 30.6632 37.144 29.8792 37.144C29.4232 37.144 29.0512 37.06 28.7632 36.892C28.4832 36.716 28.2552 36.48 28.0792 36.184H27.9952C28.0112 36.296 28.0272 36.448 28.0432 36.64C28.0592 36.824 28.0712 37.004 28.0792 37.18C28.0872 37.364 28.0912 37.516 28.0912 37.636V38.464C28.0912 38.688 28.1352 38.856 28.2232 38.968C28.3192 39.08 28.4352 39.152 28.5712 39.184C28.7072 39.224 28.8312 39.244 28.9432 39.244H29.2072V39.88H25.2712ZM29.3152 36.256C29.7152 36.256 30.0032 36.056 30.1792 35.656C30.3552 35.248 30.4432 34.636 30.4432 33.82C30.4432 33.02 30.3552 32.408 30.1792 31.984C30.0112 31.56 29.7272 31.348 29.3272 31.348C29.0072 31.348 28.7552 31.444 28.5712 31.636C28.3952 31.82 28.2712 32.096 28.1992 32.464C28.1272 32.832 28.0912 33.28 28.0912 33.808C28.0912 34.36 28.1272 34.82 28.1992 35.188C28.2712 35.548 28.3952 35.816 28.5712 35.992C28.7552 36.168 29.0032 36.256 29.3152 36.256Z" fill="black"/>
</svg>
