<svg width="31" height="30" viewBox="0 0 31 30" fill="none" xmlns="http://www.w3.org/2000/svg">
<path fill-rule="evenodd" clip-rule="evenodd" d="M0.333496 11.5094C0.650097 8.48815 2.02445 5.67601 4.21371 3.56993C6.40296 1.46385 9.2662 0.199397 12.2975 0C12.2242 0.0592568 12.1573 0.126094 12.0981 0.1994C9.46572 3.43621 7.82141 7.36275 7.3618 11.5094H0.333496ZM8.16368 19.1038C8.16368 19.1981 8.16797 19.2925 8.17441 19.3846V24.7363C6.04154 23.8433 4.18819 22.393 2.80865 20.5374C1.4291 18.6818 0.574175 16.4892 0.333496 14.1895H7.3618C7.51832 15.6046 7.81206 16.9983 8.24087 18.3469C8.18971 18.5952 8.16385 18.8502 8.16368 19.1038ZM10.0612 14.1938H13.8133L10.4257 15.6604C10.389 15.6762 10.3525 15.6927 10.3163 15.7097C10.2101 15.2074 10.1243 14.7009 10.0591 14.1917L10.0612 14.1938ZM25.9488 11.5137H18.912C18.4542 7.36501 16.8106 3.43611 14.1778 0.197256C14.1178 0.124598 14.0502 0.0584801 13.9763 0C17.0091 0.197451 19.8744 1.46104 22.0654 3.5673C24.2564 5.67356 25.632 8.48678 25.9488 11.5094V11.5137ZM10.0612 11.5137H16.2147C15.8425 8.57357 14.7889 5.76092 13.138 3.29974C11.4873 5.76029 10.4338 8.57431 10.0612 11.5137ZM21.0239 14.3868C20.877 14.3232 20.7187 14.2904 20.5586 14.2904C20.3986 14.2904 20.2402 14.3232 20.0934 14.3868L11.5728 18.0789C11.4842 18.1171 11.4006 18.166 11.3241 18.2247C11.0969 18.3518 10.9077 18.5373 10.7762 18.7619C10.6447 18.9866 10.5755 19.2422 10.5758 19.5026V25.9949C10.5758 26.383 10.7299 26.7552 11.0044 27.0296C11.2788 27.304 11.651 27.4582 12.0391 27.4582C12.4272 27.4582 12.7994 27.304 13.0738 27.0296C13.3483 26.7552 13.5024 26.383 13.5024 25.9949V21.0635L20.0934 23.9172C20.3914 24.0459 20.728 24.0459 21.0239 23.9172L29.5445 20.2273C29.754 20.1365 29.9324 19.9865 30.0577 19.7956C30.183 19.6047 30.2497 19.3814 30.2497 19.1531C30.2497 18.9248 30.183 18.7014 30.0577 18.5106C29.9324 18.3197 29.754 18.1697 29.5445 18.0789L21.0239 14.3868ZM14.7353 24.0566L19.0749 25.937C19.5429 26.1397 20.0475 26.2442 20.5576 26.2442C21.0676 26.2442 21.5722 26.1397 22.0402 25.937L26.3798 24.0566V26.9683C26.3798 27.2256 26.2983 27.4743 26.144 27.6758L25.2113 26.9683L26.1418 27.678L26.1397 27.6822L26.1354 27.6865L26.1268 27.6994L26.1011 27.7316C25.9904 27.8639 25.8723 27.9899 25.7473 28.1089C25.5115 28.3319 25.1684 28.6171 24.7117 28.8979C23.7876 29.464 22.4154 30 20.5586 30C18.7018 30 17.3296 29.464 16.4077 28.8958C15.9247 28.6001 15.4846 28.2393 15.0998 27.8238C15.0728 27.7928 15.0463 27.7613 15.0205 27.7294L14.9947 27.6973L14.9862 27.6844L14.9819 27.6801V27.6758H14.9776C14.8244 27.4726 14.7416 27.2249 14.7417 26.9704L14.7332 24.0545L14.7353 24.0566Z" fill="#0D1625"/>
</svg>
