<svg width="72" height="50" viewBox="0 0 72 50" fill="none" xmlns="http://www.w3.org/2000/svg">
<path d="M71.0391 43.0989C71.0785 42.3113 71.4386 40.1116 71.4273 39.684C71.3879 34.2043 67.9111 16.145 67.3541 11.7455L67.3204 11.4755C67.1291 9.74831 67.056 7.69484 66.4202 6.06331C65.7789 4.42053 63.7029 3.84669 62.2064 3.26721C56.0122 0.904315 49.0192 -1.08727 42.4481 0.994329C39.8826 1.80447 37.5704 3.25034 35.7138 5.52885C33.8629 3.25034 31.545 1.80447 28.9852 0.994329C22.414 -1.08727 15.421 0.904315 9.22681 3.26721C7.73031 3.84106 5.64308 4.41491 5.00735 6.06331C4.37162 7.69484 4.29848 9.74268 4.1072 11.4755L4.07344 11.7455C3.51647 16.145 0.0452619 34.2043 0.000254297 39.684C-0.0109976 40.1172 0.354689 42.3113 0.394071 43.0989C0.45033 44.2354 0.315308 45.3775 0.371567 46.5083C0.259048 46.9021 0.360315 47.2734 0.602231 47.566C0.759758 47.8698 1.00167 48.0554 1.26609 48.1511C1.86807 48.8149 2.9595 48.3761 3.674 48.1511C10.0763 46.0807 17.1144 46.1595 23.7193 47.0371C24.8895 47.189 26.054 47.3803 27.213 47.6053C28.4169 47.8416 29.559 48.2692 30.7123 48.6799C31.6631 49.0174 32.6589 49.2987 33.6603 49.49C34.3804 49.6532 35.0837 49.7207 35.4044 49.7263C35.5169 49.7263 35.6182 49.7151 35.725 49.7094C35.8319 49.7094 35.9388 49.7263 36.0457 49.7263C36.3664 49.7263 37.0696 49.6588 37.7898 49.49C38.7912 49.2987 39.787 49.0174 40.7378 48.6799C41.8911 48.2692 43.0388 47.8416 44.2427 47.6053C45.4017 47.3803 46.5662 47.189 47.7365 47.0371C54.3357 46.1595 61.3794 46.0807 67.7817 48.1511C68.4906 48.3817 69.582 48.8149 70.184 48.1511C70.454 48.0554 70.6903 47.8698 70.8479 47.566C71.0898 47.2734 71.191 46.9021 71.0785 46.5083C71.1179 45.3718 70.9829 44.2354 71.0391 43.0989ZM20.158 35.7458C17.5757 35.6614 14.9878 35.7908 12.4336 36.1509C10.2395 36.4603 8.07349 36.9498 5.96376 37.608C5.4518 37.7655 4.87795 37.8949 4.39412 38.1369C4.08469 38.2944 3.83153 38.4744 3.55586 38.1312C3.17329 37.6699 3.42646 36.8316 3.48834 36.3028C3.61211 35.2395 3.75276 34.1818 3.91592 33.1241C4.62479 28.4152 5.57557 23.7513 6.22256 19.0311C6.50385 16.9439 6.73452 14.8398 7.00456 12.7526C7.13959 11.678 7.29149 10.6035 7.46589 9.53452C7.67968 8.22368 7.72469 7.30102 8.95114 6.50776C11.0384 5.15753 13.5419 4.56118 15.9329 3.98171C18.5096 3.35723 21.0807 2.82839 23.7474 2.92966C25.6152 3.00279 27.4324 3.49788 29.0808 4.3699C29.8797 4.79185 30.6448 5.28693 31.3706 5.83265C32.0907 6.36711 32.9683 6.94096 33.5422 7.62733C34.0541 8.23493 34.2173 8.78627 34.2679 9.41638C33.9135 17.4784 33.9697 37.4674 34.0316 38.8851C34.0373 39.0033 34.0485 39.1214 34.0541 39.2395C34.026 39.3914 33.9416 39.5096 33.6941 39.5096C33.3959 39.5152 33.0696 39.3183 32.8108 39.1833C32.2763 38.902 31.7362 38.6319 31.1962 38.3788C27.7024 36.7304 24.0231 35.8696 20.158 35.7458ZM67.8605 38.1256C67.5792 38.4688 67.3316 38.2888 67.0222 38.1312C66.544 37.8893 65.9702 37.7599 65.4526 37.6024C63.3428 36.9442 61.1768 36.4603 58.9827 36.1453C56.4285 35.7852 53.835 35.6614 51.2527 35.7402C47.3933 35.864 43.7139 36.7247 40.2146 38.3731C39.6745 38.6319 39.1344 38.902 38.5999 39.1777C38.3411 39.3127 38.0148 39.504 37.711 39.504C37.4635 39.504 37.3791 39.3858 37.3509 39.2339C37.3566 39.1158 37.3734 38.9976 37.3734 38.8795C37.4353 37.4617 37.4972 17.4727 37.1372 9.41075C37.1878 8.78065 37.3509 8.2293 37.8573 7.6217C38.4424 6.93533 39.3144 6.35586 40.0345 5.82702C40.7603 5.28693 41.5198 4.78622 42.3243 4.36427C43.9783 3.49225 45.7899 2.99717 47.6577 2.92403C50.3244 2.81714 52.8954 3.3516 55.4721 3.97608C57.8632 4.55556 60.3667 5.14628 62.4596 6.50214C63.686 7.29539 63.731 8.21805 63.9448 9.5289C64.1192 10.5978 64.2711 11.6724 64.4061 12.7469C64.6706 14.8398 64.9012 16.9383 65.1882 19.0255C65.8351 23.7401 66.7915 28.4096 67.4948 33.1185C67.6467 34.1762 67.7986 35.2339 67.9224 36.2972C67.9899 36.826 68.243 37.6643 67.8605 38.1256Z" fill="#2F2F2F"/>
<path d="M29.5591 9.22516C24.2313 6.72723 17.0526 6.59221 11.691 9.15764C10.2733 9.83838 11.511 11.8919 12.9175 11.2561C17.4801 9.17452 23.7362 9.48957 28.1638 11.6106C29.7616 12.3701 31.1624 9.97903 29.5591 9.22516ZM29.3903 15.8075C23.7193 13.3208 16.4281 12.3813 10.7065 15.3293C9.46316 15.9707 10.5546 17.726 11.7867 17.1746C17.0357 14.8286 23.3255 16.207 28.4282 18.0973C29.7503 18.5924 30.6899 16.3757 29.3903 15.8075ZM29.0921 22.373C28.4901 21.8667 27.6519 21.6304 26.9261 21.366C21.6602 19.4419 14.6672 19.3631 9.60943 21.9511C8.4955 22.5193 9.43503 24.1395 10.5321 23.8245C13.2888 23.0425 15.8824 22.6093 18.746 22.5812C20.9907 22.5587 23.0273 22.795 25.1708 23.4363C25.8178 23.6276 26.4366 23.7007 27.0555 23.9933C27.5 24.2014 28.0513 24.4659 28.5408 24.5277C29.6097 24.6571 29.8291 23.0875 29.2271 22.4911L29.0921 22.373ZM28.5351 28.7134C22.4479 25.8442 15.6179 26.3731 9.45753 28.5447C8.18607 28.9947 8.79367 30.9526 10.0876 30.5475C12.985 29.6361 15.3985 28.9554 18.4759 28.916C21.4352 28.8822 24.6476 29.8499 27.3593 30.9132C28.8164 31.4927 30.0148 29.4111 28.5351 28.7134ZM43.2526 11.6049C47.6802 9.48395 53.9363 9.17452 58.4989 11.2505C59.8998 11.8919 61.1431 9.83276 59.7254 9.15202C54.3695 6.58658 47.1908 6.72161 41.863 9.21953C40.254 9.97903 41.6492 12.3701 43.2526 11.6049ZM42.9938 18.0973C48.0966 16.207 54.3864 14.8286 59.6354 17.1746C60.8675 17.726 61.9589 15.9707 60.7156 15.3293C54.9883 12.3813 47.6971 13.3208 42.0318 15.8075C40.7322 16.3757 41.6661 18.5924 42.9938 18.0973ZM42.8757 24.5334C43.3708 24.4715 43.9109 24.2071 44.3553 23.9989C44.9798 23.7064 45.5986 23.6332 46.2456 23.4419C48.3891 22.8062 50.4257 22.5699 52.6705 22.5868C55.5341 22.6093 58.1333 23.0425 60.89 23.8301C61.9814 24.1452 62.9209 22.5193 61.8126 21.9567C56.7549 19.3687 49.7562 19.4475 44.496 21.3716C43.7702 21.636 42.9319 21.8667 42.3243 22.3786L42.1893 22.5024C41.5817 23.0875 41.8124 24.6628 42.8757 24.5334ZM61.9645 28.5447C55.8041 26.3731 48.9742 25.8442 42.8869 28.7134C41.4073 29.4111 42.6056 31.4927 44.0684 30.9132C46.7745 29.8499 49.9813 28.8822 52.9461 28.916C56.0179 28.9554 58.4371 29.6361 61.3288 30.5475C62.6284 30.9582 63.236 28.9947 61.9645 28.5447Z" fill="#2F2F2F"/>
</svg>
