<svg width="18" height="19" viewBox="0 0 18 19" fill="none" xmlns="http://www.w3.org/2000/svg">
<path d="M15.2125 9.85413H12.0616C11.8744 9.85405 11.692 9.91336 11.5407 10.0235C11.3893 10.1337 11.2769 10.289 11.2194 10.4672C11.0689 10.9373 10.7728 11.3474 10.3739 11.6381C9.9749 11.9288 9.49381 12.085 9.00019 12.0841C8.50656 12.085 8.02544 11.9288 7.62648 11.6382C7.22751 11.3475 6.93139 10.9374 6.78097 10.4672C6.72346 10.289 6.6109 10.1337 6.45949 10.0235C6.30808 9.91332 6.12563 9.85403 5.93839 9.85413H2.78749C2.67121 9.8541 2.55606 9.87699 2.44863 9.92148C2.34119 9.96596 2.24357 10.0312 2.16135 10.1134C2.07913 10.1956 2.01391 10.2932 1.96942 10.4007C1.92493 10.5081 1.90205 10.6233 1.90207 10.7395V15.7893C1.90221 16.024 1.99555 16.2491 2.16158 16.4151C2.32761 16.581 2.55274 16.6743 2.78749 16.6743H15.2125C15.3288 16.6743 15.4439 16.6515 15.5513 16.607C15.6587 16.5625 15.7563 16.4974 15.8385 16.4152C15.9208 16.333 15.986 16.2354 16.0305 16.128C16.075 16.0206 16.0979 15.9055 16.0979 15.7893V10.7395C16.0979 10.2501 15.7019 9.85413 15.2125 9.85413Z" fill="#F9FDFF"/>
<path d="M8.81423 10.326C8.85869 10.3883 8.93141 10.4256 9.00791 10.4256H9.00845C9.08549 10.4256 9.15713 10.3883 9.20213 10.3251L11.6509 6.88121C11.676 6.84549 11.691 6.80355 11.694 6.75996C11.697 6.71636 11.6881 6.67276 11.6681 6.63389C11.6481 6.59496 11.6178 6.56233 11.5804 6.53959C11.543 6.51684 11.5 6.50488 11.4563 6.50501H10.3045V3.41117C10.3045 3.27887 10.1977 3.17249 10.0663 3.17249H7.93403C7.80227 3.17249 7.69589 3.27887 7.69589 3.41117V6.50501H6.54317C6.49949 6.50507 6.45666 6.51715 6.41938 6.53993C6.3821 6.56271 6.3518 6.5953 6.3318 6.63414C6.3118 6.67298 6.30288 6.71658 6.306 6.76015C6.30912 6.80373 6.32417 6.84561 6.34949 6.88121L8.81423 10.326Z" fill="#F9FDFF"/>
</svg>
