<svg width="49" height="43" viewBox="0 0 49 43" fill="none" xmlns="http://www.w3.org/2000/svg">
<path d="M24.5 15.1424V23.7564M24.5 32.3705H24.5215M20.8175 4.07329L2.57718 34.524C2.20111 35.1753 2.00212 35.9137 2.00002 36.6657C1.99791 37.4178 2.19276 38.1573 2.56518 38.8107C2.9376 39.464 3.47461 40.0085 4.12278 40.3899C4.77095 40.7713 5.50769 40.9763 6.2597 40.9846H42.7403C43.4923 40.9763 44.229 40.7713 44.8772 40.3899C45.5254 40.0085 46.0624 39.464 46.4348 38.8107C46.8072 38.1573 47.0021 37.4178 47 36.6657C46.9979 35.9137 46.7989 35.1753 46.4228 34.524L28.1825 4.07329C27.7986 3.44038 27.2581 2.9171 26.613 2.55394C25.968 2.19078 25.2402 2 24.5 2C23.7598 2 23.032 2.19078 22.387 2.55394C21.7419 2.9171 21.2014 3.44038 20.8175 4.07329Z" stroke="#212529" stroke-width="3" stroke-linecap="round" stroke-linejoin="round"/>
</svg>
