<svg width="49" height="40" viewBox="0 0 49 40" fill="none" xmlns="http://www.w3.org/2000/svg">
<path d="M34.7273 38.409V34.3181C34.7273 32.1481 33.8653 30.0671 32.3309 28.5327C30.7965 26.9983 28.7154 26.1363 26.5455 26.1363H10.1818C8.01186 26.1363 5.93079 26.9983 4.3964 28.5327C2.86201 30.0671 2 32.1481 2 34.3181V38.409M47 38.409V34.3181C46.9986 32.5053 46.3953 30.7442 45.2846 29.3115C44.1739 27.8787 42.6189 26.8554 40.8636 26.4022M32.6818 1.85673C34.4418 2.30735 36.0017 3.33089 37.1156 4.766C38.2296 6.20111 38.8342 7.96615 38.8342 9.78287C38.8342 11.5996 38.2296 13.3646 37.1156 14.7997C36.0017 16.2348 34.4418 17.2584 32.6818 17.709M26.5455 9.77264C26.5455 14.2913 22.8823 17.9545 18.3636 17.9545C13.8449 17.9545 10.1818 14.2913 10.1818 9.77264C10.1818 5.25394 13.8449 1.59082 18.3636 1.59082C22.8823 1.59082 26.5455 5.25394 26.5455 9.77264Z" stroke="#212529" stroke-width="3" stroke-linecap="round" stroke-linejoin="round"/>
</svg>
