<svg width="13" height="12" viewBox="0 0 13 12" fill="none" xmlns="http://www.w3.org/2000/svg">
<path d="M0.883009 0H9.05322C9.15479 0 9.25221 0.0403494 9.32403 0.112172C9.39585 0.183994 9.4362 0.281406 9.4362 0.382979V3.06383H12.1171C12.2186 3.06383 12.316 3.10418 12.3879 3.176C12.4597 3.24782 12.5 3.34524 12.5 3.44681V11.617C12.5 11.7186 12.4597 11.816 12.3879 11.8878C12.316 11.9597 12.2186 12 12.1171 12H3.94684C3.84527 12 3.74785 11.9597 3.67603 11.8878C3.60421 11.816 3.56386 11.7186 3.56386 11.617V8.93617H0.883009C0.781437 8.93617 0.684025 8.89582 0.612202 8.824C0.54038 8.75218 0.500031 8.65476 0.500031 8.55319V0.382979C0.500031 0.281406 0.54038 0.183994 0.612202 0.112172C0.684025 0.0403494 0.781437 0 0.883009 0ZM4.32982 11.234H11.7341V3.82979H4.32982V11.234ZM1.26599 8.17021H3.56386V3.44681C3.56386 3.34524 3.60421 3.24782 3.67603 3.176C3.74785 3.10418 3.84527 3.06383 3.94684 3.06383H8.67024V0.765957H1.26599V8.17021Z" fill="#212529"/>
</svg>
