<svg width="48" height="46" viewBox="0 0 48 46" fill="none" xmlns="http://www.w3.org/2000/svg">
<path d="M24 16.6508V25.2639M24 33.8769H24.0215M20.3175 5.58305L2.07718 36.0302C1.70111 36.6814 1.50212 37.4197 1.50002 38.1717C1.49791 38.9236 1.69276 39.663 2.06518 40.3163C2.4376 40.9696 2.97461 41.514 3.62278 41.8954C4.27095 42.2767 5.00769 42.4817 5.7597 42.49H42.2403C42.9923 42.4817 43.729 42.2767 44.3772 41.8954C45.0254 41.514 45.5624 40.9696 45.9348 40.3163C46.3072 39.663 46.5021 38.9236 46.5 38.1717C46.4979 37.4197 46.2989 36.6814 45.9228 36.0302L27.6825 5.58305C27.2986 4.95022 26.7581 4.42701 26.113 4.06389C25.468 3.70077 24.7402 3.51001 24 3.51001C23.2598 3.51001 22.532 3.70077 21.887 4.06389C21.2419 4.42701 20.7014 4.95022 20.3175 5.58305Z" stroke="#212529" stroke-width="3" stroke-linecap="round" stroke-linejoin="round"/>
</svg>
