<svg width="49" height="49" viewBox="0 0 49 49" fill="none" xmlns="http://www.w3.org/2000/svg">
<path d="M18.3636 2.21069V8.34706M30.6364 2.21069V8.34706M18.3636 41.0743V47.2107M30.6364 41.0743V47.2107M40.8636 18.5743H47M40.8636 28.8016H47M2 18.5743H8.13636M2 28.8016H8.13636M12.2273 8.34706H36.7727C39.0321 8.34706 40.8636 10.1786 40.8636 12.438V36.9834C40.8636 39.2428 39.0321 41.0743 36.7727 41.0743H12.2273C9.96793 41.0743 8.13636 39.2428 8.13636 36.9834V12.438C8.13636 10.1786 9.96793 8.34706 12.2273 8.34706ZM18.3636 18.5743H30.6364V30.8471H18.3636V18.5743Z" stroke="#212529" stroke-width="3" stroke-linecap="round" stroke-linejoin="round"/>
</svg>
