<svg width="59" height="49" viewBox="0 0 59 49" fill="none" xmlns="http://www.w3.org/2000/svg">
<path d="M42 47.2107V42.2107C42 39.5585 40.9464 37.015 39.0711 35.1396C37.1957 33.2643 34.6522 32.2107 32 32.2107H12C9.34784 32.2107 6.8043 33.2643 4.92893 35.1396C3.05357 37.015 2 39.5585 2 42.2107V47.2107M57 47.2107V42.2107C56.9983 39.995 56.2609 37.8426 54.9034 36.0915C53.5459 34.3403 51.6453 33.0896 49.5 32.5357M39.5 2.53569C41.651 3.08645 43.5576 4.33745 44.9191 6.09147C46.2806 7.84549 47.0196 10.0028 47.0196 12.2232C47.0196 14.4436 46.2806 16.6009 44.9191 18.3549C43.5576 20.1089 41.651 21.3599 39.5 21.9107M32 12.2107C32 17.7335 27.5228 22.2107 22 22.2107C16.4772 22.2107 12 17.7335 12 12.2107C12 6.68785 16.4772 2.21069 22 2.21069C27.5228 2.21069 32 6.68785 32 12.2107Z" stroke="#212529" stroke-width="3" stroke-linecap="round" stroke-linejoin="round"/>
</svg>
