<svg width="27" height="25" viewBox="0 0 27 25" fill="none" xmlns="http://www.w3.org/2000/svg">
<path d="M23.75 14.6875C23.75 14.4389 23.6512 14.2004 23.4754 14.0246C23.2996 13.8488 23.0611 13.75 22.8125 13.75H19.0625C18.8139 13.75 18.5754 13.8488 18.3996 14.0246C18.2238 14.2004 18.125 14.4389 18.125 14.6875V23.125H16.25V2.8125C16.25 1.9025 16.2475 1.3125 16.19 0.88C16.135 0.47375 16.0462 0.34625 15.975 0.275C15.9037 0.20375 15.7762 0.115 15.37 0.0600001C14.9362 0.00250012 14.3475 0 13.4375 0C12.5275 0 11.9375 0.00250012 11.505 0.0600001C11.0988 0.115 10.9713 0.20375 10.9 0.275C10.8288 0.34625 10.74 0.47375 10.685 0.88C10.6275 1.31375 10.625 1.9025 10.625 2.8125V23.125H8.75V8.4375C8.75 8.18886 8.65123 7.9504 8.47541 7.77459C8.2996 7.59877 8.06114 7.5 7.8125 7.5H4.0625C3.81386 7.5 3.5754 7.59877 3.39959 7.77459C3.22377 7.9504 3.125 8.18886 3.125 8.4375V23.125H0.9375C0.68886 23.125 0.450403 23.2238 0.274587 23.3996C0.0987721 23.5754 0 23.8139 0 24.0625C0 24.3111 0.0987721 24.5496 0.274587 24.7254C0.450403 24.9012 0.68886 25 0.9375 25H25.9375C26.1861 25 26.4246 24.9012 26.6004 24.7254C26.7762 24.5496 26.875 24.3111 26.875 24.0625C26.875 23.8139 26.7762 23.5754 26.6004 23.3996C26.4246 23.2238 26.1861 23.125 25.9375 23.125H23.75V14.6875Z" fill="#293241"/>
</svg>
