<svg width="30" height="31" viewBox="0 0 30 31" fill="none" xmlns="http://www.w3.org/2000/svg">
<mask id="mask0_1821_112" style="mask-type:luminance" maskUnits="userSpaceOnUse" x="-1" y="0" width="31" height="31">
<path d="M-0.00683594 0.5H29.9932V30.5H-0.00683594V0.5Z" fill="white"/>
</mask>
<g mask="url(#mask0_1821_112)">
<path fill-rule="evenodd" clip-rule="evenodd" d="M29.9932 0.5H-0.00683594V30.5H29.9932V0.5ZM18.7432 11.75C18.7432 11.087 18.4798 10.4511 18.0109 9.98223C17.5421 9.51339 16.9062 9.25 16.2432 9.25H13.7432C13.226 9.24974 12.7216 9.40985 12.2992 9.70827C11.8769 10.0067 11.5575 10.4287 11.385 10.9163C11.2703 11.2231 11.0397 11.4726 10.7429 11.6112C10.4461 11.7497 10.1068 11.7662 9.79788 11.6571C9.48902 11.548 9.23532 11.322 9.09137 11.0278C8.94742 10.7335 8.92472 10.3946 9.02816 10.0837C9.37281 9.10868 10.0113 8.26447 10.8558 7.66741C11.7002 7.07035 12.709 6.74983 13.7432 6.75H16.2432C17.2536 6.75004 18.2402 7.05619 19.0732 7.62811C19.9061 8.20003 20.5462 9.01088 20.9092 9.95382C21.2722 10.8968 21.341 11.9276 21.1065 12.9104C20.872 13.8932 20.3452 14.7819 19.5957 15.4594L13.0857 21.75H19.9932C20.3247 21.75 20.6426 21.8817 20.877 22.1161C21.1115 22.3505 21.2432 22.6685 21.2432 23C21.2432 23.3315 21.1115 23.6495 20.877 23.8839C20.6426 24.1183 20.3247 24.25 19.9932 24.25H9.99316C9.74413 24.25 9.50078 24.1756 9.2943 24.0364C9.08783 23.8971 8.92765 23.6994 8.83431 23.4685C8.74096 23.2377 8.71871 22.9842 8.7704 22.7406C8.82209 22.4969 8.94536 22.2743 9.12441 22.1012L17.8744 13.6462L17.9094 13.6138C18.1717 13.3793 18.3816 13.092 18.5252 12.7709C18.6689 12.4497 18.7432 12.1018 18.7432 11.75Z" fill="#0D1625"/>
</g>
</svg>
