<svg width="30" height="31" viewBox="0 0 30 31" fill="none" xmlns="http://www.w3.org/2000/svg">
<path d="M29.9932 5C29.9932 6.19347 29.5191 7.33807 28.6751 8.18198C27.8312 9.02589 26.6866 9.5 25.4932 9.5C24.2997 9.5 23.1551 9.02589 22.3112 8.18198C21.4673 7.33807 20.9932 6.19347 20.9932 5C20.9932 3.80653 21.4673 2.66193 22.3112 1.81802C23.1551 0.974106 24.2997 0.5 25.4932 0.5C26.6866 0.5 27.8312 0.974106 28.6751 1.81802C29.5191 2.66193 29.9932 3.80653 29.9932 5Z" fill="#0D1625"/>
<path fill-rule="evenodd" clip-rule="evenodd" d="M20.4112 0.557C18.8782 0.5 17.0917 0.5 14.9932 0.5C7.92216 0.5 4.38666 0.5 2.18916 2.696C-0.00683594 4.895 -0.00683594 8.429 -0.00683594 15.5C-0.00683594 22.571 -0.00683594 26.1065 2.18916 28.3025C4.38816 30.5 7.92216 30.5 14.9932 30.5C22.0642 30.5 25.5997 30.5 27.7957 28.3025C29.9932 26.108 29.9932 22.571 29.9932 15.5C29.9932 13.4015 29.9932 11.615 29.9362 10.082C28.6475 11.2103 26.978 11.8065 25.2661 11.7498C23.5542 11.6931 21.9278 10.9877 20.7167 9.77649C19.5055 8.56532 18.8001 6.93899 18.7433 5.22707C18.6866 3.51516 19.2828 1.8457 20.4112 0.557ZM23.2132 11.636C23.4422 11.827 23.5861 12.1012 23.6131 12.3982C23.6401 12.6952 23.548 12.9908 23.3572 13.22L20.6137 16.5125C20.1217 17.1035 19.6777 17.6375 19.2637 18.0125C18.8107 18.4175 18.2437 18.782 17.4937 18.782C16.7437 18.782 16.1752 18.419 15.7237 18.011C15.3097 17.636 14.8657 17.1035 14.3722 16.511L13.9342 15.986C13.3777 15.3185 13.0357 14.912 12.7537 14.6585C12.6807 14.5869 12.5984 14.5254 12.5092 14.4755L12.4942 14.468L12.4867 14.471L12.4762 14.4755C12.3869 14.5253 12.3046 14.5869 12.2317 14.6585C11.9512 14.9135 11.6092 15.3185 11.0527 15.986L8.35716 19.22C8.16379 19.441 7.89163 19.5777 7.59885 19.6008C7.30606 19.6239 7.01586 19.5315 6.79024 19.3435C6.56462 19.1555 6.42147 18.8867 6.39137 18.5945C6.36127 18.3024 6.44662 18.0101 6.62916 17.78L9.37266 14.4875C9.86467 13.8965 10.3087 13.3625 10.7227 12.9875C11.1757 12.5825 11.7427 12.218 12.4927 12.218C13.2427 12.218 13.8112 12.581 14.2627 12.989C14.6767 13.364 15.1207 13.8965 15.6142 14.489L16.0522 15.014C16.6087 15.6815 16.9507 16.088 17.2327 16.3415C17.3617 16.4585 17.4397 16.5065 17.4772 16.5245L17.4817 16.526C17.4856 16.5281 17.4896 16.5301 17.4937 16.532L17.5087 16.5245C17.5985 16.4748 17.6812 16.4132 17.7547 16.3415C18.0352 16.0865 18.3772 15.6815 18.9337 15.014L21.6292 11.78C21.8202 11.5509 22.0943 11.4071 22.3914 11.3801C22.6884 11.3531 22.984 11.4451 23.2132 11.636Z" fill="#0D1625"/>
</svg>
