<svg width="30" height="31" viewBox="0 0 30 31" fill="none" xmlns="http://www.w3.org/2000/svg">
<path fill-rule="evenodd" clip-rule="evenodd" d="M14.0067 22.534L7.974 16.5012C8.63738 15.3913 9.29862 14.2427 9.95342 13.1006C12.1346 9.30919 14.2644 5.60797 16.261 3.68222C21.6797 -1.73651 29.1014 1.40652 29.1014 1.40652C29.1014 1.40652 32.2423 8.82829 26.8257 14.247C24.915 16.2264 21.2718 18.3261 17.5083 20.4901C16.3361 21.1664 15.1532 21.847 14.0067 22.534ZM18.6011 8.51055C18.6011 7.60978 18.9589 6.7459 19.5958 6.10896C20.2328 5.47202 21.0966 5.11419 21.9974 5.11419C22.8982 5.11419 23.7621 5.47202 24.399 6.10896C25.0359 6.7459 25.3938 7.60978 25.3938 8.51055C25.3715 9.39626 25.004 10.2382 24.3697 10.8568C23.7354 11.4753 22.8845 11.8215 21.9985 11.8215C21.1125 11.8215 20.2616 11.4753 19.6273 10.8568C18.993 10.2382 18.6233 9.39626 18.6011 8.51055ZM9.82031 8.01248C6.77604 7.2031 3.91854 8.70162 1.38307 11.0267C1.26615 11.1368 1.17659 11.2728 1.12156 11.4237C1.06652 11.5746 1.04752 11.7363 1.06609 11.8959C1.08465 12.0554 1.14026 12.2084 1.22847 12.3427C1.31668 12.4769 1.43506 12.5887 1.57415 12.6691L5.66395 15.1337L5.66825 15.1251C6.25864 14.1375 6.91773 12.9932 7.58756 11.8339C8.3497 10.5093 9.12472 9.16535 9.82031 8.01248ZM15.3743 24.844L17.8389 28.9338C17.9195 29.0728 18.0314 29.1909 18.1657 29.279C18.3001 29.367 18.4531 29.4224 18.6126 29.4407C18.7722 29.4591 18.9338 29.4399 19.0846 29.3847C19.2355 29.3295 19.3713 29.2398 19.4813 29.1227C21.8063 26.5894 23.307 23.7298 22.4955 20.6855C21.3748 21.3596 20.1983 22.038 19.0326 22.71L18.8544 22.8131C17.6779 23.4915 16.5121 24.1613 15.385 24.8376L15.3743 24.844ZM5.58022 20.5588C6.44793 20.5435 7.29992 20.7914 8.02391 21.2699C8.74789 21.7484 9.30988 22.4351 9.63579 23.2394C9.9617 24.0438 10.0362 24.9279 9.84957 25.7755C9.66291 26.623 9.22381 27.3941 8.59015 27.9871C8.11354 28.4422 7.36858 28.7986 6.67943 29.0734C5.907 29.3729 5.11861 29.6295 4.31786 29.842C3.52995 30.0566 2.77855 30.2284 2.20962 30.3422C1.97042 30.3912 1.72987 30.4335 1.48827 30.4688C1.39331 30.4803 1.29811 30.4896 1.20274 30.4968C1.05934 30.5075 0.915192 30.4915 0.777653 30.4495C0.576625 30.3898 0.397014 30.2736 0.260255 30.1146C0.144034 29.9789 0.0629382 29.8167 0.024098 29.6423C-0.0048763 29.5186 -0.0135769 29.391 -0.00166452 29.2644C0.00477612 29.1786 0.0176574 29.0798 0.0305387 28.9896C0.0584481 28.8007 0.101386 28.5538 0.159351 28.2726C0.273136 27.7058 0.44918 26.9587 0.663868 26.1751C0.878556 25.3936 1.14048 24.5563 1.4346 23.8242C1.7094 23.1351 2.06578 22.3923 2.52092 21.9178C2.91387 21.498 3.38715 21.1614 3.91268 20.9279C4.43821 20.6945 5.00527 20.569 5.58022 20.5588Z" fill="#0D1625"/>
</svg>
