<svg width="49" height="49" viewBox="0 0 49 49" fill="none" xmlns="http://www.w3.org/2000/svg">
<path d="M24.5 46.8704C36.9264 46.8704 47 36.7968 47 24.3704C47 11.944 36.9264 1.87036 24.5 1.87036C12.0736 1.87036 2 11.944 2 24.3704C2 36.7968 12.0736 46.8704 24.5 46.8704Z" stroke="#212529" stroke-width="3" stroke-linecap="round" stroke-linejoin="round"/>
<path d="M13.54 28.9904C12.956 28.9904 12.44 28.8864 11.992 28.6784C11.544 28.4624 11.192 28.1144 10.936 27.6344C10.688 27.1464 10.564 26.4944 10.564 25.6784C10.564 24.8144 10.692 24.1384 10.948 23.6504C11.212 23.1544 11.564 22.8024 12.004 22.5944C12.452 22.3864 12.952 22.2824 13.504 22.2824C14.024 22.2824 14.46 22.3384 14.812 22.4504C15.164 22.5624 15.428 22.7144 15.604 22.9064C15.788 23.0904 15.88 23.3024 15.88 23.5424C15.88 23.7104 15.836 23.8744 15.748 24.0344C15.668 24.1864 15.516 24.3144 15.292 24.4184C15.068 24.5144 14.748 24.5624 14.332 24.5624C14.332 24.2824 14.308 24.0264 14.26 23.7944C14.212 23.5624 14.132 23.3744 14.02 23.2304C13.908 23.0864 13.752 23.0144 13.552 23.0144C13.32 23.0144 13.116 23.0944 12.94 23.2544C12.772 23.4064 12.64 23.6744 12.544 24.0584C12.456 24.4424 12.412 24.9784 12.412 25.6664C12.412 26.2024 12.46 26.6504 12.556 27.0104C12.66 27.3704 12.816 27.6424 13.024 27.8264C13.232 28.0024 13.504 28.0904 13.84 28.0904C14.12 28.0904 14.372 28.0504 14.596 27.9704C14.828 27.8824 15.028 27.7664 15.196 27.6224C15.364 27.4704 15.492 27.3024 15.58 27.1184C15.676 27.1744 15.748 27.2544 15.796 27.3584C15.844 27.4544 15.868 27.5584 15.868 27.6704C15.868 27.8704 15.784 28.0744 15.616 28.2824C15.456 28.4824 15.204 28.6504 14.86 28.7864C14.524 28.9224 14.084 28.9904 13.54 28.9904ZM19.9881 28.9904C19.0281 28.9904 18.2721 28.7144 17.7201 28.1624C17.1681 27.6024 16.8921 26.7584 16.8921 25.6304C16.8921 24.5024 17.1561 23.6624 17.6841 23.1104C18.2121 22.5584 18.9921 22.2824 20.0241 22.2824C20.9841 22.2824 21.7401 22.5584 22.2921 23.1104C22.8441 23.6624 23.1201 24.5024 23.1201 25.6304C23.1201 26.7584 22.8521 27.6024 22.3161 28.1624C21.7881 28.7144 21.0121 28.9904 19.9881 28.9904ZM20.0121 28.2344C20.3241 28.2344 20.5681 28.1384 20.7441 27.9464C20.9281 27.7464 21.0601 27.4544 21.1401 27.0704C21.2201 26.6784 21.2601 26.1984 21.2601 25.6304C21.2601 24.7744 21.1641 24.1304 20.9721 23.6984C20.7881 23.2664 20.4641 23.0504 20.0001 23.0504C19.5361 23.0504 19.2121 23.2664 19.0281 23.6984C18.8441 24.1224 18.7521 24.7664 18.7521 25.6304C18.7521 26.4784 18.8441 27.1264 19.0281 27.5744C19.2201 28.0144 19.5481 28.2344 20.0121 28.2344ZM26.6035 28.9904C26.0675 28.9904 25.6395 28.8504 25.3195 28.5704C24.9995 28.2904 24.8395 27.7984 24.8395 27.0944V23.2544H23.9395V22.6424C24.1955 22.6424 24.4235 22.5904 24.6235 22.4864C24.8315 22.3824 24.9955 22.2664 25.1155 22.1384C25.2355 22.0104 25.3435 21.8504 25.4395 21.6584C25.5355 21.4584 25.6115 21.2224 25.6675 20.9504H26.6635V22.4384H28.1995V23.2544H26.6635V26.9744C26.6635 27.3344 26.7235 27.5984 26.8435 27.7664C26.9715 27.9344 27.1755 28.0184 27.4555 28.0184C27.6155 28.0184 27.7635 28.0104 27.8995 27.9944C28.0435 27.9704 28.1795 27.9424 28.3075 27.9104V28.6904C28.1795 28.7464 27.9675 28.8104 27.6715 28.8824C27.3835 28.9544 27.0275 28.9904 26.6035 28.9904ZM28.8508 26.2304V24.9704H31.9708V26.2304H28.8508ZM32.6856 28.8704V27.6344L34.4616 25.8224C34.9576 25.3184 35.3376 24.8744 35.6016 24.4904C35.8656 24.1064 36.0496 23.7384 36.1536 23.3864C36.2576 23.0344 36.3096 22.6504 36.3096 22.2344C36.3096 21.9304 36.2696 21.6824 36.1896 21.4904C36.1176 21.2904 36.0096 21.1464 35.8656 21.0584C35.7296 20.9624 35.5656 20.9144 35.3736 20.9144C35.1016 20.9144 34.8856 20.9944 34.7256 21.1544C34.5656 21.3064 34.4496 21.5384 34.3776 21.8504C34.3056 22.1544 34.2696 22.5344 34.2696 22.9904C33.9656 22.9904 33.6976 22.9504 33.4656 22.8704C33.2336 22.7904 33.0536 22.6664 32.9256 22.4984C32.7976 22.3224 32.7336 22.0904 32.7336 21.8024C32.7336 21.5144 32.8296 21.2464 33.0216 20.9984C33.2216 20.7504 33.5176 20.5544 33.9096 20.4104C34.3016 20.2584 34.7896 20.1824 35.3736 20.1824C35.9736 20.1824 36.4776 20.2624 36.8856 20.4224C37.2936 20.5824 37.6016 20.8104 37.8096 21.1064C38.0176 21.4024 38.1216 21.7584 38.1216 22.1744C38.1216 22.3984 38.0896 22.6184 38.0256 22.8344C37.9616 23.0424 37.8576 23.2624 37.7136 23.4944C37.5776 23.7264 37.3896 23.9824 37.1496 24.2624C36.9176 24.5344 36.6256 24.8464 36.2736 25.1984C35.9216 25.5504 35.5056 25.9544 35.0256 26.4104L33.8256 27.5504H36.6216C36.8696 27.5504 37.0776 27.4784 37.2456 27.3344C37.4216 27.1904 37.5456 26.9864 37.6176 26.7224L37.7136 26.3504H38.4216L38.3616 28.8704H32.6856Z" fill="black"/>
</svg>
