<svg width="17" height="23" viewBox="0 0 17 23" fill="none" xmlns="http://www.w3.org/2000/svg">
<path d="M12.2073 11.3663C13.2545 10.5958 14.0316 9.51425 14.4278 8.27593C14.824 7.03762 14.819 5.70581 14.4135 4.4705C14.0081 3.23519 13.2228 2.1595 12.1698 1.39687C11.1168 0.634236 9.84989 0.223633 8.54974 0.223633C7.24958 0.223633 5.98264 0.634236 4.92964 1.39687C3.87665 2.1595 3.0914 3.23519 2.68592 4.4705C2.28044 5.70581 2.27545 7.03762 2.67164 8.27593C3.06783 9.51425 3.84498 10.5958 4.89221 11.3663C3.56526 11.8866 2.42553 12.794 1.62124 13.9707C0.816951 15.1474 0.385309 16.5388 0.382446 17.9641V22.3957H16.717V17.9641C16.7142 16.5388 16.2825 15.1474 15.4782 13.9707C14.6739 12.794 13.5342 11.8866 12.2073 11.3663Z" fill="white"/>
<path d="M8.54972 2.80174C8.54972 2.80174 9.97012 5.54311 14.6574 5.55021C14.4556 4.07366 13.7256 2.72022 12.6027 1.7404C11.4798 0.760574 10.04 0.220703 8.54972 0.220703C7.05943 0.220703 5.61961 0.760574 4.49671 1.7404C3.37382 2.72022 2.64388 4.07366 2.44202 5.55021C2.56985 5.55021 7.06541 5.56442 8.54972 2.80174Z" fill="white"/>
<path d="M12.2072 11.3664C13.2561 10.5974 14.0349 9.51629 14.4321 8.27785C14.8294 7.0394 14.8247 5.70705 14.4189 4.47139C14.013 3.23574 13.2268 2.16011 12.1726 1.39838C11.1184 0.636648 9.8503 0.227853 8.54971 0.230481H8.5V22.3887H16.717V17.957C16.7127 16.533 16.2804 15.1431 15.4762 13.9678C14.672 12.7925 13.5331 11.8862 12.2072 11.3664Z" fill="white"/>
<path d="M8.54971 0.230469H8.5V2.87241C8.52063 2.84919 8.53741 2.82281 8.54971 2.79429C8.54971 2.79429 9.97011 5.53566 14.6574 5.54276C14.4503 4.06996 13.7183 2.72148 12.5961 1.74542C11.4739 0.76936 10.037 0.231384 8.54971 0.230469Z" fill="white"/>
</svg>
