<svg width="55" height="55" viewBox="0 0 55 55" fill="none" xmlns="http://www.w3.org/2000/svg">
<rect width="55" height="55" fill="#181818"/>
<path d="M27.5001 11.7858C36.1791 11.7858 43.2143 18.821 43.2143 27.5C43.2143 36.179 36.1791 43.2143 27.5001 43.2143C24.723 43.2188 21.9948 42.4839 19.5958 41.085L11.7921 43.2143L13.9166 35.4075C12.5166 33.0077 11.7811 30.2783 11.7858 27.5C11.7858 18.821 18.8211 11.7858 27.5001 11.7858ZM22.1446 20.1143L21.8304 20.1269C21.6269 20.1393 21.428 20.1927 21.2458 20.284C21.0753 20.3806 20.9197 20.5013 20.7838 20.6423C20.5952 20.8199 20.4884 20.9739 20.3736 21.1232C19.7924 21.8789 19.4795 22.8067 19.4842 23.76C19.4874 24.53 19.6885 25.2796 20.0028 25.9805C20.6455 27.3979 21.7031 28.8986 23.0985 30.2893C23.4348 30.624 23.7648 30.9603 24.1199 31.273C25.8538 32.7996 27.92 33.9005 30.1542 34.4882L31.0468 34.6249C31.3375 34.6406 31.6282 34.6186 31.9205 34.6045C32.3782 34.5808 32.825 34.4569 33.2295 34.2415C33.4353 34.1355 33.6361 34.0201 33.8313 33.8958C33.8313 33.8958 33.8989 33.8518 34.0278 33.7543C34.2399 33.5972 34.3703 33.4856 34.5463 33.3018C34.6768 33.1666 34.7899 33.0079 34.8763 32.8272C34.9989 32.571 35.1215 32.0823 35.1718 31.6753C35.2095 31.3642 35.1985 31.1945 35.1938 31.0892C35.1875 30.921 35.0476 30.7466 34.8952 30.6728L33.9806 30.2626C33.9806 30.2626 32.6135 29.667 31.7775 29.2868C31.69 29.2486 31.5963 29.2267 31.5009 29.2223C31.3934 29.2113 31.2848 29.2234 31.1823 29.2578C31.0799 29.2922 30.986 29.3482 30.9069 29.4219C30.8991 29.4188 30.7938 29.5083 29.6576 30.8849C29.5924 30.9725 29.5026 31.0387 29.3996 31.0751C29.2966 31.1115 29.1851 31.1164 29.0793 31.0892C28.977 31.0617 28.8767 31.0271 28.7792 30.9855C28.5843 30.9038 28.5168 30.8723 28.3832 30.8158C27.4813 30.4222 26.6463 29.8904 25.9082 29.2396C25.7102 29.0668 25.5264 28.8782 25.3378 28.6959C24.7196 28.1038 24.1808 27.4341 23.7349 26.7033L23.6422 26.554C23.5756 26.4537 23.5218 26.3455 23.4819 26.2319C23.4222 26.0009 23.5778 25.8155 23.5778 25.8155C23.5778 25.8155 23.9596 25.3975 24.1372 25.1712C24.3101 24.9512 24.4562 24.7375 24.5505 24.585C24.7359 24.2865 24.7941 23.98 24.6966 23.7428C24.2566 22.6679 23.8009 21.5978 23.3326 20.5355C23.2399 20.3249 22.9649 20.174 22.7151 20.1442C22.6302 20.1348 22.5454 20.1253 22.4605 20.119C22.2495 20.1086 22.038 20.1107 21.8272 20.1253L22.1446 20.1143Z" fill="#F9FDFF"/>
</svg>
