<?xml version="1.0" encoding="utf-8"?>
<!-- Generator: Adobe Illustrator 24.0.0, SVG Export Plug-In . SVG Version: 6.00 Build 0)  -->
<svg version="1.1" id="Layer_1" xmlns="http://www.w3.org/2000/svg" xmlns:xlink="http://www.w3.org/1999/xlink" x="0px" y="0px"
	 viewBox="0 0 500 500" style="enable-background:new 0 0 500 500;" xml:space="preserve">
<style type="text/css">
	.st0{fill:#F2F2F2;}
</style>
<g>
	<path class="st0" d="M486.6,498.3c-1.2,0-2.3,0.7-2.9,1.7h5.9C488.9,499,487.8,498.3,486.6,498.3z"/>
	<path class="st0" d="M291.7,499c-0.7,0-1.3,0.4-1.7,1h3.3C293,499.4,292.4,499,291.7,499z"/>
	<path class="st0" d="M500,108.9c-1.1,0.7-1.9,2-1.9,3.4c0,1.4,0.8,2.7,1.9,3.4V108.9z"/>
	<path class="st0" d="M498.1,19.6c0,1.2,0.8,2.2,1.9,2.6V17C498.9,17.4,498.1,18.4,498.1,19.6z"/>
	<path class="st0" d="M185.3,380.5c2,0,3.6-1.6,3.6-3.6c0-2-1.6-3.6-3.6-3.6c-2,0-3.6,1.6-3.6,3.6
		C181.7,378.9,183.3,380.5,185.3,380.5z"/>
	<path class="st0" d="M445.4,482.3c1.1,0,2-0.9,2-2c0-1.1-0.9-2-2-2c-1.1,0-2,0.9-2,2C443.3,481.4,444.3,482.3,445.4,482.3z"/>
	<path class="st0" d="M215.8,413.2c1.2,0,2.2-1,2.2-2.2c0-1.2-1-2.2-2.2-2.2c-1.2,0-2.2,1-2.2,2.2
		C213.6,412.3,214.6,413.2,215.8,413.2z"/>
	<path class="st0" d="M237.3,401.7c1.7,0,3-1.4,3-3c0-1.7-1.4-3-3-3c-1.7,0-3,1.4-3,3C234.2,400.4,235.6,401.7,237.3,401.7z"/>
	<path class="st0" d="M201.3,250.5c2.2,0,4-1.8,4-4c0-2.2-1.8-4-4-4s-4,1.8-4,4C197.3,248.7,199.1,250.5,201.3,250.5z"/>
	<path class="st0" d="M12.9,486.5c-1.5,0-2.6,1.2-2.6,2.6c0,1.5,1.2,2.6,2.6,2.6c1.5,0,2.6-1.2,2.6-2.6
		C15.6,487.7,14.4,486.5,12.9,486.5z"/>
	<path class="st0" d="M211.9,363.9c1.9,0,3.4-1.5,3.4-3.4c0-1.9-1.5-3.4-3.4-3.4s-3.4,1.5-3.4,3.4
		C208.5,362.4,210,363.9,211.9,363.9z"/>
	<path class="st0" d="M400.9,351.3c1,0,1.9-0.8,1.9-1.9s-0.8-1.9-1.9-1.9s-1.9,0.8-1.9,1.9S399.9,351.3,400.9,351.3z"/>
	<circle class="st0" cx="206.6" cy="217.1" r="1.7"/>
	<path class="st0" d="M455.8,6.3c-1.1,0-1.9,0.9-1.9,1.9c0,1.1,0.9,1.9,1.9,1.9c1.1,0,1.9-0.9,1.9-1.9
		C457.7,7.1,456.8,6.3,455.8,6.3z"/>
	<path class="st0" d="M106.9,352.7c0-2.2-1.8-4-4-4c-2.2,0-4,1.8-4,4s1.8,4,4,4C105.1,356.7,106.9,354.9,106.9,352.7z"/>
	<path class="st0" d="M197.6,402.9c0-2.2-1.8-4-4-4c-2.2,0-4,1.8-4,4c0,2.2,1.8,4,4,4C195.8,406.9,197.6,405.1,197.6,402.9z"/>
	<path class="st0" d="M414.5,32.9c0-0.8-0.7-1.5-1.5-1.5c-0.8,0-1.5,0.7-1.5,1.5s0.7,1.5,1.5,1.5C413.8,34.5,414.5,33.8,414.5,32.9z
		"/>
	<path class="st0" d="M471.5,499c1.6,0,3-1.3,3-3c0-1.6-1.3-3-3-3c-1.6,0-3,1.3-3,3C468.6,497.7,469.9,499,471.5,499z"/>
	<path class="st0" d="M416.3,460.3c2.3,0,4.2-1.9,4.2-4.2c0-2.3-1.9-4.2-4.2-4.2c-2.3,0-4.2,1.9-4.2,4.2
		C412.1,458.4,414,460.3,416.3,460.3z"/>
	<path class="st0" d="M271.7,378.2c0-2.2-1.8-4-4-4s-4,1.8-4,4c0,2.2,1.8,4,4,4S271.7,380.4,271.7,378.2z"/>
	<path class="st0" d="M70.1,355.9c0-1.9-1.5-3.4-3.4-3.4c-1.9,0-3.4,1.5-3.4,3.4c0,1.9,1.5,3.4,3.4,3.4
		C68.5,359.2,70.1,357.7,70.1,355.9z"/>
	<circle class="st0" cx="341.9" cy="21.4" r="3.2"/>
	<path class="st0" d="M469.3,441.1c1.3,0,2.4-1.1,2.4-2.4s-1.1-2.4-2.4-2.4c-1.3,0-2.4,1.1-2.4,2.4S468,441.1,469.3,441.1z"/>
	<path class="st0" d="M54.4,207.1c-1.3,0-2.4,1.1-2.4,2.4s1.1,2.4,2.4,2.4c1.3,0,2.4-1.1,2.4-2.4S55.7,207.1,54.4,207.1z"/>
	<path class="st0" d="M138.6,101.6c1.5,0,2.7-1.2,2.7-2.7c0-1.5-1.2-2.7-2.7-2.7c-1.5,0-2.7,1.2-2.7,2.7
		C135.9,100.4,137.1,101.6,138.6,101.6z"/>
	<circle class="st0" cx="298.9" cy="237.8" r="2.5"/>
	<path class="st0" d="M308.1,47.4c0-2.3-1.9-4.2-4.2-4.2c-2.3,0-4.2,1.9-4.2,4.2s1.9,4.2,4.2,4.2C306.2,51.6,308.1,49.7,308.1,47.4z
		"/>
	<path class="st0" d="M167.1,367c2.1,0,3.7-1.7,3.7-3.7s-1.7-3.7-3.7-3.7c-2.1,0-3.7,1.7-3.7,3.7S165,367,167.1,367z"/>
	<path class="st0" d="M309.8,97.6c-2,0-3.6,1.6-3.6,3.6c0,2,1.6,3.6,3.6,3.6c2,0,3.6-1.6,3.6-3.6C313.4,99.2,311.8,97.6,309.8,97.6z
		"/>
	<path class="st0" d="M201.5,472.1c1.3,0,2.3-1,2.3-2.3c0-1.3-1-2.3-2.3-2.3c-1.3,0-2.3,1-2.3,2.3
		C199.3,471,200.3,472.1,201.5,472.1z"/>
	<path class="st0" d="M357.6,222.1c0-1.7-1.4-3.1-3.1-3.1c-1.7,0-3.1,1.4-3.1,3.1s1.4,3.1,3.1,3.1
		C356.2,225.2,357.6,223.8,357.6,222.1z"/>
	<circle class="st0" cx="316.9" cy="198.7" r="1.7"/>
	<circle class="st0" cx="373.8" cy="46.2" r="2.6"/>
	<circle class="st0" cx="468.5" cy="338.7" r="2.5"/>
	<path class="st0" d="M342.6,67.3c0-0.9-0.8-1.7-1.7-1.7s-1.7,0.8-1.7,1.7c0,0.9,0.8,1.7,1.7,1.7S342.6,68.2,342.6,67.3z"/>
	<path class="st0" d="M187.7,85.8c0,0.9,0.7,1.6,1.6,1.6s1.6-0.7,1.6-1.6c0-0.9-0.7-1.6-1.6-1.6S187.7,84.9,187.7,85.8z"/>
	<circle class="st0" cx="178.2" cy="318.2" r="1.6"/>
	<circle class="st0" cx="182.4" cy="298.4" r="1.8"/>
	<path class="st0" d="M211.6,307.9c0,0.9,0.7,1.6,1.6,1.6c0.9,0,1.6-0.7,1.6-1.6c0-0.9-0.7-1.6-1.6-1.6
		C212.3,306.3,211.6,307,211.6,307.9z"/>
	<circle class="st0" cx="445.1" cy="29.3" r="1.7"/>
	<path class="st0" d="M118.4,335.2c1.1,0,2-0.9,2-2s-0.9-2-2-2c-1.1,0-2,0.9-2,2S117.2,335.2,118.4,335.2z"/>
	<path class="st0" d="M475.4,317.4c0-1.3-1.1-2.4-2.4-2.4c-1.3,0-2.4,1.1-2.4,2.4c0,1.3,1.1,2.4,2.4,2.4
		C474.3,319.8,475.4,318.8,475.4,317.4z"/>
	<path class="st0" d="M117.5,183.5c2,0,3.6-1.6,3.6-3.6c0-2-1.6-3.6-3.6-3.6c-2,0-3.6,1.6-3.6,3.6
		C113.9,181.9,115.5,183.5,117.5,183.5z"/>
	<path class="st0" d="M241.2,131.4c2.2,0,3.9-1.8,3.9-3.9c0-2.2-1.8-3.9-3.9-3.9c-2.2,0-3.9,1.8-3.9,3.9
		C237.2,129.6,239,131.4,241.2,131.4z"/>
	<path class="st0" d="M73.2,144.7c1.3,0,2.3-1,2.3-2.3s-1-2.3-2.3-2.3c-1.3,0-2.3,1-2.3,2.3S72,144.7,73.2,144.7z"/>
	<path class="st0" d="M338.1,315.3c0-0.9-0.7-1.6-1.6-1.6c-0.9,0-1.6,0.7-1.6,1.6c0,0.9,0.7,1.6,1.6,1.6
		C337.3,316.9,338.1,316.2,338.1,315.3z"/>
	<circle class="st0" cx="61.9" cy="382.1" r="3.7"/>
	<circle class="st0" cx="459.9" cy="47.9" r="3.1"/>
	<path class="st0" d="M423.2,7.6c-1,0-1.8,0.8-1.8,1.8c0,1,0.8,1.8,1.8,1.8s1.8-0.8,1.8-1.8C425,8.4,424.2,7.6,423.2,7.6z"/>
	<path class="st0" d="M336.2,427.3c0-1.9-1.6-3.5-3.5-3.5c-1.9,0-3.5,1.6-3.5,3.5c0,1.9,1.6,3.5,3.5,3.5
		C334.6,430.8,336.2,429.2,336.2,427.3z"/>
	<circle class="st0" cx="58.9" cy="486.7" r="3.2"/>
	<path class="st0" d="M417.2,247.3c0,1.7,1.4,3.1,3.1,3.1c1.7,0,3.1-1.4,3.1-3.1c0-1.7-1.4-3.1-3.1-3.1
		C418.6,244.3,417.2,245.6,417.2,247.3z"/>
	<path class="st0" d="M483.1,1.8c0,1.9,1.5,3.5,3.5,3.5s3.5-1.5,3.5-3.5c0-0.7-0.2-1.3-0.5-1.8h-5.9C483.3,0.5,483.1,1.1,483.1,1.8z
		"/>
	<circle class="st0" cx="205.8" cy="385.6" r="1.9"/>
	<path class="st0" d="M7.4,191.1c0,2.2,1.8,3.9,3.9,3.9c2.2,0,3.9-1.8,3.9-3.9s-1.8-3.9-3.9-3.9C9.2,187.1,7.4,188.9,7.4,191.1z"/>
	<circle class="st0" cx="463.2" cy="25.5" r="2.2"/>
	<path class="st0" d="M171.1,245.7c-0.9,0-1.7,0.8-1.7,1.7c0,0.9,0.8,1.7,1.7,1.7c0.9,0,1.7-0.8,1.7-1.7
		C172.8,246.4,172,245.7,171.1,245.7z"/>
	<path class="st0" d="M354.5,165.9c2.2,0,4-1.8,4-4c0-2.2-1.8-4-4-4c-2.2,0-4,1.8-4,4C350.4,164.1,352.2,165.9,354.5,165.9z"/>
	<circle class="st0" cx="187.4" cy="429.4" r="3.5"/>
	<circle class="st0" cx="131" cy="358.5" r="3.6"/>
	<circle class="st0" cx="298.8" cy="445.7" r="2.3"/>
	<path class="st0" d="M233.9,290.6c-1.9,0-3.5,1.6-3.5,3.5s1.6,3.5,3.5,3.5c1.9,0,3.5-1.6,3.5-3.5S235.9,290.6,233.9,290.6z"/>
	<path class="st0" d="M41.8,485.5c1.4,0,2.5-1.1,2.5-2.5c0-1.4-1.1-2.5-2.5-2.5c-1.4,0-2.5,1.1-2.5,2.5
		C39.2,484.3,40.4,485.5,41.8,485.5z"/>
	<path class="st0" d="M159.7,424.2c0-1.8-1.5-3.3-3.3-3.3s-3.3,1.5-3.3,3.3c0,1.8,1.5,3.3,3.3,3.3S159.7,426.1,159.7,424.2z"/>
	<path class="st0" d="M158.8,13.9c-1.4,0-2.5,1.1-2.5,2.5c0,1.4,1.1,2.5,2.5,2.5c1.4,0,2.5-1.1,2.5-2.5
		C161.3,15,160.2,13.9,158.8,13.9z"/>
	<circle class="st0" cx="408.7" cy="59.5" r="2.6"/>
	<path class="st0" d="M385,470.3c-1.1,0-1.9,0.9-1.9,1.9c0,1.1,0.9,1.9,1.9,1.9c1.1,0,1.9-0.9,1.9-1.9
		C387,471.2,386.1,470.3,385,470.3z"/>
	<path class="st0" d="M162.9,140.3c0-1.1-0.9-2-2-2c-1.1,0-2,0.9-2,2c0,1.1,0.9,2,2,2C162,142.3,162.9,141.4,162.9,140.3z"/>
	<path class="st0" d="M273.6,289.8c-1,0-1.8,0.8-1.8,1.8c0,1,0.8,1.8,1.8,1.8c1,0,1.8-0.8,1.8-1.8
		C275.4,290.6,274.6,289.8,273.6,289.8z"/>
	<circle class="st0" cx="128.6" cy="401.4" r="2.4"/>
	<path class="st0" d="M15.6,65.7c-1.4,0-2.5,1.1-2.5,2.5s1.1,2.5,2.5,2.5c1.4,0,2.5-1.1,2.5-2.5S17,65.7,15.6,65.7z"/>
	<circle class="st0" cx="282.3" cy="131.3" r="3.8"/>
	<path class="st0" d="M378.6,137.5c-1,0-1.9,0.8-1.9,1.9s0.8,1.9,1.9,1.9s1.9-0.8,1.9-1.9S379.6,137.5,378.6,137.5z"/>
	<path class="st0" d="M197.3,115.9c-1.2,0-2.2,1-2.2,2.2s1,2.2,2.2,2.2c1.2,0,2.2-1,2.2-2.2S198.5,115.9,197.3,115.9z"/>
	<path class="st0" d="M243,223c1.3,0,2.4-1.1,2.4-2.4c0-1.3-1.1-2.4-2.4-2.4c-1.3,0-2.4,1.1-2.4,2.4C240.6,221.9,241.7,223,243,223z
		"/>
	<path class="st0" d="M458.7,302.7c0-1-0.8-1.9-1.9-1.9c-1,0-1.9,0.8-1.9,1.9c0,1,0.8,1.9,1.9,1.9
		C457.8,304.6,458.7,303.7,458.7,302.7z"/>
	<circle class="st0" cx="100.3" cy="459.5" r="2.3"/>
	<path class="st0" d="M325.4,242.2c0-1.8-1.4-3.2-3.2-3.2c-1.8,0-3.2,1.4-3.2,3.2c0,1.8,1.4,3.2,3.2,3.2
		C324,245.5,325.4,244,325.4,242.2z"/>
	<circle class="st0" cx="408.2" cy="481.9" r="2.5"/>
	<path class="st0" d="M6.3,112.3c0-2.3-1.8-4.1-4.1-4.1c-0.8,0-1.6,0.2-2.2,0.7v6.9c0.6,0.4,1.4,0.7,2.2,0.7
		C4.5,116.4,6.3,114.6,6.3,112.3z"/>
	<circle class="st0" cx="407.9" cy="210.9" r="2.5"/>
	<path class="st0" d="M332,451.5c0-1.3-1.1-2.4-2.4-2.4c-1.3,0-2.4,1.1-2.4,2.4s1.1,2.4,2.4,2.4C330.9,453.9,332,452.8,332,451.5z"
		/>
	<circle class="st0" cx="287.7" cy="153.7" r="3.9"/>
	<path class="st0" d="M491.3,351.5c-1.9,0-3.5,1.6-3.5,3.5c0,1.9,1.6,3.5,3.5,3.5s3.5-1.6,3.5-3.5
		C494.8,353,493.2,351.5,491.3,351.5z"/>
	<path class="st0" d="M390.6,314c1.1,0,1.9-0.9,1.9-1.9c0-1.1-0.9-1.9-1.9-1.9c-1.1,0-1.9,0.9-1.9,1.9
		C388.7,313.1,389.5,314,390.6,314z"/>
	<path class="st0" d="M296.6,489.7c1.1,0,2-0.9,2-2s-0.9-2-2-2s-2,0.9-2,2S295.5,489.7,296.6,489.7z"/>
	<path class="st0" d="M325.6,222c0,1.5,1.2,2.8,2.8,2.8c1.5,0,2.8-1.2,2.8-2.8c0-1.5-1.2-2.8-2.8-2.8
		C326.8,219.2,325.6,220.4,325.6,222z"/>
	<path class="st0" d="M291.1,311.4c0,1,0.8,1.8,1.8,1.8c1,0,1.8-0.8,1.8-1.8s-0.8-1.8-1.8-1.8C292,309.6,291.1,310.4,291.1,311.4z"
		/>
	<path class="st0" d="M27.5,245.3c2.2,0,3.9-1.8,3.9-3.9c0-2.2-1.8-3.9-3.9-3.9s-3.9,1.8-3.9,3.9C23.6,243.5,25.3,245.3,27.5,245.3z
		"/>
	<path class="st0" d="M318.8,334.5c1.3,0,2.4-1.1,2.4-2.4c0-1.3-1.1-2.4-2.4-2.4c-1.3,0-2.4,1.1-2.4,2.4
		C316.4,333.4,317.5,334.5,318.8,334.5z"/>
	<path class="st0" d="M163.8,183.4c0.9,0,1.6-0.7,1.6-1.6s-0.7-1.6-1.6-1.6c-0.9,0-1.6,0.7-1.6,1.6S162.9,183.4,163.8,183.4z"/>
	<path class="st0" d="M379.8,224.2c0-1.5-1.2-2.7-2.7-2.7s-2.7,1.2-2.7,2.7s1.2,2.7,2.7,2.7S379.8,225.7,379.8,224.2z"/>
	<path class="st0" d="M34.5,45.8c1.8,0,3.2-1.4,3.2-3.2c0-1.8-1.4-3.2-3.2-3.2c-1.8,0-3.2,1.4-3.2,3.2
		C31.3,44.4,32.7,45.8,34.5,45.8z"/>
	<path class="st0" d="M32.2,333.5c1.8,0,3.2-1.4,3.2-3.2c0-1.8-1.4-3.2-3.2-3.2c-1.8,0-3.2,1.4-3.2,3.2
		C29,332.1,30.5,333.5,32.2,333.5z"/>
	<path class="st0" d="M302.5,275c0,0.9,0.8,1.7,1.7,1.7c0.9,0,1.7-0.8,1.7-1.7c0-0.9-0.8-1.7-1.7-1.7
		C303.2,273.3,302.5,274.1,302.5,275z"/>
	<path class="st0" d="M9.4,339.7c0,1,0.8,1.8,1.8,1.8c1,0,1.8-0.8,1.8-1.8c0-1-0.8-1.8-1.8-1.8C10.2,337.9,9.4,338.7,9.4,339.7z"/>
	<path class="st0" d="M320.9,131.3c1.5,0,2.8-1.3,2.8-2.8c0-1.5-1.3-2.8-2.8-2.8c-1.5,0-2.8,1.3-2.8,2.8
		C318.1,130.1,319.3,131.3,320.9,131.3z"/>
	<path class="st0" d="M120.8,443.7c1.9,0,3.5-1.6,3.5-3.5c0-1.9-1.6-3.5-3.5-3.5c-1.9,0-3.5,1.6-3.5,3.5
		C117.3,442.1,118.9,443.7,120.8,443.7z"/>
	<circle class="st0" cx="189" cy="53.1" r="1.9"/>
	<path class="st0" d="M488.7,472.7c1.9,0,3.4-1.5,3.4-3.4c0-1.9-1.5-3.4-3.4-3.4c-1.9,0-3.4,1.5-3.4,3.4
		C485.2,471.1,486.8,472.7,488.7,472.7z"/>
	<path class="st0" d="M403.3,285.2c-1.2,0-2.2,1-2.2,2.2s1,2.2,2.2,2.2c1.2,0,2.2-1,2.2-2.2S404.5,285.2,403.3,285.2z"/>
	<path class="st0" d="M214.1,61.9c0-2.2-1.7-3.9-3.9-3.9c-2.2,0-3.9,1.7-3.9,3.9c0,2.2,1.7,3.9,3.9,3.9
		C212.4,65.8,214.1,64.1,214.1,61.9z"/>
	<path class="st0" d="M464.5,178.2c0,0.8,0.7,1.5,1.5,1.5c0.8,0,1.5-0.7,1.5-1.5c0-0.8-0.7-1.5-1.5-1.5
		C465.1,176.7,464.5,177.4,464.5,178.2z"/>
	<path class="st0" d="M227.8,490.7c1.8,0,3.3-1.5,3.3-3.3c0-1.8-1.5-3.3-3.3-3.3s-3.3,1.5-3.3,3.3
		C224.4,489.2,225.9,490.7,227.8,490.7z"/>
	<path class="st0" d="M60.4,404.7c0-0.8-0.7-1.5-1.5-1.5s-1.5,0.7-1.5,1.5s0.7,1.5,1.5,1.5S60.4,405.6,60.4,404.7z"/>
	<circle class="st0" cx="28.7" cy="85.4" r="1.5"/>
	<path class="st0" d="M329.9,76.1c-1.1,0-1.9,0.9-1.9,1.9c0,1.1,0.9,1.9,1.9,1.9c1.1,0,1.9-0.9,1.9-1.9
		C331.8,77,331,76.1,329.9,76.1z"/>
	<path class="st0" d="M382.2,423.2c0-1.1-0.9-1.9-1.9-1.9s-1.9,0.9-1.9,1.9s0.9,1.9,1.9,1.9S382.2,424.3,382.2,423.2z"/>
	<circle class="st0" cx="388.7" cy="201.6" r="1.5"/>
	<path class="st0" d="M107,196.8c0,0.8,0.7,1.5,1.5,1.5c0.8,0,1.5-0.7,1.5-1.5c0-0.8-0.7-1.5-1.5-1.5C107.7,195.3,107,196,107,196.8
		z"/>
	<path class="st0" d="M38.3,456.4c2.1,0,3.8-1.7,3.8-3.8c0-2.1-1.7-3.8-3.8-3.8s-3.8,1.7-3.8,3.8C34.5,454.7,36.2,456.4,38.3,456.4z
		"/>
	<circle class="st0" cx="185.3" cy="223.7" r="4.2"/>
	<path class="st0" d="M361.1,19.6c1,0,1.7-0.8,1.7-1.7c0-1-0.8-1.7-1.7-1.7c-1,0-1.7,0.8-1.7,1.7C359.4,18.8,360.2,19.6,361.1,19.6z
		"/>
	<path class="st0" d="M191.7,495.6c1.7,0,3.1-1.4,3.1-3.1c0-1.7-1.4-3.1-3.1-3.1c-1.7,0-3.1,1.4-3.1,3.1
		C188.7,494.2,190,495.6,191.7,495.6z"/>
	<circle class="st0" cx="400.6" cy="71" r="4.1"/>
	<path class="st0" d="M391.4,159.9c0-1.1-0.9-2.1-2.1-2.1c-1.2,0-2.1,0.9-2.1,2.1c0,1.2,0.9,2.1,2.1,2.1
		C390.5,161.9,391.4,161,391.4,159.9z"/>
	<circle class="st0" cx="355.5" cy="386.1" r="3.1"/>
	<path class="st0" d="M169.3,272.1c1.5,0,2.7-1.2,2.7-2.7s-1.2-2.7-2.7-2.7s-2.7,1.2-2.7,2.7S167.8,272.1,169.3,272.1z"/>
	<circle class="st0" cx="17.2" cy="171.3" r="2.2"/>
	<path class="st0" d="M79.1,26.8c0,0.9,0.7,1.6,1.6,1.6c0.9,0,1.6-0.7,1.6-1.6c0-0.9-0.7-1.6-1.6-1.6C79.8,25.2,79.1,25.9,79.1,26.8
		z"/>
	<path class="st0" d="M363.4,289.4c0-2.3-1.9-4.2-4.2-4.2c-2.3,0-4.2,1.9-4.2,4.2c0,2.3,1.9,4.2,4.2,4.2
		C361.6,293.6,363.4,291.7,363.4,289.4z"/>
	<path class="st0" d="M411.2,121.3c0-0.8-0.7-1.5-1.5-1.5s-1.5,0.7-1.5,1.5c0,0.8,0.7,1.5,1.5,1.5S411.2,122.1,411.2,121.3z"/>
	<path class="st0" d="M443,322.4c1.5,0,2.7-1.2,2.7-2.7c0-1.5-1.2-2.7-2.7-2.7c-1.5,0-2.7,1.2-2.7,2.7
		C440.4,321.2,441.6,322.4,443,322.4z"/>
	<path class="st0" d="M314.9,26.5c0-1.3-1-2.3-2.3-2.3s-2.3,1-2.3,2.3s1,2.3,2.3,2.3S314.9,27.8,314.9,26.5z"/>
	<path class="st0" d="M79.5,244.3c1.7,0,3.1-1.4,3.1-3.1c0-1.7-1.4-3.1-3.1-3.1c-1.7,0-3.1,1.4-3.1,3.1
		C76.4,242.9,77.8,244.3,79.5,244.3z"/>
	<path class="st0" d="M32.4,278.5c0,1.7,1.4,3.1,3.1,3.1c1.7,0,3.1-1.4,3.1-3.1s-1.4-3.1-3.1-3.1C33.7,275.4,32.4,276.8,32.4,278.5z
		"/>
	<circle class="st0" cx="129" cy="491.8" r="3.1"/>
	<path class="st0" d="M158.7,340.3c1,0,1.8-0.8,1.8-1.8c0-1-0.8-1.8-1.8-1.8c-1,0-1.8,0.8-1.8,1.8
		C156.8,339.5,157.7,340.3,158.7,340.3z"/>
	<circle class="st0" cx="266.9" cy="464.1" r="1.6"/>
	<path class="st0" d="M405.5,386c1.7,0,3-1.4,3-3c0-1.7-1.4-3-3-3c-1.7,0-3,1.4-3,3C402.5,384.7,403.8,386,405.5,386z"/>
	<path class="st0" d="M158.3,288.6c0-1.4-1.1-2.5-2.5-2.5s-2.5,1.1-2.5,2.5s1.1,2.5,2.5,2.5S158.3,290,158.3,288.6z"/>
	<path class="st0" d="M117.4,124.4c0-0.8-0.7-1.5-1.5-1.5c-0.8,0-1.5,0.7-1.5,1.5c0,0.8,0.7,1.5,1.5,1.5
		C116.8,125.9,117.4,125.3,117.4,124.4z"/>
	<path class="st0" d="M82.8,112.3c-1.1,0-2.1,0.9-2.1,2.1c0,1.1,0.9,2.1,2.1,2.1c1.1,0,2.1-0.9,2.1-2.1
		C84.8,113.2,83.9,112.3,82.8,112.3z"/>
	<path class="st0" d="M287.6,380.5c-2.2,0-3.9,1.8-3.9,3.9c0,2.2,1.8,3.9,3.9,3.9c2.2,0,3.9-1.8,3.9-3.9
		C291.5,382.2,289.8,380.5,287.6,380.5z"/>
	<path class="st0" d="M251.9,488.9c1.1,0,2-0.9,2-2c0-1.1-0.9-2-2-2c-1.1,0-2,0.9-2,2C249.9,488,250.8,488.9,251.9,488.9z"/>
	<path class="st0" d="M353.1,128.3c0-2.1-1.7-3.8-3.8-3.8c-2.1,0-3.8,1.7-3.8,3.8c0,2.1,1.7,3.8,3.8,3.8
		C351.4,132.1,353.1,130.4,353.1,128.3z"/>
	<path class="st0" d="M0,22.2c0.3,0.1,0.5,0.1,0.8,0.1c1.5,0,2.7-1.2,2.7-2.7c0-1.5-1.2-2.7-2.7-2.7c-0.3,0-0.6,0.1-0.8,0.1V22.2z"
		/>
	<circle class="st0" cx="250.8" cy="173.8" r="3"/>
	<circle class="st0" cx="327.5" cy="480.2" r="3.3"/>
	<path class="st0" d="M303.5,63.8c-1.8,0-3.2,1.4-3.2,3.2c0,1.8,1.4,3.2,3.2,3.2c1.8,0,3.2-1.4,3.2-3.2
		C306.7,65.2,305.3,63.8,303.5,63.8z"/>
	<path class="st0" d="M22.5,415.7c0.8,0,1.5-0.7,1.5-1.5c0-0.8-0.7-1.5-1.5-1.5c-0.8,0-1.5,0.7-1.5,1.5
		C21,415,21.6,415.7,22.5,415.7z"/>
	<path class="st0" d="M371.7,339.1c2,0,3.6-1.6,3.6-3.6c0-2-1.6-3.6-3.6-3.6c-2,0-3.6,1.6-3.6,3.6
		C368.1,337.5,369.7,339.1,371.7,339.1z"/>
	<path class="st0" d="M205.3,321.4c-1.5,0-2.8,1.2-2.8,2.8c0,1.5,1.2,2.8,2.8,2.8s2.8-1.2,2.8-2.8
		C208.1,322.7,206.9,321.4,205.3,321.4z"/>
	<path class="st0" d="M310.4,464c1.5,0,2.8-1.2,2.8-2.8c0-1.5-1.2-2.8-2.8-2.8c-1.5,0-2.8,1.2-2.8,2.8
		C307.6,462.8,308.9,464,310.4,464z"/>
	<path class="st0" d="M482.5,290c0-1-0.8-1.7-1.7-1.7S479,289,479,290c0,1,0.8,1.7,1.7,1.7S482.5,291,482.5,290z"/>
	<circle class="st0" cx="235.3" cy="341.6" r="4.1"/>
	<path class="st0" d="M126.9,55.7c0,1.1,0.9,1.9,1.9,1.9c1.1,0,1.9-0.9,1.9-1.9c0-1.1-0.9-1.9-1.9-1.9
		C127.7,53.8,126.9,54.7,126.9,55.7z"/>
	<path class="st0" d="M133.6,383.8c0.9,0,1.6-0.7,1.6-1.6c0-0.9-0.7-1.6-1.6-1.6c-0.9,0-1.6,0.7-1.6,1.6
		C132,383.1,132.7,383.8,133.6,383.8z"/>
	<circle class="st0" cx="170.8" cy="435.6" r="1.8"/>
	<circle class="st0" cx="304.3" cy="295" r="4.1"/>
	<path class="st0" d="M422.8,269.1c-1.1,0-2,0.9-2,2c0,1.1,0.9,2,2,2c1.1,0,2-0.9,2-2C424.7,270,423.9,269.1,422.8,269.1z"/>
	<path class="st0" d="M7.8,440.3c-2.3,0-4.1,1.9-4.1,4.1c0,2.3,1.9,4.1,4.1,4.1c2.3,0,4.1-1.9,4.1-4.1
		C12,442.2,10.1,440.3,7.8,440.3z"/>
	<path class="st0" d="M153,237.9c0,1.5,1.2,2.8,2.8,2.8c1.5,0,2.8-1.2,2.8-2.8c0-1.5-1.2-2.8-2.8-2.8
		C154.3,235.1,153,236.4,153,237.9z"/>
	<path class="st0" d="M451.7,82.7c-1.4,0-2.5,1.1-2.5,2.5c0,1.4,1.1,2.5,2.5,2.5c1.4,0,2.5-1.1,2.5-2.5
		C454.2,83.8,453,82.7,451.7,82.7z"/>
	<path class="st0" d="M488.2,210.1c0,1.4,1.1,2.5,2.5,2.5s2.5-1.1,2.5-2.5c0-1.4-1.1-2.5-2.5-2.5S488.2,208.7,488.2,210.1z"/>
	<circle class="st0" cx="240.4" cy="106.8" r="2.5"/>
	
		<ellipse transform="matrix(0.9246 -0.3809 0.3809 0.9246 -10.7335 191.0763)" class="st0" cx="477.3" cy="122.7" rx="1.8" ry="1.8"/>
	<path class="st0" d="M456.1,133.4c2.2,0,4-1.8,4-4c0-2.2-1.8-4-4-4c-2.2,0-4,1.8-4,4C452,131.6,453.9,133.4,456.1,133.4z"/>
	<path class="st0" d="M110.9,479.8c1.9,0,3.5-1.6,3.5-3.5c0-1.9-1.6-3.5-3.5-3.5c-1.9,0-3.5,1.6-3.5,3.5
		C107.4,478.3,109,479.8,110.9,479.8z"/>
	<circle class="st0" cx="224.6" cy="17.1" r="4"/>
	<path class="st0" d="M74.3,68.6c-1.7,0-3.1,1.4-3.1,3.1c0,1.7,1.4,3.1,3.1,3.1c1.7,0,3.1-1.4,3.1-3.1C77.3,70,76,68.6,74.3,68.6z"
		/>
	<path class="st0" d="M376.4,192c0-0.9-0.7-1.6-1.6-1.6c-0.9,0-1.6,0.7-1.6,1.6c0,0.9,0.7,1.6,1.6,1.6
		C375.6,193.6,376.4,192.9,376.4,192z"/>
	<path class="st0" d="M217.2,100.8c0-1.3-1-2.3-2.3-2.3c-1.3,0-2.3,1-2.3,2.3c0,1.3,1,2.3,2.3,2.3
		C216.2,103.1,217.2,102.1,217.2,100.8z"/>
	<path class="st0" d="M102.2,307.4c-1.6,0-2.9,1.3-2.9,2.9c0,1.6,1.3,2.9,2.9,2.9c1.6,0,2.9-1.3,2.9-2.9
		C105.1,308.7,103.8,307.4,102.2,307.4z"/>
	<path class="st0" d="M426.2,413.4c0.8,0,1.5-0.7,1.5-1.5c0-0.8-0.7-1.5-1.5-1.5c-0.8,0-1.5,0.7-1.5,1.5
		C424.7,412.7,425.4,413.4,426.2,413.4z"/>
	<path class="st0" d="M331.2,268.9c0,1.8,1.5,3.3,3.3,3.3c1.8,0,3.3-1.5,3.3-3.3c0-1.8-1.5-3.3-3.3-3.3
		C332.7,265.5,331.2,267,331.2,268.9z"/>
	<path class="st0" d="M55.6,80.1c-2,0-3.6,1.6-3.6,3.6s1.6,3.6,3.6,3.6c2,0,3.6-1.6,3.6-3.6S57.6,80.1,55.6,80.1z"/>
	<path class="st0" d="M353.7,259c0,1.9,1.6,3.5,3.5,3.5c1.9,0,3.5-1.6,3.5-3.5c0-1.9-1.6-3.5-3.5-3.5
		C355.3,255.5,353.7,257.1,353.7,259z"/>
	<path class="st0" d="M285.8,410.7c1.9,0,3.4-1.5,3.4-3.4c0-1.9-1.5-3.4-3.4-3.4c-1.9,0-3.4,1.5-3.4,3.4
		C282.4,409.2,283.9,410.7,285.8,410.7z"/>
	<path class="st0" d="M107.1,55.1c-1.4,0-2.5,1.1-2.5,2.5c0,1.4,1.1,2.5,2.5,2.5c1.4,0,2.5-1.1,2.5-2.5
		C109.6,56.3,108.5,55.1,107.1,55.1z"/>
	<path class="st0" d="M241.9,65.7c0.9,0,1.7-0.8,1.7-1.7c0-0.9-0.8-1.7-1.7-1.7c-0.9,0-1.7,0.8-1.7,1.7
		C240.2,64.9,241,65.7,241.9,65.7z"/>
	<circle class="st0" cx="374" cy="489.6" r="2.4"/>
	<path class="st0" d="M384.1,368.6c-2.1,0-3.8,1.7-3.8,3.8c0,2.1,1.7,3.8,3.8,3.8c2.1,0,3.8-1.7,3.8-3.8
		C387.9,370.3,386.2,368.6,384.1,368.6z"/>
	<path class="st0" d="M55.8,450c0,0.9,0.7,1.5,1.5,1.5c0.9,0,1.5-0.7,1.5-1.5c0-0.9-0.7-1.5-1.5-1.5C56.5,448.5,55.8,449.2,55.8,450
		z"/>
	<path class="st0" d="M37.8,380.5c2.2,0,4-1.8,4-4c0-2.2-1.8-4-4-4c-2.2,0-4,1.8-4,4C33.8,378.7,35.6,380.5,37.8,380.5z"/>
	<path class="st0" d="M356.3,313.7c-1.4,0-2.5,1.1-2.5,2.5c0,1.4,1.1,2.5,2.5,2.5c1.4,0,2.5-1.1,2.5-2.5
		C358.8,314.9,357.7,313.7,356.3,313.7z"/>
	<path class="st0" d="M488,104.7c1.3,0,2.4-1.1,2.4-2.4c0-1.3-1.1-2.4-2.4-2.4s-2.4,1.1-2.4,2.4C485.6,103.7,486.6,104.7,488,104.7z
		"/>
	<path class="st0" d="M146.6,122c-1.1,0-1.9,0.9-1.9,1.9s0.9,1.9,1.9,1.9c1.1,0,1.9-0.9,1.9-1.9S147.7,122,146.6,122z"/>
	<circle class="st0" cx="25.5" cy="11.6" r="1.8"/>
	<path class="st0" d="M292.5,463.7c2.2,0,3.9-1.8,3.9-3.9c0-2.2-1.8-3.9-3.9-3.9c-2.2,0-3.9,1.8-3.9,3.9
		C288.6,462,290.4,463.7,292.5,463.7z"/>
	<path class="st0" d="M344.3,411.5c1.2,0,2.1-0.9,2.1-2.1c0-1.2-0.9-2.1-2.1-2.1c-1.2,0-2.1,0.9-2.1,2.1
		C342.2,410.5,343.1,411.5,344.3,411.5z"/>
	<circle class="st0" cx="486.5" cy="142.3" r="4.1"/>
	<path class="st0" d="M294.3,81.7c-1.3,0-2.4,1.1-2.4,2.4c0,1.3,1.1,2.4,2.4,2.4c1.3,0,2.4-1.1,2.4-2.4
		C296.7,82.8,295.7,81.7,294.3,81.7z"/>
	<circle class="st0" cx="259.1" cy="237.6" r="1.9"/>
	<path class="st0" d="M488.7,396.4c-1.6,0-2.9,1.3-2.9,2.9c0,1.6,1.3,2.9,2.9,2.9c1.6,0,2.9-1.3,2.9-2.9
		C491.6,397.7,490.3,396.4,488.7,396.4z"/>
	<path class="st0" d="M306.7,175.3c0-1.3-1.1-2.4-2.4-2.4c-1.3,0-2.4,1.1-2.4,2.4c0,1.3,1.1,2.4,2.4,2.4
		C305.7,177.7,306.7,176.6,306.7,175.3z"/>
	<path class="st0" d="M472.3,220.7c0-0.9-0.7-1.6-1.6-1.6c-0.9,0-1.6,0.7-1.6,1.6c0,0.9,0.7,1.6,1.6,1.6
		C471.6,222.3,472.3,221.6,472.3,220.7z"/>
	<path class="st0" d="M465.7,476.3c2.2,0,4.1-1.8,4.1-4.1s-1.8-4.1-4.1-4.1c-2.2,0-4.1,1.8-4.1,4.1S463.4,476.3,465.7,476.3z"/>
	<path class="st0" d="M454.3,357c0.8,0,1.5-0.7,1.5-1.5c0-0.8-0.7-1.5-1.5-1.5s-1.5,0.7-1.5,1.5C452.7,356.3,453.4,357,454.3,357z"
		/>
	<path class="st0" d="M245.5,314.3c0,1.3,1.1,2.4,2.4,2.4s2.4-1.1,2.4-2.4s-1.1-2.4-2.4-2.4S245.5,313,245.5,314.3z"/>
	<path class="st0" d="M439.7,260.7c1.3,0,2.3-1,2.3-2.3c0-1.3-1-2.3-2.3-2.3c-1.3,0-2.3,1-2.3,2.3
		C437.5,259.7,438.5,260.7,439.7,260.7z"/>
	<path class="st0" d="M431.7,441.1c0.9,0,1.7-0.7,1.7-1.7s-0.7-1.7-1.7-1.7c-0.9,0-1.7,0.7-1.7,1.7S430.8,441.1,431.7,441.1z"/>
	<path class="st0" d="M308.9,384.1c1,0,1.7-0.8,1.7-1.7c0-1-0.8-1.7-1.7-1.7c-1,0-1.7,0.8-1.7,1.7
		C307.2,383.3,308,384.1,308.9,384.1z"/>
	<path class="st0" d="M498.4,167.6c0-1-0.8-1.8-1.8-1.8s-1.8,0.8-1.8,1.8c0,1,0.8,1.8,1.8,1.8S498.4,168.6,498.4,167.6z"/>
	<path class="st0" d="M102,375.8c0-1.1-0.9-2-2-2c-1.1,0-2,0.9-2,2c0,1.1,0.9,2,2,2C101.1,377.8,102,376.9,102,375.8z"/>
	<path class="st0" d="M495.5,243.5c-1,0-1.8,0.8-1.8,1.8c0,1,0.8,1.8,1.8,1.8c1,0,1.8-0.8,1.8-1.8
		C497.3,244.3,496.5,243.5,495.5,243.5z"/>
	<path class="st0" d="M289.8,1c0,1.1,0.9,1.9,1.9,1.9s1.9-0.9,1.9-1.9c0-0.3-0.1-0.7-0.3-1H290C289.9,0.3,289.8,0.6,289.8,1z"/>
	<path class="st0" d="M143.7,184.9c0,1.9,1.5,3.4,3.4,3.4c1.9,0,3.4-1.5,3.4-3.4c0-1.9-1.5-3.4-3.4-3.4
		C145.2,181.5,143.7,183,143.7,184.9z"/>
	<path class="st0" d="M131.3,265.6c-1.6,0-2.8,1.3-2.8,2.8c0,1.6,1.3,2.8,2.8,2.8c1.6,0,2.8-1.3,2.8-2.8
		C134.1,266.9,132.9,265.6,131.3,265.6z"/>
	<path class="st0" d="M170.5,96.9c-1.6,0-2.8,1.3-2.8,2.8s1.3,2.8,2.8,2.8c1.6,0,2.8-1.3,2.8-2.8S172.1,96.9,170.5,96.9z"/>
	<path class="st0" d="M276.2,45.8c-2,0-3.7,1.6-3.7,3.7c0,2,1.6,3.7,3.7,3.7c2,0,3.7-1.6,3.7-3.7C279.9,47.4,278.3,45.8,276.2,45.8z
		"/>
	<path class="st0" d="M488.1,35.7c-1.9,0-3.4,1.5-3.4,3.4s1.5,3.4,3.4,3.4s3.4-1.5,3.4-3.4S490,35.7,488.1,35.7z"/>
	<path class="st0" d="M422,305.8c1,0,1.8-0.8,1.8-1.8c0-1-0.8-1.8-1.8-1.8s-1.8,0.8-1.8,1.8C420.2,305,421,305.8,422,305.8z"/>
	<path class="st0" d="M178.3,458c1,0,1.9-0.8,1.9-1.9c0-1-0.8-1.9-1.9-1.9c-1,0-1.9,0.8-1.9,1.9C176.4,457.1,177.3,458,178.3,458z"
		/>
	<circle class="st0" cx="439.4" cy="218.9" r="3"/>
	<path class="st0" d="M177.2,170.2c2.3,0,4.1-1.8,4.1-4.1c0-2.3-1.8-4.1-4.1-4.1c-2.3,0-4.1,1.8-4.1,4.1
		C173.1,168.3,174.9,170.2,177.2,170.2z"/>
	<path class="st0" d="M38.4,152c-1.6,0-2.9,1.3-2.9,2.9s1.3,2.9,2.9,2.9s2.9-1.3,2.9-2.9S40,152,38.4,152z"/>
	<path class="st0" d="M393.7,114.2c0-1.4-1.1-2.5-2.5-2.5c-1.4,0-2.5,1.1-2.5,2.5c0,1.4,1.1,2.5,2.5,2.5
		C392.6,116.7,393.7,115.6,393.7,114.2z"/>
	<path class="st0" d="M89.4,163.7c1.4,0,2.5-1.1,2.5-2.5c0-1.4-1.1-2.5-2.5-2.5c-1.4,0-2.5,1.1-2.5,2.5
		C86.9,162.5,88,163.7,89.4,163.7z"/>
	<path class="st0" d="M478.2,373.6c0,1.3,1.1,2.4,2.4,2.4c1.3,0,2.4-1.1,2.4-2.4c0-1.3-1.1-2.4-2.4-2.4
		C479.3,371.3,478.2,372.3,478.2,373.6z"/>
	<path class="st0" d="M7.8,260.6c0,1.2,1,2.2,2.2,2.2c1.2,0,2.2-1,2.2-2.2s-1-2.2-2.2-2.2C8.8,258.4,7.8,259.4,7.8,260.6z"/>
	<path class="st0" d="M162,64.4c-1,0-1.9,0.8-1.9,1.9s0.8,1.9,1.9,1.9s1.9-0.8,1.9-1.9S163.1,64.4,162,64.4z"/>
	<path class="st0" d="M37.8,125.4c0-1.2-1-2.2-2.2-2.2c-1.2,0-2.2,1-2.2,2.2s1,2.2,2.2,2.2C36.8,127.6,37.8,126.6,37.8,125.4z"/>
	<path class="st0" d="M325.5,379.8c2.1,0,3.8-1.7,3.8-3.8c0-2.1-1.7-3.8-3.8-3.8c-2.1,0-3.8,1.7-3.8,3.8
		C321.6,378.1,323.4,379.8,325.5,379.8z"/>
	<path class="st0" d="M161.9,216.1c0-1-0.8-1.8-1.8-1.8c-1,0-1.8,0.8-1.8,1.8c0,1,0.8,1.8,1.8,1.8
		C161,217.9,161.9,217.1,161.9,216.1z"/>
	<path class="st0" d="M389.5,284.2c0-1.2-1-2.2-2.2-2.2c-1.2,0-2.2,1-2.2,2.2c0,1.2,1,2.2,2.2,2.2
		C388.5,286.4,389.5,285.4,389.5,284.2z"/>
	<path class="st0" d="M427.3,192.5c0-1.4-1.2-2.6-2.6-2.6c-1.4,0-2.6,1.2-2.6,2.6c0,1.4,1.2,2.6,2.6,2.6
		C426.1,195.1,427.3,194,427.3,192.5z"/>
	<path class="st0" d="M14.5,137.5c1.1,0,1.9-0.9,1.9-1.9c0-1.1-0.9-1.9-1.9-1.9c-1.1,0-1.9,0.9-1.9,1.9
		C12.5,136.6,13.4,137.5,14.5,137.5z"/>
	<path class="st0" d="M65.7,276.5c-0.9,0-1.6,0.7-1.6,1.6c0,0.9,0.7,1.6,1.6,1.6c0.9,0,1.6-0.7,1.6-1.6
		C67.4,277.2,66.7,276.5,65.7,276.5z"/>
	<path class="st0" d="M198.6,163.2c0,1.4,1.2,2.6,2.6,2.6c1.4,0,2.6-1.2,2.6-2.6c0-1.4-1.2-2.6-2.6-2.6
		C199.8,160.6,198.6,161.8,198.6,163.2z"/>
	<path class="st0" d="M137.1,238.7c0-0.9-0.7-1.6-1.6-1.6c-0.9,0-1.6,0.7-1.6,1.6c0,0.9,0.7,1.6,1.6,1.6
		C136.4,240.3,137.1,239.5,137.1,238.7z"/>
	<path class="st0" d="M258.7,358.6c1.1,0,2.1-0.9,2.1-2.1c0-1.1-0.9-2.1-2.1-2.1c-1.1,0-2.1,0.9-2.1,2.1
		C256.7,357.7,257.6,358.6,258.7,358.6z"/>
	<path class="st0" d="M356.6,432.7c0-1.4-1.1-2.4-2.4-2.4c-1.4,0-2.4,1.1-2.4,2.4c0,1.4,1.1,2.4,2.4,2.4
		C355.6,435.1,356.6,434,356.6,432.7z"/>
	<path class="st0" d="M215.7,196.4c0-1.8-1.4-3.2-3.2-3.2c-1.8,0-3.2,1.4-3.2,3.2c0,1.8,1.4,3.2,3.2,3.2
		C214.2,199.6,215.7,198.2,215.7,196.4z"/>
	<circle class="st0" cx="111.5" cy="251.3" r="4"/>
	<path class="st0" d="M50.8,15.9c0-1.1-0.9-2-2-2c-1.1,0-2,0.9-2,2s0.9,2,2,2C49.9,17.9,50.8,17,50.8,15.9z"/>
	<path class="st0" d="M378.5,78.4c-1.1,0-2.1,0.9-2.1,2.1c0,1.1,0.9,2.1,2.1,2.1c1.1,0,2.1-0.9,2.1-2.1
		C380.5,79.3,379.6,78.4,378.5,78.4z"/>
	<path class="st0" d="M423.8,391.2c1.2,0,2.2-1,2.2-2.2c0-1.2-1-2.2-2.2-2.2c-1.2,0-2.2,1-2.2,2.2
		C421.6,390.2,422.6,391.2,423.8,391.2z"/>
	<path class="st0" d="M123.9,87.8c0-1.7-1.4-3.1-3.1-3.1c-1.7,0-3.1,1.4-3.1,3.1c0,1.7,1.4,3.1,3.1,3.1
		C122.5,90.9,123.9,89.5,123.9,87.8z"/>
	<circle class="st0" cx="41.6" cy="302.9" r="2.1"/>
	<circle class="st0" cx="139.1" cy="442.3" r="2.1"/>
	<circle class="st0" cx="70.8" cy="98.7" r="1.9"/>
	<path class="st0" d="M234.7,462.5c2,0,3.6-1.6,3.6-3.6c0-2-1.6-3.6-3.6-3.6c-2,0-3.6,1.6-3.6,3.6
		C231,460.9,232.7,462.5,234.7,462.5z"/>
	<path class="st0" d="M370.7,406.8c0.9,0,1.7-0.8,1.7-1.7c0-0.9-0.8-1.7-1.7-1.7c-0.9,0-1.7,0.8-1.7,1.7
		C369,406,369.7,406.8,370.7,406.8z"/>
	<circle class="st0" cx="70" cy="304.5" r="4.2"/>
	<ellipse transform="matrix(0.9248 -0.3805 0.3805 0.9248 -23.5795 177.8603)" class="st0" cx="438" cy="148.6" rx="2" ry="2"/>
	<circle class="st0" cx="280.9" cy="222.6" r="2"/>
	<circle class="st0" cx="93.1" cy="331.2" r="1.7"/>
	<path class="st0" d="M19,388.5c0-2.1-1.7-3.9-3.9-3.9s-3.9,1.7-3.9,3.9c0,2.1,1.7,3.9,3.9,3.9S19,390.7,19,388.5z"/>
	<circle class="st0" cx="281.7" cy="252.8" r="1.9"/>
	<circle class="st0" cx="269.7" cy="73.7" r="3"/>
	<path class="st0" d="M333.4,145.2c-1.2,0-2.1,1-2.1,2.1c0,1.2,1,2.1,2.1,2.1c1.2,0,2.1-1,2.1-2.1
		C335.5,146.2,334.6,145.2,333.4,145.2z"/>
	<path class="st0" d="M67.3,163.4c0,2.2,1.8,4,4,4c2.2,0,4-1.8,4-4c0-2.2-1.8-4-4-4C69,159.5,67.3,161.2,67.3,163.4z"/>
	<path class="st0" d="M69.6,485.2c1.8,0,3.3-1.5,3.3-3.3c0-1.8-1.5-3.3-3.3-3.3c-1.8,0-3.3,1.5-3.3,3.3
		C66.3,483.8,67.8,485.2,69.6,485.2z"/>
	<path class="st0" d="M86.6,60.5c1.1,0,2-0.9,2-2c0-1.1-0.9-2-2-2s-2,0.9-2,2C84.6,59.6,85.5,60.5,86.6,60.5z"/>
	<circle class="st0" cx="256.7" cy="274.9" r="2"/>
	<path class="st0" d="M240.6,434.2c0-1-0.8-1.9-1.9-1.9c-1,0-1.9,0.8-1.9,1.9c0,1,0.8,1.9,1.9,1.9
		C239.8,436.1,240.6,435.2,240.6,434.2z"/>
	<path class="st0" d="M58.3,224.8c-1,0-1.8,0.8-1.8,1.8c0,1,0.8,1.8,1.8,1.8c1,0,1.8-0.8,1.8-1.8C60.2,225.6,59.3,224.8,58.3,224.8z
		"/>
	<path class="st0" d="M379.1,456.7c1.3,0,2.3-1,2.3-2.3c0-1.3-1-2.3-2.3-2.3c-1.3,0-2.3,1-2.3,2.3
		C376.7,455.7,377.8,456.7,379.1,456.7z"/>
	<path class="st0" d="M83.1,420.3c0.9,0,1.6-0.7,1.6-1.6c0-0.9-0.7-1.6-1.6-1.6c-0.9,0-1.6,0.7-1.6,1.6
		C81.6,419.6,82.3,420.3,83.1,420.3z"/>
	<path class="st0" d="M339.7,251.2c0,0.9,0.7,1.7,1.7,1.7c0.9,0,1.7-0.7,1.7-1.7s-0.7-1.7-1.7-1.7
		C340.5,249.5,339.7,250.3,339.7,251.2z"/>
	<path class="st0" d="M279,179c0-1-0.8-1.8-1.8-1.8c-1,0-1.8,0.8-1.8,1.8c0,1,0.8,1.8,1.8,1.8C278.2,180.8,279,180,279,179z"/>
	<path class="st0" d="M386.1,18.5c-1.7,0-3,1.3-3,3c0,1.7,1.3,3,3,3c1.7,0,3-1.3,3-3C389.1,19.8,387.8,18.5,386.1,18.5z"/>
	<path class="st0" d="M368.7,110.5c0,2,1.6,3.6,3.6,3.6c2,0,3.6-1.6,3.6-3.6c0-2-1.6-3.6-3.6-3.6
		C370.3,106.9,368.7,108.5,368.7,110.5z"/>
	<path class="st0" d="M78.8,5.7c-1,0-1.7,0.8-1.7,1.7s0.8,1.7,1.7,1.7c1,0,1.7-0.8,1.7-1.7S79.8,5.7,78.8,5.7z"/>
	<path class="st0" d="M151.1,466c1.9,0,3.5-1.6,3.5-3.5c0-1.9-1.6-3.5-3.5-3.5c-1.9,0-3.5,1.6-3.5,3.5
		C147.6,464.4,149.2,466,151.1,466z"/>
	<path class="st0" d="M227.2,241.8c0,1.5,1.2,2.7,2.7,2.7c1.5,0,2.7-1.2,2.7-2.7c0-1.5-1.2-2.7-2.7-2.7
		C228.4,239.1,227.2,240.3,227.2,241.8z"/>
	<circle class="st0" cx="490" cy="445.6" r="4"/>
	<path class="st0" d="M264.7,93.4c-1.4,0-2.5,1.1-2.5,2.5c0,1.4,1.1,2.5,2.5,2.5c1.4,0,2.5-1.1,2.5-2.5
		C267.2,94.5,266.1,93.4,264.7,93.4z"/>
	<path class="st0" d="M273.4,331.1c-1.1,0-1.9,0.9-1.9,1.9c0,1.1,0.9,1.9,1.9,1.9c1.1,0,1.9-0.9,1.9-1.9
		C275.3,332,274.4,331.1,273.4,331.1z"/>
	<path class="st0" d="M415.3,92.5c0-2.3-1.9-4.2-4.2-4.2c-2.3,0-4.2,1.9-4.2,4.2c0,2.3,1.9,4.2,4.2,4.2
		C413.4,96.6,415.3,94.8,415.3,92.5z"/>
	<path class="st0" d="M491.8,421.4c0.8,0,1.5-0.7,1.5-1.5c0-0.8-0.7-1.5-1.5-1.5c-0.8,0-1.5,0.7-1.5,1.5
		C490.3,420.7,491,421.4,491.8,421.4z"/>
	<path class="st0" d="M71.3,44c-1.5,0-2.8,1.2-2.8,2.8c0,1.5,1.2,2.8,2.8,2.8c1.5,0,2.8-1.2,2.8-2.8C74.1,45.2,72.9,44,71.3,44z"/>
	<path class="st0" d="M296.3,204.8c-0.8,0-1.5,0.7-1.5,1.5c0,0.8,0.7,1.5,1.5,1.5c0.8,0,1.5-0.7,1.5-1.5
		C297.8,205.5,297.2,204.8,296.3,204.8z"/>
	<path class="st0" d="M32,466.6c1.3,0,2.4-1.1,2.4-2.4c0-1.3-1.1-2.4-2.4-2.4s-2.4,1.1-2.4,2.4C29.6,465.5,30.7,466.6,32,466.6z"/>
	<path class="st0" d="M225,130.3c0-2.3-1.9-4.2-4.2-4.2c-2.3,0-4.2,1.9-4.2,4.2c0,2.3,1.9,4.2,4.2,4.2
		C223.1,134.5,225,132.6,225,130.3z"/>
	<path class="st0" d="M432.7,353.2c0-2.3-1.9-4.2-4.2-4.2s-4.2,1.9-4.2,4.2s1.9,4.2,4.2,4.2S432.7,355.5,432.7,353.2z"/>
	<path class="st0" d="M161.5,485.5c1.1,0,1.9-0.9,1.9-1.9c0-1.1-0.9-1.9-1.9-1.9c-1.1,0-1.9,0.9-1.9,1.9
		C159.6,484.6,160.4,485.5,161.5,485.5z"/>
	<path class="st0" d="M175.7,210.5c1,0,1.7-0.8,1.7-1.7c0-1-0.8-1.7-1.7-1.7c-1,0-1.7,0.8-1.7,1.7
		C173.9,209.7,174.7,210.5,175.7,210.5z"/>
	<path class="st0" d="M180.9,7.7c-1.8,0-3.2,1.4-3.2,3.2c0,1.8,1.4,3.2,3.2,3.2c1.8,0,3.2-1.4,3.2-3.2
		C184.2,9.1,182.7,7.7,180.9,7.7z"/>
	<path class="st0" d="M104.6,410.2c0-2.3-1.8-4.1-4.1-4.1s-4.1,1.8-4.1,4.1c0,2.3,1.8,4.1,4.1,4.1S104.6,412.5,104.6,410.2z"/>
	<path class="st0" d="M275,486.9c1.8,0,3.3-1.5,3.3-3.3c0-1.8-1.5-3.3-3.3-3.3c-1.8,0-3.3,1.5-3.3,3.3
		C271.7,485.4,273.2,486.9,275,486.9z"/>
	<circle class="st0" cx="58.1" cy="328" r="1.9"/>
	<path class="st0" d="M50.5,430.3c1.2,0,2.1-0.9,2.1-2.1c0-1.2-0.9-2.1-2.1-2.1c-1.2,0-2.1,0.9-2.1,2.1
		C48.4,429.4,49.3,430.3,50.5,430.3z"/>
	<path class="st0" d="M259.3,32.6c0-1.1-0.9-1.9-1.9-1.9c-1.1,0-1.9,0.9-1.9,1.9c0,1.1,0.9,1.9,1.9,1.9
		C258.5,34.5,259.3,33.6,259.3,32.6z"/>
	<circle class="st0" cx="34.5" cy="111.6" r="3.4"/>
	<path class="st0" d="M308.3,426.5c1.9,0,3.5-1.6,3.5-3.5c0-1.9-1.6-3.5-3.5-3.5s-3.5,1.6-3.5,3.5
		C304.9,425,306.4,426.5,308.3,426.5z"/>
	<path class="st0" d="M271.8,20.1c0-1-0.8-1.9-1.9-1.9c-1,0-1.9,0.8-1.9,1.9c0,1,0.8,1.9,1.9,1.9C270.9,22,271.8,21.2,271.8,20.1z"
		/>
	<circle class="st0" cx="183.8" cy="345" r="3.9"/>
	<path class="st0" d="M264.3,144.5c0-1.6-1.3-3-3-3c-1.6,0-3,1.3-3,3c0,1.6,1.3,3,3,3C263,147.4,264.3,146.1,264.3,144.5z"/>
	<path class="st0" d="M116,292.7c1.1,0,2-0.9,2-2c0-1.1-0.9-2-2-2s-2,0.9-2,2C114,291.8,114.9,292.7,116,292.7z"/>
	<circle class="st0" cx="389.8" cy="55.5" r="4.1"/>
	<path class="st0" d="M19.3,292c0-2.2-1.8-4-4-4s-4,1.8-4,4c0,2.2,1.8,4,4,4S19.3,294.2,19.3,292z"/>
	<path class="st0" d="M496.9,301.1c0-0.9-0.7-1.7-1.7-1.7c-0.9,0-1.7,0.7-1.7,1.7c0,0.9,0.7,1.7,1.7,1.7
		C496.2,302.8,496.9,302,496.9,301.1z"/>
	<path class="st0" d="M496.5,188.4c0-1.3-1.1-2.4-2.4-2.4c-1.3,0-2.4,1.1-2.4,2.4c0,1.3,1.1,2.4,2.4,2.4
		C495.4,190.8,496.5,189.7,496.5,188.4z"/>
	<path class="st0" d="M25,211c0-2.2-1.7-3.9-3.9-3.9s-3.9,1.7-3.9,3.9s1.7,3.9,3.9,3.9S25,213.2,25,211z"/>
	<path class="st0" d="M75.3,434.4c0-1.4-1.1-2.5-2.5-2.5c-1.4,0-2.5,1.1-2.5,2.5c0,1.4,1.1,2.5,2.5,2.5
		C74.1,436.9,75.3,435.8,75.3,434.4z"/>
	<path class="st0" d="M397.2,248c0-2.2-1.8-3.9-3.9-3.9s-3.9,1.8-3.9,3.9c0,2.2,1.8,3.9,3.9,3.9S397.2,250.2,397.2,248z"/>
	<path class="st0" d="M437.8,116c1.2,0,2.2-1,2.2-2.2c0-1.2-1-2.2-2.2-2.2c-1.2,0-2.2,1-2.2,2.2C435.7,115,436.6,116,437.8,116z"/>
	<path class="st0" d="M160.9,394.2c-1.4,0-2.6,1.1-2.6,2.6c0,1.4,1.1,2.6,2.6,2.6c1.4,0,2.6-1.1,2.6-2.6
		C163.4,395.3,162.3,394.2,160.9,394.2z"/>
	<path class="st0" d="M135.9,18.7c0-1.9-1.6-3.5-3.5-3.5c-1.9,0-3.5,1.6-3.5,3.5c0,1.9,1.6,3.5,3.5,3.5
		C134.3,22.2,135.9,20.7,135.9,18.7z"/>
	<path class="st0" d="M340.5,346.2c2,0,3.6-1.6,3.6-3.6c0-2-1.6-3.6-3.6-3.6c-2,0-3.6,1.6-3.6,3.6
		C336.9,344.5,338.5,346.2,340.5,346.2z"/>
	<circle class="st0" cx="138.8" cy="329" r="3.5"/>
	<circle class="st0" cx="479.9" cy="260" r="3.6"/>
	<circle class="st0" cx="217.7" cy="274.6" r="1.9"/>
	<circle class="st0" cx="203" cy="138.2" r="3.7"/>
	<path class="st0" d="M348.4,358.3c0-1-0.8-1.9-1.9-1.9c-1,0-1.9,0.8-1.9,1.9c0,1,0.8,1.9,1.9,1.9
		C347.6,360.2,348.4,359.3,348.4,358.3z"/>
	<path class="st0" d="M232.8,192.8c-1.7,0-3.1,1.4-3.1,3.1c0,1.7,1.4,3.1,3.1,3.1c1.7,0,3.1-1.4,3.1-3.1
		C235.9,194.2,234.5,192.8,232.8,192.8z"/>
	<path class="st0" d="M401.2,185.7c1.9,0,3.5-1.5,3.5-3.5c0-1.9-1.5-3.5-3.5-3.5c-1.9,0-3.5,1.5-3.5,3.5
		C397.7,184.2,399.3,185.7,401.2,185.7z"/>
	<path class="st0" d="M195.8,26.9c-2,0-3.7,1.6-3.7,3.7s1.6,3.7,3.7,3.7c2,0,3.7-1.6,3.7-3.7S197.8,26.9,195.8,26.9z"/>
	<path class="st0" d="M109.9,223.6c0-1.1-0.9-2-2-2c-1.1,0-2,0.9-2,2s0.9,2,2,2C109,225.6,109.9,224.7,109.9,223.6z"/>
	<path class="st0" d="M470.1,410.4c0-1.4-1.1-2.5-2.5-2.5c-1.4,0-2.5,1.1-2.5,2.5c0,1.4,1.1,2.5,2.5,2.5
		C469,412.9,470.1,411.8,470.1,410.4z"/>
	<path class="st0" d="M476.7,238.9c0.8,0,1.5-0.7,1.5-1.5c0-0.8-0.7-1.5-1.5-1.5c-0.8,0-1.5,0.7-1.5,1.5
		C475.3,238.2,475.9,238.9,476.7,238.9z"/>
	<path class="st0" d="M352.6,476.6c1,0,1.8-0.8,1.8-1.8s-0.8-1.8-1.8-1.8c-1,0-1.8,0.8-1.8,1.8S351.6,476.6,352.6,476.6z"/>
	<path class="st0" d="M160.6,44.2c0-0.9-0.7-1.6-1.6-1.6c-0.9,0-1.6,0.7-1.6,1.6c0,0.9,0.7,1.6,1.6,1.6
		C159.9,45.8,160.6,45.1,160.6,44.2z"/>
	<path class="st0" d="M118.7,149.1c0,0.9,0.7,1.7,1.7,1.7c0.9,0,1.7-0.7,1.7-1.7c0-0.9-0.7-1.7-1.7-1.7
		C119.5,147.4,118.7,148.2,118.7,149.1z"/>
	<path class="st0" d="M54.7,262.1c1.2,0,2.1-1,2.1-2.1c0-1.2-1-2.1-2.1-2.1c-1.2,0-2.1,1-2.1,2.1C52.6,261.1,53.5,262.1,54.7,262.1z
		"/>
	<path class="st0" d="M438.4,63c0-2.3-1.9-4.2-4.2-4.2S430,60.7,430,63c0,2.3,1.9,4.2,4.2,4.2S438.4,65.3,438.4,63z"/>
	<circle class="st0" cx="341.9" cy="190.5" r="2.3"/>
	<path class="st0" d="M460.5,399.8c1.9,0,3.5-1.6,3.5-3.5s-1.6-3.5-3.5-3.5s-3.5,1.6-3.5,3.5S458.6,399.8,460.5,399.8z"/>
	<path class="st0" d="M398,499c0-1.9-1.6-3.5-3.5-3.5s-3.5,1.6-3.5,3.5c0,0.3,0.1,0.6,0.1,1h6.7C397.9,499.7,398,499.4,398,499z"/>
	<path class="st0" d="M421.7,321.6c0,1,0.8,1.7,1.7,1.7c1,0,1.7-0.8,1.7-1.7c0-1-0.8-1.7-1.7-1.7
		C422.5,319.9,421.7,320.7,421.7,321.6z"/>
	<path class="st0" d="M76.9,184c0-2.3-1.9-4.2-4.2-4.2c-2.3,0-4.2,1.9-4.2,4.2c0,2.3,1.9,4.2,4.2,4.2C75,188.2,76.9,186.3,76.9,184z
		"/>
	<path class="st0" d="M180.4,146.5c-1,0-1.8,0.8-1.8,1.8s0.8,1.8,1.8,1.8s1.8-0.8,1.8-1.8S181.5,146.5,180.4,146.5z"/>
	<path class="st0" d="M346.6,101.3c0-1.8-1.5-3.3-3.3-3.3c-1.8,0-3.3,1.5-3.3,3.3c0,1.8,1.5,3.3,3.3,3.3
		C345.1,104.6,346.6,103.1,346.6,101.3z"/>
	<path class="st0" d="M96.7,281.2c0-0.9-0.7-1.7-1.7-1.7s-1.7,0.7-1.7,1.7c0,0.9,0.7,1.7,1.7,1.7S96.7,282.1,96.7,281.2z"/>
	<path class="st0" d="M145.5,161c0,1.7,1.4,3,3,3c1.7,0,3-1.4,3-3c0-1.7-1.4-3-3-3C146.8,158,145.5,159.3,145.5,161z"/>
	<path class="st0" d="M404,157.2c0,1.6,1.3,2.9,2.9,2.9c1.6,0,2.9-1.3,2.9-2.9c0-1.6-1.3-2.9-2.9-2.9
		C405.3,154.3,404,155.6,404,157.2z"/>
	<path class="st0" d="M371.7,249.6c-1.1,0-2,0.9-2,2c0,1.1,0.9,2,2,2c1.1,0,2-0.9,2-2C373.7,250.5,372.8,249.6,371.7,249.6z"/>
	<path class="st0" d="M460.3,67.2c0,1.1,0.9,2.1,2.1,2.1c1.1,0,2.1-0.9,2.1-2.1c0-1.1-0.9-2.1-2.1-2.1
		C461.2,65.1,460.3,66.1,460.3,67.2z"/>
	<path class="st0" d="M269.6,423.7c0-1.4-1.1-2.5-2.5-2.5c-1.4,0-2.5,1.1-2.5,2.5c0,1.4,1.1,2.5,2.5,2.5
		C268.4,426.2,269.6,425.1,269.6,423.7z"/>
	<path class="st0" d="M467.4,155.2c-0.9,0-1.7,0.8-1.7,1.7c0,0.9,0.8,1.7,1.7,1.7c0.9,0,1.7-0.8,1.7-1.7
		C469.1,156,468.3,155.2,467.4,155.2z"/>
	<path class="st0" d="M17.2,363.9c-1.4,0-2.6,1.2-2.6,2.6c0,1.4,1.2,2.6,2.6,2.6s2.6-1.2,2.6-2.6C19.8,365,18.6,363.9,17.2,363.9z"
		/>
	<circle class="st0" cx="487.1" cy="62.3" r="2.2"/>
	<path class="st0" d="M394.5,2.5c1.6,0,2.9-1.1,3.3-2.5h-6.7C391.6,1.5,392.9,2.5,394.5,2.5z"/>
</g>
</svg>
