<?xml version="1.0" encoding="UTF-8"?>
<svg id="Ebene_2" data-name="Ebene 2" xmlns="http://www.w3.org/2000/svg" viewBox="0 0 80 80">
  <defs>
    <style>
      .cls-1, .cls-2 {
        fill: #fff;
      }

      .cls-2, .cls-3 {
        stroke: #fff;
        stroke-linecap: round;
        stroke-linejoin: round;
        stroke-width: 1.01px;
      }

      .cls-4, .cls-3 {
        fill: #3e3940;
      }
    </style>
  </defs>
  <g id="Layer_4" data-name="Layer 4">
    <g id="Layer_2" data-name="Layer 2">
      <circle class="cls-4" cx="40" cy="40" r="40"/>
      <g>
        <path class="cls-1" d="M64.7,54.77c-2.51,0-4.55-1.78-4.55-3.98,0-1.38-1.29-2.5-2.87-2.5h-.76v-1.33h.76c2.42,0,4.38,1.72,4.38,3.83,0,1.46,1.36,2.65,3.04,2.65s3.04-1.19,3.04-2.65v-9.5c0-5.4-5.03-9.79-11.21-9.79v-1.33c7.02,0,12.73,4.99,12.73,11.12v9.5c0,2.19-2.04,3.98-4.55,3.98Z"/>
        <path class="cls-1" d="M57.53,62.35H22.29c-1.68,0-3.04,1.19-3.04,2.65H60.57c0-1.46-1.36-2.65-3.04-2.65Z"/>
        <g>
          <rect class="cls-2" x="21.86" y="15" width="36.1" height="47.35"/>
          <rect class="cls-3" x="26.71" y="19.68" width="26.81" height="15.25"/>
        </g>
      </g>
    </g>
  </g>
</svg>