<?xml version="1.0" encoding="UTF-8"?>
<svg id="Ebene_2" data-name="Ebene 2" xmlns="http://www.w3.org/2000/svg" viewBox="0 0 80 80">
  <defs>
    <style>
      .cls-1, .cls-2 {
        fill: #fff;
      }

      .cls-3 {
        fill: #083b13;
      }

      .cls-2 {
        fill-rule: evenodd;
        stroke: #083b13;
        stroke-miterlimit: 10;
      }
    </style>
  </defs>
  <g id="Layer_4" data-name="Layer 4">
    <g id="Layer_2" data-name="Layer 2">
      <circle class="cls-3" cx="40" cy="40" r="40"/>
    </g>
    <g>
      <ellipse class="cls-1" cx="48.36" cy="37.85" rx="11.06" ry="18.85" transform="translate(-11.05 53.43) rotate(-52.74)"/>
      <ellipse class="cls-1" cx="32.18" cy="45.95" rx="11.85" ry="20.25" transform="translate(-15.01 15.62) rotate(-22.26)"/>
      <path class="cls-2" d="M62.09,52.69c-4.48,.12-9.1-.7-13.49-2.23,0,.12-.01,.24-.02,.36-.05,.88-.15,1.75-.29,2.61,4.37,.75,9.08,.57,13.79-.74h0ZM23.6,24.79c-.11-1.96-1.46-3.79-4.31-5.46-.53-.31,.57-2.13,1.16-2.33h0c.59-.2,1.06,.19,1.46,.64,1.99,2.2,3.23,4.45,3.84,6.75v.03c20.35,3.5,28.78,26.2,15,42.52-21.98-4.21-31.02-27.17-17.15-42.15h0Zm11.09,16.75c-1.66,.57-2.53,2.31-1.92,3.88-.61-1.56-2.46-2.38-4.12-1.81l-3.95,1.35c-1.66,.57-2.53,2.31-1.92,3.88h0c.61,1.56,2.46,2.38,4.13,1.81l3.95-1.35c1.66-.57,2.53-2.31,1.92-3.88,.61,1.56,2.46,2.38,4.12,1.81l3.95-1.35c1.66-.57,2.53-2.31,1.92-3.88h0c-.61-1.56-2.46-2.38-4.12-1.81l-3.95,1.35h0Zm4.02,11.5l3.44-1.18c1.45-.5,2.2-2.02,1.67-3.38h0c-.53-1.36-2.14-2.07-3.59-1.57l-3.44,1.18c-1.45,.5-2.2,2.02-1.67,3.38-.53-1.36-2.14-2.07-3.59-1.57l-3.44,1.18c-1.45,.5-2.2,2.02-1.67,3.38h0c.53,1.36,2.15,2.07,3.59,1.57l3.44-1.18c1.45-.5,2.2-2.02,1.67-3.38,.53,1.36,2.15,2.07,3.59,1.57h0Zm-6.54-16.87c-1.45,.5-2.2,2.02-1.67,3.38-.53-1.36-2.14-2.07-3.59-1.57l-3.44,1.18c-1.45,.5-2.2,2.02-1.67,3.38h0c.53,1.36,2.14,2.07,3.59,1.57l3.44-1.18c1.45-.5,2.2-2.02,1.67-3.38,.53,1.36,2.15,2.07,3.59,1.57l3.44-1.18c1.45-.5,2.2-2.02,1.67-3.38h0c-.53-1.36-2.15-2.07-3.59-1.57l-3.44,1.18h0Zm8,21.77l1.04-.36c1.23-.42,1.88-1.72,1.43-2.88h0c-.45-1.16-1.83-1.76-3.06-1.34l-1.04,.36c-1.23,.42-1.88,1.72-1.43,2.88-.45-1.16-1.83-1.76-3.06-1.34l-1.04,.36c-1.23,.42-1.88,1.72-1.43,2.88h0c.45,1.16,1.83,1.76,3.06,1.34l1.04-.36c1.23-.42,1.88-1.72,1.43-2.88,.45,1.16,1.83,1.76,3.06,1.34h0Zm-.21,.69c-.93,.32-1.42,1.3-1.08,2.18-.34-.88-1.38-1.33-2.32-1.01l-.19,.06c-.93,.32-1.42,1.3-1.08,2.18h0c.34,.88,1.38,1.33,2.32,1.02l.19-.06c.93-.32,1.42-1.3,1.08-2.18,.34,.88,1.38,1.34,2.32,1.02l.19-.06c.93-.32,1.42-1.3,1.08-2.18h0c-.34-.88-1.38-1.33-2.32-1.01l-.19,.06h0Zm-12.37-30.53c-.77,.26-1.17,1.08-.89,1.8-.28-.73-1.14-1.1-1.92-.84h0c-.77,.26-1.17,1.08-.89,1.8l.21,.55c.28,.73,1.14,1.1,1.92,.84h0c.77-.26,1.17-1.08,.89-1.8,.28,.73,1.14,1.1,1.92,.84h0c.77-.27,1.17-1.08,.89-1.8l-.21-.55c-.28-.73-1.14-1.1-1.92-.84h0Zm2.34,3.44c-1.23,.42-1.88,1.72-1.43,2.88-.45-1.16-1.83-1.76-3.06-1.34l-1.04,.36c-1.23,.42-1.88,1.72-1.43,2.88h0c.45,1.16,1.83,1.76,3.06,1.34l1.04-.36c1.23-.42,1.88-1.72,1.43-2.88,.45,1.16,1.83,1.76,3.06,1.34l1.04-.36c1.23-.42,1.88-1.72,1.43-2.88h0c-.45-1.16-1.83-1.76-3.06-1.34l-1.04,.36h0Zm1.3-7.37c13.7-.69,29.73,9.07,35.45,21.81-2.5-16.68-19.45-26.97-35.45-21.81h0Zm13.79,11.94c-.24-.41-.49-.81-.76-1.2-3.11-4.64-7.55-8.04-12.75-10.01,13.2,.86,29.4,11.11,35.38,22.91,.08,.93,.11,1.87,.1,2.83-5.37-4.14-13.77-9.63-21.97-14.52h0Zm3.6,12.57c-.07-2.82-.59-5.62-1.56-8.28,7.08,4.22,14.32,8.18,19.66,10.64-.93,.41-1.85,.77-2.78,1.09-4.95-.08-10.26-1.35-15.32-3.45Z"/>
    </g>
  </g>
</svg>