<?xml version="1.0" encoding="UTF-8"?>
<svg id="Ebene_2" data-name="Ebene 2" xmlns="http://www.w3.org/2000/svg" viewBox="0 0 80 80">
  <defs>
    <style>
      .cls-1 {
        fill: #fff;
        stroke: #e31029;
        stroke-linecap: round;
        stroke-linejoin: round;
      }

      .cls-2 {
        fill: #e31029;
      }
    </style>
  </defs>
  <g id="Layer_4" data-name="Layer 4">
    <g id="Layer_2" data-name="Layer 2">
      <circle class="cls-2" cx="40" cy="40" r="40"/>
    </g>
    <g>
      <g>
        <polygon class="cls-1" points="40.74 40.94 28.24 35.35 28.24 18.73 40.74 24.32 40.74 40.94"/>
        <polygon class="cls-1" points="40.74 40.94 53.24 35.35 53.24 18.73 40.74 24.32 40.74 40.94"/>
        <polygon class="cls-1" points="28.24 18.73 40.74 24.32 53.24 18.73 40.74 13.22 28.24 18.73"/>
      </g>
      <g>
        <polygon class="cls-1" points="28.24 63.22 15.74 57.63 15.74 41.02 28.24 46.6 28.24 63.22"/>
        <polygon class="cls-1" points="28.24 63.22 40.74 57.63 40.74 41.02 28.24 46.6 28.24 63.22"/>
        <polygon class="cls-1" points="15.74 41.02 28.24 46.6 40.74 41.02 28.24 35.5 15.74 41.02"/>
      </g>
      <g>
        <polygon class="cls-1" points="53.24 63.22 40.74 57.63 40.74 41.02 53.24 46.6 53.24 63.22"/>
        <polygon class="cls-1" points="53.24 63.22 65.74 57.63 65.74 41.02 53.24 46.6 53.24 63.22"/>
        <polygon class="cls-1" points="40.74 41.02 53.24 46.6 65.74 41.02 53.24 35.5 40.74 41.02"/>
      </g>
    </g>
  </g>
</svg>