<svg width="67" height="45" viewBox="0 0 67 45" fill="none" xmlns="http://www.w3.org/2000/svg">
<path d="M63.1753 1.02881H33.3777V44.2143H63.1753C63.9508 44.2144 64.695 43.9077 65.2453 43.3613C65.7957 42.8149 66.1076 42.0731 66.1132 41.2976V3.92464C66.1021 3.15279 65.7878 2.41628 65.238 1.87438C64.6883 1.33248 63.9473 1.02873 63.1753 1.02881Z" fill="#6EE327"/>
<path d="M3.45407 1.02881C2.67492 1.02881 1.92773 1.33835 1.37678 1.8893C0.82584 2.44024 0.516357 3.18744 0.516357 3.96659V41.2976C0.521897 42.0731 0.833867 42.8149 1.38421 43.3613C1.93455 43.9077 2.67854 44.2144 3.45407 44.2143H33.2727V1.02881H3.45407Z" fill="#6EE327"/>
<path d="M4.46118 0.0419454L4.52407 18.4871L9.09862 15.1926L13.6732 18.4661L13.6103 0L4.46118 0.0419454Z" fill="white"/>
<path d="M34.5941 0.986816H33.1882V44.1723H34.5941V0.986816Z" fill="#6EE327"/>
<path d="M33.1883 0.986816H31.9292V44.1723H33.1883V0.986816Z" fill="white"/>
<path d="M50.9409 13.1573H41.0154V14.899H50.9409V13.1573Z" fill="white"/>
<path d="M59.0828 18.6133H41.0154V20.355H59.0828V18.6133Z" fill="white"/>
<path d="M59.0828 24.0909H41.0154V25.8327H59.0828V24.0909Z" fill="white"/>
<path d="M59.0828 29.5675H41.0154V31.3092H59.0828V29.5675Z" fill="white"/>
</svg>
