<?xml version="1.0" encoding="UTF-8"?><svg xmlns="http://www.w3.org/2000/svg" viewBox="0 0 51 51"><defs><style>.d{fill:#27e34f;stroke:#3e3940;stroke-linecap:round;stroke-linejoin:round;stroke-width:1px;}.e{fill:#3e3940;}</style></defs><g id="a"/><g id="b"><g id="c"><g><ellipse class="e" cx="25.75" cy="37.03" rx="10.29" ry="10.19"/><path class="d" d="M25.5,.5c-4.97,0-9.41,2.12-12.36,5.44-2.3,2.59-3.68,5.92-3.68,9.53v7.78H.5v27.24H50.5V23.26h-8.96v-7.78C41.54,7.22,34.34,.5,25.5,.5Zm3.44,42.85h-6.88l1.83-6.69c-1.31-.57-2.23-1.81-2.23-3.25,0-1.98,1.72-3.59,3.84-3.59s3.85,1.6,3.85,3.59c0,1.44-.92,2.68-2.23,3.25l1.83,6.69Zm7.6-20.09H14.46v-7.78c0-2.33,.84-4.48,2.25-6.21,2.02-2.49,5.21-4.1,8.8-4.1,6.09,0,11.04,4.63,11.04,10.31v7.78Z"/></g></g></g></svg>