<?xml version="1.0" encoding="UTF-8"?><svg xmlns="http://www.w3.org/2000/svg" viewBox="0 0 51 51"><defs><style>.d{fill:#3e3940;}.e{fill:#27e34f;stroke:#3e3940;stroke-linecap:round;stroke-linejoin:round;}</style></defs><g id="a"/><g id="b"><g id="c"><g><ellipse class="d" cx="25.5" cy="36.72" rx="10.29" ry="10.19"/><path class="e" d="M42.14,23.51l.49-1.1c3.59-8.1-.62-17.4-9.38-20.71C28.33-.18,23,.23,18.65,2.39c-3.4,1.68-6.21,4.42-7.79,7.97l-3.04,6.88,4.94,1.87,3.04-6.87c1.01-2.29,2.78-4.08,4.93-5.25,3.08-1.68,6.94-2.07,10.49-.72,6.03,2.28,8.92,8.69,6.46,14.26l-1.32,2.98H.5v26.99H50.5V23.51h-8.36Zm-13.2,19.91h-6.88l1.83-6.62c-1.31-.57-2.23-1.79-2.23-3.22,0-1.97,1.72-3.55,3.84-3.55s3.85,1.59,3.85,3.55c0,1.43-.92,2.65-2.23,3.22l1.83,6.62Z"/></g></g></g></svg>