<?xml version="1.0" encoding="UTF-8"?><svg xmlns="http://www.w3.org/2000/svg" viewBox="0 0 51 51"><defs><style>.f{fill:#27e34f;stroke:#3e3940;stroke-linecap:round;stroke-linejoin:round;}</style></defs><g id="a"/><g id="b"><g id="c"><g><path class="f" d="M25.56,50.5l.56-4.47c0-4.27,3.54-7.74,7.91-7.74h8.01c4.37,0,7.91,3.47,7.91,7.74l.56,4.47c-4.01-.04-8.05-.07-12.13-.07-4.31,0-8.58,.02-12.81,.07Z"/><path class="f" d="M.5,50.5l.56-4.61c0-4.41,3.54-7.99,7.91-7.99h8.01c4.37,0,7.91,3.58,7.91,7.99l.56,4.61c-4.01-.05-8.05-.07-12.13-.07-4.31,0-8.58,.02-12.81,.07Z"/><ellipse class="f" cx="38.03" cy="24.89" rx="8.5" ry="8.79"/><ellipse class="f" cx="12.97" cy="24.89" rx="8.5" ry="8.79"/><g id="d"><g id="e"><path class="f" d="M31.79,9.11c.21-.58,.34-1.23,.36-1.92,0-.06,0-.12,0-.18h0c-.05-.87-.25-1.98-.88-3.11-.55-.99-1.24-1.54-1.54-1.8-2.12-1.74-4.76-1.64-5.59-1.58-.29,0-4.77-.07-6.77,3.37-.66,1.14-.84,2.29-.88,3.11h0c0,2.43,1.34,4.39,2.99,4.39h6.65v4.25c0,.86,.6,.94,.99,.34,.38-.57,3.18-4.46,4.11-5.82,.03-.04,.06-.09,.09-.14,0-.01,.01-.02,.02-.03,0,0,.01-.02,.02-.02,0,0,.01-.01,.01-.02,.16-.25,.3-.54,.41-.84h0Z"/></g></g></g></g></g></svg>