<svg width="42" height="42" viewBox="0 0 42 42" fill="none" xmlns="http://www.w3.org/2000/svg">
<g filter="url(#filter0_d_379_3647)">
<rect x="1" width="40" height="40" rx="20" fill="url(#paint0_linear_379_3647)"/>
<path fill-rule="evenodd" clip-rule="evenodd" d="M9.00327 27.9548C11.5994 31.8513 16.0331 34.4186 21.0665 34.4186C29.0663 34.4186 35.5515 27.9334 35.5515 19.9335C35.5515 17.3831 34.8924 14.9867 33.7352 12.9052L32.9382 13.7217C33.4029 14.6054 33.7692 15.54 34.0288 16.5089C34.4872 18.2199 34.6042 20.0044 34.373 21.7606C34.1418 23.5167 33.567 25.2102 32.6813 26.7442L30.1811 25.3007C30.8772 24.095 31.329 22.764 31.5107 21.3837C31.6924 20.0035 31.6005 18.6009 31.2402 17.2561C31.1185 16.8019 30.9669 16.3573 30.787 15.9251L27.3754 19.4185L27.3716 19.4224C24.8829 21.9707 22.3942 24.519 19.9065 27.0682C18.8416 25.8833 17.775 24.7002 16.7078 23.5164L16.7054 23.5138L16.7031 23.5113C16.1986 22.9516 15.6939 22.3917 15.1892 21.8315C13.6018 23.4034 12.0144 24.9746 10.427 26.5457C11.5557 28.3689 13.145 29.882 15.0531 30.921C17.6991 32.3619 20.7783 32.7931 23.7184 32.1345C26.6585 31.4758 29.2594 29.7721 31.0379 27.3401L31.888 27.9617C29.9589 30.5997 27.1377 32.4477 23.9486 33.1621C20.7596 33.8765 17.4196 33.4088 14.5494 31.8459C12.5514 30.7579 10.8757 29.1907 9.66054 27.3043C9.53733 27.4262 9.41413 27.5482 9.29092 27.6701L9.00327 27.9548ZM7.93891 23.3681L7.19192 24.1077C6.79481 22.786 6.58142 21.3847 6.58142 19.9335C6.58142 11.9337 13.0666 5.44849 21.0665 5.44849C25.0815 5.44849 28.7151 7.08207 31.3387 9.72086L30.5765 10.5012C29.7352 9.65301 28.7832 8.91855 27.7442 8.31871C26.2102 7.43305 24.5168 6.85821 22.7606 6.627C21.0044 6.3958 19.2199 6.51276 17.509 6.97122C15.798 7.42967 14.1941 8.22063 12.7888 9.29894C11.3835 10.3773 10.2044 11.7218 9.31875 13.2558L11.819 14.6993C12.5151 13.4936 13.4418 12.4369 14.5463 11.5893C15.6508 10.7418 16.9114 10.1202 18.2562 9.75984C19.6009 9.39951 21.0035 9.30759 22.3838 9.4893C23.7641 9.67102 25.095 10.1228 26.3007 10.8189C27.1306 11.2981 27.89 11.8865 28.5591 12.567L26.0274 15.1597L26.0032 15.1845C23.9709 17.2658 21.9387 19.3471 19.9065 21.4275C19.4004 20.8658 18.8944 20.3044 18.3884 19.7432C17.321 18.5592 16.2542 17.3759 15.1892 16.1907C13.2258 18.133 11.2643 20.0753 9.30336 22.017L8.81814 22.4975C8.34456 20.1876 8.53512 17.7767 9.38796 15.5508L8.40455 15.174C7.39802 17.801 7.24196 20.6656 7.93891 23.3681Z" fill="url(#paint1_linear_379_3647)"/>
<rect x="1.5" y="0.5" width="39" height="39" rx="19.5" stroke="#242923"/>
</g>
<defs>
<filter id="filter0_d_379_3647" x="0.468439" y="0" width="41.0631" height="41.0631" filterUnits="userSpaceOnUse" color-interpolation-filters="sRGB">
<feFlood flood-opacity="0" result="BackgroundImageFix"/>
<feColorMatrix in="SourceAlpha" type="matrix" values="0 0 0 0 0 0 0 0 0 0 0 0 0 0 0 0 0 0 127 0" result="hardAlpha"/>
<feOffset dy="0.531561"/>
<feGaussianBlur stdDeviation="0.265781"/>
<feComposite in2="hardAlpha" operator="out"/>
<feColorMatrix type="matrix" values="0 0 0 0 0 0 0 0 0 0 0 0 0 0 0 0 0 0 0.25 0"/>
<feBlend mode="normal" in2="BackgroundImageFix" result="effect1_dropShadow_379_3647"/>
<feBlend mode="normal" in="SourceGraphic" in2="effect1_dropShadow_379_3647" result="shape"/>
</filter>
<linearGradient id="paint0_linear_379_3647" x1="10.8551" y1="-6.69613e-06" x2="37.814" y2="2.84062" gradientUnits="userSpaceOnUse">
<stop stop-color="#6EE327"/>
<stop offset="1" stop-color="#8EFF49"/>
</linearGradient>
<linearGradient id="paint1_linear_379_3647" x1="13.0367" y1="5.44849" x2="32.6933" y2="7.50032" gradientUnits="userSpaceOnUse">
<stop stop-color="#252923"/>
<stop offset="1" stop-color="#5B5B5B"/>
</linearGradient>
</defs>
</svg>
