<svg width="42" height="42" viewBox="0 0 42 42" fill="none" xmlns="http://www.w3.org/2000/svg">
<g filter="url(#filter0_d_379_3671)">
<rect x="1" width="40" height="40" rx="20" fill="url(#paint0_linear_379_3671)"/>
<path fill-rule="evenodd" clip-rule="evenodd" d="M9.00324 27.9548C11.5994 31.8513 16.0331 34.4186 21.0664 34.4186C29.0663 34.4186 35.5515 27.9334 35.5515 19.9335C35.5515 17.3831 34.8924 14.9867 33.7351 12.9052L32.9382 13.7217C33.4029 14.6054 33.7691 15.54 34.0288 16.5089C34.4872 18.2199 34.6042 20.0044 34.373 21.7606C34.1418 23.5167 33.5669 25.2102 32.6813 26.7442L30.1811 25.3007C30.8772 24.095 31.329 22.764 31.5107 21.3837C31.6924 20.0035 31.6005 18.6009 31.2401 17.2561C31.1184 16.8019 30.9669 16.3573 30.7869 15.9251L27.3763 19.4175L27.3727 19.4213L27.3581 19.4362C24.8739 21.9799 22.3897 24.5236 19.9064 27.0682C18.8415 25.8832 17.7747 24.7 16.7074 23.5161L16.7011 23.5091C16.1972 22.9501 15.6932 22.391 15.1891 21.8315C13.6017 23.4034 12.0143 24.9746 10.4269 26.5457C11.5557 28.3689 13.145 29.882 15.053 30.921C17.6991 32.3619 20.7783 32.7931 23.7184 32.1345C26.6585 31.4758 29.2594 29.7721 31.0378 27.3401L31.8879 27.9617C29.9589 30.5997 27.1377 32.4477 23.9486 33.1621C20.7595 33.8765 17.4196 33.4088 14.5494 31.8459C12.5514 30.7579 10.8757 29.1907 9.66051 27.3043C9.53911 27.4244 9.41772 27.5446 9.29632 27.6647L9.29343 27.6676L9.29053 27.6705L9.00324 27.9548ZM7.93888 23.3681L7.19189 24.1077C6.79478 22.786 6.58139 21.3847 6.58139 19.9335C6.58139 11.9337 13.0666 5.44849 21.0664 5.44849C25.0815 5.44849 28.715 7.08207 31.3386 9.72086L30.5765 10.5012C29.7352 9.65301 28.7831 8.91855 27.7442 8.31871C26.2102 7.43305 24.5167 6.85821 22.7606 6.627C21.0044 6.3958 19.2199 6.51276 17.5089 6.97122C15.798 7.42967 14.1941 8.22063 12.7888 9.29894C11.3835 10.3773 10.2044 11.7218 9.31872 13.2558L11.8189 14.6993C12.515 13.4936 13.4418 12.4369 14.5463 11.5893C15.6508 10.7418 16.9114 10.1202 18.2562 9.75984C19.6009 9.39951 21.0035 9.30759 22.3837 9.4893C23.764 9.67102 25.095 10.1228 26.3007 10.8189C27.1306 11.2981 27.8899 11.8865 28.5591 12.567L26.0016 15.1861C23.9699 17.2669 21.9382 19.3477 19.9064 21.4275C19.4011 20.8666 18.8958 20.306 18.3906 19.7456L18.3882 19.7431C17.3209 18.5591 16.2541 17.3758 15.1891 16.1907C13.2258 18.1329 11.2644 20.0751 9.30351 22.0169L8.81811 22.4975C8.34453 20.1876 8.53509 17.7767 9.38793 15.5508L8.40452 15.174C7.39799 17.801 7.24193 20.6656 7.93888 23.3681Z" fill="url(#paint1_linear_379_3671)"/>
<rect x="1.5" y="0.5" width="39" height="39" rx="19.5" stroke="#C5C5C5"/>
</g>
<defs>
<filter id="filter0_d_379_3671" x="0.468439" y="0" width="41.0631" height="41.0631" filterUnits="userSpaceOnUse" color-interpolation-filters="sRGB">
<feFlood flood-opacity="0" result="BackgroundImageFix"/>
<feColorMatrix in="SourceAlpha" type="matrix" values="0 0 0 0 0 0 0 0 0 0 0 0 0 0 0 0 0 0 127 0" result="hardAlpha"/>
<feOffset dy="0.531561"/>
<feGaussianBlur stdDeviation="0.265781"/>
<feComposite in2="hardAlpha" operator="out"/>
<feColorMatrix type="matrix" values="0 0 0 0 0 0 0 0 0 0 0 0 0 0 0 0 0 0 0.25 0"/>
<feBlend mode="normal" in2="BackgroundImageFix" result="effect1_dropShadow_379_3671"/>
<feBlend mode="normal" in="SourceGraphic" in2="effect1_dropShadow_379_3671" result="shape"/>
</filter>
<linearGradient id="paint0_linear_379_3671" x1="9.91304" y1="5.51849e-06" x2="37.0535" y2="2.83304" gradientUnits="userSpaceOnUse">
<stop stop-color="#252923"/>
<stop offset="1" stop-color="#5B5B5B"/>
</linearGradient>
<linearGradient id="paint1_linear_379_3671" x1="13.719" y1="5.44848" x2="33.244" y2="7.50581" gradientUnits="userSpaceOnUse">
<stop stop-color="#6EE327"/>
<stop offset="1" stop-color="#8EFF49"/>
</linearGradient>
</defs>
</svg>
