<svg width="50" height="67" viewBox="0 0 50 67" fill="none" xmlns="http://www.w3.org/2000/svg">
<path d="M13.571 1.77441V33.8979L27.1212 28.1781V7.9585L13.571 1.77441Z" fill="#6EE327"/>
<path d="M50.0001 18.4055L27.1211 7.95801V28.1776L45.8422 20.2628L50.0001 18.4055Z" fill="#6EE327"/>
<path d="M20.1352 63.5724C20.1352 64.9654 15.6396 66.1051 10.0676 66.1051C4.4956 66.1051 0 64.9654 0 63.5724C0 62.1794 4.4956 61.0186 10.0676 61.0186C15.6396 61.0186 20.1352 62.1583 20.1352 63.5724Z" fill="#6EE327"/>
<path d="M12.0727 63.5714V2.21607C12.0734 1.67412 11.8656 1.15267 11.4923 0.759751C11.119 0.366835 10.6089 0.132566 10.0676 0.105469C9.50787 0.105469 8.97103 0.327834 8.57521 0.723649C8.1794 1.11946 7.95703 1.65631 7.95703 2.21607V63.4236L12.0727 63.5714Z" fill="#6EE327"/>
</svg>
