<svg width="64" height="56" viewBox="0 0 64 56" fill="none" xmlns="http://www.w3.org/2000/svg">
<path d="M63.2973 53.7919C63.2973 54.3229 63.0864 54.8321 62.711 55.2075C62.3356 55.5829 61.8264 55.7938 61.2954 55.7938H2.79976C2.26882 55.7938 1.75962 55.5829 1.38419 55.2075C1.00876 54.8321 0.797852 54.3229 0.797852 53.7919C0.797852 53.261 1.00876 52.7518 1.38419 52.3764C1.75962 52.001 2.26882 51.79 2.79976 51.79H61.4155C61.9465 51.79 62.4557 52.001 62.8311 52.3764C63.2065 52.7518 63.4174 53.261 63.4174 53.7919H63.2973Z" fill="#6EE327"/>
<path d="M40.816 10.7314H23.3193V49.5283H40.816V10.7314Z" fill="#6EE327"/>
<path d="M20.4764 21.4414H2.97974V49.5281H20.4764V21.4414Z" fill="#6EE327"/>
<path d="M61.1751 0H43.6785V49.5271H61.1751V0Z" fill="#6EE327"/>
</svg>
