<svg width="67" height="59" viewBox="0 0 67 59" fill="none" xmlns="http://www.w3.org/2000/svg">
<path d="M33.4725 0C14.9868 0 0 11.3983 0 25.4563C0.0876045 28.6955 0.883627 31.8779 2.33373 34.7864C3.78383 37.6949 5.85383 40.2611 8.40252 42.3096V42.4724L5.86795 58.0229C5.84511 58.2013 5.87908 58.3823 5.96513 58.5409C6.05119 58.6995 6.18507 58.8278 6.34834 58.9083C6.51162 58.9887 6.69624 59.0173 6.87667 58.9899C7.05709 58.9626 7.22444 58.8807 7.35563 58.7557L17.8244 47.9002C22.8116 49.8931 28.1458 50.9071 33.5275 50.8854C52.0132 50.8854 67 39.487 67 25.4291C67 11.3712 51.9581 0 33.4725 0Z" fill="#6EE327"/>
</svg>
