<svg width="46" height="51" viewBox="0 0 46 51" fill="none" xmlns="http://www.w3.org/2000/svg">
<path d="M41.6141 0H11.3636C9.24731 0 7.53174 1.71557 7.53174 3.83183V42.8687C7.53174 44.9849 9.24731 46.7005 11.3636 46.7005H41.6141C43.7304 46.7005 45.446 44.9849 45.446 42.8687V3.83183C45.446 1.71557 43.7304 0 41.6141 0Z" fill="#6EE327"/>
<path d="M13.0546 7.0498H4.89697V11.3606H13.0546V7.0498Z" fill="#6EE327"/>
<path d="M13.0546 16.3291H4.89697V20.6399H13.0546V16.3291Z" fill="#6EE327"/>
<path d="M13.0546 25.6104H4.89697V29.9212H13.0546V25.6104Z" fill="#6EE327"/>
<path d="M13.0546 34.876H4.89697V39.1868H13.0546V34.876Z" fill="#6EE327"/>
<path d="M29.1307 23.1571C29.9091 22.586 30.4872 21.7836 30.7824 20.8644C31.0776 19.9451 31.0747 18.9561 30.7743 18.0386C30.4738 17.1211 29.8911 16.322 29.1094 15.7554C28.3277 15.1889 27.3869 14.8838 26.4215 14.8838C25.456 14.8838 24.5152 15.1889 23.7335 15.7554C22.9518 16.322 22.3691 17.1211 22.0687 18.0386C21.7682 18.9561 21.7654 19.9451 22.0605 20.8644C22.3557 21.7836 22.9338 22.586 23.7122 23.1571C22.7253 23.5401 21.8771 24.2124 21.2788 25.0858C20.6805 25.9592 20.36 26.993 20.3594 28.0517V31.3297H32.4835V28.0517C32.4829 26.993 32.1624 25.9592 31.5641 25.0858C30.9658 24.2124 30.1176 23.5401 29.1307 23.1571Z" fill="#6EE327"/>
<path d="M41.5989 0.0146484V21.7633H45.3708V3.80158C45.3593 2.8034 44.9586 1.84914 44.2541 1.14187C43.5497 0.434605 42.597 0.0301789 41.5989 0.0146484Z" fill="#6EE327"/>
<path d="M45.3708 21.7637H41.5989V29.0382H45.3708V21.7637Z" fill="#6EE327"/>
<path d="M45.3708 29.0391H41.5989V32.5566H45.3708V29.0391Z" fill="#6EE327"/>
<path d="M41.5987 1.11524e-10H26.3462V46.7155H41.5987C42.6072 46.7155 43.5751 46.318 44.2925 45.6091C45.0098 44.9002 45.4187 43.937 45.4305 42.9285V3.8468C45.4325 3.34234 45.3348 2.84245 45.1432 2.37582C44.9515 1.9092 44.6695 1.48502 44.3135 1.12761C43.9575 0.770204 43.5344 0.486614 43.0685 0.293111C42.6027 0.0996079 42.1032 -3.84867e-06 41.5987 1.11524e-10Z" fill="#6EE327"/>
<path d="M29.1306 23.155C29.9045 22.5825 30.4783 21.7807 30.7706 20.8635C31.0629 19.9464 31.0588 18.9604 30.7589 18.0457C30.4589 17.131 29.8784 16.3341 29.0998 15.768C28.3212 15.202 27.384 14.8957 26.4214 14.8926V31.3575H32.5583V28.0795C32.558 27.0069 32.2293 25.9601 31.6166 25.0798C31.0038 24.1995 30.1363 23.5278 29.1306 23.155Z" fill="#6EE327"/>
<path d="M41.5989 0.0146484V21.7633H45.3708V3.80158C45.3593 2.8034 44.9586 1.84914 44.2541 1.14187C43.5497 0.434605 42.597 0.0301789 41.5989 0.0146484Z" fill="#6EE327"/>
<path d="M45.3708 21.7637H41.5989V29.0382H45.3708V21.7637Z" fill="#6EE327"/>
<path d="M45.3708 29.0391H41.5989V32.5566H45.3708V29.0391Z" fill="#6EE327"/>
<path d="M39.0265 1.72559H8.77592C6.65966 1.72559 4.94409 3.44115 4.94409 5.55742V44.5943C4.94409 46.7105 6.65966 48.4261 8.77592 48.4261H39.0265C41.1427 48.4261 42.8583 46.7105 42.8583 44.5943V5.55742C42.8583 3.44115 41.1427 1.72559 39.0265 1.72559Z" fill="white"/>
<path d="M10.4672 8.77539H2.30957V13.0862H10.4672V8.77539Z" fill="white"/>
<path d="M10.4672 18.0547H2.30957V22.3655H10.4672V18.0547Z" fill="white"/>
<path d="M10.4672 27.3359H2.30957V31.6468H10.4672V27.3359Z" fill="white"/>
<path d="M10.4672 36.6016H2.30957V40.9124H10.4672V36.6016Z" fill="white"/>
<path d="M26.543 24.8827C27.3215 24.3116 27.8996 23.5092 28.1947 22.59C28.4899 21.6707 28.4871 20.6817 28.1866 19.7642C27.8862 18.8467 27.3035 18.0476 26.5217 17.481C25.74 16.9145 24.7993 16.6094 23.8338 16.6094C22.8684 16.6094 21.9276 16.9145 21.1459 17.481C20.3642 18.0476 19.7815 18.8467 19.481 19.7642C19.1806 20.6817 19.1777 21.6707 19.4729 22.59C19.7681 23.5092 20.3461 24.3116 21.1246 24.8827C20.1376 25.2657 19.2894 25.938 18.6912 26.8114C18.0929 27.6848 17.7724 28.7186 17.7717 29.7773V33.0553H29.8959V29.7773C29.8952 28.7186 29.5748 27.6848 28.9765 26.8114C28.3782 25.938 27.53 25.2657 26.543 24.8827Z" fill="white"/>
<path d="M39.0112 1.74023V23.4889H42.7832V5.52716C42.7716 4.52898 42.371 3.57472 41.6665 2.86746C40.962 2.16019 40.0094 1.75576 39.0112 1.74023Z" fill="white"/>
<path d="M42.7832 23.4893H39.0112V30.7638H42.7832V23.4893Z" fill="white"/>
<path d="M42.7832 30.7646H39.0112V34.2822H42.7832V30.7646Z" fill="white"/>
<path d="M39.0111 1.72559H23.7585V48.4411H39.0111C40.0196 48.4411 40.9875 48.0436 41.7048 47.3347C42.4221 46.6257 42.8311 45.6626 42.8429 44.6541V5.57239C42.8449 5.06793 42.7472 4.56804 42.5555 4.10141C42.3638 3.63478 42.0819 3.2106 41.7259 2.8532C41.3699 2.49579 40.9468 2.2122 40.4809 2.0187C40.015 1.82519 39.5155 1.72558 39.0111 1.72559Z" fill="white"/>
<path d="M26.543 24.8806C27.3168 24.3081 27.8907 23.5063 28.183 22.5891C28.4752 21.6719 28.4711 20.686 28.1712 19.7713C27.8713 18.8566 27.2908 18.0596 26.5122 17.4936C25.7335 16.9276 24.7964 16.6213 23.8337 16.6182V33.0831H29.9707V29.8051C29.9703 28.7325 29.6417 27.6857 29.0289 26.8054C28.4162 25.9251 27.5487 25.2534 26.543 24.8806Z" fill="white"/>
<path d="M39.0112 1.74023V23.4889H42.7832V5.52716C42.7716 4.52898 42.371 3.57472 41.6665 2.86746C40.962 2.16019 40.0094 1.75576 39.0112 1.74023Z" fill="white"/>
<path d="M42.7832 23.4893H39.0112V30.7638H42.7832V23.4893Z" fill="white"/>
<path d="M42.7832 30.7646H39.0112V34.2822H42.7832V30.7646Z" fill="white"/>
<path d="M37.3985 3.44922H7.14799C5.03173 3.44922 3.31616 5.16479 3.31616 7.28105V46.3179C3.31616 48.4342 5.03173 50.1497 7.14799 50.1497H37.3985C39.5148 50.1497 41.2304 48.4342 41.2304 46.3179V7.28105C41.2304 5.16479 39.5148 3.44922 37.3985 3.44922Z" fill="#6EE327"/>
<path d="M8.83927 10.499H0.681641V14.8098H8.83927V10.499Z" fill="#6EE327"/>
<path d="M8.83927 19.7783H0.681641V24.0891H8.83927V19.7783Z" fill="#6EE327"/>
<path d="M8.83927 29.0596H0.681641V33.3704H8.83927V29.0596Z" fill="#6EE327"/>
<path d="M8.83927 38.3252H0.681641V42.636H8.83927V38.3252Z" fill="#6EE327"/>
<path d="M24.9151 26.6063C25.6936 26.0352 26.2716 25.2328 26.5668 24.3136C26.862 23.3944 26.8591 22.4054 26.5587 21.4879C26.2582 20.5703 25.6755 19.7712 24.8938 19.2047C24.1121 18.6381 23.1713 18.333 22.2059 18.333C21.2404 18.333 20.2997 18.6381 19.5179 19.2047C18.7362 19.7712 18.1535 20.5703 17.8531 21.4879C17.5526 22.4054 17.5498 23.3944 17.845 24.3136C18.1401 25.2328 18.7182 26.0352 19.4967 26.6063C18.5097 26.9894 17.6615 27.6616 17.0632 28.535C16.4649 29.4084 16.1445 30.4422 16.1438 31.5009V34.7789H28.268V31.5009C28.2673 30.4422 27.9468 29.4084 27.3485 28.535C26.7502 27.6616 25.9021 26.9894 24.9151 26.6063Z" fill="#6EE327"/>
<path d="M37.3833 3.46387V25.2125H41.1553V7.2508C41.1437 6.25262 40.743 5.29835 40.0386 4.59109C39.3341 3.88382 38.3814 3.4794 37.3833 3.46387Z" fill="#6EE327"/>
<path d="M41.1553 25.2129H37.3833V32.4874H41.1553V25.2129Z" fill="#6EE327"/>
<path d="M41.1553 32.4883H37.3833V36.0058H41.1553V32.4883Z" fill="#6EE327"/>
<path d="M37.3831 3.44922H22.1306V50.1647H37.3831C38.3917 50.1648 39.3596 49.7672 40.0769 49.0583C40.7942 48.3494 41.2031 47.3862 41.215 46.3778V7.29602C41.2169 6.79156 41.1193 6.29167 40.9276 5.82504C40.7359 5.35841 40.454 4.93423 40.0979 4.57683C39.7419 4.21942 39.3188 3.93583 38.853 3.74233C38.3871 3.54883 37.8876 3.44921 37.3831 3.44922Z" fill="#6EE327"/>
<path d="M24.915 26.6042C25.6889 26.0317 26.2627 25.2299 26.555 24.3127C26.8473 23.3956 26.8432 22.4096 26.5433 21.4949C26.2433 20.5802 25.6629 19.7833 24.8842 19.2172C24.1056 18.6512 23.1684 18.3449 22.2058 18.3418V34.8067H28.3427V31.5287C28.3424 30.4561 28.0138 29.4093 27.401 28.529C26.7883 27.6487 25.9207 26.977 24.915 26.6042Z" fill="#6EE327"/>
<path d="M37.3833 3.46387V25.2125H41.1553V7.2508C41.1437 6.25262 40.743 5.29835 40.0386 4.59109C39.3341 3.88382 38.3814 3.4794 37.3833 3.46387Z" fill="#6EE327"/>
<path d="M41.1553 25.2129H37.3833V32.4874H41.1553V25.2129Z" fill="#6EE327"/>
<path d="M41.1553 32.4883H37.3833V36.0058H41.1553V32.4883Z" fill="#6EE327"/>
</svg>
