<svg width="27" height="26" viewBox="0 0 27 26" fill="none" xmlns="http://www.w3.org/2000/svg">
<path d="M23.75 15.3378C23.75 15.0892 23.6512 14.8507 23.4754 14.6749C23.2996 14.4991 23.0611 14.4003 22.8125 14.4003H19.0625C18.8139 14.4003 18.5754 14.4991 18.3996 14.6749C18.2238 14.8507 18.125 15.0892 18.125 15.3378V23.7753H16.25V3.46283C16.25 2.55283 16.2475 1.96283 16.19 1.53033C16.135 1.12408 16.0462 0.99658 15.975 0.92533C15.9037 0.85408 15.7762 0.76533 15.37 0.71033C14.9362 0.65283 14.3475 0.65033 13.4375 0.65033C12.5275 0.65033 11.9375 0.65283 11.505 0.71033C11.0988 0.76533 10.9713 0.85408 10.9 0.92533C10.8288 0.99658 10.74 1.12408 10.685 1.53033C10.6275 1.96408 10.625 2.55283 10.625 3.46283V23.7753H8.75V9.08783C8.75 8.83919 8.65123 8.60073 8.47541 8.42492C8.2996 8.2491 8.06114 8.15033 7.8125 8.15033H4.0625C3.81386 8.15033 3.5754 8.2491 3.39959 8.42492C3.22377 8.60073 3.125 8.83919 3.125 9.08783V23.7753H0.9375C0.68886 23.7753 0.450403 23.8741 0.274587 24.0499C0.0987721 24.2257 0 24.4642 0 24.7128C0 24.9615 0.0987721 25.1999 0.274587 25.3757C0.450403 25.5516 0.68886 25.6503 0.9375 25.6503H25.9375C26.1861 25.6503 26.4246 25.5516 26.6004 25.3757C26.7762 25.1999 26.875 24.9615 26.875 24.7128C26.875 24.4642 26.7762 24.2257 26.6004 24.0499C26.4246 23.8741 26.1861 23.7753 25.9375 23.7753H23.75V15.3378Z" fill="#293241"/>
</svg>
