<svg width="26" height="26" viewBox="0 0 26 26" fill="none" xmlns="http://www.w3.org/2000/svg">
<path d="M23.8269 0.65033H2.67308C2.16305 0.65033 1.6739 0.889777 1.31326 1.316C0.952609 1.74221 0.75 2.32029 0.75 2.92306V23.3776C0.75 23.9804 0.952609 24.5584 1.31326 24.9847C1.6739 25.4109 2.16305 25.6503 2.67308 25.6503H23.8269C24.337 25.6503 24.8261 25.4109 25.1867 24.9847C25.5474 24.5584 25.75 23.9804 25.75 23.3776V2.92306C25.75 2.32029 25.5474 1.74221 25.1867 1.316C24.8261 0.889777 24.337 0.65033 23.8269 0.65033ZM22.5841 7.13613L11.0457 20.7725C10.9564 20.8781 10.8503 20.962 10.7336 21.0191C10.6169 21.0763 10.4917 21.1058 10.3654 21.1058C10.239 21.1058 10.1139 21.0763 9.99717 21.0191C9.88044 20.962 9.7744 20.8781 9.6851 20.7725L4.8774 15.0907C4.69698 14.8774 4.59562 14.5882 4.59562 14.2867C4.59562 13.9851 4.69698 13.6959 4.8774 13.4827C5.05783 13.2695 5.30253 13.1497 5.55769 13.1497C5.81285 13.1497 6.05756 13.2695 6.23798 13.4827L10.3654 18.362L21.2236 5.52817C21.404 5.31494 21.6487 5.19515 21.9038 5.19515C22.159 5.19515 22.4037 5.31494 22.5841 5.52817C22.7646 5.7414 22.8659 6.0306 22.8659 6.33215C22.8659 6.6337 22.7646 6.9229 22.5841 7.13613Z" fill="#293241"/>
</svg>
