<?xml version="1.0" encoding="UTF-8"?><svg xmlns="http://www.w3.org/2000/svg" viewBox="0 0 31 51"><defs><style>.e{fill:#27e34f;stroke-miterlimit:10;}.e,.f{stroke:#3e3940;}.f{fill:none;stroke-linecap:round;stroke-linejoin:round;}</style></defs><g id="a"/><g id="b"><g id="c"><g id="d"><g><path class="e" d="M30.5,2.75V.87c0-.21-.16-.37-.36-.37H.86c-.2,0-.36,.17-.36,.37v1.88c0,.21,.16,.37,.36,.37h.19c.2,0,.36,.17,.36,.37V15.92c0,.21-.16,.37-.36,.37h-.19c-.2,0-.36,.17-.36,.37v1.88c0,.21,.16,.37,.36,.37h.19c.2,0,.36,.17,.36,.37v12.42c0,.21-.16,.37-.36,.37h-.19c-.2,0-.36,.17-.36,.37v1.88c0,.21,.16,.37,.36,.37h.19c.2,0,.36,.17,.36,.37v12.42c0,.21-.16,.37-.36,.37h-.19c-.2,0-.36,.17-.36,.37v1.88c0,.21,.16,.37,.36,.37H30.14c.2,0,.36-.17,.36-.37v-1.88c0-.21-.16-.37-.36-.37h-.19c-.2,0-.36-.17-.36-.37v-12.42c0-.21,.16-.37,.36-.37h.19c.2,0,.36-.17,.36-.37v-1.88c0-.21-.16-.37-.36-.37h-.19c-.2,0-.36-.17-.36-.37v-12.42c0-.21,.16-.37,.36-.37h.19c.2,0,.36-.17,.36-.37v-1.88c0-.21-.16-.37-.36-.37h-.19c-.2,0-.36-.17-.36-.37V3.5c0-.21,.16-.37,.36-.37h.19c.2,0,.36-.17,.36-.37Z"/><line class="f" x1="1.58" y1="17.54" x2="29.38" y2="17.49"/><line class="f" x1="1.5" y1="3.19" x2="29.31" y2="3.13"/><line class="f" x1="1.66" y1="33.47" x2="29.47" y2="33.41"/><line class="f" x1="1.6" y1="47.87" x2="29.4" y2="47.81"/></g></g></g></g></svg>