<?xml version="1.0" encoding="UTF-8"?><svg xmlns="http://www.w3.org/2000/svg" viewBox="0 0 50.96 50.91"><defs><style>.e{fill:#27e34f;}.f{fill:none;stroke:#3e3940;stroke-linecap:round;stroke-linejoin:round;stroke-width:.96px;}</style></defs><g id="a"/><g id="b"><g id="c"><g id="d"><g><path class="e" d="M50.48,.48c-3.92,6.01-7.84,12.02-11.77,18.03-2.58-2.76-5.17-5.51-7.75-8.27-3.84,5.8-7.68,11.6-11.52,17.4-2.58-1.89-5.17-3.77-7.75-5.66L.8,41.19c-.11,3.1-.22,6.19-.32,9.29H50.32l.16-50Z"/><g><line class="f" x1=".48" y1="50.43" x2="50.48" y2="50.43"/><path class="f" d="M.8,41.19c3.5-6.4,7.01-12.8,10.51-19.21,2.67,1.89,5.34,3.77,8.01,5.66L31.24,10.24c2.57,2.64,5.13,5.28,7.7,7.92,3.85-5.89,7.69-11.79,11.54-17.68"/></g></g></g></g></g></svg>