<svg width="18" height="23" viewBox="0 0 18 23" fill="none" xmlns="http://www.w3.org/2000/svg">
<path d="M8.70002 3.4569e-10C8.4432 -6.84141e-06 8.19679 0.101537 8.01453 0.282471C7.83226 0.463406 7.72893 0.709066 7.72705 0.965882V2.66325C7.72891 2.92072 7.83201 3.16713 8.01407 3.34919C8.19614 3.53126 8.44255 3.63436 8.70002 3.63622V3.63622V0.00710893V3.4569e-10Z" fill="#6EE327"/>
<path d="M8.69995 0V3.62913C8.95612 3.62913 9.20179 3.52736 9.38293 3.34622C9.56406 3.16509 9.66583 2.91941 9.66583 2.66325V0.965882C9.66583 0.709717 9.56406 0.464041 9.38293 0.282905C9.20179 0.101769 8.95612 0 8.69995 0Z" fill="#6EE327"/>
<path d="M8.69285 1.81812C5.44014 1.81812 1.72578 4.31091 1.72578 7.38607C1.72578 7.44289 1.72578 7.49972 1.72578 7.55654V15.2764C0.843031 16.5231 0.253113 17.953 0 19.4595H6.59065C6.50209 19.7793 6.48946 20.1153 6.55376 20.4409C6.61805 20.7664 6.75752 21.0724 6.961 21.3346C7.16449 21.5967 7.42638 21.8076 7.72582 21.9506C8.02526 22.0936 8.35397 22.1647 8.68574 22.1582V22.1582V1.81812H8.69285Z" fill="#6EE327"/>
<path d="M17.3786 19.4595C17.1313 17.9569 16.5434 16.5309 15.6599 15.2906V7.38607C15.6599 4.31091 11.9598 1.81812 8.69995 1.81812V22.1511C9.03113 22.1565 9.359 22.0846 9.65753 21.9411C9.95606 21.7976 10.217 21.5865 10.4197 21.3246C10.6224 21.0626 10.7612 20.757 10.8251 20.432C10.889 20.107 10.8763 19.7716 10.7879 19.4524L17.3786 19.4595Z" fill="#6EE327"/>
</svg>
