<svg width="20" height="23" viewBox="0 0 20 23" fill="none" xmlns="http://www.w3.org/2000/svg">
<path d="M17.4212 0H3.06811C2.06399 0 1.25 0.813994 1.25 1.81811V20.3401C1.25 21.3442 2.06399 22.1582 3.06811 22.1582H17.4212C18.4253 22.1582 19.2393 21.3442 19.2393 20.3401V1.81811C19.2393 0.813994 18.4253 0 17.4212 0Z" fill="#6EE327"/>
<path d="M3.87059 3.34497H0V5.39035H3.87059V3.34497Z" fill="#6EE327"/>
<path d="M3.87059 7.74829H0V9.79366H3.87059V7.74829Z" fill="#6EE327"/>
<path d="M3.87059 12.1516H0V14.197H3.87059V12.1516Z" fill="#6EE327"/>
<path d="M3.87059 16.5479H0V18.5932H3.87059V16.5479Z" fill="#6EE327"/>
<path d="M11.4981 10.9867C11.8674 10.7158 12.1417 10.3351 12.2818 9.89891C12.4218 9.46276 12.4205 8.99351 12.2779 8.55817C12.1353 8.12284 11.8589 7.74369 11.488 7.47486C11.1171 7.20603 10.6707 7.06128 10.2126 7.06128C9.75453 7.06128 9.30816 7.20603 8.93725 7.47486C8.56635 7.74369 8.28987 8.12284 8.14732 8.55817C8.00476 8.99351 8.00341 9.46276 8.14346 9.89891C8.28351 10.3351 8.5578 10.7158 8.92715 10.9867C8.45887 11.1685 8.05642 11.4875 7.77255 11.9019C7.48867 12.3163 7.33662 12.8068 7.3363 13.3091V14.8644H13.0889V13.3091C13.0886 12.8068 12.9365 12.3163 12.6527 11.9019C12.3688 11.4875 11.9663 11.1685 11.4981 10.9867Z" fill="#6EE327"/>
<path d="M17.4141 0.00708008V10.3263H19.2038V1.80388C19.1983 1.33027 19.0082 0.877498 18.6739 0.541918C18.3397 0.206339 17.8876 0.0144489 17.4141 0.00708008Z" fill="#6EE327"/>
<path d="M19.2038 10.3262H17.4141V13.7777H19.2038V10.3262Z" fill="#6EE327"/>
<path d="M19.2038 13.7781H17.4141V15.447H19.2038V13.7781Z" fill="#6EE327"/>
<path d="M17.4141 0H10.1771V22.1653H17.4141C17.8926 22.1653 18.3518 21.9767 18.6922 21.6404C19.0325 21.304 19.2266 20.847 19.2322 20.3685V1.82521C19.2331 1.58586 19.1868 1.34867 19.0958 1.12727C19.0049 0.905865 18.8711 0.704603 18.7022 0.535022C18.5332 0.365442 18.3325 0.230886 18.1115 0.139074C17.8904 0.0472614 17.6534 -1.8261e-06 17.4141 0Z" fill="#6EE327"/>
<path d="M11.4981 10.9869C11.8653 10.7153 12.1376 10.3349 12.2762 9.89971C12.4149 9.46454 12.413 8.99674 12.2707 8.56273C12.1284 8.12873 11.8529 7.75059 11.4835 7.48203C11.114 7.21347 10.6694 7.06812 10.2126 7.06665V14.8788H13.1245V13.3235C13.1243 12.8146 12.9684 12.3179 12.6776 11.9002C12.3869 11.4825 11.9753 11.1638 11.4981 10.9869Z" fill="#6EE327"/>
<path d="M17.4141 0.00708008V10.3263H19.2038V1.80388C19.1983 1.33027 19.0082 0.877498 18.6739 0.541918C18.3397 0.206339 17.8876 0.0144489 17.4141 0.00708008Z" fill="#6EE327"/>
<path d="M19.2038 10.3262H17.4141V13.7777H19.2038V10.3262Z" fill="#6EE327"/>
<path d="M19.2038 13.7781H17.4141V15.447H19.2038V13.7781Z" fill="#6EE327"/>
</svg>
