<svg width="19" height="17" viewBox="0 0 19 17" fill="none" xmlns="http://www.w3.org/2000/svg">
<path d="M2.96875 0C2.18139 0 1.42628 0.312778 0.869527 0.869527C0.312778 1.42628 0 2.18139 0 2.96875V13.6562C0 14.4436 0.312778 15.1987 0.869527 15.7555C1.42628 16.3122 2.18139 16.625 2.96875 16.625H16.0312C16.8186 16.625 17.5737 16.3122 18.1305 15.7555C18.6872 15.1987 19 14.4436 19 13.6562V2.96875C19 2.18139 18.6872 1.42628 18.1305 0.869527C17.5737 0.312778 16.8186 0 16.0312 0H2.96875ZM8.03344 4.84025L12.7834 7.81138C12.8675 7.8641 12.937 7.93705 12.9856 8.02355C13.0342 8.11006 13.0603 8.20736 13.0616 8.30657C13.0629 8.40578 13.0393 8.50373 12.993 8.59148C12.9467 8.67922 12.8791 8.75397 12.7965 8.80888L8.0465 11.9546C7.95702 12.0138 7.85315 12.0477 7.74595 12.0526C7.63875 12.0575 7.53222 12.0333 7.4377 11.9825C7.34317 11.9317 7.26417 11.8562 7.20911 11.7641C7.15405 11.672 7.12498 11.5667 7.125 11.4594V5.34375C7.125 5.23776 7.15337 5.13371 7.20716 5.04239C7.26096 4.95107 7.33822 4.87581 7.43092 4.82443C7.52362 4.77305 7.62838 4.74742 7.73433 4.7502C7.84028 4.75299 7.94356 4.78408 8.03344 4.84025Z" fill="#6EE327"/>
</svg>
