<?xml version="1.0" encoding="UTF-8"?><svg xmlns="http://www.w3.org/2000/svg" viewBox="0 0 51 51"><defs><style>.e{fill:none;}.e,.f{stroke:#3e3940;stroke-linecap:round;stroke-linejoin:round;}.f{fill:#27e34f;}</style></defs><g id="a"/><g id="b"><g id="c"><g id="d"><g><path class="f" d="M47.82,48.29c-1.92-.85-5.48-2.1-10.04-1.94-6.19,.22-10.58,2.91-12.35,4.15-1.77-1.25-6.45-4.21-13.01-4.23-4.2-.02-7.48,1.17-9.37,2.03-.85,.74-1.7,1.47-2.55,2.21V4.83c1.08-.84,2.74-1.98,4.97-2.87C10.86-.2,15.57,.62,16.5,.8c3.12,.6,5.46,1.89,6.53,2.48,1.02,.57,1.83,1.12,2.4,1.54,.92-.68,2.31-1.6,4.13-2.41,1.6-.72,3.64-1.61,6.42-1.73,1.16-.05,3.03,.01,5.27,.76,1.06,0,2.54,.11,4.22,.64,2.33,.74,3.97,1.94,4.9,2.74V45.06c.37,3.79-.12,4.63-.55,4.77-.35,.11-.94-.13-2-1.54Z"/><g><path class="e" d="M.5,50.5c7.72-5.65,17.22-5.65,24.94,0,7.72-5.65,17.22-5.65,24.94,0"/><path class="e" d="M.5,4.83C8.22-.82,17.72-.82,25.44,4.83c7.72-5.65,17.22-5.65,24.94,0"/><line class="e" x1=".5" y1="4.83" x2=".5" y2="50.5"/><line class="e" x1="25.44" y1="4.83" x2="25.44" y2="50.5"/><line class="e" x1="50.37" y1="4.83" x2="50.37" y2="50.5"/></g></g></g></g></g></svg>