<?xml version="1.0" encoding="UTF-8"?><svg xmlns="http://www.w3.org/2000/svg" viewBox="0 0 51 51"><defs><style>.e{fill:#27e34f;stroke:#3e3940;stroke-linecap:round;stroke-linejoin:round;}</style></defs><g id="a"/><g id="b"><g id="c"><g id="d"><path class="e" d="M12.26,22.37v24.99c0,1.73-1.32,3.12-2.94,3.12H3.44c-1.62,0-2.94-1.4-2.94-3.12V25.49c0-1.73,1.32-3.12,2.94-3.12H12.26c6.5,0,11.76-5.59,11.76-12.5v-3.12c0-3.45,2.63-6.25,5.88-6.25s5.88,2.8,5.88,6.25v15.62h8.82c3.25,0,5.88,2.8,5.88,6.25l-2.94,15.62c-.87,3.94-3.27,6.48-5.88,6.25H21.09c-4.87,0-8.82-4.2-8.82-9.37"/></g></g></g></svg>