<?xml version="1.0" encoding="UTF-8"?><svg xmlns="http://www.w3.org/2000/svg" viewBox="0 0 51.09 51.09"><defs><style>.e{fill:#27e34f;stroke:#3e3940;stroke-linecap:round;stroke-linejoin:round;stroke-width:1.09px;}</style></defs><g id="a"/><g id="b"><g id="c"><g id="d"><g><path class="e" d="M25.6,50.55l.56-8.07c0-7.72,3.54-13.98,7.91-13.98h8.01c4.37,0,7.91,6.26,7.91,13.98l.56,8.07c-4.01-.08-8.05-.12-12.13-.13-4.31,0-8.58,.04-12.81,.13Z"/><path class="e" d="M.55,50.55l.56-8.21c0-7.86,3.54-14.23,7.91-14.23h8.01c4.37,0,7.91,6.37,7.91,14.23l.56,8.21c-4.01-.08-8.05-.13-12.13-.13-4.31,0-8.58,.04-12.81,.13Z"/><ellipse class="e" cx="38.07" cy="10.24" rx="8.5" ry="9.7"/><ellipse class="e" cx="13.02" cy="10.24" rx="8.5" ry="9.7"/></g></g></g></g></svg>