<?xml version="1.0" encoding="UTF-8"?>
<svg id="Ebene_2" data-name="Ebene 2" xmlns="http://www.w3.org/2000/svg" viewBox="0 0 80 80">
  <defs>
    <style>
      .cls-1 {
        fill: #78746c;
      }

      .cls-2, .cls-3, .cls-4 {
        fill: #fff;
      }

      .cls-2, .cls-3, .cls-4, .cls-5 {
        stroke: #78746c;
        stroke-linecap: round;
        stroke-linejoin: round;
      }

      .cls-3 {
        stroke-width: .9px;
      }

      .cls-4 {
        stroke-width: .8px;
      }

      .cls-5 {
        fill: #27e34f;
      }
    </style>
  </defs>
  <g id="Layer_4" data-name="Layer 4">
    <g id="Layer_2" data-name="Layer 2">
      <circle class="cls-1" cx="40" cy="40" r="40"/>
    </g>
    <g>
      <rect class="cls-2" x="15.07" y="17.69" width="50" height="41.18"/>
      <path class="cls-3" d="M48.84,56.46v11.91l5-3.97,5,3.97v-11.91"/>
      <line class="cls-5" x1="18.92" y1="45.55" x2="61.08" y2="45.55"/>
      <line class="cls-5" x1="18.88" y1="51.57" x2="43.73" y2="51.57"/>
      <g>
        <ellipse class="cls-4" cx="53.9" cy="55.4" rx="6" ry="5.85"/>
        <path class="cls-1" d="M53.48,57.41c-.35-.03-.64-.08-.86-.16-.22-.08-.38-.15-.49-.2l.31-.83c.17,.08,.37,.16,.6,.22s.48,.1,.74,.1c.29,0,.5-.04,.6-.12,.11-.08,.16-.19,.16-.34,0-.09-.02-.17-.07-.23s-.11-.12-.19-.18c-.08-.05-.19-.1-.31-.16s-.27-.1-.43-.16c-.16-.06-.31-.12-.47-.19-.15-.07-.29-.16-.41-.26-.12-.1-.22-.23-.3-.37-.07-.15-.11-.32-.11-.53,0-.16,.02-.31,.07-.46,.05-.15,.12-.28,.21-.4s.22-.22,.38-.31c.15-.08,.34-.15,.55-.18v-.78h.91v.75c.25,.02,.47,.06,.65,.11,.18,.05,.32,.1,.43,.14l-.22,.87c-.16-.07-.34-.13-.55-.17-.21-.05-.43-.07-.66-.07s-.4,.04-.5,.12c-.1,.08-.15,.18-.15,.3,0,.08,.02,.14,.05,.2,.03,.06,.08,.1,.15,.15,.07,.04,.15,.09,.25,.13,.1,.04,.22,.09,.36,.13,.21,.08,.41,.16,.59,.25,.18,.09,.34,.2,.47,.31,.13,.12,.24,.26,.31,.42,.07,.16,.11,.34,.11,.56,0,.14-.02,.29-.07,.43-.04,.14-.12,.27-.22,.39s-.23,.22-.39,.31c-.16,.09-.36,.15-.6,.19v.88h-.91v-.86Z"/>
      </g>
      <g>
        <path class="cls-1" d="M35.03,24.48c-.64,.66-1.4,1.51-2.28,2.57-.88,1.05-1.79,2.19-2.73,3.43s-1.87,2.52-2.79,3.84c-.92,1.32-1.74,2.58-2.46,3.78h10.59v3.93H19.01v-2.79c.56-1.02,1.25-2.15,2.06-3.4s1.65-2.51,2.54-3.78c.88-1.27,1.77-2.5,2.69-3.69,.91-1.19,1.75-2.25,2.53-3.19h-9.33v-3.93h15.54v3.24Z"/>
        <path class="cls-1" d="M45.59,42.3c-1.14,0-2.28-.04-3.41-.11s-2.31-.23-3.52-.5V21.54c.96-.18,2.01-.31,3.15-.4,1.14-.09,2.2-.13,3.18-.13,1.32,0,2.54,.09,3.65,.28,1.11,.19,2.06,.52,2.87,.98,.8,.46,1.42,1.06,1.88,1.81,.45,.75,.67,1.68,.67,2.78,0,1.66-.8,2.97-2.4,3.93,1.32,.5,2.22,1.18,2.7,2.04,.48,.86,.72,1.83,.72,2.91,0,2.18-.79,3.82-2.39,4.92-1.59,1.1-3.96,1.65-7.09,1.65Zm-2.37-12.9h2.28c1.44,0,2.47-.18,3.09-.55,.62-.37,.93-.96,.93-1.79s-.32-1.43-.96-1.77c-.64-.34-1.58-.51-2.82-.51-.4,0-.83,0-1.29,.02-.46,0-.87,.04-1.23,.07v4.53Zm0,3.57v5.37c.34,.04,.71,.07,1.11,.09s.84,.03,1.32,.03c1.4,0,2.53-.2,3.39-.6,.86-.4,1.29-1.14,1.29-2.22,0-.96-.36-1.64-1.08-2.05-.72-.41-1.75-.62-3.09-.62h-2.94Z"/>
      </g>
    </g>
  </g>
</svg>