<?xml version="1.0" encoding="UTF-8"?>
<svg id="Ebene_2" data-name="Ebene 2" xmlns="http://www.w3.org/2000/svg" viewBox="0 0 80 80">
  <defs>
    <style>
      .cls-1 {
        fill: #fff;
      }

      .cls-2 {
        fill: #cfd5f8;
      }

      .cls-3 {
        fill: none;
        stroke: #fff;
        stroke-linecap: round;
        stroke-linejoin: round;
        stroke-width: 2px;
      }
    </style>
  </defs>
  <g id="Layer_4" data-name="Layer 4">
    <g id="Layer_2" data-name="Layer 2">
      <circle class="cls-2" cx="40" cy="40" r="40"/>
      <g>
        <g>
          <path class="cls-3" d="M13.66,46c3.61-4.91,7.22-9.82,10.82-14.73,2.67,1.56,5.34,3.11,8.01,4.67,3.97-4.79,7.93-9.58,11.9-14.37,2.67,2.04,5.34,4.07,8.01,6.11l6.52-8.07"/>
          <polygon class="cls-1" points="61.88 23.88 63.43 14.03 54.12 17.61 61.88 23.88"/>
        </g>
        <g>
          <path class="cls-1" d="M28.05,51.31c.66-1.19,1.3-2.39,1.92-3.61,.63-1.22,1.19-2.45,1.7-3.68h3.06c-.82,1.68-1.66,3.34-2.55,5s-1.83,3.32-2.83,5v6.46h-2.75v-6.41c-1-1.69-1.95-3.37-2.84-5.04-.89-1.66-1.74-3.33-2.56-5.01h3.23c.51,1.23,1.07,2.46,1.68,3.68,.61,1.22,1.25,2.42,1.92,3.61Z"/>
          <path class="cls-1" d="M39.75,44.02c.32,.6,.68,1.34,1.07,2.21,.39,.87,.79,1.79,1.2,2.74,.41,.96,.81,1.93,1.21,2.92,.4,.99,.77,1.9,1.1,2.74,.33-.84,.7-1.75,1.09-2.74s.79-1.96,1.2-2.92c.41-.96,.81-1.87,1.2-2.74,.39-.87,.75-1.61,1.07-2.21h2.48c.13,1.2,.26,2.48,.38,3.83,.12,1.35,.23,2.74,.32,4.16,.1,1.42,.19,2.84,.27,4.28,.08,1.43,.15,2.83,.21,4.19h-2.71c-.06-1.92-.13-3.89-.21-5.91-.08-2.03-.2-3.99-.37-5.89-.16,.36-.35,.8-.57,1.31s-.45,1.06-.7,1.65c-.25,.59-.5,1.21-.75,1.84-.26,.63-.5,1.25-.74,1.84s-.46,1.15-.67,1.66-.38,.95-.52,1.32h-2.05c-.15-.36-.32-.81-.52-1.33s-.43-1.08-.67-1.67c-.24-.59-.49-1.21-.74-1.84-.26-.63-.51-1.24-.75-1.83-.25-.59-.48-1.14-.7-1.65-.22-.51-.41-.95-.57-1.29-.16,1.9-.29,3.86-.37,5.89-.08,2.03-.15,4-.21,5.91h-2.71c.06-1.36,.13-2.77,.21-4.23,.08-1.46,.17-2.9,.27-4.33,.1-1.43,.2-2.82,.32-4.17,.12-1.35,.24-2.59,.38-3.73h2.55Z"/>
        </g>
      </g>
    </g>
  </g>
</svg>