<?xml version="1.0" encoding="UTF-8"?>
<svg id="Ebene_2" data-name="Ebene 2" xmlns="http://www.w3.org/2000/svg" viewBox="0 0 80 80">
  <defs>
    <style>
      .cls-1 {
        fill: #fff;
      }

      .cls-2 {
        fill: none;
        stroke: #fff;
        stroke-linecap: round;
        stroke-linejoin: round;
        stroke-width: 2px;
      }

      .cls-3 {
        fill: #fff08c;
      }
    </style>
  </defs>
  <g id="Layer_4" data-name="Layer 4">
    <g id="Layer_2" data-name="Layer 2">
      <circle class="cls-3" cx="40" cy="40" r="40"/>
      <g>
        <g>
          <path class="cls-2" d="M14.6,48.37c3.61-4.91,7.22-9.82,10.82-14.73,2.67,1.56,5.34,3.11,8.01,4.67,3.97-4.79,7.93-9.58,11.9-14.37,2.67,2.04,5.34,4.07,8.01,6.11,2.17-2.69,4.35-5.38,6.52-8.07"/>
          <polygon class="cls-1" points="62.81 26.25 64.36 16.4 55.06 19.98 62.81 26.25"/>
        </g>
        <g>
          <path class="cls-1" d="M34.26,59.46c-.5-.9-1.05-1.87-1.66-2.91s-1.25-2.08-1.9-3.13-1.32-2.07-2-3.06c-.68-.99-1.32-1.88-1.93-2.67v11.78h-2.71v-16.46h2.25c.58,.67,1.21,1.45,1.88,2.36,.67,.91,1.34,1.86,2.02,2.84,.68,.98,1.33,1.97,1.97,2.96,.63,.99,1.2,1.91,1.69,2.77v-10.92h2.73v16.46h-2.34Z"/>
          <path class="cls-1" d="M54.3,51.22c0,1.19-.14,2.26-.42,3.21-.28,.95-.66,1.78-1.16,2.48-.5,.7-1.08,1.28-1.74,1.72-.66,.44-1.39,.76-2.17,.95,.04,.33,.2,.62,.46,.85,.26,.24,.59,.44,.99,.59s.86,.29,1.38,.39c.52,.1,1.06,.18,1.63,.23l-.61,2.26c-1.88-.16-3.37-.55-4.48-1.18-1.11-.63-1.81-1.62-2.12-2.98-.9-.09-1.75-.35-2.52-.76-.78-.41-1.46-.97-2.04-1.69-.58-.71-1.04-1.58-1.38-2.59-.34-1.01-.5-2.18-.5-3.49,0-1.41,.2-2.65,.59-3.72,.39-1.07,.93-1.97,1.61-2.7s1.46-1.27,2.35-1.64,1.83-.55,2.82-.55,1.93,.18,2.82,.55,1.66,.91,2.33,1.64,1.19,1.63,1.58,2.7c.39,1.07,.59,2.31,.59,3.72Zm-11.82,0c0,.9,.1,1.72,.31,2.46s.5,1.36,.88,1.88c.39,.52,.86,.92,1.41,1.2,.55,.28,1.18,.43,1.88,.43s1.3-.14,1.86-.43c.55-.29,1.02-.68,1.41-1.2,.39-.51,.68-1.14,.89-1.88s.31-1.56,.31-2.46-.1-1.72-.31-2.46-.5-1.36-.89-1.88c-.39-.51-.86-.91-1.41-1.2s-1.17-.43-1.86-.43-1.33,.14-1.88,.43-1.02,.69-1.41,1.21c-.39,.52-.68,1.15-.88,1.88-.2,.73-.31,1.54-.31,2.45Z"/>
        </g>
      </g>
    </g>
  </g>
</svg>