<?xml version="1.0" encoding="UTF-8"?>
<svg id="Ebene_2" data-name="Ebene 2" xmlns="http://www.w3.org/2000/svg" viewBox="0 0 80 80">
  <defs>
    <style>
      .cls-1 {
        fill: #fff;
      }

      .cls-2 {
        fill: #93f1a7;
      }

      .cls-3 {
        fill: none;
        stroke: #fff;
        stroke-linecap: round;
        stroke-linejoin: round;
        stroke-width: 2px;
      }
    </style>
  </defs>
  <g id="Layer_4" data-name="Layer 4">
    <g id="Layer_2" data-name="Layer 2">
      <circle class="cls-2" cx="40" cy="40" r="40"/>
      <g>
        <g>
          <path class="cls-3" d="M14.84,48.8c3.61-4.91,7.22-9.82,10.82-14.73,2.67,1.56,5.34,3.11,8,4.67,3.97-4.79,7.93-9.58,11.9-14.37,2.67,2.04,5.34,4.07,8.01,6.11,2.17-2.69,4.35-5.38,6.52-8.07"/>
          <polygon class="cls-1" points="63.05 26.68 64.61 16.83 55.3 20.41 63.05 26.68"/>
        </g>
        <g>
          <path class="cls-1" d="M28.35,61.83v-16.46h9.73v2.54h-6.97v4.06h6.21v2.49h-6.21v4.82h7.5v2.54h-10.25Z"/>
          <path class="cls-1" d="M44.83,59.6c.99,0,1.71-.18,2.16-.55,.45-.36,.68-.88,.68-1.54,0-.4-.08-.74-.23-1.02-.15-.29-.37-.54-.66-.77s-.63-.44-1.04-.64c-.41-.2-.87-.39-1.4-.58-.52-.21-1.03-.43-1.52-.68-.49-.25-.92-.55-1.29-.91-.37-.36-.67-.8-.9-1.31-.23-.51-.34-1.12-.34-1.83,0-1.49,.47-2.66,1.42-3.5s2.24-1.27,3.87-1.27c.95,0,1.79,.11,2.52,.34,.74,.23,1.31,.48,1.74,.75l-.85,2.42c-.5-.3-1.04-.53-1.63-.69-.59-.16-1.2-.24-1.83-.24-.74,0-1.32,.17-1.74,.5-.42,.33-.62,.8-.62,1.4,0,.36,.07,.68,.21,.94,.14,.26,.34,.49,.59,.7s.55,.4,.9,.57c.34,.17,.72,.34,1.13,.5,.71,.29,1.35,.57,1.91,.87s1.03,.64,1.42,1.04c.39,.4,.68,.88,.88,1.42,.2,.55,.31,1.21,.31,1.98,0,1.49-.49,2.64-1.45,3.46-.97,.82-2.39,1.22-4.25,1.22-.63,0-1.2-.04-1.71-.13-.52-.09-.98-.19-1.38-.32-.4-.13-.75-.26-1.04-.39-.29-.13-.53-.26-.7-.37l.81-2.45c.39,.24,.93,.47,1.6,.71s1.48,.36,2.43,.36Z"/>
        </g>
      </g>
    </g>
  </g>
</svg>