<svg width="280" height="53" viewBox="0 0 280 53" fill="none" xmlns="http://www.w3.org/2000/svg">
<g clip-path="url(#clip0_504_309)">
<path fill-rule="evenodd" clip-rule="evenodd" d="M6.01043 32.3346C4.26049 34.0637 2.51055 35.7927 0.760599 37.5226V37.5191V32.3565C2.55961 30.5799 4.35774 28.8023 6.15631 27.0243C7.96437 25.237 9.77288 23.4491 11.5832 21.6614C12.5522 22.7378 13.5228 23.8126 14.4939 24.888C14.9661 25.4109 15.4384 25.934 15.9108 26.4574C17.8502 24.4754 19.7897 22.4925 21.7292 20.5095C23.5172 18.6813 25.3053 16.8531 27.0933 15.0258C26.5115 14.4312 25.9305 13.8367 25.3495 13.2422C24.7286 12.6069 24.1077 11.9715 23.4858 11.3362H33.2248V21.2984C32.623 20.6835 32.022 20.0686 31.4211 19.4537C30.8201 18.8388 30.2191 18.2238 29.6171 17.6088C27.3194 19.9595 25.0208 22.3093 22.7221 24.659C20.4514 26.9803 18.1806 29.3015 15.9108 31.6237C14.9321 30.5365 13.9518 29.4509 12.971 28.3647C12.5085 27.8525 12.0458 27.3401 11.5832 26.8274C9.72559 28.6638 7.86801 30.4992 6.01043 32.3346ZM12.9993 32.7416C12.5261 32.2177 12.0529 31.6936 11.5796 31.1691V31.1726C9.20659 33.4699 6.83203 35.7655 4.45695 38.0617C3.22139 39.2562 1.9857 40.4508 0.75 41.6459H33.2107C33.2119 39.868 33.2134 38.0902 33.2149 36.3124C33.218 32.755 33.2211 29.1975 33.2211 25.64C32.6214 25.0273 32.0225 24.4145 31.4237 23.8017C30.8206 23.1846 30.2176 22.5676 29.6136 21.9505C27.2786 24.3394 24.9426 26.7273 22.6066 29.1153C20.3732 31.3983 18.1398 33.6814 15.9072 35.9652C14.9392 34.8898 13.9695 33.816 12.9993 32.7416Z" fill="white"/>
<path d="M44.0517 41.2611V39.6071H44.5487C44.9944 39.6071 45.4086 39.5751 45.7909 39.511C46.1857 39.4469 46.5297 39.3187 46.8227 39.1263C47.1156 38.9213 47.345 38.6327 47.5107 38.2609C47.6761 37.8891 47.759 37.3955 47.759 36.7799L47.757 15.7753C47.757 15.1598 47.6742 14.6662 47.5087 14.2944C47.3431 13.9226 47.1137 13.6405 46.8208 13.4482C46.5277 13.243 46.1838 13.1084 45.7889 13.0443C45.4067 12.9802 44.9925 12.9481 44.5468 12.9481H44.0497V11.2942H55.439V12.9481H54.9231C54.49 12.9481 54.076 12.9802 53.6809 13.0443C53.2861 13.1084 52.9421 13.243 52.649 13.4482C52.3688 13.6405 52.1394 13.9226 51.9611 14.2944C51.7954 14.6662 51.7128 15.1598 51.7128 15.7753L51.7148 36.7799C51.7148 37.3955 51.7974 37.8891 51.9631 38.2609C52.1413 38.6327 52.3707 38.9213 52.651 39.1263C52.9441 39.3187 53.288 39.4469 53.6829 39.511C54.0779 39.5751 54.4919 39.6071 54.925 39.6071H55.441V41.2611H44.0517ZM68.55 39.6071V41.2611H58.0209V39.6071H58.3457C58.7914 39.6071 59.2056 39.5751 59.5879 39.511C59.9827 39.4469 60.3204 39.3187 60.6006 39.1263C60.8935 38.9213 61.1229 38.6327 61.2886 38.2609C61.4668 37.8891 61.556 37.3955 61.556 36.7799V24.4906C61.556 23.9138 61.4668 23.4521 61.2886 23.1059C61.1229 22.7471 60.8935 22.4714 60.6006 22.279C60.3075 22.0867 59.9636 21.9584 59.5687 21.8943C59.1865 21.8302 58.7788 21.7983 58.3457 21.7983H58.2309V20.1442H64.5562L65.0721 23.3368H65.2633C65.6709 22.6059 66.0977 22.0097 66.5437 21.5482C67.0022 21.0738 67.4799 20.7084 67.9769 20.4519C68.4863 20.1827 69.0214 20.0032 69.5819 19.9135C70.1553 19.8109 70.7541 19.7596 71.3783 19.7596C72.4102 19.7596 73.3275 19.9135 74.13 20.2212C74.9453 20.5161 75.6333 20.9776 76.194 21.6059C76.7671 22.2212 77.2002 23.0162 77.4933 23.9906C77.799 24.965 77.9519 26.1254 77.9519 27.4716V36.7799C77.9519 37.3955 78.0221 37.8891 78.1621 38.2609C78.3149 38.6327 78.5252 38.9213 78.7928 39.1263C79.0603 39.3187 79.3788 39.4469 79.7482 39.511C80.1176 39.5751 80.519 39.6071 80.9521 39.6071H81.086V41.2611H74.2639V27.6639C74.2639 26.8051 74.1874 26.042 74.0345 25.3753C73.8817 24.7086 73.6332 24.1444 73.2892 23.683C72.9581 23.2215 72.5184 22.8753 71.9708 22.6444C71.4229 22.4009 70.7541 22.279 69.9642 22.279C69.0725 22.279 68.3209 22.4521 67.7093 22.7983C67.1105 23.1444 66.6265 23.6125 66.2569 24.2022C65.8875 24.7919 65.6201 25.4716 65.4544 26.2407C65.3015 27.0101 65.225 27.8178 65.225 28.6642V36.9723C65.225 37.5493 65.3078 38.0173 65.4735 38.3762C65.6518 38.7224 65.8875 38.9854 66.1806 39.1648C66.4734 39.3443 66.8111 39.4661 67.1933 39.5303C67.5882 39.5815 68.0024 39.6071 68.4355 39.6071H68.55ZM90.4113 41.6458C89.4303 41.6458 88.5386 41.5561 87.7359 41.3764C86.9462 41.2099 86.2709 40.9535 85.7104 40.6073C85.1499 40.2482 84.7168 39.8123 84.4108 39.2994C84.1051 38.7738 83.9523 38.1648 83.9523 37.4725C83.9523 36.9467 84.0351 36.5108 84.2008 36.1646C84.3791 35.8055 84.5893 35.5235 84.8313 35.3184C85.0861 35.1132 85.3536 34.9723 85.6338 34.8952C85.9269 34.8055 86.188 34.7607 86.4174 34.7607C86.4174 35.453 86.4874 36.1005 86.6277 36.7031C86.7677 37.3057 87.0034 37.8377 87.3347 38.2994C87.6659 38.7482 88.099 39.1071 88.6341 39.3764C89.182 39.6329 89.8508 39.7611 90.6407 39.7611C91.3412 39.7611 91.9591 39.6777 92.4942 39.511C93.0293 39.3316 93.4752 39.0878 93.832 38.7801C94.2014 38.4596 94.4816 38.0815 94.6728 37.6456C94.8639 37.1968 94.9593 36.7095 94.9593 36.1839C94.9593 35.6965 94.883 35.2799 94.7299 34.9337C94.5899 34.5747 94.3351 34.2414 93.9657 33.9337C93.6089 33.6259 93.1184 33.3119 92.4942 32.9913C91.87 32.6707 91.0866 32.3053 90.1438 31.895C89.1374 31.4462 88.2584 31.0169 87.5067 30.6066C86.7677 30.1834 86.1563 29.7283 85.6721 29.241C85.1881 28.7539 84.825 28.2024 84.5828 27.5871C84.3408 26.9589 84.2199 26.2151 84.2199 25.356C84.2199 24.4587 84.3919 23.6637 84.7359 22.9714C85.0925 22.279 85.5958 21.702 86.2454 21.2405C86.8951 20.7661 87.6722 20.4071 88.5769 20.1635C89.4814 19.9199 90.4878 19.7981 91.596 19.7981C92.5261 19.7981 93.3478 19.8942 94.0612 20.0865C94.7745 20.2789 95.3733 20.5417 95.8575 20.8751C96.3417 21.1956 96.7046 21.5803 96.9468 22.0289C97.1888 22.465 97.3099 22.9265 97.3099 23.4138C97.3099 24.1318 97.0614 24.7086 96.5646 25.1447C96.0804 25.5676 95.3861 25.7792 94.4817 25.7792C94.4817 24.4587 94.2077 23.4328 93.66 22.7022C93.1249 21.9714 92.2776 21.6059 91.1183 21.6059C90.4558 21.6059 89.889 21.6827 89.4177 21.8366C88.9463 21.9906 88.5577 22.2086 88.2518 22.4906C87.959 22.7727 87.7424 23.1059 87.6022 23.4906C87.4622 23.8753 87.3919 24.2983 87.3919 24.76C87.3919 25.26 87.4813 25.6959 87.6596 26.0676C87.8379 26.4267 88.1181 26.76 88.5003 27.0679C88.8952 27.3755 89.3985 27.6768 90.0099 27.9718C90.6343 28.2539 91.3795 28.5742 92.2459 28.9333C93.2778 29.3692 94.1631 29.7987 94.9019 30.2219C95.6409 30.6449 96.246 31.1066 96.7174 31.6066C97.2016 32.1066 97.5582 32.6707 97.7876 33.299C98.0169 33.9272 98.1315 34.6517 98.1315 35.4723C98.1315 36.4979 97.9467 37.3955 97.5773 38.1648C97.2079 38.934 96.6857 39.5815 96.0103 40.1073C95.3353 40.62 94.5199 41.0047 93.5643 41.2611C92.6216 41.5176 91.5706 41.6458 90.4113 41.6458ZM101.265 39.6071C101.699 39.6071 102.106 39.5815 102.488 39.5303C102.883 39.4661 103.227 39.3443 103.52 39.1648C103.813 38.9854 104.043 38.7224 104.208 38.3762C104.387 38.0173 104.476 37.5493 104.476 36.9723V24.4906C104.476 23.9138 104.387 23.4521 104.208 23.1059C104.043 22.7471 103.813 22.4714 103.52 22.279C103.227 22.0867 102.883 21.9584 102.488 21.8943C102.106 21.8302 101.699 21.7983 101.265 21.7983H101.151V20.1442H108.145V36.7799C108.145 37.3955 108.228 37.8891 108.393 38.2609C108.572 38.6327 108.801 38.9213 109.081 39.1263C109.374 39.3187 109.718 39.4469 110.113 39.511C110.508 39.5751 110.922 39.6071 111.355 39.6071H111.871V41.2611H100.75V39.6071H101.265ZM103.922 13.7592C103.922 13.2976 103.979 12.913 104.094 12.6053C104.208 12.2975 104.368 12.0475 104.571 11.8552C104.775 11.6629 105.011 11.5283 105.278 11.4513C105.546 11.3744 105.839 11.3359 106.157 11.3359C106.463 11.3359 106.75 11.3744 107.017 11.4513C107.285 11.5283 107.514 11.6629 107.705 11.8552C107.909 12.0475 108.068 12.2975 108.183 12.6053C108.31 12.913 108.374 13.2976 108.374 13.7592C108.374 14.2208 108.31 14.6054 108.183 14.9131C108.068 15.2208 107.909 15.4708 107.705 15.6632C107.514 15.8555 107.285 15.9965 107.017 16.0863C106.75 16.1632 106.463 16.2017 106.157 16.2017C105.839 16.2017 105.546 16.1632 105.278 16.0863C105.011 15.9965 104.775 15.8555 104.571 15.6632C104.368 15.4708 104.208 15.2208 104.094 14.9131C103.979 14.6054 103.922 14.2208 103.922 13.7592ZM132.185 36.934C132.185 37.5108 132.267 37.9788 132.433 38.3379C132.611 38.6841 132.847 38.9532 133.14 39.1456C133.433 39.3379 133.771 39.4661 134.153 39.5303C134.548 39.5815 134.962 39.6071 135.395 39.6071H135.72V41.2611H129.089L128.668 37.7224H128.516C128.222 38.325 127.885 38.8699 127.503 39.3572C127.133 39.8316 126.707 40.2419 126.222 40.588C125.738 40.9213 125.19 41.1777 124.579 41.3572C123.967 41.5495 123.28 41.6458 122.515 41.6458C121.228 41.6458 120.088 41.4342 119.095 41.011C118.101 40.5751 117.266 39.9149 116.591 39.0303C115.916 38.1327 115.406 36.9981 115.062 35.6261C114.719 34.2543 114.547 32.6259 114.547 30.7412C114.547 28.8436 114.719 27.2024 115.062 25.8178C115.406 24.4331 115.916 23.2919 116.591 22.3943C117.266 21.4969 118.101 20.8366 119.095 20.4135C120.088 19.9776 121.228 19.7596 122.515 19.7596C123.267 19.7596 123.948 19.8429 124.56 20.0096C125.171 20.1763 125.719 20.4135 126.203 20.7212C126.7 21.0289 127.14 21.3943 127.522 21.8175C127.904 22.2405 128.235 22.7086 128.516 23.2215H128.745C128.707 22.5803 128.668 21.9777 128.63 21.4136C128.605 20.9263 128.579 20.4455 128.554 19.9712C128.528 19.4839 128.516 19.1249 128.516 18.8942V15.6632C128.516 15.0862 128.426 14.6246 128.248 14.2785C128.082 13.9194 127.853 13.6438 127.56 13.4515C127.267 13.2591 126.923 13.1373 126.528 13.0861C126.146 13.022 125.738 12.9899 125.305 12.9899H124.98V11.3359H132.185V36.934ZM123.184 39.1263C124.203 39.1263 125.05 38.9596 125.726 38.6263C126.413 38.2801 126.961 37.7609 127.369 37.0685C127.789 36.3762 128.082 35.5042 128.248 34.453C128.426 33.4016 128.516 32.1644 128.516 30.7412C128.516 29.3692 128.426 28.1576 128.248 27.1062C128.082 26.055 127.789 25.1766 127.369 24.4714C126.961 23.7534 126.413 23.2086 125.726 22.8368C125.038 22.465 124.178 22.279 123.146 22.279C122.292 22.279 121.56 22.465 120.948 22.8368C120.337 23.2086 119.833 23.7534 119.439 24.4714C119.056 25.1895 118.776 26.0806 118.598 27.1447C118.419 28.1961 118.33 29.4077 118.33 30.7797C118.33 33.5747 118.706 35.6646 119.458 37.0493C120.209 38.434 121.451 39.1263 123.184 39.1263ZM147.185 21.8751C145.733 21.8751 144.612 22.4714 143.822 23.6637C143.045 24.8434 142.586 26.5742 142.446 28.8565H151.447C151.447 27.8178 151.37 26.8692 151.218 26.0101C151.065 25.151 150.823 24.4138 150.491 23.7983C150.16 23.183 149.721 22.7086 149.173 22.3751C148.638 22.0418 147.975 21.8751 147.185 21.8751ZM147.663 41.6458C146.249 41.6458 144.975 41.4086 143.841 40.9342C142.72 40.4469 141.771 39.7419 140.994 38.8187C140.217 37.8955 139.618 36.7672 139.198 35.4338C138.79 34.0876 138.586 32.5618 138.586 30.8565C138.586 27.1768 139.338 24.4075 140.841 22.5482C142.344 20.6891 144.485 19.7596 147.262 19.7596C148.523 19.7596 149.657 19.9583 150.663 20.3558C151.67 20.7533 152.523 21.3495 153.224 22.1444C153.925 22.9265 154.46 23.9072 154.829 25.0869C155.211 26.2536 155.402 27.6127 155.402 29.1642V30.972H142.37C142.395 32.4079 142.535 33.6451 142.79 34.6836C143.058 35.7095 143.434 36.5556 143.918 37.2224C144.415 37.8891 145.02 38.3828 145.733 38.7033C146.447 39.011 147.268 39.1648 148.198 39.1648C148.873 39.1648 149.498 39.0878 150.071 38.934C150.657 38.7801 151.186 38.5751 151.657 38.3187C152.129 38.0622 152.542 37.7736 152.899 37.4532C153.269 37.1197 153.568 36.7736 153.797 36.4147C153.976 36.4915 154.141 36.6519 154.294 36.8955C154.46 37.139 154.543 37.4274 154.543 37.7609C154.543 38.1583 154.403 38.5878 154.122 39.0495C153.842 39.4981 153.415 39.9149 152.842 40.2994C152.269 40.6841 151.549 41.0047 150.682 41.2611C149.829 41.5176 148.822 41.6458 147.663 41.6458ZM169.964 41.2611H158.67V39.6071H158.785C159.231 39.6071 159.645 39.5751 160.027 39.511C160.422 39.4469 160.76 39.3187 161.04 39.1263C161.333 38.9213 161.562 38.6327 161.728 38.2609C161.906 37.8891 161.995 37.3955 161.995 36.7799V24.4906C161.995 23.9138 161.906 23.4521 161.728 23.1059C161.562 22.7471 161.333 22.4714 161.04 22.279C160.747 22.0867 160.403 21.9584 160.008 21.8943C159.626 21.8302 159.218 21.7983 158.785 21.7983H158.67V20.1442H164.69L165.435 24.0484H165.626C165.881 23.4587 166.142 22.9072 166.41 22.3943C166.677 21.8687 167.002 21.4136 167.384 21.0289C167.779 20.6315 168.263 20.3237 168.836 20.1058C169.41 19.875 170.13 19.7596 170.996 19.7596C172.423 19.7596 173.48 20.0096 174.168 20.5096C174.869 21.0097 175.219 21.7149 175.219 22.6252C175.219 23.0355 175.149 23.4138 175.009 23.76C174.881 24.1062 174.671 24.4075 174.378 24.6637C174.085 24.9075 173.709 25.0998 173.251 25.2407C172.792 25.369 172.231 25.4331 171.569 25.4331C171.569 24.3434 171.416 23.5611 171.11 23.0867C170.805 22.5996 170.27 22.356 169.505 22.356C169.021 22.356 168.588 22.497 168.206 22.779C167.824 23.0484 167.486 23.4138 167.193 23.8753C166.913 24.3241 166.671 24.8434 166.467 25.4331C166.276 26.0228 166.116 26.632 165.989 27.2602C165.874 27.8755 165.792 28.4911 165.741 29.1064C165.69 29.7219 165.664 30.2795 165.664 30.7797V36.9723C165.664 37.5493 165.747 38.0173 165.913 38.3762C166.091 38.7224 166.327 38.9854 166.62 39.1648C166.913 39.3443 167.25 39.4661 167.633 39.5303C168.028 39.5815 168.442 39.6071 168.875 39.6071H169.964V41.2611ZM198.38 11.4948L203.272 30.4718C203.641 31.7797 203.966 33.0362 204.246 34.2414C204.539 35.4338 204.775 36.4852 204.953 37.3955C205.144 36.4467 205.361 35.453 205.603 34.4145C205.858 33.3631 206.163 32.2029 206.52 30.9335L209.96 16.8606C209.998 16.7067 210.043 16.5336 210.094 16.3413C210.145 16.149 210.189 15.9567 210.227 15.7644C210.266 15.572 210.298 15.3925 210.323 15.2259C210.361 15.0592 210.38 14.9182 210.38 14.8028C210.38 14.1232 210.164 13.636 209.731 13.3411C209.31 13.0334 208.667 12.8795 207.8 12.8795H206.902V11.2256H216.457V12.8795H215.712C215.33 12.8795 214.992 12.918 214.699 12.9949C214.419 13.0719 214.164 13.2193 213.935 13.4373C213.705 13.6552 213.495 13.963 213.304 14.3604C213.113 14.7579 212.922 15.2836 212.731 15.9375L206.119 41.2611H202.603L196.22 17.2837L190.239 41.2611H186.627L179.461 14.9566C179.334 14.5463 179.187 14.2066 179.022 13.9373C178.869 13.6681 178.684 13.4565 178.468 13.3027C178.251 13.1488 177.996 13.0398 177.703 12.9757C177.41 12.9116 177.073 12.8795 176.69 12.8795H176.174V11.2256H186.952V12.8795H186.054C185.264 12.8795 184.672 13.0334 184.277 13.3411C183.895 13.636 183.703 14.1104 183.703 14.7643C183.703 14.9823 183.735 15.2066 183.799 15.4374C183.863 15.6682 183.933 15.931 184.009 16.2259L187.602 30.7412C187.933 31.9335 188.245 33.1066 188.538 34.2607C188.831 35.4018 189.086 36.4467 189.303 37.3955C189.494 36.3696 189.717 35.2543 189.971 34.0491C190.239 32.8311 190.545 31.5874 190.889 30.318L195.551 11.4948H198.38ZM225.19 21.8751C223.738 21.8751 222.616 22.4714 221.826 23.6637C221.05 24.8434 220.591 26.5742 220.451 28.8565H229.451C229.451 27.8178 229.375 26.8692 229.223 26.0101C229.069 25.151 228.827 24.4138 228.497 23.7983C228.164 23.183 227.725 22.7086 227.177 22.3751C226.642 22.0418 225.979 21.8751 225.19 21.8751ZM225.668 41.6458C224.253 41.6458 222.979 41.4086 221.846 40.9342C220.725 40.4469 219.776 39.7419 218.999 38.8187C218.222 37.8955 217.623 36.7672 217.202 35.4338C216.795 34.0876 216.591 32.5618 216.591 30.8565C216.591 27.1768 217.343 24.4075 218.846 22.5482C220.349 20.6891 222.49 19.7596 225.266 19.7596C226.527 19.7596 227.662 19.9583 228.669 20.3558C229.675 20.7533 230.528 21.3495 231.228 22.1444C231.93 22.9265 232.465 23.9072 232.835 25.0869C233.215 26.2536 233.406 27.6127 233.406 29.1642V30.972H220.375C220.4 32.4079 220.54 33.6451 220.795 34.6836C221.063 35.7095 221.437 36.5556 221.922 37.2224C222.42 37.8891 223.024 38.3828 223.738 38.7033C224.451 39.011 225.273 39.1648 226.203 39.1648C226.877 39.1648 227.503 39.0878 228.075 38.934C228.662 38.7801 229.191 38.5751 229.662 38.3187C230.134 38.0622 230.547 37.7736 230.904 37.4532C231.273 37.1197 231.574 36.7736 231.802 36.4147C231.98 36.4915 232.145 36.6519 232.3 36.8955C232.465 37.139 232.548 37.4274 232.548 37.7609C232.548 38.1583 232.406 38.5878 232.128 39.0495C231.847 39.4981 231.419 39.9149 230.847 40.2994C230.273 40.6841 229.554 41.0047 228.686 41.2611C227.834 41.5176 226.827 41.6458 225.668 41.6458ZM246.134 21.8751C244.682 21.8751 243.56 22.4714 242.771 23.6637C241.995 24.8434 241.536 26.5742 241.395 28.8565H250.396C250.396 27.8178 250.32 26.8692 250.165 26.0101C250.013 25.151 249.772 24.4138 249.439 23.7983C249.109 23.183 248.669 22.7086 248.122 22.3751C247.587 22.0418 246.924 21.8751 246.134 21.8751ZM246.613 41.6458C245.197 41.6458 243.923 41.4086 242.79 40.9342C241.668 40.4469 240.72 39.7419 239.942 38.8187C239.166 37.8955 238.566 36.7672 238.146 35.4338C237.74 34.0876 237.535 32.5618 237.535 30.8565C237.535 27.1768 238.288 24.4075 239.79 22.5482C241.292 20.6891 243.434 19.7596 246.21 19.7596C247.471 19.7596 248.606 19.9583 249.611 20.3558C250.618 20.7533 251.472 21.3495 252.172 22.1444C252.872 22.9265 253.409 23.9072 253.779 25.0869C254.159 26.2536 254.351 27.6127 254.351 29.1642V30.972H241.318C241.345 32.4079 241.484 33.6451 241.738 34.6836C242.005 35.7095 242.382 36.5556 242.866 37.2224C243.362 37.8891 243.969 38.3828 244.682 38.7033C245.395 39.011 246.217 39.1648 247.148 39.1648C247.822 39.1648 248.446 39.0878 249.02 38.934C249.607 38.7801 250.135 38.5751 250.607 38.3187C251.076 38.0622 251.492 37.7736 251.848 37.4532C252.218 37.1197 252.516 36.7736 252.746 36.4147C252.924 36.4915 253.09 36.6519 253.242 36.8955C253.409 37.139 253.492 37.4274 253.492 37.7609C253.492 38.1583 253.351 38.5878 253.07 39.0495C252.79 39.4981 252.364 39.9149 251.79 40.2994C251.218 40.6841 250.498 41.0047 249.631 41.2611C248.778 41.5176 247.772 41.6458 246.613 41.6458ZM269.581 28.5871L274.797 36.3762C275.473 37.4274 276.143 38.2289 276.804 38.7801C277.48 39.3316 278.256 39.6071 279.137 39.6071H279.25V41.2611H278.696C277.563 41.2611 276.626 41.2292 275.886 41.165C275.16 41.088 274.53 40.9213 273.995 40.6648C273.46 40.3957 272.971 40.011 272.525 39.511C272.077 38.9981 271.582 38.3057 271.034 37.434L267.116 31.2604L264.23 33.4145V36.9723C264.23 37.5493 264.313 38.0173 264.478 38.3762C264.657 38.7224 264.894 38.9854 265.187 39.1648C265.478 39.3443 265.818 39.4661 266.198 39.5303C266.594 39.5815 267.007 39.6071 267.442 39.6071H267.555V41.2611H257.027V39.6071H257.332C257.777 39.6071 258.193 39.5751 258.575 39.511C258.969 39.4469 259.306 39.3187 259.586 39.1263C259.88 38.9213 260.11 38.6327 260.276 38.2609C260.454 37.8891 260.543 37.3955 260.543 36.7799V15.6632C260.543 15.0862 260.454 14.6246 260.276 14.2785C260.11 13.9194 259.88 13.6438 259.586 13.4515C259.295 13.2591 258.949 13.1373 258.556 13.0861C258.173 13.022 257.764 12.9899 257.332 12.9899H257.027V11.3359H264.23V26.5294C264.23 26.8882 264.224 27.3499 264.211 27.914C264.198 28.4652 264.18 29.0103 264.154 29.5488C264.128 30.1642 264.104 30.8116 264.078 31.4913L268.97 26.1062C269.39 25.6318 269.733 25.2151 270.001 24.856C270.281 24.4972 270.505 24.183 270.671 23.9138C270.836 23.6444 270.951 23.4072 271.014 23.2022C271.079 22.9843 271.11 22.779 271.11 22.5867C271.11 22.2534 270.951 22.0418 270.631 21.9521C270.327 21.8495 269.849 21.7983 269.199 21.7983V20.1442H277.837V21.7983C276.932 21.7983 276.041 22.1188 275.16 22.7598C274.295 23.4009 273.351 24.3048 272.334 25.4716L269.581 28.5871Z" fill="white"/>
</g>
<defs>
<clipPath id="clip0_504_309">
<rect width="278.5" height="51.4804" fill="white" transform="translate(0.75 0.695557)"/>
</clipPath>
</defs>
</svg>
