<svg width="42" height="42" viewBox="0 0 42 42" fill="none" xmlns="http://www.w3.org/2000/svg">
<path fill-rule="evenodd" clip-rule="evenodd" d="M42 0H0V42H42V0ZM26.2472 13.1438C26.3357 13.2324 26.3855 13.3524 26.3855 13.4776V15.9324C26.3855 16.0576 26.3357 16.1777 26.2472 16.2662C26.1587 16.3547 26.0386 16.4045 25.9134 16.4045H23.5531C23.3182 16.4033 23.0913 16.4897 22.9167 16.6468C22.7422 16.8039 22.6324 17.0205 22.6089 17.2542V19.8033H25.7718C25.844 19.8038 25.9152 19.8207 25.9798 19.853C26.0445 19.8852 26.1009 19.9319 26.1446 19.9893C26.1884 20.0468 26.2184 20.1135 26.2324 20.1844C26.2463 20.2553 26.2438 20.3284 26.225 20.3982L25.5452 22.8529C25.5179 22.9543 25.4576 23.0437 25.3738 23.1069C25.29 23.1702 25.1875 23.2037 25.0826 23.2022H22.6089V29.5279C22.6089 29.6531 22.5592 29.7732 22.4707 29.8617C22.3821 29.9503 22.2621 30 22.1369 30H19.3045C19.1793 30 19.0592 29.9503 18.9707 29.8617C18.8821 29.7732 18.8324 29.6531 18.8324 29.5279V23.2022H16.4721C16.3469 23.2022 16.2268 23.1525 16.1383 23.064C16.0497 22.9754 16 22.8554 16 22.7302V20.2754C16 20.1502 16.0497 20.0301 16.1383 19.9416C16.2268 19.8531 16.3469 19.8033 16.4721 19.8033H18.8324V17.2542C18.8983 16.066 19.4318 14.9522 20.3163 14.1561C21.2009 13.36 22.3645 12.9464 23.5531 13.0056H25.9134C26.0386 13.0056 26.1587 13.0553 26.2472 13.1438Z" fill="#0D1625"/>
</svg>
