<svg width="42" height="42" viewBox="0 0 42 42" fill="none" xmlns="http://www.w3.org/2000/svg">
<path fill-rule="evenodd" clip-rule="evenodd" d="M42 0H0V42H42V0ZM23.8954 12.0209C23.2389 12.0052 22.5821 11.9986 21.9254 12.0011L20.075 12.0002C19.4186 11.9986 18.7622 12.0061 18.1059 12.0227L17.9313 12.0272L17.2905 12.0542C16.3321 12.0992 15.6796 12.2504 15.1054 12.4727C14.5051 12.6991 13.9615 13.0538 13.5125 13.5122C13.0535 13.9607 12.6983 14.5045 12.4721 15.1051C12.2498 15.6793 12.0986 16.3318 12.0536 17.2902C12.0428 17.5296 12.0338 17.7294 12.0266 17.931L12.0203 18.1056C12.0046 18.7619 11.998 19.4183 12.0005 20.0747V21.9251C11.9989 22.5818 12.0064 23.2386 12.023 23.8951L12.0275 24.0697C12.0355 24.2833 12.0445 24.4969 12.0545 24.7105C12.0995 25.668 12.2507 26.3214 12.473 26.8947C12.6991 27.4955 13.0535 28.0397 13.5116 28.4894C13.9609 28.9474 14.5048 29.3015 15.1054 29.5271C15.6796 29.7485 16.333 29.9015 17.2905 29.9465C17.5041 29.9568 17.7177 29.9658 17.9313 29.9735L18.1059 29.9789C18.7625 29.9949 19.4192 30.0018 20.0759 29.9996H21.254L21.9254 29.9987C22.5821 30.0009 23.2389 29.994 23.8954 29.978L24.07 29.9726C24.2655 29.9656 24.4584 29.9569 24.6889 29.9466L24.7108 29.9456C25.6684 29.9006 26.3217 29.7494 26.895 29.5271C27.4956 29.301 28.0397 28.9469 28.4898 28.4894C28.9479 28.04 29.3021 27.4957 29.5274 26.8947C29.7488 26.3214 29.9018 25.668 29.9468 24.7105L29.9478 24.688C29.9582 24.4577 29.9668 24.265 29.9738 24.0697L29.9792 23.8951C29.9952 23.2386 30.0021 22.5818 29.9999 21.9251V20.7461L29.999 20.0747C30.0012 19.4183 29.9943 18.7619 29.9783 18.1056L29.9729 17.931C29.9657 17.7294 29.9567 17.5296 29.9459 17.2902C29.9009 16.3327 29.7497 15.6784 29.5274 15.1051C29.3014 14.5048 28.9473 13.9609 28.4898 13.5113C27.9894 13.0109 27.489 12.7013 26.895 12.4727C26.3217 12.2504 25.6684 12.0992 24.7108 12.0542L24.6892 12.0532C24.4585 12.0429 24.2655 12.0342 24.07 12.0272L23.8954 12.0209ZM19.2588 16.825C19.812 16.6027 20.404 16.4925 21.0002 16.501C22.1936 16.501 23.3382 16.9741 24.1821 17.818C25.026 18.6619 25.5001 19.8065 25.5001 20.9999C25.5001 22.1933 25.026 23.3379 24.1821 24.1818C23.3382 25.0257 22.1936 25.4997 21.0002 25.4997C20.404 25.5082 19.812 25.398 19.2588 25.1757C18.7055 24.9534 18.2019 24.6233 17.7773 24.2046C17.3527 23.786 17.0155 23.2871 16.7854 22.7371C16.5552 22.187 16.4367 21.5966 16.4367 21.0004C16.4367 20.4041 16.5552 19.8137 16.7854 19.2636C17.0155 18.7136 17.3527 18.2147 17.7773 17.7961C18.2019 17.3774 18.7055 17.0473 19.2588 16.825ZM22.0485 18.4919C21.7152 18.3592 21.3589 18.2943 21.0002 18.3009L21.0011 18.3C20.2851 18.3 19.5983 18.5844 19.092 19.0908C18.5857 19.5971 18.3012 20.2838 18.3012 20.9999C18.3012 21.716 18.5857 22.4027 19.092 22.909C19.5983 23.4154 20.2851 23.6998 21.0011 23.6998C21.3598 23.7063 21.7161 23.6413 22.0493 23.5085C22.3826 23.3757 22.686 23.1779 22.9419 22.9265C23.1978 22.6751 23.401 22.3753 23.5398 22.0445C23.6785 21.7137 23.7499 21.3586 23.7499 20.9999C23.7498 20.6412 23.6783 20.2861 23.5394 19.9553C23.4006 19.6246 23.1972 19.3248 22.9412 19.0736C22.6853 18.8223 22.3818 18.6245 22.0485 18.4919ZM24.9588 15.4957C25.1601 15.2861 25.4347 15.1626 25.7251 15.151V15.1492C26.0234 15.1492 26.3096 15.2677 26.5205 15.4787C26.7315 15.6897 26.85 15.9758 26.85 16.2742C26.85 16.5725 26.7315 16.8587 26.5205 17.0696C26.3096 17.2806 26.0234 17.3991 25.7251 17.3991C25.4347 17.3875 25.1601 17.264 24.9588 17.0545C24.7575 16.8449 24.6451 16.5656 24.6451 16.2751C24.6451 15.9845 24.7575 15.7052 24.9588 15.4957Z" fill="#0D1625"/>
</svg>
