<svg width="42" height="42" viewBox="0 0 42 42" fill="none" xmlns="http://www.w3.org/2000/svg">
<path fill-rule="evenodd" clip-rule="evenodd" d="M42 0H0V42H42V0ZM15.4028 15.4042C15.7768 15.0305 15.9871 14.5235 15.9874 13.9947C15.9877 13.4659 15.7779 12.9587 15.4042 12.5846C15.0305 12.2106 14.5235 12.0003 13.9947 12C13.4659 11.9997 12.9587 12.2095 12.5846 12.5832C12.2106 12.9569 12.0003 13.4639 12 13.9927C11.9997 14.5215 12.2095 15.0287 12.5832 15.4028C12.9569 15.7768 13.4639 15.9871 13.9927 15.9874C14.5215 15.9877 15.0287 15.7779 15.4028 15.4042ZM12.0598 17.4637H16.0472V29.9443H12.0598V17.4637ZM18.3799 17.4637H22.3473L22.3075 19.1385C23.9622 16.118 31 15.8887 31 22.0393V29.9443H27.0624V23.395C27.0624 19.4076 22.3075 19.7465 22.3075 23.395V29.9443H18.3799V17.4637Z" fill="#0D1625"/>
</svg>
