<svg width="42" height="42" viewBox="0 0 42 42" fill="none" xmlns="http://www.w3.org/2000/svg">
<path fill-rule="evenodd" clip-rule="evenodd" d="M42 0H0V42H42V0ZM13.3251 28.9996H15.8709C15.9351 28.926 15.9991 28.8523 16.0631 28.7786C16.207 28.613 16.3509 28.4475 16.496 28.2829C17.8015 26.8016 19.1076 25.3206 20.4137 23.8396C20.4353 23.815 20.4579 23.7914 20.4874 23.7595C20.4953 23.7688 20.5029 23.7775 20.5102 23.7858C20.5256 23.8035 20.5397 23.8197 20.5528 23.8367C21.1749 24.6439 21.797 25.4512 22.4191 26.2585C23.0949 27.1354 23.7707 28.0125 24.4466 28.8894C24.4663 28.9149 24.4872 28.9395 24.5081 28.9641C24.5182 28.976 24.5283 28.9878 24.5383 28.9998H29.6663C29.658 28.9862 29.6501 28.9723 29.6422 28.9584C29.6252 28.9285 29.6082 28.8987 29.5877 28.8717C27.4484 26.0635 25.3088 23.2557 23.1664 20.4496C23.1086 20.374 23.1136 20.3333 23.1745 20.2643C24.9774 18.2232 26.778 16.1803 28.5783 14.1369C28.6032 14.1087 28.6236 14.0766 28.6441 14.0445C28.6536 14.0296 28.6632 14.0146 28.6732 14H26.1452C26.0803 14.0727 26.0153 14.1453 25.9504 14.218C25.8156 14.3685 25.6809 14.5191 25.5473 14.6707C24.7126 15.6173 23.8781 16.5642 23.0437 17.5112C22.6897 17.9129 22.3357 18.3146 21.9817 18.7163C21.9693 18.7304 21.9564 18.7441 21.9412 18.7601C21.9324 18.7693 21.923 18.7793 21.9125 18.7905C21.904 18.7802 21.8958 18.7705 21.8879 18.761C21.8722 18.7425 21.8576 18.7251 21.8439 18.7071L18.3156 14.0774C18.3014 14.059 18.287 14.0409 18.2726 14.0228C18.2666 14.0152 18.2605 14.0076 18.2545 14H13C13.0052 14.0107 13.0099 14.0219 13.0145 14.033C13.0244 14.0567 13.0342 14.0802 13.0493 14.0998C14.7601 16.3213 16.4715 18.5423 18.1829 20.7633L18.8725 21.6582C18.9083 21.7046 18.9439 21.7513 18.9794 21.798C19.0636 21.9086 19.1478 22.0192 19.2359 22.1267C19.2843 22.1856 19.2792 22.2202 19.2299 22.276C18.2077 23.4326 17.187 24.5906 16.1662 25.7485C15.9724 25.9684 15.7785 26.1883 15.5847 26.4081C15.4154 26.6002 15.246 26.7923 15.0767 26.9844C14.5168 27.6194 13.957 28.2545 13.3977 28.89C13.3781 28.9122 13.3627 28.938 13.3472 28.9638C13.34 28.9759 13.3327 28.9879 13.3251 28.9996Z" fill="#0D1625"/>
</svg>
