<svg width="42" height="42" viewBox="0 0 42 42" fill="none" xmlns="http://www.w3.org/2000/svg">
<path fill-rule="evenodd" clip-rule="evenodd" d="M42 0H0V42H42V0ZM21.175 14H21.0637V14.0013H20.8225C19.6323 14.0058 18.4421 14.0285 17.2525 14.0694L17.0387 14.0787L16.9312 14.0827L16.7162 14.0908L16.5037 14.1001C15.1163 14.1668 13.795 14.2736 13.1862 14.4471C12.7617 14.5697 12.3748 14.8094 12.0644 15.142C11.754 15.4747 11.5309 15.8886 11.4175 16.3423C11.2913 16.8481 11.2025 17.5208 11.1425 18.2135L11.13 18.3523L11.1025 18.6993L11.0925 18.8381L11.0887 18.9075L11.08 19.0449C11.0125 20.1393 11.0025 21.131 11 21.4179V21.5821C11.0066 22.4888 11.0408 23.3951 11.1025 24.2994L11.1125 24.4382L11.1225 24.5783C11.185 25.3418 11.2775 26.1012 11.4163 26.6577C11.5298 27.1112 11.753 27.5248 12.0634 27.8572C12.3738 28.1896 12.7606 28.429 13.185 28.5516C13.7937 28.7277 15.115 28.8332 16.5025 28.8986L16.7162 28.9079L16.93 28.9173L17.0387 28.9226L17.2512 28.9306C18.9263 28.992 20.5238 29 20.91 29H21.0875C21.8512 28.9987 27.3625 28.9693 28.8125 28.5529C29.237 28.4303 29.6239 28.1906 29.9344 27.858C30.2448 27.5253 30.4679 27.1114 30.5812 26.6577C30.72 26.0998 30.8125 25.3418 30.875 24.5783L30.8862 24.4395L30.8962 24.2994C30.9862 23.0288 30.9975 21.809 30.9987 21.55V21.45C30.9975 21.2004 30.9875 20.0579 30.9062 18.8381L30.8962 18.6993L30.8688 18.3523L30.8563 18.2135C30.7962 17.5208 30.7075 16.8495 30.5812 16.3423C30.4675 15.8888 30.2443 15.475 29.9339 15.1425C29.6236 14.8099 29.2369 14.5701 28.8125 14.4471C27.4088 14.044 22.2025 14.004 21.175 14ZM19 24.7145V18.2842L24.1963 21.5007L19 24.7145Z" fill="#0D1625"/>
</svg>
