<?xml version="1.0" encoding="UTF-8"?>
<svg id="Ebene_2" data-name="Ebene 2" xmlns="http://www.w3.org/2000/svg" viewBox="0 0 80 80">
  <defs>
    <style>
      .cls-1 {
        fill: #fff;
        stroke: #6f4e37;
        stroke-linecap: round;
        stroke-linejoin: round;
        stroke-width: 1.03px;
      }

      .cls-2 {
        fill: #6f4e37;
      }
    </style>
  </defs>
  <g id="Layer_4" data-name="Layer 4">
    <g id="Layer_2" data-name="Layer 2">
      <circle class="cls-2" cx="40" cy="40" r="40"/>
      <g>
        <path class="cls-1" d="M54.24,42.47c9.04,2.18,6.85-3.14,3.08-8.56-3.51-4.09-9.51-5.04-12.32-9.93-.8-.93-1.52-4.41-2.68-4.29-3.11,5.13-.51,12.21,3.38,16.84,2.47,2.94,5.5,5.05,8.55,5.95Z"/>
        <path class="cls-1" d="M44.28,18.67c-.62,.65-.71,1.41-.52,2.17,2.14,7.41,10.01,8.52,14.32,13.82,1.59,1.98,2.09,4.64,3.79,6.52,2.6-1.06,2.54-4.67,2.26-7.56-1.11-8.44-11.69-19.71-19.85-14.95Z"/>
        <path class="cls-1" d="M37.93,33.33c1.66,9.69-3.24,7.14-8.19,2.9-3.7-3.89-4.34-10.3-8.83-13.49-.84-.89-4.09-1.8-3.92-3.03,4.96-3.08,11.51-.03,15.7,4.3,2.66,2.74,4.52,6.05,5.24,9.32Z"/>
        <path class="cls-1" d="M15.51,21.28c.64-.63,1.35-.69,2.07-.46,6.88,2.58,7.59,10.98,12.4,15.77,1.8,1.76,4.28,2.42,5.97,4.3-1.11,2.71-4.5,2.49-7.21,2.08-7.9-1.54-18.05-13.23-13.23-21.69Z"/>
        <path class="cls-1" d="M28.94,55.03c-3.9,8.89,1.45,7.81,7.22,5.11,4.49-2.72,6.63-8.73,11.72-10.55,1.02-.63,4.38-.59,4.5-1.82-4.06-4.37-11.11-3.27-16.18-.27-3.22,1.9-5.8,4.57-7.26,7.53Z"/>
        <path class="cls-1" d="M52.75,50.27c-.47-.79-1.15-1.05-1.89-1.03-7.26,.56-9.93,8.47-15.71,11.75-2.15,1.2-4.71,1.13-6.79,2.47,.43,2.93,3.76,3.68,6.47,4.03,7.99,.74,20.57-7.7,17.91-17.23Z"/>
      </g>
    </g>
  </g>
</svg>