<?xml version="1.0" encoding="UTF-8"?>
<svg id="Ebene_2" data-name="Ebene 2" xmlns="http://www.w3.org/2000/svg" viewBox="0 0 80 80">
  <defs>
    <style>
      .cls-1 {
        stroke-width: .98px;
      }

      .cls-1, .cls-2 {
        fill: #fff;
        stroke: #17b138;
        stroke-miterlimit: 10;
      }

      .cls-3 {
        stroke: #fff;
        stroke-linecap: round;
        stroke-linejoin: round;
      }

      .cls-3, .cls-4 {
        fill: #17b138;
      }

      .cls-3, .cls-2 {
        stroke-width: .99px;
      }
    </style>
  </defs>
  <g id="Layer_4" data-name="Layer 4">
    <g id="Layer_2" data-name="Layer 2">
      <circle class="cls-4" cx="40" cy="40" r="40"/>
      <g>
        <path class="cls-1" d="M51.66,61.17c-1.31-2.21-2.26-5.12-1.68-5.44,.65-.36,3.06,2.91,3.44,3.43,.72,.98,3.13,4.25,2.22,5.29-.23,.26-.59,.29-.69,.3-1.35,.11-2.46-2.19-3.28-3.58Z"/>
        <path class="cls-2" d="M62.1,40.37c-1.25,.95-2.21,.65-3.57,1.29-.49,.23-1.85,.96-3.86,5.59-2.35,5.4-1.72,7.25-3.83,8.67-1.56,1.05-3.62,1.2-4.15,1.24-1.66,.12-2.51-.26-4.66-.19-1.38,.05-2.5,.25-3.21,.41-2.94,.99-4.24,2.38-4.87,3.56-.56,1.06-.77,2.32-1.24,2.31-.63,0-.55-2.24-1.97-2.91-.78-.37-1.44,.02-2.54,.17-1.96,.28-3.55-.43-5.21-1.17-4.68-2.09-6.55-6.42-6.98-7.45-.48-1.16-1.26-3.1-.96-5.62,.18-1.5,.67-2.68,1.06-3.43-.56-.96-1.39-2.69-1.57-4.98-.08-1.07-.3-4.47,2.12-7.6,2.33-3.02,5.57-3.82,6.49-4.02-.06-.42-.53-4.63,2.76-7.6,2.69-2.43,5.99-2.3,6.51-2.27,1.9,.1,3.32,.79,4.06,1.22,.62-.56,1.6-1.31,2.97-1.91,0,0,2.08-.91,4.26-.93,5.05-.05,8.82,5.06,9.01,5.33,1.07,.2,6.27,1.3,9.48,6.07,2.37,3.52,2.69,7.6,1.95,10.54-.26,1.05-.68,2.62-2.06,3.68Z"/>
        <path class="cls-3" d="M50.36,56.48c-4.62,3.09-10.44-1.67-14.89,2.23-2.38,2.09-2.34,4.88-3.21,4.77-1.32-.17-3.31-6.8,.23-10.57,2.37-2.52,5.97-2.42,6.65-2.39-.23-.42-.62-1.07-1.22-1.79-.86-1.03-1.45-1.36-1.36-1.63,.09-.29,.88-.51,4.37-.04-.19-.68-.54-1.66-1.18-2.73-1.19-1.97-2.44-2.65-2.24-2.97,.28-.46,3.21,.4,5.6,2.23,.79,.6,1.37,1.2,1.76,1.64-.14-.93-.31-2.95,.78-4.97,1.97-3.64,6.76-4.9,7.31-4.19,.34,.44-1.15,1.49-1.97,4.25-.4,1.35-.48,2.53-.47,3.35,.49-.8,3.15-5.03,7.18-5.1,2.1-.04,4.47,1.06,4.41,1.8-.05,.65-1.95,.61-3.57,1.29-5.65,2.35-3.01,11.38-8.17,14.82Z"/>
      </g>
    </g>
  </g>
</svg>