<?xml version="1.0" encoding="UTF-8"?>
<svg id="Ebene_2" data-name="Ebene 2" xmlns="http://www.w3.org/2000/svg" viewBox="0 0 80 80">
  <defs>
    <style>
      .cls-1, .cls-2 {
        fill: #0f7625;
      }

      .cls-3 {
        fill: #fff;
      }

      .cls-3, .cls-2 {
        stroke-miterlimit: 10;
      }

      .cls-3, .cls-4 {
        stroke: #0f7625;
      }

      .cls-5, .cls-2 {
        stroke: #fff;
      }

      .cls-5, .cls-4 {
        fill: none;
        stroke-linecap: round;
        stroke-linejoin: round;
      }
    </style>
  </defs>
  <g id="Layer_4" data-name="Layer 4">
    <g id="Layer_2" data-name="Layer 2">
      <circle class="cls-1" cx="40" cy="40" r="40"/>
    </g>
    <g>
      <g>
        <path class="cls-3" d="M58.03,60.37H31.43c-2.23-1.41-3.73-5.13-3.77-9.29-.03-4.27,1.48-8.14,3.77-9.58h26.6v18.87Z"/>
        <ellipse class="cls-3" cx="58.03" cy="50.93" rx="5.46" ry="9.44"/>
        <ellipse class="cls-3" cx="58.03" cy="50.93" rx="4.34" ry="7.5"/>
        <ellipse class="cls-3" cx="58.03" cy="50.93" rx="2.03" ry="3.5"/>
        <line class="cls-4" x1="53.47" y1="45.73" x2="44.01" y2="45.73"/>
        <line class="cls-4" x1="52.35" y1="51.55" x2="48.09" y2="51.55"/>
        <line class="cls-4" x1="53.47" y1="57.52" x2="46.42" y2="57.37"/>
        <line class="cls-4" x1="37.96" y1="51.14" x2="32.62" y2="51.14"/>
        <line class="cls-4" x1="37.3" y1="45.73" x2="34.29" y2="45.73"/>
        <line class="cls-4" x1="44.5" y1="54.43" x2="34.29" y2="54.43"/>
      </g>
      <g>
        <path class="cls-3" d="M43.86,60.44H17.26c-2.23-1.41-3.73-5.13-3.77-9.29-.03-4.27,1.48-8.14,3.77-9.58h26.6v18.87Z"/>
        <ellipse class="cls-3" cx="43.86" cy="51" rx="5.46" ry="9.44"/>
        <ellipse class="cls-3" cx="43.86" cy="51" rx="4.34" ry="7.5"/>
        <ellipse class="cls-3" cx="43.86" cy="51" rx="2.03" ry="3.5"/>
        <line class="cls-4" x1="39.3" y1="45.8" x2="29.84" y2="45.8"/>
        <line class="cls-4" x1="38.18" y1="51.62" x2="33.92" y2="51.62"/>
        <line class="cls-4" x1="39.3" y1="57.59" x2="32.25" y2="57.44"/>
        <line class="cls-4" x1="23.79" y1="51.21" x2="18.45" y2="51.21"/>
        <line class="cls-4" x1="23.13" y1="45.8" x2="20.12" y2="45.8"/>
        <line class="cls-4" x1="30.33" y1="54.51" x2="20.12" y2="54.51"/>
      </g>
      <g>
        <path class="cls-3" d="M52.71,41.93H26.11c-2.23-1.41-3.73-5.13-3.77-9.29-.03-4.27,1.48-8.14,3.77-9.58h26.6v18.87Z"/>
        <ellipse class="cls-3" cx="52.71" cy="32.5" rx="5.46" ry="9.44"/>
        <ellipse class="cls-3" cx="52.71" cy="32.5" rx="4.34" ry="7.5"/>
        <ellipse class="cls-3" cx="52.71" cy="32.5" rx="2.03" ry="3.5"/>
        <line class="cls-4" x1="48.15" y1="27.3" x2="38.69" y2="27.3"/>
        <line class="cls-4" x1="47.03" y1="33.11" x2="42.77" y2="33.11"/>
        <line class="cls-4" x1="48.15" y1="39.09" x2="41.1" y2="38.93"/>
        <line class="cls-4" x1="32.64" y1="32.71" x2="27.3" y2="32.71"/>
        <line class="cls-4" x1="31.98" y1="27.3" x2="28.97" y2="27.3"/>
        <line class="cls-4" x1="39.19" y1="36" x2="28.97" y2="36"/>
      </g>
      <path class="cls-2" d="M40.14,16.23c.33-1.64,1.12-2.49,2.02-3.44,.71-.76,1.98-1.88,3.84-2.35,.16,1.1,.36,3.26-.14,5.72-.29,1.42-.69,3.4-1.94,4.47-1.52,1.31-3.15,.26-3.42,.08-.19-.57-.77-2.44-.36-4.47Z"/>
      <line class="cls-5" x1="39.4" y1="23.06" x2="45.92" y2="10.65"/>
    </g>
  </g>
</svg>