<?xml version="1.0" encoding="UTF-8"?><svg id="Ebene_2" xmlns="http://www.w3.org/2000/svg" viewBox="0 0 51 51"><defs><style>.cls-1{fill:#3e3940;stroke-linecap:round;stroke-linejoin:round;stroke-width:.25px;}.cls-1,.cls-2{stroke:#3e3940;}.cls-2{fill:#27e34f;fill-rule:evenodd;stroke-miterlimit:10;}</style></defs><g id="Layer_4"><g><path class="cls-2" d="M21.1,41.98c-.93,0-1.75,.55-1.75,1.23,0,.14,0,.27,.06,.41h11.61c.06-.14,.06-.27,.06-.41,0-.68-.82-1.23-1.75-1.23h-.7v-7.28h.7c.93,0,1.75-.59,1.75-1.28,0-.36-.17-.68-.52-.91-.53,.09-.99,.18-1.52,.23v-1.82c5.54-1,9.86-4.6,10.68-9.06,2.1-.14,3.97-.87,5.54-2.09,5.43-4.28,5.25-13.89,5.25-14.25,0-.77-.82-1.37-1.75-1.37h-8.93V1.18c0-.36-.41-.68-.88-.68H12.05c-.47,0-.88,.32-.88,.68v2.96H2.25c-.93,0-1.75,.59-1.75,1.37,0,.37-.17,9.97,5.19,14.25,1.57,1.23,3.5,1.96,5.6,2.09,.82,4.46,5.13,8.06,10.68,9.06v1.91l-.17-.05c-.64-.05-1.28-.18-1.93-.27-.35,.23-.52,.55-.52,.91,0,.68,.82,1.28,1.75,1.28h.7v7.28h-.7Zm16.63,8.13v-4.44c0-.26-.29-.44-.64-.44h-1.81c-.35,0-.64-.17-.64-.44v-.74c0-.26-.29-.44-.7-.44H16.43c-.41,0-.7,.17-.7,.44v.74c0,.26-.29,.44-.64,.44h-1.75c-.41,0-.7,.17-.7,.44v4.44c0,.22,.29,.39,.7,.39h23.74c.35,0,.64-.17,.64-.39h0ZM5.15,8.17h5.92v9.71c-.93-.11-1.71-.44-2.45-.98-2.59-1.96-3.38-6.29-3.47-8.73h0Zm40.78,0c-.1,2.44-.92,6.76-3.64,8.73-.77,.55-1.59,.87-2.57,.98V8.17h6.21Z"/><path class="cls-1" d="M24.1,22.5c-.39,0-.81-.03-1.24-.08-.44-.05-.86-.12-1.26-.21-.41-.09-.78-.18-1.11-.28-.33-.1-.6-.2-.79-.28l.63-2.71c.38,.16,.86,.33,1.45,.51,.59,.18,1.32,.27,2.19,.27,1,0,1.74-.19,2.2-.57,.47-.38,.7-.89,.7-1.53,0-.39-.08-.72-.25-.99s-.4-.49-.69-.65c-.29-.17-.64-.28-1.04-.35-.4-.07-.83-.1-1.28-.1h-1.26v-2.62h1.44c.32,0,.63-.03,.93-.09,.3-.06,.56-.16,.8-.29,.23-.14,.42-.33,.56-.57,.14-.24,.21-.54,.21-.91,0-.28-.06-.52-.17-.72-.12-.2-.27-.37-.45-.5s-.39-.23-.63-.29c-.24-.07-.48-.1-.73-.1-.63,0-1.2,.1-1.73,.28-.53,.19-1.01,.42-1.45,.7l-1.16-2.38c.23-.15,.5-.3,.82-.46,.31-.16,.66-.31,1.04-.44s.78-.24,1.21-.33c.43-.09,.88-.13,1.36-.13,.89,0,1.66,.11,2.3,.32,.65,.21,1.18,.51,1.6,.89,.42,.38,.73,.83,.94,1.35,.2,.52,.31,1.08,.31,1.69s-.17,1.17-.5,1.73-.79,.98-1.35,1.27c.79,.32,1.39,.8,1.82,1.43,.43,.63,.64,1.39,.64,2.28,0,.7-.12,1.34-.35,1.93s-.6,1.1-1.09,1.53-1.12,.76-1.89,1c-.76,.24-1.67,.36-2.72,.36Z"/></g></g></svg>