<?xml version="1.0" encoding="UTF-8"?><svg id="Ebene_2" xmlns="http://www.w3.org/2000/svg" viewBox="0 0 51 51"><defs><style>.cls-1{fill:#3e3940;stroke-linecap:round;stroke-linejoin:round;stroke-width:.25px;}.cls-1,.cls-2{stroke:#3e3940;}.cls-2{fill:#27e34f;fill-rule:evenodd;stroke-miterlimit:10;}</style></defs><g id="Layer_4"><g><path class="cls-2" d="M21.1,41.98c-.93,0-1.75,.55-1.75,1.23,0,.14,0,.27,.06,.41h11.61c.06-.14,.06-.27,.06-.41,0-.68-.82-1.23-1.75-1.23h-.7v-7.28h.7c.93,0,1.75-.59,1.75-1.28,0-.36-.17-.68-.52-.91-.53,.09-.99,.18-1.52,.23v-1.82c5.54-1,9.86-4.6,10.68-9.06,2.1-.14,3.97-.87,5.54-2.09,5.43-4.28,5.25-13.89,5.25-14.25,0-.77-.82-1.37-1.75-1.37h-8.93V1.18c0-.36-.41-.68-.88-.68H12.05c-.47,0-.88,.32-.88,.68v2.96H2.25c-.93,0-1.75,.59-1.75,1.37,0,.37-.17,9.97,5.19,14.25,1.57,1.23,3.5,1.96,5.6,2.09,.82,4.46,5.13,8.06,10.68,9.06v1.91l-.17-.05c-.64-.05-1.28-.18-1.93-.27-.35,.23-.52,.55-.52,.91,0,.68,.82,1.28,1.75,1.28h.7v7.28h-.7Zm16.63,8.13v-4.44c0-.26-.29-.44-.64-.44h-1.81c-.35,0-.64-.17-.64-.44v-.74c0-.26-.29-.44-.7-.44H16.43c-.41,0-.7,.17-.7,.44v.74c0,.26-.29,.44-.64,.44h-1.75c-.41,0-.7,.17-.7,.44v4.44c0,.22,.29,.39,.7,.39h23.74c.35,0,.64-.17,.64-.39h0ZM5.15,8.17h5.92v9.71c-.93-.11-1.71-.44-2.45-.98-2.59-1.96-3.38-6.29-3.47-8.73h0Zm40.78,0c-.1,2.44-.92,6.76-3.64,8.73-.77,.55-1.59,.87-2.57,.98V8.17h6.21Z"/><path class="cls-1" d="M26.98,17.72c0-.42-.09-.8-.28-1.12-.19-.33-.52-.6-.98-.82s-1.09-.39-1.88-.5c-.79-.12-1.78-.17-2.97-.17,.16-1.35,.29-2.73,.39-4.12,.1-1.4,.18-2.71,.24-3.93h8.18v2.73h-5.45c-.03,.52-.06,1.03-.1,1.52-.04,.49-.08,.91-.12,1.28,2.12,.15,3.69,.64,4.7,1.49s1.52,2.03,1.52,3.55c0,.7-.12,1.35-.37,1.94-.25,.6-.62,1.11-1.11,1.55-.5,.44-1.12,.78-1.87,1.03-.75,.25-1.63,.37-2.63,.37-.39,0-.8-.03-1.23-.08-.43-.05-.84-.12-1.24-.2-.4-.08-.76-.16-1.08-.25-.32-.09-.57-.17-.74-.26l.59-2.68c.36,.16,.84,.32,1.44,.47,.6,.15,1.31,.23,2.14,.23,1,0,1.73-.2,2.18-.6,.45-.4,.68-.87,.68-1.41Z"/></g></g></svg>