<?xml version="1.0" encoding="UTF-8"?><svg id="Ebene_2" xmlns="http://www.w3.org/2000/svg" viewBox="0 0 51 51"><defs><style>.cls-1{fill:#3e3940;}.cls-2{fill:#27e34f;stroke:#3e3940;stroke-linecap:round;stroke-linejoin:round;}</style></defs><g id="Layer_4"><g><rect class="cls-2" x=".5" y=".5" width="50" height="50"/><g><path class="cls-1" d="M27.17,23.02c.44-.5,.81-1,1.26-1.43,1.4-1.32,3.06-1.99,4.99-1.97,1.06,0,2.11,.09,3.14,.38,2.34,.68,3.71,2.29,4.35,4.58,.49,1.72,.58,3.48,.58,5.25,0,3.73-.01,7.46,0,11.19,0,.35-.1,.44-.44,.44-1.92-.02-3.84-.02-5.76,0-.34,0-.41-.1-.41-.42,.01-3.55,.01-7.1,0-10.65,0-.89-.06-1.78-.31-2.64-.46-1.59-1.6-2.4-3.27-2.32-2.28,.12-3.46,1.25-3.75,3.57-.07,.55-.1,1.11-.1,1.66,0,3.45,0,6.9,0,10.35,0,.34-.09,.45-.44,.44-1.94-.02-3.87-.02-5.81,0-.31,0-.4-.08-.4-.4,0-6.83,0-13.67,0-20.5,0-.34,.11-.42,.43-.41,1.84,.01,3.68,.02,5.51,0,.34,0,.43,.11,.42,.43-.02,.82,0,1.63,0,2.45Z"/><path class="cls-1" d="M16.64,30.83c0,3.38,0,6.76,0,10.14,0,.38-.09,.49-.48,.49-1.92-.02-3.84-.02-5.76,0-.31,0-.4-.07-.4-.39,0-6.84,0-13.69,0-20.53,0-.28,.07-.38,.37-.38,1.95,.01,3.9,.02,5.85,0,.37,0,.43,.14,.42,.46,0,3.41,0,6.82,0,10.23Z"/><path class="cls-1" d="M17.17,13.36c0,2.12-1.72,3.85-3.84,3.85-2.09,0-3.83-1.73-3.83-3.82,0-2.11,1.73-3.85,3.84-3.85,2.1,0,3.83,1.73,3.83,3.82Z"/></g></g></g></svg>