<?xml version="1.0" standalone="no"?>
<!DOCTYPE svg PUBLIC "-//W3C//DTD SVG 20010904//EN"
 "http://www.w3.org/TR/2001/REC-SVG-20010904/DTD/svg10.dtd">
<svg version="1.0" xmlns="http://www.w3.org/2000/svg"
 width="820.000000pt" height="820.000000pt" viewBox="0 0 820.000000 820.000000"
 preserveAspectRatio="xMidYMid meet">
<metadata>
Created by potrace 1.14, written by Peter Selinger 2001-2017
</metadata>
<g transform="translate(0.000000,820.000000) scale(0.100000,-0.100000)"
fill="#000000" stroke="none">
<path d="M5755 7879 c48 -50 188 -193 570 -584 160 -163 289 -302 287 -307 -2
-6 -24 -32 -50 -58 -26 -26 -171 -175 -322 -330 -151 -155 -340 -349 -420
-430 -80 -81 -275 -282 -435 -445 -159 -164 -350 -359 -423 -434 -74 -75 -257
-262 -407 -416 -150 -154 -379 -388 -509 -520 l-236 -240 -42 46 c-24 25 -68
74 -98 108 -30 35 -71 80 -90 101 -19 20 -64 70 -100 110 -36 40 -74 82 -85
95 -11 12 -54 59 -95 106 -90 100 -166 184 -200 220 -14 15 -50 55 -80 89 -30
35 -71 80 -90 101 -19 21 -57 63 -85 94 -27 31 -66 74 -86 96 l-36 39 -311
-307 c-171 -170 -593 -587 -937 -928 -344 -341 -816 -808 -1048 -1037 l-422
-417 -1 -646 c0 -355 2 -645 6 -645 6 0 126 118 1353 1333 1265 1253 1351
1337 1363 1337 7 0 17 -6 21 -14 4 -7 44 -52 87 -100 43 -47 88 -97 100 -110
12 -13 46 -52 76 -86 30 -34 73 -81 95 -105 22 -23 65 -71 95 -105 30 -34 71
-79 90 -100 19 -20 64 -70 100 -110 36 -40 74 -82 85 -94 11 -12 49 -55 85
-96 36 -41 81 -90 100 -110 19 -20 59 -65 88 -98 30 -34 58 -62 62 -62 5 0 25
17 45 38 20 20 171 174 335 342 164 168 342 351 397 407 54 56 231 237 393
403 162 166 348 356 414 423 65 67 246 253 402 412 155 160 351 360 434 445
83 85 268 274 410 420 143 146 339 347 438 448 l178 184 65 -67 c72 -75 175
-180 564 -578 148 -152 272 -273 275 -268 3 5 5 566 4 1248 l0 1238 -1224 3
-1224 2 39 -41z"/>
<path d="M7128 5118 c-116 -120 -489 -502 -893 -915 -110 -113 -249 -256 -310
-318 -60 -62 -252 -257 -425 -435 -441 -451 -495 -507 -850 -871 -321 -329
-378 -387 -673 -688 l-168 -171 -22 24 c-12 13 -51 57 -87 97 -36 40 -72 80
-80 89 -8 9 -53 59 -99 111 -47 52 -89 99 -95 104 -6 6 -45 48 -86 95 -41 47
-78 87 -81 90 -3 3 -43 48 -90 100 -46 52 -91 102 -99 111 -8 9 -33 36 -55 61
-128 143 -206 228 -248 273 l-48 50 -29 -32 c-16 -18 -31 -33 -34 -33 -2 0
-55 -51 -119 -112 -63 -62 -217 -212 -342 -333 -125 -121 -264 -256 -310 -300
-91 -88 -263 -255 -640 -620 -137 -132 -281 -271 -320 -310 -40 -38 -181 -176
-315 -305 -133 -129 -282 -273 -330 -320 -48 -47 -129 -125 -179 -174 -51 -49
-90 -90 -87 -93 3 -3 7334 -6 8073 -3 81 0 82 0 75 23 -9 28 -9 58 1 74 4 6 3
14 -2 17 -5 3 -6 21 -1 39 4 18 3 43 -1 56 -6 13 -5 30 1 42 6 10 7 19 3 19
-10 0 -10 41 0 57 4 7 3 14 -2 18 -6 3 -7 15 -1 29 4 12 5 29 0 36 -4 7 -5 23
0 34 4 11 4 33 -1 48 -4 15 -4 30 0 32 7 5 5 81 -3 103 -3 7 -1 13 5 13 6 0 7
4 4 10 -9 15 -12 80 -3 80 4 0 4 10 -1 23 -5 13 -5 30 0 39 6 10 6 19 0 23 -7
4 -7 15 -1 30 6 17 6 25 -1 25 -6 0 -7 5 -4 11 9 14 10 194 1 207 -3 6 -2 13
4 17 7 4 7 12 0 24 -5 10 -7 21 -4 24 8 8 11 137 3 137 -4 0 -3 18 1 39 4 21
3 46 -2 54 -5 9 -4 18 1 22 7 3 7 15 1 29 -5 13 -6 27 -3 30 8 8 9 76 1 76 -4
0 -3 13 2 30 5 18 5 32 -1 36 -5 3 -6 10 -2 17 8 13 7 102 -2 117 -3 5 -3 10
2 10 9 0 9 52 0 67 -4 6 -4 13 0 17 6 6 6 96 0 146 -2 14 -1 29 2 34 8 16 7
57 -1 62 -5 3 -5 10 -1 17 10 16 10 57 0 57 -4 0 -4 8 0 17 10 22 10 54 0 70
-4 6 -4 14 0 16 7 4 9 131 3 147 -1 3 -1 10 0 15 6 27 4 118 -3 122 -4 2 -4 9
-1 15 8 13 8 123 0 137 -4 6 -4 11 1 11 7 0 9 215 3 245 -1 6 -1 15 0 20 5 23
2 174 -4 183 -3 5 -3 12 1 15 9 10 9 238 0 244 -4 2 -4 9 -1 15 9 15 8 103 -1
118 -5 7 -4 11 1 7 5 -3 9 10 9 28 0 18 -3 31 -7 29 -4 -3 -5 2 -1 12 9 25 10
337 0 351 -4 6 -3 14 2 17 18 12 -7 56 -62 111 -28 29 -158 161 -287 294 -421
432 -548 561 -556 561 -4 0 -61 -55 -126 -122z"/>
</g>
</svg>
