<svg width="78" height="78" viewBox="0 0 78 78" fill="none" xmlns="http://www.w3.org/2000/svg">
<path d="M53.8113 3.31334C55.2074 5.29155 56.5871 7.19723 57.9053 9.14643C58.2933 9.7194 58.7502 10.0168 59.4065 10.1564C61.4681 10.5934 63.5169 11.1029 65.5838 11.5108C66.2003 11.6323 66.4161 11.9279 66.5357 12.4809C66.9872 14.5715 67.4314 16.664 67.9645 18.7347C68.0914 19.2297 68.4576 19.7628 68.8692 20.071C70.6062 21.3729 72.3957 22.6077 74.1835 23.8443C74.5769 24.1163 74.7129 24.3465 74.6096 24.8687C74.1817 27.0265 73.8009 29.1969 73.4818 31.3727C73.4111 31.8496 73.538 32.4479 73.7864 32.8632C74.8978 34.7271 76.0709 36.5567 77.2585 38.3753C77.5613 38.8395 77.5939 39.1677 77.273 39.6518C76.0927 41.4378 74.9958 43.2782 73.81 45.0606C73.4256 45.6372 73.3567 46.183 73.4745 46.8285C73.8934 49.1403 74.2868 51.4558 74.6984 53.8184C72.742 55.191 70.8002 56.5654 68.842 57.9144C68.318 58.2753 68.0044 58.6959 67.8702 59.3396C67.4296 61.4629 66.9147 63.5716 66.4614 65.6913C66.3599 66.1663 66.1822 66.3767 65.6781 66.4818C63.5259 66.9297 61.3774 67.4066 59.2488 67.9596C58.7574 68.0865 58.2389 68.4673 57.9289 68.8807C56.6452 70.5942 55.4358 72.3639 54.2065 74.1173C53.9345 74.5053 53.6898 74.7156 53.1168 74.6032C50.8994 74.1698 48.6674 73.809 46.4337 73.4699C46.0638 73.4137 45.596 73.5026 45.2769 73.6966C43.3713 74.8589 41.4857 76.0538 39.6182 77.2777C39.1431 77.5877 38.8095 77.566 38.3417 77.2614C36.4996 76.0556 34.6411 74.8734 32.7537 73.7383C32.3892 73.5189 31.8544 73.4228 31.4301 73.4863C29.345 73.7945 27.2636 74.1481 25.193 74.5434C24.4442 74.6866 23.9981 74.5162 23.5648 73.8598C22.4026 72.0974 21.1715 70.3784 19.9204 68.6776C19.6811 68.3531 19.2604 68.0611 18.8706 67.9632C16.7094 67.4247 14.5355 66.9243 12.3543 66.4746C11.8194 66.364 11.6091 66.17 11.5003 65.6423C11.0742 63.5771 10.572 61.5264 10.1423 59.4611C9.99903 58.7721 9.71075 58.2771 9.11242 57.8727C7.36094 56.6942 5.66024 55.4412 3.91783 54.25C3.4573 53.9345 3.30499 53.6099 3.40834 53.0514C3.81448 50.8593 4.19886 48.6616 4.53066 46.4568C4.5905 46.0615 4.47083 45.5647 4.26051 45.2184C3.12006 43.3344 1.94334 41.4741 0.737617 39.6319C0.429386 39.1623 0.416694 38.8286 0.724925 38.3554C1.94697 36.4878 3.14363 34.6039 4.30765 32.6982C4.50347 32.379 4.59594 31.9076 4.53973 31.5377C4.22062 29.4525 3.85618 27.3746 3.47543 25.2985C3.33944 24.5605 3.40109 24.0455 4.14084 23.5723C5.86693 22.4681 7.49511 21.2097 9.19582 20.0619C9.74338 19.6939 10.0081 19.2424 10.1405 18.6222C10.5901 16.5316 11.1014 14.4519 11.5257 12.3558C11.6363 11.81 11.872 11.616 12.3778 11.5072C14.5572 11.034 16.733 10.548 18.896 10.0095C19.2858 9.9116 19.7101 9.62511 19.9494 9.30236C21.273 7.50366 22.5476 5.67232 23.8277 3.84098C24.087 3.46927 24.3045 3.29883 24.843 3.404C27.0895 3.84461 29.3541 4.20544 31.6169 4.55176C31.9595 4.60434 32.3947 4.52093 32.6902 4.33961C34.6194 3.16103 36.5359 1.95706 38.4251 0.713199C38.8857 0.410393 39.1884 0.444844 39.6218 0.725891C41.4422 1.90992 43.268 3.09031 45.1355 4.19818C45.5743 4.45928 46.2052 4.59346 46.7093 4.51912C49.0627 4.1728 51.4016 3.73219 53.8076 3.31515L53.8113 3.31334ZM38.9799 66.5362C53.9926 66.5471 66.5158 54.1919 66.5303 39.3563C66.5448 23.9349 54.3207 11.48 39.1576 11.4673C23.8821 11.4546 11.4858 23.7627 11.4695 38.9592C11.4532 54.1303 23.8186 66.5254 38.9799 66.5362Z" fill="white"/>
<path d="M39.0833 15.6032C52.0235 15.6069 62.4 26.0781 62.3946 39.1278C62.3891 51.9671 51.8894 62.4184 39.0071 62.4112C25.8838 62.4021 15.4873 51.9254 15.6161 38.6038C15.7412 25.73 26.299 15.5289 39.0833 15.6032ZM54.2228 29.4725C51.9691 27.8261 49.8079 26.2486 47.5941 24.6294C43.2643 30.2195 38.9745 35.7607 34.643 41.3526C32.7428 39.7316 30.9442 38.1994 29.1202 36.6437C27.3053 38.7633 25.5665 40.7959 23.7896 42.8721C27.9036 46.4024 31.9432 49.8692 36.0282 53.3741C42.1203 45.3725 48.1434 37.4578 54.2228 29.4725Z" fill="white"/>
</svg>
