<svg width="25" height="25" viewBox="0 0 25 25" fill="none" xmlns="http://www.w3.org/2000/svg">
<path d="M10 16.5L16.4875 12.75L10 9V16.5ZM24.45 6.7125C24.6125 7.3 24.725 8.0875 24.8 9.0875C24.8875 10.0875 24.925 10.95 24.925 11.7L25 12.75C25 15.4875 24.8 17.5 24.45 18.7875C24.1375 19.9125 23.4125 20.6375 22.2875 20.95C21.7 21.1125 20.625 21.225 18.975 21.3C17.35 21.3875 15.8625 21.425 14.4875 21.425L12.5 21.5C7.2625 21.5 4 21.3 2.7125 20.95C1.5875 20.6375 0.8625 19.9125 0.55 18.7875C0.3875 18.2 0.275 17.4125 0.2 16.4125C0.1125 15.4125 0.0749999 14.55 0.0749999 13.8L0 12.75C0 10.0125 0.2 8 0.55 6.7125C0.8625 5.5875 1.5875 4.8625 2.7125 4.55C3.3 4.3875 4.375 4.275 6.025 4.2C7.65 4.1125 9.1375 4.075 10.5125 4.075L12.5 4C17.7375 4 21 4.2 22.2875 4.55C23.4125 4.8625 24.1375 5.5875 24.45 6.7125Z" fill="#1F1D20"/>
</svg>
