<?xml version="1.0" encoding="UTF-8"?><svg id="Ebene_2" xmlns="http://www.w3.org/2000/svg" viewBox="0 0 50.15 50.52"><defs><style>.cls-1{stroke-width:.44px;}.cls-1,.cls-2,.cls-3{fill:#3e3940;}.cls-1,.cls-3,.cls-4{stroke:#fff;stroke-miterlimit:10;}.cls-3{stroke-width:.3px;}.cls-4{fill:#fff;stroke-width:.37px;}</style></defs><g id="Layer_4"><g id="Layer_2"><g><g><polygon class="cls-1" points="33.5 27.63 11.94 37.1 4.16 33.73 8.54 31.96 9.49 31.58 25.41 25.15 30.45 26.7 31.96 27.16 33.5 27.63"/><polygon class="cls-1" points="4.15 33.77 2.65 40.21 11.68 45.07 11.93 37.18 4.15 33.77"/><polygon class="cls-1" points="33.51 27.7 34.81 32.83 11.68 45.07 11.93 37.23 33.51 27.7"/></g><path class="cls-3" d="M50,1.95V.45c0-.16-.15-.3-.33-.3H23.11c-.18,0-.33,.13-.33,.3V1.95c0,.16,.15,.3,.33,.3h.17c.18,0,.33,.13,.33,.3V12.5c0,.16-.15,.3-.33,.3h-.17c-.18,0-.33,.13-.33,.3v1.51c0,.16,.15,.3,.33,.3h.17c.18,0,.33,.13,.33,.3v9.95c0,.16-.15,.3-.33,.3h-.17c-.18,0-.33,.13-.33,.3v1.51c0,.16,.15,.3,.33,.3h.17c.18,0,.33,.13,.33,.3v9.95c0,.16-.15,.3-.33,.3h-.17c-.18,0-.33,.13-.33,.3v1.51c0,.16,.15,.3,.33,.3h26.56c.18,0,.33-.13,.33-.3v-1.51c0-.16-.15-.3-.33-.3h-.17c-.18,0-.33-.13-.33-.3v-9.95c0-.16,.15-.3,.33-.3h.17c.18,0,.33-.13,.33-.3v-1.51c0-.16-.15-.3-.33-.3h-.17c-.18,0-.33-.13-.33-.3V15.2c0-.16,.15-.3,.33-.3h.17c.18,0,.33-.13,.33-.3v-1.51c0-.16-.15-.3-.33-.3h-.17c-.18,0-.33-.13-.33-.3V2.55c0-.16,.15-.3,.33-.3h.17c.18,0,.33-.13,.33-.3Zm-1.15,37.49H23.94c-.18,0-.33-.13-.33-.3h0c0-.16,.15-.3,.33-.3h24.91c.18,0,.33,.13,.33,.3h0c0,.16-.15,.3-.33,.3Zm0-12.65H23.94c-.18,0-.33-.13-.33-.3h0c0-.16,.15-.3,.33-.3h24.91c.18,0,.33,.13,.33,.3h0c0,.16-.15,.3-.33,.3Zm0-12.65H23.94c-.18,0-.33-.13-.33-.3h0c0-.16,.15-.3,.33-.3h24.91c.18,0,.33,.13,.33,.3h0c0,.16-.15,.3-.33,.3ZM23.61,1.2h0c0-.16,.15-.3,.33-.3h24.91c.18,0,.33,.13,.33,.3h0c0,.16-.15,.3-.33,.3H23.94c-.18,0-.33-.13-.33-.3Z"/><g><polygon class="cls-1" points="42.87 32.71 21.31 42.19 13.53 38.81 17.91 37.04 18.86 36.66 34.78 30.24 39.82 31.78 41.33 32.24 42.87 32.71"/><polygon class="cls-1" points="13.52 38.85 12.02 45.29 21.05 50.15 21.31 42.26 13.52 38.85"/><polygon class="cls-1" points="42.88 32.78 44.18 37.91 21.05 50.15 21.3 42.31 42.88 32.78"/></g><g><path class="cls-4" d="M9.31,26.66l9.96-10.28c.24-.23,1.7-1.72,1.37-3.51-.38-2.04-2.92-3.74-6.07-3.49-.14-.14-1.63-1.53-3.85-1.25-2.1,.27-3.12,1.81-3.24,2-1.51-.33-3.08,.17-3.98,1.25-1.16,1.39-.62,3.04-.57,3.19-.21,.11-2.25,1.19-2.54,3.46-.3,2.37,1.59,3.9,1.74,4.01-.03,.32-.15,2.21,1.37,3.64,1.43,1.35,3.74,1.74,5.82,.98Z"/><path class="cls-2" d="M3.82,26.35c1.76,1.11,3.97,1.22,5.89,.42,.21,.32,.5,.61,.86,.87,.13,.09,.39,.07,.41-.12,.19-1.97,1.77-3.09,3.79-3.4,1-.15,1.95-.31,2.71-.88,.17,.2,.35,.41,.54,.61,.51,.55,1.04,1.29,1.79,1.56,.24,.09,.53-.09,.44-.34-.22-.65-.86-1.1-1.37-1.58-.3-.28-.6-.54-.92-.79,0-.11-.05-.22-.13-.3,.33-.7,.45-1.45,.52-2.24,.11-1.25,.16-2.79,1.22-3.66,2.65-.63,1.78-4.02,.56-5.42-1.19-1.37-3.6-2.64-5.57-2.07-1.04-.84-2.58-1.31-3.8-1.17-1.38,.15-2.64,.93-3.41,1.99-1.56-.34-3.24,.13-4.22,1.33-.75,.92-1.06,2.36-.49,3.43C1.23,15.26,.16,16.73,.02,18.1c-.14,1.31,.44,2.7,1.5,3.59-.58,1.69,.85,3.74,2.31,4.66Zm0-.75c-1.26-1.02-1.47-2.21-1.79-3.54,.43,.26,.92,.45,1.45,.53,.13,.02,.18-.13,.07-.19-1.67-.9-3.1-2.43-2.86-4.33,.26-2.07,2.05-2.97,3.97-3.56,.15-.05,.16-.29-.02-.3-.52-.06-1.03,.02-1.51,.17-.15-.94-.19-1.82,.46-2.69,.77-1.02,2.08-1.43,3.38-1.27-.28,.55-.43,1.15-.41,1.76,0,.24,.44,.28,.47,.03,.25-1.91,1.65-3.66,3.92-3.75,2.3-.1,3.39,1.39,4.52,2.91,.07,.1,.21,.04,.22-.06,.06-.7-.21-1.33-.67-1.85,1.38,.27,2.64,.49,3.79,1.43,.76,.62,1.34,1.44,1.55,2.35,.22,.93-.05,1.53-.55,2.14-1.86-.18-3.35,1-3.57,2.57-.32-.78-.21-1.64,.3-2.42,.22-.34-.26-.63-.58-.48-1.74,.83-2.65,2.59-2.21,4.19-.88-.58-2.01-.8-3.15-.64-.35,.05-.46,.44-.14,.61,.76,.41,1.44,.86,2.07,1.39-.54-.05-1.09,.02-1.64,.21-.2,.07-.31,.34-.11,.47l1.19,.85c-2.09,.37-3.23,2.34-2.6,4.03-1.8,.78-4.04,.67-5.57-.56Z"/></g></g></g></g></svg>