<?xml version="1.0" encoding="UTF-8"?><svg id="Ebene_2" xmlns="http://www.w3.org/2000/svg" viewBox="0 0 50.5 51.05"><defs><style>.cls-1{font-family:Ubuntu-Medium, Ubuntu;font-size:7.79px;}.cls-1,.cls-2,.cls-3{fill:#3e3940;}.cls-2{fill-rule:evenodd;}.cls-3{stroke:#fff;stroke-linecap:round;stroke-linejoin:round;}</style></defs><g id="Layer_4"><g><ellipse class="cls-3" cx="23.67" cy="21.01" rx="6.61" ry="6.52"/><path class="cls-3" d="M3.46,29.82c.99,.14,1.58,.81,1.74,1l4.2,8.58,4.56-8.01c.29-.57,.83-1.43,1.81-2,1.02-.59,2.03-.59,2.49-.6,2.19,0,6.39-.06,11.9-.05,.4-.03,1.26-.03,2.21,.42,.89,.42,1.42,1.03,1.65,1.35l3.98,6.67,4.13-8.29c.2-.27,.63-.74,1.3-.93,1.33-.37,2.94,.55,3.33,1.86,.2,.67,.03,1.28-.07,1.57-2.2,4.55-4.39,9.1-6.59,13.65-.24,.14-.56,.28-.94,.36-1.25,.26-2.28-.3-2.61-.5l-4.56-7.15v10.79c.02,.22,.03,.57-.14,.93-.3,.63-1,1.03-1.81,1.07l-13.17-.14c-.19-.06-.46-.19-.72-.43-.52-.48-.63-1.09-.65-1.29l-.07-9.01-4.34,6.93c-.24,.22-.64,.53-1.23,.71-1.13,.36-2.1-.02-2.39-.14-2.24-4.65-4.49-9.29-6.73-13.94-.07-.17-.45-1.14,.04-2.11,.51-1.01,1.7-1.46,2.71-1.32Z"/><path class="cls-2" d="M37.51,13.81c-.07,.06-.14,.09-.22,.09s-.16-.03-.22-.09l-.47-1.28s-.05-.06-.07-.1l-.48-1.18h-.03c-.09,0-.17-.04-.25-.09l-.9,.9,.18,1.31c.02,.17-.1,.32-.27,.34-.02,0-.03,0-.04,0-.16,0-.29-.11-.31-.27l-.2-1.46c0-.1,.02-.19,.09-.26l1.14-1.15v-.02l.28-2.51h-1.2s-.09,0-.14-.02l-1.28-.61c-.15-.07-.21-.25-.15-.4l-1.64-2.58c-.1-.16-.05-.37,.12-.47h0c.16-.09,.38-.02,.46,.15l1.25,2.72c.07-.02,.15-.02,.21,.02l1.22,.58h1.73s.07,0,.11,0c.34,.03,.59,.34,.55,.68l-.29,2.57c0,.11-.04,.19-.1,.27l.48,1.16,.44,1.19c.12,.12,.1,.36-.02,.48h0Zm-1.04-6.8c.49,0,.88-.4,.88-.88s-.39-.87-.88-.87-.88,.4-.88,.87,.39,.88,.88,.88h0Zm-3.2-2c.2,0,.38-.17,.38-.37s-.17-.37-.38-.37-.38,.17-.38,.37,.17,.37,.38,.37h0Z"/><path class="cls-2" d="M16.74,6.52c-.01-.38-.14-.66-.37-.84-.45-.34-1.15-.17-1.28-.14l-.3-.06h-.03c-.3,.01-1.38,.32-1.54,.37-.29-.04-.54-.08-.76-.13-.77-.15-1.27-.24-2.5,.15-1.48,.48-2.48,1.5-2.62,1.64-.08,.04-.16,.07-.23,.09l-.29-.21,.24-.04c.1-.02,.12-.08,.06-.14-.06-.06-.19-.09-.29-.07l-.78,.17c-.1,.02-.12,.08-.06,.14,.06,.06,.19,.09,.28,.06l.12-.02,.37,.26c-.43,.19-.42,.21-.4,.28,.19,.57,.16,.72,.15,.75l-.15-.06,.19,.59,.1,.07c.02,.09,.08,.16,.16,.21,.26,.15,.69,.02,.75,0,.14-.05,.42-.22,.61-.34-.02-.02-.05-.04-.06-.06-.03-.03-.04-.05-.06-.07-.05-.07-.09-.15-.12-.24-.14-.44,.1-.91,.54-1.05s.92,.1,1.07,.54c.06,.19,.05,.39-.02,.56-.01,.04-.03,.07-.05,.11-.02,.04-.04,.08-.08,.11,.93-.29,3.55-1.12,5.35-1.66-.04-.01-.07-.04-.1-.06-.03-.02-.06-.04-.08-.07-.11-.09-.19-.21-.24-.36-.14-.44,.09-.91,.54-1.05s.92,.1,1.07,.54c.05,.16,.06,.33,0,.48,0,.03-.02,.07-.04,.1-.01,.04-.03,.07-.05,.1,.17-.05,.31-.09,.43-.13,.62-.2,.73-.28,.71-.4,0-.03-.02-.11-.25-.13h0Zm-1.4,.86c.09-.03,.16-.07,.22-.12,.04-.03,.08-.08,.12-.12,.02-.03,.05-.07,.06-.11,.07-.15,.09-.32,.03-.48-.12-.35-.49-.54-.85-.43s-.55,.49-.43,.84c.05,.16,.15,.27,.28,.35,.03,.02,.08,.04,.11,.06,.05,.03,.1,.04,.16,.04,.09,.01,.19,0,.29-.02h0Zm-.35-1.07c.25-.08,.51,.05,.6,.3s-.05,.51-.3,.59-.51-.05-.6-.3,.05-.51,.3-.59h0Zm-6.66,2.85c.17,.14,.4,.18,.62,.11h.02c.08-.03,.15-.08,.21-.13,.04-.04,.08-.08,.11-.13,.11-.16,.15-.38,.09-.58-.11-.34-.49-.54-.85-.43s-.54,.49-.43,.84c.02,.07,.06,.13,.1,.19,.02,.02,.04,.05,.06,.06,.02,.02,.04,.04,.06,.06h0Zm.27-.96c.25-.08,.52,.06,.6,.3s-.05,.51-.3,.59-.51-.05-.6-.3,.05-.51,.3-.59h0Zm2.25-2.01l.97-.31c.08-.03,.17,.01,.2,.09l.12,.35c.03,.08-.02,.16-.1,.19l-.97,.31c-.08,.03-.16-.02-.19-.09l-.12-.35c-.03-.08,.02-.16,.1-.19h0Zm-1.81,.58l.98-.31c.08-.03,.16,.02,.19,.09l.12,.35c.03,.08-.02,.16-.1,.19l-.98,.31c-.08,.03-.16-.02-.19-.09l-.12-.35c-.03-.08,.02-.16,.1-.19h0Z"/><path class="cls-2" d="M4.58,16.27c.38-.14,.58-.56,.44-.94s-.58-.57-.96-.42-.57,.56-.43,.94,.58,.56,.95,.42h0Zm-.06,4.9c-.4-1.03-1.56-1.55-2.6-1.16s-1.57,1.54-1.17,2.57c.4,1.03,1.57,1.55,2.6,1.16s1.57-1.54,1.17-2.57h0Zm-2.58-1.11c.25-.09,.5-.13,.75-.12,.27,0,.51,.06,.75,.16,.23,.1,.45,.26,.63,.44,.17,.18,.31,.4,.4,.64s.14,.5,.13,.74c0,.26-.07,.51-.17,.74s-.25,.44-.45,.62c-.18,.16-.4,.31-.65,.4s-.5,.13-.75,.12c-.26,0-.52-.07-.74-.17-.23-.1-.45-.25-.63-.44-.17-.18-.31-.4-.4-.64s-.14-.5-.13-.74c0-.25,.07-.51,.17-.74,.1-.23,.26-.43,.44-.61,.18-.17,.4-.31,.64-.41h0Zm1.34,.41c-.19-.08-.39-.13-.6-.14-.2,0-.4,.03-.6,.1s-.37,.18-.51,.31c-.16,.14-.27,.31-.35,.5-.09,.18-.14,.38-.14,.58,0,.2,.02,.4,.1,.6s.19,.37,.33,.51c.14,.15,.3,.27,.5,.35,.36,.16,.79,.18,1.19,.03,.2-.07,.38-.18,.52-.32,.15-.14,.27-.31,.36-.49,.08-.19,.12-.38,.13-.59,0-.19-.03-.4-.1-.59s-.18-.36-.32-.51c-.14-.15-.31-.26-.49-.34h0Zm5.5,1.24c1.04-.39,1.57-1.54,1.17-2.57s-1.56-1.55-2.6-1.16-1.57,1.54-1.17,2.57,1.56,1.55,2.6,1.16h0Zm-1.41-3.68c.25-.09,.5-.13,.75-.12,.26,0,.51,.06,.75,.16,.23,.11,.44,.26,.62,.45,.17,.18,.31,.4,.4,.64s.14,.5,.13,.74c0,.26-.07,.51-.17,.74-.1,.23-.26,.44-.45,.62-.18,.16-.4,.31-.65,.4s-.5,.13-.75,.12c-.27,0-.52-.07-.75-.17-.23-.1-.45-.25-.63-.44-.17-.18-.31-.4-.4-.64s-.13-.5-.13-.74c0-.25,.07-.51,.17-.74,.11-.23,.26-.43,.45-.61,.18-.17,.4-.31,.64-.41h0Zm1.33,.41c-.18-.09-.38-.13-.59-.14-.2,0-.4,.03-.6,.1s-.38,.18-.52,.32c-.15,.14-.27,.31-.35,.5-.08,.18-.13,.38-.14,.58,0,.2,.03,.4,.1,.59s.19,.37,.32,.51c.14,.15,.31,.26,.49,.35,.37,.16,.79,.18,1.2,.03,.2-.07,.37-.18,.52-.32,.15-.14,.27-.31,.35-.49,.09-.19,.13-.39,.14-.59,0-.19-.03-.4-.1-.59s-.18-.36-.32-.51c-.14-.15-.31-.26-.5-.34h0Zm-3.8-.59c.13,.1,.25,.11,.35,.07l1.34-.5c.41-.15,.21-.69-.21-.54l-1.16,.44-1.21-.9s-.26-.21-.57-.09c0,0-.26,.06-.37,.34l-.91,2c-.05,.13-.06,.29,0,.44,.08,.21,.28,.36,.49,.39l1.8,.26,.06,.16c.08,.22,.34,.33,.55,.25s.33-.33,.25-.55l-.21-.55s-.06-.32-.48-.37l-1.03-.13,.58-1.25,.72,.52Z"/><path class="cls-2" d="M48.24,16.39h-.17l.55,2.32h1.41l.47-2.32h-2.26Zm-.1-1.21c0-.37-.3-.67-.68-.67s-.68,.3-.68,.67,.3,.68,.68,.68,.68-.31,.68-.68h0Zm-3.21,2.21c.12,0,.22-.02,.33-.05,.23-.09,.43-.26,.53-.49,.11-.23,.12-.48,.03-.71-.14-.37-.5-.61-.89-.61-.11,0-.22,.02-.32,.06-.49,.18-.74,.72-.56,1.2,.13,.36,.49,.6,.88,.6h0Zm2.32-1.26l-.12-.04c-.14-.05-.3,.03-.37,.15l-.58,1.19c-.03,.07-.12,.14-.2,.14l-.57,.09-1.15,.08h-.02c-.09,0-.16,.03-.22,.08l-2.25,1.8c-.05,.05-.09,.12-.09,.19,0,.07,.04,.14,.1,.18l.23,.16c.05,.04,.12,.05,.19,.05,.09,0,.16-.02,.22-.07l1.23-1-.37,1.47s0,.02-.02,.03l-.47,1.17c-.04,.1-.15,.21-.26,.26l-1.33,.5c-.09,.04-.15,.1-.17,.18-.02,.08,0,.17,.07,.24l.12,.13c.09,.09,.22,.15,.35,.15,.05,0,.1,0,.14-.02l1.4-.5c.15-.05,.32-.21,.38-.34l.48-1.09,.26-.03,.07,.53c.02,.11-.02,.3-.06,.41l-.69,1.46c-.04,.08-.04,.18,0,.24,.04,.08,.12,.12,.21,.13l.18,.02h.04c.16,0,.33-.1,.4-.24l.67-1.32c.06-.13,.12-.34,.12-.49l.02-1.1,.51-2.61,.77-.11c.13-.02,.27-.13,.32-.25l.61-1.47c.03-.07,.03-.15,0-.21-.03-.07-.09-.12-.16-.15h0Zm2.24,.79l-.19-.35-.18,.35,.18,.34,.19-.34Zm-.5,0l-.18-.35-.18,.35,.18,.34,.18-.34Zm1,0l-.18-.35-.18,.35,.18,.34,.18-.34Zm-.18,.61l-.18,.34,.18,.34,.18-.34-.18-.34Zm-.25-.48l-.19,.34,.19,.35,.18-.35-.18-.34Zm-.43,.83l.18,.34,.19-.34-.19-.34-.18,.34Zm-.5,0l.18,.34,.18-.34-.18-.34-.18,.34Zm.43-.83l-.18,.34,.18,.35,.18-.35-.18-.34Zm.8,1.54l-.05-.09-.05,.09h-.14l.12-.23-.18-.34-.19,.34,.12,.23h-.14l-.05-.09-.05,.09h-.14l.12-.23-.18-.34-.18,.34,.12,.24h-.15l-.05-.1-.05,.1h-.02l-.04-.15,.05-.08-.12-.23-.12-.5,.06,.11,.18-.35-.18-.34-.14,.26-.05-.18,.11-.21-.2-.4h.14l.14,.26,.13-.26h.23l.13,.26,.13-.26h.23l.14,.26,.13-.26h.23l.13,.26,.14-.26h.14l-.21,.4,.1,.19-.04,.19-.13-.25-.18,.34,.18,.35,.07-.14-.09,.44-.15,.31,.07,.13-.02,.1h-.07Z"/><text class="cls-1" transform="translate(22.42 6.6) scale(1.01 1)"><tspan x="0" y="0">$</tspan></text></g></g></svg>