<?xml version="1.0" encoding="UTF-8"?><svg id="Ebene_2" xmlns="http://www.w3.org/2000/svg" viewBox="0 0 40 50"><defs><style>.cls-1{fill:#3e3940;}.cls-2{fill:#fff;font-family:Ubuntu-Bold, Ubuntu;font-size:23.25px;}.cls-3{fill:none;stroke:#fff;stroke-miterlimit:10;stroke-width:1.11px;}</style></defs><g id="Layer_4"><g id="Layer_2"><g><path class="cls-1" d="M7.07,45.98c2.3,.9,6.84,2.34,12.71,2.07,5.84-.27,10.17-2.1,12.36-3.19,1.05-1.51,6.09-9.13,3.69-19.02-2.59-10.7-11.9-15.78-13.43-16.58,1.13-3.08,2.26-6.15,3.39-9.23-5.65,0-11.29-.02-16.94-.03,1.35,3.09,2.71,6.17,4.06,9.26C11.74,9.89,1.45,15.73,.13,27.32c-1.19,10.45,5.83,17.57,6.94,18.66Z"/><text class="cls-2" transform="translate(10.85 36.06) scale(1.11 1)"><tspan x="0" y="0">$</tspan></text><path class="cls-3" d="M12.91,9.26c1,.37,2.74,.86,4.94,.83,2-.03,3.59-.48,4.55-.83"/></g></g></g></svg>