<?xml version="1.0" encoding="UTF-8"?><svg id="Ebene_2" xmlns="http://www.w3.org/2000/svg" viewBox="0 0 50.54 50.66"><defs><style>.cls-1,.cls-2{fill:#fff;}.cls-3,.cls-4{fill:#3e3940;}.cls-3,.cls-2{stroke:#fff;stroke-miterlimit:10;stroke-width:.5px;}</style></defs><g id="Layer_4"><g><polygon class="cls-1" points="48.63 40.03 7.4 49.72 1.88 24.65 43.1 14.97 48.63 40.03"/><path class="cls-3" d="M48.03,21.99c1.16,4.35,1.01,3.57,1.28,4.77,.28,1.2,.61,2.79,.94,4.67l-3.47,1.16,2.02,8c-13.93,3.26-27.86,6.52-41.8,9.78-.34-1.5-5.03-23.25-5.63-25.89,13.11-2.97,26.22-5.93,39.32-8.9-13.11,2.97-26.22,5.93-39.32,8.9-.18-.23-1.49-1.97-1.02-4.32,.51-2.55,2.68-3.6,2.9-3.7L39.42,8.26l1.63,7.25,2.13-.38,.56,2.65c.31,0,2.04,.05,3.28,1.49,.24,.28,1.09,1.28,1.02,2.72-.11,2.06-2.02,3.13-2.13,3.18-4.78,1.09-9.55,2.17-14.33,3.26-.11,.09-.54,.46-.95,1.06-.56,.83-.76,1.79-.76,2.46,.01,1.59,1.27,3.2,3.15,3.98,4.59-1.12,9.18-2.23,13.76-3.35l-3.04-14.81c.87,.08,2.3,.36,3.28,1.49,.46,.54,.57,1.03,1.02,2.72Z"/><ellipse class="cls-4" cx="34.23" cy="31.78" rx="1.45" ry="1.5"/><g><polygon class="cls-3" points="37.13 13.86 12.69 34.25 2.13 20.75 26.56 .36 37.13 13.86"/><path class="cls-1" d="M28.53,7.24c-.37,.56-.99,.96-1.74,1.04-1.19,.13-2.25-.6-2.47-1.65L13.09,15.7l3.89,5.13,13.55-10.94-2-2.64Z"/></g><polygon class="cls-3" points="41.49 18.65 13.33 37.47 4.19 22.91 32.35 4.08 41.49 18.65"/><path class="cls-1" d="M33.61,11.14c-.42,.51-1.09,.85-1.84,.85-1.2,0-2.18-.84-2.29-1.91l-12.08,7.79,3.34,5.53,14.59-9.41-1.72-2.84Z"/><path class="cls-3" d="M33.64,25.65c-6.86,4.29-13.72,8.59-20.59,12.88-1.81-1.7-7.42-6.53-7.46-6.6-.08-.15-.14-.31-.17-.48l-1.21-6.09c-.18-.93,.4-1.83,1.29-2.02l34.59-7.31c.9-.19,1.78,.41,1.96,1.34l1.21,6.09c-3.21,.74-6.42,1.47-9.63,2.21Z"/><line class="cls-2" x1="1.38" y1="24.47" x2="41.04" y2="15.51"/><ellipse class="cls-1" cx="13.24" cy="35.32" rx=".99" ry="1.02"/></g></g></svg>