<?xml version="1.0" encoding="UTF-8"?><svg id="Ebene_2" xmlns="http://www.w3.org/2000/svg" viewBox="0 0 51 51"><defs><style>.cls-1,.cls-2{fill:#27e34f;}.cls-3,.cls-4{fill:#3e3940;}.cls-5{fill:#fff;stroke-width:.5px;}.cls-5,.cls-4,.cls-2{stroke:#3e3940;stroke-linecap:round;stroke-linejoin:round;}.cls-4{stroke-width:.25px;}</style></defs><g id="Layer_4"><g><polygon class="cls-1" points="48.87 40.17 7.65 49.86 2.13 24.79 43.35 15.11 48.87 40.17"/><path class="cls-2" d="M48.28,22.13c1.16,4.35,1.01,3.57,1.28,4.77,.28,1.2,.61,2.79,.94,4.67l-3.47,1.16,2.02,8c-13.93,3.26-27.86,6.52-41.8,9.78-.34-1.5-5.03-23.25-5.63-25.89,13.11-2.97,26.22-5.93,39.32-8.9-13.11,2.97-26.22,5.93-39.32,8.9-.18-.23-1.49-1.97-1.02-4.32,.51-2.55,2.68-3.6,2.9-3.7L39.67,8.4l1.63,7.25,2.13-.38,.56,2.65c.31,0,2.04,.05,3.28,1.49,.24,.28,1.09,1.28,1.02,2.72-.11,2.06-2.02,3.13-2.13,3.18-4.78,1.09-9.55,2.17-14.33,3.26-.11,.09-.54,.46-.95,1.06-.56,.83-.76,1.79-.76,2.46,.01,1.59,1.27,3.2,3.15,3.98,4.59-1.12,9.18-2.23,13.76-3.35l-3.04-14.81c.87,.08,2.3,.36,3.28,1.49,.46,.54,.57,1.03,1.02,2.72Z"/><ellipse class="cls-4" cx="34.48" cy="31.92" rx="1.45" ry="1.5"/><polygon class="cls-2" points="37.37 14 12.94 34.39 2.38 20.89 26.81 .5 37.37 14"/><path class="cls-3" d="M28.78,7.38c-.37,.56-.99,.96-1.74,1.04-1.19,.13-2.25-.6-2.47-1.65L13.34,15.84l3.89,5.13,13.55-10.94-2-2.64Z"/><polygon class="cls-2" points="41.73 18.79 13.57 37.61 4.44 23.05 32.6 4.22 41.73 18.79"/><path class="cls-3" d="M33.85,11.28c-.42,.51-1.09,.85-1.84,.85-1.2,0-2.18-.84-2.29-1.91l-12.08,7.79,3.34,5.53,14.59-9.41-1.72-2.84Z"/><path class="cls-2" d="M33.89,25.79c-6.86,4.29-13.72,8.59-20.59,12.88-1.81-1.7-7.42-6.53-7.46-6.6-.08-.15-.14-.31-.17-.48l-1.21-6.09c-.18-.93,.4-1.83,1.29-2.02l34.59-7.31c.9-.19,1.78,.41,1.96,1.34l1.21,6.09c-3.21,.74-6.42,1.47-9.63,2.21Z"/><line class="cls-5" x1="1.62" y1="24.61" x2="41.29" y2="15.65"/><ellipse class="cls-4" cx="13.49" cy="35.46" rx=".99" ry="1.02"/><path class="cls-1" d="M46.37,32.42c-2.37,.55-4.74,1.11-7.11,1.66-.2-.11-.41-.22-.61-.33l-1.26-5.6s-.03-.14,.04-.25c.07-.11,.18-.14,.21-.14,2.8-.63,5.59-1.26,8.39-1.89,.14-.03,.3-.08,.48-.16,.11-.05,.2-.1,.29-.15,.24,2.15,.48,4.31,.73,6.46-.38,.13-.76,.27-1.15,.4Z"/></g></g></svg>