<svg width="22" height="25" viewBox="0 0 22 25" fill="none" xmlns="http://www.w3.org/2000/svg">
<path d="M21.9286 20.2381V21.4286H0.5V20.2381L2.88095 17.8571V10.7143C2.88095 7.02381 5.29762 3.77381 8.83333 2.72619V2.38095C8.83333 1.74948 9.08418 1.14388 9.5307 0.697365C9.97721 0.25085 10.5828 0 11.2143 0C11.8458 0 12.4514 0.25085 12.8979 0.697365C13.3444 1.14388 13.5952 1.74948 13.5952 2.38095V2.72619C17.131 3.77381 19.5476 7.02381 19.5476 10.7143V17.8571L21.9286 20.2381ZM13.5952 22.619C13.5952 23.2505 13.3444 23.8561 12.8979 24.3026C12.4514 24.7491 11.8458 25 11.2143 25C10.5828 25 9.97721 24.7491 9.5307 24.3026C9.08418 23.8561 8.83333 23.2505 8.83333 22.619" fill="white"/>
</svg>
