<svg width="31" height="25" viewBox="0 0 31 25" fill="none" xmlns="http://www.w3.org/2000/svg">
<path d="M27.9242 12.8788L30.0455 15.0152L20.1515 25L14.8939 19.697L17.0152 17.5606L20.1515 20.7121L27.9242 12.8788ZM11.1061 19.697L15.6515 24.2424H0.5V21.2121C0.5 17.8636 5.92424 15.1515 12.6212 15.1515L15.4848 15.3182L11.1061 19.697ZM12.6212 0C14.2286 0 15.7701 0.638526 16.9067 1.77511C18.0433 2.91169 18.6818 4.45323 18.6818 6.06061C18.6818 7.66798 18.0433 9.20952 16.9067 10.3461C15.7701 11.4827 14.2286 12.1212 12.6212 12.1212C11.0138 12.1212 9.4723 11.4827 8.33572 10.3461C7.19913 9.20952 6.56061 7.66798 6.56061 6.06061C6.56061 4.45323 7.19913 2.91169 8.33572 1.77511C9.4723 0.638526 11.0138 0 12.6212 0Z" fill="white"/>
</svg>
