<svg width="228" height="274" viewBox="0 0 228 274" fill="none" xmlns="http://www.w3.org/2000/svg">
<path d="M202.198 21.0327H25.2873C11.3294 21.0327 0.0142822 32.365 0.0142822 46.3441V247.822C0.0142822 261.801 11.3294 273.134 25.2873 273.134H202.198C216.156 273.134 227.471 261.801 227.471 247.822V46.3441C227.471 32.365 216.156 21.0327 202.198 21.0327Z" fill="#C8102E"/>
<path d="M25.2873 21.0327H202.198C208.901 21.0327 215.33 23.6994 220.069 28.4462C224.809 33.193 227.471 39.6311 227.471 46.3441V156.701H0.0142822V46.3441C0.0142822 39.6311 2.67697 33.193 7.41658 28.4462C12.1562 23.6994 18.5845 21.0327 25.2873 21.0327Z" fill="#D90429"/>
<mask id="mask0_35_146" style="mask-type:luminance" maskUnits="userSpaceOnUse" x="0" y="21" width="118" height="253">
<path d="M92.0081 21.0327H25.2873C11.3294 21.0327 0.0142822 32.365 0.0142822 46.3441V247.822C0.0142822 261.801 11.3294 273.134 25.2873 273.134H92.0081C105.966 273.134 117.281 261.801 117.281 247.822V46.3441C117.281 32.365 105.966 21.0327 92.0081 21.0327Z" fill="white"/>
</mask>
<g mask="url(#mask0_35_146)">
<path d="M55.534 -5.29102H51.9048C43.4156 -5.29102 36.5338 1.60127 36.5338 10.1033V49.6801C36.5338 58.1822 43.4156 65.0745 51.9048 65.0745H55.534C64.0232 65.0745 70.9051 58.1822 70.9051 49.6801V10.1033C70.9051 1.60127 64.0232 -5.29102 55.534 -5.29102Z" fill="#94031B"/>
</g>
<path d="M55.2763 0.783691H52.1626C47.5788 0.783691 43.863 4.50521 43.863 9.09593V50.1813C43.863 54.772 47.5788 58.4935 52.1626 58.4935H55.2763C59.86 58.4935 63.5759 54.772 63.5759 50.1813V9.09593C63.5759 4.50521 59.86 0.783691 55.2763 0.783691Z" fill="#FC7575"/>
<mask id="mask1_35_146" style="mask-type:luminance" maskUnits="userSpaceOnUse" x="121" y="21" width="107" height="253">
<path d="M202.198 21.0327H147.103C133.145 21.0327 121.83 32.365 121.83 46.3441V247.822C121.83 261.801 133.145 273.134 147.103 273.134H202.198C216.156 273.134 227.471 261.801 227.471 247.822V46.3441C227.471 32.365 216.156 21.0327 202.198 21.0327Z" fill="white"/>
</mask>
<g mask="url(#mask1_35_146)">
<path d="M177.35 -5.29102H173.721C165.232 -5.29102 158.35 1.60127 158.35 10.1033V49.6801C158.35 58.1822 165.232 65.0745 173.721 65.0745H177.35C185.839 65.0745 192.721 58.1822 192.721 49.6801V10.1033C192.721 1.60127 185.839 -5.29102 177.35 -5.29102Z" fill="#94031B"/>
</g>
<path d="M177.092 0.783691H173.979C169.395 0.783691 165.679 4.50521 165.679 9.09593V50.1813C165.679 54.772 169.395 58.4935 173.979 58.4935H177.092C181.676 58.4935 185.392 54.772 185.392 50.1813V9.09593C185.392 4.50521 181.676 0.783691 177.092 0.783691Z" fill="#FC7575"/>
</svg>
