<svg width="15" height="19" viewBox="0 0 15 19" fill="none" xmlns="http://www.w3.org/2000/svg">
<g clip-path="url(#clip0_35_5354)">
<path d="M14.9979 15.5357C14.9979 15.7098 14.9343 15.8605 14.807 15.9877C14.6798 16.115 14.5291 16.1786 14.355 16.1786H9.71439C9.72109 16.2924 9.74118 16.5854 9.77466 17.0575C9.80814 17.5296 9.82488 17.8929 9.82488 18.1473C9.82488 18.3147 9.76461 18.457 9.64408 18.5742C9.52354 18.6914 9.37957 18.75 9.21216 18.75H5.99787C5.83046 18.75 5.68649 18.6914 5.56595 18.5742C5.44542 18.457 5.38515 18.3147 5.38515 18.1473C5.38515 17.8929 5.40189 17.5296 5.43537 17.0575C5.46885 16.5854 5.48894 16.2924 5.49564 16.1786H0.855015C0.680908 16.1786 0.530239 16.115 0.403006 15.9877C0.275774 15.8605 0.212158 15.7098 0.212158 15.5357C0.212158 15.3616 0.275774 15.2109 0.403006 15.0837L4.44095 11.0357H2.14073C1.96662 11.0357 1.81595 10.9721 1.68872 10.8449C1.56149 10.7176 1.49787 10.567 1.49787 10.3929C1.49787 10.2188 1.56149 10.0681 1.68872 9.94085L5.72667 5.89286H3.74787C3.57377 5.89286 3.4231 5.82924 3.29586 5.70201C3.16863 5.57478 3.10502 5.42411 3.10502 5.25C3.10502 5.07589 3.16863 4.92522 3.29586 4.79799L7.15301 0.940848C7.28024 0.813616 7.43091 0.75 7.60502 0.75C7.77912 0.75 7.92979 0.813616 8.05702 0.940848L11.9142 4.79799C12.0414 4.92522 12.105 5.07589 12.105 5.25C12.105 5.42411 12.0414 5.57478 11.9142 5.70201C11.7869 5.82924 11.6363 5.89286 11.4622 5.89286H9.48336L13.5213 9.94085C13.6485 10.0681 13.7122 10.2188 13.7122 10.3929C13.7122 10.567 13.6485 10.7176 13.5213 10.8449C13.3941 10.9721 13.2434 11.0357 13.0693 11.0357H10.7691L14.807 15.0837C14.9343 15.2109 14.9979 15.3616 14.9979 15.5357Z" fill="#F9FDFF"/>
</g>
<defs>
<clipPath id="clip0_35_5354">
<rect width="14.79" height="18" fill="white" transform="translate(0.209961 0.75)"/>
</clipPath>
</defs>
</svg>
