<svg width="42" height="21" viewBox="0 0 42 21" fill="none" xmlns="http://www.w3.org/2000/svg">
<path fill-rule="evenodd" clip-rule="evenodd" d="M41.7272 1.26588C41.6198 0.406749 40.832 0.150953 40.5135 0.0796365C40.1118 -0.0103204 39.6335 -0.0123076 39.1719 0.0164281C38.2248 0.0753796 37.0134 0.289251 35.8338 0.540912C33.4583 1.0477 31.0226 1.74956 30.6612 1.85419C20.6442 4.75384 11.4622 10.1819 3.03492 16.0179C3.24901 15.3016 3.50618 14.4255 3.74178 13.5811C3.96693 12.7743 4.17707 11.9798 4.31055 11.3773C4.37595 11.0821 4.43039 10.8004 4.45479 10.5765C4.46584 10.4751 4.47847 10.3221 4.46173 10.166C4.45413 10.0952 4.43273 9.9379 4.34631 9.76741C4.25108 9.57954 4.00872 9.26344 3.55348 9.20653C3.00546 9.13803 2.50567 9.52676 2.43716 10.0748C2.42174 10.1982 2.4295 10.3191 2.45703 10.4332C2.44013 10.5487 2.40795 10.7188 2.3579 10.9447C2.23658 11.4922 2.03845 12.2441 1.81537 13.0436C1.37088 14.6366 0.846009 16.3523 0.692621 16.8508C0.583464 17.2055 0.503319 17.5703 0.434537 17.8834L0.434525 17.8835C0.417856 17.9594 0.401855 18.0322 0.386269 18.1011C0.300821 18.4789 0.219556 18.7838 0.0989836 19.0594C0.0641427 19.139 0.00739206 19.2887 0.000633075 19.4801C-0.00691651 19.694 0.0507654 19.9984 0.297677 20.2497C0.523328 20.4794 0.786097 20.5392 0.925937 20.5559C1.07038 20.5732 1.19156 20.5586 1.26166 20.547C1.50192 20.5074 1.75061 20.3925 1.87481 20.3343C2.00775 20.2721 2.15026 20.1994 2.2626 20.1421L2.26267 20.142L2.32523 20.1101C2.38981 20.0773 2.43741 20.0536 2.47234 20.0371L2.47964 20.0337C3.09214 19.8571 3.7563 19.6303 4.40432 19.4065L4.59674 19.34C5.20235 19.1307 5.7926 18.9266 6.34925 18.7554C6.57472 18.686 6.80649 18.6178 7.04239 18.5483C7.98535 18.2708 8.99445 17.9739 9.9322 17.505C10.4262 17.258 10.6264 16.6573 10.3794 16.1633C10.1324 15.6694 9.53175 15.4691 9.03777 15.7161C8.27438 16.0978 7.48405 16.3313 6.56513 16.6028L6.56496 16.6029C6.30781 16.6788 6.04059 16.7578 5.76108 16.8438C5.51555 16.9193 5.26448 17.0007 5.01192 17.0848C13.1339 11.5224 21.8299 6.49273 31.2173 3.77531C31.572 3.67262 33.9499 2.98782 36.2511 2.4969C37.4098 2.2497 38.5026 2.06195 39.2961 2.01256C39.5962 1.99389 39.8113 1.99818 39.9522 2.01247C40.1622 2.27594 40.5002 2.42704 40.859 2.38219C41.407 2.31369 41.7957 1.8139 41.7272 1.26588ZM40.1272 2.04524C40.1267 2.04542 40.1201 2.04362 40.109 2.03927C40.1221 2.04287 40.1277 2.04505 40.1272 2.04524Z" fill="white"/>
</svg>
