<?xml version="1.0" encoding="UTF-8"?><svg xmlns="http://www.w3.org/2000/svg" viewBox="0 0 50.94 51.01"><defs><style>.d{fill:#27e34f;stroke:#3e3940;stroke-linecap:round;stroke-linejoin:round;}</style></defs><g id="a"/><g id="b"><g id="c"><g><rect class="d" x="36.44" y="14.78" width="14" height="6"/><rect class="d" x="36.44" y="24.59" width="14" height="6"/><rect class="d" x="36.44" y="34.41" width="14" height="6"/><rect class="d" x="36.44" y="44.23" width="14" height="6"/><rect class="d" x=".5" y="34.69" width="14" height="6"/><rect class="d" x=".5" y="44.51" width="14" height="6"/><rect class="d" x="18.47" y="24.88" width="14" height="6"/><rect class="d" x="18.47" y="34.69" width="14" height="6"/><rect class="d" x="18.47" y="44.51" width="14" height="6"/><path class="d" d="M41.19,.5l-12.83,1.2c.92,1.19,1.85,2.37,2.77,3.56C21.19,12.08,11.24,18.9,1.29,25.72l1.67,3.31c10.06-6.87,20.12-13.74,30.18-20.61,.82,1.3,1.63,2.6,2.45,3.9,1.87-3.94,3.74-7.88,5.61-11.82Z"/></g></g></g></svg>