<?xml version="1.0" encoding="UTF-8"?><svg xmlns="http://www.w3.org/2000/svg" viewBox="0 0 31.04 50.52"><defs><style>.d{fill:#3e3940;}.e{fill:#27e34f;stroke:#3e3940;stroke-miterlimit:10;stroke-width:1.04px;}</style></defs><g id="a"/><g id="b"><g id="c"><g><path class="e" d="M15.52,.52C6.69,.52,.52,5.62,.52,12.92c0,4.57,2.44,7.16,5.02,9.9,2.41,2.56,4.91,5.21,4.91,9.39,0,3.87,.05,6.71,.79,8.14h3.64l.1-5.19c0-.14,.09-.28,.22-.36l1.54-.95-3.69-2.27c-.14-.09-.22-.22-.22-.37s.08-.29,.22-.37l3.69-2.27-3.69-2.26c-.14-.09-.22-.23-.22-.37s.08-.29,.22-.37l4.3-2.64c.24-.15,.58-.1,.75,.11,.17,.21,.12,.49-.12,.64l-3.69,2.27,3.69,2.27c.14,.09,.22,.23,.22,.37s-.08,.29-.22,.37l-3.69,2.27,3.69,2.27c.14,.09,.22,.23,.22,.37s-.08,.28-.22,.37l-1.93,1.19-.1,4.94h3.84c.73-1.43,.79-4.27,.79-8.14,0-4.18,2.5-6.83,4.91-9.39,2.58-2.74,5.02-5.33,5.02-9.9C30.52,5.62,24.35,.52,15.52,.52Z"/><polygon class="d" points="10.96 43.57 10.96 44.53 15.72 43.14 12.42 43.14 10.96 43.57"/><polygon class="d" points="10.96 45.51 10.96 46.47 20.1 43.8 20.1 43.14 19.05 43.14 10.96 45.51"/><polygon class="d" points="10.96 48.4 20.1 45.73 20.1 44.77 10.96 47.44 10.96 48.4"/><polygon class="d" points="10.96 50.34 20.1 47.67 20.1 46.71 10.96 49.38 10.96 50.34"/><polygon class="d" points="16.97 50.52 20.1 49.6 20.1 48.64 13.67 50.52 16.97 50.52"/></g></g></g></svg>