<?xml version="1.0" encoding="UTF-8"?><svg id="Ebene_2" xmlns="http://www.w3.org/2000/svg" viewBox="0 0 61.21 51.21"><defs><style>.cls-1{fill:#3e3940;}.cls-2{fill:#27e34f;stroke:#3e3940;stroke-linecap:round;stroke-linejoin:round;stroke-width:1.21px;}</style></defs><g id="Layer_4"><g><rect class="cls-1" x="24.4" y="6.28" width="14.92" height="29.78"/><path class="cls-2" d="M60.6,26.52c-2.5,.37-4.57-2.06-5.64-5.49-1.61-5.17-3.37-7.94-4.34-9.2-.2-.34-.4-.67-.62-1,.38-2.45,1.35-5.53,3.62-8.4-3.27-.53-5.82,1.62-7.37,4.06C42.15,2.84,36.6,.6,30.48,.6,18.2,.6,8.18,9.63,7.63,20.96c-.14,1.29-.17,2.57-.1,3.82-1.54,3.06-3.26,.39-3.71-.55-.63-1.32-1.59-3.35-3.21-1.98,2.63-.7,1.86,3,4.02,5.11,1.03,1,2.19,.54,3.14-.23,.84,5.84,3.44,10.78,4.92,13.41,2.41,4.27,2.14,10.06,2.14,10.06h7.23s3.48-7.01,8.56-7.01c5.62,0,8.56,7.01,8.56,7.01h6.15c1.61-13.72,10.94-14.78,14.78-14.78-.33-1.37-.24-6.2,.49-9.31Z"/><path class="cls-1" d="M37.41,13.51c-.23,.83-.46,1.65-.69,2.48-.53-.31-1.27-.66-2.21-.84-.98-.2-1.76-.14-2.07-.11-.75,.08-1.24,.13-1.7,.5-.06,.05-.73,.6-.74,1.46-.01,.9,.7,1.5,.98,1.74,.86,.73,1.41,.48,3.11,1.13,.89,.34,1.96,.76,2.86,1.71,.33,.34,.98,1.04,1.23,2.13,.07,.29,.38,1.83-.61,3.2-.82,1.13-2.09,1.54-3.07,1.85-.46,.15-.86,.23-1.14,.28v3.13h-2.88v-3.06c-.61-.03-1.32-.1-2.08-.24-1.2-.23-2.2-.57-2.98-.91l.94-2.38c.41,.17,.99,.4,1.7,.66,1.4,.5,2.09,.75,2.69,.79,.27,.02,2.39,.12,3.25-1.18,.47-.7,.33-1.47,.31-1.56-.16-.8-.77-1.27-1.07-1.49-.72-.53-1.42-.62-2.11-.78-.87-.21-3.08-.75-4.37-2.17-.2-.22-1.27-1.4-1.11-3.02,.16-1.67,1.52-2.66,1.92-2.95,1.16-.85,2.39-1.01,2.92-1.06,0-.88,.02-1.76,.03-2.64h2.88c-.03,.79-.06,1.59-.08,2.38,.51,.02,1.09,.09,1.72,.21,.96,.19,1.75,.48,2.37,.75Z"/></g></g></svg>