<svg width="7" height="7" viewBox="0 0 7 7" fill="none" xmlns="http://www.w3.org/2000/svg">
<path d="M0.7 0H6.3C6.48565 0 6.6637 0.0737498 6.79497 0.205025C6.92625 0.336301 7 0.514348 7 0.7V4.9C7 5.08565 6.92625 5.2637 6.79497 5.39497C6.6637 5.52625 6.48565 5.6 6.3 5.6H4.165L2.87 6.8985C2.8 6.965 2.7125 7 2.625 7H2.45C2.35717 7 2.26815 6.96313 2.20251 6.89749C2.13687 6.83185 2.1 6.74283 2.1 6.65V5.6H0.7C0.514348 5.6 0.336301 5.52625 0.205025 5.39497C0.0737498 5.2637 0 5.08565 0 4.9V0.7C0 0.514348 0.0737498 0.336301 0.205025 0.205025C0.336301 0.0737498 0.514348 0 0.7 0ZM3.5665 1.225C3.255 1.225 3.0065 1.288 2.8175 1.414C2.625 1.54 2.527 1.75 2.5445 1.9915H3.234C3.234 1.8935 3.269 1.82 3.325 1.771C3.395 1.722 3.472 1.6975 3.5665 1.6975C3.675 1.6975 3.7695 1.7255 3.8325 1.7885C3.8955 1.848 3.927 1.925 3.927 2.03C3.927 2.128 3.899 2.2155 3.85 2.289C3.7905 2.366 3.717 2.429 3.626 2.478C3.444 2.59 3.325 2.688 3.2515 2.772C3.185 2.856 3.15 2.975 3.15 3.15H3.85C3.85 3.052 3.8675 2.975 3.899 2.912C3.9305 2.8525 3.99 2.8 4.081 2.7475C4.242 2.674 4.375 2.576 4.4765 2.45C4.578 2.3205 4.6305 2.184 4.6305 2.03C4.6305 1.785 4.536 1.589 4.347 1.442C4.158 1.2985 3.8955 1.225 3.5665 1.225ZM3.15 3.5V4.2H3.85V3.5H3.15Z" fill="#181818"/>
</svg>
