<svg width="484" height="91" viewBox="0 0 484 91" fill="none" xmlns="http://www.w3.org/2000/svg">
<g clip-path="url(#clip0_2003_1450)">
<path d="M9.14495 55.7488C6.10278 58.7546 3.0606 61.7605 0.0184201 64.7678V55.7898C3.14533 52.7017 6.2707 49.6121 9.39684 46.5217C12.5386 43.4159 15.6811 40.3093 18.8268 37.2028C20.5105 39.0733 22.197 40.9409 23.8845 42.8095C24.7054 43.7185 25.5265 44.6278 26.3476 45.5378C29.7166 42.0949 33.0857 38.6503 36.4547 35.2057C39.5637 32.027 42.6727 28.8482 45.7816 25.6709C44.7705 24.6377 43.7608 23.6045 42.7511 22.5713C41.6721 21.4672 40.593 20.363 39.5122 19.2589H56.4374V36.572C55.3913 35.5033 54.3468 34.4345 53.3023 33.3657C52.2579 32.2971 51.2136 31.2285 50.1677 30.16C46.175 34.2447 42.1807 38.3278 38.1864 42.4109C34.2397 46.4455 30.2929 50.48 26.3476 54.5162C24.6466 52.6265 22.9428 50.7396 21.238 48.8517C20.4344 47.9617 19.6306 47.0716 18.8268 46.1808C15.5995 49.3713 12.3722 52.56 9.14495 55.7488Z" fill="white"/>
<path d="M21.2878 56.4589C20.4655 55.5484 19.6431 54.6376 18.8206 53.7262V53.7322C14.6967 57.7244 10.5701 61.7139 6.44261 65.7042C4.29524 67.7802 2.14762 69.8565 0 71.9335H56.4129C56.4149 68.8435 56.4176 65.7536 56.4203 62.6637C56.4256 56.4815 56.431 50.2995 56.431 44.1172C55.3891 43.0526 54.3486 41.988 53.3082 40.9233C52.2599 39.8506 51.2116 38.7779 50.1616 37.7052C46.1032 41.8572 42.0431 46.0076 37.983 50.1579C34.102 54.1252 30.221 58.0925 26.3415 62.0611C24.6591 60.1921 22.9739 58.326 21.2878 56.4589Z" fill="white"/>
<path d="M75.2534 71.2649V68.3903H76.1172C76.8918 68.3903 77.6116 68.3348 78.2758 68.2234C78.962 68.112 79.5598 67.8891 80.0692 67.5549C80.5781 67.1985 80.9768 66.6969 81.2647 66.0508C81.5522 65.4047 81.6962 64.5468 81.6962 63.4771L81.6928 26.9735C81.6928 25.9039 81.5489 25.0461 81.2613 24.3999C80.9734 23.7537 80.5747 23.2635 80.0658 22.9293C79.5564 22.5728 78.9587 22.3388 78.2725 22.2274C77.6082 22.116 76.8884 22.0603 76.1138 22.0603H75.25V19.1859H95.0432V22.0603H94.1466C93.3939 22.0603 92.6744 22.116 91.9879 22.2274C91.3017 22.3388 90.7039 22.5728 90.1946 22.9293C89.7075 23.2635 89.3089 23.7537 88.999 24.3999C88.7111 25.0461 88.5675 25.9039 88.5675 26.9735L88.5709 63.4771C88.5709 64.5468 88.7145 65.4047 89.0024 66.0508C89.3123 66.6969 89.7109 67.1985 90.198 67.5549C90.7073 67.8891 91.3051 68.112 91.9913 68.2234C92.6778 68.3348 93.3973 68.3903 94.1499 68.3903H95.0466V71.2649H75.2534ZM117.829 68.3903V71.2649H99.5302V68.3903H100.095C100.869 68.3903 101.589 68.3348 102.253 68.2234C102.94 68.112 103.526 67.8891 104.013 67.5549C104.522 67.1985 104.921 66.6969 105.209 66.0508C105.519 65.4047 105.674 64.5468 105.674 63.4771V42.1197C105.674 41.1173 105.519 40.3149 105.209 39.7133C104.921 39.0896 104.522 38.6105 104.013 38.2762C103.504 37.942 102.906 37.7191 102.22 37.6077C101.556 37.4963 100.847 37.4407 100.095 37.4407H99.8952V34.5662H110.888L111.784 40.1145H112.117C112.825 38.8444 113.567 37.8081 114.342 37.0061C115.139 36.1817 115.969 35.5466 116.833 35.101C117.718 34.6331 118.648 34.3211 119.622 34.1652C120.618 33.9869 121.659 33.8978 122.744 33.8978C124.537 33.8978 126.131 34.1652 127.526 34.6999C128.943 35.2124 130.138 36.0146 131.113 37.1065C132.109 38.1758 132.862 39.5574 133.371 41.2508C133.902 42.9442 134.168 44.9608 134.168 47.3003V63.4771C134.168 64.5468 134.29 65.4047 134.533 66.0508C134.799 66.6969 135.164 67.1985 135.629 67.5549C136.094 67.8891 136.648 68.112 137.29 68.2234C137.932 68.3348 138.629 68.3903 139.382 68.3903H139.615V71.2649H127.759V47.6346C127.759 46.142 127.626 44.8159 127.36 43.6572C127.094 42.4985 126.663 41.5181 126.065 40.7161C125.489 39.9141 124.725 39.3125 123.773 38.9113C122.821 38.488 121.659 38.2762 120.286 38.2762C118.737 38.2762 117.43 38.577 116.367 39.1786C115.327 39.7802 114.486 40.5937 113.843 41.6185C113.201 42.6434 112.737 43.8245 112.449 45.1612C112.183 46.4983 112.05 47.9019 112.05 49.3728V63.8114C112.05 64.8142 112.194 65.6276 112.482 66.2512C112.792 66.8529 113.201 67.31 113.711 67.6218C114.22 67.9336 114.807 68.1454 115.471 68.2568C116.157 68.3458 116.877 68.3903 117.63 68.3903H117.829ZM155.821 71.9334C154.116 71.9334 152.566 71.7775 151.171 71.4653C149.799 71.1759 148.625 70.7302 147.651 70.1286C146.677 69.5046 145.924 68.747 145.393 67.8557C144.862 66.9422 144.596 65.8839 144.596 64.6807C144.596 63.7669 144.74 63.0093 145.028 62.4077C145.338 61.7837 145.703 61.2935 146.124 60.9372C146.566 60.5805 147.031 60.3356 147.518 60.2017C148.028 60.0458 148.481 59.9679 148.88 59.9679C148.88 61.1711 149.002 62.2963 149.245 63.3436C149.489 64.3909 149.898 65.3154 150.474 66.1178C151.05 66.8977 151.802 67.5214 152.732 67.9895C153.685 68.4352 154.847 68.6581 156.22 68.6581C157.437 68.6581 158.511 68.5132 159.441 68.2234C160.371 67.9116 161.146 67.4879 161.766 66.9532C162.408 66.3961 162.895 65.739 163.227 64.9815C163.559 64.2015 163.725 63.3546 163.725 62.4412C163.725 61.5943 163.592 60.8703 163.326 60.2687C163.083 59.6446 162.64 59.0655 161.998 58.5308C161.378 57.9957 160.526 57.45 159.441 56.8929C158.356 56.3358 156.995 55.7007 155.356 54.9877C153.607 54.2077 152.079 53.4616 150.773 52.7486C149.489 52.0131 148.426 51.2222 147.585 50.3753C146.744 49.5288 146.113 48.5704 145.692 47.5011C145.271 46.4093 145.061 45.1167 145.061 43.6237C145.061 42.0642 145.36 40.6826 145.958 39.4794C146.577 38.2762 147.452 37.2734 148.581 36.4714C149.71 35.6469 151.061 35.023 152.633 34.5997C154.205 34.1763 155.954 33.9646 157.88 33.9646C159.496 33.9646 160.924 34.1317 162.164 34.466C163.404 34.8002 164.444 35.257 165.286 35.8363C166.127 36.3934 166.758 37.062 167.179 37.8416C167.599 38.5995 167.81 39.4015 167.81 40.2484C167.81 41.4961 167.378 42.4985 166.515 43.2564C165.673 43.9915 164.467 44.3592 162.895 44.3592C162.895 42.0642 162.419 40.2814 161.467 39.0117C160.537 37.7415 159.064 37.1065 157.05 37.1065C155.898 37.1065 154.913 37.24 154.094 37.5073C153.275 37.775 152.6 38.1538 152.068 38.644C151.559 39.1341 151.183 39.7133 150.939 40.3818C150.696 41.0504 150.574 41.7855 150.574 42.5879C150.574 43.4568 150.729 44.2143 151.039 44.8604C151.349 45.4845 151.836 46.0636 152.5 46.5987C153.186 47.1334 154.061 47.657 155.123 48.1696C156.209 48.6598 157.504 49.2166 159.009 49.8406C160.803 50.5981 162.341 51.3446 163.625 52.0801C164.909 52.8152 165.961 53.6175 166.78 54.4865C167.622 55.3554 168.241 56.3358 168.64 57.4276C169.039 58.5194 169.238 59.7785 169.238 61.2045C169.238 62.9869 168.917 64.5468 168.275 65.8839C167.633 67.2206 166.725 68.3458 165.551 69.2597C164.378 70.1507 162.961 70.8192 161.301 71.2649C159.662 71.7106 157.836 71.9334 155.821 71.9334ZM174.684 68.3903C175.437 68.3903 176.145 68.3458 176.81 68.2568C177.496 68.1454 178.094 67.9336 178.603 67.6218C179.112 67.31 179.511 66.8529 179.799 66.2512C180.108 65.6276 180.264 64.8142 180.264 63.8114V42.1197C180.264 41.1173 180.108 40.3149 179.799 39.7133C179.511 39.0896 179.112 38.6105 178.603 38.2762C178.094 37.942 177.496 37.7191 176.81 37.6077C176.145 37.4963 175.437 37.4407 174.684 37.4407H174.485V34.5662H186.64V63.4771C186.64 64.5468 186.784 65.4047 187.071 66.0508C187.382 66.6969 187.78 67.1985 188.267 67.5549C188.776 67.8891 189.374 68.112 190.06 68.2234C190.747 68.3348 191.466 68.3903 192.219 68.3903H193.116V71.2649H173.788V68.3903H174.684ZM179.3 23.4697C179.3 22.6676 179.4 21.9991 179.599 21.4644C179.799 20.9296 180.075 20.4951 180.43 20.1608C180.784 19.8266 181.194 19.5927 181.658 19.459C182.123 19.3253 182.632 19.2584 183.186 19.2584C183.717 19.2584 184.216 19.3253 184.68 19.459C185.146 19.5927 185.544 19.8266 185.876 20.1608C186.23 20.4951 186.507 20.9296 186.706 21.4644C186.927 21.9991 187.038 22.6676 187.038 23.4697C187.038 24.2719 186.927 24.9404 186.706 25.4751C186.507 26.0099 186.23 26.4444 185.876 26.7786C185.544 27.1129 185.146 27.358 184.68 27.514C184.216 27.6476 183.717 27.7145 183.186 27.7145C182.632 27.7145 182.123 27.6476 181.658 27.514C181.194 27.358 180.784 27.1129 180.43 26.7786C180.075 26.4444 179.799 26.0099 179.599 25.4751C179.4 24.9404 179.3 24.2719 179.3 23.4697ZM228.418 63.7448C228.418 64.7472 228.562 65.5607 228.85 66.1847C229.16 66.7863 229.569 67.2541 230.079 67.5883C230.588 67.9226 231.174 68.1454 231.839 68.2568C232.525 68.3458 233.244 68.3903 233.997 68.3903H234.562V71.2649H223.038L222.307 65.115H222.042C221.532 66.1623 220.946 67.1092 220.282 67.9561C219.64 68.7805 218.898 69.4935 218.056 70.0951C217.215 70.6743 216.263 71.12 215.201 71.4318C214.138 71.7661 212.942 71.9334 211.614 71.9334C209.377 71.9334 207.396 71.5657 205.669 70.8302C203.942 70.0727 202.492 68.9254 201.319 67.3879C200.145 65.828 199.26 63.8562 198.662 61.4719C198.064 59.0879 197.765 56.2578 197.765 52.9825C197.765 49.6847 198.064 46.8326 198.662 44.4261C199.26 42.0197 200.145 40.0365 201.319 38.4766C202.492 36.917 203.942 35.7695 205.669 35.0342C207.396 34.2766 209.377 33.8978 211.614 33.8978C212.92 33.8978 214.104 34.0426 215.167 34.3323C216.23 34.6219 217.182 35.0342 218.023 35.5689C218.887 36.1037 219.651 36.7387 220.315 37.4742C220.979 38.2093 221.555 39.0227 222.042 39.9141H222.44C222.374 38.7999 222.307 37.7526 222.241 36.7722C222.197 35.9254 222.152 35.0898 222.108 34.2654C222.064 33.4187 222.042 32.7948 222.042 32.3937V26.7786C222.042 25.776 221.887 24.9738 221.577 24.3722C221.289 23.7483 220.89 23.2692 220.381 22.935C219.872 22.6007 219.274 22.3891 218.588 22.2999C217.924 22.1885 217.215 22.1328 216.462 22.1328H215.898V19.2584H228.418V63.7448ZM212.776 67.5549C214.547 67.5549 216.02 67.2651 217.193 66.6859C218.389 66.0843 219.341 65.1819 220.049 63.9787C220.78 62.7755 221.289 61.2601 221.577 59.4332C221.887 57.6059 222.042 55.4558 222.042 52.9825C222.042 50.5981 221.887 48.4925 221.577 46.6652C221.289 44.8384 220.78 43.3119 220.049 42.0863C219.341 40.8386 218.389 39.8917 217.193 39.2456C215.997 38.5995 214.503 38.2762 212.71 38.2762C211.226 38.2762 209.953 38.5995 208.89 39.2456C207.828 39.8917 206.953 40.8386 206.267 42.0863C205.603 43.3343 205.116 44.8829 204.806 46.7322C204.496 48.5594 204.341 50.665 204.341 53.0494C204.341 57.9067 204.994 61.5388 206.3 63.9452C207.606 66.3516 209.765 67.5549 212.776 67.5549ZM254.488 37.5742C251.964 37.5742 250.015 38.6105 248.643 40.6826C247.292 42.7327 246.495 45.7408 246.252 49.7071H261.894C261.894 47.9019 261.761 46.2534 261.495 44.7604C261.229 43.2674 260.809 41.9862 260.233 40.9165C259.658 39.8472 258.894 39.0227 257.942 38.4432C257.012 37.864 255.86 37.5742 254.488 37.5742ZM255.318 71.9334C252.861 71.9334 250.646 71.5212 248.676 70.6967C246.728 69.8498 245.078 68.6246 243.728 67.0202C242.377 65.4158 241.336 63.455 240.606 61.1376C239.898 58.7981 239.543 56.1464 239.543 53.1829C239.543 46.7881 240.849 41.9752 243.462 38.744C246.075 35.5132 249.794 33.8978 254.621 33.8978C256.813 33.8978 258.783 34.2431 260.532 34.9339C262.281 35.6246 263.764 36.6607 264.982 38.0423C266.2 39.4015 267.13 41.1059 267.772 43.156C268.436 45.1837 268.768 47.5456 268.768 50.2418V53.3837H246.119C246.163 55.8791 246.407 58.0292 246.849 59.834C247.314 61.6168 247.967 63.0873 248.809 64.246C249.672 65.4047 250.724 66.2627 251.964 66.8198C253.204 67.3544 254.632 67.6218 256.248 67.6218C257.421 67.6218 258.506 67.4879 259.503 67.2206C260.521 66.9532 261.44 66.5969 262.259 66.1512C263.078 65.7055 263.798 65.204 264.417 64.6472C265.06 64.0677 265.58 63.4661 265.978 62.8424C266.289 62.9759 266.576 63.2546 266.842 63.6779C267.13 64.1011 267.274 64.6024 267.274 65.1819C267.274 65.8725 267.03 66.619 266.543 67.4214C266.056 68.201 265.314 68.9254 264.318 69.5935C263.322 70.2621 262.071 70.8192 260.565 71.2649C259.082 71.7106 257.333 71.9334 255.318 71.9334ZM294.074 71.2649H274.447V68.3903H274.646C275.421 68.3903 276.141 68.3348 276.805 68.2234C277.491 68.112 278.078 67.8891 278.565 67.5549C279.074 67.1985 279.473 66.6969 279.761 66.0508C280.07 65.4047 280.225 64.5468 280.225 63.4771V42.1197C280.225 41.1173 280.07 40.3149 279.761 39.7133C279.473 39.0896 279.074 38.6105 278.565 38.2762C278.056 37.942 277.458 37.7191 276.772 37.6077C276.107 37.4963 275.399 37.4407 274.646 37.4407H274.447V34.5662H284.908L286.203 41.3512H286.536C286.978 40.3263 287.432 39.368 287.897 38.4766C288.362 37.5632 288.927 36.7722 289.591 36.1037C290.277 35.413 291.119 34.8782 292.115 34.4994C293.111 34.0983 294.362 33.8978 295.867 33.8978C298.347 33.8978 300.185 34.3323 301.38 35.2013C302.598 36.0703 303.207 37.2959 303.207 38.8778C303.207 39.5909 303.085 40.2484 302.842 40.85C302.62 41.4516 302.255 41.9752 301.746 42.4205C301.236 42.8442 300.583 43.1784 299.786 43.4233C298.989 43.6462 298.015 43.7576 296.864 43.7576C296.864 41.8638 296.598 40.5043 296.067 39.6798C295.535 38.8333 294.605 38.4101 293.277 38.4101C292.436 38.4101 291.683 38.655 291.019 39.1452C290.355 39.6133 289.768 40.2484 289.259 41.0504C288.772 41.8303 288.351 42.7327 287.997 43.7576C287.665 44.7825 287.388 45.8412 287.167 46.9329C286.967 48.0023 286.823 49.072 286.735 50.1414C286.646 51.2111 286.602 52.1801 286.602 53.0494V63.8114C286.602 64.8142 286.746 65.6276 287.034 66.2512C287.343 66.8529 287.753 67.31 288.262 67.6218C288.772 67.9336 289.358 68.1454 290.022 68.2568C290.709 68.3458 291.428 68.3903 292.181 68.3903H294.074V71.2649ZM343.457 19.5346L351.959 52.5143C352.601 54.7873 353.166 56.9709 353.653 59.0655C354.162 61.1376 354.571 62.9649 354.882 64.5468C355.213 62.8979 355.59 61.1711 356.011 59.3663C356.453 57.539 356.985 55.5228 357.605 53.3167L363.582 28.8597C363.649 28.5922 363.726 28.2914 363.815 27.9572C363.903 27.623 363.981 27.2887 364.047 26.9545C364.114 26.6203 364.169 26.3083 364.213 26.0187C364.28 25.729 364.313 25.4839 364.313 25.2834C364.313 24.1024 363.937 23.2557 363.184 22.7432C362.453 22.2084 361.335 21.941 359.83 21.941H358.269V19.0667H374.874V21.941H373.579C372.914 21.941 372.328 22.0079 371.819 22.1416C371.331 22.2753 370.889 22.5315 370.49 22.9103C370.091 23.2891 369.726 23.8239 369.394 24.5146C369.062 25.2054 368.73 26.1189 368.398 27.2553L356.907 71.2649H350.797L339.705 29.595L329.31 71.2649H323.033L310.579 25.5507C310.358 24.8377 310.104 24.2473 309.816 23.7793C309.55 23.3114 309.229 22.9437 308.852 22.6764C308.476 22.409 308.033 22.2196 307.524 22.1082C307.015 21.9968 306.428 21.941 305.764 21.941H304.867V19.0667H323.598V21.941H322.037C320.664 21.941 319.634 22.2084 318.948 22.7432C318.284 23.2557 317.952 24.0801 317.952 25.2165C317.952 25.5953 318.007 25.9853 318.118 26.3863C318.229 26.7874 318.35 27.2442 318.483 27.7567L324.727 52.9825C325.302 55.0546 325.845 57.0933 326.354 59.0989C326.863 61.0821 327.306 62.8979 327.682 64.5468C328.015 62.7641 328.402 60.8258 328.845 58.7312C329.31 56.6145 329.841 54.453 330.439 52.247L338.542 19.5346H343.457ZM390.05 37.5742C387.526 37.5742 385.577 38.6105 384.205 40.6826C382.856 42.7327 382.058 45.7408 381.815 49.7071H397.456C397.456 47.9019 397.324 46.2534 397.06 44.7604C396.791 43.2674 396.372 41.9862 395.798 40.9165C395.22 39.8472 394.456 39.0227 393.504 38.4432C392.575 37.864 391.422 37.5742 390.05 37.5742ZM390.882 71.9334C388.422 71.9334 386.208 71.5212 384.239 70.6967C382.291 69.8498 380.641 68.6246 379.291 67.0202C377.94 65.4158 376.9 63.455 376.169 61.1376C375.46 58.7981 375.106 56.1464 375.106 53.1829C375.106 46.7881 376.413 41.9752 379.025 38.744C381.638 35.5132 385.358 33.8978 390.183 33.8978C392.374 33.8978 394.347 34.2431 396.096 34.9339C397.846 35.6246 399.327 36.6607 400.544 38.0423C401.764 39.4015 402.694 41.1059 403.336 43.156C403.997 45.1837 404.33 47.5456 404.33 50.2418V53.3837H381.682C381.726 55.8791 381.97 58.0292 382.413 59.834C382.879 61.6168 383.529 63.0873 384.371 64.246C385.237 65.4047 386.287 66.2627 387.526 66.8198C388.766 67.3544 390.194 67.6218 391.811 67.6218C392.983 67.6218 394.071 67.4879 395.065 67.2206C396.085 66.9532 397.003 66.5969 397.823 66.1512C398.643 65.7055 399.361 65.204 399.981 64.6472C400.623 64.0677 401.144 63.4661 401.541 62.8424C401.851 62.9759 402.138 63.2546 402.406 63.6779C402.694 64.1011 402.837 64.6024 402.837 65.1819C402.837 65.8725 402.592 66.619 402.108 67.4214C401.62 68.201 400.876 68.9254 399.882 69.5935C398.885 70.2621 397.634 70.8192 396.126 71.2649C394.645 71.7106 392.896 71.9334 390.882 71.9334ZM426.449 37.5742C423.925 37.5742 421.976 38.6105 420.604 40.6826C419.255 42.7327 418.458 45.7408 418.212 49.7071H433.855C433.855 47.9019 433.723 46.2534 433.455 44.7604C433.19 43.2674 432.771 41.9862 432.193 40.9165C431.618 39.8472 430.855 39.0227 429.903 38.4432C428.973 37.864 427.821 37.5742 426.449 37.5742ZM427.281 71.9334C424.821 71.9334 422.607 71.5212 420.638 70.6967C418.688 69.8498 417.041 68.6246 415.688 67.0202C414.339 65.4158 413.296 63.455 412.567 61.1376C411.86 58.7981 411.505 56.1464 411.505 53.1829C411.505 46.7881 412.812 41.9752 415.423 38.744C418.034 35.5132 421.756 33.8978 426.582 33.8978C428.773 33.8978 430.746 34.2431 432.491 34.9339C434.241 35.6246 435.726 36.6607 436.942 38.0423C438.159 39.4015 439.092 41.1059 439.735 43.156C440.396 45.1837 440.728 47.5456 440.728 50.2418V53.3837H418.08C418.125 55.8791 418.367 58.0292 418.809 59.834C419.274 61.6168 419.928 63.0873 420.77 64.246C421.632 65.4047 422.686 66.2627 423.925 66.8198C425.165 67.3544 426.593 67.6218 428.21 67.6218C429.382 67.6218 430.466 67.4879 431.463 67.2206C432.484 66.9532 433.402 66.5969 434.222 66.1512C435.038 65.7055 435.76 65.204 436.379 64.6472C437.022 64.0677 437.539 63.4661 437.94 62.8424C438.25 62.9759 438.537 63.2546 438.801 63.6779C439.092 64.1011 439.236 64.6024 439.236 65.1819C439.236 65.8725 438.99 66.619 438.503 67.4214C438.015 68.201 437.275 68.9254 436.277 69.5935C435.284 70.2621 434.033 70.8192 432.525 71.2649C431.044 71.7106 429.295 71.9334 427.281 71.9334ZM467.197 49.239L476.262 62.7755C477.437 64.6023 478.601 65.9953 479.75 66.9532C480.925 67.9116 482.274 68.3903 483.804 68.3903H484.001V71.2649H483.037C481.068 71.2649 479.44 71.2094 478.155 71.0979C476.893 70.9641 475.797 70.6743 474.868 70.2286C473.938 69.7609 473.088 69.0923 472.313 68.2234C471.535 67.332 470.674 66.1288 469.721 64.6138L462.912 53.8849L457.898 57.6284V63.8114C457.898 64.8142 458.042 65.6276 458.329 66.2512C458.639 66.8529 459.051 67.31 459.561 67.6218C460.067 67.9336 460.657 68.1454 461.318 68.2568C462.006 68.3458 462.724 68.3903 463.479 68.3903H463.676V71.2649H445.38V68.3903H445.909C446.684 68.3903 447.405 68.3348 448.07 68.2234C448.754 68.112 449.34 67.8891 449.827 67.5549C450.337 67.1985 450.738 66.6969 451.025 66.0508C451.335 65.4047 451.49 64.5468 451.49 63.4771V26.7786C451.49 25.776 451.335 24.9738 451.025 24.3722C450.738 23.7483 450.337 23.2692 449.827 22.935C449.321 22.6007 448.72 22.3891 448.036 22.2999C447.371 22.1885 446.661 22.1328 445.909 22.1328H445.38V19.2584H457.898V45.6628C457.898 46.2865 457.887 47.0889 457.864 48.0692C457.842 49.0272 457.811 49.9745 457.766 50.9103C457.721 51.9797 457.679 53.1049 457.634 54.2861L466.135 44.9273C466.865 44.1029 467.462 43.3788 467.927 42.7548C468.414 42.1311 468.803 41.585 469.09 41.1173C469.378 40.6492 469.578 40.237 469.687 39.8806C469.801 39.5019 469.854 39.1452 469.854 38.8109C469.854 38.2317 469.578 37.864 469.022 37.7081C468.493 37.5297 467.662 37.4407 466.532 37.4407V34.5662H481.544V37.4407C479.973 37.4407 478.423 37.9979 476.893 39.1117C475.389 40.2259 473.749 41.7969 471.981 43.8245L467.197 49.239Z" fill="white"/>
</g>
<defs>
<clipPath id="clip0_2003_1450">
<rect width="484" height="89.4669" fill="white" transform="translate(0 0.766541)"/>
</clipPath>
</defs>
</svg>
