<svg width="42" height="42" viewBox="0 0 42 42" fill="none" xmlns="http://www.w3.org/2000/svg">
<path fill-rule="evenodd" clip-rule="evenodd" d="M42 0H0V42H42V0ZM31.5334 13.2269V12.8066C31.5271 12.8036 31.5166 12.8019 31.5149 12.7973C31.2426 12.0618 30.7247 11.8312 29.9719 12.122C25.8852 13.7018 21.7987 15.283 17.7127 16.8641C16.7786 17.2255 15.8445 17.587 14.9104 17.9484C14.5321 18.0948 14.1539 18.2415 13.7758 18.3882C12.7852 18.7725 11.7947 19.1568 10.802 19.5347C10.4624 19.6639 10.1839 19.8499 10 20.1667V20.4192C10.2032 20.7734 10.5504 20.9275 10.9105 21.0453C11.6664 21.2927 12.4235 21.5369 13.1806 21.7811C13.9079 22.0156 14.6352 22.2502 15.3615 22.4877C15.5331 22.5436 15.6674 22.5205 15.8151 22.4279C17.6852 21.2591 19.5559 20.091 21.4265 18.9229C23.2973 17.7547 25.1682 16.5864 27.0387 15.4175C27.2045 15.3139 27.3703 15.2369 27.5689 15.263C27.7212 15.2828 27.7607 15.3661 27.6829 15.497C27.6171 15.6079 27.5232 15.695 27.43 15.7815C27.4153 15.7951 27.4007 15.8086 27.3863 15.8222C25.848 17.2691 24.2791 18.682 22.7103 20.0949C22.4304 20.347 22.1505 20.599 21.8708 20.8513C20.8037 21.8132 19.7358 22.7742 18.6637 23.7306C18.5395 23.8417 18.4743 23.9616 18.4613 24.1257C18.3582 25.4094 18.252 26.6928 18.1458 27.9761L18.1108 28.3991L18.1099 28.4092C18.0971 28.5632 18.0843 28.7164 18.2585 28.798C18.4249 28.8763 18.5349 28.7773 18.6436 28.6796C18.6506 28.6733 18.6575 28.667 18.6645 28.6608C19.2982 28.095 19.9317 27.5287 20.5652 26.9625C20.7834 26.7674 21.0016 26.5723 21.2199 26.3773C21.4458 26.1753 21.4988 26.1703 21.7458 26.3495C23.2766 27.4603 24.8074 28.5712 26.3364 29.6841C26.5321 29.8268 26.7429 29.929 26.9806 29.9757C27.4426 30.0662 27.7856 29.9042 28.0124 29.4855C28.1672 29.1996 28.2269 28.8864 28.2864 28.5738C28.3014 28.4949 28.3165 28.416 28.333 28.3377C29.2925 23.787 30.2491 19.2363 31.2059 14.6853L31.4888 13.3397C31.4906 13.3308 31.4919 13.3217 31.4931 13.3126C31.4975 13.2803 31.5019 13.2483 31.5334 13.2269Z" fill="#0D1625"/>
</svg>
