<svg width="42" height="42" viewBox="0 0 42 42" fill="none" xmlns="http://www.w3.org/2000/svg">
<path fill-rule="evenodd" clip-rule="evenodd" d="M42 0H0V42H42V0ZM14.5304 26.9953H19.0628V15.0068H10V19.6688H14.5304V26.9953ZM22.9531 26.998C24.5762 22.991 26.1963 18.9924 27.8134 15.0024H33L32.958 15.1081C32.9215 15.2002 32.8856 15.2906 32.8491 15.3801C31.2908 19.226 29.7328 23.0719 28.1751 26.9179C28.1549 26.9675 28.1386 27.0001 28.0728 27.0001C26.3892 26.9976 24.7056 26.9969 23.0219 26.998H22.9531ZM25.5508 17.6642C25.5473 16.1937 24.388 15 22.9634 15C21.5219 15 20.3607 16.189 20.3608 17.6647C20.3603 19.1237 21.5193 20.333 22.9187 20.334C24.3866 20.335 25.5541 19.1506 25.5508 17.6642Z" fill="#0D1625"/>
</svg>
