<svg width="615" height="616" viewBox="0 0 615 616" fill="none" xmlns="http://www.w3.org/2000/svg">
<path d="M48.1885 483.339L307.412 307.586L0.376033 368.812L48.1885 483.339Z" fill="white"/>
<path d="M0.375996 368.812L307.412 307.586L-5.26985e-06 248.252L0.375996 368.812Z" fill="#37A022"/>
<path d="M369.523 614.745L307.422 307.495L247.212 615.172L369.523 614.745Z" fill="#37A022"/>
<path d="M483.653 566.643L307.423 307.586L369.523 614.745L483.653 566.643Z" fill="white"/>
<path d="M134.535 568.871L307.412 307.596L48.1884 483.339L134.535 568.871Z" fill="#37A022"/>
<path d="M247.212 615.172L307.412 307.586L134.515 568.892L247.212 615.172Z" fill="white"/>
<path d="M131.182 48.5292L307.412 307.586L245.302 0.335688L131.182 48.5292Z" fill="white"/>
<path d="M245.312 0.376709L307.422 307.627L367.622 0.0409492L245.312 0.376709Z" fill="#37A022"/>
<path d="M-2.59357e-06 248.252L307.412 307.586L47.1113 133.44L-2.59357e-06 248.252Z" fill="white"/>
<path d="M47.1315 133.45L307.412 307.586L131.182 48.5292L47.1315 133.45Z" fill="#37A022"/>
<path d="M367.623 0.000180474L307.423 307.586L480.32 46.281L367.623 0.000180474Z" fill="white"/>
<path d="M480.31 46.3014L307.423 307.586L566.646 131.833L480.31 46.3014Z" fill="#37A022"/>
<path d="M567.703 481.722L307.423 307.586L483.653 566.643L567.703 481.722Z" fill="#37A022"/>
<path d="M614.835 366.92L307.423 307.586L567.724 481.732L614.835 366.92Z" fill="white"/>
<path d="M566.646 131.833L307.423 307.586L614.459 246.36L566.646 131.833Z" fill="white"/>
<path d="M614.459 246.36L307.423 307.586L614.835 366.92L614.459 246.36Z" fill="#37A022"/>
</svg>
