<svg width="28" height="28" viewBox="0 0 28 28" fill="none" xmlns="http://www.w3.org/2000/svg">
<path fill-rule="evenodd" clip-rule="evenodd" d="M27.9028 0H0.048584V27.8542H27.9028V0ZM19.9444 14.2587C19.9444 10.779 17.1237 7.95831 13.6441 7.95831C10.1644 7.95831 7.34372 10.779 7.34372 14.2587C7.34186 15.3726 7.63674 16.4668 8.19804 17.429L7.34624 20.559L10.475 19.7053C11.4368 20.2661 12.5307 20.5608 13.6441 20.559C17.1237 20.559 19.9444 17.7383 19.9444 14.2587ZM11.3709 11.3025L11.4969 11.2975L11.3696 11.3019C11.4541 11.296 11.5389 11.2952 11.6235 11.2994C11.6576 11.3019 11.6916 11.3057 11.7256 11.3095C11.8258 11.3214 11.936 11.3819 11.9732 11.4663C12.161 11.8922 12.3437 12.3213 12.5201 12.7522C12.5591 12.8474 12.5358 12.9702 12.4615 13.0899C12.4237 13.1511 12.3651 13.2367 12.2958 13.3249C12.2246 13.4157 12.0715 13.5833 12.0715 13.5833C12.0715 13.5833 12.0091 13.6576 12.0331 13.7502C12.049 13.7958 12.0706 13.8392 12.0973 13.8794L12.1345 13.9392C12.3133 14.2322 12.5293 14.5007 12.7771 14.7381C12.7975 14.7578 12.8177 14.7777 12.838 14.7976C12.8929 14.8515 12.9478 14.9055 13.0058 14.9561C13.3018 15.217 13.6365 15.4302 13.9981 15.588C14.0203 15.5974 14.0379 15.6051 14.0564 15.6131C14.0828 15.6246 14.1111 15.6369 14.1569 15.6561C14.196 15.6728 14.2362 15.6866 14.2772 15.6977C14.3197 15.7086 14.3644 15.7066 14.4056 15.692C14.4469 15.6774 14.483 15.6509 14.5091 15.6158C14.9646 15.0638 15.0068 15.0279 15.01 15.0292C15.0417 14.9996 15.0793 14.9772 15.1204 14.9634C15.1615 14.9496 15.205 14.9447 15.2481 14.9492C15.2864 14.9509 15.3239 14.9597 15.359 14.975C15.6942 15.1275 16.2423 15.3663 16.2423 15.3663L16.609 15.5307C16.6701 15.5603 16.7262 15.6302 16.7287 15.6977C16.7288 15.7 16.7289 15.7025 16.729 15.705C16.731 15.7477 16.7342 15.8149 16.7199 15.9327C16.6997 16.0958 16.6506 16.2918 16.6014 16.3945C16.5668 16.4669 16.5214 16.5306 16.4691 16.5847C16.3986 16.6585 16.3463 16.7032 16.2612 16.7662C16.2096 16.8053 16.1825 16.8229 16.1825 16.8229C16.1042 16.8728 16.0237 16.919 15.9412 16.9615C15.779 17.0479 15.5998 17.0976 15.4163 17.107C15.396 17.108 15.3756 17.1091 15.3552 17.1102C15.2586 17.1153 15.1623 17.1204 15.066 17.1152L14.7082 17.0604C13.8124 16.8248 12.984 16.3834 12.2889 15.7714C12.1662 15.6634 12.0511 15.5484 11.9354 15.4329C11.9167 15.4143 11.8981 15.3956 11.8793 15.377C11.3199 14.8194 10.8959 14.2177 10.6382 13.6494C10.5122 13.3684 10.4315 13.0679 10.4303 12.7592C10.4283 12.3769 10.5538 12.005 10.7869 11.702C10.7938 11.6929 10.8007 11.6838 10.8077 11.6746C10.8466 11.6232 10.8872 11.5696 10.9513 11.5092C11.0058 11.4526 11.0682 11.4042 11.1365 11.3655C11.2096 11.3289 11.2893 11.3075 11.3709 11.3025Z" fill="white"/>
</svg>
