<svg width="28" height="28" viewBox="0 0 28 28" fill="none" xmlns="http://www.w3.org/2000/svg">
<path fill-rule="evenodd" clip-rule="evenodd" d="M27.8542 0H0V27.8542H27.8542V0ZM8.83712 19.2324H10.5255C10.568 19.1836 10.6105 19.1348 10.6529 19.086C10.7484 18.9761 10.8438 18.8663 10.94 18.7571C11.8046 17.7761 12.6695 16.7954 13.5344 15.8147L13.5382 15.8103C13.548 15.7992 13.5581 15.7884 13.5697 15.7759C13.5751 15.7701 13.5809 15.7639 13.5871 15.7572C13.5924 15.7634 13.5974 15.7691 13.6022 15.7747C13.6124 15.7864 13.6218 15.7971 13.6305 15.8084L16.2129 19.1593C16.2259 19.1762 16.2398 19.1925 16.2536 19.2088C16.2603 19.2167 16.267 19.2246 16.2736 19.2326H19.6745C19.669 19.2235 19.6638 19.2143 19.6585 19.2051C19.6473 19.1853 19.636 19.1655 19.6224 19.1476C18.2036 17.2852 16.7846 15.4231 15.3638 13.5621C15.3255 13.512 15.3288 13.485 15.3692 13.4392C16.5648 12.0856 17.759 10.7308 18.953 9.37558C18.9695 9.35685 18.983 9.33558 18.9966 9.3143C19.0029 9.30437 19.0092 9.29444 19.0159 9.28476H17.3393C17.2963 9.33301 17.2532 9.38118 17.2101 9.42935C17.1208 9.52917 17.0314 9.62901 16.9428 9.72956C16.3894 10.3571 15.8362 10.985 15.283 11.6128C15.048 11.8794 14.8131 12.146 14.5782 12.4126C14.5699 12.4219 14.5613 12.431 14.5512 12.4417C14.5455 12.4477 14.5392 12.4543 14.5323 12.4618C14.5266 12.455 14.5212 12.4485 14.5159 12.4423C14.5055 12.4299 14.4958 12.4184 14.4867 12.4065L12.1468 9.33611C12.1374 9.32387 12.1278 9.31187 12.1183 9.29986C12.1143 9.29483 12.1103 9.28981 12.1063 9.28476H8.62153C8.62499 9.29189 8.62807 9.29928 8.63116 9.30667C8.6377 9.32233 8.64423 9.33797 8.65424 9.35097C9.78475 10.819 10.9157 12.2867 12.0467 13.7544L12.5161 14.3636C12.5399 14.3944 12.5635 14.4254 12.5871 14.4564C12.6429 14.5297 12.6987 14.6031 12.7571 14.6743C12.7892 14.7134 12.7859 14.7364 12.7532 14.7733C12.0757 15.5399 11.3992 16.3074 10.7227 17.0748C10.5937 17.2211 10.4647 17.3675 10.3357 17.5138C10.2234 17.6411 10.1112 17.7684 9.99895 17.8957C9.6276 18.317 9.25623 18.7382 8.88529 19.1597C8.87231 19.1744 8.86206 19.1915 8.8518 19.2087C8.847 19.2167 8.8422 19.2247 8.83712 19.2324Z" fill="white"/>
</svg>
