<svg width="28" height="28" viewBox="0 0 28 28" fill="none" xmlns="http://www.w3.org/2000/svg">
<path fill-rule="evenodd" clip-rule="evenodd" d="M27.9514 0H0.097229V27.8542H27.9514V0ZM14.1403 9.2847H14.0666V9.28559H13.9066C13.1172 9.28857 12.3279 9.30362 11.539 9.33073L11.3972 9.33692L11.3259 9.33958L11.1833 9.34489L11.0424 9.35109C10.1222 9.39534 9.24597 9.46615 8.84225 9.58122C8.5607 9.66256 8.30412 9.82149 8.09824 10.0421C7.89236 10.2627 7.74441 10.5372 7.66922 10.8381C7.5855 11.1736 7.52664 11.6197 7.48685 12.079L7.47856 12.1711L7.46032 12.4012L7.45369 12.4933L7.4512 12.5393L7.4454 12.6305C7.40063 13.3563 7.394 14.0139 7.39234 14.2042V14.3131C7.39673 14.9144 7.41941 15.5154 7.46032 16.1152L7.46695 16.2073L7.47358 16.3002C7.51503 16.8065 7.57638 17.3101 7.6684 17.6792C7.74371 17.98 7.89171 18.2543 8.09759 18.4747C8.30346 18.6952 8.55997 18.854 8.84142 18.9352C9.24514 19.0521 10.1214 19.122 11.0416 19.1653L11.1833 19.1715L11.3251 19.1777L11.3972 19.1813L11.5381 19.1866C12.649 19.2273 13.7084 19.2326 13.9646 19.2326H14.0823C14.5888 19.2317 18.2439 19.2123 19.2055 18.9361C19.487 18.8548 19.7436 18.6958 19.9495 18.4752C20.1554 18.2546 20.3033 17.9801 20.3785 17.6792C20.4705 17.3092 20.5319 16.8065 20.5733 16.3002L20.5808 16.2081L20.5874 16.1152C20.6471 15.2726 20.6546 14.4636 20.6554 14.2919V14.2255C20.6546 14.0599 20.6479 13.3023 20.5941 12.4933L20.5874 12.4012L20.5692 12.1711L20.5609 12.079C20.5211 11.6197 20.4622 11.1744 20.3785 10.8381C20.3031 10.5373 20.1551 10.2629 19.9492 10.0424C19.7434 9.82182 19.4869 9.6628 19.2055 9.58122C18.2745 9.31391 14.8218 9.28736 14.1403 9.2847ZM12.6979 16.3905V12.126L16.144 14.2591L12.6979 16.3905Z" fill="white"/>
</svg>
