<?xml version="1.0" encoding="UTF-8"?>
<svg id="Ebene_2" data-name="Ebene 2" xmlns="http://www.w3.org/2000/svg" viewBox="0 0 80 80">
  <defs>
    <style>
      .cls-1, .cls-2 {
        fill: #fff;
      }

      .cls-3 {
        fill: #ffe019;
      }

      .cls-2 {
        stroke: #ffe019;
        stroke-linecap: round;
        stroke-linejoin: round;
      }
    </style>
  </defs>
  <g id="Layer_4" data-name="Layer 4">
    <g id="Layer_2" data-name="Layer 2">
      <circle class="cls-3" cx="40" cy="40" r="40"/>
      <g>
        <polygon class="cls-2" points="62.38 15.89 28.94 34.02 16.88 27.56 23.68 24.17 25.14 23.44 49.84 11.15 57.66 14.1 59.99 14.99 62.38 15.89"/>
        <g>
          <polygon class="cls-2" points="16.96 27.7 14.63 40.04 28.63 49.34 29.03 34.24 16.96 27.7"/>
          <polygon class="cls-2" points="62.62 16.08 64.63 25.91 28.75 49.34 29.15 34.33 62.62 16.08"/>
        </g>
      </g>
    </g>
    <g>
      <path class="cls-1" d="M31.87,57.56c-1.89,0-3.25,.52-4.1,1.57-.84,1.05-1.26,2.48-1.26,4.3,0,.88,.1,1.69,.31,2.4,.21,.72,.52,1.34,.94,1.86,.42,.52,.94,.92,1.56,1.21,.62,.29,1.35,.43,2.18,.43,.45,0,.84,0,1.16-.03,.32-.02,.6-.05,.84-.1v-6.27h4.06v8.92c-.49,.19-1.27,.39-2.34,.61-1.08,.22-2.4,.32-3.98,.32-1.35,0-2.58-.21-3.68-.62-1.1-.42-2.04-1.02-2.82-1.82-.78-.8-1.38-1.78-1.81-2.94-.42-1.16-.64-2.49-.64-3.98s.23-2.84,.7-4c.47-1.16,1.11-2.15,1.92-2.95s1.77-1.42,2.87-1.83,2.28-.62,3.52-.62c.85,0,1.62,.06,2.3,.17,.68,.11,1.27,.24,1.77,.39,.49,.15,.9,.3,1.22,.46,.32,.16,.55,.28,.69,.36l-1.17,3.25c-.55-.29-1.19-.55-1.91-.77-.72-.22-1.5-.32-2.35-.32Z"/>
      <path class="cls-1" d="M49.55,72.82c-2.93,0-5.16-.81-6.69-2.44-1.53-1.63-2.3-3.94-2.3-6.94,0-1.49,.23-2.82,.7-3.99,.47-1.17,1.11-2.16,1.92-2.96s1.79-1.42,2.91-1.83c1.13-.42,2.35-.62,3.67-.62,.76,0,1.46,.06,2.08,.17,.62,.11,1.17,.24,1.64,.39,.47,.15,.86,.3,1.17,.46,.31,.16,.54,.28,.68,.36l-1.17,3.28c-.55-.29-1.2-.55-1.94-.75s-1.57-.31-2.51-.31c-.62,0-1.24,.1-1.83,.31-.6,.21-1.13,.54-1.59,1s-.83,1.05-1.1,1.78c-.28,.73-.42,1.61-.42,2.65,0,.83,.09,1.61,.27,2.33,.18,.72,.48,1.34,.88,1.86s.94,.93,1.6,1.23c.66,.3,1.46,.46,2.39,.46,.59,0,1.12-.03,1.59-.1,.47-.07,.88-.15,1.25-.25,.36-.09,.68-.2,.96-.32,.28-.12,.53-.23,.75-.34l1.12,3.25c-.57,.35-1.38,.66-2.42,.94-1.04,.28-2.25,.42-3.61,.42Z"/>
    </g>
  </g>
</svg>