<?xml version="1.0" encoding="UTF-8"?>
<svg id="Ebene_2" data-name="Ebene 2" xmlns="http://www.w3.org/2000/svg" viewBox="0 0 80 80">
  <defs>
    <style>
      .cls-1, .cls-2 {
        fill: #fff;
      }

      .cls-3 {
        fill: #b1b1b1;
      }

      .cls-2 {
        stroke: #b1b1b1;
        stroke-linecap: round;
        stroke-linejoin: round;
      }
    </style>
  </defs>
  <g id="Layer_4" data-name="Layer 4">
    <g id="Layer_2" data-name="Layer 2">
      <circle class="cls-3" cx="40" cy="40" r="40"/>
      <g>
        <polygon class="cls-2" points="62.38 15.89 28.94 34.02 16.88 27.56 23.68 24.17 25.14 23.44 49.84 11.15 57.66 14.1 59.99 14.99 62.38 15.89"/>
        <g>
          <polygon class="cls-2" points="16.96 27.7 14.63 40.04 28.63 49.34 29.03 34.24 16.96 27.7"/>
          <polygon class="cls-2" points="62.62 16.08 64.63 25.91 28.75 49.34 29.15 34.33 62.62 16.08"/>
        </g>
      </g>
      <g>
        <path class="cls-1" d="M30.99,54.52c2.69,0,4.75,.47,6.19,1.42,1.44,.94,2.16,2.49,2.16,4.64s-.73,3.73-2.18,4.69-3.54,1.44-6.24,1.44h-1.27v6.03h-4.06v-17.76c.88-.17,1.82-.29,2.81-.36,.99-.07,1.85-.1,2.6-.1Zm.26,3.46c-.29,0-.58,0-.87,.03-.29,.02-.53,.04-.74,.05v5.2h1.27c1.4,0,2.46-.19,3.17-.57,.71-.38,1.07-1.09,1.07-2.13,0-.5-.09-.92-.27-1.25-.18-.33-.44-.59-.78-.79-.34-.2-.75-.34-1.24-.42-.49-.08-1.02-.12-1.61-.12Z"/>
        <path class="cls-1" d="M52.65,72.75c-.2-.63-.42-1.27-.65-1.93-.23-.66-.46-1.32-.69-1.97h-7.04c-.23,.66-.46,1.32-.68,1.98-.23,.66-.44,1.3-.64,1.92h-4.21c.68-1.94,1.32-3.73,1.93-5.38,.61-1.65,1.2-3.2,1.79-4.65s1.16-2.84,1.72-4.15c.56-1.31,1.15-2.59,1.76-3.83h3.84c.59,1.25,1.18,2.53,1.75,3.83,.57,1.31,1.15,2.69,1.74,4.15s1.18,3.01,1.79,4.65c.61,1.65,1.25,3.44,1.93,5.38h-4.34Zm-4.87-13.94c-.09,.26-.22,.62-.4,1.07-.17,.45-.37,.97-.59,1.56s-.47,1.24-.75,1.95c-.27,.71-.55,1.45-.84,2.23h5.15c-.28-.78-.54-1.53-.8-2.24-.26-.71-.5-1.36-.74-1.95-.23-.59-.44-1.11-.61-1.56-.18-.45-.32-.8-.42-1.06Z"/>
      </g>
    </g>
  </g>
</svg>