<?xml version="1.0" encoding="UTF-8"?>
<svg id="Ebene_2" data-name="Ebene 2" xmlns="http://www.w3.org/2000/svg" viewBox="0 0 80 80">
  <defs>
    <style>
      .cls-1, .cls-2 {
        fill: #fff;
      }

      .cls-2 {
        stroke: #e5e4e2;
        stroke-linecap: round;
        stroke-linejoin: round;
      }

      .cls-3 {
        fill: #e5e4e2;
      }
    </style>
  </defs>
  <g id="Layer_4" data-name="Layer 4">
    <g id="Layer_2" data-name="Layer 2">
      <circle class="cls-3" cx="40" cy="40" r="40"/>
      <g>
        <polygon class="cls-2" points="62.38 15.89 28.94 34.02 16.88 27.56 23.68 24.17 25.14 23.44 49.84 11.15 57.66 14.1 59.99 14.99 62.38 15.89"/>
        <g>
          <polygon class="cls-2" points="16.96 27.7 14.63 40.04 28.63 49.34 29.03 34.24 16.96 27.7"/>
          <polygon class="cls-2" points="62.62 16.08 64.63 25.91 28.75 49.34 29.15 34.33 62.62 16.08"/>
        </g>
      </g>
      <g>
        <path class="cls-1" d="M32.99,54.52c2.69,0,4.75,.47,6.19,1.42,1.44,.94,2.16,2.49,2.16,4.64s-.73,3.73-2.18,4.69-3.54,1.44-6.24,1.44h-1.27v6.03h-4.06v-17.76c.88-.17,1.82-.29,2.81-.36,.99-.07,1.85-.1,2.6-.1Zm.26,3.46c-.29,0-.58,0-.87,.03-.29,.02-.53,.04-.74,.05v5.2h1.27c1.4,0,2.46-.19,3.17-.57,.71-.38,1.07-1.09,1.07-2.13,0-.5-.09-.92-.27-1.25-.18-.33-.44-.59-.78-.79-.34-.2-.75-.34-1.24-.42-.49-.08-1.02-.12-1.61-.12Z"/>
        <path class="cls-1" d="M56.37,69.26v3.48h-12.04v-18.02h4.06v14.53h7.98Z"/>
      </g>
    </g>
  </g>
</svg>