<?xml version="1.0" encoding="UTF-8"?>
<svg id="Ebene_2" data-name="Ebene 2" xmlns="http://www.w3.org/2000/svg" viewBox="0 0 80 80">
  <defs>
    <style>
      .cls-1, .cls-2 {
        fill: #fff;
      }

      .cls-3 {
        fill: silver;
      }

      .cls-2 {
        stroke: silver;
        stroke-linecap: round;
        stroke-linejoin: round;
      }
    </style>
  </defs>
  <g id="Layer_4" data-name="Layer 4">
    <g id="Layer_2" data-name="Layer 2">
      <circle class="cls-3" cx="40" cy="40" r="40"/>
      <g>
        <polygon class="cls-2" points="62.38 15.89 28.94 34.02 16.88 27.56 23.68 24.17 25.14 23.44 49.84 11.15 57.66 14.1 59.99 14.99 62.38 15.89"/>
        <g>
          <polygon class="cls-2" points="16.96 27.7 14.63 40.04 28.63 49.34 29.03 34.24 16.96 27.7"/>
          <polygon class="cls-2" points="62.62 16.08 64.63 25.91 28.75 49.34 29.15 34.33 62.62 16.08"/>
        </g>
      </g>
      <g>
        <path class="cls-1" d="M34.72,69.65c.57,0,1.04-.05,1.42-.14,.37-.1,.67-.23,.9-.39,.23-.16,.38-.36,.47-.58,.09-.23,.13-.48,.13-.75,0-.59-.28-1.08-.83-1.47-.56-.39-1.51-.81-2.86-1.26-.59-.21-1.18-.45-1.77-.72-.59-.27-1.12-.61-1.59-1.01-.47-.41-.85-.9-1.14-1.48-.29-.58-.44-1.29-.44-2.12s.16-1.58,.47-2.25c.31-.67,.75-1.23,1.33-1.7,.57-.47,1.27-.83,2.08-1.08,.81-.25,1.73-.38,2.76-.38,1.21,0,2.26,.13,3.15,.39,.88,.26,1.61,.55,2.18,.86l-1.17,3.2c-.5-.26-1.06-.49-1.68-.69-.62-.2-1.36-.3-2.22-.3-.97,0-1.67,.13-2.09,.4-.42,.27-.64,.68-.64,1.24,0,.33,.08,.61,.23,.83,.16,.23,.38,.43,.66,.61s.62,.35,.99,.49c.37,.15,.78,.3,1.24,.46,.94,.35,1.75,.69,2.44,1.03,.69,.34,1.27,.73,1.73,1.18,.46,.45,.8,.98,1.03,1.59,.23,.61,.34,1.34,.34,2.21,0,1.68-.59,2.99-1.77,3.91-1.18,.93-2.96,1.39-5.33,1.39-.8,0-1.52-.05-2.16-.14-.64-.1-1.21-.21-1.7-.35-.49-.14-.92-.29-1.27-.44-.36-.16-.65-.3-.9-.44l1.14-3.22c.54,.29,1.2,.56,1.99,.79,.79,.23,1.75,.35,2.9,.35Z"/>
        <path class="cls-1" d="M44.94,54.73h4.06v18.02h-4.06v-18.02Z"/>
      </g>
    </g>
  </g>
</svg>