<svg width="71" height="55" viewBox="0 0 71 55" fill="none" xmlns="http://www.w3.org/2000/svg">
<path d="M70.9909 54.1587L67.3688 31.7245C67.3147 31.3717 67.0084 31.1184 66.657 31.1184H43.0865C42.7351 31.1184 42.4287 31.3717 42.3747 31.7245L38.7526 54.1587C38.7436 54.1949 38.7436 54.2401 38.7436 54.2763C38.7436 54.6743 39.0679 55 39.4644 55H70.2791C70.3151 55 70.3601 55 70.3962 54.991C70.7836 54.9276 71.0539 54.5567 70.9909 54.1587ZM28.6252 31.7245C28.5711 31.3717 28.2648 31.1184 27.9134 31.1184H4.34288C3.99149 31.1184 3.68515 31.3717 3.63108 31.7245L0.00901 54.1587C-1.37682e-07 54.1949 0 54.2401 0 54.2763C0 54.6743 0.324365 55 0.720811 55H31.5355C31.5715 55 31.6166 55 31.6526 54.991C32.049 54.9276 32.3103 54.5567 32.2473 54.1587L28.6252 31.7245ZM20.1827 23.8816H50.9974C51.0334 23.8816 51.0785 23.8816 51.1145 23.8725C51.5109 23.8092 51.7722 23.4383 51.7092 23.0403L48.0871 0.606085C48.033 0.253289 47.7267 0 47.3753 0H23.8048C23.4534 0 23.147 0.253289 23.093 0.606085L19.4709 23.0403C19.4619 23.0765 19.4619 23.1217 19.4619 23.1579C19.4619 23.5559 19.7863 23.8816 20.1827 23.8816Z" fill="black"/>
</svg>
