<svg width="64" height="55" viewBox="0 0 64 55" fill="none" xmlns="http://www.w3.org/2000/svg">
<path d="M9.0127 27.0381H22.5317V31.5444H9.0127V27.0381ZM9.0127 18.0254H31.5444V22.5317H9.0127V18.0254ZM9.0127 9.0127H31.5444V13.519H9.0127V9.0127Z" fill="black"/>
<path d="M27.0381 49.5699H4.50635V4.50635H58.5826V27.0381H63.0889V4.50635C63.0889 3.31119 62.6141 2.16498 61.769 1.31988C60.9239 0.474775 59.7777 0 58.5826 0H4.50635C3.31119 0 2.16498 0.474775 1.31988 1.31988C0.474775 2.16498 0 3.31119 0 4.50635V49.5699C0 50.765 0.474775 51.9112 1.31988 52.7563C2.16498 53.6014 3.31119 54.0762 4.50635 54.0762H27.0381V49.5699Z" fill="black"/>
<path d="M45.0635 48.6463L39.2278 42.8106L36.0508 45.9875L45.0635 55.0002L63.0889 36.9748L59.9119 33.7979L45.0635 48.6463Z" fill="black"/>
</svg>
