<svg width="65" height="55" viewBox="0 0 65 55" fill="none" xmlns="http://www.w3.org/2000/svg">
<path d="M50.4166 29.792L54.7983 38.278L64.1666 39.6393L57.2916 45.8337L59.0585 55.0003L50.4166 49.8441L41.7748 55.0003L43.5416 45.8337L36.6666 39.6393L46.2916 38.278L50.4166 29.792ZM9.16663 27.5003H22.9166V32.0837H9.16663V27.5003ZM9.16663 18.3337H32.0833V22.917H9.16663V18.3337ZM9.16663 9.16699H32.0833V13.7503H9.16663V9.16699Z" fill="black"/>
<path d="M32.0833 50.4167H4.58333V4.58333H59.5833V27.5H64.1667V4.58333C64.1667 3.36776 63.6838 2.20197 62.8242 1.34243C61.9647 0.482885 60.7989 0 59.5833 0H4.58333C3.36776 0 2.20197 0.482885 1.34243 1.34243C0.482885 2.20197 0 3.36776 0 4.58333V50.4167C0 51.6322 0.482885 52.798 1.34243 53.6576C2.20197 54.5171 3.36776 55 4.58333 55H32.0833V50.4167Z" fill="black"/>
</svg>
