<?xml version="1.0" encoding="UTF-8"?><svg id="Ebene_2" xmlns="http://www.w3.org/2000/svg" viewBox="0 0 51.19 45.42"><defs><style>.cls-1{fill:#3e3940;}.cls-2{stroke-width:1.05px;}.cls-2,.cls-3{fill:#27e34f;stroke:#3e3940;stroke-linecap:round;stroke-linejoin:round;}</style></defs><g id="Layer_4"><g><path class="cls-2" d="M35.13,30.03l-22.86,14.87L.97,27.52,23.8,12.67c-2.64-4.05-5.28-8.1-7.93-12.15L50.67,7.88c-2.49,11.51-4.98,23.01-7.47,34.52-2.69-4.12-5.38-8.24-8.07-12.37Z"/><g><ellipse class="cls-3" cx="10.5" cy="15.76" rx="10" ry="9.76"/><path class="cls-1" d="M9.8,19.12c-.59-.05-1.06-.14-1.43-.27-.37-.13-.64-.24-.81-.33l.52-1.38c.28,.14,.62,.26,1.01,.37s.8,.17,1.23,.17c.49,0,.83-.07,1.01-.2,.18-.13,.27-.32,.27-.56,0-.15-.04-.28-.11-.39s-.18-.21-.31-.29c-.14-.09-.31-.17-.52-.26s-.45-.17-.72-.27c-.26-.1-.52-.2-.78-.32-.25-.12-.48-.26-.69-.43-.21-.17-.37-.38-.49-.62-.12-.24-.19-.54-.19-.89,0-.26,.04-.52,.11-.76,.08-.25,.19-.47,.36-.67s.37-.37,.63-.51c.26-.14,.56-.24,.91-.31v-1.3h1.52v1.25c.42,.04,.78,.1,1.08,.18,.3,.08,.54,.16,.72,.24l-.37,1.44c-.27-.11-.57-.21-.92-.29-.35-.08-.72-.12-1.1-.12s-.66,.06-.83,.19c-.17,.13-.25,.3-.25,.51,0,.13,.03,.24,.08,.33,.05,.09,.13,.17,.25,.25,.11,.07,.25,.14,.42,.21,.16,.07,.36,.14,.6,.22,.35,.13,.68,.27,.98,.42,.3,.15,.56,.33,.78,.52,.22,.2,.39,.43,.52,.69,.12,.26,.19,.57,.19,.93,0,.24-.04,.48-.11,.72-.07,.24-.19,.46-.36,.66s-.39,.37-.66,.52c-.27,.14-.6,.25-.99,.31v1.47h-1.52v-1.43Z"/></g></g></g></svg>