<?xml version="1.0" encoding="UTF-8"?><svg xmlns="http://www.w3.org/2000/svg" viewBox="0 0 51 51"><defs><style>.d{fill:none;}.d,.e{stroke:#3e3940;stroke-linecap:round;stroke-linejoin:round;}.e{fill:#27e34f;}.f{fill:#3e3940;stroke:#27e34f;stroke-miterlimit:10;}</style></defs><g id="a"/><g id="b"><g id="c"><g><path class="e" d="M50.5,50.5H.5V.5H37.42c2.34,2.38,4.69,4.76,7.03,7.15,2.01,2.24,4.02,4.48,6.02,6.73,0,12.04,.01,24.08,.02,36.13Z"/><path class="d" d="M37.48,1.37V11.77c0,1.44,1.16,2.6,2.6,2.6h10.4"/><g><path class="f" d="M40.66,35.21c-.5-1.09-1.58-2.54-3-3.97-1.42-1.43-2.87-2.51-3.95-3.01,0,0-.36-.35-2.24,.42-.54,.22-1.06,.65-1.36,.95l9.19,9.24c.18-.16,.36-.33,.55-.51h0s.02-.01,.01-.02c1.32-1.33,.78-3.09,.78-3.09Z"/><path class="f" d="M29.59,30.36c-.3,.4-.76,.56-1.32,.56-1.7,0-4.25-1.52-5.32-2.59-1.42-1.42-3.64-5.44-2.03-6.64,.09-.06,.18-.11,.28-.17L12.09,12.43c-1.37,2.08-1.32,3.74-1.32,3.74,0,0-.24,7.55,8.28,16.06,8.07,8.06,15.27,8.27,16.01,8.27h.09c.23,0,1.79-.05,3.72-1.32l-9.1-9.09c-.06,.09-.12,.18-.17,.27Z"/><path class="f" d="M16.06,10.61c1.09,.5,2.54,1.58,3.97,3.01,1.43,1.42,2.5,2.87,3,3.95,0,0,.35,.36-.43,2.23-.22,.54-.65,1.05-.95,1.35L12.43,11.95c.16-.18,.33-.36,.51-.55h0s0-.02,.01-.02c1.33-1.32,3.1-.77,3.1-.77Z"/></g></g></g></g></svg>