<?xml version="1.0" encoding="UTF-8"?><svg xmlns="http://www.w3.org/2000/svg" viewBox="0 0 31 51"><defs><style>.d{fill:#27e34f;stroke:#3e3940;stroke-linecap:round;stroke-linejoin:round;}</style></defs><g id="a"/><g id="b"><g id="c"><g><path class="d" d="M3.51,12.03c1.69-.96,3.22-1.54,4.36-1.89,2.53-.78,4.39-.84,5.02-.85,1.61-.02,2.43,.21,2.92,.39,.56,.2,1.45,.54,2.19,1.39,.17,.19,.9,1.08,1.02,2.36,.16,1.84-1.07,3.28-2.24,4.64-.64,.75-.68,.64-2.22,2.13-1.85,1.79-2.77,2.68-3.61,3.86-1.4,1.98-1.94,3.85-2.1,4.48-.65,2.49-.42,4.65-.14,6.03,3.34-.08,6.68-.16,10.02-.23-.07-3.27,.85-5.35,1.7-6.65,1.28-1.96,2.15-1.74,5.5-5.33,2.44-2.62,3.24-4.09,3.73-5.34,.67-1.71,.8-3.12,.82-3.4,.4-5.02-3.02-8.72-3.2-8.92C24.16,1.42,20.02,.95,17.18,.63c-3.05-.35-5.51,.06-7.94,.46-3.25,.54-5.17,1.31-6.07,1.7-1.13,.49-2.03,1-2.67,1.39,1,2.61,2.01,5.23,3.01,7.84Z"/><ellipse class="d" cx="13.73" cy="44.28" rx="6.86" ry="6.22"/></g></g></g></svg>