<?xml version="1.0" encoding="UTF-8"?><svg xmlns="http://www.w3.org/2000/svg" viewBox="0 0 51 51"><defs><style>.d{fill:#27e34f;stroke:#3e3940;stroke-linecap:round;stroke-linejoin:round;}</style></defs><g id="a"/><g id="b"><g id="c"><path class="d" d="M10.52,48.47c9.01,3.51,14.18,1.75,14.18,0s-1.53-2.34-1.53-4.48,1.15-5.46,4.6-5.46,4.6,3.31,4.6,5.46-1.53,2.73-1.53,4.48,9.1,2.46,18.11-1.05c.52-.26,1.3-.79,1.56-1.72-.78-8.6-1.88-12.14-3.61-12.14s-2.3,1.56-4.41,1.56-5.37-1.17-5.37-4.68,3.26-4.68,5.37-4.68,2.68,1.56,4.41,1.56,3.87-6.37,1.92-16.04c-.13-.79-1.43-1.19-1.87-.85-9.01,3.51-14.18,1.75-14.18,0s1.53-2.34,1.53-4.48-1.15-5.46-4.6-5.46-4.6,3.31-4.6,5.46,1.53,2.73,1.53,4.48-5.17,3.51-14.18,0c-1.63-.74-2.7-.38-2.16,1.16,3.45,9.16,1.72,14.43,0,14.43s-2.3-1.56-4.41-1.56S.5,25.64,.5,29.14s3.26,4.68,5.37,4.68,2.68-1.56,4.41-1.56,3.45,5.26,0,14.42c-.38,.48-.57,1.24,.24,1.79Z"/></g></g></svg>