<svg width="70" height="46" viewBox="0 0 70 46" fill="none" xmlns="http://www.w3.org/2000/svg">
<path d="M65.6348 0.923157H4.52334C2.11256 0.923157 0.158203 2.87749 0.158203 5.28828V40.724C0.158203 43.1348 2.11256 45.0891 4.52334 45.0891H65.6348C68.0456 45.0891 70 43.1348 70 40.724V5.28828C70 2.87749 68.0456 0.923157 65.6348 0.923157Z" fill="#6EE327"/>
<path d="M49.875 2H20.125C18.9514 2 18 2.0885 18 2.19767V3.80233C18 3.9115 18.9514 4 20.125 4H49.875C51.0486 4 52 3.9115 52 3.80233V2.19767C52 2.0885 51.0486 2 49.875 2Z" fill="white"/>
<path d="M40.8675 25.7844C42.5385 24.555 43.7785 22.8292 44.4107 20.8534C45.0428 18.8776 45.0348 16.7525 44.3878 14.7815C43.7409 12.8105 42.4879 11.0941 40.8078 9.87724C39.1277 8.6604 37.1061 8.00525 35.0316 8.00525C32.9571 8.00525 30.9356 8.6604 29.2555 9.87724C27.5753 11.0941 26.3224 12.8105 25.6754 14.7815C25.0284 16.7525 25.0204 18.8776 25.6526 20.8534C26.2848 22.8292 27.5248 24.555 29.1957 25.7844C27.0785 26.6145 25.2599 28.0624 23.9766 29.9399C22.6933 31.8173 22.0046 34.0375 22 36.3117V43.3828H48.0632V36.3117C48.0587 34.0375 47.37 31.8173 46.0866 29.9399C44.8033 28.0624 42.9848 26.6145 40.8675 25.7844Z" fill="white"/>
<path d="M35.0315 12.1183C35.0315 12.1183 37.2979 16.4924 44.7769 16.5037C44.4548 14.1477 43.2901 11.9882 41.4985 10.4248C39.7068 8.86141 37.4094 8 35.0315 8C32.6536 8 30.3563 8.86141 28.5646 10.4248C26.7729 11.9882 25.6082 14.1477 25.2861 16.5037C25.4901 16.5037 32.6632 16.5264 35.0315 12.1183Z" fill="white"/>
<path d="M40.8674 25.7844C42.5409 24.5573 43.7835 22.8324 44.4174 20.8563C45.0512 18.8803 45.0438 16.7544 44.3962 14.7828C43.7487 12.8112 42.4941 11.095 40.8121 9.87955C39.13 8.66415 37.1067 8.01188 35.0315 8.01607H34.9521V43.3714H48.0631V36.3004C48.0562 34.0281 47.3665 31.8104 46.0833 29.9352C44.8001 28.0599 42.9829 26.6138 40.8674 25.7844Z" fill="white"/>
<path d="M35.0315 8.01605H34.9521V12.2315C34.9851 12.1944 35.0118 12.1524 35.0315 12.1068C35.0315 12.1068 37.2978 16.4809 44.7769 16.4923C44.4464 14.1423 43.2785 11.9907 41.4879 10.4333C39.6973 8.8759 37.4046 8.01751 35.0315 8.01605Z" fill="white"/>
</svg>
