<svg width="80" height="51" viewBox="0 0 80 51" fill="none" xmlns="http://www.w3.org/2000/svg">
<path d="M74.6326 0H5.18768C2.44815 0 0.227295 2.22084 0.227295 4.96036V45.2282C0.227295 47.9678 2.44815 50.1886 5.18768 50.1886H74.6326C77.3721 50.1886 79.593 47.9678 79.593 45.2282V4.96036C79.593 2.22084 77.3721 0 74.6326 0Z" fill="#6EE327"/>
<path d="M27.2566 4.30188H23.7566V45.7003H27.2566V4.30188Z" fill="white"/>
<path d="M39.6803 4.30188H37.8368V45.7003H39.6803V4.30188Z" fill="white"/>
<path d="M41.3368 4.30188H39.6803V45.7003H41.3368V4.30188Z" fill="white"/>
<path d="M55.4167 4.30188H51.9167V45.7003H55.4167V4.30188Z" fill="white"/>
<path d="M30.0354 27.2922C30.0381 28.1884 29.7747 29.0653 29.2787 29.8118C28.7827 30.5583 28.0764 31.1408 27.2491 31.4856C26.4219 31.8304 25.5109 31.922 24.6315 31.7488C23.7522 31.5756 22.9441 31.1453 22.3094 30.5125C21.6748 29.8797 21.2421 29.0728 21.0663 28.194C20.8904 27.3152 20.9794 26.4039 21.3217 25.5757C21.6641 24.7474 22.2445 24.0393 22.9895 23.5411C23.7345 23.0429 24.6106 22.777 25.5068 22.777C26.7056 22.777 27.8554 23.2523 28.7043 24.0987C29.5532 24.945 30.0319 26.0935 30.0354 27.2922Z" fill="white"/>
<path d="M39.5866 30.8992C38.4298 30.9621 37.3411 31.4659 36.5445 32.3071C35.7478 33.1482 35.3038 34.2626 35.3038 35.4211C35.3038 36.5796 35.7478 37.694 36.5445 38.5352C37.3411 39.3763 38.4298 39.8801 39.5866 39.943H39.6801V30.8992H39.5866Z" fill="white"/>
<path d="M44.1153 35.4144C44.1121 34.2317 43.6463 33.0972 42.8175 32.2534C41.9887 31.4097 40.8628 30.9236 39.6803 30.8992V39.9831C40.872 39.9585 42.006 39.4651 42.8363 38.6098C43.6665 37.7545 44.1261 36.6064 44.1153 35.4144Z" fill="white"/>
<path d="M58.1819 13.8797C58.1819 14.776 57.916 15.6521 57.4178 16.3971C56.9196 17.1421 56.2115 17.7225 55.3832 18.0649C54.555 18.4072 53.6437 18.4961 52.7649 18.3203C51.8861 18.1445 51.0792 17.7119 50.4464 17.0772C49.8136 16.4425 49.3834 15.6343 49.2102 14.755C49.0369 13.8757 49.1285 12.9647 49.4733 12.1374C49.8181 11.3102 50.4006 10.6038 51.1471 10.1078C51.8936 9.61184 52.7705 9.34851 53.6667 9.35115C54.2608 9.35115 54.849 9.46838 55.3977 9.69613C55.9464 9.92387 56.4447 10.2576 56.8642 10.6783C57.2836 11.099 57.616 11.5984 57.8421 12.1477C58.0682 12.6971 58.1837 13.2856 58.1819 13.8797Z" fill="white"/>
</svg>
