<?xml version="1.0" encoding="UTF-8"?><svg id="Ebene_2" xmlns="http://www.w3.org/2000/svg" viewBox="0 0 31.04 50.52"><defs><style>.cls-1{fill:#3e3940;}.cls-2{fill:#27e34f;stroke:#3e3940;stroke-miterlimit:10;stroke-width:1.04px;}</style></defs><g id="Layer_4"><g><g><path class="cls-2" d="M15.52,.52C6.69,.52,.52,5.62,.52,12.92c0,4.57,2.44,7.16,5.02,9.9,2.41,2.56,4.91,5.21,4.91,9.39,0,3.87,.05,6.71,.79,8.14h8.55c.73-1.43,.79-4.27,.79-8.14,0-4.18,2.5-6.83,4.91-9.39,2.58-2.74,5.02-5.33,5.02-9.9C30.52,5.62,24.35,.52,15.52,.52Z"/><polygon class="cls-1" points="10.96 43.57 10.96 44.53 15.72 43.14 12.42 43.14 10.96 43.57"/><polygon class="cls-1" points="10.96 45.51 10.96 46.47 20.1 43.8 20.1 43.14 19.05 43.14 10.96 45.51"/><polygon class="cls-1" points="10.96 48.4 20.1 45.73 20.1 44.77 10.96 47.44 10.96 48.4"/><polygon class="cls-1" points="10.96 50.34 20.1 47.67 20.1 46.71 10.96 49.38 10.96 50.34"/><polygon class="cls-1" points="16.97 50.52 20.1 49.6 20.1 48.64 13.67 50.52 16.97 50.52"/></g><path class="cls-1" d="M19.76,9.38c-.17,.6-.34,1.2-.5,1.8-.38-.23-.92-.48-1.61-.61-.72-.14-1.28-.1-1.5-.08-.55,.06-.9,.09-1.24,.36-.04,.03-.53,.43-.54,1.06,0,.66,.51,1.09,.71,1.27,.63,.53,1.03,.35,2.26,.82,.64,.25,1.42,.55,2.08,1.25,.24,.25,.71,.76,.89,1.55,.05,.21,.28,1.33-.45,2.33-.6,.82-1.52,1.12-2.23,1.34-.33,.11-.62,.17-.83,.2v2.28h-2.09v-2.22c-.45-.02-.96-.07-1.51-.18-.87-.17-1.6-.42-2.17-.66l.68-1.73c.3,.12,.72,.29,1.24,.48,1.02,.36,1.52,.55,1.96,.57,.2,.01,1.74,.08,2.36-.86,.34-.51,.24-1.07,.22-1.14-.12-.58-.56-.92-.78-1.09-.52-.39-1.03-.45-1.53-.57-.63-.15-2.24-.54-3.18-1.58-.14-.16-.92-1.02-.81-2.2,.12-1.21,1.1-1.93,1.39-2.15,.84-.62,1.74-.74,2.12-.77,0-.64,.01-1.28,.02-1.92h2.09c-.02,.58-.04,1.15-.06,1.73,.37,.02,.79,.06,1.25,.16,.69,.14,1.27,.35,1.72,.54Z"/></g></g></svg>