<?xml version="1.0" encoding="UTF-8"?><svg id="Ebene_2" xmlns="http://www.w3.org/2000/svg" viewBox="0 0 51 51"><defs><style>.cls-1{stroke-width:.7px;}.cls-1,.cls-2,.cls-3{stroke:#3e3940;}.cls-1,.cls-3{fill:#3e3940;stroke-miterlimit:10;}.cls-2{fill:#27e34f;stroke-linecap:round;stroke-linejoin:round;}.cls-3{stroke-width:.69px;}</style></defs><g id="Layer_4"><g><g><g><path class="cls-2" d="M32.99,43.46h-14.99c-3.7,0-6.7,3.15-6.7,7.04h28.38c0-3.89-3-7.04-6.7-7.04Z"/><rect class="cls-2" x="21.14" y="37.67" width="8.73" height="5.34"/><path class="cls-2" d="M49.23,.5H1.77C1.07,.5,.5,1.1,.5,1.83V35.67c0,.73,.57,1.33,1.27,1.33H49.23c.7,0,1.27-.6,1.27-1.33V1.83c0-.73-.57-1.33-1.27-1.33Zm-3.59,30.05c0,.73-.58,1.33-1.29,1.33H6.65c-.71,0-1.29-.6-1.29-1.33V6.95c0-.73,.58-1.33,1.29-1.33H44.35c.71,0,1.29,.6,1.29,1.33V30.55Z"/></g><rect class="cls-2" x="5.28" y="5.62" width="40.36" height="26.35"/></g><g><path class="cls-3" d="M15.5,31.88l.45-2.68c0-2.57,2.84-4.65,6.34-4.65h6.43c3.5,0,6.34,2.08,6.34,4.65l.45,2.68c-3.21-.03-6.45-.04-9.73-.04-3.46,0-6.88,.01-10.27,.04Z"/><circle class="cls-1" cx="25.5" cy="16.1" r="6"/></g></g></g></svg>