<?xml version="1.0" encoding="UTF-8"?><svg xmlns="http://www.w3.org/2000/svg" viewBox="0 0 51 51"><defs><style>.d{fill:none;}.d,.e{stroke:#3e3940;stroke-linecap:round;stroke-linejoin:round;}.e{fill:#27e34f;}</style></defs><g id="a"/><g id="b"><g id="c"><g><g><g><path class="e" d="M32.99,43.46h-14.99c-3.7,0-6.7,3.15-6.7,7.04h28.38c0-3.89-3-7.04-6.7-7.04Z"/><rect class="e" x="21.14" y="37.67" width="8.73" height="5.34"/><path class="e" d="M49.23,.5H1.77C1.07,.5,.5,1.1,.5,1.83V35.67c0,.73,.57,1.33,1.27,1.33H49.23c.7,0,1.27-.6,1.27-1.33V1.83c0-.73-.57-1.33-1.27-1.33Zm-3.59,30.05c0,.73-.58,1.33-1.29,1.33H6.65c-.71,0-1.29-.6-1.29-1.33V6.95c0-.73,.58-1.33,1.29-1.33H44.35c.71,0,1.29,.6,1.29,1.33V30.55Z"/></g><rect class="e" x="5.28" y="5.62" width="40.36" height="26.35"/></g><path class="d" d="M5.31,22.12c2.85-1.19,5.69-2.38,8.54-3.57,2.17,.35,4.34,.7,6.51,1.05l9.67-3.23c2.08,.49,4.17,.98,6.25,1.47,3.12-1.1,6.25-2.19,9.37-3.29"/><path class="d" d="M5.28,27.82c.89-.72,1.77-1.43,2.66-2.15l2.78,1.81c.89,.6,1.77,1.2,2.66,1.81,.51-.56,1.01-1.13,1.52-1.69,.46,.23,.93,.45,1.39,.68,.76-.68,1.52-1.36,2.28-2.03l2.02,.9,4.43-2.26c.51,.38,1.01,.75,1.52,1.13,.89-.15,1.77-.3,2.66-.45l4.05,2.37,4.43-2.94c1.76,.85,3.52,1.71,5.27,2.56,.9-.85,1.79-1.71,2.69-2.56"/><path class="d" d="M5.28,12.27c.89-.72,1.77-1.43,2.66-2.15l2.78,1.81c.89,.6,1.77,1.2,2.66,1.81,.51-.56,1.01-1.13,1.52-1.69,.46,.23,.93,.45,1.39,.68,.76-.68,1.52-1.36,2.28-2.03l2.02,.9,4.43-2.26c.51,.38,1.01,.75,1.52,1.13,.89-.15,1.77-.3,2.66-.45l4.05,2.37,4.43-2.94c1.76,.85,3.52,1.71,5.27,2.56,.9-.85,1.79-1.71,2.69-2.56"/></g></g></g></svg>