<svg width="40" height="40" viewBox="0 0 40 40" fill="none" xmlns="http://www.w3.org/2000/svg">
<rect x="0.5" y="0.5" width="39" height="39" rx="19.5" fill="white"/>
<path fill-rule="evenodd" clip-rule="evenodd" d="M8.00327 27.9548C10.5994 31.8513 15.0331 34.4186 20.0665 34.4186C28.0663 34.4186 34.5515 27.9334 34.5515 19.9335C34.5515 17.3831 33.8924 14.9867 32.7352 12.9052L31.9382 13.7217C32.4029 14.6054 32.7692 15.54 33.0288 16.5089C33.4872 18.2199 33.6042 20.0044 33.373 21.7606C33.1418 23.5167 32.567 25.2102 31.6813 26.7442L29.1811 25.3007C29.8772 24.095 30.329 22.764 30.5107 21.3837C30.6924 20.0035 30.6005 18.6009 30.2402 17.2561C30.1185 16.8019 29.9669 16.3573 29.787 15.9251L26.3872 19.4065L26.3768 19.417L26.3694 19.4246C23.8815 21.9722 21.3935 24.5197 18.9065 27.0682C17.8415 25.8832 16.7748 24.7 15.7075 23.5161L15.7012 23.5091C15.1973 22.9501 14.6932 22.391 14.1892 21.8315C12.6018 23.4034 11.0144 24.9746 9.42698 26.5457C10.5557 28.3689 12.145 29.882 14.0531 30.921C16.6991 32.3619 19.7783 32.7931 22.7184 32.1345C25.6585 31.4758 28.2594 29.7721 30.0379 27.3401L30.888 27.9617C28.9589 30.5997 26.1377 32.4477 22.9486 33.1621C19.7596 33.8765 16.4196 33.4088 13.5494 31.8459C11.5514 30.7579 9.87572 29.1907 8.66054 27.3043C8.53914 27.4244 8.41775 27.5446 8.29635 27.6647L8.29346 27.6676L8.29056 27.6705L8.00327 27.9548ZM6.93891 23.3681L6.19192 24.1077C5.79481 22.786 5.58142 21.3847 5.58142 19.9335C5.58142 11.9337 12.0666 5.44849 20.0665 5.44849C24.0815 5.44849 27.7151 7.08207 30.3387 9.72086L29.5765 10.5012C28.7352 9.65302 27.7832 8.91855 26.7442 8.31871C25.2102 7.43305 23.5168 6.85821 21.7606 6.627C20.0044 6.3958 18.2199 6.51276 16.509 6.97122C14.798 7.42967 13.1941 8.22063 11.7888 9.29894C10.3835 10.3773 9.20441 11.7218 8.31875 13.2558L10.819 14.6993C11.5151 13.4936 12.4418 12.4369 13.5463 11.5893C14.6508 10.7418 15.9114 10.1202 17.2562 9.75984C18.6009 9.39951 20.0035 9.30759 21.3838 9.4893C22.7641 9.67102 24.095 10.1228 25.3007 10.8189C26.1306 11.2981 26.89 11.8865 27.5591 12.567L25.013 15.1745L25.0009 15.1869L24.9885 15.1995L24.982 15.2062C22.9569 17.2803 20.9317 19.3544 18.9065 21.4275C18.4011 20.8666 17.8958 20.306 17.3906 19.7456L17.3883 19.7431C16.3209 18.5591 15.2542 17.3758 14.1892 16.1907C12.2259 18.1329 10.2645 20.0751 8.30354 22.0169L7.81814 22.4975C7.34456 20.1876 7.53512 17.7767 8.38796 15.5508L7.40455 15.174C6.39802 17.801 6.24196 20.6656 6.93891 23.3681Z" fill="url(#paint0_linear_379_3631)"/>
<rect x="0.5" y="0.5" width="39" height="39" rx="19.5" stroke="#C5C5C5"/>
<defs>
<linearGradient id="paint0_linear_379_3631" x1="12.0367" y1="5.44849" x2="31.6933" y2="7.50032" gradientUnits="userSpaceOnUse">
<stop stop-color="#252923"/>
<stop offset="1" stop-color="#5B5B5B"/>
</linearGradient>
</defs>
</svg>
