<svg width="68" height="69" viewBox="0 0 68 69" fill="none" xmlns="http://www.w3.org/2000/svg">
<path d="M65.1125 63.5597H4.56754V3.18726C4.56754 2.58968 4.33014 2.01659 3.90759 1.59403C3.48503 1.17148 2.91194 0.934082 2.31435 0.934082C1.71677 0.934082 1.14364 1.17148 0.721087 1.59403C0.298533 2.01659 0.0611386 2.58968 0.0611386 3.18726V68.0014C0.0590475 68.0373 0.0590475 68.0733 0.0611386 68.1092H65.0909C65.6857 68.1092 66.256 67.873 66.6765 67.4525C67.0971 67.0319 67.3333 66.4615 67.3333 65.8668C67.3333 65.2721 67.0971 64.7017 66.6765 64.2812C66.256 63.8607 65.6857 63.6244 65.0909 63.6244L65.1125 63.5597Z" fill="#6EE327"/>
<path d="M8.87988 54.8912L24.1239 27.9607L42.0847 33.5883L51.6796 15.2178L45.0171 12.7167L59.8299 4.15674L65.4791 19.8104L58.7949 17.5033L46.6773 43.8085L27.6816 37.34L15.3699 58.4273L8.87988 54.8912Z" fill="#6EE327"/>
</svg>
