<svg width="88" height="39" viewBox="0 0 88 39" fill="none" xmlns="http://www.w3.org/2000/svg">
<path d="M78.7695 8.90131H78.6015C78.505 7.93622 78.149 7.01519 77.5715 6.23598C76.9939 5.45677 76.2163 4.84831 75.321 4.47526C74.4257 4.10222 73.4461 3.97843 72.4861 4.117C71.5261 4.25557 70.6216 4.65133 69.8683 5.26234C68.5489 3.09392 66.5945 1.38379 64.2701 0.363905H64.0742L63.6263 0.168118H63.3464H62.9265H62.6746L62.0028 8.0565e-06H61.415H61.1631H60.6592H59.4556C56.686 -0.00317691 53.998 0.93806 51.8353 2.66825C49.6725 4.39843 48.1643 6.81424 47.5594 9.51704C45.5534 10.1369 43.8356 11.4543 42.7168 13.231C41.598 15.0077 41.1522 17.1261 41.46 19.203C41.7678 21.2799 42.8089 23.1781 44.3949 24.5539C45.9809 25.9296 48.0071 26.6922 50.1066 26.7036C50.6002 26.7462 51.0966 26.7462 51.5901 26.7036H78.9934C80.1182 26.6889 81.2291 26.4528 82.2626 26.0088C83.2962 25.5647 84.2322 24.9214 85.0172 24.1156C85.8021 23.3099 86.4207 22.3574 86.8375 21.3126C87.2544 20.2678 87.4614 19.1511 87.4467 18.0263C87.432 16.9015 87.1959 15.7905 86.7518 14.757C86.3078 13.7234 85.6646 12.7876 84.8588 12.0026C84.0531 11.2177 83.1006 10.599 82.0558 10.1821C81.011 9.76527 79.8943 9.55837 78.7695 9.57307V8.90131Z" fill="#6EE327"/>
<path d="M37.6786 2.43652H36.391H35.7192H35.3833L34.5995 2.57644H34.4316L33.5639 2.7724H33.2L32.6402 2.94034H32.2763L31.6885 3.16415H31.4365C28.2926 4.48461 25.6403 6.75525 23.851 9.65809C22.85 8.84158 21.6463 8.312 20.3681 8.1258C19.0898 7.93959 17.785 8.10372 16.5927 8.60074C15.4004 9.09776 14.3654 9.90913 13.5979 10.9481C12.8304 11.9871 12.3593 13.215 12.2347 14.5007H12.0108C8.91137 14.445 5.9168 15.6228 3.68583 17.7751C1.45486 19.9273 0.170236 22.8775 0.114559 25.9769C0.0588811 29.0763 1.23671 32.0708 3.38894 34.3018C5.54117 36.5328 8.4915 37.8175 11.5909 37.8731H38.2664V2.46437L37.6786 2.43652Z" fill="#6EE327"/>
<path d="M51.3661 27.0404C50.8445 27.0831 50.3203 27.0831 49.7987 27.0404C47.5105 27.0542 45.2914 26.2573 43.5347 24.7912C41.7779 23.3251 40.597 21.2844 40.2013 19.0307C39.8055 16.777 40.2205 14.4559 41.3727 12.479C42.5249 10.5021 44.3398 8.99685 46.4957 8.23029C46.7387 7.32942 47.0765 6.45685 47.5034 5.62714C44.8766 3.60866 41.6884 2.45468 38.3783 2.32422V37.8729H48.1472C48.8035 37.9867 49.4684 38.0429 50.1345 38.0408C53.0988 38.0399 55.9517 36.9114 58.1142 34.884C60.2767 32.8566 61.5869 30.0823 61.7788 27.1243L51.3661 27.0404Z" fill="#6EE327"/>
</svg>
