<?xml version="1.0" encoding="UTF-8"?><svg xmlns="http://www.w3.org/2000/svg" viewBox="0 0 51.04 51.04"><defs><style>.d{fill:#27e34f;stroke:#1a3b00;stroke-miterlimit:10;stroke-width:1.04px;}</style></defs><g id="a"/><g id="b"><g id="c"><g><path class="d" d="M6.4,6.4C-.96,13.75-1.48,25.17,5.24,31.89c6.24,6.24,16.52,6.24,23.85,.33l5.05,5.05,3.12-3.12-5.05-5.05c5.92-7.33,5.91-17.61-.33-23.85C25.17-1.48,13.75-.96,6.4,6.4ZM28.21,28.42c-5.83,5.83-14.88,6.24-20.21,.91-5.33-5.33-4.92-14.38,.91-20.21,5.83-5.83,14.88-6.24,20.21-.91,5.33,5.33,4.92,14.38-.91,20.21Z"/><path class="d" d="M8.83,8.83c-5.88,5.88-6.29,15.02-.92,20.39,5.37,5.37,14.51,4.95,20.39-.92,5.88-5.87,6.29-15.02,.92-20.39-5.37-5.37-14.51-4.95-20.39,.92Z"/><path class="d" d="M39.68,32.29l-7.39,7.39c-.92,.92-1.14,2.2-.49,2.85,.65,.65,1.93,.44,2.85-.49l7.39-7.39c.92-.92,1.14-2.2,.49-2.85-.65-.65-1.93-.44-2.85,.49Z"/><path class="d" d="M43,49.48c1.55,1.55,4.25,1.35,6.04-.44,1.79-1.79,1.99-4.49,.44-6.04l-7.7-7.7-6.48,6.48,7.7,7.7Z"/></g></g></g></svg>