<svg width="42" height="43" viewBox="0 0 42 43" fill="none" xmlns="http://www.w3.org/2000/svg">
<path fill-rule="evenodd" clip-rule="evenodd" d="M42 0.800781H0V42.8008H42V0.800781ZM26.2472 13.9446C26.3357 14.0332 26.3855 14.1532 26.3855 14.2784V16.7332C26.3855 16.8584 26.3357 16.9785 26.2472 17.067C26.1587 17.1555 26.0386 17.2052 25.9134 17.2052H23.5531C23.3182 17.2041 23.0913 17.2905 22.9167 17.4476C22.7422 17.6047 22.6324 17.8213 22.6089 18.055V20.6041H25.7718C25.844 20.6045 25.9152 20.6215 25.9798 20.6538C26.0445 20.686 26.1009 20.7326 26.1446 20.7901C26.1884 20.8476 26.2184 20.9143 26.2324 20.9852C26.2463 21.0561 26.2438 21.1292 26.225 21.1989L25.5452 23.6537C25.5179 23.7551 25.4576 23.8445 25.3738 23.9077C25.29 23.971 25.1875 24.0045 25.0826 24.003H22.6089V30.3287C22.6089 30.4539 22.5592 30.574 22.4707 30.6625C22.3821 30.751 22.2621 30.8008 22.1369 30.8008H19.3045C19.1793 30.8008 19.0592 30.751 18.9707 30.6625C18.8821 30.574 18.8324 30.4539 18.8324 30.3287V24.003H16.4721C16.3469 24.003 16.2268 23.9533 16.1383 23.8647C16.0497 23.7762 16 23.6561 16 23.5309V21.0762C16 20.951 16.0497 20.8309 16.1383 20.7424C16.2268 20.6539 16.3469 20.6041 16.4721 20.6041H18.8324V18.055C18.8983 16.8668 19.4318 15.7529 20.3163 14.9569C21.2009 14.1608 22.3645 13.7472 23.5531 13.8064H25.9134C26.0386 13.8064 26.1587 13.8561 26.2472 13.9446Z" fill="#0D1625"/>
</svg>
