<svg width="42" height="43" viewBox="0 0 42 43" fill="none" xmlns="http://www.w3.org/2000/svg">
<path fill-rule="evenodd" clip-rule="evenodd" d="M42 0.544922H0V42.5449H42V0.544922ZM15.4028 15.9491C15.7768 15.5754 15.9871 15.0684 15.9874 14.5396C15.9877 14.0109 15.7779 13.5036 15.4042 13.1296C15.0305 12.7555 14.5235 12.5452 13.9947 12.5449C13.4659 12.5447 12.9587 12.7545 12.5846 13.1282C12.2106 13.5019 12.0003 14.0089 12 14.5376C11.9997 15.0664 12.2095 15.5736 12.5832 15.9477C12.9569 16.3218 13.4639 16.5321 13.9927 16.5323C14.5215 16.5326 15.0287 16.3228 15.4028 15.9491ZM12.0598 18.0087H16.0472V30.4893H12.0598V18.0087ZM18.3799 18.0087H22.3473L22.3075 19.6834C23.9622 16.6629 31 16.4336 31 22.5842V30.4893H27.0624V23.9399C27.0624 19.9525 22.3075 20.2915 22.3075 23.9399V30.4893H18.3799V18.0087Z" fill="#0D1625"/>
</svg>
