<svg width="42" height="43" viewBox="0 0 42 43" fill="none" xmlns="http://www.w3.org/2000/svg">
<path fill-rule="evenodd" clip-rule="evenodd" d="M42 0.800781H0V42.8008H42V0.800781ZM30 22.3008C30 17.0539 25.7469 12.8008 20.5 12.8008C15.2532 12.8008 11 17.0539 11 22.3008C10.9972 23.9804 11.4419 25.6304 12.2882 27.0812L11.0038 31.8008L15.7215 30.5135C17.1718 31.3592 18.8211 31.8035 20.5 31.8008C25.7469 31.8008 30 27.5476 30 22.3008ZM17.0724 17.8434L17.2624 17.8358L17.0705 17.8424C17.1979 17.8336 17.3258 17.8323 17.4534 17.8386C17.5047 17.8424 17.556 17.8481 17.6073 17.8538C17.7583 17.8719 17.9246 17.9631 17.9806 18.0904C18.2637 18.7326 18.5392 19.3795 18.8052 20.0293C18.8641 20.1728 18.829 20.358 18.7169 20.5385C18.6599 20.6307 18.5715 20.7599 18.467 20.8929C18.3597 21.0297 18.1288 21.2824 18.1288 21.2824C18.1288 21.2824 18.0348 21.3945 18.0709 21.5341C18.0949 21.6028 18.1275 21.6682 18.1678 21.7289L18.2238 21.8191C18.4933 22.2609 18.8191 22.6658 19.1928 23.0237C19.2235 23.0534 19.254 23.0834 19.2845 23.1134C19.3673 23.1947 19.4502 23.2761 19.5377 23.3524C19.9839 23.7459 20.4887 24.0673 21.0339 24.3053C21.0673 24.3194 21.0938 24.3309 21.1218 24.3431C21.1615 24.3604 21.2042 24.3789 21.2733 24.4079C21.3322 24.433 21.3929 24.454 21.4548 24.4706C21.5187 24.487 21.5861 24.4841 21.6484 24.4621C21.7106 24.4401 21.7649 24.4 21.8044 24.3471C22.4912 23.5149 22.5549 23.4607 22.5596 23.4626C22.6074 23.4181 22.6642 23.3842 22.7261 23.3634C22.788 23.3426 22.8537 23.3353 22.9187 23.342C22.9764 23.3446 23.033 23.3578 23.0859 23.3809C23.5913 23.6108 24.4178 23.9709 24.4178 23.9709L24.9707 24.2188C25.0629 24.2635 25.1474 24.3689 25.1512 24.4706C25.1514 24.4741 25.1515 24.4778 25.1517 24.4817C25.1547 24.546 25.1594 24.6474 25.1379 24.8249C25.1075 25.071 25.0334 25.3664 24.9593 25.5213C24.9071 25.6305 24.8387 25.7265 24.7598 25.8082C24.6534 25.9193 24.5746 25.9868 24.4463 26.0818C24.3684 26.1407 24.3276 26.1673 24.3276 26.1673C24.2095 26.2425 24.0881 26.3122 23.9637 26.3763C23.7192 26.5065 23.449 26.5814 23.1724 26.5957C23.1416 26.5972 23.1109 26.5988 23.0802 26.6005C22.9345 26.6082 22.7893 26.6159 22.6442 26.6081L22.1046 26.5254C20.7539 26.1702 19.5048 25.5046 18.4566 24.5817C18.2717 24.4189 18.0981 24.2456 17.9236 24.0713C17.8955 24.0432 17.8673 24.0151 17.8391 23.987C16.9955 23.1463 16.3561 22.239 15.9676 21.3821C15.7776 20.9584 15.656 20.5053 15.6541 20.0398C15.6512 19.4634 15.8404 18.9025 16.1918 18.4457C16.2023 18.432 16.2127 18.4182 16.2232 18.4044C16.2819 18.3268 16.343 18.246 16.4397 18.155C16.5219 18.0697 16.616 17.9967 16.719 17.9384C16.8292 17.8832 16.9494 17.8509 17.0724 17.8434Z" fill="#0D1625"/>
</svg>
