<svg width="27" height="25" viewBox="0 0 27 25" fill="none" xmlns="http://www.w3.org/2000/svg">
<path d="M3.13158 25C2.40789 25 1.7886 24.7425 1.27368 24.2276C0.758772 23.7127 0.500877 23.093 0.5 22.3684V7.89474C0.5 7.17105 0.757895 6.55175 1.27368 6.03684C1.78947 5.52193 2.40877 5.26403 3.13158 5.26316H8.39474V2.63158C8.39474 1.90789 8.65263 1.2886 9.16842 0.773684C9.68421 0.258772 10.3035 0.000877193 11.0263 0H16.2895C17.0132 0 17.6329 0.257895 18.1487 0.773684C18.6645 1.28947 18.9219 1.90877 18.9211 2.63158V5.26316H24.1842C24.9079 5.26316 25.5276 5.52105 26.0434 6.03684C26.5592 6.55263 26.8167 7.17193 26.8158 7.89474V22.3684C26.8158 23.0921 26.5583 23.7118 26.0434 24.2276C25.5285 24.7434 24.9088 25.0009 24.1842 25H3.13158ZM11.0263 5.26316H16.2895V2.63158H11.0263V5.26316Z" fill="white"/>
</svg>
