<?xml version="1.0" encoding="UTF-8"?><svg id="Ebene_2" xmlns="http://www.w3.org/2000/svg" viewBox="0 0 51 51"><defs><style>.cls-1,.cls-2,.cls-3{fill:#27e34f;}.cls-4{stroke:#27e34f;stroke-miterlimit:10;stroke-width:.68px;}.cls-4,.cls-5,.cls-6{fill:#3e3940;}.cls-5{stroke-width:.61px;}.cls-5,.cls-2,.cls-3{stroke:#3e3940;stroke-linecap:round;stroke-linejoin:round;}.cls-2{stroke-width:.99px;}</style></defs><g id="Layer_4"><g><g><rect class="cls-3" x=".5" y=".5" width="50" height="50"/><line class="cls-3" x1="25.9" y1="8.83" x2="42.17" y2="8.83"/><line class="cls-3" x1="25.9" y1="17.61" x2="42.17" y2="17.61"/><line class="cls-3" x1="8.83" y1="25.5" x2="42.17" y2="25.5"/><line class="cls-3" x1="8.83" y1="33.83" x2="25.5" y2="33.83"/><line class="cls-2" x1="8.83" y1="42.17" x2="25.5" y2="42.17"/></g><g><g><circle class="cls-4" cx="36.12" cy="37.09" r="8.48"/><path class="cls-4" d="M36.57,28.65v9.23c-2.51,1.28-5.02,2.57-7.53,3.85,1.51,2.33,4.14,3.87,7.12,3.87,4.68,0,8.48-3.8,8.48-8.48s-3.58-8.26-8.07-8.47Z"/></g><circle class="cls-1" cx="36.16" cy="37.06" r="3.88"/></g><g><line class="cls-5" x1="8.54" y1="17.85" x2="23.54" y2="17.85"/><rect class="cls-5" x="10.1" y="15.74" width="1.78" height="2.04"/><circle class="cls-6" cx="17.56" cy="11.16" r=".1"/><circle class="cls-6" cx="17.81" cy="17.78" r=".1"/><rect class="cls-5" x="16.75" y="13.82" width="1.78" height="3.85"/><rect class="cls-5" x="13.54" y="14.49" width="1.78" height="3.25"/><rect class="cls-5" x="20.1" y="5.87" width="1.78" height="11.91"/></g></g></g></svg>