<?xml version="1.0" encoding="UTF-8"?><svg id="Ebene_2" xmlns="http://www.w3.org/2000/svg" viewBox="0 0 51 51"><defs><style>.cls-1,.cls-2{fill-rule:evenodd;}.cls-1,.cls-3{fill:#27e34f;}.cls-2{fill:#3e3940;}.cls-3{stroke:#3e3940;stroke-linecap:round;stroke-linejoin:round;}</style></defs><g id="Layer_4"><g><rect class="cls-3" x=".5" y=".5" width="50" height="50"/><g><path class="cls-2" d="M15.01,13.48c3.4-.27,7.42-.41,10.49-.41h0c3.06,0,7.01,.14,10.49,.41,4.02,.34,6.06,1.02,6.61,5.04,.27,1.84,.41,4.36,.41,6.95h0c0,2.59-.14,5.18-.41,6.95-.54,4.09-2.59,4.7-6.61,5.04-3.47,.34-7.42,.41-10.49,.41h0c-3.06,0-7.08-.07-10.49-.41-4.02-.34-6.13-.95-6.67-5.04-.2-1.77-.34-4.36-.34-6.95h0c0-2.59,.14-5.11,.34-6.95,.54-4.02,2.66-4.7,6.67-5.04h0Z"/><polygon class="cls-1" points="21.96 20.22 31.08 25.46 21.96 30.77 21.96 20.22"/></g></g></g></svg>