<?xml version="1.0" encoding="UTF-8"?><svg id="Ebene_2" xmlns="http://www.w3.org/2000/svg" viewBox="0 0 51 51"><defs><style>.cls-1{fill:#3e3940;}.cls-2{fill:#27e34f;stroke:#3e3940;stroke-linecap:round;stroke-linejoin:round;}</style></defs><g id="Layer_4"><g><circle class="cls-2" cx="25.5" cy="25.5" r="25"/><path class="cls-1" d="M32.25,15.95c-.28,1.03-.56,2.06-.84,3.09-.64-.39-1.55-.82-2.69-1.05-1.2-.25-2.14-.17-2.52-.13-.91,.1-1.51,.16-2.07,.62-.07,.06-.88,.74-.9,1.82-.01,1.12,.85,1.88,1.19,2.17,1.05,.91,1.72,.6,3.79,1.41,1.08,.42,2.38,.95,3.49,2.13,.4,.43,1.19,1.3,1.49,2.66,.08,.36,.46,2.28-.75,3.99-1,1.41-2.55,1.92-3.73,2.3-.56,.18-1.04,.28-1.38,.34v3.9h-3.5v-3.81c-.75-.04-1.6-.12-2.53-.3-1.46-.28-2.68-.72-3.63-1.13,.38-.99,.76-1.98,1.14-2.97,.5,.21,1.2,.5,2.07,.82,1.7,.63,2.55,.94,3.27,.98,.33,.02,2.91,.14,3.96-1.47,.57-.88,.4-1.83,.37-1.95-.2-1-.94-1.58-1.31-1.86-.88-.67-1.73-.77-2.56-.98-1.06-.26-3.75-.93-5.31-2.7-.24-.27-1.54-1.75-1.35-3.77,.2-2.08,1.85-3.32,2.33-3.68,1.41-1.06,2.91-1.26,3.55-1.32,.01-1.1,.02-2.2,.04-3.29h3.5c-.03,.99-.07,1.98-.1,2.97,.62,.03,1.32,.11,2.1,.27,1.16,.24,2.13,.59,2.88,.93Z"/></g></g></svg>