<?xml version="1.0" encoding="UTF-8"?>
<svg id="Ebene_2" data-name="Ebene 2" xmlns="http://www.w3.org/2000/svg" viewBox="0 0 80 80">
  <defs>
    <style>
      .cls-1, .cls-2 {
        fill: #12227e;
      }

      .cls-1, .cls-3, .cls-4, .cls-5, .cls-6 {
        stroke-width: 1.01px;
      }

      .cls-1, .cls-3, .cls-6 {
        stroke: #12227e;
      }

      .cls-1, .cls-6 {
        stroke-miterlimit: 10;
      }

      .cls-3, .cls-4 {
        fill: none;
      }

      .cls-3, .cls-4, .cls-5 {
        stroke-linecap: round;
        stroke-linejoin: round;
      }

      .cls-4, .cls-5 {
        stroke: #fff;
      }

      .cls-5, .cls-6 {
        fill: #fff;
      }
    </style>
  </defs>
  <g id="Layer_4" data-name="Layer 4">
    <g id="Layer_2" data-name="Layer 2">
      <circle class="cls-2" cx="40" cy="40" r="40"/>
    </g>
    <g>
      <path class="cls-5" d="M46.08,28.96c.78-5.05,1.57-10.1,2.35-15.15H31.08c.75,5.06,1.49,10.13,2.24,15.19-7.61,2.68-13.53,9.81-13.56,17.88-.04,10.23,9.37,16.31,9.98,16.69,6.49,.05,12.99,.1,19.48,.15,.45-.26,10.52-6.31,10.54-16.84,.01-8.14-6-15.29-13.67-17.93Z"/>
      <line class="cls-4" x1="28.35" y1="13.72" x2="51.16" y2="13.72"/>
      <g>
        <path class="cls-6" d="M27.87,41.03c.7-1.03,1.84-1.29,2.29-1.39,3.74-.85,5.37,3.27,9.78,3.22,2.04-.03,4.13-.94,5.14-1.37,2.36-1.02,3.31-2.05,4.6-1.56,.73,.27,1.95,1.17,2.33,2.52,0,.03,.02,.06,.02,.08,.91,3.48-1.24,6.53-1.69,7.16-.92,1.31-1.92,1.98-3,2.71-2.26,1.53-4.31,2.01-5.07,2.16-.94,.19-3.99,.69-7.57-.73-1.43-.57-3.32-1.32-4.99-3.4-.62-.77-2.1-2.83-2.39-5.78-.1-1.07-.22-2.48,.54-3.61Z"/>
        <path class="cls-1" d="M35.16,41.43c.43-.14,.62,.25,1.68,.72,.36,.16,1.58,.67,3.11,.71,.76,.02,1.35-.08,1.75-.15,.35-.06,1.1-.19,2.04-.55,1.04-.4,1.23-.73,1.49-.58,.5,.28,.47,1.81-.04,2.96-.55,1.24-1.57,1.82-2.25,2.21-.52,.3-2.15,1.19-4.28,.82-.7-.12-2.17-.51-3.36-1.81-.41-.45-.93-1.03-1.04-1.92-.12-.97,.24-2.18,.91-2.41Z"/>
      </g>
      <line class="cls-3" x1="31.87" y1="19.19" x2="47.6" y2="19.19"/>
    </g>
  </g>
</svg>