<svg width="59" height="59" viewBox="0 0 59 59" fill="none" xmlns="http://www.w3.org/2000/svg">
<path d="M29.5 0C13.2074 0 0 13.2074 0 29.5C0 45.7926 13.2074 59 29.5 59C45.7926 59 59 45.7926 59 29.5C59 13.2074 45.7926 0 29.5 0ZM41.4997 24.1654C41.512 24.4174 41.5151 24.6694 41.5151 24.9152C41.5151 32.5975 35.6735 41.4506 24.9859 41.4506C21.8278 41.4558 18.7355 40.5488 16.0806 38.8386C16.5323 38.8939 16.9963 38.9154 17.4665 38.9154C20.1891 38.9154 22.6935 37.9905 24.6817 36.4294C23.4701 36.4056 22.2961 36.0044 21.3233 35.2817C20.3505 34.5591 19.6275 33.5509 19.2549 32.3978C20.125 32.5632 21.0214 32.5285 21.8761 32.2964C20.561 32.0304 19.3784 31.3179 18.5288 30.2795C17.6792 29.2411 17.2148 27.9408 17.2145 26.5992V26.5285C17.9981 26.9618 18.8954 27.226 19.848 27.2568C18.6151 26.4361 17.7424 25.1754 17.4082 23.7325C17.0741 22.2897 17.3037 20.7737 18.0503 19.4946C19.5098 21.2892 21.3299 22.7572 23.3928 23.8038C25.4557 24.8503 27.7153 25.4519 30.0255 25.5697C29.7318 24.3231 29.8582 23.0143 30.385 21.8469C30.9119 20.6795 31.8097 19.7189 32.9388 19.1144C34.068 18.5098 35.3652 18.2953 36.6288 18.5041C37.8925 18.7129 39.0518 19.3333 39.9264 20.269C41.2268 20.0117 42.4738 19.5347 43.6139 18.8585C43.1805 20.2048 42.2731 21.3481 41.0603 22.0758C42.2122 21.9371 43.3369 21.6274 44.3975 21.157C43.6185 22.3244 42.6371 23.3432 41.4997 24.1654Z" fill="#171618"/>
</svg>
