<svg width="82" height="55" viewBox="0 0 82 55" fill="none" xmlns="http://www.w3.org/2000/svg">
<path d="M79.3146 8.47786C78.8559 6.84177 77.9625 5.36053 76.7293 4.19161C75.4613 2.98675 73.9072 2.12488 72.2136 1.68736C65.8753 0.0167359 40.4818 0.0167363 40.4818 0.0167363C29.8956 -0.103709 19.3119 0.426038 8.79058 1.60299C7.09697 2.07283 5.54573 2.95395 4.27483 4.16799C3.02608 5.36949 2.12158 6.85111 1.64908 8.47449C0.514047 14.5891 -0.0374314 20.7978 0.00208299 27.0167C-0.038417 33.2301 0.511708 39.4367 1.64908 45.559C2.11146 47.1756 3.01258 48.6505 4.26471 49.8419C5.51683 51.0332 7.07608 51.8939 8.79058 52.3495C15.2132 54.0167 40.4818 54.0167 40.4818 54.0167C51.0816 54.1373 61.6787 53.6076 72.2136 52.4305C73.9072 51.993 75.4613 51.1311 76.7293 49.9262C77.9621 48.7576 78.8545 47.2761 79.3112 45.64C80.4759 39.5277 81.0422 33.3165 81.0021 27.0944C81.0897 20.8459 80.5241 14.6054 79.3146 8.47449V8.47786ZM32.4088 38.5727V15.4641L53.5363 27.0201L32.4088 38.5727Z" fill="#171618"/>
</svg>
