<svg width="410" height="409" viewBox="0 0 410 409" fill="none" xmlns="http://www.w3.org/2000/svg">
<path d="M205.264 0.23291C92.3342 0.23291 0.783447 91.6776 0.783447 204.483C0.783447 317.288 92.3342 408.726 205.264 408.726C318.194 408.726 409.744 317.282 409.744 204.483C409.744 91.6842 318.2 0.23291 205.264 0.23291ZM204.972 383.051C106.445 383.051 26.5746 303.253 26.5746 204.867C26.5746 106.481 106.445 26.6492 204.972 26.6492C303.499 26.6492 383.364 106.454 383.364 204.867C383.364 303.279 303.493 383.051 204.972 383.051Z" fill="#6EE327"/>
<path d="M339.248 72.7586C342.204 72.7586 344.601 70.3648 344.601 67.4119C344.601 64.4589 342.204 62.0651 339.248 62.0651C336.291 62.0651 333.895 64.4589 333.895 67.4119C333.895 70.3648 336.291 72.7586 339.248 72.7586Z" fill="#242923"/>
<path d="M282.923 27.8346C283.568 24.9527 281.751 22.0943 278.866 21.4502C275.981 20.806 273.119 22.62 272.474 25.5018C271.83 28.3837 273.646 31.242 276.531 31.8862C279.416 32.5304 282.278 30.7164 282.923 27.8346Z" fill="#242923"/>
<path d="M383.269 130.239C385.359 128.151 385.359 124.766 383.269 122.678C381.178 120.59 377.789 120.59 375.698 122.678C373.608 124.766 373.608 128.151 375.698 130.239C377.789 132.328 381.178 132.328 383.269 130.239Z" fill="#242923"/>
<path d="M400.945 200.904C401.418 197.989 399.434 195.243 396.516 194.772C393.598 194.3 390.849 196.281 390.377 199.196C389.905 202.111 391.888 204.856 394.806 205.328C397.725 205.8 400.473 203.819 400.945 200.904Z" fill="#242923"/>
<path d="M387.149 275.436C389.239 273.348 389.239 269.963 387.149 267.875C385.059 265.786 381.669 265.786 379.579 267.875C377.488 269.963 377.488 273.348 379.579 275.436C381.669 277.524 385.058 277.524 387.149 275.436Z" fill="#242923"/>
<path d="M348.235 339.878C350.326 337.79 350.326 334.404 348.235 332.316C346.145 330.228 342.756 330.228 340.665 332.316C338.575 334.404 338.575 337.79 340.665 339.878C342.756 341.966 346.145 341.966 348.235 339.878Z" fill="#242923"/>
<path d="M280.804 385.543C283.619 384.639 285.167 381.627 284.262 378.816C283.357 376.005 280.342 374.458 277.528 375.362C274.713 376.266 273.165 379.277 274.07 382.089C274.975 384.9 277.99 386.446 280.804 385.543Z" fill="#242923"/>
<path d="M208.179 399.823C210.27 397.735 210.27 394.35 208.179 392.262C206.089 390.174 202.7 390.174 200.609 392.262C198.519 394.35 198.519 397.735 200.609 399.823C202.7 401.912 206.089 401.912 208.179 399.823Z" fill="#242923"/>
<path d="M138.054 381.698C138.735 378.824 136.956 375.943 134.079 375.262C131.202 374.582 128.318 376.359 127.636 379.232C126.954 382.106 128.734 384.987 131.611 385.668C134.487 386.349 137.372 384.571 138.054 381.698Z" fill="#242923"/>
<path d="M71.5318 346.788C74.4881 346.788 76.8848 344.394 76.8848 341.442C76.8848 338.489 74.4881 336.095 71.5318 336.095C68.5754 336.095 66.1788 338.489 66.1788 341.442C66.1788 344.394 68.5754 346.788 71.5318 346.788Z" fill="#242923"/>
<path d="M28.1447 283.242C31.101 283.242 33.4977 280.848 33.4977 277.895C33.4977 274.942 31.101 272.549 28.1447 272.549C25.1883 272.549 22.7917 274.942 22.7917 277.895C22.7917 280.848 25.1883 283.242 28.1447 283.242Z" fill="#242923"/>
<path d="M17.0069 206.362C19.0974 204.274 19.0974 200.888 17.0069 198.8C14.9165 196.712 11.5271 196.712 9.43666 198.8C7.34618 200.888 7.34618 204.274 9.43665 206.362C11.5271 208.45 14.9165 208.45 17.0069 206.362Z" fill="#242923"/>
<path d="M32.6195 132.126C33.0917 129.21 31.1086 126.465 28.1902 125.993C25.2717 125.522 22.5231 127.503 22.051 130.418C21.5788 133.333 23.5619 136.078 26.4803 136.55C29.3988 137.021 32.1474 135.041 32.6195 132.126Z" fill="#242923"/>
<path d="M75.5613 68.4338C76.0335 65.5188 74.0504 62.7734 71.1319 62.3018C68.2135 61.8301 65.4649 63.8109 64.9927 66.726C64.5206 69.641 66.5037 72.3865 69.4221 72.8581C72.3405 73.3297 75.0891 71.3489 75.5613 68.4338Z" fill="#242923"/>
<path d="M137.034 30.4606C139.125 28.3725 139.125 24.9871 137.034 22.8991C134.944 20.811 131.554 20.811 129.464 22.8991C127.373 24.9871 127.373 28.3725 129.464 30.4606C131.554 32.5486 134.944 32.5486 137.034 30.4606Z" fill="#242923"/>
</svg>
