<svg width="16" height="17" viewBox="0 0 16 17" fill="none" xmlns="http://www.w3.org/2000/svg">
<path d="M7.81533 16.116C6.26961 16.116 4.75859 15.6577 3.47337 14.7989C2.18814 13.9401 1.18643 12.7195 0.59491 11.2915C0.00338625 9.86342 -0.151383 8.29202 0.150173 6.77599C0.451729 5.25997 1.19607 3.86741 2.28906 2.77441C3.38205 1.68142 4.77461 0.937081 6.29064 0.635524C7.80666 0.333968 9.37807 0.488738 10.8061 1.08026C12.2342 1.67179 13.4548 2.6735 14.3135 3.95872C15.1723 5.24395 15.6307 6.75496 15.6307 8.30069C15.6307 10.3734 14.8073 12.3613 13.3416 13.827C11.8759 15.2926 9.88809 16.116 7.81533 16.116ZM7.81533 1.60183C6.49043 1.60183 5.19527 1.99471 4.09365 2.73079C2.99203 3.46687 2.13342 4.51309 1.6264 5.73715C1.11938 6.9612 0.986719 8.30812 1.2452 9.60757C1.50367 10.907 2.14168 12.1006 3.07853 13.0375C4.01538 13.9743 5.209 14.6123 6.50845 14.8708C7.8079 15.1293 9.15482 14.9966 10.3789 14.4896C11.6029 13.9826 12.6491 13.124 13.3852 12.0224C14.1213 10.9207 14.5142 9.62559 14.5142 8.30069C14.5142 6.52404 13.8084 4.82016 12.5521 3.56388C11.2959 2.3076 9.59198 1.60183 7.81533 1.60183Z" fill="white"/>
<path d="M10.3776 11.6499L7.25708 8.52939V3.27637H8.37356V8.06605L11.1647 10.8628L10.3776 11.6499Z" fill="white"/>
</svg>
