<svg width="206" height="38" viewBox="0 0 206 38" fill="none" xmlns="http://www.w3.org/2000/svg">
<path d="M19 0L23.2658 13.1287H37.0701L25.9022 21.2426L30.1679 34.3713L19 26.2574L7.83208 34.3713L12.0978 21.2426L0.929926 13.1287H14.7342L19 0Z" fill="#6EE327"/>
<path d="M61 0L65.2658 13.1287H79.0701L67.9022 21.2426L72.1679 34.3713L61 26.2574L49.8321 34.3713L54.0978 21.2426L42.9299 13.1287H56.7342L61 0Z" fill="#6EE327"/>
<path d="M103 0L107.266 13.1287H121.07L109.902 21.2426L114.168 34.3713L103 26.2574L91.8321 34.3713L96.0978 21.2426L84.9299 13.1287H98.7342L103 0Z" fill="#6EE327"/>
<path d="M145 0L149.266 13.1287H163.07L151.902 21.2426L156.168 34.3713L145 26.2574L133.832 34.3713L138.098 21.2426L126.93 13.1287H140.734L145 0Z" fill="#6EE327"/>
<path d="M187 0L191.266 13.1287H205.07L193.902 21.2426L198.168 34.3713L187 26.2574L175.832 34.3713L180.098 21.2426L168.93 13.1287H182.734L187 0Z" fill="#6EE327"/>
</svg>
