<svg width="26" height="25" viewBox="0 0 26 25" fill="none" xmlns="http://www.w3.org/2000/svg">
<path d="M23.3236 19.9559V21.103H2.67649V19.9559L4.97061 17.6618V10.7795C4.97061 7.22358 7.29914 4.09211 10.7059 3.0827V2.75005C10.7059 2.14161 10.9476 1.55809 11.3778 1.12786C11.8081 0.697634 12.3916 0.455933 13 0.455933C13.6085 0.455933 14.192 0.697634 14.6222 1.12786C15.0524 1.55809 15.2941 2.14161 15.2941 2.75005V3.0827C18.7009 4.09211 21.0294 7.22358 21.0294 10.7795V17.6618L23.3236 19.9559ZM15.2941 22.2501C15.2941 22.8585 15.0524 23.442 14.6222 23.8722C14.192 24.3025 13.6085 24.5442 13 24.5442C12.3916 24.5442 11.8081 24.3025 11.3778 23.8722C10.9476 23.442 10.7059 22.8585 10.7059 22.2501M21.8897 1.82093L20.2609 3.44976C21.2312 4.40795 22.0015 5.54927 22.5272 6.80749C23.053 8.06572 23.3236 9.41581 23.3236 10.7795H25.6177C25.6177 7.41858 24.2871 4.18387 21.8897 1.82093ZM0.382377 10.7795H2.67649C2.67649 8.02652 3.77767 5.38829 5.73914 3.44976L4.11032 1.82093C2.92642 2.99273 1.98719 4.38813 1.34722 5.92604C0.707241 7.46395 0.379275 9.11371 0.382377 10.7795Z" fill="white"/>
</svg>
