<svg width="15" height="15" viewBox="0 0 15 15" fill="none" xmlns="http://www.w3.org/2000/svg">
<path d="M0 13.9354C0 14.2466 0.251367 14.4979 0.5625 14.4979H13.5C13.8111 14.4979 14.0625 14.2466 14.0625 13.9354V6.55261H0V13.9354ZM13.5 1.70105H10.5469V0.57605C10.5469 0.498706 10.4836 0.435425 10.4062 0.435425H9.42188C9.34453 0.435425 9.28125 0.498706 9.28125 0.57605V1.70105H4.78125V0.57605C4.78125 0.498706 4.71797 0.435425 4.64062 0.435425H3.65625C3.57891 0.435425 3.51562 0.498706 3.51562 0.57605V1.70105H0.5625C0.251367 1.70105 0 1.95242 0 2.26355V5.3573H14.0625V2.26355C14.0625 1.95242 13.8111 1.70105 13.5 1.70105Z" fill="#FDB833"/>
</svg>
