<svg width="14" height="14" viewBox="0 0 14 14" fill="none" xmlns="http://www.w3.org/2000/svg">
<path fill-rule="evenodd" clip-rule="evenodd" d="M6.75 13.7167C7.63642 13.7167 8.51417 13.5421 9.33311 13.2029C10.1521 12.8636 10.8962 12.3664 11.523 11.7396C12.1498 11.1128 12.647 10.3687 12.9862 9.54979C13.3254 8.73084 13.5 7.8531 13.5 6.96667C13.5 6.08025 13.3254 5.20251 12.9862 4.38356C12.647 3.56461 12.1498 2.8205 11.523 2.1937C10.8962 1.56691 10.1521 1.06971 9.33311 0.730488C8.51417 0.391269 7.63642 0.216675 6.75 0.216675C4.95979 0.216675 3.2429 0.927833 1.97703 2.1937C0.711159 3.45957 0 5.17646 0 6.96667C0 8.75689 0.711159 10.4738 1.97703 11.7396C3.2429 13.0055 4.95979 13.7167 6.75 13.7167ZM5.83725 3.95917L10.0702 6.31118C10.1871 6.37615 10.2845 6.47118 10.3523 6.58643C10.4201 6.70169 10.4558 6.83296 10.4558 6.96667C10.4558 7.10039 10.4201 7.23166 10.3523 7.34692C10.2845 7.46217 10.1871 7.5572 10.0702 7.62217L5.83725 9.97417C5.70019 10.0504 5.5456 10.0894 5.3888 10.0875C5.232 10.0855 5.07842 10.0426 4.9433 9.96305C4.80818 9.88347 4.69619 9.76997 4.61843 9.6338C4.54068 9.49762 4.49985 9.34349 4.5 9.18668V4.74667C4.49985 4.58986 4.54068 4.43573 4.61843 4.29955C4.69619 4.16338 4.80818 4.04988 4.9433 3.9703C5.07842 3.89073 5.232 3.84784 5.3888 3.84589C5.5456 3.84394 5.70019 3.88299 5.83725 3.95917Z" fill="#FDB833"/>
</svg>
