<svg width="14" height="19" viewBox="0 0 14 19" fill="none" xmlns="http://www.w3.org/2000/svg">
<path fill-rule="evenodd" clip-rule="evenodd" d="M10.5 9.47589C10.5 11.4061 8.93025 12.9759 7 12.9759C5.06975 12.9759 3.5 11.4061 3.5 9.47589V4.22589C3.50119 3.32643 3.8481 2.46185 4.46896 1.81103C5.08981 1.1602 5.93709 0.772952 6.8355 0.729395C6.89544 0.715228 6.95679 0.70789 7.01837 0.70752C8.93812 0.70752 10.5 2.28602 10.5 4.22589V9.47589ZM6.125 18.2259V16.4155C2.67838 15.9824 0 13.0389 0 9.47589H1.75C1.75 12.3713 4.10462 14.7259 7 14.7259C9.89538 14.7259 12.25 12.3713 12.25 9.47589H14C14 13.0398 11.3216 15.9824 7.875 16.4155V18.2259H6.125Z" fill="#FDB833"/>
</svg>
