<svg width="27" height="26" viewBox="0 0 27 26" fill="none" xmlns="http://www.w3.org/2000/svg">
<path d="M23.75 15.1542C23.75 14.9055 23.6512 14.6671 23.4754 14.4913C23.2996 14.3154 23.0611 14.2167 22.8125 14.2167H19.0625C18.8139 14.2167 18.5754 14.3154 18.3996 14.4913C18.2238 14.6671 18.125 14.9055 18.125 15.1542V23.5917H16.25V3.27917C16.25 2.36917 16.2475 1.77917 16.19 1.34667C16.135 0.940425 16.0462 0.812925 15.975 0.741675C15.9037 0.670425 15.7762 0.581675 15.37 0.526675C14.9362 0.469175 14.3475 0.466675 13.4375 0.466675C12.5275 0.466675 11.9375 0.469175 11.505 0.526675C11.0988 0.581675 10.9713 0.670425 10.9 0.741675C10.8288 0.812925 10.74 0.940425 10.685 1.34667C10.6275 1.78042 10.625 2.36917 10.625 3.27917V23.5917H8.75V8.90417C8.75 8.65553 8.65123 8.41708 8.47541 8.24126C8.2996 8.06545 8.06114 7.96667 7.8125 7.96667H4.0625C3.81386 7.96667 3.5754 8.06545 3.39959 8.24126C3.22377 8.41708 3.125 8.65553 3.125 8.90417V23.5917H0.9375C0.68886 23.5917 0.450403 23.6904 0.274587 23.8663C0.0987721 24.0421 0 24.2805 0 24.5292C0 24.7778 0.0987721 25.0163 0.274587 25.1921C0.450403 25.3679 0.68886 25.4667 0.9375 25.4667H25.9375C26.1861 25.4667 26.4246 25.3679 26.6004 25.1921C26.7762 25.0163 26.875 24.7778 26.875 24.5292C26.875 24.2805 26.7762 24.0421 26.6004 23.8663C26.4246 23.6904 26.1861 23.5917 25.9375 23.5917H23.75V15.1542Z" fill="#2A56A4"/>
</svg>
