<svg width="27" height="28" viewBox="0 0 27 28" fill="none" xmlns="http://www.w3.org/2000/svg">
<path d="M4.05 13.9667H2.7V24.7667C2.7 25.4828 2.98446 26.1695 3.49081 26.6759C3.99716 27.1822 4.68392 27.4667 5.4 27.4667H12.15V13.9667H4.05ZM21.6 13.9667H14.85V27.4667H21.6C22.3161 27.4667 23.0028 27.1822 23.5092 26.6759C24.0155 26.1695 24.3 25.4828 24.3 24.7667V13.9667H21.6ZM22.6679 7.21668C22.8659 6.56028 22.961 5.87719 22.95 5.19168C22.95 2.58617 20.8305 0.466675 18.225 0.466675C16.0353 0.466675 14.5733 2.46737 13.6296 4.63142C12.6995 2.58617 11.1632 0.466675 8.775 0.466675C6.1695 0.466675 4.05 2.58617 4.05 5.19168C4.05 5.99627 4.15665 6.66183 4.33215 7.21668H0V12.6167H12.15V9.91668H14.85V12.6167H27V7.21668H22.6679ZM6.75 5.19168C6.75 4.07522 7.65855 3.16667 8.775 3.16667C9.9738 3.16667 11.0889 5.22542 11.7423 7.21668H8.1C7.5951 7.21668 6.75 7.21668 6.75 5.19168ZM18.225 3.16667C19.3415 3.16667 20.25 4.07522 20.25 5.19168C20.25 7.21668 19.4049 7.21668 18.9 7.21668H15.5561C16.2446 5.08908 17.2449 3.16667 18.225 3.16667Z" fill="#E59A02"/>
</svg>
