<?xml version="1.0" encoding="UTF-8"?>
<svg id="Ebene_2" data-name="Ebene 2" xmlns="http://www.w3.org/2000/svg" viewBox="0 0 80 80">
  <defs>
    <style>
      .cls-1 {
        fill: #fff;
        stroke: #fff;
      }

      .cls-1, .cls-2 {
        stroke-linecap: round;
        stroke-linejoin: round;
      }

      .cls-3 {
        stroke-miterlimit: 10;
      }

      .cls-3, .cls-4 {
        fill: #ffe853;
      }

      .cls-3, .cls-2 {
        stroke: #ffe853;
      }

      .cls-2 {
        fill: none;
      }
    </style>
  </defs>
  <g id="Layer_4" data-name="Layer 4">
    <g id="Layer_2" data-name="Layer 2">
      <circle class="cls-4" cx="40" cy="40" r="40"/>
    </g>
    <g>
      <circle class="cls-1" cx="40" cy="39.56" r="25"/>
      <path class="cls-3" d="M39.83,52.78c-1.37,0-2.73-.04-4.09-.13-1.36-.08-2.77-.28-4.23-.59V27.87c1.15-.22,2.41-.38,3.78-.49,1.37-.11,2.64-.16,3.82-.16,1.58,0,3.04,.11,4.37,.34,1.33,.23,2.48,.62,3.44,1.17,.96,.55,1.71,1.28,2.25,2.18,.54,.9,.81,2.01,.81,3.33,0,1.99-.96,3.56-2.88,4.72,1.58,.6,2.66,1.42,3.24,2.45s.86,2.2,.86,3.49c0,2.62-.95,4.58-2.86,5.9-1.91,1.32-4.75,1.98-8.51,1.98Zm-2.84-15.48h2.74c1.73,0,2.96-.22,3.71-.67,.74-.44,1.12-1.16,1.12-2.14s-.38-1.72-1.15-2.12-1.9-.61-3.38-.61c-.48,0-1,0-1.55,.02-.55,.01-1.04,.04-1.48,.09v5.44Zm0,4.28v6.44c.41,.05,.85,.08,1.33,.11,.48,.02,1.01,.04,1.58,.04,1.68,0,3.04-.24,4.07-.72,1.03-.48,1.55-1.37,1.55-2.66,0-1.15-.43-1.97-1.3-2.47-.86-.49-2.1-.74-3.71-.74h-3.53Z"/>
      <line class="cls-2" x1="36.44" y1="23.95" x2="36.44" y2="55.59"/>
      <line class="cls-2" x1="41.24" y1="23.95" x2="41.24" y2="29.76"/>
      <line class="cls-2" x1="41.3" y1="49.55" x2="41.3" y2="55.59"/>
    </g>
  </g>
</svg>