<?xml version="1.0" encoding="UTF-8"?><svg xmlns="http://www.w3.org/2000/svg" viewBox="0 0 40.64 51"><defs><style>.d{font-size:17.37px;}.d,.e{font-family:Ubuntu-Medium, Ubuntu;}.d,.e,.f{fill:white;}.g{fill:##3E3940;}.g,.h{stroke:white;stroke-miterlimit:10;}.e{font-size:8.34px;}.h{fill:none;stroke-width:.25px;}</style></defs><g id="a"/><g id="b"><g id="c"><g><rect class="g" x=".5" y="38.1" width="24.88" height="5.97" rx="1.43" ry="1.43"/><rect class="g" x="2.76" y="32.13" width="24.88" height="5.97" rx="1.43" ry="1.43"/><ellipse class="g" cx="15.24" cy="19.58" rx="12.5" ry="12.54"/><text class="d" transform="translate(10.33 25.41)"><tspan x="0" y="0">$</tspan></text><rect class="g" x="1.45" y="44.07" width="24.88" height="5.97" rx="1.43" ry="1.43"/><ellipse class="g" cx="27.64" cy="37.96" rx="12.5" ry="12.54"/><text class="d" transform="translate(22.73 43.79)"><tspan x="0" y="0">$</tspan></text><path class="g" d="M28.66,14.72c-.11,.05-.23,.09-.23,.09-.08,.03-.17,.06-.27,.09-.58,.18-2.32,.73-3.99,0-2.35-1.02-3.11-3.92-3.12-5.24,0-.12,0-.37,.06-.69,.24-1.28,1.76-2.54,1.96-2.72C28.3,1.75,31.4,.13,32.88,.57c2.96,.88,5.39,4.88,4.8,7.7,0,0-.63,3.01-9.02,6.45Z"/><text class="e" transform="translate(25.68 11.12)"><tspan x="0" y="0">%</tspan></text><path class="h" d="M24.42,11.15c-.09,1.1-.38,2.99-1.54,5.02-.28,.48-1.5,2.53-4,4.22-4.13,2.79-8.88,2.64-12,2.55-1.69-.05-3.08-.24-4-.4"/><path class="h" d="M8.38,8.72c1.48-1,4.91-2.98,9.47-2.82,1.68,.06,3.12,.39,4.25,.76"/><circle class="f" cx="24.42" cy="11.73" r=".69"/></g></g></g></svg>