<?xml version="1.0" encoding="UTF-8"?><svg id="Ebene_2" xmlns="http://www.w3.org/2000/svg" viewBox="0 0 40.34 50.69"><defs><style>.cls-1,.cls-2{fill:#fff;}.cls-3{stroke-width:.17px;}.cls-3,.cls-4,.cls-5{stroke:#fff;stroke-miterlimit:10;}.cls-3,.cls-5{fill:none;}.cls-4{fill:#3e3940;stroke-width:.69px;}.cls-5{stroke-width:.18px;}.cls-2{font-family:Ubuntu-Medium, Ubuntu;font-size:8.34px;}</style></defs><g id="Layer_4"><g><rect class="cls-4" x=".35" y="37.95" width="24.88" height="5.97" rx="1.43" ry="1.43"/><rect class="cls-4" x="2.61" y="31.97" width="24.88" height="5.97" rx="1.43" ry="1.43"/><ellipse class="cls-4" cx="15.09" cy="19.43" rx="12.5" ry="12.54"/><rect class="cls-4" x="1.3" y="43.92" width="24.88" height="5.97" rx="1.43" ry="1.43"/><ellipse class="cls-4" cx="27.49" cy="37.8" rx="12.5" ry="12.54"/><path class="cls-4" d="M28.51,14.57c-.11,.05-.23,.09-.23,.09-.08,.03-.17,.06-.27,.09-.58,.18-2.32,.73-3.99,0-2.35-1.02-3.11-3.92-3.12-5.24,0-.12,0-.37,.06-.69,.24-1.28,1.76-2.54,1.96-2.72C28.14,1.6,31.25-.02,32.72,.42c2.96,.88,5.39,4.88,4.8,7.7,0,0-.63,3.01-9.02,6.45Z"/><text class="cls-2" transform="translate(25.53 10.97)"><tspan x="0" y="0">%</tspan></text><path class="cls-5" d="M24.27,11c-.09,1.1-.38,2.99-1.54,5.02-.28,.48-1.5,2.53-4,4.22-4.13,2.79-8.88,2.64-12,2.55-1.69-.05-3.08-.24-4-.4"/><path class="cls-3" d="M8.65,8.68c1.48-1,4.91-2.98,9.47-2.82,1.68,.06,3.12,.39,4.25,.76"/><circle class="cls-1" cx="24.27" cy="11.57" r=".69"/><path class="cls-1" d="M31.53,32.23c-.17,.6-.34,1.2-.5,1.8-.38-.23-.92-.48-1.61-.61-.72-.14-1.28-.1-1.5-.08-.55,.06-.9,.09-1.24,.36-.04,.03-.53,.43-.54,1.06,0,.66,.51,1.09,.71,1.27,.63,.53,1.03,.35,2.26,.82,.64,.25,1.42,.55,2.08,1.25,.24,.25,.71,.76,.89,1.55,.05,.21,.28,1.33-.45,2.33-.6,.82-1.52,1.12-2.23,1.34-.33,.11-.62,.17-.83,.2v2.28h-2.09v-2.22c-.45-.02-.96-.07-1.51-.18-.87-.17-1.6-.42-2.17-.66l.68-1.73c.3,.12,.72,.29,1.24,.48,1.02,.36,1.52,.55,1.96,.57,.2,.01,1.74,.08,2.36-.86,.34-.51,.24-1.07,.22-1.14-.12-.58-.56-.92-.78-1.09-.52-.39-1.03-.45-1.53-.57-.63-.15-2.24-.54-3.18-1.58-.14-.16-.92-1.02-.81-2.2,.12-1.21,1.1-1.93,1.39-2.15,.84-.62,1.74-.74,2.12-.77,0-.64,.01-1.28,.02-1.92h2.09c-.02,.58-.04,1.15-.06,1.73,.37,.02,.79,.06,1.25,.16,.69,.14,1.27,.35,1.72,.54Z"/><path class="cls-1" d="M19.03,13.86c-.17,.6-.34,1.2-.5,1.8-.38-.23-.92-.48-1.61-.61-.72-.14-1.28-.1-1.5-.08-.55,.06-.9,.09-1.24,.36-.04,.03-.53,.43-.54,1.06,0,.66,.51,1.09,.71,1.27,.63,.53,1.03,.35,2.26,.82,.64,.25,1.42,.55,2.08,1.25,.24,.25,.71,.76,.89,1.55,.05,.21,.28,1.33-.45,2.33-.6,.82-1.52,1.12-2.23,1.34-.33,.11-.62,.17-.83,.2v2.28h-2.09v-2.22c-.45-.02-.96-.07-1.51-.18-.87-.17-1.6-.42-2.17-.66l.68-1.73c.3,.12,.72,.29,1.24,.48,1.02,.36,1.52,.55,1.96,.57,.2,.01,1.74,.08,2.36-.86,.34-.51,.24-1.07,.22-1.14-.12-.58-.56-.92-.78-1.09-.52-.39-1.03-.45-1.53-.57-.63-.15-2.24-.54-3.18-1.58-.14-.16-.92-1.02-.81-2.2,.12-1.21,1.1-1.93,1.39-2.15,.84-.62,1.74-.74,2.12-.77,0-.64,.01-1.28,.02-1.92h2.09c-.02,.58-.04,1.15-.06,1.73,.37,.02,.79,.06,1.25,.16,.69,.14,1.27,.35,1.72,.54Z"/></g></g></svg>