<?xml version="1.0" encoding="UTF-8"?>
<svg id="Ebene_2" data-name="Ebene 2" xmlns="http://www.w3.org/2000/svg" viewBox="0 0 80 80">
  <defs>
    <style>
      .cls-1 {
        fill: #fff;
      }

      .cls-2 {
        fill: none;
        stroke: #fff;
        stroke-linecap: round;
        stroke-linejoin: round;
        stroke-width: 2px;
      }

      .cls-3 {
        fill: #d0ccd1;
      }
    </style>
  </defs>
  <g id="Layer_4" data-name="Layer 4">
    <g id="Layer_2" data-name="Layer 2">
      <circle class="cls-3" cx="40" cy="40" r="40"/>
      <g>
        <g>
          <path class="cls-2" d="M14.06,48.14c3.61-4.91,7.22-9.82,10.82-14.73,2.67,1.56,5.34,3.11,8.01,4.67,3.97-4.79,7.93-9.58,11.9-14.37,2.67,2.04,5.34,4.07,8.01,6.11,2.17-2.69,4.35-5.38,6.52-8.07"/>
          <polygon class="cls-1" points="62.28 26.02 63.83 16.17 54.52 19.75 62.28 26.02"/>
        </g>
        <g>
          <path class="cls-1" d="M31.05,44c2.19,0,3.86,.44,5.02,1.31,1.16,.87,1.74,2.2,1.74,3.99,0,2.23-1.01,3.74-3.04,4.54,.28,.36,.59,.81,.94,1.33s.71,1.09,1.07,1.7c.36,.61,.71,1.24,1.05,1.88,.33,.64,.63,1.27,.9,1.89h-3.08c-.28-.57-.58-1.14-.9-1.72s-.64-1.14-.97-1.69c-.33-.55-.65-1.06-.97-1.54-.32-.48-.62-.91-.9-1.29-.2,.02-.38,.02-.52,.02h-1.75v6.22h-2.75v-16.22c.67-.16,1.38-.26,2.14-.32,.76-.06,1.43-.08,2.03-.08Zm.2,2.59c-.58,0-1.12,.02-1.62,.07v5.32h1.2c.67,0,1.26-.04,1.77-.12,.51-.08,.94-.22,1.28-.43,.34-.21,.6-.48,.78-.83,.17-.35,.26-.79,.26-1.33,0-.51-.09-.93-.26-1.28-.17-.35-.43-.62-.75-.83-.33-.21-.72-.35-1.17-.44-.45-.09-.95-.13-1.49-.13Z"/>
          <path class="cls-1" d="M44.53,58.39c.99,0,1.71-.18,2.16-.55,.45-.36,.68-.88,.68-1.54,0-.4-.08-.74-.23-1.02-.15-.29-.37-.54-.66-.77s-.63-.44-1.04-.64c-.41-.2-.87-.39-1.4-.58-.52-.21-1.03-.43-1.52-.68-.49-.25-.92-.55-1.29-.91-.37-.36-.67-.8-.9-1.31-.23-.51-.34-1.12-.34-1.83,0-1.49,.47-2.66,1.42-3.5s2.24-1.27,3.87-1.27c.95,0,1.79,.11,2.52,.34,.74,.23,1.31,.48,1.74,.75l-.85,2.42c-.5-.3-1.04-.53-1.63-.69-.59-.16-1.2-.24-1.83-.24-.74,0-1.32,.17-1.74,.5-.42,.33-.62,.8-.62,1.4,0,.36,.07,.68,.21,.94,.14,.26,.34,.49,.59,.7s.55,.4,.9,.57c.34,.17,.72,.34,1.13,.5,.71,.29,1.35,.57,1.91,.87s1.03,.64,1.42,1.04c.39,.4,.68,.88,.88,1.42,.2,.55,.31,1.21,.31,1.98,0,1.49-.49,2.64-1.45,3.46-.97,.82-2.39,1.22-4.25,1.22-.63,0-1.2-.04-1.71-.13-.52-.09-.98-.19-1.38-.32-.4-.13-.75-.26-1.04-.39-.29-.13-.53-.26-.7-.37l.81-2.45c.39,.24,.93,.47,1.6,.71s1.48,.36,2.43,.36Z"/>
        </g>
      </g>
    </g>
  </g>
</svg>