<svg width="25" height="35" viewBox="0 0 25 35" fill="none" xmlns="http://www.w3.org/2000/svg">
<path d="M16.15 27.5083V33.8833C16.15 34.1666 16.0437 34.4146 15.8312 34.6271C15.6187 34.8396 15.3708 34.9458 15.0875 34.9458H8.7125C8.42916 34.9458 8.18125 34.8396 7.96875 34.6271C7.75625 34.4146 7.65 34.1666 7.65 33.8833V27.5083C7.65 27.225 7.75625 26.9771 7.96875 26.7646C8.18125 26.5521 8.42916 26.4458 8.7125 26.4458H15.0875C15.3708 26.4458 15.6187 26.5521 15.8312 26.7646C16.0437 26.9771 16.15 27.225 16.15 27.5083ZM24.5437 11.5708C24.5437 12.5271 24.4065 13.4213 24.132 14.2536C23.8575 15.0859 23.5477 15.7632 23.2023 16.2856C22.857 16.808 22.37 17.3349 21.7414 17.8661C21.1128 18.3974 20.6036 18.7825 20.2141 19.0216C19.8245 19.2606 19.2844 19.575 18.5937 19.9646C17.8677 20.3718 17.2612 20.9474 16.7742 21.6911C16.2872 22.4349 16.0437 23.0281 16.0437 23.4708C16.0437 23.7718 15.9375 24.0596 15.725 24.3341C15.5125 24.6086 15.2646 24.7458 14.9812 24.7458H8.60625C8.34062 24.7458 8.11484 24.582 7.9289 24.2544C7.74297 23.9268 7.65 23.5948 7.65 23.2583V22.063C7.65 20.5932 8.22552 19.2075 9.37656 17.906C10.5276 16.6044 11.7937 15.6437 13.175 15.0239C14.2198 14.5458 14.9635 14.05 15.4062 13.5364C15.849 13.0229 16.0703 12.35 16.0703 11.5177C16.0703 10.7739 15.6586 10.1187 14.8352 9.55205C14.0117 8.98538 13.0599 8.70205 11.9797 8.70205C10.8286 8.70205 9.87239 8.95882 9.11094 9.47236C8.49114 9.91507 7.54375 10.9333 6.26875 12.5271C6.03854 12.8104 5.76406 12.9521 5.44531 12.9521C5.23281 12.9521 5.01146 12.8812 4.78125 12.7396L0.424997 9.41924C0.194788 9.24216 0.0575489 9.0208 0.0132781 8.75518C-0.0309928 8.48955 0.0177051 8.24163 0.159372 8.01143C2.99271 3.30101 7.10104 0.945801 12.4844 0.945801C13.901 0.945801 15.3266 1.22028 16.7609 1.76924C18.1953 2.3182 19.488 3.05309 20.6391 3.97393C21.7901 4.89476 22.7286 6.02367 23.4547 7.36064C24.1807 8.69762 24.5437 10.101 24.5437 11.5708Z" fill="#60D394"/>
</svg>
