<svg width="26" height="34" viewBox="0 0 26 34" fill="none" xmlns="http://www.w3.org/2000/svg">
<path d="M11.3753 25.9044H6.40445C5.92183 23.8432 3.74433 22.1577 2.85058 21.047C1.32014 19.1418 0.360997 16.8445 0.083636 14.4199C-0.193725 11.9952 0.221982 9.54184 1.28287 7.34231C2.34375 5.14279 4.00666 3.28662 6.08003 1.98761C8.1534 0.688601 10.5529 -0.000390601 13.0021 1.66128e-07C15.4513 0.000390933 17.8505 0.690148 19.9235 1.98982C21.9964 3.28949 23.6588 5.14619 24.7189 7.34605C25.7791 9.54592 26.194 11.9994 25.9159 14.424C25.6378 16.8485 24.6779 19.1455 23.1468 21.0502C22.2531 22.1593 20.0788 23.8449 19.5962 25.9044H14.6253V17.8088H11.3753V25.9044ZM19.5003 29.1426V30.7618C19.5003 31.6206 19.1579 32.4442 18.5484 33.0515C17.9389 33.6588 17.1123 34 16.2503 34H9.75033C8.88837 34 8.06172 33.6588 7.45223 33.0515C6.84274 32.4442 6.50033 31.6206 6.50033 30.7618V29.1426H19.5003Z" fill="#60D394"/>
</svg>
