<?xml version="1.0" encoding="UTF-8"?>
<svg id="Ebene_2" data-name="Ebene 2" xmlns="http://www.w3.org/2000/svg" viewBox="0 0 80 80">
  <defs>
    <style>
      .cls-1 {
        stroke-width: .9px;
      }

      .cls-1, .cls-2, .cls-3 {
        fill: #fff;
        stroke: #3c3a36;
        stroke-linecap: round;
        stroke-linejoin: round;
      }

      .cls-2 {
        stroke-width: .8px;
      }

      .cls-4 {
        fill: #3c3a36;
      }
    </style>
  </defs>
  <g id="Layer_4" data-name="Layer 4">
    <g id="Layer_2" data-name="Layer 2">
      <circle class="cls-4" cx="40" cy="40" r="40"/>
    </g>
    <g>
      <rect class="cls-3" x="15.57" y="17.96" width="50" height="41.18"/>
      <path class="cls-1" d="M49.34,56.72v11.91l5-3.97,5,3.97v-11.91"/>
      <line class="cls-3" x1="19.42" y1="45.81" x2="61.59" y2="45.81"/>
      <line class="cls-3" x1="19.38" y1="51.83" x2="44.24" y2="51.83"/>
      <g>
        <ellipse class="cls-2" cx="54.4" cy="55.67" rx="6" ry="5.85"/>
        <path class="cls-4" d="M53.98,57.68c-.35-.03-.64-.08-.86-.16-.22-.08-.38-.15-.49-.2l.31-.83c.17,.08,.37,.16,.6,.22s.48,.1,.74,.1c.29,0,.5-.04,.6-.12,.11-.08,.16-.19,.16-.34,0-.09-.02-.17-.07-.23s-.11-.12-.19-.18c-.08-.05-.19-.1-.31-.16s-.27-.1-.43-.16c-.16-.06-.31-.12-.47-.19-.15-.07-.29-.16-.41-.26-.12-.1-.22-.23-.3-.37-.07-.15-.11-.32-.11-.53,0-.16,.02-.31,.07-.46,.05-.15,.12-.28,.21-.4s.22-.22,.38-.31c.15-.08,.34-.15,.55-.18v-.78h.91v.75c.25,.02,.47,.06,.65,.11,.18,.05,.32,.1,.43,.14l-.22,.87c-.16-.07-.34-.13-.55-.17-.21-.05-.43-.07-.66-.07s-.4,.04-.5,.12c-.1,.08-.15,.18-.15,.3,0,.08,.02,.14,.05,.2,.03,.06,.08,.1,.15,.15,.07,.04,.15,.09,.25,.13,.1,.04,.22,.09,.36,.13,.21,.08,.41,.16,.59,.25,.18,.09,.34,.2,.47,.31,.13,.12,.24,.26,.31,.42,.07,.16,.11,.34,.11,.56,0,.14-.02,.29-.07,.43-.04,.14-.12,.27-.22,.39s-.23,.22-.39,.31c-.16,.09-.36,.15-.6,.19v.88h-.91v-.86Z"/>
      </g>
      <g>
        <path class="cls-4" d="M35.53,24.74c-.64,.66-1.4,1.51-2.28,2.56s-1.79,2.2-2.73,3.44-1.87,2.52-2.79,3.84c-.92,1.32-1.74,2.58-2.46,3.78h10.59v3.93H19.51v-2.79c.56-1.02,1.25-2.16,2.06-3.41s1.65-2.51,2.54-3.78c.88-1.27,1.77-2.5,2.69-3.69,.91-1.19,1.75-2.25,2.53-3.2h-9.33v-3.93h15.54v3.24Z"/>
        <path class="cls-4" d="M53.11,42.29c-1.34-2.38-2.79-4.73-4.35-7.05s-3.22-4.51-4.98-6.57v13.62h-4.62V21.5h3.81c.66,.66,1.39,1.47,2.19,2.43,.8,.96,1.61,1.99,2.45,3.08,.83,1.09,1.65,2.22,2.47,3.39,.82,1.17,1.59,2.29,2.31,3.38v-12.27h4.65v20.79h-3.93Z"/>
      </g>
    </g>
  </g>
</svg>