<svg width="50" height="50" viewBox="0 0 50 50" fill="none" xmlns="http://www.w3.org/2000/svg">
<path d="M25 50C11.1925 50 0 38.8075 0 25C0 11.1925 11.1925 0 25 0C38.8075 0 50 11.1925 50 25C50 38.8075 38.8075 50 25 50ZM25 45C30.3043 45 35.3914 42.8929 39.1421 39.1421C42.8929 35.3914 45 30.3043 45 25C45 19.6957 42.8929 14.6086 39.1421 10.8579C35.3914 7.10714 30.3043 5 25 5C19.6957 5 14.6086 7.10714 10.8579 10.8579C7.10714 14.6086 5 19.6957 5 25C5 30.3043 7.10714 35.3914 10.8579 39.1421C14.6086 42.8929 19.6957 45 25 45ZM16.25 30H30C30.3315 30 30.6495 29.8683 30.8839 29.6339C31.1183 29.3995 31.25 29.0815 31.25 28.75C31.25 28.4185 31.1183 28.1005 30.8839 27.8661C30.6495 27.6317 30.3315 27.5 30 27.5H20C18.3424 27.5 16.7527 26.8415 15.5806 25.6694C14.4085 24.4973 13.75 22.9076 13.75 21.25C13.75 19.5924 14.4085 18.0027 15.5806 16.8306C16.7527 15.6585 18.3424 15 20 15H22.5V10H27.5V15H33.75V20H20C19.6685 20 19.3505 20.1317 19.1161 20.3661C18.8817 20.6005 18.75 20.9185 18.75 21.25C18.75 21.5815 18.8817 21.8995 19.1161 22.1339C19.3505 22.3683 19.6685 22.5 20 22.5H30C31.6576 22.5 33.2473 23.1585 34.4194 24.3306C35.5915 25.5027 36.25 27.0924 36.25 28.75C36.25 30.4076 35.5915 31.9973 34.4194 33.1694C33.2473 34.3415 31.6576 35 30 35H27.5V40H22.5V35H16.25V30Z" fill="#EFEFEF"/>
</svg>
