<svg width="21" height="23" viewBox="0 0 21 23" fill="none" xmlns="http://www.w3.org/2000/svg">
<path d="M13.6248 0.0957031H7.36084V10.628H13.6248V0.0957031Z" fill="black"/>
<path d="M1.87824 7.54578L9.58389 17.9857C10.4929 19.5055 11.3381 18.1562 11.4091 17.9857L19.0153 7.74464V7.70203C19.129 7.43215 19.5764 6.8924 18.3549 6.87109H10.4432H2.63105C2.17652 6.8924 1.51604 6.93501 1.87824 7.54578Z" fill="black"/>
<path d="M2.66663 6.89258L2.75894 6.93519L2.66663 6.89258Z" fill="black"/>
<path d="M20.5281 20.2939H0.571533V22.2612H20.5281V20.2939Z" fill="black"/>
<path d="M20.528 17.1904H18.5608V22.2613H20.528V17.1904Z" fill="black"/>
<path d="M2.53878 17.1904H0.571533V22.2613H2.53878V17.1904Z" fill="black"/>
<path d="M13.6179 0.0957031H10.5498V10.628H13.6179V0.0957031Z" fill="black"/>
<path d="M19.1077 7.54596L11.4021 17.9859C11.0967 18.483 10.8055 18.6961 10.5498 18.6961V6.89258H18.3123C18.8023 6.89258 19.4699 6.93519 19.1077 7.54596Z" fill="black"/>
<path d="M18.3122 6.89258L18.2269 6.93519L18.3122 6.89258Z" fill="black"/>
<path d="M20.521 20.2861H10.5498V22.2534H20.521V20.2861Z" fill="black"/>
<path d="M20.5208 17.1826H18.5536V22.2534H20.5208V17.1826Z" fill="black"/>
</svg>
