<svg width="37" height="35" viewBox="0 0 37 35" fill="none" xmlns="http://www.w3.org/2000/svg">
<path d="M35 29.1667V31.1111C35 33.25 33.25 35 31.1111 35H3.88889C2.85749 35 1.86834 34.5903 1.13903 33.861C0.409721 33.1317 0 32.1425 0 31.1111V3.88889C0 2.85749 0.409721 1.86834 1.13903 1.13903C1.86834 0.409721 2.85749 0 3.88889 0H31.1111C33.25 0 35 1.75 35 3.88889V5.83333H17.5C16.4686 5.83333 15.4794 6.24305 14.7501 6.97236C14.0208 7.70167 13.6111 8.69082 13.6111 9.72222V25.2778C13.6111 26.3092 14.0208 27.2983 14.7501 28.0276C15.4794 28.7569 16.4686 29.1667 17.5 29.1667H35ZM17.5 25.2778H36.9444V9.72222H17.5V25.2778ZM25.2778 20.4167C23.6639 20.4167 22.3611 19.1139 22.3611 17.5C22.3611 15.8861 23.6639 14.5833 25.2778 14.5833C26.8917 14.5833 28.1944 15.8861 28.1944 17.5C28.1944 19.1139 26.8917 20.4167 25.2778 20.4167Z" fill="#EFEFEF"/>
</svg>
