<svg width="42" height="42" viewBox="0 0 42 42" fill="none" xmlns="http://www.w3.org/2000/svg">
<path fill-rule="evenodd" clip-rule="evenodd" d="M0 0H42V42H0V0ZM20.5 9L30 23H11L20.5 9ZM12.1993 29.8358C12.3589 29.9909 12.612 30.0684 12.9585 30.0684C13.068 30.0684 13.182 30.057 13.3005 30.0342C13.4191 30.0114 13.508 29.9863 13.5673 29.959V29.658C13.4943 29.6717 13.4236 29.6831 13.3552 29.6922C13.2868 29.7013 13.2116 29.7059 13.1295 29.7059C12.9745 29.7059 12.8491 29.6512 12.7533 29.5417C12.6576 29.4323 12.6097 29.2613 12.6097 29.0287V26.7236H13.5057V26.3338H12.6097V25.4924H12.295C12.2631 25.6657 12.2221 25.8116 12.1719 25.9302C12.1218 26.0488 12.0579 26.1491 11.9804 26.2312C11.9074 26.3087 11.8208 26.3657 11.7205 26.4022C11.6202 26.4341 11.529 26.45 11.4469 26.45V26.7236H11.9667V29.0082C11.9667 29.4004 12.0442 29.6762 12.1993 29.8358ZM14.5219 29.5964C14.8046 29.9111 15.1922 30.0684 15.6847 30.0684C16.2136 30.0684 16.6126 29.9111 16.8817 29.5964C17.1553 29.2818 17.2921 28.803 17.2921 28.16C17.2921 27.5216 17.1507 27.0474 16.868 26.7373C16.5853 26.4227 16.1977 26.2654 15.7052 26.2654C15.1762 26.2654 14.775 26.4227 14.5014 26.7373C14.2323 27.0474 14.0978 27.5216 14.0978 28.16C14.0978 28.803 14.2392 29.2818 14.5219 29.5964ZM16.2456 29.5417C16.1088 29.6557 15.9264 29.7127 15.6984 29.7127C15.4704 29.7127 15.288 29.6557 15.1512 29.5417C15.0144 29.4232 14.914 29.2476 14.8502 29.015C14.7909 28.7825 14.7613 28.4975 14.7613 28.16C14.7613 27.818 14.7909 27.5353 14.8502 27.3119C14.9095 27.0839 15.0075 26.9129 15.1443 26.7989C15.2811 26.6849 15.4635 26.6279 15.6915 26.6279C15.9195 26.6279 16.1019 26.6849 16.2387 26.7989C16.3755 26.9129 16.4736 27.0839 16.5328 27.3119C16.5967 27.5353 16.6286 27.818 16.6286 28.16C16.6286 28.4975 16.599 28.7825 16.5397 29.015C16.4804 29.2476 16.3824 29.4232 16.2456 29.5417ZM20.3285 29.8358C20.4881 29.9909 20.7411 30.0684 21.0877 30.0684C21.1971 30.0684 21.3111 30.057 21.4297 30.0342C21.5483 30.0114 21.6372 29.9863 21.6965 29.959V29.658C21.6235 29.6717 21.5528 29.6831 21.4844 29.6922C21.416 29.7013 21.3408 29.7059 21.2587 29.7059C21.1037 29.7059 20.9783 29.6512 20.8825 29.5417C20.7867 29.4323 20.7389 29.2613 20.7389 29.0287V26.7236H21.6349V26.3338H20.7389V25.4924H20.4242C20.3923 25.6657 20.3513 25.8116 20.3011 25.9302C20.2509 26.0488 20.1871 26.1491 20.1096 26.2312C20.0366 26.3087 19.95 26.3657 19.8497 26.4022C19.7493 26.4341 19.6581 26.45 19.5761 26.45V26.7236H20.0959V29.0082C20.0959 29.4004 20.1734 29.6762 20.3285 29.8358ZM22.6511 29.5964C22.9338 29.9111 23.3214 30.0684 23.8139 30.0684C24.3428 30.0684 24.7418 29.9111 25.0109 29.5964C25.2845 29.2818 25.4213 28.803 25.4213 28.16C25.4213 27.5216 25.2799 27.0474 24.9972 26.7373C24.7145 26.4227 24.3269 26.2654 23.8344 26.2654C23.3054 26.2654 22.9041 26.4227 22.6305 26.7373C22.3615 27.0474 22.227 27.5216 22.227 28.16C22.227 28.803 22.3683 29.2818 22.6511 29.5964ZM24.3747 29.5417C24.2379 29.6557 24.0555 29.7127 23.8275 29.7127C23.5995 29.7127 23.4171 29.6557 23.2803 29.5417C23.1435 29.4232 23.0432 29.2476 22.9794 29.015C22.9201 28.7825 22.8905 28.4975 22.8905 28.16C22.8905 27.818 22.9201 27.5353 22.9794 27.3119C23.0387 27.0839 23.1367 26.9129 23.2735 26.7989C23.4103 26.6849 23.5927 26.6279 23.8207 26.6279C24.0487 26.6279 24.2311 26.6849 24.3679 26.7989C24.5047 26.9129 24.6027 27.0839 24.662 27.3119C24.7259 27.5353 24.7578 27.818 24.7578 28.16C24.7578 28.4975 24.7281 28.7825 24.6689 29.015C24.6096 29.2476 24.5115 29.4232 24.3747 29.5417ZM25.9216 31.3543V31.6416H27.7616V31.3543H27.741C27.6407 31.3543 27.5472 31.3429 27.4606 31.3201C27.3785 31.3019 27.3101 31.2586 27.2554 31.1902C27.2052 31.1263 27.1802 31.0283 27.1802 30.896V30.2394C27.1802 30.1801 27.1779 30.1072 27.1733 30.0205C27.1733 29.9339 27.171 29.8427 27.1665 29.7469C27.1665 29.6466 27.1619 29.5531 27.1528 29.4665H27.1802C27.2805 29.6443 27.4127 29.7902 27.5769 29.9042C27.7456 30.0137 27.9622 30.0684 28.2267 30.0684C28.6781 30.0684 29.0224 29.9156 29.2595 29.6101C29.5012 29.3046 29.622 28.8212 29.622 28.16C29.622 27.5034 29.5012 27.0246 29.2595 26.7236C29.0224 26.4181 28.6781 26.2654 28.2267 26.2654C27.9622 26.2654 27.7479 26.3269 27.5837 26.45C27.4196 26.5732 27.285 26.7396 27.1802 26.9494H27.1528L27.0844 26.3338H25.8874V26.621H25.9763C26.0766 26.621 26.1678 26.6324 26.2499 26.6552C26.3366 26.6735 26.405 26.7168 26.4551 26.7852C26.5098 26.849 26.5372 26.9494 26.5372 27.0862V30.8618C26.5372 31.0032 26.5121 31.1081 26.462 31.1765C26.4118 31.2494 26.3434 31.2973 26.2568 31.3201C26.1747 31.3429 26.0812 31.3543 25.9763 31.3543H25.9216ZM28.6029 29.4596C28.4798 29.5736 28.3179 29.6306 28.1172 29.6306C27.8801 29.6306 27.6932 29.5736 27.5564 29.4596C27.4196 29.3456 27.3215 29.1792 27.2622 28.9603C27.2075 28.7414 27.1802 28.4747 27.1802 28.16C27.1802 27.8317 27.2075 27.5604 27.2622 27.3461C27.3215 27.1272 27.4173 26.9653 27.5495 26.8604C27.6863 26.7556 27.8733 26.7031 28.1104 26.7031C28.3156 26.7031 28.4798 26.7578 28.6029 26.8673C28.726 26.9722 28.8149 27.1318 28.8696 27.3461C28.9289 27.5604 28.9586 27.8294 28.9586 28.1532C28.9586 28.4724 28.9289 28.7414 28.8696 28.9603C28.8149 29.1792 28.726 29.3456 28.6029 29.4596Z" fill="#212529"/>
</svg>
