<svg width="60" height="60" viewBox="0 0 60 60" fill="none" xmlns="http://www.w3.org/2000/svg">
<rect width="60" height="60" rx="30" fill="#BFDBF7"/>
<path d="M40.6673 42V39.3333C40.6673 37.9188 40.1054 36.5623 39.1052 35.5621C38.105 34.5619 36.7485 34 35.334 34H24.6673C23.2528 34 21.8963 34.5619 20.8961 35.5621C19.8959 36.5623 19.334 37.9188 19.334 39.3333V42" stroke="#6C757D" stroke-width="2" stroke-linecap="round" stroke-linejoin="round"/>
<path d="M29.9993 28.6667C32.9449 28.6667 35.3327 26.2789 35.3327 23.3333C35.3327 20.3878 32.9449 18 29.9993 18C27.0538 18 24.666 20.3878 24.666 23.3333C24.666 26.2789 27.0538 28.6667 29.9993 28.6667Z" stroke="#6C757D" stroke-width="2" stroke-linecap="round" stroke-linejoin="round"/>
</svg>
