<svg width="19" height="19" viewBox="0 0 19 19" fill="none" xmlns="http://www.w3.org/2000/svg">
<path d="M12.6895 7.30129L11.9495 7.17829C11.9316 7.28573 11.9373 7.39577 11.9663 7.50076C11.9953 7.60575 12.0468 7.70317 12.1172 7.78625C12.1876 7.86933 12.2753 7.93608 12.3741 7.98185C12.4729 8.02762 12.5805 8.05132 12.6895 8.05129V7.30129ZM1.68945 7.30129V6.55129C1.49054 6.55129 1.29978 6.63031 1.15912 6.77096C1.01847 6.91162 0.939453 7.10238 0.939453 7.30129H1.68945ZM3.68945 18.0513H15.0495V16.5513H3.68945V18.0513ZM16.2495 6.55129H12.6895V8.05129H16.2495V6.55129ZM13.4295 7.42429L14.2355 2.58929L12.7555 2.34229L11.9495 7.17829L13.4295 7.42429ZM12.5095 0.551293H12.2955V2.05129H12.5085L12.5095 0.551293ZM9.17445 2.22129L6.65945 5.99429L7.90745 6.82629L10.4225 3.05329L9.17445 2.22129ZM5.61945 6.55129H1.68945V8.05129H5.61945V6.55129ZM0.939453 7.30129V15.3013H2.43945V7.30129H0.939453ZM17.7465 15.8413L18.9465 9.84129L17.4765 9.54629L16.2765 15.5463L17.7465 15.8413ZM6.65945 5.99429C6.54535 6.16558 6.39073 6.30504 6.2093 6.40221C6.02787 6.49937 5.82526 6.55024 5.61945 6.55029V8.05029C6.53945 8.05029 7.39745 7.59129 7.90745 6.82629L6.65945 5.99429ZM14.2355 2.58929C14.2771 2.33866 14.2637 2.08096 14.1962 1.83604C14.1286 1.59111 14.0086 1.36383 13.8443 1.16998C13.6801 0.976141 13.4756 0.820387 13.2451 0.713546C13.0145 0.606704 12.7635 0.551337 12.5095 0.551293L12.5085 2.05129C12.5447 2.05138 12.5815 2.05935 12.6144 2.07465C12.6472 2.08995 12.6764 2.11221 12.6998 2.13989C12.7232 2.16758 12.7403 2.20002 12.7499 2.23496C12.7595 2.26991 12.7614 2.30654 12.7555 2.34229L14.2355 2.58929ZM16.2495 8.05029C17.0395 8.05029 17.6295 8.77229 17.4755 9.54529L18.9465 9.84029C19.026 9.44139 19.0161 9.02879 18.9174 8.63418C18.8188 8.23956 18.6338 7.87175 18.3758 7.55725C18.1178 7.24275 17.7933 6.98939 17.4256 6.81544C17.0579 6.64149 16.6562 6.55127 16.2495 6.55129V8.05029ZM15.0495 18.0513C15.6852 18.0514 16.3013 17.8303 16.793 17.4274C17.2847 17.0245 17.6216 16.4636 17.7465 15.8403L16.2765 15.5453C16.2198 15.8289 16.0665 16.0841 15.8428 16.2673C15.619 16.4506 15.3387 16.5516 15.0495 16.5513V18.0513ZM12.2955 0.551293C11.6781 0.551338 11.0703 0.702788 10.5261 0.994113C9.9818 1.28544 9.51787 1.70663 9.17545 2.22029L10.4225 3.05329C10.628 2.74495 10.9065 2.49115 11.2333 2.31635C11.56 2.14155 11.9249 2.05116 12.2955 2.05129V0.551293ZM3.68945 16.5513C2.99945 16.5513 2.43945 15.9913 2.43945 15.3013H0.939453C0.939453 16.0306 1.22918 16.7301 1.74491 17.2458C2.26063 17.7616 2.96011 18.0513 3.68945 18.0513V16.5513Z" fill="black"/>
<path d="M5.68945 7.30127V17.3013" stroke="black" stroke-width="1.5"/>
</svg>
