<svg width="42" height="43" viewBox="0 0 42 43" fill="none" xmlns="http://www.w3.org/2000/svg">
<path fill-rule="evenodd" clip-rule="evenodd" d="M42 0.800781H0V42.8008H42V0.800781ZM13.3251 29.8004H15.8709C15.9351 29.7268 15.9991 29.6531 16.0631 29.5794C16.207 29.4138 16.3509 29.2483 16.496 29.0837C17.8015 27.6023 19.1076 26.1214 20.4137 24.6404C20.4353 24.6158 20.4579 24.5922 20.4874 24.5603C20.4953 24.5695 20.5029 24.5782 20.5102 24.5866C20.5256 24.6043 20.5397 24.6205 20.5528 24.6375C21.1749 25.4447 21.797 26.252 22.4191 27.0592C23.0949 27.9362 23.7707 28.8132 24.4466 29.6902C24.4663 29.7157 24.4872 29.7403 24.5081 29.7649C24.5182 29.7768 24.5283 29.7886 24.5383 29.8006H29.6663C29.658 29.787 29.6501 29.7731 29.6422 29.7591C29.6252 29.7293 29.6082 29.6995 29.5877 29.6725C27.4484 26.8643 25.3088 24.0564 23.1664 21.2504C23.1086 21.1748 23.1136 21.1341 23.1745 21.0651C24.9774 19.024 26.778 16.9811 28.5783 14.9377C28.6032 14.9095 28.6236 14.8774 28.6441 14.8453C28.6536 14.8303 28.6632 14.8154 28.6732 14.8008H26.1452C26.0803 14.8735 26.0153 14.9461 25.9504 15.0187C25.8156 15.1693 25.6809 15.3198 25.5473 15.4715C24.7126 16.4181 23.8781 17.365 23.0437 18.312C22.6897 18.7137 22.3357 19.1154 21.9817 19.5171C21.9693 19.5312 21.9564 19.5449 21.9412 19.5609C21.9324 19.5701 21.923 19.58 21.9125 19.5913C21.904 19.581 21.8958 19.5712 21.8879 19.5618C21.8722 19.5432 21.8576 19.5259 21.8439 19.5079L18.3156 14.8782C18.3014 14.8598 18.287 14.8417 18.2726 14.8236C18.2666 14.816 18.2605 14.8084 18.2545 14.8008H13C13.0052 14.8115 13.0099 14.8227 13.0145 14.8338C13.0244 14.8574 13.0342 14.881 13.0493 14.9006C14.7601 17.1221 16.4715 19.3431 18.1829 21.5641L18.8725 22.459C18.9083 22.5054 18.9439 22.5521 18.9794 22.5988C19.0636 22.7094 19.1478 22.82 19.2359 22.9275C19.2843 22.9864 19.2792 23.021 19.2299 23.0768C18.2077 24.2334 17.187 25.3914 16.1662 26.5493C15.9724 26.7692 15.7785 26.989 15.5847 27.2089C15.4154 27.401 15.246 27.5931 15.0767 27.7852C14.5168 28.4202 13.957 29.0553 13.3977 29.6907C13.3781 29.713 13.3627 29.7388 13.3472 29.7646C13.34 29.7766 13.3327 29.7887 13.3251 29.8004Z" fill="#0D1625"/>
</svg>
