<svg width="59" height="59" viewBox="0 0 59 59" fill="none" xmlns="http://www.w3.org/2000/svg">
<path fill-rule="evenodd" clip-rule="evenodd" d="M59 29.5C59 45.7914 45.7914 59 29.5 59C13.2086 59 0 45.7914 0 29.5C0 13.2086 13.2086 0 29.5 0C45.7914 0 59 13.2086 59 29.5ZM30.5571 21.7784C27.6882 22.9707 21.9529 25.4413 13.3537 29.1878C11.9573 29.7434 11.2247 30.2867 11.1584 30.8177C11.0453 31.7174 12.1712 32.0714 13.7003 32.5508C13.9092 32.6172 14.1256 32.6835 14.3468 32.7573C15.8538 33.2465 17.8795 33.8193 18.9316 33.8414C19.8879 33.8611 20.9548 33.4678 22.1324 32.6614C30.1662 27.2359 34.3134 24.4948 34.574 24.4358C34.7584 24.394 35.014 24.34 35.1861 24.4948C35.3582 24.6472 35.341 24.9373 35.3238 25.016C35.2107 25.4905 30.8005 29.5934 28.5142 31.7174C27.8013 32.3787 27.2973 32.8482 27.1941 32.9564C26.963 33.1949 26.727 33.4235 26.5008 33.6423C25.0996 34.9895 24.0523 36.0023 26.5598 37.6543C27.7644 38.4483 28.7281 39.1047 29.6893 39.7586C30.739 40.474 31.7862 41.1869 33.1432 42.0768C33.4874 42.303 33.8168 42.5365 34.1389 42.7652C35.3607 43.6379 36.4595 44.4196 37.8165 44.2967C38.6032 44.223 39.4194 43.483 39.8324 41.273C40.8083 36.0465 42.7307 24.7284 43.1757 20.0625C43.2028 19.6751 43.1863 19.2858 43.1265 18.9021C43.0908 18.5922 42.9399 18.307 42.7037 18.1032C42.3522 17.8155 41.8064 17.7541 41.5606 17.759C40.4519 17.7787 38.7507 18.3711 30.5571 21.7784Z" fill="#171618"/>
</svg>
