<?xml version="1.0" encoding="UTF-8"?>
<svg id="Ebene_2" data-name="Ebene 2" xmlns="http://www.w3.org/2000/svg" viewBox="0 0 80 80">
  <defs>
    <style>
      .cls-1 {
        fill: #fbc1c8;
      }

      .cls-2 {
        fill: #fff;
        fill-rule: evenodd;
        stroke: #fff;
        stroke-miterlimit: 10;
        stroke-width: .87px;
      }
    </style>
  </defs>
  <g id="Layer_4" data-name="Layer 4">
    <g id="Layer_2" data-name="Layer 2">
      <circle class="cls-1" cx="40" cy="40" r="40"/>
    </g>
    <path class="cls-2" d="M40.06,52.39c.28-.21,.17-.61,.12-.91-.06-.31-.13-.69-.24-.96-.1-.24-.29-.42-.39-.67-.14-.33-.26-.76-.39-1.15-.12-.38-.28-.77-.35-1.15-.12-.57-.09-1.15-.12-1.77-.02-.51-.1-1.03-.2-1.53-.09-.45-.32-.89-.28-1.39,1.01-.31,2.09-.23,3.14-.29,2.15-.12,4.21-.21,6.13-.67,1.28-.31,2.42-.7,3.54-1.1,.42,.46,.53,1.38,.67,2.2,.14,.84,.28,1.81,.24,2.68-.05,.87-.39,1.56-.71,2.3-.31,.7-.6,1.38-.94,1.96-.75,1.27-1.67,2.32-2.2,3.54,.21,.21,.6,.13,.94,.1,.34-.04,.7-.01,.94-.14,.34-.19,.36-.54,.47-.96,.26-.11,.6-.13,.86-.24,.17-.18,.13-.52,.24-.77,.09-.21,.35-.44,.55-.67,.19-.21,.38-.44,.55-.62,.38-.4,.84-.72,1.18-1.15,.59-.75,.82-1.87,1.26-2.44,.09-.12,.32-.28,.47-.43,.22-1.1-.12-2.89,.31-3.73,.5,.12,.81,.7,1.18,1.15,.68,.82,1.4,1.68,2.24,2.44,.47,.43,1.05,.72,1.3,1.2,.36,.7,.31,1.93,.39,2.92,.04,.47,.12,.94,.2,1.44,.07,.44,.23,1.03,.16,1.48-.13,.82-1.01,.81-1.14,1.72,.26,.16,.69,.1,1.1,.1s.81,.02,.98-.19c.14-.16,.11-.56,.24-.86,.19-.46,.62-.59,.67-1.05,.03-.27-.16-.64-.2-.86-.09-.54-.04-1.21-.04-1.82,0-1.23-.05-2.54,.16-3.54,.15-.74,.69-1.47,.51-2.39-.09-.49-.61-1-.94-1.53-.38-.6-.89-1.15-.83-2.15,.05-.72,.43-1.27,.59-1.96,.17-.71,.23-1.58,.24-2.39,0-2.88-.46-5.17-1.45-7.32,.26-.43,.59-.41,.79-.77,.33-.59,.48-1.95,0-2.58-.63-.83-2.3-.44-2.48,.57-.08,.48,.13,.78,.04,1.2-.35-.02-.67-.22-.98-.38-.9-.46-1.95-.84-3.1-1.1-4.89-1.1-10.04,.16-14.93,.57-1.72,.15-3.46,.2-5.15,.29-1.72,.09-3.41,.11-4.99,.48-.73,.17-1.46,.44-2.2,.62-1.49,.37-2.97,.7-4.4,1.15-.71,.22-1.45,.44-2.04,.77-.3,.17-.54,.5-.9,.48-.59-.03-1.11-1.13-1.41-1.63-.33-.54-.92-1.6-1.41-1.58-.55,.02-.85,1.06-.86,1.91-.01,.81,.25,1.91,.51,2.3,.3,.44,.86,.42,.98,1.05,.13,.7-.3,1.59-.55,2.2-.29,.72-.55,1.31-.86,1.77-.54,.79-1.13,1.31-1.89,1.96-.23,.2-.56,.51-.71,.53-.38,.04-.53-.48-.98-.29-.08,.55,.11,1.23,.24,1.87,.11,.56,.27,1.22,.55,1.58,.44,.56,1.27,.82,1.96,.91,1.73,.22,3.36-.18,4.75-.62,1.57-.5,3.54-1.16,4.83,.14,.37,.38,1.03,1.38,1.1,2.15,.05,.58-.02,1.18,0,1.77,.06,1.74,0,3.38-.43,4.64-.45,1.33-1.22,1.96-1.89,3.02-.18,.29-.43,.63-.47,1.05,.19,.25,.67,.14,1.06,.14h1.14c.22-.13,.32-.41,.51-.62,.18-.2,.43-.29,.55-.53,.14-.29,.09-.62,.2-1.01,.31,.04,.34,.82,.79,.86,.37-.68,.32-1.54,.59-2.3,.24-.69,.66-1.34,.98-2.01,.33-.67,.63-1.36,.94-2.01,.63-1.33,1.19-2.83,2.28-3.54,.46,.5,.75,1.18,1.14,1.82,.74,1.2,1.7,2.06,2.51,3.35,.37,.58,.93,1.63,.75,2.44-.23,1.01-1.4,1.51-1.49,2.63,.76-.08,2.11,.31,2.83-.05,.52-.26,.74-1.1,.55-1.96,.1-.05,.21,.54,.43,.34Zm21.26-25.89c.04,.4-.4,.68-.67,.29-.12-.74,.62-.8,.67-.29Z"/>
  </g>
</svg>