<svg width="40" height="30" viewBox="0 0 40 30" fill="none" xmlns="http://www.w3.org/2000/svg">
<path d="M39.5665 0.00355307L29.9433 1.16298C29.6244 1.20162 29.4892 1.59293 29.7162 1.81998L32.581 4.68473L21.6631 15.6026L16.7452 10.6896C16.4408 10.3852 15.9529 10.3901 15.6534 10.6896L0.112271 26.2355C0.0403472 26.3082 0 26.4062 0 26.5085C0 26.6107 0.0403472 26.7088 0.112271 26.7814L2.28619 28.965C2.43595 29.1148 2.68233 29.1148 2.83209 28.965L16.1993 15.6026L21.1123 20.5157C21.4167 20.8152 21.9046 20.8152 22.2041 20.5157L35.3153 7.4142L38.18 10.2789C38.2314 10.33 38.296 10.3657 38.3666 10.3818C38.4372 10.398 38.5109 10.394 38.5794 10.3704C38.6478 10.3467 38.7082 10.3043 38.7538 10.248C38.7993 10.1917 38.8282 10.1238 38.837 10.0519L39.9964 0.428675C40.0303 0.182297 39.8177 -0.0302635 39.5665 0.00355307V0.00355307Z" fill="#1F1D20"/>
</svg>
