<?xml version="1.0" encoding="UTF-8"?>
<svg id="Ebene_2" data-name="Ebene 2" xmlns="http://www.w3.org/2000/svg" viewBox="0 0 80 80">
  <defs>
    <style>
      .cls-1 {
        stroke-width: .85px;
      }

      .cls-1, .cls-2 {
        fill: #fff;
        stroke: #3d56e3;
        stroke-linecap: round;
        stroke-linejoin: round;
      }

      .cls-3 {
        fill: #3d56e3;
      }
    </style>
  </defs>
  <g id="Layer_4" data-name="Layer 4">
    <g id="Layer_2" data-name="Layer 2">
      <circle class="cls-3" cx="40" cy="40" r="40"/>
    </g>
    <g>
      <ellipse class="cls-2" cx="38.47" cy="25.31" rx="12.5" ry="12.2"/>
      <path class="cls-1" d="M63.32,37.51H22.68c-1.44,0-2.6,.9-2.6,2v4.24c0,1.11,1.16,2,2.6,2h-4.17c-1.44,0-2.6,.9-2.6,2v4.24c0,1.11,1.16,2,2.6,2h1.75c-1.44,0-2.6,.9-2.6,2v4.24c0,1.11,1.16,2,2.6,2H60.91c1.44,0,2.6-.9,2.6-2v-4.24c0-1.11-1.16-2-2.6-2h-1.75c1.44,0,2.6-.9,2.6-2v-4.24c0-1.11-1.16-2-2.6-2h4.17c1.44,0,2.6-.9,2.6-2v-4.24c0-1.11-1.16-2-2.6-2Z"/>
      <g>
        <path class="cls-3" d="M32.52,47.41c1.21,0,2.24,.16,3.09,.49,.85,.33,1.54,.77,2.09,1.33s.93,1.21,1.18,1.96c.24,.75,.36,1.54,.36,2.38,0,.75-.14,1.51-.41,2.3-.27,.78-.68,1.49-1.23,2.13-.55,.63-1.25,1.16-2.1,1.57-.85,.41-1.85,.62-3.01,.62-2.33,0-4.11-.74-5.32-2.21s-1.82-3.51-1.82-6.1c0-1.87,.29-3.52,.87-4.96s1.4-2.65,2.48-3.63,2.37-1.73,3.89-2.24c1.52-.51,3.23-.78,5.14-.8,.04,.58,.07,1.14,.11,1.69,.04,.55,.07,1.12,.11,1.72-.95,.02-1.84,.11-2.67,.27s-1.59,.41-2.27,.74c-.68,.34-1.27,.77-1.78,1.3-.5,.53-.9,1.18-1.18,1.95,.41-.19,.83-.32,1.26-.39,.43-.07,.83-.11,1.2-.11Zm-.53,3.25c-.41,0-.85,.04-1.32,.11-.47,.07-.83,.18-1.09,.31,0,.07,0,.19-.01,.34,0,.15-.01,.28-.01,.39,0,.67,.05,1.31,.14,1.9,.09,.6,.25,1.12,.48,1.57,.22,.45,.52,.8,.9,1.05,.37,.25,.84,.38,1.4,.38,.47,0,.86-.1,1.19-.29s.6-.44,.81-.74c.21-.3,.37-.63,.48-.99,.1-.36,.15-.71,.15-1.05,0-.95-.24-1.68-.71-2.2-.48-.51-1.27-.77-2.39-.77Z"/>
        <path class="cls-3" d="M42.46,59.78v-19.4h13.1v3.67h-8.74v3.81h7.76v3.58h-7.76v4.68h9.38v3.67h-13.75Z"/>
      </g>
    </g>
    <path class="cls-3" d="M35.17,22.9c.31-1.34,.91-2.36,1.78-3.04,.88-.68,2-1.03,3.37-1.03,.54,0,1,.04,1.39,.13,.38,.08,.77,.2,1.15,.34l-.56,2.09c-.29-.1-.58-.18-.88-.24-.3-.07-.67-.1-1.12-.1-.72,0-1.28,.16-1.68,.47-.4,.31-.69,.77-.87,1.39h4l-.34,1.78h-3.89c-.01,.13-.02,.24-.02,.33v.53c0,.07,0,.17,.02,.31h3.67l-.34,1.78h-3.1c.2,.72,.51,1.22,.92,1.5,.41,.28,.92,.42,1.53,.42,.4,0,.8-.04,1.21-.11,.41-.07,.82-.19,1.22-.36l.52,2.07c-.32,.17-.74,.31-1.25,.44-.51,.13-1.11,.19-1.79,.19-1.5,0-2.65-.36-3.44-1.09s-1.31-1.75-1.57-3.07h-1.3v-1.78h1.13c-.01-.13-.02-.23-.02-.31v-.56c0-.11,0-.21,.02-.31h-1.13v-1.78h1.37Z"/>
  </g>
</svg>