<?xml version="1.0" encoding="UTF-8"?>
<svg id="Ebene_2" data-name="Ebene 2" xmlns="http://www.w3.org/2000/svg" viewBox="0 0 80 80">
  <defs>
    <style>
      .cls-1 {
        stroke-width: .85px;
      }

      .cls-1, .cls-2 {
        fill: #fff;
        stroke: #f24459;
        stroke-linecap: round;
        stroke-linejoin: round;
      }

      .cls-3 {
        fill: #f24459;
      }
    </style>
  </defs>
  <g id="Layer_4" data-name="Layer 4">
    <g id="Layer_2" data-name="Layer 2">
      <circle class="cls-3" cx="40" cy="40" r="40"/>
    </g>
    <g>
      <ellipse class="cls-2" cx="38.55" cy="26.26" rx="12.5" ry="12.2"/>
      <path class="cls-1" d="M63.4,38.45H22.77c-1.44,0-2.6,.9-2.6,2v4.24c0,1.11,1.16,2,2.6,2h-4.17c-1.44,0-2.6,.9-2.6,2v4.24c0,1.11,1.16,2,2.6,2h1.75c-1.44,0-2.6,.9-2.6,2v4.24c0,1.11,1.16,2,2.6,2H60.99c1.44,0,2.6-.9,2.6-2v-4.24c0-1.11-1.16-2-2.6-2h-1.75c1.44,0,2.6-.9,2.6-2v-4.24c0-1.11-1.16-2-2.6-2h4.17c1.44,0,2.6-.9,2.6-2v-4.24c0-1.11-1.16-2-2.6-2Z"/>
      <path class="cls-3" d="M41.93,21.6c-.14,.5-.28,1.01-.42,1.51-.32-.19-.77-.4-1.34-.51-.6-.12-1.07-.08-1.26-.06-.46,.05-.76,.08-1.03,.3-.03,.03-.44,.36-.45,.89,0,.55,.43,.91,.6,1.06,.53,.44,.86,.29,1.89,.69,.54,.21,1.19,.46,1.74,1.04,.2,.21,.59,.63,.75,1.3,.04,.18,.23,1.11-.37,1.95-.5,.69-1.27,.94-1.86,1.12-.28,.09-.52,.14-.69,.17v1.9h-1.75v-1.86c-.37-.02-.8-.06-1.26-.15-.73-.14-1.34-.35-1.81-.55,.19-.48,.38-.96,.57-1.45,.25,.1,.6,.24,1.03,.4,.85,.3,1.27,.46,1.64,.48,.16,0,1.45,.07,1.98-.72,.28-.43,.2-.89,.19-.95-.1-.49-.47-.77-.65-.91-.44-.33-.86-.37-1.28-.48-.53-.13-1.87-.45-2.66-1.32-.12-.13-.77-.85-.68-1.84,.1-1.02,.92-1.62,1.17-1.79,.71-.52,1.46-.62,1.78-.64,0-.54,.01-1.07,.02-1.61h1.75c-.02,.48-.03,.97-.05,1.45,.31,.02,.66,.05,1.05,.13,.58,.12,1.06,.29,1.44,.45Z"/>
      <g>
        <path class="cls-3" d="M30.61,48.35c1.21,0,2.24,.16,3.09,.49,.85,.33,1.54,.77,2.09,1.33s.93,1.21,1.18,1.96c.24,.75,.36,1.54,.36,2.38,0,.75-.14,1.51-.41,2.3-.27,.78-.68,1.49-1.23,2.13-.55,.63-1.25,1.16-2.1,1.57-.85,.41-1.85,.62-3.01,.62-2.33,0-4.11-.74-5.32-2.21s-1.82-3.51-1.82-6.1c0-1.87,.29-3.52,.87-4.96s1.4-2.65,2.48-3.63,2.37-1.73,3.89-2.24c1.52-.51,3.23-.78,5.14-.8,.04,.58,.07,1.14,.11,1.69,.04,.55,.07,1.12,.11,1.72-.95,.02-1.84,.11-2.67,.27s-1.59,.41-2.27,.74c-.68,.34-1.27,.77-1.78,1.3-.5,.53-.9,1.18-1.18,1.95,.41-.19,.83-.32,1.26-.39,.43-.07,.83-.11,1.2-.11Zm-.53,3.25c-.41,0-.85,.04-1.32,.11-.47,.07-.83,.18-1.09,.31,0,.07,0,.19-.01,.34,0,.15-.01,.28-.01,.39,0,.67,.05,1.31,.14,1.9,.09,.6,.25,1.12,.48,1.57,.22,.45,.52,.8,.9,1.05,.37,.25,.84,.38,1.4,.38,.47,0,.86-.1,1.19-.29s.6-.44,.81-.74c.21-.3,.37-.63,.48-.99,.1-.36,.15-.71,.15-1.05,0-.95-.24-1.68-.71-2.2-.48-.51-1.27-.77-2.39-.77Z"/>
        <path class="cls-3" d="M53.57,60.73c-1.25-2.22-2.6-4.41-4.06-6.58-1.46-2.17-3.01-4.21-4.65-6.13v12.71h-4.31v-19.4h3.56c.62,.62,1.3,1.37,2.04,2.27s1.51,1.85,2.28,2.87c.77,1.02,1.54,2.07,2.31,3.16,.77,1.09,1.48,2.14,2.16,3.15v-11.45h4.34v19.4h-3.67Z"/>
      </g>
    </g>
  </g>
</svg>