<?xml version="1.0" encoding="UTF-8"?>
<svg id="Ebene_2" data-name="Ebene 2" xmlns="http://www.w3.org/2000/svg" viewBox="0 0 80 80">
  <defs>
    <style>
      .cls-1, .cls-2 {
        fill: #fff;
        stroke: #27e34f;
        stroke-linecap: round;
        stroke-linejoin: round;
      }

      .cls-3 {
        fill: #27e34f;
      }

      .cls-2 {
        stroke-width: .85px;
      }
    </style>
  </defs>
  <g id="Layer_4" data-name="Layer 4">
    <g id="Layer_2" data-name="Layer 2">
      <circle class="cls-3" cx="40" cy="40" r="40"/>
    </g>
    <g>
      <ellipse class="cls-1" cx="38.29" cy="25.38" rx="12.5" ry="12.2"/>
      <path class="cls-2" d="M63.14,37.58H22.51c-1.44,0-2.6,.9-2.6,2v4.24c0,1.11,1.16,2,2.6,2h-4.17c-1.44,0-2.6,.9-2.6,2v4.24c0,1.11,1.16,2,2.6,2h1.75c-1.44,0-2.6,.9-2.6,2v4.24c0,1.11,1.16,2,2.6,2H60.73c1.44,0,2.6-.9,2.6-2v-4.24c0-1.11-1.16-2-2.6-2h-1.75c1.44,0,2.6-.9,2.6-2v-4.24c0-1.11-1.16-2-2.6-2h4.17c1.44,0,2.6-.9,2.6-2v-4.24c0-1.11-1.16-2-2.6-2Z"/>
      <g>
        <path class="cls-3" d="M32.35,47.48c1.21,0,2.24,.16,3.09,.49,.85,.33,1.54,.77,2.09,1.33s.93,1.21,1.18,1.96c.24,.75,.36,1.54,.36,2.38,0,.75-.14,1.51-.41,2.3-.27,.78-.68,1.49-1.23,2.13-.55,.63-1.25,1.16-2.1,1.57-.85,.41-1.85,.62-3.01,.62-2.33,0-4.11-.74-5.32-2.21s-1.82-3.51-1.82-6.1c0-1.87,.29-3.52,.87-4.96s1.4-2.65,2.48-3.63,2.37-1.73,3.89-2.24c1.52-.51,3.23-.78,5.14-.8,.04,.58,.07,1.14,.11,1.69,.04,.55,.07,1.12,.11,1.72-.95,.02-1.84,.11-2.67,.27s-1.59,.41-2.27,.74c-.68,.34-1.27,.77-1.78,1.3-.5,.53-.9,1.18-1.18,1.95,.41-.19,.83-.32,1.26-.39,.43-.07,.83-.11,1.2-.11Zm-.53,3.25c-.41,0-.85,.04-1.32,.11-.47,.07-.83,.18-1.09,.31,0,.07,0,.19-.01,.34,0,.15-.01,.28-.01,.39,0,.67,.05,1.31,.14,1.9,.09,.6,.25,1.12,.48,1.57,.22,.45,.52,.8,.9,1.05,.37,.25,.84,.38,1.4,.38,.47,0,.86-.1,1.19-.29s.6-.44,.81-.74c.21-.3,.37-.63,.48-.99,.1-.36,.15-.71,.15-1.05,0-.95-.24-1.68-.71-2.2-.48-.51-1.27-.77-2.39-.77Z"/>
        <path class="cls-3" d="M47.58,56.52c.62,0,1.12-.05,1.53-.15,.4-.1,.72-.24,.97-.42s.41-.39,.5-.63c.09-.24,.14-.51,.14-.81,0-.63-.3-1.16-.9-1.58-.6-.42-1.62-.87-3.08-1.36-.63-.22-1.27-.48-1.9-.77-.63-.29-1.2-.65-1.71-1.09s-.92-.97-1.23-1.6c-.32-.62-.48-1.39-.48-2.28s.17-1.7,.5-2.42c.34-.72,.81-1.33,1.43-1.83,.62-.5,1.36-.89,2.24-1.16s1.87-.41,2.97-.41c1.31,0,2.44,.14,3.39,.42,.95,.28,1.74,.59,2.35,.92l-1.26,3.44c-.54-.28-1.14-.53-1.81-.74-.66-.21-1.46-.32-2.39-.32-1.05,0-1.8,.14-2.25,.43-.46,.29-.69,.73-.69,1.33,0,.35,.08,.65,.25,.9s.41,.46,.71,.66c.31,.2,.66,.37,1.06,.53s.84,.32,1.33,.49c1.01,.37,1.89,.74,2.63,1.11,.75,.36,1.37,.79,1.86,1.27,.49,.49,.86,1.06,1.11,1.71,.24,.65,.36,1.45,.36,2.38,0,1.81-.63,3.22-1.9,4.21-1.27,1-3.18,1.5-5.74,1.5-.86,0-1.63-.05-2.32-.15-.69-.1-1.3-.23-1.83-.38-.53-.15-.99-.31-1.37-.48-.38-.17-.7-.33-.97-.48l1.23-3.47c.58,.32,1.29,.6,2.14,.85,.85,.25,1.89,.38,3.12,.38Z"/>
      </g>
    </g>
    <path class="cls-3" d="M35.46,34.03c-.17,0-.42-.02-.75-.05-.33-.04-.64-.1-.93-.2l.36-2.18c.18,.06,.35,.1,.5,.13s.34,.04,.57,.04c.42,0,.71-.13,.88-.38s.25-.62,.25-1.1v-9.56c0-1.22,.35-2.2,1.04-2.92,.69-.72,1.71-1.08,3.07-1.08,.5,0,.97,.05,1.39,.15,.42,.1,.74,.2,.97,.3l-.52,2.14c-.24-.11-.5-.19-.78-.24-.28-.05-.54-.08-.78-.08-.32,0-.6,.05-.82,.14s-.4,.21-.52,.37c-.13,.16-.22,.34-.27,.56-.05,.22-.08,.45-.08,.7v.47h3.31v2.23h-3.31v6.89c0,1.26-.3,2.19-.91,2.78-.61,.59-1.49,.89-2.66,.89Z"/>
  </g>
</svg>