<?xml version="1.0" encoding="UTF-8"?><svg xmlns="http://www.w3.org/2000/svg" viewBox="0 0 51 51"><defs><style>.d{fill:#27e34f;stroke:#3e3940;stroke-linecap:round;stroke-linejoin:round;}</style></defs><g id="a"/><g id="b"><g id="c"><g><path class="d" d="M33.23,37.29c-7.85,1.58-12.95-1.63-14.75-3.05l7.79-5.08-25.77,.09,.19,.3h0l13.34,20.94,.29-8c2.39,1.44,10.09,5.22,20.7,1.76,14.42-4.71,15.41-17.91,15.47-18.91h0v-.06s-2.95,9.11-17.27,12Z"/><path class="d" d="M17.77,13.71c7.85-1.58,12.95,1.63,14.75,3.05l-7.79,5.08,25.77-.09-.19-.3h0L36.97,.5l-.29,8c-2.39-1.44-10.09-5.22-20.7-1.76C1.55,11.46,.56,24.65,.5,25.65H.5s0,.06,0,.06c0,0,2.95-9.11,17.27-12Z"/></g></g></g></svg>