<?xml version="1.0" encoding="UTF-8"?><svg xmlns="http://www.w3.org/2000/svg" viewBox="0 0 50.99 50.99"><defs><style>.d{fill:#27e34f;stroke:#3e3940;stroke-linejoin:round;stroke-width:.99px;}</style></defs><g id="a"/><g id="b"><g id="c"><g><path class="d" d="M48,3.19c-8.47,1.89-14.8,5.01-18.94,9.03,1.51,2.46,2.9,5.08,3.99,7.79,1.01,2.52,1.66,4.92,1.96,7.2,2.05-3.79,4.22-7.72,6.13-11.01-.41,.71-.94,1.62-1.54,2.7-.3,.53-.78,1.38-1.51,2.7-.73,1.32-1.78,3.22-3.07,5.62,.16,1.05,.27,2.47,.14,4.13-.2,2.5-.87,4.32-1.08,4.85-.76,1.97-1.91,3.79-3.44,5.44,14.59-1.16,24.82-11.68,17.37-38.43Z"/><path class="d" d="M19.39,.49c-8.62,7.98-12.23,21.31-7.75,30.73,.73-.14,1.43-.23,2.12-.27,.31-.02,1.15-.06,2.02,.04,1.92,.21,3.33,1.03,4.34,1.62,.83,.48,1.81,1.06,2.82,2.15,.9,.97,1.43,1.94,1.75,2.61-2.5-5.25-3.44-9.59-3.83-12.62-.44-3.43-.74-9.56-.73-9.51,.05,1.06,.13,2.61,.27,4.49,0,0,.21,2.85,.47,5.02,.66,5.67,6.21,18.52,6.51,19.21,1.92-1.68,5.34-5.16,6.64-10.5,1.5-6.13-.66-11.2-2.82-16.3-1.68-3.95-5.05-10.37-11.8-16.67Z"/><path class="d" d="M27.57,45.44c-.55-5.87-4.29-10.92-9.62-12.94-6.1-2.32-13.23-.29-17.45,5.08,7.47,13.38,15.81,17,27.08,7.86-1.55-.95-3.9-2.13-6.77-3.28-5.58-2.23-9.99-3.08-9.99-3.08,0,0,4.42,.81,9.99,3.08q2.32,.95,6.77,3.28Z"/></g></g></g></svg>