<?xml version="1.0" encoding="UTF-8"?><svg id="Ebene_2" xmlns="http://www.w3.org/2000/svg" viewBox="0 0 51 51"><defs><style>.cls-1{fill:#3e3940;}.cls-2{fill:#27e34f;stroke:#3e3940;stroke-linecap:round;stroke-linejoin:round;}</style></defs><g id="Layer_4"><g><g><path class="cls-2" d="M28.67,25.77l1.01-1.89,1.8-3.35s0-.03,.01-.04l11.98-12.03,1.73-1.74,2.45-1.31,.91-.49,1.94-2.94-1.47-1.48-2.96,1.91-.51,.95-1.29,2.42-1.73,1.74-1.68,1.69-10.3,10.34h0s-.02,0-.04,.02l-5.22,2.82c-1.14,.61-2.82,1.87-3.73,2.78l-1.46,1.47-.27,.27-.05,.05L1.34,45.47h0c-.91,.92-.91,2.42,0,3.34l1,1.01c.91,.92,2.41,.92,3.33,0h0l12.14-12.19,6.35-6.37,1.73-1.74c.92-.92,2.17-2.6,2.78-3.75Z"/><path class="cls-2" d="M48.75,40.27c-1.32-1.33-3.12-1.9-4.86-1.72l-13.68-13.73-.69,1.29c-.15,.29-.35,.61-.56,.94-.68,1.04-1.58,2.21-2.32,2.95l-1.36,1.36,13.28,13.33c.02,.85,.23,1.69,.61,2.47,.28,.58,.65,1.12,1.13,1.6,.48,.48,1.01,.85,1.59,1.13,1.87,.92,4.13,.81,5.9-.35,.34-.22,.66-.48,.96-.78,2.33-2.34,2.33-6.14,0-8.48Zm-1.58,6.89c-.3,.31-.65,.54-1.02,.72-1.39,.67-3.11,.44-4.27-.72-1.15-1.16-1.38-2.88-.71-4.28,.06-.13,.13-.27,.21-.39l1.13-1.14c.88-.56,1.94-.72,2.92-.47,.63,.16,1.24,.48,1.73,.98,.5,.5,.82,1.11,.98,1.75,.3,1.23-.02,2.59-.98,3.55Z"/><path class="cls-2" d="M15.94,19.06l2.18,5.29,1.43,1.44,1.36-1.37c.74-.74,1.9-1.64,2.93-2.32,.33-.21,.65-.41,.93-.56l1.29-.69-2.23-2.24-5.13-2.13,5.33-9.23L15.07,.5l-5.34,.77,1.29,1.31,4.33,4.4-.93,3.75-1.73,1.74-.27,.27-1.73,1.74h0l-3.74,.94L1.27,9.77l-.43,3.03-.33,2.33,6.73,9,8.72-5.07Z"/></g><circle class="cls-1" cx="44.22" cy="44.55" r="3.6"/></g></g></svg>