<?xml version="1.0" encoding="UTF-8"?>
<svg id="Ebene_2" data-name="Ebene 2" xmlns="http://www.w3.org/2000/svg" viewBox="0 0 80 80">
  <defs>
    <style>
      .cls-1 {
        fill: #463d00;
      }

      .cls-2, .cls-3 {
        fill: #fff;
        stroke: #463d00;
        stroke-linecap: round;
        stroke-linejoin: round;
      }

      .cls-3 {
        stroke-width: .85px;
      }
    </style>
  </defs>
  <g id="Layer_4" data-name="Layer 4">
    <g id="Layer_2" data-name="Layer 2">
      <circle class="cls-1" cx="40" cy="40" r="40"/>
    </g>
    <g>
      <g>
        <ellipse class="cls-2" cx="37.55" cy="25.16" rx="12.5" ry="12.2"/>
        <path class="cls-3" d="M62.4,37.35H21.77c-1.44,0-2.6,.9-2.6,2v4.24c0,1.11,1.16,2,2.6,2h-4.17c-1.44,0-2.6,.9-2.6,2v4.24c0,1.11,1.16,2,2.6,2h1.75c-1.44,0-2.6,.9-2.6,2v4.24c0,1.11,1.16,2,2.6,2H59.99c1.44,0,2.6-.9,2.6-2v-4.24c0-1.11-1.16-2-2.6-2h-1.75c1.44,0,2.6-.9,2.6-2v-4.24c0-1.11-1.16-2-2.6-2h4.17c1.44,0,2.6-.9,2.6-2v-4.24c0-1.11-1.16-2-2.6-2Z"/>
        <g>
          <path class="cls-1" d="M30.61,47.25c1.21,0,2.24,.16,3.09,.49,.85,.33,1.54,.77,2.09,1.33s.93,1.21,1.18,1.96c.24,.75,.36,1.54,.36,2.38,0,.75-.14,1.51-.41,2.3-.27,.78-.68,1.49-1.23,2.13-.55,.63-1.25,1.16-2.1,1.57-.85,.41-1.85,.62-3.01,.62-2.33,0-4.11-.74-5.32-2.21s-1.82-3.51-1.82-6.1c0-1.87,.29-3.52,.87-4.96s1.4-2.65,2.48-3.63,2.37-1.73,3.89-2.24c1.52-.51,3.23-.78,5.14-.8,.04,.58,.07,1.14,.11,1.69,.04,.55,.07,1.12,.11,1.72-.95,.02-1.84,.11-2.67,.27s-1.59,.41-2.27,.74c-.68,.34-1.27,.77-1.78,1.3-.5,.53-.9,1.18-1.18,1.95,.41-.19,.83-.32,1.26-.39,.43-.07,.83-.11,1.2-.11Zm-.53,3.25c-.41,0-.85,.04-1.32,.11-.47,.07-.83,.18-1.09,.31,0,.07,0,.19-.01,.34,0,.15-.01,.28-.01,.39,0,.67,.05,1.31,.14,1.9,.09,.6,.25,1.12,.48,1.57,.22,.45,.52,.8,.9,1.05,.37,.25,.84,.38,1.4,.38,.47,0,.86-.1,1.19-.29s.6-.44,.81-.74c.21-.3,.37-.63,.48-.99,.1-.36,.15-.71,.15-1.05,0-.95-.24-1.68-.71-2.2-.48-.51-1.27-.77-2.39-.77Z"/>
          <path class="cls-1" d="M47.01,59.88c-1.06,0-2.12-.03-3.18-.1s-2.15-.22-3.29-.46v-18.82c.9-.17,1.88-.29,2.94-.38s2.05-.13,2.97-.13c1.23,0,2.37,.09,3.4,.27,1.04,.18,1.93,.48,2.67,.91,.75,.43,1.33,.99,1.75,1.69,.42,.7,.63,1.56,.63,2.59,0,1.55-.75,2.77-2.24,3.67,1.23,.47,2.07,1.1,2.52,1.9,.45,.8,.67,1.71,.67,2.72,0,2.03-.74,3.57-2.23,4.59-1.48,1.03-3.69,1.54-6.62,1.54Zm-2.21-12.04h2.13c1.34,0,2.31-.17,2.88-.52,.58-.35,.87-.9,.87-1.67s-.3-1.33-.9-1.65c-.6-.32-1.47-.48-2.63-.48-.37,0-.77,0-1.2,.01-.43,0-.81,.03-1.15,.07v4.23Zm0,3.33v5.01c.32,.04,.66,.07,1.04,.08,.37,.02,.78,.03,1.23,.03,1.31,0,2.36-.19,3.16-.56,.8-.37,1.2-1.06,1.2-2.07,0-.9-.34-1.54-1.01-1.92-.67-.38-1.63-.57-2.88-.57h-2.74Z"/>
        </g>
      </g>
      <path class="cls-1" d="M37.41,24.42h2.99v2.18h-2.99c-.01,.42-.04,.87-.08,1.35s-.09,.92-.15,1.31h4.7v2.25h-7.65c.22-.96,.36-1.85,.43-2.66,.07-.82,.12-1.57,.14-2.25h-1.57v-2.18h1.57v-.95c0-.9,.11-1.65,.32-2.24,.22-.59,.51-1.07,.89-1.43,.38-.36,.83-.62,1.36-.77,.53-.15,1.1-.23,1.73-.23,.48,0,.93,.05,1.35,.14,.42,.1,.83,.23,1.22,.4l-.67,2.11c-.28-.13-.54-.23-.78-.29-.25-.06-.54-.1-.89-.11-.29,0-.55,.03-.78,.09-.23,.06-.44,.17-.6,.34s-.3,.4-.4,.68c-.1,.29-.14,.65-.14,1.08v1.17Z"/>
    </g>
  </g>
</svg>