<?xml version="1.0" encoding="UTF-8"?>
<svg id="Ebene_2" data-name="Ebene 2" xmlns="http://www.w3.org/2000/svg" viewBox="0 0 80 80">
  <defs>
    <style>
      .cls-1 {
        fill: #100e10;
      }

      .cls-2 {
        stroke-width: .85px;
      }

      .cls-2, .cls-3 {
        fill: #fff;
        stroke: #100e10;
        stroke-linecap: round;
        stroke-linejoin: round;
      }
    </style>
  </defs>
  <g id="Layer_4" data-name="Layer 4">
    <g id="Layer_2" data-name="Layer 2">
      <circle class="cls-1" cx="40" cy="40" r="40"/>
    </g>
    <g>
      <ellipse class="cls-3" cx="38.55" cy="24.16" rx="12.5" ry="12.2"/>
      <path class="cls-2" d="M63.4,36.35H22.77c-1.44,0-2.6,.9-2.6,2v4.24c0,1.11,1.16,2,2.6,2h-4.17c-1.44,0-2.6,.9-2.6,2v4.24c0,1.11,1.16,2,2.6,2h1.75c-1.44,0-2.6,.9-2.6,2v4.24c0,1.11,1.16,2,2.6,2H60.99c1.44,0,2.6-.9,2.6-2v-4.24c0-1.11-1.16-2-2.6-2h-1.75c1.44,0,2.6-.9,2.6-2v-4.24c0-1.11-1.16-2-2.6-2h4.17c1.44,0,2.6-.9,2.6-2v-4.24c0-1.11-1.16-2-2.6-2Z"/>
      <path class="cls-1" d="M41.93,19.5c-.14,.5-.28,1.01-.42,1.51-.32-.19-.77-.4-1.34-.51-.6-.12-1.07-.08-1.26-.06-.46,.05-.76,.08-1.03,.3-.03,.03-.44,.36-.45,.89,0,.55,.43,.91,.6,1.06,.53,.44,.86,.29,1.89,.69,.54,.21,1.19,.46,1.74,1.04,.2,.21,.59,.63,.75,1.3,.04,.18,.23,1.11-.37,1.95-.5,.69-1.27,.94-1.86,1.12-.28,.09-.52,.14-.69,.17v1.9h-1.75v-1.86c-.37-.02-.8-.06-1.26-.15-.73-.14-1.34-.35-1.81-.55,.19-.48,.38-.96,.57-1.45,.25,.1,.6,.24,1.03,.4,.85,.3,1.27,.46,1.64,.48,.16,0,1.45,.07,1.98-.72,.28-.43,.2-.89,.19-.95-.1-.49-.47-.77-.65-.91-.44-.33-.86-.37-1.28-.48-.53-.13-1.87-.45-2.66-1.32-.12-.13-.77-.85-.68-1.84,.1-1.02,.92-1.62,1.17-1.79,.71-.52,1.46-.62,1.78-.64,0-.54,.01-1.07,.02-1.61h1.75c-.02,.48-.03,.97-.05,1.45,.31,.02,.66,.05,1.05,.13,.58,.12,1.06,.29,1.44,.45Z"/>
      <g>
        <path class="cls-1" d="M41.4,48.91c0,1.68-.26,3.15-.78,4.4s-1.26,2.29-2.23,3.11c-.96,.82-2.13,1.44-3.51,1.85-1.38,.41-2.93,.62-4.65,.62-.78,0-1.7-.03-2.74-.1-1.05-.07-2.07-.2-3.08-.41v-18.9c1.01-.19,2.06-.31,3.15-.38,1.09-.07,2.03-.1,2.81-.1,1.66,0,3.17,.19,4.52,.56,1.35,.37,2.51,.96,3.49,1.76,.97,.8,1.72,1.83,2.24,3.08,.52,1.25,.78,2.75,.78,4.51Zm-12.63,6.16c.21,.02,.44,.03,.71,.04,.27,0,.59,.01,.97,.01,2.18,0,3.8-.55,4.86-1.65,1.05-1.1,1.58-2.62,1.58-4.56s-.5-3.57-1.51-4.62c-1.01-1.05-2.6-1.57-4.79-1.57-.3,0-.61,0-.92,.01-.32,0-.62,.03-.9,.07v12.26Z"/>
        <path class="cls-1" d="M55.13,58.63c-.55-1.08-1.14-2.18-1.79-3.28-.65-1.11-1.4-2.05-2.24-2.81-.26,.29-.59,.69-.99,1.2s-.8,1.06-1.2,1.64c-.4,.58-.78,1.18-1.12,1.8-.35,.62-.61,1.11-.78,1.46h-4.98c.82-1.52,1.78-3.08,2.89-4.69,1.11-1.61,2.35-3.33,3.72-5.14l-6.33-9.57h5.29l3.7,5.62,3.78-5.62h4.98l-6.3,9.36c1.65,2.07,3.01,3.97,4.08,5.69s1.91,3.17,2.53,4.35h-5.23Z"/>
      </g>
    </g>
  </g>
</svg>