<?xml version="1.0" encoding="UTF-8"?>
<svg id="Ebene_2" data-name="Ebene 2" xmlns="http://www.w3.org/2000/svg" viewBox="0 0 80 80">
  <defs>
    <style>
      .cls-1 {
        stroke-width: .85px;
      }

      .cls-1, .cls-2 {
        fill: #fff;
        stroke: #3d56e3;
        stroke-linecap: round;
        stroke-linejoin: round;
      }

      .cls-3 {
        fill: #3d56e3;
      }
    </style>
  </defs>
  <g id="Layer_4" data-name="Layer 4">
    <g id="Layer_2" data-name="Layer 2">
      <circle class="cls-3" cx="40" cy="40" r="40"/>
    </g>
    <g>
      <ellipse class="cls-2" cx="37.83" cy="25.07" rx="12.5" ry="12.2"/>
      <path class="cls-1" d="M62.68,37.27H22.04c-1.44,0-2.6,.9-2.6,2v4.24c0,1.11,1.16,2,2.6,2h-4.17c-1.44,0-2.6,.9-2.6,2v4.24c0,1.11,1.16,2,2.6,2h1.75c-1.44,0-2.6,.9-2.6,2v4.24c0,1.11,1.16,2,2.6,2H60.26c1.44,0,2.6-.9,2.6-2v-4.24c0-1.11-1.16-2-2.6-2h-1.75c1.44,0,2.6-.9,2.6-2v-4.24c0-1.11-1.16-2-2.6-2h4.17c1.44,0,2.6-.9,2.6-2v-4.24c0-1.11-1.16-2-2.6-2Z"/>
      <g>
        <path class="cls-3" d="M32.92,47.17c1.21,0,2.24,.16,3.09,.49,.85,.33,1.54,.77,2.09,1.33s.93,1.21,1.18,1.96c.24,.75,.36,1.54,.36,2.38,0,.75-.14,1.51-.41,2.3-.27,.78-.68,1.49-1.23,2.13-.55,.63-1.25,1.16-2.1,1.57-.85,.41-1.85,.62-3.01,.62-2.33,0-4.11-.74-5.32-2.21s-1.82-3.51-1.82-6.1c0-1.87,.29-3.52,.87-4.96s1.4-2.65,2.48-3.63,2.37-1.73,3.89-2.24c1.52-.51,3.23-.78,5.14-.8,.04,.58,.07,1.14,.11,1.69,.04,.55,.07,1.12,.11,1.72-.95,.02-1.84,.11-2.67,.27s-1.59,.41-2.27,.74c-.68,.34-1.27,.77-1.78,1.3-.5,.53-.9,1.18-1.18,1.95,.41-.19,.83-.32,1.26-.39,.43-.07,.83-.11,1.2-.11Zm-.53,3.25c-.41,0-.85,.04-1.32,.11-.47,.07-.83,.18-1.09,.31,0,.07,0,.19-.01,.34,0,.15-.01,.28-.01,.39,0,.67,.05,1.31,.14,1.9,.09,.6,.25,1.12,.48,1.57,.22,.45,.52,.8,.9,1.05,.37,.25,.84,.38,1.4,.38,.47,0,.86-.1,1.19-.29s.6-.44,.81-.74c.21-.3,.37-.63,.48-.99,.1-.36,.15-.71,.15-1.05,0-.95-.24-1.68-.71-2.2-.48-.51-1.27-.77-2.39-.77Z"/>
        <path class="cls-3" d="M53.47,53.02c0,.95-.11,1.85-.32,2.69s-.59,1.57-1.12,2.2c-.53,.63-1.25,1.12-2.16,1.48-.91,.36-2.05,.55-3.43,.55-1.27,0-2.36-.15-3.28-.46-.91-.31-1.67-.67-2.27-1.08l1.46-3.39c.54,.32,1.12,.6,1.74,.84,.62,.24,1.29,.36,2.02,.36,1.06,0,1.83-.26,2.3-.78,.47-.52,.7-1.4,.7-2.63v-12.66h4.37v12.88Z"/>
      </g>
    </g>
    <path class="cls-3" d="M36.31,31.31v-2h-2.66v-1.78h2.66v-1.17h-2.66v-1.78h1.8c-.25-.46-.52-.94-.79-1.44-.28-.5-.55-1.01-.81-1.51-.26-.5-.52-1-.76-1.48-.24-.48-.45-.92-.63-1.31h3.06c.37,.83,.73,1.66,1.07,2.49,.34,.83,.72,1.65,1.13,2.44,.4-.79,.75-1.61,1.08-2.46,.32-.84,.67-1.67,1.02-2.47h3.04c-.46,.92-.93,1.87-1.41,2.83-.49,.97-1,1.94-1.56,2.91h1.8v1.78h-2.66v1.17h2.66v1.78h-2.66v2h-2.72Z"/>
  </g>
</svg>