<?xml version="1.0" encoding="UTF-8"?>
<svg id="Ebene_2" data-name="Ebene 2" xmlns="http://www.w3.org/2000/svg" viewBox="0 0 80 80">
  <defs>
    <style>
      .cls-1 {
        fill: #070d2f;
      }

      .cls-2 {
        stroke-width: .85px;
      }

      .cls-2, .cls-3 {
        fill: #fff;
        stroke: #070d2f;
        stroke-linecap: round;
        stroke-linejoin: round;
      }
    </style>
  </defs>
  <g id="Layer_4" data-name="Layer 4">
    <g id="Layer_2" data-name="Layer 2">
      <circle class="cls-1" cx="40" cy="40" r="40"/>
    </g>
    <g>
      <ellipse class="cls-3" cx="39.26" cy="24.23" rx="12.5" ry="12.2"/>
      <path class="cls-2" d="M64.1,36.43H23.47c-1.44,0-2.6,.9-2.6,2v4.24c0,1.11,1.16,2,2.6,2h-4.17c-1.44,0-2.6,.9-2.6,2v4.24c0,1.11,1.16,2,2.6,2h1.75c-1.44,0-2.6,.9-2.6,2v4.24c0,1.11,1.16,2,2.6,2H61.69c1.44,0,2.6-.9,2.6-2v-4.24c0-1.11-1.16-2-2.6-2h-1.75c1.44,0,2.6-.9,2.6-2v-4.24c0-1.11-1.16-2-2.6-2h4.17c1.44,0,2.6-.9,2.6-2v-4.24c0-1.11-1.16-2-2.6-2Z"/>
      <path class="cls-1" d="M42.63,19.57c-.14,.5-.28,1.01-.42,1.51-.32-.19-.77-.4-1.34-.51-.6-.12-1.07-.08-1.26-.06-.46,.05-.76,.08-1.03,.3-.03,.03-.44,.36-.45,.89,0,.55,.43,.91,.6,1.06,.53,.44,.86,.29,1.89,.69,.54,.21,1.19,.46,1.74,1.04,.2,.21,.59,.63,.75,1.3,.04,.18,.23,1.11-.37,1.95-.5,.69-1.27,.94-1.86,1.12-.28,.09-.52,.14-.69,.17v1.9h-1.75v-1.86c-.37-.02-.8-.06-1.26-.15-.73-.14-1.34-.35-1.81-.55,.19-.48,.38-.96,.57-1.45,.25,.1,.6,.24,1.03,.4,.85,.3,1.27,.46,1.64,.48,.16,0,1.45,.07,1.98-.72,.28-.43,.2-.89,.19-.95-.1-.49-.47-.77-.65-.91-.44-.33-.86-.37-1.28-.48-.53-.13-1.87-.45-2.66-1.32-.12-.13-.77-.85-.68-1.84,.1-1.02,.92-1.62,1.17-1.79,.71-.52,1.46-.62,1.78-.64,0-.54,.01-1.07,.02-1.61h1.75c-.02,.48-.03,.97-.05,1.45,.31,.02,.66,.05,1.05,.13,.58,.12,1.06,.29,1.44,.45Z"/>
      <g>
        <path class="cls-1" d="M30.05,46.66c1.13,0,2.08,.15,2.87,.46,.79,.3,1.43,.72,1.94,1.24,.5,.52,.87,1.13,1.09,1.82,.22,.69,.34,1.43,.34,2.21,0,.69-.13,1.4-.38,2.13-.25,.73-.63,1.39-1.14,1.98-.51,.59-1.16,1.08-1.95,1.46-.79,.38-1.72,.57-2.79,.57-2.17,0-3.81-.68-4.94-2.05-1.13-1.37-1.69-3.26-1.69-5.67,0-1.73,.27-3.27,.81-4.6,.54-1.33,1.3-2.46,2.3-3.37,1-.91,2.2-1.6,3.61-2.08,1.41-.48,3-.72,4.77-.74,.04,.54,.07,1.06,.1,1.57,.03,.51,.07,1.04,.1,1.6-.88,.02-1.71,.1-2.48,.25-.77,.15-1.47,.38-2.11,.69s-1.18,.71-1.65,1.21c-.47,.49-.83,1.1-1.09,1.81,.38-.17,.77-.29,1.17-.36,.4-.07,.77-.1,1.12-.1Zm-.49,3.02c-.38,0-.79,.04-1.22,.1-.43,.07-.77,.17-1.01,.29,0,.07,0,.17-.01,.31,0,.14-.01,.26-.01,.36,0,.62,.04,1.21,.13,1.77,.09,.56,.23,1.04,.44,1.46s.48,.74,.83,.98c.35,.23,.78,.35,1.3,.35,.43,0,.8-.09,1.1-.27,.3-.18,.55-.41,.75-.69s.35-.59,.44-.92c.09-.34,.14-.66,.14-.98,0-.88-.22-1.56-.66-2.04-.44-.48-1.18-.71-2.22-.71Z"/>
        <path class="cls-1" d="M44.07,40.13c.31,.57,.67,1.28,1.08,2.12s.83,1.75,1.28,2.73c.44,.98,.88,1.98,1.32,3,.43,1.02,.84,1.98,1.23,2.89,.38-.9,.79-1.86,1.23-2.89,.43-1.02,.87-2.02,1.32-3,.44-.98,.87-1.89,1.28-2.73,.41-.84,.77-1.55,1.08-2.12h3.69c.17,1.2,.33,2.54,.48,4.02,.15,1.48,.28,3.02,.39,4.63,.11,1.6,.22,3.21,.31,4.82,.09,1.61,.18,3.13,.25,4.55h-3.95c-.05-1.75-.12-3.66-.21-5.72-.09-2.06-.22-4.14-.39-6.24-.31,.73-.66,1.53-1.04,2.42-.38,.88-.76,1.77-1.13,2.65-.37,.88-.73,1.73-1.08,2.54-.35,.81-.64,1.5-.89,2.07h-2.83c-.24-.57-.54-1.26-.89-2.07s-.71-1.65-1.08-2.54c-.37-.88-.75-1.77-1.13-2.65s-.73-1.69-1.04-2.42c-.17,2.1-.3,4.18-.39,6.24-.09,2.06-.16,3.97-.21,5.72h-3.95c.07-1.42,.15-2.94,.25-4.55,.09-1.61,.2-3.22,.31-4.82,.11-1.6,.24-3.15,.39-4.63,.15-1.48,.31-2.82,.48-4.02h3.87Z"/>
      </g>
    </g>
  </g>
</svg>