<svg width="354" height="410" viewBox="0 0 354 410" fill="none" xmlns="http://www.w3.org/2000/svg">
<path d="M345.314 48.1191C345.314 45.8318 346.222 43.6383 347.84 42.0209C349.457 40.4036 351.651 39.495 353.938 39.495V30.6767C351.732 30.5516 349.657 29.5871 348.139 27.9809C346.621 26.3746 345.775 24.2485 345.775 22.0387C345.775 19.8288 346.621 17.7027 348.139 16.0965C349.657 14.4903 351.732 13.5257 353.938 13.4007V0.0900879H342.651C342.526 2.29641 341.562 4.37125 339.955 5.889C338.349 7.40675 336.223 8.25235 334.013 8.25235C331.803 8.25235 329.677 7.40675 328.071 5.889C326.465 4.37125 325.5 2.29641 325.375 0.0900879H316.584C316.459 2.29641 315.495 4.37125 313.888 5.889C312.282 7.40675 310.156 8.25235 307.946 8.25235C305.736 8.25235 303.61 7.40675 302.004 5.889C300.397 4.37125 299.433 2.29641 299.308 0.0900879H290.517C290.392 2.29641 289.427 4.37125 287.821 5.889C286.215 7.40675 284.089 8.25235 281.879 8.25235C279.669 8.25235 277.543 7.40675 275.936 5.889C274.33 4.37125 273.366 2.29641 273.241 0.0900879H264.589C264.463 2.29641 263.499 4.37125 261.893 5.889C260.286 7.40675 258.16 8.25235 255.95 8.25235C253.74 8.25235 251.614 7.40675 250.008 5.889C248.402 4.37125 247.437 2.29641 247.312 0.0900879H238.521C238.396 2.29641 237.432 4.37125 235.825 5.889C234.219 7.40675 232.093 8.25235 229.883 8.25235C227.673 8.25235 225.547 7.40675 223.941 5.889C222.335 4.37125 221.37 2.29641 221.245 0.0900879H212.454C212.329 2.29641 211.364 4.37125 209.758 5.889C208.152 7.40675 206.026 8.25235 203.816 8.25235C201.606 8.25235 199.48 7.40675 197.874 5.889C196.267 4.37125 195.303 2.29641 195.178 0.0900879H186.359C186.359 2.37735 185.451 4.57094 183.833 6.18828C182.216 7.80562 180.022 8.71424 177.735 8.71424C175.448 8.71424 173.254 7.80562 171.637 6.18828C170.019 4.57094 169.111 2.37735 169.111 0.0900879H160.153C160.153 2.37735 159.245 4.57094 157.627 6.18828C156.01 7.80562 153.816 8.71424 151.529 8.71424C149.242 8.71424 147.048 7.80562 145.431 6.18828C143.813 4.57094 142.905 2.37735 142.905 0.0900879H134.086C134.086 2.37735 133.178 4.57094 131.56 6.18828C129.943 7.80562 127.749 8.71424 125.462 8.71424C123.175 8.71424 120.981 7.80562 119.364 6.18828C117.746 4.57094 116.838 2.37735 116.838 0.0900879H108.019C108.019 2.37735 107.11 4.57094 105.493 6.18828C103.876 7.80562 101.682 8.71424 99.3947 8.71424C97.1074 8.71424 94.9137 7.80562 93.2963 6.18828C91.679 4.57094 90.7703 2.37735 90.7703 0.0900879H81.9519C81.9519 2.37735 81.0432 4.57094 79.4258 6.18828C77.8085 7.80562 75.6148 8.71424 73.3275 8.71424C71.0402 8.71424 68.8465 7.80562 67.2292 6.18828C65.6118 4.57094 64.7031 2.37735 64.7031 0.0900879H55.8847C55.8847 2.37735 54.976 4.57094 53.3587 6.18828C51.7413 7.80562 49.5477 8.71424 47.2603 8.71424C44.973 8.71424 42.7794 7.80562 41.162 6.18828C39.5446 4.57094 38.636 2.37735 38.636 0.0900879H29.8175C29.6924 2.29641 28.7279 4.37125 27.1216 5.889C25.5154 7.40675 23.3892 8.25235 21.1793 8.25235C18.9694 8.25235 16.8432 7.40675 15.237 5.889C13.6307 4.37125 12.6661 2.29641 12.5411 0.0900879H0.0621033V11.9032C2.26848 12.0283 4.34336 12.9929 5.86115 14.5991C7.37893 16.2053 8.22456 18.3314 8.22456 20.5412C8.22456 22.7511 7.37893 24.8772 5.86115 26.4834C4.34336 28.0896 2.26848 29.0542 0.0621033 29.1793V37.9975C2.34942 37.9975 4.54306 38.9061 6.16044 40.5235C7.77782 42.1408 8.68646 44.3344 8.68646 46.6217C8.68646 48.9089 7.77782 51.1025 6.16044 52.7199C4.54306 54.3372 2.34942 55.2458 0.0621033 55.2458V64.1195C2.34942 64.1195 4.54306 65.0281 6.16044 66.6455C7.77782 68.2628 8.68646 70.4564 8.68646 72.7437C8.68646 75.031 7.77782 77.2245 6.16044 78.8419C4.54306 80.4592 2.34942 81.3678 0.0621033 81.3678V90.1861C2.34942 90.1861 4.54306 91.0947 6.16044 92.7121C7.77782 94.3294 8.68646 96.523 8.68646 98.8102C8.68646 101.098 7.77782 103.291 6.16044 104.908C4.54306 106.526 2.34942 107.434 0.0621033 107.434V116.253C2.34942 116.253 4.54306 117.161 6.16044 118.779C7.77782 120.396 8.68646 122.59 8.68646 124.877C8.68646 127.164 7.77782 129.358 6.16044 130.975C4.54306 132.592 2.34942 133.501 0.0621033 133.501V142.319C2.34942 142.319 4.54306 143.228 6.16044 144.845C7.77782 146.463 8.68646 148.656 8.68646 150.943C8.68646 153.231 7.77782 155.424 6.16044 157.042C4.54306 158.659 2.34942 159.568 0.0621033 159.568V168.386C2.34942 168.386 4.54306 169.294 6.16044 170.912C7.77782 172.529 8.68646 174.723 8.68646 177.01C8.68646 179.297 7.77782 181.491 6.16044 183.108C4.54306 184.725 2.34942 185.634 0.0621033 185.634V194.452C2.26848 194.577 4.34336 195.542 5.86115 197.148C7.37893 198.754 8.22456 200.88 8.22456 203.09C8.22456 205.3 7.37893 207.426 5.86115 209.033C4.34336 210.639 2.26848 211.603 0.0621033 211.728V220.519C2.26848 220.644 4.34336 221.609 5.86115 223.215C7.37893 224.821 8.22456 226.947 8.22456 229.157C8.22456 231.367 7.37893 233.493 5.86115 235.099C4.34336 236.705 2.26848 237.67 0.0621033 237.795V246.585C2.26848 246.711 4.34336 247.675 5.86115 249.281C7.37893 250.888 8.22456 253.014 8.22456 255.223C8.22456 257.433 7.37893 259.559 5.86115 261.166C4.34336 262.772 2.26848 263.736 0.0621033 263.861V272.652C2.26848 272.777 4.34336 273.742 5.86115 275.348C7.37893 276.954 8.22456 279.08 8.22456 281.29C8.22456 283.5 7.37893 285.626 5.86115 287.232C4.34336 288.838 2.26848 289.803 0.0621033 289.928V298.719C2.26848 298.844 4.34336 299.808 5.86115 301.414C7.37893 303.021 8.22456 305.147 8.22456 307.357C8.22456 309.566 7.37893 311.693 5.86115 313.299C4.34336 314.905 2.26848 315.87 0.0621033 315.995V324.785C2.26848 324.91 4.34336 325.875 5.86115 327.481C7.37893 329.087 8.22456 331.213 8.22456 333.423C8.22456 335.633 7.37893 337.759 5.86115 339.365C4.34336 340.972 2.26848 341.936 0.0621033 342.061V350.879C2.34942 350.879 4.54306 351.788 6.16044 353.405C7.77782 355.023 8.68646 357.216 8.68646 359.504C8.68646 361.791 7.77782 363.984 6.16044 365.602C4.54306 367.219 2.34942 368.128 0.0621033 368.128V376.946C2.34942 376.946 4.54306 377.855 6.16044 379.472C7.77782 381.089 8.68646 383.283 8.68646 385.57C8.68646 387.857 7.77782 390.051 6.16044 391.668C4.54306 393.286 2.34942 394.194 0.0621033 394.194V409.03H12.5411C12.6661 406.824 13.6307 404.749 15.237 403.231C16.8432 401.713 18.9694 400.868 21.1793 400.868C23.3892 400.868 25.5154 401.713 27.1216 403.231C28.7279 404.749 29.6924 406.824 29.8175 409.03H38.636C38.636 406.743 39.5446 404.549 41.162 402.932C42.7794 401.314 44.973 400.406 47.2603 400.406C49.5477 400.406 51.7413 401.314 53.3587 402.932C54.976 404.549 55.8847 406.743 55.8847 409.03H64.7031C64.7031 406.743 65.6118 404.549 67.2292 402.932C68.8465 401.314 71.0402 400.406 73.3275 400.406C75.6148 400.406 77.8085 401.314 79.4258 402.932C81.0432 404.549 81.9519 406.743 81.9519 409.03H90.7703C90.7703 406.743 91.679 404.549 93.2963 402.932C94.9137 401.314 97.1074 400.406 99.3947 400.406C101.682 400.406 103.876 401.314 105.493 402.932C107.11 404.549 108.019 406.743 108.019 409.03H116.838C116.838 406.743 117.746 404.549 119.364 402.932C120.981 401.314 123.175 400.406 125.462 400.406C127.749 400.406 129.943 401.314 131.56 402.932C133.178 404.549 134.086 406.743 134.086 409.03H142.905C142.905 406.743 143.813 404.549 145.431 402.932C147.048 401.314 149.242 400.406 151.529 400.406C153.816 400.406 156.01 401.314 157.627 402.932C159.245 404.549 160.153 406.743 160.153 409.03H168.972C168.972 406.743 169.881 404.549 171.498 402.932C173.115 401.314 175.309 400.406 177.596 400.406C179.884 400.406 182.077 401.314 183.695 402.932C185.312 404.549 186.221 406.743 186.221 409.03H195.039C195.164 406.824 196.129 404.749 197.735 403.231C199.341 401.713 201.467 400.868 203.677 400.868C205.887 400.868 208.013 401.713 209.62 403.231C211.226 404.749 212.19 406.824 212.315 409.03H221.106C221.231 406.824 222.196 404.749 223.802 403.231C225.408 401.713 227.535 400.868 229.744 400.868C231.954 400.868 234.081 401.713 235.687 403.231C237.293 404.749 238.258 406.824 238.383 409.03H247.173C247.298 406.824 248.263 404.749 249.869 403.231C251.476 401.713 253.602 400.868 255.812 400.868C258.022 400.868 260.148 401.713 261.754 403.231C263.36 404.749 264.325 406.824 264.45 409.03H273.241C273.366 406.824 274.33 404.749 275.936 403.231C277.543 401.713 279.669 400.868 281.879 400.868C284.089 400.868 286.215 401.713 287.821 403.231C289.427 404.749 290.392 406.824 290.517 409.03H299.308C299.433 406.824 300.397 404.749 302.004 403.231C303.61 401.713 305.736 400.868 307.946 400.868C310.156 400.868 312.282 401.713 313.888 403.231C315.495 404.749 316.459 406.824 316.584 409.03H325.375C325.5 406.824 326.465 404.749 328.071 403.231C329.677 401.713 331.803 400.868 334.013 400.868C336.223 400.868 338.349 401.713 339.955 403.231C341.562 404.749 342.526 406.824 342.651 409.03H353.938V395.692C351.651 395.692 349.457 394.783 347.84 393.166C346.222 391.548 345.314 389.355 345.314 387.068C345.314 384.78 346.222 382.587 347.84 380.969C349.457 379.352 351.651 378.443 353.938 378.443V369.625C351.651 369.625 349.457 368.717 347.84 367.099C346.222 365.482 345.314 363.288 345.314 361.001C345.314 358.714 346.222 356.52 347.84 354.903C349.457 353.285 351.651 352.377 353.938 352.377V343.559C351.651 343.559 349.457 342.65 347.84 341.033C346.222 339.415 345.314 337.222 345.314 334.934C345.314 332.647 346.222 330.454 347.84 328.836C349.457 327.219 351.651 326.31 353.938 326.31V317.492C351.732 317.367 349.657 316.402 348.139 314.796C346.621 313.19 345.775 311.064 345.775 308.854C345.775 306.644 346.621 304.518 348.139 302.912C349.657 301.306 351.732 300.341 353.938 300.216V291.509C351.732 291.384 349.657 290.419 348.139 288.813C346.621 287.207 345.775 285.08 345.775 282.871C345.775 280.661 346.621 278.535 348.139 276.928C349.657 275.322 351.732 274.358 353.938 274.233V265.442C351.732 265.317 349.657 264.352 348.139 262.746C346.621 261.14 345.775 259.014 345.775 256.804C345.775 254.594 346.621 252.468 348.139 250.862C349.657 249.256 351.732 248.291 353.938 248.166V239.376C351.732 239.25 349.657 238.286 348.139 236.68C346.621 235.074 345.775 232.947 345.775 230.738C345.775 228.528 346.621 226.402 348.139 224.795C349.657 223.189 351.732 222.225 353.938 222.1V213.309C351.732 213.184 349.657 212.219 348.139 210.613C346.621 209.007 345.775 206.881 345.775 204.671C345.775 202.461 346.621 200.335 348.139 198.729C349.657 197.123 351.732 196.158 353.938 196.033V187.215C352.805 187.215 351.684 186.992 350.638 186.558C349.591 186.125 348.64 185.49 347.84 184.689C347.039 183.888 346.403 182.937 345.97 181.891C345.537 180.845 345.314 179.723 345.314 178.591C345.314 177.458 345.537 176.337 345.97 175.29C346.403 174.244 347.039 173.293 347.84 172.492C348.64 171.692 349.591 171.056 350.638 170.623C351.684 170.189 352.805 169.966 353.938 169.966V161.01C351.651 161.01 349.457 160.101 347.84 158.484C346.222 156.866 345.314 154.673 345.314 152.385C345.314 150.098 346.222 147.904 347.84 146.287C349.457 144.67 351.651 143.761 353.938 143.761V134.943C351.651 134.943 349.457 134.034 347.84 132.417C346.222 130.8 345.314 128.606 345.314 126.319C345.314 124.032 346.222 121.838 347.84 120.221C349.457 118.603 351.651 117.695 353.938 117.695V108.876C352.805 108.876 351.684 108.653 350.638 108.22C349.591 107.786 348.64 107.151 347.84 106.35C347.039 105.55 346.403 104.599 345.97 103.553C345.537 102.506 345.314 101.385 345.314 100.252C345.314 99.1197 345.537 97.9982 345.97 96.9519C346.403 95.9056 347.039 94.9548 347.84 94.154C348.64 93.3532 349.591 92.718 350.638 92.2846C351.684 91.8512 352.805 91.6281 353.938 91.6281V82.8098C351.651 82.8098 349.457 81.9012 347.84 80.2839C346.222 78.6665 345.314 76.4729 345.314 74.1857C345.314 71.8984 346.222 69.7048 347.84 68.0875C349.457 66.4701 351.651 65.5615 353.938 65.5615V56.7433C351.651 56.7433 349.457 55.8346 347.84 54.2173C346.222 52.6 345.314 50.4064 345.314 48.1191Z" fill="white"/>
</svg>
