<svg width="30" height="30" viewBox="0 0 30 30" fill="none" xmlns="http://www.w3.org/2000/svg">
<path d="M11.4286 5.71429H17.1429V2.85714H11.4286V5.71429ZM22.8571 30C20.8809 30 19.1967 29.3033 17.8043 27.91C16.4119 26.5167 15.7152 24.8324 15.7143 22.8571C15.7133 20.8819 16.41 19.1976 17.8043 17.8043C19.1986 16.411 20.8829 15.7143 22.8571 15.7143C24.8314 15.7143 26.5162 16.411 27.9114 17.8043C29.3067 19.1976 30.0029 20.8819 30 22.8571C29.9971 24.8324 29.3005 26.5171 27.91 27.9114C26.5195 29.3057 24.8352 30.0019 22.8571 30ZM2.85714 27.1429C2.07143 27.1429 1.39905 26.8633 0.84 26.3043C0.280952 25.7452 0.000952381 25.0724 0 24.2857V8.57143C0 7.78571 0.28 7.11333 0.84 6.55429C1.4 5.99524 2.07238 5.71524 2.85714 5.71429H8.57143V2.85714C8.57143 2.07143 8.85143 1.39905 9.41143 0.84C9.97143 0.280952 10.6438 0.000952381 11.4286 0H17.1429C17.9286 0 18.6014 0.28 19.1614 0.84C19.7214 1.4 20.0009 2.07238 20 2.85714V5.71429H25.7143C26.5 5.71429 27.1729 5.99429 27.7329 6.55429C28.2929 7.11428 28.5724 7.78667 28.5714 8.57143V14.6786C27.7381 14.0833 26.8333 13.631 25.8571 13.3214C24.8809 13.0119 23.8809 12.8571 22.8571 12.8571C20.0952 12.8571 17.7381 13.8333 15.7857 15.7857C13.8333 17.7381 12.8571 20.0952 12.8571 22.8571C12.8571 23.5952 12.9348 24.3276 13.09 25.0543C13.2452 25.781 13.489 26.4771 13.8214 27.1429H2.85714ZM22.8571 27.1429C23.0476 27.1429 23.2143 27.0714 23.3571 26.9286C23.5 26.7857 23.5714 26.619 23.5714 26.4286C23.5714 26.2381 23.5 26.0714 23.3571 25.9286C23.2143 25.7857 23.0476 25.7143 22.8571 25.7143C22.6667 25.7143 22.5 25.7857 22.3571 25.9286C22.2143 26.0714 22.1429 26.2381 22.1429 26.4286C22.1429 26.619 22.2143 26.7857 22.3571 26.9286C22.5 27.0714 22.6667 27.1429 22.8571 27.1429ZM22.1429 24.2857H23.5714V18.5714H22.1429V24.2857Z" fill="#2A56A4"/>
</svg>
