<?xml version="1.0" encoding="UTF-8"?>
<svg id="Ebene_2" data-name="Ebene 2" xmlns="http://www.w3.org/2000/svg" viewBox="0 0 80 80">
  <defs>
    <style>
      .cls-1 {
        fill: #fff;
      }

      .cls-2 {
        fill: none;
        stroke-linecap: round;
        stroke-linejoin: round;
        stroke-width: 2px;
      }

      .cls-2, .cls-3 {
        stroke: #fff;
      }

      .cls-4, .cls-3 {
        fill: #041e0a;
      }

      .cls-3 {
        stroke-miterlimit: 10;
      }
    </style>
  </defs>
  <g id="Layer_4" data-name="Layer 4">
    <g id="Layer_2" data-name="Layer 2">
      <circle class="cls-4" cx="40" cy="40" r="40"/>
      <g>
        <path class="cls-3" d="M61.98,15.23c-3.12,3.86-6.25,7.73-9.37,11.59-2.67-2.04-5.34-4.07-8-6.11-3.97,4.79-7.93,9.58-11.9,14.37-2.67-1.56-5.34-3.11-8-4.67-3.69,5.23-7.37,10.47-11.06,15.7,.03,5.64,.05,11.27,.08,16.91,16.04,.05,32.08,.1,48.11,.15,.05-15.98,.1-31.96,.14-47.95Z"/>
        <g>
          <path class="cls-2" d="M13.87,45.15c3.61-4.91,7.22-9.82,10.82-14.73,2.67,1.56,5.34,3.11,8,4.67,3.97-4.79,7.93-9.58,11.9-14.37,2.67,2.04,5.34,4.07,8,6.11,2.17-2.69,4.35-5.38,6.52-8.07"/>
          <polygon class="cls-1" points="62.09 23.03 63.64 13.18 54.33 16.76 62.09 23.03"/>
        </g>
      </g>
    </g>
    <path class="cls-1" d="M13.64,63.18c2.98-12.95,5.38-15.85,7.09-15.84,.81,0,1.67,.79,3.4,2.36,3.46,3.15,4.25,5.45,5.47,5.28,1.49-.22,1.59-3.84,2.81-3.89,1.22-.05,1.73,3.59,2.96,3.61,1.09,.02,1.91-2.86,3.84-8.33,2.44-6.89,3.26-8.25,4.39-8.37,1.15-.12,2.29,1.08,4.33,3.23,2.26,2.38,2.41,3.43,3.25,3.47,1.71,.08,3.08-4.15,5.17-9.3,1.17-2.88,2.99-7.11,5.63-12.22V63.18H13.64Z"/>
  </g>
</svg>