<?xml version="1.0" encoding="UTF-8"?>
<svg id="Ebene_2" data-name="Ebene 2" xmlns="http://www.w3.org/2000/svg" viewBox="0 0 80 80">
  <defs>
    <style>
      .cls-1, .cls-2, .cls-3 {
        fill: #9eabf1;
      }

      .cls-4 {
        fill: #fff;
      }

      .cls-4, .cls-2 {
        stroke-linecap: round;
        stroke-linejoin: round;
      }

      .cls-4, .cls-3 {
        stroke: #fff;
      }

      .cls-2 {
        stroke: #9eabf1;
        stroke-width: 1.08px;
      }

      .cls-3 {
        stroke-miterlimit: 10;
      }
    </style>
  </defs>
  <g id="Layer_4" data-name="Layer 4">
    <g id="Layer_2" data-name="Layer 2">
      <circle class="cls-1" cx="40" cy="40" r="40"/>
    </g>
    <g>
      <path class="cls-4" d="M64,42.59c-.89-3.63-2.03-6.89-3.23-9.75-.11,0,1.44-.36,2.26-.55-.75-1.42-1.51-2.84-2.26-4.26-13.25-.23-26.5-.46-39.75-.69-1.18,1.6-2.37,3.2-3.55,4.8,.67,.15,1.36,.31,2.09,.46-1.07,3.13-2.05,6.7-2.73,10.66-1.1,6.38-1.16,12.07-.81,16.75,4.12,1.92,11.86,4.91,22.14,5.35,13.37,.57,23.39-3.5,27.63-5.49,.17-4.77-.16-10.68-1.78-17.3Z"/>
      <g>
        <path class="cls-3" d="M21.58,26.33c.29,.21,.89-.04,1.13-.14,.93-.38,1.43-1.04,1.78-1.51,.49-.67,.62-1.14,.65-1.51,.02-.25,.04-.57-.16-.69-.33-.19-1.05,.28-1.45,.55-.31,.2-1.98,1.33-2.1,2.75-.02,.24,0,.44,.16,.55Z"/>
        <path class="cls-3" d="M26.79,24.15c.15,.3,.81,.31,1.08,.32,1.04,.02,1.83-.37,2.39-.65,.8-.4,1.16-.78,1.39-1.09,.15-.21,.35-.49,.22-.67-.19-.3-1.09-.15-1.59-.08-.38,.06-2.48,.42-3.34,1.63-.15,.21-.23,.4-.15,.55Z"/>
        <path class="cls-3" d="M23.8,25.7c.05,.32,.67,.49,.93,.56,.99,.27,1.88,.09,2.51-.05,.9-.19,1.38-.47,1.69-.71,.21-.17,.5-.39,.44-.59-.09-.33-.99-.41-1.5-.45-.39-.03-2.51-.2-3.75,.76-.21,.16-.35,.32-.33,.49Z"/>
        <path class="cls-3" d="M28.3,25.16c-.04,.32,.52,.61,.76,.73,.89,.45,1.81,.44,2.46,.43,.93-.02,1.46-.19,1.84-.37,.25-.12,.58-.28,.59-.49,0-.34-.86-.59-1.34-.73-.37-.11-2.4-.67-3.85,.02-.25,.12-.43,.25-.45,.42Z"/>
        <path class="cls-3" d="M25.11,22.04c.05,.32,.68,.48,.94,.55,.99,.25,1.88,.05,2.51-.1,.89-.21,1.36-.49,1.68-.74,.21-.17,.49-.4,.43-.6-.1-.33-1-.39-1.51-.43-.39-.03-2.52-.15-3.73,.82-.21,.17-.34,.33-.32,.5Z"/>
        <path class="cls-3" d="M31.53,23.23c-.19,.28,.18,.74,.34,.93,.59,.72,1.43,1.04,2.03,1.25,.85,.31,1.43,.34,1.86,.31,.29-.02,.67-.05,.77-.24,.17-.31-.49-.84-.87-1.13-.28-.23-1.86-1.45-3.52-1.33-.28,.02-.51,.08-.61,.22Z"/>
        <path class="cls-3" d="M36.39,26.45c.23,.25,.87,.13,1.14,.07,1.01-.2,1.66-.75,2.12-1.15,.65-.56,.89-1,1.02-1.36,.08-.24,.19-.55,.02-.7-.28-.24-1.1,.08-1.56,.27-.35,.14-2.27,.94-2.75,2.29-.08,.23-.1,.43,.02,.57Z"/>
        <path class="cls-3" d="M42.03,26.58c.34,.15,.86-.19,1.07-.33,.82-.54,1.15-1.27,1.37-1.79,.32-.74,.33-1.23,.27-1.59-.04-.25-.09-.57-.32-.64-.37-.13-.96,.46-1.29,.79-.25,.25-1.61,1.65-1.39,3.05,.04,.24,.12,.43,.29,.51Z"/>
        <path class="cls-3" d="M44.94,25.8c.16,.29,.82,.29,1.09,.29,1.04,0,1.81-.42,2.37-.72,.78-.42,1.13-.81,1.35-1.13,.14-.22,.33-.5,.2-.68-.21-.29-1.09-.13-1.59-.03-.38,.07-2.46,.48-3.28,1.72-.14,.21-.22,.4-.13,.56Z"/>
        <path class="cls-3" d="M52.2,25.2c.2,.28,.85,.21,1.12,.18,1.03-.1,1.75-.58,2.26-.93,.72-.49,1.02-.91,1.19-1.25,.11-.23,.26-.53,.11-.69-.24-.27-1.1-.02-1.59,.11-.37,.11-2.38,.71-3.04,2.01-.11,.22-.16,.42-.06,.56Z"/>
        <path class="cls-3" d="M54,23.29c.25-.25-.03-.75-.14-.96-.43-.8-1.19-1.23-1.74-1.54-.78-.43-1.33-.55-1.76-.58-.29-.02-.67-.05-.81,.12-.23,.28,.31,.9,.62,1.25,.23,.27,1.53,1.71,3.19,1.84,.28,.02,.52,0,.65-.13Z"/>
        <path class="cls-3" d="M51.88,26.42c.33-.17,.26-.72,.23-.95-.11-.87-.67-1.49-1.07-1.93-.57-.62-1.06-.88-1.46-1.03-.27-.1-.62-.23-.82-.1-.32,.2-.04,.93,.12,1.35,.12,.31,.81,2.03,2.33,2.61,.26,.1,.49,.14,.66,.06Z"/>
        <path class="cls-3" d="M46.81,22.05c.25,.25,.88,.1,1.14,.04,1-.23,1.63-.8,2.07-1.21,.62-.58,.85-1.03,.96-1.39,.07-.24,.16-.55-.01-.7-.29-.24-1.09,.12-1.55,.32-.35,.15-2.23,1.01-2.65,2.38-.07,.24-.09,.44,.04,.56Z"/>
        <path class="cls-3" d="M35.1,24.46c.26,.24,.88,.07,1.14,0,.99-.27,1.58-.86,2-1.29,.59-.6,.8-1.06,.88-1.42,.06-.24,.14-.56-.05-.7-.3-.22-1.08,.16-1.53,.38-.34,.16-2.17,1.09-2.52,2.48-.06,.24-.06,.44,.07,.56Z"/>
        <path class="cls-3" d="M42.32,24.58c.3-.2,.14-.74,.08-.97-.25-.85-.9-1.4-1.37-1.79-.67-.55-1.19-.75-1.6-.85-.28-.07-.65-.16-.82,0-.28,.24,.11,.93,.33,1.32,.17,.3,1.12,1.92,2.73,2.32,.27,.07,.51,.08,.67-.02Z"/>
        <path class="cls-3" d="M36.21,23.17c.25-.24-.02-.75-.13-.96-.42-.8-1.18-1.24-1.72-1.55-.77-.44-1.33-.56-1.76-.59-.29-.02-.67-.05-.81,.12-.23,.28,.3,.9,.6,1.25,.23,.27,1.51,1.72,3.17,1.87,.28,.02,.52,0,.65-.12Z"/>
        <path class="cls-3" d="M27.48,20.42c.16,.29,.82,.29,1.09,.3,1.04,0,1.82-.4,2.37-.7,.78-.42,1.14-.8,1.36-1.12,.14-.22,.33-.5,.21-.68-.2-.29-1.09-.13-1.59-.04-.38,.07-2.46,.47-3.3,1.69-.14,.21-.22,.4-.14,.55Z"/>
        <path class="cls-3" d="M41.73,18.97c.17,.29,.82,.28,1.1,.27,1.04-.02,1.81-.45,2.35-.75,.77-.44,1.12-.83,1.32-1.15,.14-.22,.32-.5,.19-.68-.21-.29-1.09-.11-1.59,0-.38,.08-2.45,.52-3.25,1.77-.14,.21-.21,.41-.12,.56Z"/>
        <path class="cls-3" d="M46.4,18.61c-.02,.32,.56,.59,.8,.7,.91,.42,1.83,.37,2.48,.33,.92-.05,1.45-.25,1.82-.44,.25-.13,.57-.3,.56-.51-.02-.34-.89-.55-1.38-.68-.37-.09-2.43-.58-3.85,.17-.24,.13-.42,.27-.43,.43Z"/>
        <path class="cls-3" d="M55.99,23.31c.33-.15,.29-.71,.27-.94-.07-.88-.6-1.51-.98-1.97-.54-.64-1.02-.91-1.41-1.07-.26-.11-.61-.25-.81-.13-.33,.19-.08,.93,.06,1.35,.11,.32,.71,2.06,2.21,2.68,.26,.11,.49,.16,.66,.08Z"/>
        <path class="cls-3" d="M53.89,26.14c.06,.32,.7,.47,.96,.53,1,.23,1.88,.02,2.51-.15,.89-.23,1.35-.52,1.65-.78,.21-.18,.47-.4,.41-.61-.11-.33-1.01-.37-1.52-.4-.39-.02-2.52-.1-3.71,.9-.2,.17-.34,.34-.3,.5Z"/>
        <path class="cls-3" d="M47.72,26.81c.36-.09,.45-.65,.49-.88,.14-.87-.23-1.59-.5-2.09-.38-.72-.78-1.07-1.13-1.29-.23-.15-.54-.35-.76-.26-.37,.13-.3,.9-.26,1.33,.03,.33,.22,2.14,1.54,3,.23,.15,.44,.24,.63,.19Z"/>
        <path class="cls-3" d="M39.04,19.9c-.1,.31,.4,.67,.61,.82,.79,.57,1.7,.68,2.35,.76,.92,.11,1.48,.01,1.89-.12,.27-.09,.63-.2,.67-.41,.07-.33-.73-.7-1.19-.9-.34-.16-2.24-.99-3.81-.5-.27,.08-.47,.19-.52,.35Z"/>
        <path class="cls-3" d="M46.9,21.25c.27-.23,.05-.75-.05-.97-.35-.83-1.07-1.31-1.59-1.66-.73-.48-1.28-.64-1.7-.7-.29-.04-.66-.1-.82,.07-.25,.26,.23,.92,.5,1.28,.21,.28,1.36,1.81,3,2.05,.28,.04,.52,.04,.66-.08Z"/>
        <path class="cls-3" d="M39.43,19.32c.29,.21,.89-.04,1.13-.14,.93-.38,1.43-1.04,1.78-1.51,.49-.67,.62-1.14,.65-1.51,.02-.25,.04-.57-.16-.69-.33-.19-1.05,.28-1.45,.55-.31,.2-1.98,1.33-2.1,2.75-.02,.24,0,.44,.16,.55Z"/>
        <path class="cls-3" d="M33.52,20.66c.13,.3,.79,.35,1.06,.37,1.03,.07,1.85-.28,2.43-.54,.82-.36,1.21-.72,1.46-1.02,.16-.2,.38-.47,.27-.66-.17-.3-1.07-.21-1.58-.15-.39,.04-2.5,.3-3.45,1.46-.16,.2-.26,.38-.19,.54Z"/>
        <path class="cls-3" d="M38.13,19.99c.22-.26-.09-.75-.22-.95-.5-.77-1.3-1.16-1.87-1.42-.81-.38-1.38-.46-1.81-.46-.29,0-.67,0-.8,.18-.2,.29,.39,.87,.73,1.2,.25,.25,1.67,1.61,3.34,1.63,.29,0,.52-.03,.64-.17Z"/>
        <path class="cls-3" d="M40.47,18.4c.17-.29-.24-.72-.41-.91-.65-.69-1.51-.95-2.13-1.13-.88-.26-1.45-.25-1.88-.2-.29,.04-.66,.09-.75,.29-.14,.32,.56,.8,.96,1.08,.3,.21,1.97,1.34,3.62,1.12,.28-.04,.5-.11,.59-.26Z"/>
      </g>
      <path class="cls-2" d="M62.01,32.18c-2.22,.56-4.55,1.06-6.98,1.47-14.28,2.4-27.05,.9-37.02-1.51,.98-1.35,1.96-2.69,2.95-4.04,13.34,.21,26.67,.41,40.01,.62,.35,1.15,.7,2.3,1.05,3.45Z"/>
    </g>
  </g>
</svg>