<?xml version="1.0" encoding="UTF-8"?>
<svg id="Ebene_2" data-name="Ebene 2" xmlns="http://www.w3.org/2000/svg" viewBox="0 0 80 80">
  <defs>
    <style>
      .cls-1, .cls-2 {
        fill: #39040a;
      }

      .cls-3 {
        fill: #27e34f;
      }

      .cls-3, .cls-4, .cls-5, .cls-6 {
        stroke-linecap: round;
        stroke-linejoin: round;
      }

      .cls-3, .cls-7, .cls-6, .cls-2 {
        stroke: #39040a;
      }

      .cls-4, .cls-5 {
        stroke: #fff;
      }

      .cls-4, .cls-6 {
        fill: none;
      }

      .cls-5, .cls-7 {
        fill: #fff;
      }

      .cls-7, .cls-2 {
        stroke-miterlimit: 10;
      }
    </style>
  </defs>
  <g id="Layer_4" data-name="Layer 4">
    <g id="Layer_2" data-name="Layer 2">
      <circle class="cls-1" cx="40" cy="40" r="40"/>
    </g>
    <g>
      <path class="cls-5" d="M53.33,65.28c-9.68,.14-19.35,.27-29.03,.41-1.98-16.61-3.97-33.22-5.95-49.83,13.76,0,27.52-.02,41.28-.02-2.1,16.48-4.2,32.96-6.31,49.45Z"/>
      <line class="cls-4" x1="15.74" y1="15.69" x2="62.39" y2="15.69"/>
      <g>
        <path class="cls-7" d="M35.91,48.77c.84-1.21,2.21-1.52,2.75-1.64,4.49-1,6.45,3.86,11.74,3.79,2.44-.03,4.96-1.1,6.16-1.62,2.83-1.21,3.97-2.41,5.52-1.84,.88,.32,2.34,1.38,2.79,2.97,.01,.04,.02,.07,.02,.09,1.09,4.1-1.49,7.69-2.03,8.44-1.11,1.54-2.3,2.34-3.6,3.2-2.71,1.8-5.18,2.37-6.08,2.54-1.13,.22-4.79,.81-9.08-.87-1.72-.67-3.98-1.56-5.99-4.01-.74-.9-2.52-3.33-2.87-6.82-.12-1.27-.27-2.93,.65-4.25Z"/>
        <path class="cls-2" d="M44.65,49.24c.51-.17,.75,.29,2.01,.85,.43,.19,1.9,.79,3.74,.84,.91,.03,1.62-.09,2.1-.17,.42-.07,1.33-.23,2.44-.65,1.25-.47,1.48-.86,1.79-.69,.6,.32,.56,2.13-.05,3.48-.66,1.47-1.88,2.15-2.7,2.61-.63,.35-2.58,1.41-5.14,.97-.84-.14-2.61-.6-4.04-2.13-.5-.53-1.11-1.21-1.25-2.26-.15-1.14,.29-2.58,1.09-2.84Z"/>
      </g>
      <path class="cls-6" d="M20.31,28.77c1.62-.72,3.77-1.45,6.36-1.78,3.45-.43,6.09,.06,6.74,.19,2.55,.51,2.87,1.11,5.67,2.06,1.03,.35,5.33,1.73,10.81,1.5,1.83-.08,4.41-.37,7.45-1.31"/>
      <ellipse class="cls-3" cx="28.17" cy="35.23" rx=".51" ry=".59"/>
      <ellipse class="cls-3" cx="27.14" cy="51.07" rx=".51" ry=".59"/>
      <ellipse class="cls-3" cx="36.13" cy="42.47" rx=".51" ry=".59"/>
      <ellipse class="cls-3" cx="50.65" cy="37.41" rx=".51" ry=".59"/>
      <ellipse class="cls-3" cx="41.03" cy="36.36" rx=".11" ry=".12"/>
      <ellipse class="cls-3" cx="28.79" cy="43" rx=".11" ry=".12"/>
      <line class="cls-4" x1="24.93" y1="65.3" x2="65.74" y2="65.3"/>
    </g>
  </g>
</svg>