<?xml version="1.0" encoding="UTF-8"?>
<svg id="Ebene_2" data-name="Ebene 2" xmlns="http://www.w3.org/2000/svg" viewBox="0 0 80 80">
  <defs>
    <style>
      .cls-1 {
        fill: #fff;
        stroke: #fff;
        stroke-width: 1.17px;
      }

      .cls-1, .cls-2 {
        stroke-miterlimit: 10;
      }

      .cls-2 {
        stroke: #d2b600;
        stroke-width: 1.03px;
      }

      .cls-2, .cls-3 {
        fill: #d2b600;
      }
    </style>
  </defs>
  <g id="Layer_4" data-name="Layer 4">
    <g id="Layer_2" data-name="Layer 2">
      <circle class="cls-3" cx="40" cy="40" r="40"/>
    </g>
    <g>
      <path class="cls-1" d="M16.91,30.13c1.41-2.02,3.68-2.53,4.58-2.73,7.48-1.67,10.75,6.43,19.57,6.32,4.07-.05,8.27-1.84,10.27-2.69,4.72-2.01,6.61-4.02,9.2-3.07,1.46,.54,3.9,2.3,4.66,4.94,.02,.07,.03,.12,.04,.15,1.82,6.83-2.48,12.82-3.38,14.07-1.85,2.57-3.84,3.9-5.99,5.33-4.51,3-8.63,3.94-10.13,4.24-1.89,.37-7.98,1.36-15.14-1.44-2.87-1.12-6.63-2.59-9.98-6.68-1.23-1.5-4.2-5.55-4.78-11.36-.21-2.11-.45-4.88,1.09-7.09Z"/>
      <path class="cls-2" d="M31.17,30.91c.86-.28,1.24,.49,3.36,1.41,.72,.31,3.16,1.32,6.23,1.4,1.51,.04,2.7-.15,3.51-.29,.71-.12,2.21-.38,4.07-1.09,2.08-.79,2.46-1.43,2.98-1.15,1.01,.54,.94,3.55-.08,5.81-1.1,2.44-3.13,3.58-4.51,4.35-1.05,.59-4.31,2.35-8.56,1.61-1.4-.24-4.35-1-6.73-3.55-.83-.88-1.86-2.02-2.09-3.77-.25-1.9,.48-4.29,1.82-4.74Z"/>
    </g>
  </g>
</svg>