<?xml version="1.0" encoding="UTF-8"?>
<svg id="Ebene_2" data-name="Ebene 2" xmlns="http://www.w3.org/2000/svg" viewBox="0 0 80 80">
  <defs>
    <style>
      .cls-1, .cls-2 {
        fill: #fff;
      }

      .cls-2 {
        fill-rule: evenodd;
      }

      .cls-3 {
        fill: #09113f;
      }
    </style>
  </defs>
  <g id="Layer_4" data-name="Layer 4">
    <g id="Layer_2" data-name="Layer 2">
      <circle class="cls-3" cx="40" cy="40" r="40"/>
      <g>
        <rect class="cls-1" x="40.58" y="52.6" width=".77" height="15.08"/>
        <path class="cls-2" d="M36.41,21.91c4.03,1.81,4.11,1.47,4.11,5.27-4.03-1.81-4.11-1.47-4.11-5.27"/>
        <path class="cls-2" d="M45.41,21.91c-4.03,1.81-4.11,1.47-4.11,5.27,4.03-1.81,4.11-1.47,4.11-5.27"/>
        <path class="cls-2" d="M36.13,25.91c4.33,1.94,4.42,1.58,4.42,5.66-4.33-1.94-4.42-1.58-4.42-5.66"/>
        <path class="cls-2" d="M45.71,25.91c-4.33,1.94-4.42,1.58-4.42,5.66,4.33-1.94,4.42-1.58,4.42-5.66"/>
        <path class="cls-2" d="M35.83,30.16c4.63,2.07,4.72,1.69,4.72,6.05-4.63-2.07-4.72-1.69-4.72-6.05"/>
        <path class="cls-2" d="M46.02,30.16c-4.63,2.07-4.72,1.69-4.72,6.05,4.63-2.07,4.72-1.69,4.72-6.05"/>
        <path class="cls-2" d="M35.53,34.69c4.93,2.21,5.03,1.79,5.03,6.44-4.93-2.21-5.03-1.8-5.03-6.44"/>
        <path class="cls-2" d="M46.35,34.69c-4.93,2.21-5.03,1.79-5.03,6.44,4.93-2.21,5.03-1.8,5.03-6.44"/>
        <path class="cls-2" d="M35.22,39.56c5.23,2.34,5.33,1.9,5.33,6.83-5.23-2.34-5.33-1.9-5.33-6.83"/>
        <path class="cls-2" d="M46.68,39.56c-5.23,2.34-5.33,1.9-5.33,6.83,5.23-2.34,5.33-1.9,5.33-6.83"/>
        <path class="cls-2" d="M34.9,44.81c5.53,2.48,5.64,2.01,5.64,7.23-5.53-2.48-5.64-2.01-5.64-7.23"/>
        <path class="cls-2" d="M47.03,44.81c-5.53,2.48-5.64,2.01-5.64,7.23,5.53-2.48,5.64-2.01,5.64-7.23"/>
        <path class="cls-2" d="M40.96,23.56c-2.3-2.46-2.51-2.84,0-5.72,2.51,2.89,2.3,3.26,0,5.72"/>
        <polygon class="cls-2" points="45.05 53.4 45.75 53.69 37.63 67.59 36.94 67.31 45.05 53.4"/>
        <path class="cls-2" d="M57.41,24.29c2.68,3.09,2.93,2.82,.93,6.24-2.68-3.09-2.93-2.82-.93-6.24"/>
        <path class="cls-2" d="M65.5,27.56c-4.57,.16-4.47-.18-6.46,3.24,4.57-.16,4.47,.18,6.46-3.24"/>
        <path class="cls-2" d="M55.06,27.77c2.88,3.32,3.15,3.03,1,6.7-2.88-3.32-3.15-3.03-1-6.7"/>
        <path class="cls-2" d="M63.68,31.27c-4.91,.17-4.8-.19-6.94,3.48,4.91-.17,4.8,.19,6.94-3.48"/>
        <path class="cls-2" d="M52.56,31.49c3.08,3.55,3.36,3.24,1.07,7.16-3.08-3.55-3.36-3.24-1.07-7.16"/>
        <path class="cls-2" d="M61.73,35.2c-5.25,.18-5.13-.2-7.42,3.72,5.25-.18,5.13,.2,7.42-3.72"/>
        <path class="cls-2" d="M49.91,35.46c3.27,3.78,3.58,3.45,1.14,7.63-3.27-3.78-3.58-3.45-1.14-7.63"/>
        <path class="cls-2" d="M59.64,39.4c-5.59,.19-5.46-.22-7.9,3.96,5.59-.19,5.46,.22,7.9-3.96"/>
        <path class="cls-2" d="M47.08,39.73c3.47,4.01,3.8,3.66,1.21,8.09-3.47-4.01-3.8-3.66-1.21-8.09"/>
        <path class="cls-2" d="M57.38,43.9c-5.93,.2-5.8-.23-8.38,4.2,5.93-.2,5.8,.23,8.38-4.2"/>
        <path class="cls-2" d="M44.04,44.33c3.67,4.24,4.02,3.86,1.28,8.55-3.67-4.24-4.02-3.87-1.28-8.55"/>
        <path class="cls-2" d="M54.94,48.74c-6.27,.21-6.13-.24-8.86,4.44,6.27-.21,6.13,.24,8.86-4.44"/>
        <path class="cls-2" d="M60.64,27.42c-.78-3.05-.77-3.46,3-5.15,.74,3.51,.35,3.77-3,5.15"/>
        <polygon class="cls-2" points="36.17 53.96 36.86 53.67 45.5 67.54 44.82 67.83 36.17 53.96"/>
        <path class="cls-2" d="M15.5,28.33c4.58,.06,4.46-.28,6.56,3.1-4.58-.06-4.46,.28-6.56-3.1"/>
        <path class="cls-2" d="M23.49,24.87c-2.58,3.15-2.84,2.88-.74,6.25,2.58-3.15,2.84-2.88,.74-6.25"/>
        <path class="cls-2" d="M17.46,31.98c4.92,.06,4.79-.3,7.05,3.33-4.92-.06-4.79,.3-7.05-3.33"/>
        <path class="cls-2" d="M25.97,28.3c-2.77,3.38-3.05,3.1-.79,6.72,2.77-3.38,3.05-3.1,.79-6.72"/>
        <path class="cls-2" d="M19.55,35.86c5.26,.06,5.12-.32,7.54,3.56-5.26-.06-5.12,.32-7.54-3.56"/>
        <path class="cls-2" d="M28.59,31.95c-2.96,3.62-3.26,3.31-.84,7.18,2.96-3.62,3.26-3.31,.84-7.18"/>
        <path class="cls-2" d="M21.79,40.01c5.6,.07,5.46-.34,8.03,3.79-5.6-.07-5.46,.34-8.03-3.79"/>
        <path class="cls-2" d="M31.39,35.86c-3.15,3.85-3.47,3.52-.9,7.65,3.15-3.85,3.47-3.52,.9-7.65"/>
        <path class="cls-2" d="M24.21,44.45c5.94,.07,5.79-.36,8.51,4.02-5.94-.07-5.79,.36-8.51-4.02"/>
        <path class="cls-2" d="M34.38,40.05c-3.34,4.09-3.68,3.74-.95,8.11,3.34-4.09,3.68-3.74,.95-8.11"/>
        <path class="cls-2" d="M26.82,49.22c6.28,.08,6.12-.38,9,4.25-6.28-.08-6.12,.38-9-4.25"/>
        <path class="cls-2" d="M37.59,44.57c-3.54,4.32-3.89,3.95-1.01,8.58,3.54-4.32,3.89-3.95,1.01-8.58"/>
        <path class="cls-2" d="M20.45,28.04c-3.4-1.3-3.79-1.55-3.17-5.08,3.82,1.6,3.84,2.01,3.17,5.08"/>
      </g>
    </g>
  </g>
</svg>